solid OpenSCAD_Model
  facet normal 1 0 0
    outer loop
      vertex 19.1 0 10.7
      vertex 19.1 0.799999 10.7
      vertex 19.1 0.784628 10.8561
    endloop
  endfacet
  facet normal 1 0 0
    outer loop
      vertex 19.1 0.25 7.4572
      vertex 19.1 5.8 9.5
      vertex 19.1 0.799999 9.5
    endloop
  endfacet
  facet normal 1 0 0
    outer loop
      vertex 19.1 0 10.7
      vertex 19.1 0.784628 10.8561
      vertex 19.1 0.739103 11.0061
    endloop
  endfacet
  facet normal 1 0 0
    outer loop
      vertex 19.1 0 10.7
      vertex 19.1 0.739103 11.0061
      vertex 19.1 0.665175 11.1445
    endloop
  endfacet
  facet normal 1 0 0
    outer loop
      vertex 19.1 0 10.7
      vertex 19.1 0.665175 11.1445
      vertex 19.1 0.565685 11.2657
    endloop
  endfacet
  facet normal 1 0 0
    outer loop
      vertex 19.1 0 10.7
      vertex 19.1 0.565685 11.2657
      vertex 19.1 0.444456 11.3652
    endloop
  endfacet
  facet normal 1 0 0
    outer loop
      vertex 19.1 0 10.7
      vertex 19.1 0.444456 11.3652
      vertex 19.1 0.306147 11.4391
    endloop
  endfacet
  facet normal 1 0 0
    outer loop
      vertex 19.1 0.799999 10.7
      vertex 19.1 0 10.7
      vertex 19.1 0.799999 9.5
    endloop
  endfacet
  facet normal 1 0 0
    outer loop
      vertex 19.1 5.8 9.5
      vertex 19.1 0.25 7.4572
      vertex 19.1 0.245195 7.40843
    endloop
  endfacet
  facet normal 1 0 0
    outer loop
      vertex 19.1 0.230969 7.36153
      vertex 19.1 5.8 9.5
      vertex 19.1 0.245195 7.40843
    endloop
  endfacet
  facet normal 1 0 0
    outer loop
      vertex 19.1 0.207867 7.31831
      vertex 19.1 5.8 9.5
      vertex 19.1 0.230969 7.36153
    endloop
  endfacet
  facet normal 1 0 0
    outer loop
      vertex 19.1 5.8 9.5
      vertex 19.1 0.207867 7.31831
      vertex 19.1 5.8 -2
    endloop
  endfacet
  facet normal 1 -0 0
    outer loop
      vertex 19.1 0.176776 7.28042
      vertex 19.1 5.8 -2
      vertex 19.1 0.207867 7.31831
    endloop
  endfacet
  facet normal 1 -0 0
    outer loop
      vertex 19.1 0.138892 7.24933
      vertex 19.1 5.8 -2
      vertex 19.1 0.176776 7.28042
    endloop
  endfacet
  facet normal 1 0 0
    outer loop
      vertex 19.1 0 -2
      vertex 19.1 0.138892 7.24933
      vertex 19.1 0.0956707 7.22623
    endloop
  endfacet
  facet normal 1 0 0
    outer loop
      vertex 19.1 0 -2
      vertex 19.1 0.0956707 7.22623
      vertex 19.1 0.0487719 7.212
    endloop
  endfacet
  facet normal 1 0 0
    outer loop
      vertex 19.1 0 -2
      vertex 19.1 0.0487719 7.212
      vertex 19.1 0 7.2072
    endloop
  endfacet
  facet normal 1 0 0
    outer loop
      vertex 19.1 0.138892 7.24933
      vertex 19.1 0 -2
      vertex 19.1 5.8 -2
    endloop
  endfacet
  facet normal 1 0 0
    outer loop
      vertex 19.1 0.799999 9.5
      vertex 19.1 0.245195 7.50597
      vertex 19.1 0.25 7.4572
    endloop
  endfacet
  facet normal 1 0 0
    outer loop
      vertex 19.1 0.799999 9.5
      vertex 19.1 0.230969 7.55287
      vertex 19.1 0.245195 7.50597
    endloop
  endfacet
  facet normal 1 0 0
    outer loop
      vertex 19.1 0 7.7072
      vertex 19.1 0.799999 9.5
      vertex 19.1 0 10.7
    endloop
  endfacet
  facet normal 1 0 0
    outer loop
      vertex 19.1 0.799999 9.5
      vertex 19.1 0.207867 7.59609
      vertex 19.1 0.230969 7.55287
    endloop
  endfacet
  facet normal 1 0 0
    outer loop
      vertex 19.1 0 10.7
      vertex 19.1 0.306147 11.4391
      vertex 19.1 0.156072 11.4846
    endloop
  endfacet
  facet normal 1 0 0
    outer loop
      vertex 19.1 0.799999 9.5
      vertex 19.1 0.176776 7.63398
      vertex 19.1 0.207867 7.59609
    endloop
  endfacet
  facet normal 1 0 0
    outer loop
      vertex 19.1 0.799999 9.5
      vertex 19.1 0.138892 7.66507
      vertex 19.1 0.176776 7.63398
    endloop
  endfacet
  facet normal 1 0 0
    outer loop
      vertex 19.1 0.799999 9.5
      vertex 19.1 0.0956707 7.68817
      vertex 19.1 0.138892 7.66507
    endloop
  endfacet
  facet normal 1 0 0
    outer loop
      vertex 19.1 0 10.7
      vertex 19.1 0.156072 11.4846
      vertex 19.1 0 11.5
    endloop
  endfacet
  facet normal 1 0 0
    outer loop
      vertex 19.1 0.799999 9.5
      vertex 19.1 0.0487719 7.7024
      vertex 19.1 0.0956707 7.68817
    endloop
  endfacet
  facet normal 1 0 0
    outer loop
      vertex 19.1 0.799999 9.5
      vertex 19.1 0 7.7072
      vertex 19.1 0.0487719 7.7024
    endloop
  endfacet
  facet normal -0 0 1
    outer loop
      vertex -1 5.8 9.5
      vertex 0 0.799999 9.5
      vertex 0 5.8 9.5
    endloop
  endfacet
  facet normal 0 0 1
    outer loop
      vertex 0 0.799999 9.5
      vertex -1 5.8 9.5
      vertex -1 0.799999 9.5
    endloop
  endfacet
  facet normal -0 0 1
    outer loop
      vertex 18.1 5.8 9.5
      vertex 19.1 0.799999 9.5
      vertex 19.1 5.8 9.5
    endloop
  endfacet
  facet normal 0 0 1
    outer loop
      vertex 19.1 0.799999 9.5
      vertex 18.1 5.8 9.5
      vertex 18.1 0.799999 9.5
    endloop
  endfacet
  facet normal 0 0 -1
    outer loop
      vertex 15.146 -4.25 -2
      vertex -1 -4.25 -2
      vertex 15.146 0 -2
    endloop
  endfacet
  facet normal 0 0 -1
    outer loop
      vertex 15.146 0 -2
      vertex 19.1 5.8 -2
      vertex 19.1 0 -2
    endloop
  endfacet
  facet normal 0 0 -1
    outer loop
      vertex -1 5.8 -2
      vertex 15.146 0 -2
      vertex -1 -4.25 -2
    endloop
  endfacet
  facet normal 0 0 -1
    outer loop
      vertex 15.146 0 -2
      vertex -1 5.8 -2
      vertex 19.1 5.8 -2
    endloop
  endfacet
  facet normal -1 0 0
    outer loop
      vertex -1 0 7.7072
      vertex -1 5.8 9.5
      vertex -1 5.8 -2
    endloop
  endfacet
  facet normal -1 0 0
    outer loop
      vertex -1 0 10.7
      vertex -1 0.799999 10.7
      vertex -1 0.799999 9.5
    endloop
  endfacet
  facet normal -1 0 0
    outer loop
      vertex -1 0.799999 10.7
      vertex -1 0 10.7
      vertex -1 0.784628 10.8561
    endloop
  endfacet
  facet normal -1 -0 0
    outer loop
      vertex -1 0.784628 10.8561
      vertex -1 0 10.7
      vertex -1 0.739103 11.0061
    endloop
  endfacet
  facet normal -1 -0 0
    outer loop
      vertex -1 0.739103 11.0061
      vertex -1 0 10.7
      vertex -1 0.665175 11.1445
    endloop
  endfacet
  facet normal -1 -0 0
    outer loop
      vertex -1 0.665175 11.1445
      vertex -1 0 10.7
      vertex -1 0.565685 11.2657
    endloop
  endfacet
  facet normal -1 -0 0
    outer loop
      vertex -1 0.565685 11.2657
      vertex -1 0 10.7
      vertex -1 0.444456 11.3652
    endloop
  endfacet
  facet normal -1 -0 0
    outer loop
      vertex -1 0.444456 11.3652
      vertex -1 0 10.7
      vertex -1 0.306147 11.4391
    endloop
  endfacet
  facet normal -1 0 0
    outer loop
      vertex -1 0 10.7
      vertex -1 0.799999 9.5
      vertex -1 0 7.7072
    endloop
  endfacet
  facet normal -1 -0 0
    outer loop
      vertex -1 5.8 9.5
      vertex -1 0 7.7072
      vertex -1 0.799999 9.5
    endloop
  endfacet
  facet normal -1 0 0
    outer loop
      vertex -1 -4.25 -2
      vertex -1 0 7.7072
      vertex -1 5.8 -2
    endloop
  endfacet
  facet normal -1 0 0
    outer loop
      vertex -1 -4.25 12.3502
      vertex -1 -2.25 8.8072
      vertex -1 -2.25 7.7072
    endloop
  endfacet
  facet normal -1 0 0
    outer loop
      vertex -1 -2.25 8.8072
      vertex -1 -4.25 12.3502
      vertex -1 -2.25 10.2072
    endloop
  endfacet
  facet normal -1 -0 0
    outer loop
      vertex -1 0 7.7072
      vertex -1 -4.25 -2
      vertex -1 -2.25 7.7072
    endloop
  endfacet
  facet normal -1 0 0
    outer loop
      vertex -1 -4.25 12.3502
      vertex -1 -2.25 7.7072
      vertex -1 -4.25 -2
    endloop
  endfacet
  facet normal -1 0 0
    outer loop
      vertex -1 -2.25 10.2072
      vertex -1 -4.25 12.3502
      vertex -1 -2.25 12.3502
    endloop
  endfacet
  facet normal -1 -0 0
    outer loop
      vertex -1 0.306147 11.4391
      vertex -1 0 10.7
      vertex -1 0.156072 11.4846
    endloop
  endfacet
  facet normal -1 0 0
    outer loop
      vertex -1 0 11.5
      vertex -1 0.156072 11.4846
      vertex -1 0 10.7
    endloop
  endfacet
  facet normal -1 0 0
    outer loop
      vertex -1 -1.46537 9.37064
      vertex -1 -1.46537 9.64376
      vertex -1 -1.45 9.5072
    endloop
  endfacet
  facet normal -1 0 0
    outer loop
      vertex -1 -1.5109 9.23932
      vertex -1 -1.46537 9.64376
      vertex -1 -1.46537 9.37064
    endloop
  endfacet
  facet normal -1 0 0
    outer loop
      vertex -1 -1.5109 9.23932
      vertex -1 -1.5109 9.77508
      vertex -1 -1.46537 9.64376
    endloop
  endfacet
  facet normal -1 0 0
    outer loop
      vertex -1 -1.58482 9.1183
      vertex -1 -1.5109 9.77508
      vertex -1 -1.5109 9.23932
    endloop
  endfacet
  facet normal -1 0 0
    outer loop
      vertex -1 -1.58482 9.1183
      vertex -1 -1.58482 9.8961
      vertex -1 -1.5109 9.77508
    endloop
  endfacet
  facet normal -1 0 0
    outer loop
      vertex -1 -1.68431 9.01223
      vertex -1 -1.58482 9.8961
      vertex -1 -1.58482 9.1183
    endloop
  endfacet
  facet normal -1 0 0
    outer loop
      vertex -1 -1.68431 9.01223
      vertex -1 -1.68431 10.0022
      vertex -1 -1.58482 9.8961
    endloop
  endfacet
  facet normal -1 0 0
    outer loop
      vertex -1 -1.80554 8.92517
      vertex -1 -1.68431 10.0022
      vertex -1 -1.68431 9.01223
    endloop
  endfacet
  facet normal -1 0 0
    outer loop
      vertex -1 -1.80554 8.92517
      vertex -1 -1.80554 10.0892
      vertex -1 -1.68431 10.0022
    endloop
  endfacet
  facet normal -1 0 0
    outer loop
      vertex -1 -1.94385 8.86048
      vertex -1 -1.80554 10.0892
      vertex -1 -1.80554 8.92517
    endloop
  endfacet
  facet normal -1 0 0
    outer loop
      vertex -1 -1.94385 8.86048
      vertex -1 -1.94385 10.1539
      vertex -1 -1.80554 10.0892
    endloop
  endfacet
  facet normal -1 0 0
    outer loop
      vertex -1 -2.09393 8.82065
      vertex -1 -1.94385 10.1539
      vertex -1 -1.94385 8.86048
    endloop
  endfacet
  facet normal -1 0 0
    outer loop
      vertex -1 -2.09393 8.82065
      vertex -1 -2.09393 10.1937
      vertex -1 -1.94385 10.1539
    endloop
  endfacet
  facet normal -1 0 0
    outer loop
      vertex -1 -2.25 8.8072
      vertex -1 -2.09393 10.1937
      vertex -1 -2.09393 8.82065
    endloop
  endfacet
  facet normal -1 -0 0
    outer loop
      vertex -1 -2.09393 10.1937
      vertex -1 -2.25 8.8072
      vertex -1 -2.25 10.2072
    endloop
  endfacet
  facet normal 0 1 0
    outer loop
      vertex 19.1 5.8 9.5
      vertex 18.1 5.8 0
      vertex 18.1 5.8 9.5
    endloop
  endfacet
  facet normal 0 1 0
    outer loop
      vertex 18.1 5.8 0
      vertex 19.1 5.8 -2
      vertex 0 5.8 0
    endloop
  endfacet
  facet normal 0 1 -0
    outer loop
      vertex 19.1 5.8 -2
      vertex 18.1 5.8 0
      vertex 19.1 5.8 9.5
    endloop
  endfacet
  facet normal 0 1 -0
    outer loop
      vertex 0 5.8 0
      vertex -1 5.8 9.5
      vertex 0 5.8 9.5
    endloop
  endfacet
  facet normal 0 1 0
    outer loop
      vertex 0 5.8 0
      vertex -1 5.8 -2
      vertex -1 5.8 9.5
    endloop
  endfacet
  facet normal 0 1 0
    outer loop
      vertex -1 5.8 -2
      vertex 0 5.8 0
      vertex 19.1 5.8 -2
    endloop
  endfacet
  facet normal 0 -1 0
    outer loop
      vertex 15.146 0 -2
      vertex 19.1 0 7.2072
      vertex 15.146 0 7.2072
    endloop
  endfacet
  facet normal 0 -1 -0
    outer loop
      vertex 19.1 0 7.2072
      vertex 15.146 0 -2
      vertex 19.1 0 -2
    endloop
  endfacet
  facet normal 0 -1 0
    outer loop
      vertex -1 0 10.7
      vertex 15.146 0 7.7072
      vertex 19.1 0 10.7
    endloop
  endfacet
  facet normal 0 -1 0
    outer loop
      vertex -1 0 7.7072
      vertex 15.146 0 7.7072
      vertex -1 0 10.7
    endloop
  endfacet
  facet normal 0 -1 -0
    outer loop
      vertex 19.1 0 10.7
      vertex 15.146 0 7.7072
      vertex 19.1 0 7.7072
    endloop
  endfacet
  facet normal 0 0 0
    outer loop
      vertex 15.146 0 -2
      vertex 15.146 0 7.2072
      vertex 15.146 0 7.7072
    endloop
  endfacet
  facet normal -1 0 0
    outer loop
      vertex 18.1 0.799999 0
      vertex 18.1 5.8 9.5
      vertex 18.1 5.8 0
    endloop
  endfacet
  facet normal -1 -0 0
    outer loop
      vertex 18.1 5.8 9.5
      vertex 18.1 0.799999 0
      vertex 18.1 0.799999 9.5
    endloop
  endfacet
  facet normal -0 0 1
    outer loop
      vertex 0 5.8 0
      vertex 18.1 0.799999 0
      vertex 18.1 5.8 0
    endloop
  endfacet
  facet normal 0 0 1
    outer loop
      vertex 18.1 0.799999 0
      vertex 0 5.8 0
      vertex 0 0.799999 0
    endloop
  endfacet
  facet normal 1 -0 0
    outer loop
      vertex 0 0.799999 9.5
      vertex 0 5.8 0
      vertex 0 5.8 9.5
    endloop
  endfacet
  facet normal 1 0 0
    outer loop
      vertex 0 5.8 0
      vertex 0 0.799999 9.5
      vertex 0 0.799999 0
    endloop
  endfacet
  facet normal 0 1 -0
    outer loop
      vertex 18.1 0.799999 0
      vertex 0 0.799999 9.5
      vertex 18.1 0.799999 9.5
    endloop
  endfacet
  facet normal 0 1 0
    outer loop
      vertex 0 0.799999 9.5
      vertex 18.1 0.799999 0
      vertex 0 0.799999 0
    endloop
  endfacet
  facet normal -0 0 1
    outer loop
      vertex -1 0 11.5
      vertex 19.1 -9.68247e-06 11.5
      vertex 19.1 0 11.5
    endloop
  endfacet
  facet normal 0 0 1
    outer loop
      vertex 19.1 -9.68247e-06 11.5
      vertex -1 0 11.5
      vertex -1 -9.68247e-06 11.5
    endloop
  endfacet
  facet normal 0 0.772936 0.634484
    outer loop
      vertex 19.1 0.665175 11.1445
      vertex -1 0.565685 11.2657
      vertex 19.1 0.565685 11.2657
    endloop
  endfacet
  facet normal 0 0.772936 0.634484
    outer loop
      vertex -1 0.565685 11.2657
      vertex 19.1 0.665175 11.1445
      vertex -1 0.665175 11.1445
    endloop
  endfacet
  facet normal 0 0.882049 0.471157
    outer loop
      vertex 19.1 0.739103 11.0061
      vertex -1 0.665175 11.1445
      vertex 19.1 0.665175 11.1445
    endloop
  endfacet
  facet normal 0 0.882049 0.471157
    outer loop
      vertex -1 0.665175 11.1445
      vertex 19.1 0.739103 11.0061
      vertex -1 0.739103 11.0061
    endloop
  endfacet
  facet normal -0 0.0981955 0.995167
    outer loop
      vertex -1 0.156072 11.4846
      vertex 19.1 0 11.5
      vertex 19.1 0.156072 11.4846
    endloop
  endfacet
  facet normal 0 0.0981955 0.995167
    outer loop
      vertex 19.1 0 11.5
      vertex -1 0.156072 11.4846
      vertex -1 0 11.5
    endloop
  endfacet
  facet normal -0 0.471259 0.881995
    outer loop
      vertex -1 0.444456 11.3652
      vertex 19.1 0.306147 11.4391
      vertex 19.1 0.444456 11.3652
    endloop
  endfacet
  facet normal 0 0.471259 0.881995
    outer loop
      vertex 19.1 0.306147 11.4391
      vertex -1 0.444456 11.3652
      vertex -1 0.306147 11.4391
    endloop
  endfacet
  facet normal 0 0.9569 0.290419
    outer loop
      vertex 19.1 0.784628 10.8561
      vertex -1 0.739103 11.0061
      vertex 19.1 0.739103 11.0061
    endloop
  endfacet
  facet normal 0 0.9569 0.290419
    outer loop
      vertex -1 0.739103 11.0061
      vertex 19.1 0.784628 10.8561
      vertex -1 0.784628 10.8561
    endloop
  endfacet
  facet normal -0 0.634431 0.772979
    outer loop
      vertex -1 0.565685 11.2657
      vertex 19.1 0.444456 11.3652
      vertex 19.1 0.565685 11.2657
    endloop
  endfacet
  facet normal 0 0.634431 0.772979
    outer loop
      vertex 19.1 0.444456 11.3652
      vertex -1 0.565685 11.2657
      vertex -1 0.444456 11.3652
    endloop
  endfacet
  facet normal -0 0.29014 0.956984
    outer loop
      vertex -1 0.306147 11.4391
      vertex 19.1 0.156072 11.4846
      vertex 19.1 0.306147 11.4391
    endloop
  endfacet
  facet normal 0 0.29014 0.956984
    outer loop
      vertex 19.1 0.156072 11.4846
      vertex -1 0.306147 11.4391
      vertex -1 0.156072 11.4846
    endloop
  endfacet
  facet normal 0 0.995187 0.097995
    outer loop
      vertex 19.1 0.799999 10.7
      vertex -1 0.784628 10.8561
      vertex 19.1 0.784628 10.8561
    endloop
  endfacet
  facet normal 0 0.995187 0.097995
    outer loop
      vertex -1 0.784628 10.8561
      vertex 19.1 0.799999 10.7
      vertex -1 0.799999 10.7
    endloop
  endfacet
  facet normal 0 0 -1
    outer loop
      vertex -1 -9.68247e-06 11.5
      vertex 19.1 0 11.5
      vertex 19.1 -9.68247e-06 11.5
    endloop
  endfacet
  facet normal -0 0 -1
    outer loop
      vertex 19.1 0 11.5
      vertex -1 -9.68247e-06 11.5
      vertex -1 0 11.5
    endloop
  endfacet
  facet normal 0 -1 0
    outer loop
      vertex -1 0 10.7
      vertex 19.1 0 11.5
      vertex -1 0 11.5
    endloop
  endfacet
  facet normal 0 -1 -0
    outer loop
      vertex 19.1 0 11.5
      vertex -1 0 10.7
      vertex 19.1 0 10.7
    endloop
  endfacet
  facet normal 0 1 0
    outer loop
      vertex 18.1 0.799999 9.5
      vertex 19.1 0.799999 10.7
      vertex 19.1 0.799999 9.5
    endloop
  endfacet
  facet normal 0 1 0
    outer loop
      vertex 19.1 0.799999 10.7
      vertex 18.1 0.799999 9.5
      vertex -1 0.799999 10.7
    endloop
  endfacet
  facet normal 0 1 -0
    outer loop
      vertex 0 0.799999 9.5
      vertex -1 0.799999 10.7
      vertex 18.1 0.799999 9.5
    endloop
  endfacet
  facet normal 0 1 0
    outer loop
      vertex -1 0.799999 10.7
      vertex 0 0.799999 9.5
      vertex -1 0.799999 9.5
    endloop
  endfacet
  facet normal 0 -0.634386 -0.773016
    outer loop
      vertex 15.146 0.138892 7.66507
      vertex 19.1 0.176776 7.63398
      vertex 19.1 0.138892 7.66507
    endloop
  endfacet
  facet normal -0 -0.634386 -0.773016
    outer loop
      vertex 19.1 0.176776 7.63398
      vertex 15.146 0.138892 7.66507
      vertex 15.146 0.176776 7.63398
    endloop
  endfacet
  facet normal 0 -0.471361 0.88194
    outer loop
      vertex 15.146 0.138892 7.24933
      vertex 19.1 0.0956707 7.22623
      vertex 19.1 0.138892 7.24933
    endloop
  endfacet
  facet normal 0 -0.471361 0.88194
    outer loop
      vertex 19.1 0.0956707 7.22623
      vertex 15.146 0.138892 7.24933
      vertex 15.146 0.0956707 7.22623
    endloop
  endfacet
  facet normal 0 -0.0979441 0.995192
    outer loop
      vertex 15.146 0.0487719 7.212
      vertex 19.1 0 7.2072
      vertex 19.1 0.0487719 7.212
    endloop
  endfacet
  facet normal 0 -0.0979441 0.995192
    outer loop
      vertex 19.1 0 7.2072
      vertex 15.146 0.0487719 7.212
      vertex 15.146 0 7.2072
    endloop
  endfacet
  facet normal 0 -0.956946 -0.290267
    outer loop
      vertex 15.146 0.245195 7.50597
      vertex 19.1 0.230969 7.55287
      vertex 15.146 0.230969 7.55287
    endloop
  endfacet
  facet normal 0 -0.956946 -0.290267
    outer loop
      vertex 19.1 0.230969 7.55287
      vertex 15.146 0.245195 7.50597
      vertex 19.1 0.245195 7.50597
    endloop
  endfacet
  facet normal 0 -0.290348 0.956921
    outer loop
      vertex 15.146 0.0956707 7.22623
      vertex 19.1 0.0487719 7.212
      vertex 19.1 0.0956707 7.22623
    endloop
  endfacet
  facet normal 0 -0.290348 0.956921
    outer loop
      vertex 19.1 0.0487719 7.212
      vertex 15.146 0.0956707 7.22623
      vertex 15.146 0.0487719 7.212
    endloop
  endfacet
  facet normal 0 -0.956946 0.290267
    outer loop
      vertex 15.146 0.230969 7.36153
      vertex 19.1 0.245195 7.40843
      vertex 15.146 0.245195 7.40843
    endloop
  endfacet
  facet normal 0 -0.956946 0.290267
    outer loop
      vertex 19.1 0.245195 7.40843
      vertex 15.146 0.230969 7.36153
      vertex 19.1 0.230969 7.36153
    endloop
  endfacet
  facet normal 0 -0.0979441 -0.995192
    outer loop
      vertex 15.146 0 7.7072
      vertex 19.1 0.0487719 7.7024
      vertex 19.1 0 7.7072
    endloop
  endfacet
  facet normal -0 -0.0979441 -0.995192
    outer loop
      vertex 19.1 0.0487719 7.7024
      vertex 15.146 0 7.7072
      vertex 15.146 0.0487719 7.7024
    endloop
  endfacet
  facet normal 0 -0.995182 0.098049
    outer loop
      vertex 15.146 0.245195 7.40843
      vertex 19.1 0.25 7.4572
      vertex 15.146 0.25 7.4572
    endloop
  endfacet
  facet normal 0 -0.995182 0.098049
    outer loop
      vertex 19.1 0.25 7.4572
      vertex 15.146 0.245195 7.40843
      vertex 19.1 0.245195 7.40843
    endloop
  endfacet
  facet normal 0 -0.995182 -0.098049
    outer loop
      vertex 15.146 0.25 7.4572
      vertex 19.1 0.245195 7.50597
      vertex 15.146 0.245195 7.50597
    endloop
  endfacet
  facet normal 0 -0.995182 -0.098049
    outer loop
      vertex 19.1 0.245195 7.50597
      vertex 15.146 0.25 7.4572
      vertex 19.1 0.25 7.4572
    endloop
  endfacet
  facet normal 0 -0.773056 0.634338
    outer loop
      vertex 15.146 0.176776 7.28042
      vertex 19.1 0.207867 7.31831
      vertex 15.146 0.207867 7.31831
    endloop
  endfacet
  facet normal 0 -0.773056 0.634338
    outer loop
      vertex 19.1 0.207867 7.31831
      vertex 15.146 0.176776 7.28042
      vertex 19.1 0.176776 7.28042
    endloop
  endfacet
  facet normal 0 -0.634386 0.773016
    outer loop
      vertex 15.146 0.176776 7.28042
      vertex 19.1 0.138892 7.24933
      vertex 19.1 0.176776 7.28042
    endloop
  endfacet
  facet normal 0 -0.634386 0.773016
    outer loop
      vertex 19.1 0.138892 7.24933
      vertex 15.146 0.176776 7.28042
      vertex 15.146 0.138892 7.24933
    endloop
  endfacet
  facet normal 0 -0.881918 0.471404
    outer loop
      vertex 15.146 0.207867 7.31831
      vertex 19.1 0.230969 7.36153
      vertex 15.146 0.230969 7.36153
    endloop
  endfacet
  facet normal 0 -0.881918 0.471404
    outer loop
      vertex 19.1 0.230969 7.36153
      vertex 15.146 0.207867 7.31831
      vertex 19.1 0.207867 7.31831
    endloop
  endfacet
  facet normal 0 -0.773056 -0.634338
    outer loop
      vertex 15.146 0.207867 7.59609
      vertex 19.1 0.176776 7.63398
      vertex 15.146 0.176776 7.63398
    endloop
  endfacet
  facet normal 0 -0.773056 -0.634338
    outer loop
      vertex 19.1 0.176776 7.63398
      vertex 15.146 0.207867 7.59609
      vertex 19.1 0.207867 7.59609
    endloop
  endfacet
  facet normal 0 -0.881918 -0.471404
    outer loop
      vertex 15.146 0.230969 7.55287
      vertex 19.1 0.207867 7.59609
      vertex 15.146 0.207867 7.59609
    endloop
  endfacet
  facet normal 0 -0.881918 -0.471404
    outer loop
      vertex 19.1 0.207867 7.59609
      vertex 15.146 0.230969 7.55287
      vertex 19.1 0.230969 7.55287
    endloop
  endfacet
  facet normal 1 0 0
    outer loop
      vertex 15.146 0.245195 7.50597
      vertex 15.146 0.245195 7.40843
      vertex 15.146 0.25 7.4572
    endloop
  endfacet
  facet normal 1 0 0
    outer loop
      vertex 15.146 0.230969 7.55287
      vertex 15.146 0.245195 7.40843
      vertex 15.146 0.245195 7.50597
    endloop
  endfacet
  facet normal 1 0 0
    outer loop
      vertex 15.146 0.230969 7.55287
      vertex 15.146 0.230969 7.36153
      vertex 15.146 0.245195 7.40843
    endloop
  endfacet
  facet normal 1 0 0
    outer loop
      vertex 15.146 0.207867 7.59609
      vertex 15.146 0.230969 7.36153
      vertex 15.146 0.230969 7.55287
    endloop
  endfacet
  facet normal 1 0 0
    outer loop
      vertex 15.146 0.207867 7.59609
      vertex 15.146 0.207867 7.31831
      vertex 15.146 0.230969 7.36153
    endloop
  endfacet
  facet normal 1 0 0
    outer loop
      vertex 15.146 0.176776 7.63398
      vertex 15.146 0.207867 7.31831
      vertex 15.146 0.207867 7.59609
    endloop
  endfacet
  facet normal 1 0 0
    outer loop
      vertex 15.146 0.176776 7.63398
      vertex 15.146 0.176776 7.28042
      vertex 15.146 0.207867 7.31831
    endloop
  endfacet
  facet normal 1 0 0
    outer loop
      vertex 15.146 0.138892 7.66507
      vertex 15.146 0.176776 7.28042
      vertex 15.146 0.176776 7.63398
    endloop
  endfacet
  facet normal 1 0 0
    outer loop
      vertex 15.146 0.138892 7.66507
      vertex 15.146 0.138892 7.24933
      vertex 15.146 0.176776 7.28042
    endloop
  endfacet
  facet normal 1 0 0
    outer loop
      vertex 15.146 0.0956707 7.68817
      vertex 15.146 0.138892 7.24933
      vertex 15.146 0.138892 7.66507
    endloop
  endfacet
  facet normal 1 0 0
    outer loop
      vertex 15.146 0.0956707 7.68817
      vertex 15.146 0.0956707 7.22623
      vertex 15.146 0.138892 7.24933
    endloop
  endfacet
  facet normal 1 0 0
    outer loop
      vertex 15.146 0.0487719 7.7024
      vertex 15.146 0.0956707 7.22623
      vertex 15.146 0.0956707 7.68817
    endloop
  endfacet
  facet normal 1 0 0
    outer loop
      vertex 15.146 0.0487719 7.7024
      vertex 15.146 0.0487719 7.212
      vertex 15.146 0.0956707 7.22623
    endloop
  endfacet
  facet normal 1 0 0
    outer loop
      vertex 15.146 0 7.7072
      vertex 15.146 0.0487719 7.212
      vertex 15.146 0.0487719 7.7024
    endloop
  endfacet
  facet normal 1 0 0
    outer loop
      vertex 15.146 0.0487719 7.212
      vertex 15.146 0 7.7072
      vertex 15.146 0 7.2072
    endloop
  endfacet
  facet normal 0 -0.290348 -0.956921
    outer loop
      vertex 15.146 0.0487719 7.7024
      vertex 19.1 0.0956707 7.68817
      vertex 19.1 0.0487719 7.7024
    endloop
  endfacet
  facet normal -0 -0.290348 -0.956921
    outer loop
      vertex 19.1 0.0956707 7.68817
      vertex 15.146 0.0487719 7.7024
      vertex 15.146 0.0956707 7.68817
    endloop
  endfacet
  facet normal 0 -0.471361 -0.88194
    outer loop
      vertex 15.146 0.0956707 7.68817
      vertex 19.1 0.138892 7.66507
      vertex 19.1 0.0956707 7.68817
    endloop
  endfacet
  facet normal -0 -0.471361 -0.88194
    outer loop
      vertex 19.1 0.138892 7.66507
      vertex 15.146 0.0956707 7.68817
      vertex 15.146 0.138892 7.66507
    endloop
  endfacet
  facet normal 1 -0 0
    outer loop
      vertex 15.146 -4.25 12.3502
      vertex 15.146 -2.25 10.2072
      vertex 15.146 -2.25 12.3502
    endloop
  endfacet
  facet normal 1 0 0
    outer loop
      vertex 15.146 -2.25 10.2072
      vertex 15.146 -4.25 12.3502
      vertex 15.146 -2.25 8.8072
    endloop
  endfacet
  facet normal 1 0 0
    outer loop
      vertex 15.146 -2.25 8.8072
      vertex 15.146 -4.25 12.3502
      vertex 15.146 -2.25 7.7072
    endloop
  endfacet
  facet normal 1 0 0
    outer loop
      vertex 15.146 -1.46537 9.64376
      vertex 15.146 -1.46537 9.37064
      vertex 15.146 -1.45 9.5072
    endloop
  endfacet
  facet normal 1 0 0
    outer loop
      vertex 15.146 -1.5109 9.77508
      vertex 15.146 -1.46537 9.37064
      vertex 15.146 -1.46537 9.64376
    endloop
  endfacet
  facet normal 1 0 0
    outer loop
      vertex 15.146 -1.5109 9.77508
      vertex 15.146 -1.5109 9.23932
      vertex 15.146 -1.46537 9.37064
    endloop
  endfacet
  facet normal 1 0 0
    outer loop
      vertex 15.146 -1.58482 9.8961
      vertex 15.146 -1.5109 9.23932
      vertex 15.146 -1.5109 9.77508
    endloop
  endfacet
  facet normal 1 0 0
    outer loop
      vertex 15.146 -1.58482 9.8961
      vertex 15.146 -1.58482 9.1183
      vertex 15.146 -1.5109 9.23932
    endloop
  endfacet
  facet normal 1 0 0
    outer loop
      vertex 15.146 -1.68431 10.0022
      vertex 15.146 -1.58482 9.1183
      vertex 15.146 -1.58482 9.8961
    endloop
  endfacet
  facet normal 1 0 0
    outer loop
      vertex 15.146 -1.68431 10.0022
      vertex 15.146 -1.68431 9.01223
      vertex 15.146 -1.58482 9.1183
    endloop
  endfacet
  facet normal 1 0 0
    outer loop
      vertex 15.146 -1.80554 10.0892
      vertex 15.146 -1.68431 9.01223
      vertex 15.146 -1.68431 10.0022
    endloop
  endfacet
  facet normal 1 0 0
    outer loop
      vertex 15.146 -1.80554 10.0892
      vertex 15.146 -1.80554 8.92517
      vertex 15.146 -1.68431 9.01223
    endloop
  endfacet
  facet normal 1 0 0
    outer loop
      vertex 15.146 -1.94385 10.1539
      vertex 15.146 -1.80554 8.92517
      vertex 15.146 -1.80554 10.0892
    endloop
  endfacet
  facet normal 1 0 0
    outer loop
      vertex 15.146 -1.94385 10.1539
      vertex 15.146 -1.94385 8.86048
      vertex 15.146 -1.80554 8.92517
    endloop
  endfacet
  facet normal 1 0 0
    outer loop
      vertex 15.146 -2.09393 10.1937
      vertex 15.146 -1.94385 8.86048
      vertex 15.146 -1.94385 10.1539
    endloop
  endfacet
  facet normal 1 0 0
    outer loop
      vertex 15.146 -2.09393 10.1937
      vertex 15.146 -2.09393 8.82065
      vertex 15.146 -1.94385 8.86048
    endloop
  endfacet
  facet normal 1 0 0
    outer loop
      vertex 15.146 -2.25 10.2072
      vertex 15.146 -2.09393 8.82065
      vertex 15.146 -2.09393 10.1937
    endloop
  endfacet
  facet normal 1 0 0
    outer loop
      vertex 15.146 -2.09393 8.82065
      vertex 15.146 -2.25 10.2072
      vertex 15.146 -2.25 8.8072
    endloop
  endfacet
  facet normal 1 -0 0
    outer loop
      vertex 15.146 -2.25 7.7072
      vertex 15.146 0 -2
      vertex 15.146 0 7.7072
    endloop
  endfacet
  facet normal 1 0 0
    outer loop
      vertex 15.146 -4.25 -2
      vertex 15.146 -2.25 7.7072
      vertex 15.146 -4.25 12.3502
    endloop
  endfacet
  facet normal 1 0 0
    outer loop
      vertex 15.146 -2.25 7.7072
      vertex 15.146 -4.25 -2
      vertex 15.146 0 -2
    endloop
  endfacet
  facet normal 0 0 1
    outer loop
      vertex 15.146 -2.25 12.3502
      vertex 9.55 -3.75 12.3502
      vertex 15.146 -4.25 12.3502
    endloop
  endfacet
  facet normal 0 0 1
    outer loop
      vertex 15.146 -2.25 12.3502
      vertex 8.55 -3.75 12.3502
      vertex 9.55 -3.75 12.3502
    endloop
  endfacet
  facet normal -0 0 1
    outer loop
      vertex -1 -2.25 12.3502
      vertex 8.55 -3.75 12.3502
      vertex 15.146 -2.25 12.3502
    endloop
  endfacet
  facet normal 0 0 1
    outer loop
      vertex -1 -4.25 12.3502
      vertex 8.55 -3.75 12.3502
      vertex -1 -2.25 12.3502
    endloop
  endfacet
  facet normal 0 0 1
    outer loop
      vertex 8.55 -3.75 12.3502
      vertex -1 -4.25 12.3502
      vertex 8.55 -4.25 12.3502
    endloop
  endfacet
  facet normal 0 0 1
    outer loop
      vertex 15.146 -4.25 12.3502
      vertex 9.55 -3.75 12.3502
      vertex 9.55 -4.25 12.3502
    endloop
  endfacet
  facet normal 0 -1 0
    outer loop
      vertex -1 -4.25 12.3502
      vertex 8.55 -4.25 9.8502
      vertex 8.55 -4.25 12.3502
    endloop
  endfacet
  facet normal 0 -1 0
    outer loop
      vertex 7.85085 -4.25 5.59874
      vertex 8.55 -4.25 9.8502
      vertex 7.08597 -4.25 5.59874
    endloop
  endfacet
  facet normal 0 -1 0
    outer loop
      vertex -1 -4.25 12.3502
      vertex 7.08597 -4.25 5.59874
      vertex 8.55 -4.25 9.8502
    endloop
  endfacet
  facet normal 0 -1 0
    outer loop
      vertex -1 -4.25 12.3502
      vertex 7.07872 -4.25 5.28351
      vertex 7.08597 -4.25 5.59874
    endloop
  endfacet
  facet normal 0 -1 0
    outer loop
      vertex -1 -4.25 12.3502
      vertex 7.05701 -4.25 4.97249
      vertex 7.07872 -4.25 5.28351
    endloop
  endfacet
  facet normal 0 -1 0
    outer loop
      vertex -1 -4.25 12.3502
      vertex 7.0208 -4.25 4.66571
      vertex 7.05701 -4.25 4.97249
    endloop
  endfacet
  facet normal 0 -1 0
    outer loop
      vertex -1 -4.25 12.3502
      vertex 6.97009 -4.25 4.36316
      vertex 7.0208 -4.25 4.66571
    endloop
  endfacet
  facet normal 0 -1 0
    outer loop
      vertex -1 -4.25 12.3502
      vertex 6.90491 -4.25 4.06485
      vertex 6.97009 -4.25 4.36316
    endloop
  endfacet
  facet normal 0 -1 0
    outer loop
      vertex -1 -4.25 12.3502
      vertex 6.82523 -4.25 3.76782
      vertex 6.90491 -4.25 4.06485
    endloop
  endfacet
  facet normal 0 -1 0
    outer loop
      vertex -1 -4.25 12.3502
      vertex 6.73108 -4.25 3.46918
      vertex 6.82523 -4.25 3.76782
    endloop
  endfacet
  facet normal 0 -1 0
    outer loop
      vertex -1 -4.25 12.3502
      vertex 6.62244 -4.25 3.1689
      vertex 6.73108 -4.25 3.46918
    endloop
  endfacet
  facet normal 0 -1 0
    outer loop
      vertex -1 -4.25 12.3502
      vertex 6.49933 -4.25 2.86699
      vertex 6.62244 -4.25 3.1689
    endloop
  endfacet
  facet normal 0 -1 0
    outer loop
      vertex -1 -4.25 12.3502
      vertex 6.36173 -4.25 2.56346
      vertex 6.49933 -4.25 2.86699
    endloop
  endfacet
  facet normal 0 -1 0
    outer loop
      vertex -1 -4.25 12.3502
      vertex 6.19621 -4.25 2.23584
      vertex 6.36173 -4.25 2.56346
    endloop
  endfacet
  facet normal 0 -1 0
    outer loop
      vertex -1 -4.25 12.3502
      vertex 5.98937 -4.25 1.86168
      vertex 6.19621 -4.25 2.23584
    endloop
  endfacet
  facet normal 0 -1 0
    outer loop
      vertex -1 -4.25 12.3502
      vertex 5.74117 -4.25 1.44098
      vertex 5.98937 -4.25 1.86168
    endloop
  endfacet
  facet normal 0 -1 0
    outer loop
      vertex -1 -4.25 -2
      vertex 5.74117 -4.25 1.44098
      vertex -1 -4.25 12.3502
    endloop
  endfacet
  facet normal 0 -1 0
    outer loop
      vertex 5.74117 -4.25 1.44098
      vertex -1 -4.25 -2
      vertex 5.45163 -4.25 0.973724
    endloop
  endfacet
  facet normal 0 -1 0
    outer loop
      vertex 5.45163 -4.25 0.973724
      vertex -1 -4.25 -2
      vertex 5.12074 -4.25 0.459915
    endloop
  endfacet
  facet normal 0 -1 -0
    outer loop
      vertex 5.12074 -4.25 -0.134125
      vertex -1 -4.25 -2
      vertex 8.90877 -4.25 -0.134125
    endloop
  endfacet
  facet normal 0 -1 -0
    outer loop
      vertex 5.12074 -4.25 0.459915
      vertex -1 -4.25 -2
      vertex 5.12074 -4.25 -0.134125
    endloop
  endfacet
  facet normal 0 -1 0
    outer loop
      vertex 9.55 -4.25 9.8502
      vertex 15.146 -4.25 12.3502
      vertex 9.55 -4.25 12.3502
    endloop
  endfacet
  facet normal 0 -1 -0
    outer loop
      vertex 8.55 -4.25 9.8502
      vertex 7.85085 -4.25 5.59874
      vertex 9.55 -4.25 9.8502
    endloop
  endfacet
  facet normal 0 -1 -0
    outer loop
      vertex 9.55 -4.25 9.8502
      vertex 7.85085 -4.25 5.59874
      vertex 15.146 -4.25 12.3502
    endloop
  endfacet
  facet normal 0 -1 0
    outer loop
      vertex 15.146 -4.25 -2
      vertex 7.85085 -4.25 5.59874
      vertex 7.83222 -4.25 5.15469
    endloop
  endfacet
  facet normal 0 -1 0
    outer loop
      vertex 15.146 -4.25 -2
      vertex 7.83222 -4.25 5.15469
      vertex 7.77632 -4.25 4.70135
    endloop
  endfacet
  facet normal 0 -1 0
    outer loop
      vertex 8.90877 -4.25 0.488358
      vertex 7.77632 -4.25 4.70135
      vertex 7.68315 -4.25 4.23874
    endloop
  endfacet
  facet normal 0 -1 0
    outer loop
      vertex 8.90877 -4.25 0.488358
      vertex 7.68315 -4.25 4.23874
      vertex 7.55271 -4.25 3.76685
    endloop
  endfacet
  facet normal 0 -1 0
    outer loop
      vertex 8.90877 -4.25 0.488358
      vertex 7.55271 -4.25 3.76685
      vertex 7.38501 -4.25 3.28568
    endloop
  endfacet
  facet normal 0 -1 0
    outer loop
      vertex 8.90877 -4.25 0.488358
      vertex 7.38501 -4.25 3.28568
      vertex 7.17368 -4.25 2.78514
    endloop
  endfacet
  facet normal 0 -1 0
    outer loop
      vertex 8.90877 -4.25 0.488358
      vertex 7.17368 -4.25 2.78514
      vertex 6.91239 -4.25 2.25514
    endloop
  endfacet
  facet normal 0 -1 0
    outer loop
      vertex 8.90877 -4.25 0.488358
      vertex 6.91239 -4.25 2.25514
      vertex 6.60114 -4.25 1.69568
    endloop
  endfacet
  facet normal 0 -1 0
    outer loop
      vertex 8.90877 -4.25 0.488358
      vertex 6.60114 -4.25 1.69568
      vertex 6.23992 -4.25 1.10675
    endloop
  endfacet
  facet normal 0 -1 0
    outer loop
      vertex 8.90877 -4.25 0.488358
      vertex 6.23992 -4.25 1.10675
      vertex 5.82875 -4.25 0.488358
    endloop
  endfacet
  facet normal 0 -1 0
    outer loop
      vertex 7.77632 -4.25 4.70135
      vertex 8.90877 -4.25 0.488358
      vertex 15.146 -4.25 -2
    endloop
  endfacet
  facet normal 0 -1 0
    outer loop
      vertex 15.146 -4.25 -2
      vertex 8.90877 -4.25 0.488358
      vertex 8.90877 -4.25 -0.134125
    endloop
  endfacet
  facet normal 0 -1 0
    outer loop
      vertex 7.85085 -4.25 5.59874
      vertex 15.146 -4.25 -2
      vertex 15.146 -4.25 12.3502
    endloop
  endfacet
  facet normal 0 -1 0
    outer loop
      vertex 15.146 -4.25 -2
      vertex 8.90877 -4.25 -0.134125
      vertex -1 -4.25 -2
    endloop
  endfacet
  facet normal -1 0 0
    outer loop
      vertex 9.55 -4.25 9.8502
      vertex 9.55 -3.75 12.3502
      vertex 9.55 -3.75 9.8502
    endloop
  endfacet
  facet normal -1 -0 0
    outer loop
      vertex 9.55 -3.75 12.3502
      vertex 9.55 -4.25 9.8502
      vertex 9.55 -4.25 12.3502
    endloop
  endfacet
  facet normal -0 0 1
    outer loop
      vertex 8.55 -3.75 9.8502
      vertex 9.55 -4.25 9.8502
      vertex 9.55 -3.75 9.8502
    endloop
  endfacet
  facet normal 0 0 1
    outer loop
      vertex 9.55 -4.25 9.8502
      vertex 8.55 -3.75 9.8502
      vertex 8.55 -4.25 9.8502
    endloop
  endfacet
  facet normal 1 -0 0
    outer loop
      vertex 8.55 -4.25 12.3502
      vertex 8.55 -3.75 9.8502
      vertex 8.55 -3.75 12.3502
    endloop
  endfacet
  facet normal 1 0 0
    outer loop
      vertex 8.55 -3.75 9.8502
      vertex 8.55 -4.25 12.3502
      vertex 8.55 -4.25 9.8502
    endloop
  endfacet
  facet normal 0 -1 0
    outer loop
      vertex 8.55 -3.75 9.8502
      vertex 9.55 -3.75 12.3502
      vertex 8.55 -3.75 12.3502
    endloop
  endfacet
  facet normal 0 -1 -0
    outer loop
      vertex 9.55 -3.75 12.3502
      vertex 8.55 -3.75 9.8502
      vertex 9.55 -3.75 9.8502
    endloop
  endfacet
  facet normal -0 0 1
    outer loop
      vertex -1 0 7.7072
      vertex 15.146 -2.25 7.7072
      vertex 15.146 0 7.7072
    endloop
  endfacet
  facet normal 0 0 1
    outer loop
      vertex 15.146 -2.25 7.7072
      vertex -1 0 7.7072
      vertex -1 -2.25 7.7072
    endloop
  endfacet
  facet normal 0 1 -0
    outer loop
      vertex 15.146 -2.25 10.2072
      vertex -1 -2.25 12.3502
      vertex 15.146 -2.25 12.3502
    endloop
  endfacet
  facet normal 0 1 0
    outer loop
      vertex -1 -2.25 12.3502
      vertex 15.146 -2.25 10.2072
      vertex -1 -2.25 10.2072
    endloop
  endfacet
  facet normal 0 1 -0
    outer loop
      vertex 15.146 -2.25 7.7072
      vertex -1 -2.25 8.8072
      vertex 15.146 -2.25 8.8072
    endloop
  endfacet
  facet normal 0 1 0
    outer loop
      vertex -1 -2.25 8.8072
      vertex 15.146 -2.25 7.7072
      vertex -1 -2.25 7.7072
    endloop
  endfacet
  facet normal 0 -1 0
    outer loop
      vertex 7.07872 -3.75 5.28351
      vertex 7.85085 -3.75 5.59874
      vertex 7.08597 -3.75 5.59874
    endloop
  endfacet
  facet normal 0 -1 0
    outer loop
      vertex 7.07872 -3.75 5.28351
      vertex 7.83222 -3.75 5.15469
      vertex 7.85085 -3.75 5.59874
    endloop
  endfacet
  facet normal 0 -1 0
    outer loop
      vertex 7.05701 -3.75 4.97249
      vertex 7.83222 -3.75 5.15469
      vertex 7.07872 -3.75 5.28351
    endloop
  endfacet
  facet normal 0 -1 0
    outer loop
      vertex 7.05701 -3.75 4.97249
      vertex 7.77632 -3.75 4.70135
      vertex 7.83222 -3.75 5.15469
    endloop
  endfacet
  facet normal 0 -1 0
    outer loop
      vertex 7.0208 -3.75 4.66571
      vertex 7.77632 -3.75 4.70135
      vertex 7.05701 -3.75 4.97249
    endloop
  endfacet
  facet normal 0 -1 0
    outer loop
      vertex 7.68315 -3.75 4.23874
      vertex 7.0208 -3.75 4.66571
      vertex 6.97009 -3.75 4.36316
    endloop
  endfacet
  facet normal 0 -1 0
    outer loop
      vertex 7.0208 -3.75 4.66571
      vertex 7.68315 -3.75 4.23874
      vertex 7.77632 -3.75 4.70135
    endloop
  endfacet
  facet normal 0 -1 0
    outer loop
      vertex 6.90491 -3.75 4.06485
      vertex 7.68315 -3.75 4.23874
      vertex 6.97009 -3.75 4.36316
    endloop
  endfacet
  facet normal 0 -1 0
    outer loop
      vertex 7.55271 -3.75 3.76685
      vertex 6.90491 -3.75 4.06485
      vertex 6.82523 -3.75 3.76782
    endloop
  endfacet
  facet normal 0 -1 0
    outer loop
      vertex 6.90491 -3.75 4.06485
      vertex 7.55271 -3.75 3.76685
      vertex 7.68315 -3.75 4.23874
    endloop
  endfacet
  facet normal 0 -1 0
    outer loop
      vertex 7.38501 -3.75 3.28568
      vertex 6.82523 -3.75 3.76782
      vertex 6.73108 -3.75 3.46918
    endloop
  endfacet
  facet normal 0 -1 0
    outer loop
      vertex 6.82523 -3.75 3.76782
      vertex 7.38501 -3.75 3.28568
      vertex 7.55271 -3.75 3.76685
    endloop
  endfacet
  facet normal 0 -1 0
    outer loop
      vertex 6.62244 -3.75 3.1689
      vertex 7.38501 -3.75 3.28568
      vertex 6.73108 -3.75 3.46918
    endloop
  endfacet
  facet normal 0 -1 0
    outer loop
      vertex 7.17368 -3.75 2.78514
      vertex 6.62244 -3.75 3.1689
      vertex 6.49933 -3.75 2.86699
    endloop
  endfacet
  facet normal 0 -1 0
    outer loop
      vertex 6.62244 -3.75 3.1689
      vertex 7.17368 -3.75 2.78514
      vertex 7.38501 -3.75 3.28568
    endloop
  endfacet
  facet normal 0 -1 0
    outer loop
      vertex 6.91239 -3.75 2.25514
      vertex 6.49933 -3.75 2.86699
      vertex 6.36173 -3.75 2.56346
    endloop
  endfacet
  facet normal 0 -1 0
    outer loop
      vertex 6.49933 -3.75 2.86699
      vertex 6.91239 -3.75 2.25514
      vertex 7.17368 -3.75 2.78514
    endloop
  endfacet
  facet normal 0 -1 0
    outer loop
      vertex 6.19621 -3.75 2.23584
      vertex 6.91239 -3.75 2.25514
      vertex 6.36173 -3.75 2.56346
    endloop
  endfacet
  facet normal 0 -1 0
    outer loop
      vertex 6.60114 -3.75 1.69568
      vertex 6.19621 -3.75 2.23584
      vertex 5.98937 -3.75 1.86168
    endloop
  endfacet
  facet normal 0 -1 0
    outer loop
      vertex 6.19621 -3.75 2.23584
      vertex 6.60114 -3.75 1.69568
      vertex 6.91239 -3.75 2.25514
    endloop
  endfacet
  facet normal 0 -1 0
    outer loop
      vertex 6.23992 -3.75 1.10675
      vertex 5.98937 -3.75 1.86168
      vertex 5.74117 -3.75 1.44098
    endloop
  endfacet
  facet normal 0 -1 0
    outer loop
      vertex 5.98937 -3.75 1.86168
      vertex 6.23992 -3.75 1.10675
      vertex 6.60114 -3.75 1.69568
    endloop
  endfacet
  facet normal 0 -1 0
    outer loop
      vertex 5.45163 -3.75 0.973724
      vertex 6.23992 -3.75 1.10675
      vertex 5.74117 -3.75 1.44098
    endloop
  endfacet
  facet normal 0 -1 0
    outer loop
      vertex 5.45163 -3.75 0.973724
      vertex 5.82875 -3.75 0.488358
      vertex 6.23992 -3.75 1.10675
    endloop
  endfacet
  facet normal 0 -1 0
    outer loop
      vertex 5.12074 -3.75 0.459915
      vertex 5.82875 -3.75 0.488358
      vertex 5.45163 -3.75 0.973724
    endloop
  endfacet
  facet normal 0 -1 0
    outer loop
      vertex 5.12074 -3.75 -0.134125
      vertex 5.82875 -3.75 0.488358
      vertex 5.12074 -3.75 0.459915
    endloop
  endfacet
  facet normal 0 -1 0
    outer loop
      vertex 8.90877 -3.75 -0.134125
      vertex 5.82875 -3.75 0.488358
      vertex 5.12074 -3.75 -0.134125
    endloop
  endfacet
  facet normal 0 -1 0
    outer loop
      vertex 5.82875 -3.75 0.488358
      vertex 8.90877 -3.75 -0.134125
      vertex 8.90877 -3.75 0.488358
    endloop
  endfacet
  facet normal 0.997573 0 -0.0696332
    outer loop
      vertex 7.07872 -4.25 5.28351
      vertex 7.05701 -3.75 4.97249
      vertex 7.07872 -3.75 5.28351
    endloop
  endfacet
  facet normal 0.997573 0 -0.0696332
    outer loop
      vertex 7.05701 -3.75 4.97249
      vertex 7.07872 -4.25 5.28351
      vertex 7.05701 -4.25 4.97249
    endloop
  endfacet
  facet normal 0.993106 0 -0.117219
    outer loop
      vertex 7.05701 -4.25 4.97249
      vertex 7.0208 -3.75 4.66571
      vertex 7.05701 -3.75 4.97249
    endloop
  endfacet
  facet normal 0.993106 0 -0.117219
    outer loop
      vertex 7.0208 -3.75 4.66571
      vertex 7.05701 -4.25 4.97249
      vertex 7.0208 -4.25 4.66571
    endloop
  endfacet
  facet normal 0.986243 0 -0.165303
    outer loop
      vertex 7.0208 -4.25 4.66571
      vertex 6.97009 -3.75 4.36316
      vertex 7.0208 -3.75 4.66571
    endloop
  endfacet
  facet normal 0.986243 0 -0.165303
    outer loop
      vertex 6.97009 -3.75 4.36316
      vertex 7.0208 -4.25 4.66571
      vertex 6.97009 -4.25 4.36316
    endloop
  endfacet
  facet normal 0.976951 0 -0.213461
    outer loop
      vertex 6.97009 -4.25 4.36316
      vertex 6.90491 -3.75 4.06485
      vertex 6.97009 -3.75 4.36316
    endloop
  endfacet
  facet normal 0.976951 0 -0.213461
    outer loop
      vertex 6.90491 -3.75 4.06485
      vertex 6.97009 -4.25 4.36316
      vertex 6.90491 -4.25 4.06485
    endloop
  endfacet
  facet normal 0.965852 0 -0.259095
    outer loop
      vertex 6.90491 -4.25 4.06485
      vertex 6.82523 -3.75 3.76782
      vertex 6.90491 -3.75 4.06485
    endloop
  endfacet
  facet normal 0.965852 0 -0.259095
    outer loop
      vertex 6.82523 -3.75 3.76782
      vertex 6.90491 -4.25 4.06485
      vertex 6.82523 -4.25 3.76782
    endloop
  endfacet
  facet normal 0.953727 0 -0.300674
    outer loop
      vertex 6.82523 -4.25 3.76782
      vertex 6.73108 -3.75 3.46918
      vertex 6.82523 -3.75 3.76782
    endloop
  endfacet
  facet normal 0.953727 0 -0.300674
    outer loop
      vertex 6.73108 -3.75 3.46918
      vertex 6.82523 -4.25 3.76782
      vertex 6.73108 -4.25 3.46918
    endloop
  endfacet
  facet normal 0.940348 0 -0.340214
    outer loop
      vertex 6.73108 -4.25 3.46918
      vertex 6.62244 -3.75 3.1689
      vertex 6.73108 -3.75 3.46918
    endloop
  endfacet
  facet normal 0.940348 0 -0.340214
    outer loop
      vertex 6.62244 -3.75 3.1689
      vertex 6.73108 -4.25 3.46918
      vertex 6.62244 -4.25 3.1689
    endloop
  endfacet
  facet normal 0.925975 0 -0.377585
    outer loop
      vertex 6.62244 -4.25 3.1689
      vertex 6.49933 -3.75 2.86699
      vertex 6.62244 -3.75 3.1689
    endloop
  endfacet
  facet normal 0.925975 0 -0.377585
    outer loop
      vertex 6.49933 -3.75 2.86699
      vertex 6.62244 -4.25 3.1689
      vertex 6.49933 -4.25 2.86699
    endloop
  endfacet
  facet normal 0.910782 0 -0.412887
    outer loop
      vertex 6.49933 -4.25 2.86699
      vertex 6.36173 -3.75 2.56346
      vertex 6.49933 -3.75 2.86699
    endloop
  endfacet
  facet normal 0.910782 0 -0.412887
    outer loop
      vertex 6.36173 -3.75 2.56346
      vertex 6.49933 -4.25 2.86699
      vertex 6.36173 -4.25 2.56346
    endloop
  endfacet
  facet normal 0.892556 0 -0.450937
    outer loop
      vertex 6.36173 -4.25 2.56346
      vertex 6.19621 -3.75 2.23584
      vertex 6.36173 -3.75 2.56346
    endloop
  endfacet
  facet normal 0.892556 0 -0.450937
    outer loop
      vertex 6.19621 -3.75 2.23584
      vertex 6.36173 -4.25 2.56346
      vertex 6.19621 -4.25 2.23584
    endloop
  endfacet
  facet normal 0.875175 0 -0.483807
    outer loop
      vertex 6.19621 -4.25 2.23584
      vertex 5.98937 -3.75 1.86168
      vertex 6.19621 -3.75 2.23584
    endloop
  endfacet
  facet normal 0.875175 0 -0.483807
    outer loop
      vertex 5.98937 -3.75 1.86168
      vertex 6.19621 -4.25 2.23584
      vertex 5.98937 -4.25 1.86168
    endloop
  endfacet
  facet normal 0.861281 0 -0.508129
    outer loop
      vertex 5.98937 -4.25 1.86168
      vertex 5.74117 -3.75 1.44098
      vertex 5.98937 -3.75 1.86168
    endloop
  endfacet
  facet normal 0.861281 0 -0.508129
    outer loop
      vertex 5.74117 -3.75 1.44098
      vertex 5.98937 -4.25 1.86168
      vertex 5.74117 -4.25 1.44098
    endloop
  endfacet
  facet normal 0.850032 0 -0.526731
    outer loop
      vertex 5.74117 -4.25 1.44098
      vertex 5.45163 -3.75 0.973724
      vertex 5.74117 -3.75 1.44098
    endloop
  endfacet
  facet normal 0.850032 0 -0.526731
    outer loop
      vertex 5.45163 -3.75 0.973724
      vertex 5.74117 -4.25 1.44098
      vertex 5.45163 -4.25 0.973724
    endloop
  endfacet
  facet normal 0.840743 0 -0.541434
    outer loop
      vertex 5.45163 -4.25 0.973724
      vertex 5.12074 -3.75 0.459915
      vertex 5.45163 -3.75 0.973724
    endloop
  endfacet
  facet normal 0.840743 0 -0.541434
    outer loop
      vertex 5.12074 -3.75 0.459915
      vertex 5.45163 -4.25 0.973724
      vertex 5.12074 -4.25 0.459915
    endloop
  endfacet
  facet normal 1 -0 0
    outer loop
      vertex 5.12074 -4.25 0.459915
      vertex 5.12074 -3.75 -0.134125
      vertex 5.12074 -3.75 0.459915
    endloop
  endfacet
  facet normal 1 0 0
    outer loop
      vertex 5.12074 -3.75 -0.134125
      vertex 5.12074 -4.25 0.459915
      vertex 5.12074 -4.25 -0.134125
    endloop
  endfacet
  facet normal -0 0 1
    outer loop
      vertex 5.12074 -3.75 -0.134125
      vertex 8.90877 -4.25 -0.134125
      vertex 8.90877 -3.75 -0.134125
    endloop
  endfacet
  facet normal 0 0 1
    outer loop
      vertex 8.90877 -4.25 -0.134125
      vertex 5.12074 -3.75 -0.134125
      vertex 5.12074 -4.25 -0.134125
    endloop
  endfacet
  facet normal -1 0 0
    outer loop
      vertex 8.90877 -4.25 -0.134125
      vertex 8.90877 -3.75 0.488358
      vertex 8.90877 -3.75 -0.134125
    endloop
  endfacet
  facet normal -1 -0 0
    outer loop
      vertex 8.90877 -3.75 0.488358
      vertex 8.90877 -4.25 -0.134125
      vertex 8.90877 -4.25 0.488358
    endloop
  endfacet
  facet normal 0 0 -1
    outer loop
      vertex 5.82875 -4.25 0.488358
      vertex 8.90877 -3.75 0.488358
      vertex 8.90877 -4.25 0.488358
    endloop
  endfacet
  facet normal -0 0 -1
    outer loop
      vertex 8.90877 -3.75 0.488358
      vertex 5.82875 -4.25 0.488358
      vertex 5.82875 -3.75 0.488358
    endloop
  endfacet
  facet normal -0.832728 0 0.553682
    outer loop
      vertex 5.82875 -4.25 0.488358
      vertex 6.23992 -3.75 1.10675
      vertex 5.82875 -3.75 0.488358
    endloop
  endfacet
  facet normal -0.832728 0 0.553682
    outer loop
      vertex 6.23992 -3.75 1.10675
      vertex 5.82875 -4.25 0.488358
      vertex 6.23992 -4.25 1.10675
    endloop
  endfacet
  facet normal -0.852432 0 0.522839
    outer loop
      vertex 6.23992 -4.25 1.10675
      vertex 6.60114 -3.75 1.69568
      vertex 6.23992 -3.75 1.10675
    endloop
  endfacet
  facet normal -0.852432 0 0.522839
    outer loop
      vertex 6.60114 -3.75 1.69568
      vertex 6.23992 -4.25 1.10675
      vertex 6.60114 -4.25 1.69568
    endloop
  endfacet
  facet normal -0.873866 0 0.486167
    outer loop
      vertex 6.60114 -4.25 1.69568
      vertex 6.91239 -3.75 2.25514
      vertex 6.60114 -3.75 1.69568
    endloop
  endfacet
  facet normal -0.873866 0 0.486167
    outer loop
      vertex 6.91239 -3.75 2.25514
      vertex 6.60114 -4.25 1.69568
      vertex 6.91239 -4.25 2.25514
    endloop
  endfacet
  facet normal -0.896924 0 0.442184
    outer loop
      vertex 6.91239 -4.25 2.25514
      vertex 7.17368 -3.75 2.78514
      vertex 6.91239 -3.75 2.25514
    endloop
  endfacet
  facet normal -0.896924 0 0.442184
    outer loop
      vertex 7.17368 -3.75 2.78514
      vertex 6.91239 -4.25 2.25514
      vertex 7.17368 -4.25 2.78514
    endloop
  endfacet
  facet normal -0.921256 0 0.388958
    outer loop
      vertex 7.17368 -4.25 2.78514
      vertex 7.38501 -3.75 3.28568
      vertex 7.17368 -3.75 2.78514
    endloop
  endfacet
  facet normal -0.921256 0 0.388958
    outer loop
      vertex 7.38501 -3.75 3.28568
      vertex 7.17368 -4.25 2.78514
      vertex 7.38501 -4.25 3.28568
    endloop
  endfacet
  facet normal -0.944292 0 0.32911
    outer loop
      vertex 7.38501 -4.25 3.28568
      vertex 7.55271 -3.75 3.76685
      vertex 7.38501 -3.75 3.28568
    endloop
  endfacet
  facet normal -0.944292 0 0.32911
    outer loop
      vertex 7.55271 -3.75 3.76685
      vertex 7.38501 -4.25 3.28568
      vertex 7.55271 -4.25 3.76685
    endloop
  endfacet
  facet normal -0.963855 0 0.266429
    outer loop
      vertex 7.55271 -4.25 3.76685
      vertex 7.68315 -3.75 4.23874
      vertex 7.55271 -3.75 3.76685
    endloop
  endfacet
  facet normal -0.963855 0 0.266429
    outer loop
      vertex 7.68315 -3.75 4.23874
      vertex 7.55271 -4.25 3.76685
      vertex 7.68315 -4.25 4.23874
    endloop
  endfacet
  facet normal -0.980316 0 0.197436
    outer loop
      vertex 7.68315 -4.25 4.23874
      vertex 7.77632 -3.75 4.70135
      vertex 7.68315 -3.75 4.23874
    endloop
  endfacet
  facet normal -0.980316 0 0.197436
    outer loop
      vertex 7.77632 -3.75 4.70135
      vertex 7.68315 -4.25 4.23874
      vertex 7.77632 -4.25 4.70135
    endloop
  endfacet
  facet normal -0.992483 0 0.12238
    outer loop
      vertex 7.77632 -4.25 4.70135
      vertex 7.83222 -3.75 5.15469
      vertex 7.77632 -3.75 4.70135
    endloop
  endfacet
  facet normal -0.992483 0 0.12238
    outer loop
      vertex 7.83222 -3.75 5.15469
      vertex 7.77632 -4.25 4.70135
      vertex 7.83222 -4.25 5.15469
    endloop
  endfacet
  facet normal -0.999121 0 0.0419179
    outer loop
      vertex 7.83222 -4.25 5.15469
      vertex 7.85085 -3.75 5.59874
      vertex 7.83222 -3.75 5.15469
    endloop
  endfacet
  facet normal -0.999121 0 0.0419179
    outer loop
      vertex 7.85085 -3.75 5.59874
      vertex 7.83222 -4.25 5.15469
      vertex 7.85085 -4.25 5.59874
    endloop
  endfacet
  facet normal 0 0 -1
    outer loop
      vertex 7.08597 -4.25 5.59874
      vertex 7.85085 -3.75 5.59874
      vertex 7.85085 -4.25 5.59874
    endloop
  endfacet
  facet normal -0 0 -1
    outer loop
      vertex 7.85085 -3.75 5.59874
      vertex 7.08597 -4.25 5.59874
      vertex 7.08597 -3.75 5.59874
    endloop
  endfacet
  facet normal 0.999736 0 -0.022993
    outer loop
      vertex 7.08597 -4.25 5.59874
      vertex 7.07872 -3.75 5.28351
      vertex 7.08597 -3.75 5.59874
    endloop
  endfacet
  facet normal 0.999736 0 -0.022993
    outer loop
      vertex 7.07872 -3.75 5.28351
      vertex 7.08597 -4.25 5.59874
      vertex 7.07872 -4.25 5.28351
    endloop
  endfacet
  facet normal 0 0.993726 -0.111845
    outer loop
      vertex 15.146 -1.46537 9.37064
      vertex -1 -1.45 9.5072
      vertex 15.146 -1.45 9.5072
    endloop
  endfacet
  facet normal 0 0.993726 -0.111845
    outer loop
      vertex -1 -1.45 9.5072
      vertex 15.146 -1.46537 9.37064
      vertex -1 -1.46537 9.37064
    endloop
  endfacet
  facet normal 0 0.423667 -0.905818
    outer loop
      vertex -1 -1.94385 8.86048
      vertex 15.146 -1.80554 8.92517
      vertex 15.146 -1.94385 8.86048
    endloop
  endfacet
  facet normal 0 0.423667 -0.905818
    outer loop
      vertex 15.146 -1.80554 8.92517
      vertex -1 -1.94385 8.86048
      vertex -1 -1.80554 8.92517
    endloop
  endfacet
  facet normal 0 0.256512 -0.966541
    outer loop
      vertex -1 -2.09393 8.82065
      vertex 15.146 -1.94385 8.86048
      vertex 15.146 -2.09393 8.82065
    endloop
  endfacet
  facet normal 0 0.256512 -0.966541
    outer loop
      vertex 15.146 -1.94385 8.86048
      vertex -1 -2.09393 8.82065
      vertex -1 -1.94385 8.86048
    endloop
  endfacet
  facet normal -0 0.423721 0.905793
    outer loop
      vertex -1 -1.80554 10.0892
      vertex 15.146 -1.94385 10.1539
      vertex 15.146 -1.80554 10.0892
    endloop
  endfacet
  facet normal 0 0.423721 0.905793
    outer loop
      vertex 15.146 -1.94385 10.1539
      vertex -1 -1.80554 10.0892
      vertex -1 -1.94385 10.1539
    endloop
  endfacet
  facet normal 0 0.853397 -0.521262
    outer loop
      vertex 15.146 -1.58482 9.1183
      vertex -1 -1.5109 9.23932
      vertex 15.146 -1.5109 9.23932
    endloop
  endfacet
  facet normal 0 0.853397 -0.521262
    outer loop
      vertex -1 -1.5109 9.23932
      vertex 15.146 -1.58482 9.1183
      vertex -1 -1.58482 9.1183
    endloop
  endfacet
  facet normal 0 0.583309 -0.81225
    outer loop
      vertex -1 -1.80554 8.92517
      vertex 15.146 -1.68431 9.01223
      vertex 15.146 -1.80554 8.92517
    endloop
  endfacet
  facet normal 0 0.583309 -0.81225
    outer loop
      vertex 15.146 -1.68431 9.01223
      vertex -1 -1.80554 8.92517
      vertex -1 -1.68431 9.01223
    endloop
  endfacet
  facet normal 0 0.944823 -0.32758
    outer loop
      vertex 15.146 -1.5109 9.23932
      vertex -1 -1.46537 9.37064
      vertex 15.146 -1.46537 9.37064
    endloop
  endfacet
  facet normal 0 0.944823 -0.32758
    outer loop
      vertex -1 -1.46537 9.37064
      vertex 15.146 -1.5109 9.23932
      vertex -1 -1.5109 9.23932
    endloop
  endfacet
  facet normal -0 0.0861778 0.99628
    outer loop
      vertex -1 -2.09393 10.1937
      vertex 15.146 -2.25 10.2072
      vertex 15.146 -2.09393 10.1937
    endloop
  endfacet
  facet normal 0 0.0861778 0.99628
    outer loop
      vertex 15.146 -2.25 10.2072
      vertex -1 -2.09393 10.1937
      vertex -1 -2.25 10.2072
    endloop
  endfacet
  facet normal -0 0.256332 0.966589
    outer loop
      vertex -1 -1.94385 10.1539
      vertex 15.146 -2.09393 10.1937
      vertex 15.146 -1.94385 10.1539
    endloop
  endfacet
  facet normal 0 0.256332 0.966589
    outer loop
      vertex 15.146 -2.09393 10.1937
      vertex -1 -1.94385 10.1539
      vertex -1 -2.09393 10.1937
    endloop
  endfacet
  facet normal 0 0.085861 -0.996307
    outer loop
      vertex -1 -2.25 8.8072
      vertex 15.146 -2.09393 8.82065
      vertex 15.146 -2.25 8.8072
    endloop
  endfacet
  facet normal 0 0.085861 -0.996307
    outer loop
      vertex 15.146 -2.09393 8.82065
      vertex -1 -2.25 8.8072
      vertex -1 -2.09393 8.82065
    endloop
  endfacet
  facet normal 0 0.993726 0.111845
    outer loop
      vertex 15.146 -1.45 9.5072
      vertex -1 -1.46537 9.64376
      vertex 15.146 -1.46537 9.64376
    endloop
  endfacet
  facet normal 0 0.993726 0.111845
    outer loop
      vertex -1 -1.46537 9.64376
      vertex 15.146 -1.45 9.5072
      vertex -1 -1.45 9.5072
    endloop
  endfacet
  facet normal 0 0.729464 0.684019
    outer loop
      vertex 15.146 -1.58482 9.8961
      vertex -1 -1.68431 10.0022
      vertex 15.146 -1.68431 10.0022
    endloop
  endfacet
  facet normal 0 0.729464 0.684019
    outer loop
      vertex -1 -1.68431 10.0022
      vertex 15.146 -1.58482 9.8961
      vertex -1 -1.58482 9.8961
    endloop
  endfacet
  facet normal 0 0.729368 -0.684122
    outer loop
      vertex 15.146 -1.68431 9.01223
      vertex -1 -1.58482 9.1183
      vertex 15.146 -1.58482 9.1183
    endloop
  endfacet
  facet normal 0 0.729368 -0.684122
    outer loop
      vertex -1 -1.58482 9.1183
      vertex 15.146 -1.68431 9.01223
      vertex -1 -1.68431 9.01223
    endloop
  endfacet
  facet normal -0 0.583043 0.812441
    outer loop
      vertex -1 -1.68431 10.0022
      vertex 15.146 -1.80554 10.0892
      vertex 15.146 -1.68431 10.0022
    endloop
  endfacet
  facet normal 0 0.583043 0.812441
    outer loop
      vertex 15.146 -1.80554 10.0892
      vertex -1 -1.68431 10.0022
      vertex -1 -1.80554 10.0892
    endloop
  endfacet
  facet normal 0 0.944823 0.32758
    outer loop
      vertex 15.146 -1.46537 9.64376
      vertex -1 -1.5109 9.77508
      vertex 15.146 -1.5109 9.77508
    endloop
  endfacet
  facet normal 0 0.944823 0.32758
    outer loop
      vertex -1 -1.5109 9.77508
      vertex 15.146 -1.46537 9.64376
      vertex -1 -1.46537 9.64376
    endloop
  endfacet
  facet normal 0 0.853397 0.521262
    outer loop
      vertex 15.146 -1.5109 9.77508
      vertex -1 -1.58482 9.8961
      vertex 15.146 -1.58482 9.8961
    endloop
  endfacet
  facet normal 0 0.853397 0.521262
    outer loop
      vertex -1 -1.58482 9.8961
      vertex 15.146 -1.5109 9.77508
      vertex -1 -1.5109 9.77508
    endloop
  endfacet
endsolid OpenSCAD_Model
