solid OpenSCAD_Model
  facet normal 1 0 0
    outer loop
      vertex 19.1 0 10.7
      vertex 19.1 0.799999 10.7
      vertex 19.1 0.784628 10.8561
    endloop
  endfacet
  facet normal 1 0 0
    outer loop
      vertex 19.1 0.207867 5.31009
      vertex 19.1 5.8 9.5
      vertex 19.1 0.799999 9.5
    endloop
  endfacet
  facet normal 1 0 0
    outer loop
      vertex 19.1 0 10.7
      vertex 19.1 0.784628 10.8561
      vertex 19.1 0.739103 11.0061
    endloop
  endfacet
  facet normal 1 0 0
    outer loop
      vertex 19.1 0 10.7
      vertex 19.1 0.739103 11.0061
      vertex 19.1 0.665175 11.1445
    endloop
  endfacet
  facet normal 1 0 0
    outer loop
      vertex 19.1 0 10.7
      vertex 19.1 0.665175 11.1445
      vertex 19.1 0.565685 11.2657
    endloop
  endfacet
  facet normal 1 0 0
    outer loop
      vertex 19.1 0 10.7
      vertex 19.1 0.565685 11.2657
      vertex 19.1 0.444456 11.3652
    endloop
  endfacet
  facet normal 1 0 0
    outer loop
      vertex 19.1 0 10.7
      vertex 19.1 0.444456 11.3652
      vertex 19.1 0.306147 11.4391
    endloop
  endfacet
  facet normal 1 0 0
    outer loop
      vertex 19.1 0.799999 10.7
      vertex 19.1 0 10.7
      vertex 19.1 0.799999 9.5
    endloop
  endfacet
  facet normal 1 0 -0
    outer loop
      vertex 19.1 0.25 5.1712
      vertex 19.1 5.8 9.5
      vertex 19.1 0.245195 5.21997
    endloop
  endfacet
  facet normal 1 0 0
    outer loop
      vertex 19.1 5.8 9.5
      vertex 19.1 0.245195 5.12243
      vertex 19.1 5.8 -2
    endloop
  endfacet
  facet normal 1 -0 0
    outer loop
      vertex 19.1 0.230969 5.07553
      vertex 19.1 5.8 -2
      vertex 19.1 0.245195 5.12243
    endloop
  endfacet
  facet normal 1 -0 0
    outer loop
      vertex 19.1 0.207867 5.03231
      vertex 19.1 5.8 -2
      vertex 19.1 0.230969 5.07553
    endloop
  endfacet
  facet normal 1 -0 0
    outer loop
      vertex 19.1 0.176776 4.99442
      vertex 19.1 5.8 -2
      vertex 19.1 0.207867 5.03231
    endloop
  endfacet
  facet normal 1 -0 0
    outer loop
      vertex 19.1 0.138892 4.96333
      vertex 19.1 5.8 -2
      vertex 19.1 0.176776 4.99442
    endloop
  endfacet
  facet normal 1 0 0
    outer loop
      vertex 19.1 0 -2
      vertex 19.1 0.138892 4.96333
      vertex 19.1 0.0956707 4.94023
    endloop
  endfacet
  facet normal 1 0 0
    outer loop
      vertex 19.1 0 -2
      vertex 19.1 0.0956707 4.94023
      vertex 19.1 0.0487719 4.926
    endloop
  endfacet
  facet normal 1 0 0
    outer loop
      vertex 19.1 0 -2
      vertex 19.1 0.0487719 4.926
      vertex 19.1 0 4.9212
    endloop
  endfacet
  facet normal 1 0 0
    outer loop
      vertex 19.1 0.138892 4.96333
      vertex 19.1 0 -2
      vertex 19.1 5.8 -2
    endloop
  endfacet
  facet normal 1 0 0
    outer loop
      vertex 19.1 0.245195 5.12243
      vertex 19.1 5.8 9.5
      vertex 19.1 0.25 5.1712
    endloop
  endfacet
  facet normal 1 0 0
    outer loop
      vertex 19.1 5.8 9.5
      vertex 19.1 0.230969 5.26687
      vertex 19.1 0.245195 5.21997
    endloop
  endfacet
  facet normal 1 0 0
    outer loop
      vertex 19.1 0 5.4212
      vertex 19.1 0.799999 9.5
      vertex 19.1 0 10.7
    endloop
  endfacet
  facet normal 1 0 0
    outer loop
      vertex 19.1 5.8 9.5
      vertex 19.1 0.207867 5.31009
      vertex 19.1 0.230969 5.26687
    endloop
  endfacet
  facet normal 1 0 0
    outer loop
      vertex 19.1 0 10.7
      vertex 19.1 0.306147 11.4391
      vertex 19.1 0.156072 11.4846
    endloop
  endfacet
  facet normal 1 0 0
    outer loop
      vertex 19.1 0.799999 9.5
      vertex 19.1 0.176776 5.34798
      vertex 19.1 0.207867 5.31009
    endloop
  endfacet
  facet normal 1 0 0
    outer loop
      vertex 19.1 0.799999 9.5
      vertex 19.1 0.138892 5.37907
      vertex 19.1 0.176776 5.34798
    endloop
  endfacet
  facet normal 1 0 0
    outer loop
      vertex 19.1 0.799999 9.5
      vertex 19.1 0.0956707 5.40217
      vertex 19.1 0.138892 5.37907
    endloop
  endfacet
  facet normal 1 0 0
    outer loop
      vertex 19.1 0 10.7
      vertex 19.1 0.156072 11.4846
      vertex 19.1 0 11.5
    endloop
  endfacet
  facet normal 1 0 0
    outer loop
      vertex 19.1 0.799999 9.5
      vertex 19.1 0.0487719 5.4164
      vertex 19.1 0.0956707 5.40217
    endloop
  endfacet
  facet normal 1 0 0
    outer loop
      vertex 19.1 0.799999 9.5
      vertex 19.1 0 5.4212
      vertex 19.1 0.0487719 5.4164
    endloop
  endfacet
  facet normal -0 0 1
    outer loop
      vertex -1 5.8 9.5
      vertex 0 0.799999 9.5
      vertex 0 5.8 9.5
    endloop
  endfacet
  facet normal 0 0 1
    outer loop
      vertex 0 0.799999 9.5
      vertex -1 5.8 9.5
      vertex -1 0.799999 9.5
    endloop
  endfacet
  facet normal -0 0 1
    outer loop
      vertex 18.1 5.8 9.5
      vertex 19.1 0.799999 9.5
      vertex 19.1 5.8 9.5
    endloop
  endfacet
  facet normal 0 0 1
    outer loop
      vertex 19.1 0.799999 9.5
      vertex 18.1 5.8 9.5
      vertex 18.1 0.799999 9.5
    endloop
  endfacet
  facet normal 0 0 -1
    outer loop
      vertex 15.146 -4.25 -2
      vertex -1 -4.25 -2
      vertex 15.146 0 -2
    endloop
  endfacet
  facet normal 0 0 -1
    outer loop
      vertex 15.146 0 -2
      vertex 19.1 5.8 -2
      vertex 19.1 0 -2
    endloop
  endfacet
  facet normal 0 0 -1
    outer loop
      vertex -1 5.8 -2
      vertex 15.146 0 -2
      vertex -1 -4.25 -2
    endloop
  endfacet
  facet normal 0 0 -1
    outer loop
      vertex 15.146 0 -2
      vertex -1 5.8 -2
      vertex 19.1 5.8 -2
    endloop
  endfacet
  facet normal -1 0 0
    outer loop
      vertex -1 0 5.4212
      vertex -1 5.8 9.5
      vertex -1 5.8 -2
    endloop
  endfacet
  facet normal -1 0 0
    outer loop
      vertex -1 0 10.7
      vertex -1 0.799999 10.7
      vertex -1 0.799999 9.5
    endloop
  endfacet
  facet normal -1 0 0
    outer loop
      vertex -1 0.799999 10.7
      vertex -1 0 10.7
      vertex -1 0.784628 10.8561
    endloop
  endfacet
  facet normal -1 -0 0
    outer loop
      vertex -1 0.784628 10.8561
      vertex -1 0 10.7
      vertex -1 0.739103 11.0061
    endloop
  endfacet
  facet normal -1 -0 0
    outer loop
      vertex -1 0.739103 11.0061
      vertex -1 0 10.7
      vertex -1 0.665175 11.1445
    endloop
  endfacet
  facet normal -1 -0 0
    outer loop
      vertex -1 0.665175 11.1445
      vertex -1 0 10.7
      vertex -1 0.565685 11.2657
    endloop
  endfacet
  facet normal -1 -0 0
    outer loop
      vertex -1 0.565685 11.2657
      vertex -1 0 10.7
      vertex -1 0.444456 11.3652
    endloop
  endfacet
  facet normal -1 -0 0
    outer loop
      vertex -1 0.444456 11.3652
      vertex -1 0 10.7
      vertex -1 0.306147 11.4391
    endloop
  endfacet
  facet normal -1 0 0
    outer loop
      vertex -1 0 10.7
      vertex -1 0.799999 9.5
      vertex -1 0 5.4212
    endloop
  endfacet
  facet normal -1 -0 0
    outer loop
      vertex -1 5.8 9.5
      vertex -1 0 5.4212
      vertex -1 0.799999 9.5
    endloop
  endfacet
  facet normal -1 0 0
    outer loop
      vertex -1 -4.25 -2
      vertex -1 0 5.4212
      vertex -1 5.8 -2
    endloop
  endfacet
  facet normal -1 0 0
    outer loop
      vertex -1 -4.25 12.3502
      vertex -1 -2.25 6.5212
      vertex -1 -2.25 5.4212
    endloop
  endfacet
  facet normal -1 0 0
    outer loop
      vertex -1 -2.25 6.5212
      vertex -1 -4.25 12.3502
      vertex -1 -2.25 7.9212
    endloop
  endfacet
  facet normal -1 -0 0
    outer loop
      vertex -1 0 5.4212
      vertex -1 -4.25 -2
      vertex -1 -2.25 5.4212
    endloop
  endfacet
  facet normal -1 0 0
    outer loop
      vertex -1 -4.25 12.3502
      vertex -1 -2.25 5.4212
      vertex -1 -4.25 -2
    endloop
  endfacet
  facet normal -1 0 0
    outer loop
      vertex -1 -2.25 7.9212
      vertex -1 -4.25 12.3502
      vertex -1 -2.25 12.3502
    endloop
  endfacet
  facet normal -1 -0 0
    outer loop
      vertex -1 0.306147 11.4391
      vertex -1 0 10.7
      vertex -1 0.156072 11.4846
    endloop
  endfacet
  facet normal -1 0 0
    outer loop
      vertex -1 0 11.5
      vertex -1 0.156072 11.4846
      vertex -1 0 10.7
    endloop
  endfacet
  facet normal -1 0 0
    outer loop
      vertex -1 -1.46537 7.08464
      vertex -1 -1.46537 7.35776
      vertex -1 -1.45 7.2212
    endloop
  endfacet
  facet normal -1 0 0
    outer loop
      vertex -1 -1.5109 6.95332
      vertex -1 -1.46537 7.35776
      vertex -1 -1.46537 7.08464
    endloop
  endfacet
  facet normal -1 0 0
    outer loop
      vertex -1 -1.5109 6.95332
      vertex -1 -1.5109 7.48908
      vertex -1 -1.46537 7.35776
    endloop
  endfacet
  facet normal -1 0 0
    outer loop
      vertex -1 -1.58482 6.8323
      vertex -1 -1.5109 7.48908
      vertex -1 -1.5109 6.95332
    endloop
  endfacet
  facet normal -1 0 0
    outer loop
      vertex -1 -1.58482 6.8323
      vertex -1 -1.58482 7.6101
      vertex -1 -1.5109 7.48908
    endloop
  endfacet
  facet normal -1 0 0
    outer loop
      vertex -1 -1.68431 6.72622
      vertex -1 -1.58482 7.6101
      vertex -1 -1.58482 6.8323
    endloop
  endfacet
  facet normal -1 0 0
    outer loop
      vertex -1 -1.68431 6.72622
      vertex -1 -1.68431 7.71617
      vertex -1 -1.58482 7.6101
    endloop
  endfacet
  facet normal -1 0 0
    outer loop
      vertex -1 -1.80554 6.63917
      vertex -1 -1.68431 7.71617
      vertex -1 -1.68431 6.72622
    endloop
  endfacet
  facet normal -1 0 0
    outer loop
      vertex -1 -1.80554 6.63917
      vertex -1 -1.80554 7.80323
      vertex -1 -1.68431 7.71617
    endloop
  endfacet
  facet normal -1 0 0
    outer loop
      vertex -1 -1.94385 6.57448
      vertex -1 -1.80554 7.80323
      vertex -1 -1.80554 6.63917
    endloop
  endfacet
  facet normal -1 0 0
    outer loop
      vertex -1 -1.94385 6.57448
      vertex -1 -1.94385 7.86792
      vertex -1 -1.80554 7.80323
    endloop
  endfacet
  facet normal -1 0 0
    outer loop
      vertex -1 -2.09393 6.53465
      vertex -1 -1.94385 7.86792
      vertex -1 -1.94385 6.57448
    endloop
  endfacet
  facet normal -1 0 0
    outer loop
      vertex -1 -2.09393 6.53465
      vertex -1 -2.09393 7.90775
      vertex -1 -1.94385 7.86792
    endloop
  endfacet
  facet normal -1 0 0
    outer loop
      vertex -1 -2.25 6.5212
      vertex -1 -2.09393 7.90775
      vertex -1 -2.09393 6.53465
    endloop
  endfacet
  facet normal -1 -0 0
    outer loop
      vertex -1 -2.09393 7.90775
      vertex -1 -2.25 6.5212
      vertex -1 -2.25 7.9212
    endloop
  endfacet
  facet normal 0 1 0
    outer loop
      vertex 19.1 5.8 9.5
      vertex 18.1 5.8 0
      vertex 18.1 5.8 9.5
    endloop
  endfacet
  facet normal 0 1 0
    outer loop
      vertex 18.1 5.8 0
      vertex 19.1 5.8 -2
      vertex 0 5.8 0
    endloop
  endfacet
  facet normal 0 1 -0
    outer loop
      vertex 19.1 5.8 -2
      vertex 18.1 5.8 0
      vertex 19.1 5.8 9.5
    endloop
  endfacet
  facet normal 0 1 -0
    outer loop
      vertex 0 5.8 0
      vertex -1 5.8 9.5
      vertex 0 5.8 9.5
    endloop
  endfacet
  facet normal 0 1 0
    outer loop
      vertex 0 5.8 0
      vertex -1 5.8 -2
      vertex -1 5.8 9.5
    endloop
  endfacet
  facet normal 0 1 0
    outer loop
      vertex -1 5.8 -2
      vertex 0 5.8 0
      vertex 19.1 5.8 -2
    endloop
  endfacet
  facet normal 0 -1 0
    outer loop
      vertex 15.146 0 -2
      vertex 19.1 0 4.9212
      vertex 15.146 0 4.9212
    endloop
  endfacet
  facet normal 0 -1 -0
    outer loop
      vertex 19.1 0 4.9212
      vertex 15.146 0 -2
      vertex 19.1 0 -2
    endloop
  endfacet
  facet normal 0 -1 0
    outer loop
      vertex 15.146 0 5.4212
      vertex -1 0 10.7
      vertex -1 0 5.4212
    endloop
  endfacet
  facet normal 0 -1 0
    outer loop
      vertex -1 0 10.7
      vertex 15.146 0 5.4212
      vertex 19.1 0 10.7
    endloop
  endfacet
  facet normal 0 -1 -0
    outer loop
      vertex 19.1 0 10.7
      vertex 15.146 0 5.4212
      vertex 19.1 0 5.4212
    endloop
  endfacet
  facet normal -0 0 0
    outer loop
      vertex 15.146 0 4.9212
      vertex 15.146 0 5.4212
      vertex 15.146 0 -2
    endloop
  endfacet
  facet normal -1 0 0
    outer loop
      vertex 18.1 0.799999 0
      vertex 18.1 5.8 9.5
      vertex 18.1 5.8 0
    endloop
  endfacet
  facet normal -1 -0 0
    outer loop
      vertex 18.1 5.8 9.5
      vertex 18.1 0.799999 0
      vertex 18.1 0.799999 9.5
    endloop
  endfacet
  facet normal -0 0 1
    outer loop
      vertex 0 5.8 0
      vertex 18.1 0.799999 0
      vertex 18.1 5.8 0
    endloop
  endfacet
  facet normal 0 0 1
    outer loop
      vertex 18.1 0.799999 0
      vertex 0 5.8 0
      vertex 0 0.799999 0
    endloop
  endfacet
  facet normal 1 -0 0
    outer loop
      vertex 0 0.799999 9.5
      vertex 0 5.8 0
      vertex 0 5.8 9.5
    endloop
  endfacet
  facet normal 1 0 0
    outer loop
      vertex 0 5.8 0
      vertex 0 0.799999 9.5
      vertex 0 0.799999 0
    endloop
  endfacet
  facet normal 0 1 -0
    outer loop
      vertex 18.1 0.799999 0
      vertex 0 0.799999 9.5
      vertex 18.1 0.799999 9.5
    endloop
  endfacet
  facet normal 0 1 0
    outer loop
      vertex 0 0.799999 9.5
      vertex 18.1 0.799999 0
      vertex 0 0.799999 0
    endloop
  endfacet
  facet normal -0 0 1
    outer loop
      vertex -1 0 11.5
      vertex 19.1 -9.68247e-06 11.5
      vertex 19.1 0 11.5
    endloop
  endfacet
  facet normal 0 0 1
    outer loop
      vertex 19.1 -9.68247e-06 11.5
      vertex -1 0 11.5
      vertex -1 -9.68247e-06 11.5
    endloop
  endfacet
  facet normal 0 0.772936 0.634484
    outer loop
      vertex 19.1 0.665175 11.1445
      vertex -1 0.565685 11.2657
      vertex 19.1 0.565685 11.2657
    endloop
  endfacet
  facet normal 0 0.772936 0.634484
    outer loop
      vertex -1 0.565685 11.2657
      vertex 19.1 0.665175 11.1445
      vertex -1 0.665175 11.1445
    endloop
  endfacet
  facet normal 0 0.882049 0.471157
    outer loop
      vertex 19.1 0.739103 11.0061
      vertex -1 0.665175 11.1445
      vertex 19.1 0.665175 11.1445
    endloop
  endfacet
  facet normal 0 0.882049 0.471157
    outer loop
      vertex -1 0.665175 11.1445
      vertex 19.1 0.739103 11.0061
      vertex -1 0.739103 11.0061
    endloop
  endfacet
  facet normal -0 0.0981955 0.995167
    outer loop
      vertex -1 0.156072 11.4846
      vertex 19.1 0 11.5
      vertex 19.1 0.156072 11.4846
    endloop
  endfacet
  facet normal 0 0.0981955 0.995167
    outer loop
      vertex 19.1 0 11.5
      vertex -1 0.156072 11.4846
      vertex -1 0 11.5
    endloop
  endfacet
  facet normal -0 0.471259 0.881995
    outer loop
      vertex -1 0.444456 11.3652
      vertex 19.1 0.306147 11.4391
      vertex 19.1 0.444456 11.3652
    endloop
  endfacet
  facet normal 0 0.471259 0.881995
    outer loop
      vertex 19.1 0.306147 11.4391
      vertex -1 0.444456 11.3652
      vertex -1 0.306147 11.4391
    endloop
  endfacet
  facet normal 0 0.9569 0.290419
    outer loop
      vertex 19.1 0.784628 10.8561
      vertex -1 0.739103 11.0061
      vertex 19.1 0.739103 11.0061
    endloop
  endfacet
  facet normal 0 0.9569 0.290419
    outer loop
      vertex -1 0.739103 11.0061
      vertex 19.1 0.784628 10.8561
      vertex -1 0.784628 10.8561
    endloop
  endfacet
  facet normal -0 0.634431 0.772979
    outer loop
      vertex -1 0.565685 11.2657
      vertex 19.1 0.444456 11.3652
      vertex 19.1 0.565685 11.2657
    endloop
  endfacet
  facet normal 0 0.634431 0.772979
    outer loop
      vertex 19.1 0.444456 11.3652
      vertex -1 0.565685 11.2657
      vertex -1 0.444456 11.3652
    endloop
  endfacet
  facet normal -0 0.29014 0.956984
    outer loop
      vertex -1 0.306147 11.4391
      vertex 19.1 0.156072 11.4846
      vertex 19.1 0.306147 11.4391
    endloop
  endfacet
  facet normal 0 0.29014 0.956984
    outer loop
      vertex 19.1 0.156072 11.4846
      vertex -1 0.306147 11.4391
      vertex -1 0.156072 11.4846
    endloop
  endfacet
  facet normal 0 0.995187 0.097995
    outer loop
      vertex 19.1 0.799999 10.7
      vertex -1 0.784628 10.8561
      vertex 19.1 0.784628 10.8561
    endloop
  endfacet
  facet normal 0 0.995187 0.097995
    outer loop
      vertex -1 0.784628 10.8561
      vertex 19.1 0.799999 10.7
      vertex -1 0.799999 10.7
    endloop
  endfacet
  facet normal 0 0 -1
    outer loop
      vertex -1 -9.68247e-06 11.5
      vertex 19.1 0 11.5
      vertex 19.1 -9.68247e-06 11.5
    endloop
  endfacet
  facet normal -0 0 -1
    outer loop
      vertex 19.1 0 11.5
      vertex -1 -9.68247e-06 11.5
      vertex -1 0 11.5
    endloop
  endfacet
  facet normal 0 -1 0
    outer loop
      vertex -1 0 10.7
      vertex 19.1 0 11.5
      vertex -1 0 11.5
    endloop
  endfacet
  facet normal 0 -1 -0
    outer loop
      vertex 19.1 0 11.5
      vertex -1 0 10.7
      vertex 19.1 0 10.7
    endloop
  endfacet
  facet normal 0 1 0
    outer loop
      vertex 18.1 0.799999 9.5
      vertex 19.1 0.799999 10.7
      vertex 19.1 0.799999 9.5
    endloop
  endfacet
  facet normal 0 1 0
    outer loop
      vertex 19.1 0.799999 10.7
      vertex 18.1 0.799999 9.5
      vertex -1 0.799999 10.7
    endloop
  endfacet
  facet normal 0 1 -0
    outer loop
      vertex 0 0.799999 9.5
      vertex -1 0.799999 10.7
      vertex 18.1 0.799999 9.5
    endloop
  endfacet
  facet normal 0 1 0
    outer loop
      vertex -1 0.799999 10.7
      vertex 0 0.799999 9.5
      vertex -1 0.799999 9.5
    endloop
  endfacet
  facet normal 0 -0.634386 -0.773016
    outer loop
      vertex 15.146 0.138892 5.37907
      vertex 19.1 0.176776 5.34798
      vertex 19.1 0.138892 5.37907
    endloop
  endfacet
  facet normal -0 -0.634386 -0.773016
    outer loop
      vertex 19.1 0.176776 5.34798
      vertex 15.146 0.138892 5.37907
      vertex 15.146 0.176776 5.34798
    endloop
  endfacet
  facet normal 0 -0.471361 0.88194
    outer loop
      vertex 15.146 0.138892 4.96333
      vertex 19.1 0.0956707 4.94023
      vertex 19.1 0.138892 4.96333
    endloop
  endfacet
  facet normal 0 -0.471361 0.88194
    outer loop
      vertex 19.1 0.0956707 4.94023
      vertex 15.146 0.138892 4.96333
      vertex 15.146 0.0956707 4.94023
    endloop
  endfacet
  facet normal 0 -0.0979441 0.995192
    outer loop
      vertex 15.146 0.0487719 4.926
      vertex 19.1 0 4.9212
      vertex 19.1 0.0487719 4.926
    endloop
  endfacet
  facet normal 0 -0.0979441 0.995192
    outer loop
      vertex 19.1 0 4.9212
      vertex 15.146 0.0487719 4.926
      vertex 15.146 0 4.9212
    endloop
  endfacet
  facet normal 0 -0.956946 -0.290267
    outer loop
      vertex 15.146 0.245195 5.21997
      vertex 19.1 0.230969 5.26687
      vertex 15.146 0.230969 5.26687
    endloop
  endfacet
  facet normal 0 -0.956946 -0.290267
    outer loop
      vertex 19.1 0.230969 5.26687
      vertex 15.146 0.245195 5.21997
      vertex 19.1 0.245195 5.21997
    endloop
  endfacet
  facet normal 0 -0.290348 0.956921
    outer loop
      vertex 15.146 0.0956707 4.94023
      vertex 19.1 0.0487719 4.926
      vertex 19.1 0.0956707 4.94023
    endloop
  endfacet
  facet normal 0 -0.290348 0.956921
    outer loop
      vertex 19.1 0.0487719 4.926
      vertex 15.146 0.0956707 4.94023
      vertex 15.146 0.0487719 4.926
    endloop
  endfacet
  facet normal 0 -0.956946 0.290267
    outer loop
      vertex 15.146 0.230969 5.07553
      vertex 19.1 0.245195 5.12243
      vertex 15.146 0.245195 5.12243
    endloop
  endfacet
  facet normal 0 -0.956946 0.290267
    outer loop
      vertex 19.1 0.245195 5.12243
      vertex 15.146 0.230969 5.07553
      vertex 19.1 0.230969 5.07553
    endloop
  endfacet
  facet normal 0 -0.0979441 -0.995192
    outer loop
      vertex 15.146 0 5.4212
      vertex 19.1 0.0487719 5.4164
      vertex 19.1 0 5.4212
    endloop
  endfacet
  facet normal -0 -0.0979441 -0.995192
    outer loop
      vertex 19.1 0.0487719 5.4164
      vertex 15.146 0 5.4212
      vertex 15.146 0.0487719 5.4164
    endloop
  endfacet
  facet normal 0 -0.995182 0.098049
    outer loop
      vertex 15.146 0.245195 5.12243
      vertex 19.1 0.25 5.1712
      vertex 15.146 0.25 5.1712
    endloop
  endfacet
  facet normal 0 -0.995182 0.098049
    outer loop
      vertex 19.1 0.25 5.1712
      vertex 15.146 0.245195 5.12243
      vertex 19.1 0.245195 5.12243
    endloop
  endfacet
  facet normal 0 -0.995182 -0.098049
    outer loop
      vertex 15.146 0.25 5.1712
      vertex 19.1 0.245195 5.21997
      vertex 15.146 0.245195 5.21997
    endloop
  endfacet
  facet normal 0 -0.995182 -0.098049
    outer loop
      vertex 19.1 0.245195 5.21997
      vertex 15.146 0.25 5.1712
      vertex 19.1 0.25 5.1712
    endloop
  endfacet
  facet normal 0 -0.773056 0.634338
    outer loop
      vertex 15.146 0.176776 4.99442
      vertex 19.1 0.207867 5.03231
      vertex 15.146 0.207867 5.03231
    endloop
  endfacet
  facet normal 0 -0.773056 0.634338
    outer loop
      vertex 19.1 0.207867 5.03231
      vertex 15.146 0.176776 4.99442
      vertex 19.1 0.176776 4.99442
    endloop
  endfacet
  facet normal 0 -0.634386 0.773016
    outer loop
      vertex 15.146 0.176776 4.99442
      vertex 19.1 0.138892 4.96333
      vertex 19.1 0.176776 4.99442
    endloop
  endfacet
  facet normal 0 -0.634386 0.773016
    outer loop
      vertex 19.1 0.138892 4.96333
      vertex 15.146 0.176776 4.99442
      vertex 15.146 0.138892 4.96333
    endloop
  endfacet
  facet normal 0 -0.881918 0.471404
    outer loop
      vertex 15.146 0.207867 5.03231
      vertex 19.1 0.230969 5.07553
      vertex 15.146 0.230969 5.07553
    endloop
  endfacet
  facet normal 0 -0.881918 0.471404
    outer loop
      vertex 19.1 0.230969 5.07553
      vertex 15.146 0.207867 5.03231
      vertex 19.1 0.207867 5.03231
    endloop
  endfacet
  facet normal 0 -0.773056 -0.634338
    outer loop
      vertex 15.146 0.207867 5.31009
      vertex 19.1 0.176776 5.34798
      vertex 15.146 0.176776 5.34798
    endloop
  endfacet
  facet normal 0 -0.773056 -0.634338
    outer loop
      vertex 19.1 0.176776 5.34798
      vertex 15.146 0.207867 5.31009
      vertex 19.1 0.207867 5.31009
    endloop
  endfacet
  facet normal 0 -0.881918 -0.471404
    outer loop
      vertex 15.146 0.230969 5.26687
      vertex 19.1 0.207867 5.31009
      vertex 15.146 0.207867 5.31009
    endloop
  endfacet
  facet normal 0 -0.881918 -0.471404
    outer loop
      vertex 19.1 0.207867 5.31009
      vertex 15.146 0.230969 5.26687
      vertex 19.1 0.230969 5.26687
    endloop
  endfacet
  facet normal 1 0 0
    outer loop
      vertex 15.146 0.245195 5.21997
      vertex 15.146 0.245195 5.12243
      vertex 15.146 0.25 5.1712
    endloop
  endfacet
  facet normal 1 0 0
    outer loop
      vertex 15.146 0.230969 5.26687
      vertex 15.146 0.245195 5.12243
      vertex 15.146 0.245195 5.21997
    endloop
  endfacet
  facet normal 1 0 0
    outer loop
      vertex 15.146 0.230969 5.26687
      vertex 15.146 0.230969 5.07553
      vertex 15.146 0.245195 5.12243
    endloop
  endfacet
  facet normal 1 0 0
    outer loop
      vertex 15.146 0.207867 5.31009
      vertex 15.146 0.230969 5.07553
      vertex 15.146 0.230969 5.26687
    endloop
  endfacet
  facet normal 1 0 0
    outer loop
      vertex 15.146 0.207867 5.31009
      vertex 15.146 0.207867 5.03231
      vertex 15.146 0.230969 5.07553
    endloop
  endfacet
  facet normal 1 0 0
    outer loop
      vertex 15.146 0.176776 5.34798
      vertex 15.146 0.207867 5.03231
      vertex 15.146 0.207867 5.31009
    endloop
  endfacet
  facet normal 1 0 0
    outer loop
      vertex 15.146 0.176776 5.34798
      vertex 15.146 0.176776 4.99442
      vertex 15.146 0.207867 5.03231
    endloop
  endfacet
  facet normal 1 0 0
    outer loop
      vertex 15.146 0.138892 5.37907
      vertex 15.146 0.176776 4.99442
      vertex 15.146 0.176776 5.34798
    endloop
  endfacet
  facet normal 1 0 0
    outer loop
      vertex 15.146 0.138892 5.37907
      vertex 15.146 0.138892 4.96333
      vertex 15.146 0.176776 4.99442
    endloop
  endfacet
  facet normal 1 0 0
    outer loop
      vertex 15.146 0.0956707 5.40217
      vertex 15.146 0.138892 4.96333
      vertex 15.146 0.138892 5.37907
    endloop
  endfacet
  facet normal 1 0 0
    outer loop
      vertex 15.146 0.0956707 5.40217
      vertex 15.146 0.0956707 4.94023
      vertex 15.146 0.138892 4.96333
    endloop
  endfacet
  facet normal 1 0 0
    outer loop
      vertex 15.146 0.0487719 5.4164
      vertex 15.146 0.0956707 4.94023
      vertex 15.146 0.0956707 5.40217
    endloop
  endfacet
  facet normal 1 0 0
    outer loop
      vertex 15.146 0.0487719 5.4164
      vertex 15.146 0.0487719 4.926
      vertex 15.146 0.0956707 4.94023
    endloop
  endfacet
  facet normal 1 0 0
    outer loop
      vertex 15.146 0 5.4212
      vertex 15.146 0.0487719 4.926
      vertex 15.146 0.0487719 5.4164
    endloop
  endfacet
  facet normal 1 0 0
    outer loop
      vertex 15.146 0.0487719 4.926
      vertex 15.146 0 5.4212
      vertex 15.146 0 4.9212
    endloop
  endfacet
  facet normal 0 -0.290348 -0.956921
    outer loop
      vertex 15.146 0.0487719 5.4164
      vertex 19.1 0.0956707 5.40217
      vertex 19.1 0.0487719 5.4164
    endloop
  endfacet
  facet normal -0 -0.290348 -0.956921
    outer loop
      vertex 19.1 0.0956707 5.40217
      vertex 15.146 0.0487719 5.4164
      vertex 15.146 0.0956707 5.40217
    endloop
  endfacet
  facet normal 0 -0.471361 -0.88194
    outer loop
      vertex 15.146 0.0956707 5.40217
      vertex 19.1 0.138892 5.37907
      vertex 19.1 0.0956707 5.40217
    endloop
  endfacet
  facet normal -0 -0.471361 -0.88194
    outer loop
      vertex 19.1 0.138892 5.37907
      vertex 15.146 0.0956707 5.40217
      vertex 15.146 0.138892 5.37907
    endloop
  endfacet
  facet normal 1 -0 0
    outer loop
      vertex 15.146 -4.25 12.3502
      vertex 15.146 -2.25 7.9212
      vertex 15.146 -2.25 12.3502
    endloop
  endfacet
  facet normal 1 0 0
    outer loop
      vertex 15.146 -2.25 7.9212
      vertex 15.146 -4.25 12.3502
      vertex 15.146 -2.25 6.5212
    endloop
  endfacet
  facet normal 1 0 0
    outer loop
      vertex 15.146 -2.25 6.5212
      vertex 15.146 -4.25 12.3502
      vertex 15.146 -2.25 5.4212
    endloop
  endfacet
  facet normal 1 0 0
    outer loop
      vertex 15.146 -1.46537 7.35776
      vertex 15.146 -1.46537 7.08464
      vertex 15.146 -1.45 7.2212
    endloop
  endfacet
  facet normal 1 0 0
    outer loop
      vertex 15.146 -1.5109 7.48908
      vertex 15.146 -1.46537 7.08464
      vertex 15.146 -1.46537 7.35776
    endloop
  endfacet
  facet normal 1 0 0
    outer loop
      vertex 15.146 -1.5109 7.48908
      vertex 15.146 -1.5109 6.95332
      vertex 15.146 -1.46537 7.08464
    endloop
  endfacet
  facet normal 1 0 0
    outer loop
      vertex 15.146 -1.58482 7.6101
      vertex 15.146 -1.5109 6.95332
      vertex 15.146 -1.5109 7.48908
    endloop
  endfacet
  facet normal 1 0 0
    outer loop
      vertex 15.146 -1.58482 7.6101
      vertex 15.146 -1.58482 6.8323
      vertex 15.146 -1.5109 6.95332
    endloop
  endfacet
  facet normal 1 0 0
    outer loop
      vertex 15.146 -1.68431 7.71617
      vertex 15.146 -1.58482 6.8323
      vertex 15.146 -1.58482 7.6101
    endloop
  endfacet
  facet normal 1 0 0
    outer loop
      vertex 15.146 -1.68431 7.71617
      vertex 15.146 -1.68431 6.72622
      vertex 15.146 -1.58482 6.8323
    endloop
  endfacet
  facet normal 1 0 0
    outer loop
      vertex 15.146 -1.80554 7.80323
      vertex 15.146 -1.68431 6.72622
      vertex 15.146 -1.68431 7.71617
    endloop
  endfacet
  facet normal 1 0 0
    outer loop
      vertex 15.146 -1.80554 7.80323
      vertex 15.146 -1.80554 6.63917
      vertex 15.146 -1.68431 6.72622
    endloop
  endfacet
  facet normal 1 0 0
    outer loop
      vertex 15.146 -1.94385 7.86792
      vertex 15.146 -1.80554 6.63917
      vertex 15.146 -1.80554 7.80323
    endloop
  endfacet
  facet normal 1 0 0
    outer loop
      vertex 15.146 -1.94385 7.86792
      vertex 15.146 -1.94385 6.57448
      vertex 15.146 -1.80554 6.63917
    endloop
  endfacet
  facet normal 1 0 0
    outer loop
      vertex 15.146 -2.09393 7.90775
      vertex 15.146 -1.94385 6.57448
      vertex 15.146 -1.94385 7.86792
    endloop
  endfacet
  facet normal 1 0 0
    outer loop
      vertex 15.146 -2.09393 7.90775
      vertex 15.146 -2.09393 6.53465
      vertex 15.146 -1.94385 6.57448
    endloop
  endfacet
  facet normal 1 0 0
    outer loop
      vertex 15.146 -2.25 7.9212
      vertex 15.146 -2.09393 6.53465
      vertex 15.146 -2.09393 7.90775
    endloop
  endfacet
  facet normal 1 0 0
    outer loop
      vertex 15.146 -2.09393 6.53465
      vertex 15.146 -2.25 7.9212
      vertex 15.146 -2.25 6.5212
    endloop
  endfacet
  facet normal 1 -0 0
    outer loop
      vertex 15.146 -2.25 5.4212
      vertex 15.146 0 -2
      vertex 15.146 0 5.4212
    endloop
  endfacet
  facet normal 1 0 0
    outer loop
      vertex 15.146 -2.25 5.4212
      vertex 15.146 -4.25 -2
      vertex 15.146 0 -2
    endloop
  endfacet
  facet normal 1 0 0
    outer loop
      vertex 15.146 -4.25 -2
      vertex 15.146 -2.25 5.4212
      vertex 15.146 -4.25 12.3502
    endloop
  endfacet
  facet normal 0 0 1
    outer loop
      vertex 15.146 -2.25 12.3502
      vertex 9.55 -3.75 12.3502
      vertex 15.146 -4.25 12.3502
    endloop
  endfacet
  facet normal 0 0 1
    outer loop
      vertex 15.146 -2.25 12.3502
      vertex 8.55 -3.75 12.3502
      vertex 9.55 -3.75 12.3502
    endloop
  endfacet
  facet normal -0 0 1
    outer loop
      vertex -1 -2.25 12.3502
      vertex 8.55 -3.75 12.3502
      vertex 15.146 -2.25 12.3502
    endloop
  endfacet
  facet normal 0 0 1
    outer loop
      vertex -1 -4.25 12.3502
      vertex 8.55 -3.75 12.3502
      vertex -1 -2.25 12.3502
    endloop
  endfacet
  facet normal 0 0 1
    outer loop
      vertex 8.55 -3.75 12.3502
      vertex -1 -4.25 12.3502
      vertex 8.55 -4.25 12.3502
    endloop
  endfacet
  facet normal 0 0 1
    outer loop
      vertex 15.146 -4.25 12.3502
      vertex 9.55 -3.75 12.3502
      vertex 9.55 -4.25 12.3502
    endloop
  endfacet
  facet normal 0 -1 0
    outer loop
      vertex 7.24059 -4.25 4.97624
      vertex 8.53443 -4.25 1.48929
      vertex 8.70123 -4.25 4.97624
    endloop
  endfacet
  facet normal -0 -1 0
    outer loop
      vertex 8.53443 -4.25 1.48929
      vertex 7.24059 -4.25 4.97624
      vertex 7.24059 -4.25 0.565704
    endloop
  endfacet
  facet normal 0 -1 0
    outer loop
      vertex -1 -4.25 12.3502
      vertex 8.55 -4.25 9.8502
      vertex 8.55 -4.25 12.3502
    endloop
  endfacet
  facet normal 0 -1 0
    outer loop
      vertex 8.70123 -4.25 5.59874
      vertex 8.55 -4.25 9.8502
      vertex 5.10857 -4.25 5.59874
    endloop
  endfacet
  facet normal 0 -1 0
    outer loop
      vertex -1 -4.25 12.3502
      vertex 5.10857 -4.25 5.59874
      vertex 8.55 -4.25 9.8502
    endloop
  endfacet
  facet normal 0 -1 0
    outer loop
      vertex -1 -4.25 12.3502
      vertex 5.10857 -4.25 4.97624
      vertex 5.10857 -4.25 5.59874
    endloop
  endfacet
  facet normal 0 -1 0
    outer loop
      vertex 5.10857 -4.25 4.97624
      vertex 6.50411 -4.25 -0.134125
      vertex 6.50411 -4.25 4.97624
    endloop
  endfacet
  facet normal 0 -1 0
    outer loop
      vertex -1 -4.25 -2
      vertex 5.10857 -4.25 4.97624
      vertex -1 -4.25 12.3502
    endloop
  endfacet
  facet normal 0 -1 -0
    outer loop
      vertex 6.50411 -4.25 -0.134125
      vertex -1 -4.25 -2
      vertex 7.17951 -4.25 -0.134125
    endloop
  endfacet
  facet normal 0 -1 -0
    outer loop
      vertex 5.10857 -4.25 4.97624
      vertex -1 -4.25 -2
      vertex 6.50411 -4.25 -0.134125
    endloop
  endfacet
  facet normal 0 -1 0
    outer loop
      vertex 9.55 -4.25 9.8502
      vertex 15.146 -4.25 12.3502
      vertex 9.55 -4.25 12.3502
    endloop
  endfacet
  facet normal 0 -1 0
    outer loop
      vertex 8.55 -4.25 9.8502
      vertex 8.70123 -4.25 5.59874
      vertex 9.55 -4.25 9.8502
    endloop
  endfacet
  facet normal 0 -1 -0
    outer loop
      vertex 9.55 -4.25 9.8502
      vertex 8.70123 -4.25 5.59874
      vertex 15.146 -4.25 12.3502
    endloop
  endfacet
  facet normal 0 -1 0
    outer loop
      vertex 8.70123 -4.25 4.97624
      vertex 15.146 -4.25 12.3502
      vertex 8.70123 -4.25 5.59874
    endloop
  endfacet
  facet normal 0 -1 0
    outer loop
      vertex 15.146 -4.25 -2
      vertex 8.70123 -4.25 4.97624
      vertex 8.53443 -4.25 1.48929
    endloop
  endfacet
  facet normal 0 -1 0
    outer loop
      vertex 15.146 -4.25 -2
      vertex 8.53443 -4.25 1.48929
      vertex 8.53443 -4.25 0.797607
    endloop
  endfacet
  facet normal 0 -1 0
    outer loop
      vertex 8.70123 -4.25 4.97624
      vertex 15.146 -4.25 -2
      vertex 15.146 -4.25 12.3502
    endloop
  endfacet
  facet normal 0 -1 0
    outer loop
      vertex 7.17951 -4.25 -0.134125
      vertex 15.146 -4.25 -2
      vertex 8.53443 -4.25 0.797607
    endloop
  endfacet
  facet normal 0 -1 0
    outer loop
      vertex 15.146 -4.25 -2
      vertex 7.17951 -4.25 -0.134125
      vertex -1 -4.25 -2
    endloop
  endfacet
  facet normal -1 0 0
    outer loop
      vertex 9.55 -4.25 9.8502
      vertex 9.55 -3.75 12.3502
      vertex 9.55 -3.75 9.8502
    endloop
  endfacet
  facet normal -1 -0 0
    outer loop
      vertex 9.55 -3.75 12.3502
      vertex 9.55 -4.25 9.8502
      vertex 9.55 -4.25 12.3502
    endloop
  endfacet
  facet normal -0 0 1
    outer loop
      vertex 8.55 -3.75 9.8502
      vertex 9.55 -4.25 9.8502
      vertex 9.55 -3.75 9.8502
    endloop
  endfacet
  facet normal 0 0 1
    outer loop
      vertex 9.55 -4.25 9.8502
      vertex 8.55 -3.75 9.8502
      vertex 8.55 -4.25 9.8502
    endloop
  endfacet
  facet normal 1 -0 0
    outer loop
      vertex 8.55 -4.25 12.3502
      vertex 8.55 -3.75 9.8502
      vertex 8.55 -3.75 12.3502
    endloop
  endfacet
  facet normal 1 0 0
    outer loop
      vertex 8.55 -3.75 9.8502
      vertex 8.55 -4.25 12.3502
      vertex 8.55 -4.25 9.8502
    endloop
  endfacet
  facet normal 0 -1 0
    outer loop
      vertex 8.55 -3.75 9.8502
      vertex 9.55 -3.75 12.3502
      vertex 8.55 -3.75 12.3502
    endloop
  endfacet
  facet normal 0 -1 -0
    outer loop
      vertex 9.55 -3.75 12.3502
      vertex 8.55 -3.75 9.8502
      vertex 9.55 -3.75 9.8502
    endloop
  endfacet
  facet normal -0 0 1
    outer loop
      vertex -1 0 5.4212
      vertex 15.146 -2.25 5.4212
      vertex 15.146 0 5.4212
    endloop
  endfacet
  facet normal 0 0 1
    outer loop
      vertex 15.146 -2.25 5.4212
      vertex -1 0 5.4212
      vertex -1 -2.25 5.4212
    endloop
  endfacet
  facet normal 0 1 -0
    outer loop
      vertex 15.146 -2.25 7.9212
      vertex -1 -2.25 12.3502
      vertex 15.146 -2.25 12.3502
    endloop
  endfacet
  facet normal 0 1 0
    outer loop
      vertex -1 -2.25 12.3502
      vertex 15.146 -2.25 7.9212
      vertex -1 -2.25 7.9212
    endloop
  endfacet
  facet normal 0 1 -0
    outer loop
      vertex 15.146 -2.25 5.4212
      vertex -1 -2.25 6.5212
      vertex 15.146 -2.25 6.5212
    endloop
  endfacet
  facet normal 0 1 0
    outer loop
      vertex -1 -2.25 6.5212
      vertex 15.146 -2.25 5.4212
      vertex -1 -2.25 5.4212
    endloop
  endfacet
  facet normal 0 -1 0
    outer loop
      vertex 6.50411 -3.75 4.97624
      vertex 7.24059 -3.75 0.565704
      vertex 7.24059 -3.75 4.97624
    endloop
  endfacet
  facet normal -0 -1 0
    outer loop
      vertex 7.24059 -3.75 0.565704
      vertex 6.50411 -3.75 4.97624
      vertex 6.50411 -3.75 -0.134125
    endloop
  endfacet
  facet normal 0 -1 0
    outer loop
      vertex 6.50411 -3.75 4.97624
      vertex 5.10857 -3.75 5.59874
      vertex 5.10857 -3.75 4.97624
    endloop
  endfacet
  facet normal 0 -1 0
    outer loop
      vertex 7.24059 -3.75 4.97624
      vertex 5.10857 -3.75 5.59874
      vertex 6.50411 -3.75 4.97624
    endloop
  endfacet
  facet normal 0 -1 0
    outer loop
      vertex 5.10857 -3.75 5.59874
      vertex 7.24059 -3.75 4.97624
      vertex 8.70123 -3.75 5.59874
    endloop
  endfacet
  facet normal 0 -1 -0
    outer loop
      vertex 8.70123 -3.75 5.59874
      vertex 7.24059 -3.75 4.97624
      vertex 8.70123 -3.75 4.97624
    endloop
  endfacet
  facet normal 0 -1 0
    outer loop
      vertex 7.24059 -3.75 0.565704
      vertex 8.53443 -3.75 0.797607
      vertex 8.53443 -3.75 1.48929
    endloop
  endfacet
  facet normal 0 -1 0
    outer loop
      vertex 7.17951 -3.75 -0.134125
      vertex 7.24059 -3.75 0.565704
      vertex 6.50411 -3.75 -0.134125
    endloop
  endfacet
  facet normal 0 -1 -0
    outer loop
      vertex 7.24059 -3.75 0.565704
      vertex 7.17951 -3.75 -0.134125
      vertex 8.53443 -3.75 0.797607
    endloop
  endfacet
  facet normal -0 0 1
    outer loop
      vertex 5.10857 -3.75 4.97624
      vertex 6.50411 -4.25 4.97624
      vertex 6.50411 -3.75 4.97624
    endloop
  endfacet
  facet normal 0 0 1
    outer loop
      vertex 6.50411 -4.25 4.97624
      vertex 5.10857 -3.75 4.97624
      vertex 5.10857 -4.25 4.97624
    endloop
  endfacet
  facet normal 1 -0 0
    outer loop
      vertex 6.50411 -4.25 4.97624
      vertex 6.50411 -3.75 -0.134125
      vertex 6.50411 -3.75 4.97624
    endloop
  endfacet
  facet normal 1 0 0
    outer loop
      vertex 6.50411 -3.75 -0.134125
      vertex 6.50411 -4.25 4.97624
      vertex 6.50411 -4.25 -0.134125
    endloop
  endfacet
  facet normal -0 0 1
    outer loop
      vertex 6.50411 -3.75 -0.134125
      vertex 7.17951 -4.25 -0.134125
      vertex 7.17951 -3.75 -0.134125
    endloop
  endfacet
  facet normal 0 0 1
    outer loop
      vertex 7.17951 -4.25 -0.134125
      vertex 6.50411 -3.75 -0.134125
      vertex 6.50411 -4.25 -0.134125
    endloop
  endfacet
  facet normal -0.566622 0 0.823978
    outer loop
      vertex 7.17951 -3.75 -0.134125
      vertex 8.53443 -4.25 0.797607
      vertex 8.53443 -3.75 0.797607
    endloop
  endfacet
  facet normal -0.566622 0 0.823978
    outer loop
      vertex 8.53443 -4.25 0.797607
      vertex 7.17951 -3.75 -0.134125
      vertex 7.17951 -4.25 -0.134125
    endloop
  endfacet
  facet normal -1 0 0
    outer loop
      vertex 8.53443 -4.25 0.797607
      vertex 8.53443 -3.75 1.48929
      vertex 8.53443 -3.75 0.797607
    endloop
  endfacet
  facet normal -1 -0 0
    outer loop
      vertex 8.53443 -3.75 1.48929
      vertex 8.53443 -4.25 0.797607
      vertex 8.53443 -4.25 1.48929
    endloop
  endfacet
  facet normal 0.580994 0 -0.813908
    outer loop
      vertex 7.24059 -4.25 0.565704
      vertex 8.53443 -3.75 1.48929
      vertex 8.53443 -4.25 1.48929
    endloop
  endfacet
  facet normal 0.580994 0 -0.813908
    outer loop
      vertex 8.53443 -3.75 1.48929
      vertex 7.24059 -4.25 0.565704
      vertex 7.24059 -3.75 0.565704
    endloop
  endfacet
  facet normal -1 0 0
    outer loop
      vertex 7.24059 -4.25 0.565704
      vertex 7.24059 -3.75 4.97624
      vertex 7.24059 -3.75 0.565704
    endloop
  endfacet
  facet normal -1 -0 0
    outer loop
      vertex 7.24059 -3.75 4.97624
      vertex 7.24059 -4.25 0.565704
      vertex 7.24059 -4.25 4.97624
    endloop
  endfacet
  facet normal -0 0 1
    outer loop
      vertex 7.24059 -3.75 4.97624
      vertex 8.70123 -4.25 4.97624
      vertex 8.70123 -3.75 4.97624
    endloop
  endfacet
  facet normal 0 0 1
    outer loop
      vertex 8.70123 -4.25 4.97624
      vertex 7.24059 -3.75 4.97624
      vertex 7.24059 -4.25 4.97624
    endloop
  endfacet
  facet normal -1 0 0
    outer loop
      vertex 8.70123 -4.25 4.97624
      vertex 8.70123 -3.75 5.59874
      vertex 8.70123 -3.75 4.97624
    endloop
  endfacet
  facet normal -1 -0 0
    outer loop
      vertex 8.70123 -3.75 5.59874
      vertex 8.70123 -4.25 4.97624
      vertex 8.70123 -4.25 5.59874
    endloop
  endfacet
  facet normal 0 0 -1
    outer loop
      vertex 5.10857 -4.25 5.59874
      vertex 8.70123 -3.75 5.59874
      vertex 8.70123 -4.25 5.59874
    endloop
  endfacet
  facet normal -0 0 -1
    outer loop
      vertex 8.70123 -3.75 5.59874
      vertex 5.10857 -4.25 5.59874
      vertex 5.10857 -3.75 5.59874
    endloop
  endfacet
  facet normal 1 -0 0
    outer loop
      vertex 5.10857 -4.25 5.59874
      vertex 5.10857 -3.75 4.97624
      vertex 5.10857 -3.75 5.59874
    endloop
  endfacet
  facet normal 1 0 0
    outer loop
      vertex 5.10857 -3.75 4.97624
      vertex 5.10857 -4.25 5.59874
      vertex 5.10857 -4.25 4.97624
    endloop
  endfacet
  facet normal 0 0.993726 -0.111845
    outer loop
      vertex 15.146 -1.46537 7.08464
      vertex -1 -1.45 7.2212
      vertex 15.146 -1.45 7.2212
    endloop
  endfacet
  facet normal 0 0.993726 -0.111845
    outer loop
      vertex -1 -1.45 7.2212
      vertex 15.146 -1.46537 7.08464
      vertex -1 -1.46537 7.08464
    endloop
  endfacet
  facet normal 0 0.853397 0.521262
    outer loop
      vertex 15.146 -1.5109 7.48908
      vertex -1 -1.58482 7.6101
      vertex 15.146 -1.58482 7.6101
    endloop
  endfacet
  facet normal 0 0.853397 0.521262
    outer loop
      vertex -1 -1.58482 7.6101
      vertex 15.146 -1.5109 7.48908
      vertex -1 -1.5109 7.48908
    endloop
  endfacet
  facet normal 0 0.583265 -0.812282
    outer loop
      vertex -1 -1.80554 6.63917
      vertex 15.146 -1.68431 6.72622
      vertex 15.146 -1.80554 6.63917
    endloop
  endfacet
  facet normal 0 0.583265 -0.812282
    outer loop
      vertex 15.146 -1.68431 6.72622
      vertex -1 -1.80554 6.63917
      vertex -1 -1.68431 6.72622
    endloop
  endfacet
  facet normal 0 0.944823 0.32758
    outer loop
      vertex 15.146 -1.46537 7.35776
      vertex -1 -1.5109 7.48908
      vertex 15.146 -1.5109 7.48908
    endloop
  endfacet
  facet normal 0 0.944823 0.32758
    outer loop
      vertex -1 -1.5109 7.48908
      vertex 15.146 -1.46537 7.35776
      vertex -1 -1.46537 7.35776
    endloop
  endfacet
  facet normal 0 0.853397 -0.521262
    outer loop
      vertex 15.146 -1.58482 6.8323
      vertex -1 -1.5109 6.95332
      vertex 15.146 -1.5109 6.95332
    endloop
  endfacet
  facet normal 0 0.853397 -0.521262
    outer loop
      vertex -1 -1.5109 6.95332
      vertex 15.146 -1.58482 6.8323
      vertex -1 -1.58482 6.8323
    endloop
  endfacet
  facet normal 0 0.944823 -0.32758
    outer loop
      vertex 15.146 -1.5109 6.95332
      vertex -1 -1.46537 7.08464
      vertex 15.146 -1.46537 7.08464
    endloop
  endfacet
  facet normal 0 0.944823 -0.32758
    outer loop
      vertex -1 -1.46537 7.08464
      vertex 15.146 -1.5109 6.95332
      vertex -1 -1.5109 6.95332
    endloop
  endfacet
  facet normal 0 0.423667 -0.905818
    outer loop
      vertex -1 -1.94385 6.57448
      vertex 15.146 -1.80554 6.63917
      vertex 15.146 -1.94385 6.57448
    endloop
  endfacet
  facet normal 0 0.423667 -0.905818
    outer loop
      vertex 15.146 -1.80554 6.63917
      vertex -1 -1.94385 6.57448
      vertex -1 -1.80554 6.63917
    endloop
  endfacet
  facet normal 0 0.256512 -0.966541
    outer loop
      vertex -1 -2.09393 6.53465
      vertex 15.146 -1.94385 6.57448
      vertex 15.146 -2.09393 6.53465
    endloop
  endfacet
  facet normal 0 0.256512 -0.966541
    outer loop
      vertex 15.146 -1.94385 6.57448
      vertex -1 -2.09393 6.53465
      vertex -1 -1.94385 6.57448
    endloop
  endfacet
  facet normal -0 0.085861 0.996307
    outer loop
      vertex -1 -2.09393 7.90775
      vertex 15.146 -2.25 7.9212
      vertex 15.146 -2.09393 7.90775
    endloop
  endfacet
  facet normal 0 0.085861 0.996307
    outer loop
      vertex 15.146 -2.25 7.9212
      vertex -1 -2.09393 7.90775
      vertex -1 -2.25 7.9212
    endloop
  endfacet
  facet normal 0 0.993726 0.111845
    outer loop
      vertex 15.146 -1.45 7.2212
      vertex -1 -1.46537 7.35776
      vertex 15.146 -1.46537 7.35776
    endloop
  endfacet
  facet normal 0 0.993726 0.111845
    outer loop
      vertex -1 -1.46537 7.35776
      vertex 15.146 -1.45 7.2212
      vertex -1 -1.45 7.2212
    endloop
  endfacet
  facet normal 0 0.085861 -0.996307
    outer loop
      vertex -1 -2.25 6.5212
      vertex 15.146 -2.09393 6.53465
      vertex 15.146 -2.25 6.5212
    endloop
  endfacet
  facet normal 0 0.085861 -0.996307
    outer loop
      vertex 15.146 -2.09393 6.53465
      vertex -1 -2.25 6.5212
      vertex -1 -2.09393 6.53465
    endloop
  endfacet
  facet normal 0 0.729368 0.684122
    outer loop
      vertex 15.146 -1.58482 7.6101
      vertex -1 -1.68431 7.71617
      vertex 15.146 -1.68431 7.71617
    endloop
  endfacet
  facet normal 0 0.729368 0.684122
    outer loop
      vertex -1 -1.68431 7.71617
      vertex 15.146 -1.58482 7.6101
      vertex -1 -1.58482 7.6101
    endloop
  endfacet
  facet normal 0 0.7294 -0.684087
    outer loop
      vertex 15.146 -1.68431 6.72622
      vertex -1 -1.58482 6.8323
      vertex 15.146 -1.58482 6.8323
    endloop
  endfacet
  facet normal 0 0.7294 -0.684087
    outer loop
      vertex -1 -1.58482 6.8323
      vertex 15.146 -1.68431 6.72622
      vertex -1 -1.68431 6.72622
    endloop
  endfacet
  facet normal -0 0.423667 0.905818
    outer loop
      vertex -1 -1.80554 7.80323
      vertex 15.146 -1.94385 7.86792
      vertex 15.146 -1.80554 7.80323
    endloop
  endfacet
  facet normal 0 0.423667 0.905818
    outer loop
      vertex 15.146 -1.94385 7.86792
      vertex -1 -1.80554 7.80323
      vertex -1 -1.94385 7.86792
    endloop
  endfacet
  facet normal -0 0.256512 0.966541
    outer loop
      vertex -1 -1.94385 7.86792
      vertex 15.146 -2.09393 7.90775
      vertex 15.146 -1.94385 7.86792
    endloop
  endfacet
  facet normal 0 0.256512 0.966541
    outer loop
      vertex 15.146 -2.09393 7.90775
      vertex -1 -1.94385 7.86792
      vertex -1 -2.09393 7.90775
    endloop
  endfacet
  facet normal -0 0.583309 0.81225
    outer loop
      vertex -1 -1.68431 7.71617
      vertex 15.146 -1.80554 7.80323
      vertex 15.146 -1.68431 7.71617
    endloop
  endfacet
  facet normal 0 0.583309 0.81225
    outer loop
      vertex 15.146 -1.80554 7.80323
      vertex -1 -1.68431 7.71617
      vertex -1 -1.80554 7.80323
    endloop
  endfacet
endsolid OpenSCAD_Model
