solid OpenSCAD_Model
  facet normal 1 0 0
    outer loop
      vertex 19.1 0 10.7
      vertex 19.1 0.799999 10.7
      vertex 19.1 0.784628 10.8561
    endloop
  endfacet
  facet normal 1 0 0
    outer loop
      vertex 19.1 0.207867 4.92909
      vertex 19.1 5.8 9.5
      vertex 19.1 0.799999 9.5
    endloop
  endfacet
  facet normal 1 0 0
    outer loop
      vertex 19.1 0 10.7
      vertex 19.1 0.784628 10.8561
      vertex 19.1 0.739103 11.0061
    endloop
  endfacet
  facet normal 1 0 0
    outer loop
      vertex 19.1 0 10.7
      vertex 19.1 0.739103 11.0061
      vertex 19.1 0.665175 11.1445
    endloop
  endfacet
  facet normal 1 0 0
    outer loop
      vertex 19.1 0 10.7
      vertex 19.1 0.665175 11.1445
      vertex 19.1 0.565685 11.2657
    endloop
  endfacet
  facet normal 1 0 0
    outer loop
      vertex 19.1 0 10.7
      vertex 19.1 0.565685 11.2657
      vertex 19.1 0.444456 11.3652
    endloop
  endfacet
  facet normal 1 0 0
    outer loop
      vertex 19.1 0 10.7
      vertex 19.1 0.444456 11.3652
      vertex 19.1 0.306147 11.4391
    endloop
  endfacet
  facet normal 1 0 0
    outer loop
      vertex 19.1 0.799999 10.7
      vertex 19.1 0 10.7
      vertex 19.1 0.799999 9.5
    endloop
  endfacet
  facet normal 1 0 -0
    outer loop
      vertex 19.1 0.25 4.7902
      vertex 19.1 5.8 9.5
      vertex 19.1 0.245195 4.83897
    endloop
  endfacet
  facet normal 1 0 0
    outer loop
      vertex 19.1 5.8 9.5
      vertex 19.1 0.245195 4.74143
      vertex 19.1 5.8 -2
    endloop
  endfacet
  facet normal 1 -0 0
    outer loop
      vertex 19.1 0.230969 4.69453
      vertex 19.1 5.8 -2
      vertex 19.1 0.245195 4.74143
    endloop
  endfacet
  facet normal 1 -0 0
    outer loop
      vertex 19.1 0.207867 4.65131
      vertex 19.1 5.8 -2
      vertex 19.1 0.230969 4.69453
    endloop
  endfacet
  facet normal 1 -0 0
    outer loop
      vertex 19.1 0.176776 4.61342
      vertex 19.1 5.8 -2
      vertex 19.1 0.207867 4.65131
    endloop
  endfacet
  facet normal 1 -0 0
    outer loop
      vertex 19.1 0.138892 4.58233
      vertex 19.1 5.8 -2
      vertex 19.1 0.176776 4.61342
    endloop
  endfacet
  facet normal 1 0 0
    outer loop
      vertex 19.1 0 -2
      vertex 19.1 0.138892 4.58233
      vertex 19.1 0.0956707 4.55923
    endloop
  endfacet
  facet normal 1 0 0
    outer loop
      vertex 19.1 0 -2
      vertex 19.1 0.0956707 4.55923
      vertex 19.1 0.0487719 4.545
    endloop
  endfacet
  facet normal 1 0 0
    outer loop
      vertex 19.1 0 -2
      vertex 19.1 0.0487719 4.545
      vertex 19.1 0 4.5402
    endloop
  endfacet
  facet normal 1 0 0
    outer loop
      vertex 19.1 0.138892 4.58233
      vertex 19.1 0 -2
      vertex 19.1 5.8 -2
    endloop
  endfacet
  facet normal 1 0 0
    outer loop
      vertex 19.1 0.245195 4.74143
      vertex 19.1 5.8 9.5
      vertex 19.1 0.25 4.7902
    endloop
  endfacet
  facet normal 1 0 0
    outer loop
      vertex 19.1 5.8 9.5
      vertex 19.1 0.230969 4.88587
      vertex 19.1 0.245195 4.83897
    endloop
  endfacet
  facet normal 1 0 0
    outer loop
      vertex 19.1 0 5.0402
      vertex 19.1 0.799999 9.5
      vertex 19.1 0 10.7
    endloop
  endfacet
  facet normal 1 0 0
    outer loop
      vertex 19.1 5.8 9.5
      vertex 19.1 0.207867 4.92909
      vertex 19.1 0.230969 4.88587
    endloop
  endfacet
  facet normal 1 0 0
    outer loop
      vertex 19.1 0 10.7
      vertex 19.1 0.306147 11.4391
      vertex 19.1 0.156072 11.4846
    endloop
  endfacet
  facet normal 1 0 0
    outer loop
      vertex 19.1 0.799999 9.5
      vertex 19.1 0.176776 4.96698
      vertex 19.1 0.207867 4.92909
    endloop
  endfacet
  facet normal 1 0 0
    outer loop
      vertex 19.1 0.799999 9.5
      vertex 19.1 0.138892 4.99807
      vertex 19.1 0.176776 4.96698
    endloop
  endfacet
  facet normal 1 0 0
    outer loop
      vertex 19.1 0.799999 9.5
      vertex 19.1 0.0956707 5.02117
      vertex 19.1 0.138892 4.99807
    endloop
  endfacet
  facet normal 1 0 0
    outer loop
      vertex 19.1 0 10.7
      vertex 19.1 0.156072 11.4846
      vertex 19.1 0 11.5
    endloop
  endfacet
  facet normal 1 0 0
    outer loop
      vertex 19.1 0.799999 9.5
      vertex 19.1 0.0487719 5.0354
      vertex 19.1 0.0956707 5.02117
    endloop
  endfacet
  facet normal 1 0 0
    outer loop
      vertex 19.1 0.799999 9.5
      vertex 19.1 0 5.0402
      vertex 19.1 0.0487719 5.0354
    endloop
  endfacet
  facet normal -0 0 1
    outer loop
      vertex -1 5.8 9.5
      vertex 0 0.799999 9.5
      vertex 0 5.8 9.5
    endloop
  endfacet
  facet normal 0 0 1
    outer loop
      vertex 0 0.799999 9.5
      vertex -1 5.8 9.5
      vertex -1 0.799999 9.5
    endloop
  endfacet
  facet normal -0 0 1
    outer loop
      vertex 18.1 5.8 9.5
      vertex 19.1 0.799999 9.5
      vertex 19.1 5.8 9.5
    endloop
  endfacet
  facet normal 0 0 1
    outer loop
      vertex 19.1 0.799999 9.5
      vertex 18.1 5.8 9.5
      vertex 18.1 0.799999 9.5
    endloop
  endfacet
  facet normal 0 0 -1
    outer loop
      vertex 15.146 -4.25 -2
      vertex -1 -4.25 -2
      vertex 15.146 0 -2
    endloop
  endfacet
  facet normal 0 0 -1
    outer loop
      vertex 15.146 0 -2
      vertex 19.1 5.8 -2
      vertex 19.1 0 -2
    endloop
  endfacet
  facet normal 0 0 -1
    outer loop
      vertex -1 5.8 -2
      vertex 15.146 0 -2
      vertex -1 -4.25 -2
    endloop
  endfacet
  facet normal 0 0 -1
    outer loop
      vertex 15.146 0 -2
      vertex -1 5.8 -2
      vertex 19.1 5.8 -2
    endloop
  endfacet
  facet normal -1 0 0
    outer loop
      vertex -1 0 5.0402
      vertex -1 5.8 9.5
      vertex -1 5.8 -2
    endloop
  endfacet
  facet normal -1 0 0
    outer loop
      vertex -1 0 10.7
      vertex -1 0.799999 10.7
      vertex -1 0.799999 9.5
    endloop
  endfacet
  facet normal -1 0 0
    outer loop
      vertex -1 0.799999 10.7
      vertex -1 0 10.7
      vertex -1 0.784628 10.8561
    endloop
  endfacet
  facet normal -1 -0 0
    outer loop
      vertex -1 0.784628 10.8561
      vertex -1 0 10.7
      vertex -1 0.739103 11.0061
    endloop
  endfacet
  facet normal -1 -0 0
    outer loop
      vertex -1 0.739103 11.0061
      vertex -1 0 10.7
      vertex -1 0.665175 11.1445
    endloop
  endfacet
  facet normal -1 -0 0
    outer loop
      vertex -1 0.665175 11.1445
      vertex -1 0 10.7
      vertex -1 0.565685 11.2657
    endloop
  endfacet
  facet normal -1 -0 0
    outer loop
      vertex -1 0.565685 11.2657
      vertex -1 0 10.7
      vertex -1 0.444456 11.3652
    endloop
  endfacet
  facet normal -1 -0 0
    outer loop
      vertex -1 0.444456 11.3652
      vertex -1 0 10.7
      vertex -1 0.306147 11.4391
    endloop
  endfacet
  facet normal -1 0 0
    outer loop
      vertex -1 0 10.7
      vertex -1 0.799999 9.5
      vertex -1 0 5.0402
    endloop
  endfacet
  facet normal -1 -0 0
    outer loop
      vertex -1 5.8 9.5
      vertex -1 0 5.0402
      vertex -1 0.799999 9.5
    endloop
  endfacet
  facet normal -1 0 0
    outer loop
      vertex -1 -4.25 -2
      vertex -1 0 5.0402
      vertex -1 5.8 -2
    endloop
  endfacet
  facet normal -1 0 0
    outer loop
      vertex -1 -4.25 12.3502
      vertex -1 -2.25 6.1402
      vertex -1 -2.25 5.0402
    endloop
  endfacet
  facet normal -1 0 0
    outer loop
      vertex -1 -2.25 6.1402
      vertex -1 -4.25 12.3502
      vertex -1 -2.25 7.5402
    endloop
  endfacet
  facet normal -1 -0 0
    outer loop
      vertex -1 0 5.0402
      vertex -1 -4.25 -2
      vertex -1 -2.25 5.0402
    endloop
  endfacet
  facet normal -1 0 0
    outer loop
      vertex -1 -4.25 12.3502
      vertex -1 -2.25 5.0402
      vertex -1 -4.25 -2
    endloop
  endfacet
  facet normal -1 0 0
    outer loop
      vertex -1 -2.25 7.5402
      vertex -1 -4.25 12.3502
      vertex -1 -2.25 12.3502
    endloop
  endfacet
  facet normal -1 -0 0
    outer loop
      vertex -1 0.306147 11.4391
      vertex -1 0 10.7
      vertex -1 0.156072 11.4846
    endloop
  endfacet
  facet normal -1 0 0
    outer loop
      vertex -1 0 11.5
      vertex -1 0.156072 11.4846
      vertex -1 0 10.7
    endloop
  endfacet
  facet normal -1 0 0
    outer loop
      vertex -1 -1.46537 6.70364
      vertex -1 -1.46537 6.97676
      vertex -1 -1.45 6.8402
    endloop
  endfacet
  facet normal -1 0 0
    outer loop
      vertex -1 -1.5109 6.57232
      vertex -1 -1.46537 6.97676
      vertex -1 -1.46537 6.70364
    endloop
  endfacet
  facet normal -1 0 0
    outer loop
      vertex -1 -1.5109 6.57232
      vertex -1 -1.5109 7.10808
      vertex -1 -1.46537 6.97676
    endloop
  endfacet
  facet normal -1 0 0
    outer loop
      vertex -1 -1.58482 6.4513
      vertex -1 -1.5109 7.10808
      vertex -1 -1.5109 6.57232
    endloop
  endfacet
  facet normal -1 0 0
    outer loop
      vertex -1 -1.58482 6.4513
      vertex -1 -1.58482 7.2291
      vertex -1 -1.5109 7.10808
    endloop
  endfacet
  facet normal -1 0 0
    outer loop
      vertex -1 -1.68431 6.34522
      vertex -1 -1.58482 7.2291
      vertex -1 -1.58482 6.4513
    endloop
  endfacet
  facet normal -1 0 0
    outer loop
      vertex -1 -1.68431 6.34522
      vertex -1 -1.68431 7.33517
      vertex -1 -1.58482 7.2291
    endloop
  endfacet
  facet normal -1 0 0
    outer loop
      vertex -1 -1.80554 6.25817
      vertex -1 -1.68431 7.33517
      vertex -1 -1.68431 6.34522
    endloop
  endfacet
  facet normal -1 0 0
    outer loop
      vertex -1 -1.80554 6.25817
      vertex -1 -1.80554 7.42223
      vertex -1 -1.68431 7.33517
    endloop
  endfacet
  facet normal -1 0 0
    outer loop
      vertex -1 -1.94385 6.19348
      vertex -1 -1.80554 7.42223
      vertex -1 -1.80554 6.25817
    endloop
  endfacet
  facet normal -1 0 0
    outer loop
      vertex -1 -1.94385 6.19348
      vertex -1 -1.94385 7.48692
      vertex -1 -1.80554 7.42223
    endloop
  endfacet
  facet normal -1 0 0
    outer loop
      vertex -1 -2.09393 6.15365
      vertex -1 -1.94385 7.48692
      vertex -1 -1.94385 6.19348
    endloop
  endfacet
  facet normal -1 0 0
    outer loop
      vertex -1 -2.09393 6.15365
      vertex -1 -2.09393 7.52675
      vertex -1 -1.94385 7.48692
    endloop
  endfacet
  facet normal -1 0 0
    outer loop
      vertex -1 -2.25 6.1402
      vertex -1 -2.09393 7.52675
      vertex -1 -2.09393 6.15365
    endloop
  endfacet
  facet normal -1 -0 0
    outer loop
      vertex -1 -2.09393 7.52675
      vertex -1 -2.25 6.1402
      vertex -1 -2.25 7.5402
    endloop
  endfacet
  facet normal 0 1 0
    outer loop
      vertex 19.1 5.8 9.5
      vertex 18.1 5.8 0
      vertex 18.1 5.8 9.5
    endloop
  endfacet
  facet normal 0 1 0
    outer loop
      vertex 18.1 5.8 0
      vertex 19.1 5.8 -2
      vertex 0 5.8 0
    endloop
  endfacet
  facet normal 0 1 -0
    outer loop
      vertex 19.1 5.8 -2
      vertex 18.1 5.8 0
      vertex 19.1 5.8 9.5
    endloop
  endfacet
  facet normal 0 1 -0
    outer loop
      vertex 0 5.8 0
      vertex -1 5.8 9.5
      vertex 0 5.8 9.5
    endloop
  endfacet
  facet normal 0 1 0
    outer loop
      vertex 0 5.8 0
      vertex -1 5.8 -2
      vertex -1 5.8 9.5
    endloop
  endfacet
  facet normal 0 1 0
    outer loop
      vertex -1 5.8 -2
      vertex 0 5.8 0
      vertex 19.1 5.8 -2
    endloop
  endfacet
  facet normal 0 -1 0
    outer loop
      vertex 15.146 0 -2
      vertex 19.1 0 4.5402
      vertex 15.146 0 4.5402
    endloop
  endfacet
  facet normal 0 -1 -0
    outer loop
      vertex 19.1 0 4.5402
      vertex 15.146 0 -2
      vertex 19.1 0 -2
    endloop
  endfacet
  facet normal 0 -1 0
    outer loop
      vertex -1 0 10.7
      vertex 15.146 0 5.0402
      vertex 19.1 0 10.7
    endloop
  endfacet
  facet normal 0 -1 0
    outer loop
      vertex -1 0 5.0402
      vertex 15.146 0 5.0402
      vertex -1 0 10.7
    endloop
  endfacet
  facet normal 0 -1 -0
    outer loop
      vertex 19.1 0 10.7
      vertex 15.146 0 5.0402
      vertex 19.1 0 5.0402
    endloop
  endfacet
  facet normal 0 0 0
    outer loop
      vertex 15.146 0 -2
      vertex 15.146 0 4.5402
      vertex 15.146 0 5.0402
    endloop
  endfacet
  facet normal -1 0 0
    outer loop
      vertex 18.1 0.799999 0
      vertex 18.1 5.8 9.5
      vertex 18.1 5.8 0
    endloop
  endfacet
  facet normal -1 -0 0
    outer loop
      vertex 18.1 5.8 9.5
      vertex 18.1 0.799999 0
      vertex 18.1 0.799999 9.5
    endloop
  endfacet
  facet normal -0 0 1
    outer loop
      vertex 0 5.8 0
      vertex 18.1 0.799999 0
      vertex 18.1 5.8 0
    endloop
  endfacet
  facet normal 0 0 1
    outer loop
      vertex 18.1 0.799999 0
      vertex 0 5.8 0
      vertex 0 0.799999 0
    endloop
  endfacet
  facet normal 1 -0 0
    outer loop
      vertex 0 0.799999 9.5
      vertex 0 5.8 0
      vertex 0 5.8 9.5
    endloop
  endfacet
  facet normal 1 0 0
    outer loop
      vertex 0 5.8 0
      vertex 0 0.799999 9.5
      vertex 0 0.799999 0
    endloop
  endfacet
  facet normal 0 1 -0
    outer loop
      vertex 18.1 0.799999 0
      vertex 0 0.799999 9.5
      vertex 18.1 0.799999 9.5
    endloop
  endfacet
  facet normal 0 1 0
    outer loop
      vertex 0 0.799999 9.5
      vertex 18.1 0.799999 0
      vertex 0 0.799999 0
    endloop
  endfacet
  facet normal -0 0 1
    outer loop
      vertex -1 0 11.5
      vertex 19.1 -9.68247e-06 11.5
      vertex 19.1 0 11.5
    endloop
  endfacet
  facet normal 0 0 1
    outer loop
      vertex 19.1 -9.68247e-06 11.5
      vertex -1 0 11.5
      vertex -1 -9.68247e-06 11.5
    endloop
  endfacet
  facet normal 0 0.772936 0.634484
    outer loop
      vertex 19.1 0.665175 11.1445
      vertex -1 0.565685 11.2657
      vertex 19.1 0.565685 11.2657
    endloop
  endfacet
  facet normal 0 0.772936 0.634484
    outer loop
      vertex -1 0.565685 11.2657
      vertex 19.1 0.665175 11.1445
      vertex -1 0.665175 11.1445
    endloop
  endfacet
  facet normal 0 0.882049 0.471157
    outer loop
      vertex 19.1 0.739103 11.0061
      vertex -1 0.665175 11.1445
      vertex 19.1 0.665175 11.1445
    endloop
  endfacet
  facet normal 0 0.882049 0.471157
    outer loop
      vertex -1 0.665175 11.1445
      vertex 19.1 0.739103 11.0061
      vertex -1 0.739103 11.0061
    endloop
  endfacet
  facet normal -0 0.0981955 0.995167
    outer loop
      vertex -1 0.156072 11.4846
      vertex 19.1 0 11.5
      vertex 19.1 0.156072 11.4846
    endloop
  endfacet
  facet normal 0 0.0981955 0.995167
    outer loop
      vertex 19.1 0 11.5
      vertex -1 0.156072 11.4846
      vertex -1 0 11.5
    endloop
  endfacet
  facet normal -0 0.471259 0.881995
    outer loop
      vertex -1 0.444456 11.3652
      vertex 19.1 0.306147 11.4391
      vertex 19.1 0.444456 11.3652
    endloop
  endfacet
  facet normal 0 0.471259 0.881995
    outer loop
      vertex 19.1 0.306147 11.4391
      vertex -1 0.444456 11.3652
      vertex -1 0.306147 11.4391
    endloop
  endfacet
  facet normal 0 0.9569 0.290419
    outer loop
      vertex 19.1 0.784628 10.8561
      vertex -1 0.739103 11.0061
      vertex 19.1 0.739103 11.0061
    endloop
  endfacet
  facet normal 0 0.9569 0.290419
    outer loop
      vertex -1 0.739103 11.0061
      vertex 19.1 0.784628 10.8561
      vertex -1 0.784628 10.8561
    endloop
  endfacet
  facet normal -0 0.634431 0.772979
    outer loop
      vertex -1 0.565685 11.2657
      vertex 19.1 0.444456 11.3652
      vertex 19.1 0.565685 11.2657
    endloop
  endfacet
  facet normal 0 0.634431 0.772979
    outer loop
      vertex 19.1 0.444456 11.3652
      vertex -1 0.565685 11.2657
      vertex -1 0.444456 11.3652
    endloop
  endfacet
  facet normal -0 0.29014 0.956984
    outer loop
      vertex -1 0.306147 11.4391
      vertex 19.1 0.156072 11.4846
      vertex 19.1 0.306147 11.4391
    endloop
  endfacet
  facet normal 0 0.29014 0.956984
    outer loop
      vertex 19.1 0.156072 11.4846
      vertex -1 0.306147 11.4391
      vertex -1 0.156072 11.4846
    endloop
  endfacet
  facet normal 0 0.995187 0.097995
    outer loop
      vertex 19.1 0.799999 10.7
      vertex -1 0.784628 10.8561
      vertex 19.1 0.784628 10.8561
    endloop
  endfacet
  facet normal 0 0.995187 0.097995
    outer loop
      vertex -1 0.784628 10.8561
      vertex 19.1 0.799999 10.7
      vertex -1 0.799999 10.7
    endloop
  endfacet
  facet normal 0 0 -1
    outer loop
      vertex -1 -9.68247e-06 11.5
      vertex 19.1 0 11.5
      vertex 19.1 -9.68247e-06 11.5
    endloop
  endfacet
  facet normal -0 0 -1
    outer loop
      vertex 19.1 0 11.5
      vertex -1 -9.68247e-06 11.5
      vertex -1 0 11.5
    endloop
  endfacet
  facet normal 0 -1 0
    outer loop
      vertex -1 0 10.7
      vertex 19.1 0 11.5
      vertex -1 0 11.5
    endloop
  endfacet
  facet normal 0 -1 -0
    outer loop
      vertex 19.1 0 11.5
      vertex -1 0 10.7
      vertex 19.1 0 10.7
    endloop
  endfacet
  facet normal 0 1 0
    outer loop
      vertex 18.1 0.799999 9.5
      vertex 19.1 0.799999 10.7
      vertex 19.1 0.799999 9.5
    endloop
  endfacet
  facet normal 0 1 0
    outer loop
      vertex 19.1 0.799999 10.7
      vertex 18.1 0.799999 9.5
      vertex -1 0.799999 10.7
    endloop
  endfacet
  facet normal 0 1 -0
    outer loop
      vertex 0 0.799999 9.5
      vertex -1 0.799999 10.7
      vertex 18.1 0.799999 9.5
    endloop
  endfacet
  facet normal 0 1 0
    outer loop
      vertex -1 0.799999 10.7
      vertex 0 0.799999 9.5
      vertex -1 0.799999 9.5
    endloop
  endfacet
  facet normal 0 -0.290348 0.956921
    outer loop
      vertex 15.146 0.0956707 4.55923
      vertex 19.1 0.0487719 4.545
      vertex 19.1 0.0956707 4.55923
    endloop
  endfacet
  facet normal 0 -0.290348 0.956921
    outer loop
      vertex 19.1 0.0487719 4.545
      vertex 15.146 0.0956707 4.55923
      vertex 15.146 0.0487719 4.545
    endloop
  endfacet
  facet normal 0 -0.0979441 0.995192
    outer loop
      vertex 15.146 0.0487719 4.545
      vertex 19.1 0 4.5402
      vertex 19.1 0.0487719 4.545
    endloop
  endfacet
  facet normal 0 -0.0979441 0.995192
    outer loop
      vertex 19.1 0 4.5402
      vertex 15.146 0.0487719 4.545
      vertex 15.146 0 4.5402
    endloop
  endfacet
  facet normal 0 -0.471361 0.88194
    outer loop
      vertex 15.146 0.138892 4.58233
      vertex 19.1 0.0956707 4.55923
      vertex 19.1 0.138892 4.58233
    endloop
  endfacet
  facet normal 0 -0.471361 0.88194
    outer loop
      vertex 19.1 0.0956707 4.55923
      vertex 15.146 0.138892 4.58233
      vertex 15.146 0.0956707 4.55923
    endloop
  endfacet
  facet normal 0 -0.956946 -0.290267
    outer loop
      vertex 15.146 0.245195 4.83897
      vertex 19.1 0.230969 4.88587
      vertex 15.146 0.230969 4.88587
    endloop
  endfacet
  facet normal 0 -0.956946 -0.290267
    outer loop
      vertex 19.1 0.230969 4.88587
      vertex 15.146 0.245195 4.83897
      vertex 19.1 0.245195 4.83897
    endloop
  endfacet
  facet normal 0 -0.956946 0.290267
    outer loop
      vertex 15.146 0.230969 4.69453
      vertex 19.1 0.245195 4.74143
      vertex 15.146 0.245195 4.74143
    endloop
  endfacet
  facet normal 0 -0.956946 0.290267
    outer loop
      vertex 19.1 0.245195 4.74143
      vertex 15.146 0.230969 4.69453
      vertex 19.1 0.230969 4.69453
    endloop
  endfacet
  facet normal 0 -0.881918 -0.471404
    outer loop
      vertex 15.146 0.230969 4.88587
      vertex 19.1 0.207867 4.92909
      vertex 15.146 0.207867 4.92909
    endloop
  endfacet
  facet normal 0 -0.881918 -0.471404
    outer loop
      vertex 19.1 0.207867 4.92909
      vertex 15.146 0.230969 4.88587
      vertex 19.1 0.230969 4.88587
    endloop
  endfacet
  facet normal 0 -0.773056 -0.634338
    outer loop
      vertex 15.146 0.207867 4.92909
      vertex 19.1 0.176776 4.96698
      vertex 15.146 0.176776 4.96698
    endloop
  endfacet
  facet normal 0 -0.773056 -0.634338
    outer loop
      vertex 19.1 0.176776 4.96698
      vertex 15.146 0.207867 4.92909
      vertex 19.1 0.207867 4.92909
    endloop
  endfacet
  facet normal 0 -0.995182 -0.098049
    outer loop
      vertex 15.146 0.25 4.7902
      vertex 19.1 0.245195 4.83897
      vertex 15.146 0.245195 4.83897
    endloop
  endfacet
  facet normal 0 -0.995182 -0.098049
    outer loop
      vertex 19.1 0.245195 4.83897
      vertex 15.146 0.25 4.7902
      vertex 19.1 0.25 4.7902
    endloop
  endfacet
  facet normal 0 -0.634386 -0.773016
    outer loop
      vertex 15.146 0.138892 4.99807
      vertex 19.1 0.176776 4.96698
      vertex 19.1 0.138892 4.99807
    endloop
  endfacet
  facet normal -0 -0.634386 -0.773016
    outer loop
      vertex 19.1 0.176776 4.96698
      vertex 15.146 0.138892 4.99807
      vertex 15.146 0.176776 4.96698
    endloop
  endfacet
  facet normal 0 -0.881918 0.471404
    outer loop
      vertex 15.146 0.207867 4.65131
      vertex 19.1 0.230969 4.69453
      vertex 15.146 0.230969 4.69453
    endloop
  endfacet
  facet normal 0 -0.881918 0.471404
    outer loop
      vertex 19.1 0.230969 4.69453
      vertex 15.146 0.207867 4.65131
      vertex 19.1 0.207867 4.65131
    endloop
  endfacet
  facet normal 0 -0.471361 -0.88194
    outer loop
      vertex 15.146 0.0956707 5.02117
      vertex 19.1 0.138892 4.99807
      vertex 19.1 0.0956707 5.02117
    endloop
  endfacet
  facet normal -0 -0.471361 -0.88194
    outer loop
      vertex 19.1 0.138892 4.99807
      vertex 15.146 0.0956707 5.02117
      vertex 15.146 0.138892 4.99807
    endloop
  endfacet
  facet normal 0 -0.290348 -0.956921
    outer loop
      vertex 15.146 0.0487719 5.0354
      vertex 19.1 0.0956707 5.02117
      vertex 19.1 0.0487719 5.0354
    endloop
  endfacet
  facet normal -0 -0.290348 -0.956921
    outer loop
      vertex 19.1 0.0956707 5.02117
      vertex 15.146 0.0487719 5.0354
      vertex 15.146 0.0956707 5.02117
    endloop
  endfacet
  facet normal 0 -0.634386 0.773016
    outer loop
      vertex 15.146 0.176776 4.61342
      vertex 19.1 0.138892 4.58233
      vertex 19.1 0.176776 4.61342
    endloop
  endfacet
  facet normal 0 -0.634386 0.773016
    outer loop
      vertex 19.1 0.138892 4.58233
      vertex 15.146 0.176776 4.61342
      vertex 15.146 0.138892 4.58233
    endloop
  endfacet
  facet normal 0 -0.773056 0.634338
    outer loop
      vertex 15.146 0.176776 4.61342
      vertex 19.1 0.207867 4.65131
      vertex 15.146 0.207867 4.65131
    endloop
  endfacet
  facet normal 0 -0.773056 0.634338
    outer loop
      vertex 19.1 0.207867 4.65131
      vertex 15.146 0.176776 4.61342
      vertex 19.1 0.176776 4.61342
    endloop
  endfacet
  facet normal 1 0 0
    outer loop
      vertex 15.146 0.245195 4.83897
      vertex 15.146 0.245195 4.74143
      vertex 15.146 0.25 4.7902
    endloop
  endfacet
  facet normal 1 0 0
    outer loop
      vertex 15.146 0.230969 4.88587
      vertex 15.146 0.245195 4.74143
      vertex 15.146 0.245195 4.83897
    endloop
  endfacet
  facet normal 1 0 0
    outer loop
      vertex 15.146 0.230969 4.88587
      vertex 15.146 0.230969 4.69453
      vertex 15.146 0.245195 4.74143
    endloop
  endfacet
  facet normal 1 0 0
    outer loop
      vertex 15.146 0.207867 4.92909
      vertex 15.146 0.230969 4.69453
      vertex 15.146 0.230969 4.88587
    endloop
  endfacet
  facet normal 1 0 0
    outer loop
      vertex 15.146 0.207867 4.92909
      vertex 15.146 0.207867 4.65131
      vertex 15.146 0.230969 4.69453
    endloop
  endfacet
  facet normal 1 0 0
    outer loop
      vertex 15.146 0.176776 4.96698
      vertex 15.146 0.207867 4.65131
      vertex 15.146 0.207867 4.92909
    endloop
  endfacet
  facet normal 1 0 0
    outer loop
      vertex 15.146 0.176776 4.96698
      vertex 15.146 0.176776 4.61342
      vertex 15.146 0.207867 4.65131
    endloop
  endfacet
  facet normal 1 0 0
    outer loop
      vertex 15.146 0.138892 4.99807
      vertex 15.146 0.176776 4.61342
      vertex 15.146 0.176776 4.96698
    endloop
  endfacet
  facet normal 1 0 0
    outer loop
      vertex 15.146 0.138892 4.99807
      vertex 15.146 0.138892 4.58233
      vertex 15.146 0.176776 4.61342
    endloop
  endfacet
  facet normal 1 0 0
    outer loop
      vertex 15.146 0.0956707 5.02117
      vertex 15.146 0.138892 4.58233
      vertex 15.146 0.138892 4.99807
    endloop
  endfacet
  facet normal 1 0 0
    outer loop
      vertex 15.146 0.0956707 5.02117
      vertex 15.146 0.0956707 4.55923
      vertex 15.146 0.138892 4.58233
    endloop
  endfacet
  facet normal 1 0 0
    outer loop
      vertex 15.146 0.0487719 5.0354
      vertex 15.146 0.0956707 4.55923
      vertex 15.146 0.0956707 5.02117
    endloop
  endfacet
  facet normal 1 0 0
    outer loop
      vertex 15.146 0.0487719 5.0354
      vertex 15.146 0.0487719 4.545
      vertex 15.146 0.0956707 4.55923
    endloop
  endfacet
  facet normal 1 0 0
    outer loop
      vertex 15.146 0 5.0402
      vertex 15.146 0.0487719 4.545
      vertex 15.146 0.0487719 5.0354
    endloop
  endfacet
  facet normal 1 0 0
    outer loop
      vertex 15.146 0.0487719 4.545
      vertex 15.146 0 5.0402
      vertex 15.146 0 4.5402
    endloop
  endfacet
  facet normal 0 -0.995182 0.098049
    outer loop
      vertex 15.146 0.245195 4.74143
      vertex 19.1 0.25 4.7902
      vertex 15.146 0.25 4.7902
    endloop
  endfacet
  facet normal 0 -0.995182 0.098049
    outer loop
      vertex 19.1 0.25 4.7902
      vertex 15.146 0.245195 4.74143
      vertex 19.1 0.245195 4.74143
    endloop
  endfacet
  facet normal 0 -0.0979441 -0.995192
    outer loop
      vertex 15.146 0 5.0402
      vertex 19.1 0.0487719 5.0354
      vertex 19.1 0 5.0402
    endloop
  endfacet
  facet normal -0 -0.0979441 -0.995192
    outer loop
      vertex 19.1 0.0487719 5.0354
      vertex 15.146 0 5.0402
      vertex 15.146 0.0487719 5.0354
    endloop
  endfacet
  facet normal 1 -0 0
    outer loop
      vertex 15.146 -4.25 12.3502
      vertex 15.146 -2.25 7.5402
      vertex 15.146 -2.25 12.3502
    endloop
  endfacet
  facet normal 1 0 0
    outer loop
      vertex 15.146 -2.25 7.5402
      vertex 15.146 -4.25 12.3502
      vertex 15.146 -2.25 6.1402
    endloop
  endfacet
  facet normal 1 0 0
    outer loop
      vertex 15.146 -2.25 6.1402
      vertex 15.146 -4.25 12.3502
      vertex 15.146 -2.25 5.0402
    endloop
  endfacet
  facet normal 1 0 0
    outer loop
      vertex 15.146 -1.46537 6.97676
      vertex 15.146 -1.46537 6.70364
      vertex 15.146 -1.45 6.8402
    endloop
  endfacet
  facet normal 1 0 0
    outer loop
      vertex 15.146 -1.5109 7.10808
      vertex 15.146 -1.46537 6.70364
      vertex 15.146 -1.46537 6.97676
    endloop
  endfacet
  facet normal 1 0 0
    outer loop
      vertex 15.146 -1.5109 7.10808
      vertex 15.146 -1.5109 6.57232
      vertex 15.146 -1.46537 6.70364
    endloop
  endfacet
  facet normal 1 0 0
    outer loop
      vertex 15.146 -1.58482 7.2291
      vertex 15.146 -1.5109 6.57232
      vertex 15.146 -1.5109 7.10808
    endloop
  endfacet
  facet normal 1 0 0
    outer loop
      vertex 15.146 -1.58482 7.2291
      vertex 15.146 -1.58482 6.4513
      vertex 15.146 -1.5109 6.57232
    endloop
  endfacet
  facet normal 1 0 0
    outer loop
      vertex 15.146 -1.68431 7.33517
      vertex 15.146 -1.58482 6.4513
      vertex 15.146 -1.58482 7.2291
    endloop
  endfacet
  facet normal 1 0 0
    outer loop
      vertex 15.146 -1.68431 7.33517
      vertex 15.146 -1.68431 6.34522
      vertex 15.146 -1.58482 6.4513
    endloop
  endfacet
  facet normal 1 0 0
    outer loop
      vertex 15.146 -1.80554 7.42223
      vertex 15.146 -1.68431 6.34522
      vertex 15.146 -1.68431 7.33517
    endloop
  endfacet
  facet normal 1 0 0
    outer loop
      vertex 15.146 -1.80554 7.42223
      vertex 15.146 -1.80554 6.25817
      vertex 15.146 -1.68431 6.34522
    endloop
  endfacet
  facet normal 1 0 0
    outer loop
      vertex 15.146 -1.94385 7.48692
      vertex 15.146 -1.80554 6.25817
      vertex 15.146 -1.80554 7.42223
    endloop
  endfacet
  facet normal 1 0 0
    outer loop
      vertex 15.146 -1.94385 7.48692
      vertex 15.146 -1.94385 6.19348
      vertex 15.146 -1.80554 6.25817
    endloop
  endfacet
  facet normal 1 0 0
    outer loop
      vertex 15.146 -2.09393 7.52675
      vertex 15.146 -1.94385 6.19348
      vertex 15.146 -1.94385 7.48692
    endloop
  endfacet
  facet normal 1 0 0
    outer loop
      vertex 15.146 -2.09393 7.52675
      vertex 15.146 -2.09393 6.15365
      vertex 15.146 -1.94385 6.19348
    endloop
  endfacet
  facet normal 1 0 0
    outer loop
      vertex 15.146 -2.25 7.5402
      vertex 15.146 -2.09393 6.15365
      vertex 15.146 -2.09393 7.52675
    endloop
  endfacet
  facet normal 1 0 0
    outer loop
      vertex 15.146 -2.09393 6.15365
      vertex 15.146 -2.25 7.5402
      vertex 15.146 -2.25 6.1402
    endloop
  endfacet
  facet normal 1 -0 0
    outer loop
      vertex 15.146 -2.25 5.0402
      vertex 15.146 0 -2
      vertex 15.146 0 5.0402
    endloop
  endfacet
  facet normal 1 0 0
    outer loop
      vertex 15.146 -2.25 5.0402
      vertex 15.146 -4.25 -2
      vertex 15.146 0 -2
    endloop
  endfacet
  facet normal 1 0 0
    outer loop
      vertex 15.146 -4.25 -2
      vertex 15.146 -2.25 5.0402
      vertex 15.146 -4.25 12.3502
    endloop
  endfacet
  facet normal 0 0 1
    outer loop
      vertex 15.146 -2.25 12.3502
      vertex 9.55 -3.75 12.3502
      vertex 15.146 -4.25 12.3502
    endloop
  endfacet
  facet normal 0 0 1
    outer loop
      vertex 15.146 -2.25 12.3502
      vertex 8.55 -3.75 12.3502
      vertex 9.55 -3.75 12.3502
    endloop
  endfacet
  facet normal -0 0 1
    outer loop
      vertex -1 -2.25 12.3502
      vertex 8.55 -3.75 12.3502
      vertex 15.146 -2.25 12.3502
    endloop
  endfacet
  facet normal 0 0 1
    outer loop
      vertex -1 -4.25 12.3502
      vertex 8.55 -3.75 12.3502
      vertex -1 -2.25 12.3502
    endloop
  endfacet
  facet normal 0 0 1
    outer loop
      vertex 8.55 -3.75 12.3502
      vertex -1 -4.25 12.3502
      vertex 8.55 -4.25 12.3502
    endloop
  endfacet
  facet normal 0 0 1
    outer loop
      vertex 15.146 -4.25 12.3502
      vertex 9.55 -3.75 12.3502
      vertex 9.55 -4.25 12.3502
    endloop
  endfacet
  facet normal 0 -1 0
    outer loop
      vertex -1 -4.25 12.3502
      vertex 8.55 -4.25 9.8502
      vertex 8.55 -4.25 12.3502
    endloop
  endfacet
  facet normal 0 -1 0
    outer loop
      vertex 7.40477 -4.25 5.73625
      vertex 8.55 -4.25 9.8502
      vertex 7.02899 -4.25 5.76636
    endloop
  endfacet
  facet normal 0 -1 0
    outer loop
      vertex 6.01615 -4.25 5.49391
      vertex 8.55 -4.25 9.8502
      vertex -1 -4.25 12.3502
    endloop
  endfacet
  facet normal 0 -1 0
    outer loop
      vertex 8.55 -4.25 9.8502
      vertex 6.6528 -4.25 5.73608
      vertex 7.02899 -4.25 5.76636
    endloop
  endfacet
  facet normal 0 -1 0
    outer loop
      vertex 8.55 -4.25 9.8502
      vertex 6.31519 -4.25 5.64526
      vertex 6.6528 -4.25 5.73608
    endloop
  endfacet
  facet normal 0 -1 0
    outer loop
      vertex 8.55 -4.25 9.8502
      vertex 6.01615 -4.25 5.49391
      vertex 6.31519 -4.25 5.64526
    endloop
  endfacet
  facet normal 0 -1 0
    outer loop
      vertex -1 -4.25 12.3502
      vertex 5.75568 -4.25 5.28201
      vertex 6.01615 -4.25 5.49391
    endloop
  endfacet
  facet normal 0 -1 0
    outer loop
      vertex -1 -4.25 12.3502
      vertex 5.53378 -4.25 5.00957
      vertex 5.75568 -4.25 5.28201
    endloop
  endfacet
  facet normal 0 -1 0
    outer loop
      vertex -1 -4.25 12.3502
      vertex 5.35141 -4.25 4.67969
      vertex 5.53378 -4.25 5.00957
    endloop
  endfacet
  facet normal 0 -1 0
    outer loop
      vertex -1 -4.25 12.3502
      vertex 5.20958 -4.25 4.29543
      vertex 5.35141 -4.25 4.67969
    endloop
  endfacet
  facet normal 0 -1 0
    outer loop
      vertex -1 -4.25 12.3502
      vertex 5.10826 -4.25 3.85681
      vertex 5.20958 -4.25 4.29543
    endloop
  endfacet
  facet normal 0 -1 0
    outer loop
      vertex -1 -4.25 -2
      vertex 5.10826 -4.25 3.85681
      vertex -1 -4.25 12.3502
    endloop
  endfacet
  facet normal 0 -1 0
    outer loop
      vertex 5.10826 -4.25 3.85681
      vertex -1 -4.25 -2
      vertex 5.04747 -4.25 3.36385
    endloop
  endfacet
  facet normal 0 -1 0
    outer loop
      vertex 5.04747 -4.25 3.36385
      vertex -1 -4.25 -2
      vertex 5.02721 -4.25 2.81651
    endloop
  endfacet
  facet normal 0 -1 -0
    outer loop
      vertex 5.02721 -4.25 2.81651
      vertex -1 -4.25 -2
      vertex 5.0465 -4.25 2.26088
    endloop
  endfacet
  facet normal 0 -1 -0
    outer loop
      vertex 5.0465 -4.25 2.26088
      vertex -1 -4.25 -2
      vertex 5.10436 -4.25 1.76254
    endloop
  endfacet
  facet normal 0 -1 -0
    outer loop
      vertex 5.10436 -4.25 1.76254
      vertex -1 -4.25 -2
      vertex 5.20078 -4.25 1.32149
    endloop
  endfacet
  facet normal 0 -1 -0
    outer loop
      vertex 5.20078 -4.25 1.32149
      vertex -1 -4.25 -2
      vertex 5.33579 -4.25 0.937729
    endloop
  endfacet
  facet normal 0 -1 -0
    outer loop
      vertex 6.62056 -4.25 -0.103531
      vertex -1 -4.25 -2
      vertex 7.00456 -4.25 -0.133316
    endloop
  endfacet
  facet normal 0 -1 -0
    outer loop
      vertex 6.27904 -4.25 -0.0141754
      vertex -1 -4.25 -2
      vertex 6.62056 -4.25 -0.103531
    endloop
  endfacet
  facet normal 0 -1 -0
    outer loop
      vertex 5.98001 -4.25 0.134735
      vertex -1 -4.25 -2
      vertex 6.27904 -4.25 -0.0141754
    endloop
  endfacet
  facet normal 0 -1 -0
    outer loop
      vertex 5.72345 -4.25 0.343216
      vertex -1 -4.25 -2
      vertex 5.98001 -4.25 0.134735
    endloop
  endfacet
  facet normal 0 -1 -0
    outer loop
      vertex 5.50937 -4.25 0.611267
      vertex -1 -4.25 -2
      vertex 5.72345 -4.25 0.343216
    endloop
  endfacet
  facet normal 0 -1 -0
    outer loop
      vertex 5.33579 -4.25 0.937729
      vertex -1 -4.25 -2
      vertex 5.50937 -4.25 0.611267
    endloop
  endfacet
  facet normal 0 -1 0
    outer loop
      vertex 9.55 -4.25 9.8502
      vertex 15.146 -4.25 12.3502
      vertex 9.55 -4.25 12.3502
    endloop
  endfacet
  facet normal 0 -1 0
    outer loop
      vertex 7.74118 -4.25 5.64592
      vertex 8.55 -4.25 9.8502
      vertex 7.40477 -4.25 5.73625
    endloop
  endfacet
  facet normal 0 -1 0
    outer loop
      vertex 8.03821 -4.25 5.49538
      vertex 8.55 -4.25 9.8502
      vertex 7.74118 -4.25 5.64592
    endloop
  endfacet
  facet normal 0 -1 -0
    outer loop
      vertex 8.55 -4.25 9.8502
      vertex 8.03821 -4.25 5.49538
      vertex 9.55 -4.25 9.8502
    endloop
  endfacet
  facet normal 0 -1 0
    outer loop
      vertex 8.29584 -4.25 5.28462
      vertex 9.55 -4.25 9.8502
      vertex 8.03821 -4.25 5.49538
    endloop
  endfacet
  facet normal 0 -1 0
    outer loop
      vertex 8.51409 -4.25 5.01366
      vertex 9.55 -4.25 9.8502
      vertex 8.29584 -4.25 5.28462
    endloop
  endfacet
  facet normal 0 -1 0
    outer loop
      vertex 8.69278 -4.25 4.68491
      vertex 9.55 -4.25 9.8502
      vertex 8.51409 -4.25 5.01366
    endloop
  endfacet
  facet normal 0 -1 0
    outer loop
      vertex 8.83177 -4.25 4.30081
      vertex 9.55 -4.25 9.8502
      vertex 8.69278 -4.25 4.68491
    endloop
  endfacet
  facet normal 0 -1 -0
    outer loop
      vertex 9.55 -4.25 9.8502
      vertex 8.83177 -4.25 4.30081
      vertex 15.146 -4.25 12.3502
    endloop
  endfacet
  facet normal 0 -1 0
    outer loop
      vertex 8.93105 -4.25 3.86139
      vertex 15.146 -4.25 12.3502
      vertex 8.83177 -4.25 4.30081
    endloop
  endfacet
  facet normal 0 -1 0
    outer loop
      vertex 15.146 -4.25 -2
      vertex 8.93105 -4.25 3.86139
      vertex 8.99062 -4.25 3.36662
    endloop
  endfacet
  facet normal 0 -1 0
    outer loop
      vertex 15.146 -4.25 -2
      vertex 8.99062 -4.25 3.36662
      vertex 9.01047 -4.25 2.81651
    endloop
  endfacet
  facet normal 0 -1 0
    outer loop
      vertex 15.146 -4.25 -2
      vertex 9.01047 -4.25 2.81651
      vertex 8.99118 -4.25 2.25536
    endloop
  endfacet
  facet normal 0 -1 0
    outer loop
      vertex 15.146 -4.25 -2
      vertex 8.99118 -4.25 2.25536
      vertex 8.93332 -4.25 1.75343
    endloop
  endfacet
  facet normal 0 -1 0
    outer loop
      vertex 15.146 -4.25 -2
      vertex 8.93332 -4.25 1.75343
      vertex 8.8369 -4.25 1.31075
    endloop
  endfacet
  facet normal 0 -1 0
    outer loop
      vertex 15.146 -4.25 -2
      vertex 8.8369 -4.25 1.31075
      vertex 8.70189 -4.25 0.927307
    endloop
  endfacet
  facet normal 0 -1 0
    outer loop
      vertex 15.146 -4.25 -2
      vertex 8.70189 -4.25 0.927307
      vertex 8.52831 -4.25 0.603119
    endloop
  endfacet
  facet normal 0 -1 0
    outer loop
      vertex 15.146 -4.25 -2
      vertex 7.00456 -4.25 -0.133316
      vertex -1 -4.25 -2
    endloop
  endfacet
  facet normal 0 -1 0
    outer loop
      vertex 8.93105 -4.25 3.86139
      vertex 15.146 -4.25 -2
      vertex 15.146 -4.25 12.3502
    endloop
  endfacet
  facet normal 0 -1 0
    outer loop
      vertex 8.31307 -4.25 0.337997
      vertex 15.146 -4.25 -2
      vertex 8.52831 -4.25 0.603119
    endloop
  endfacet
  facet normal 0 -1 0
    outer loop
      vertex 8.05307 -4.25 0.13179
      vertex 15.146 -4.25 -2
      vertex 8.31307 -4.25 0.337997
    endloop
  endfacet
  facet normal 0 -1 0
    outer loop
      vertex 7.74832 -4.25 -0.0154877
      vertex 15.146 -4.25 -2
      vertex 8.05307 -4.25 0.13179
    endloop
  endfacet
  facet normal 0 -1 0
    outer loop
      vertex 7.39881 -4.25 -0.103851
      vertex 15.146 -4.25 -2
      vertex 7.74832 -4.25 -0.0154877
    endloop
  endfacet
  facet normal 0 -1 0
    outer loop
      vertex 7.00456 -4.25 -0.133316
      vertex 15.146 -4.25 -2
      vertex 7.39881 -4.25 -0.103851
    endloop
  endfacet
  facet normal 0 -1 0
    outer loop
      vertex 6.07283 -4.25 4.59053
      vertex 7.02089 -4.25 5.16827
      vertex 6.77593 -4.25 5.14516
    endloop
  endfacet
  facet normal 0 -1 0
    outer loop
      vertex 7.02089 -4.25 5.16827
      vertex 7.9709 -4.25 4.60271
      vertex 7.2672 -4.25 5.14565
    endloop
  endfacet
  facet normal 0 -1 0
    outer loop
      vertex 6.20709 -4.25 4.79852
      vertex 6.77593 -4.25 5.14516
      vertex 6.55864 -4.25 5.07584
    endloop
  endfacet
  facet normal 0 -1 0
    outer loop
      vertex 7.2672 -4.25 5.14565
      vertex 7.83722 -4.25 4.80632
      vertex 7.48535 -4.25 5.07779
    endloop
  endfacet
  facet normal 0 -1 0
    outer loop
      vertex 6.20709 -4.25 4.79852
      vertex 6.55864 -4.25 5.07584
      vertex 6.36904 -4.25 4.96028
    endloop
  endfacet
  facet normal 0 -1 0
    outer loop
      vertex 7.48535 -4.25 5.07779
      vertex 7.83722 -4.25 4.80632
      vertex 7.67537 -4.25 4.96468
    endloop
  endfacet
  facet normal 0 -1 0
    outer loop
      vertex 6.07283 -4.25 4.59053
      vertex 6.77593 -4.25 5.14516
      vertex 6.20709 -4.25 4.79852
    endloop
  endfacet
  facet normal 0 -1 0
    outer loop
      vertex 7.2672 -4.25 5.14565
      vertex 7.9709 -4.25 4.60271
      vertex 7.83722 -4.25 4.80632
    endloop
  endfacet
  facet normal 0 -1 -0
    outer loop
      vertex 7.02089 -4.25 5.16827
      vertex 6.07283 -4.25 4.59053
      vertex 7.9709 -4.25 4.60271
    endloop
  endfacet
  facet normal 0 -1 0
    outer loop
      vertex 6.07283 -4.25 4.59053
      vertex 8.07857 -4.25 4.35028
      vertex 7.9709 -4.25 4.60271
    endloop
  endfacet
  facet normal 0 -1 0
    outer loop
      vertex 5.96443 -4.25 4.33467
      vertex 8.07857 -4.25 4.35028
      vertex 6.07283 -4.25 4.59053
    endloop
  endfacet
  facet normal 0 -1 0
    outer loop
      vertex 5.96443 -4.25 4.33467
      vertex 8.16229 -4.25 4.04546
      vertex 8.07857 -4.25 4.35028
    endloop
  endfacet
  facet normal 0 -1 0
    outer loop
      vertex 5.88013 -4.25 4.02934
      vertex 8.16229 -4.25 4.04546
      vertex 5.96443 -4.25 4.33467
    endloop
  endfacet
  facet normal 0 -1 0
    outer loop
      vertex 5.88013 -4.25 4.02934
      vertex 8.22211 -4.25 3.68822
      vertex 8.16229 -4.25 4.04546
    endloop
  endfacet
  facet normal 0 -1 0
    outer loop
      vertex 5.81992 -4.25 3.67455
      vertex 8.22211 -4.25 3.68822
      vertex 5.88013 -4.25 4.02934
    endloop
  endfacet
  facet normal 0 -1 0
    outer loop
      vertex 5.81992 -4.25 3.67455
      vertex 8.25798 -4.25 3.27856
      vertex 8.22211 -4.25 3.68822
    endloop
  endfacet
  facet normal 0 -1 0
    outer loop
      vertex 5.78378 -4.25 3.27026
      vertex 8.25798 -4.25 3.27856
      vertex 5.81992 -4.25 3.67455
    endloop
  endfacet
  facet normal 0 -1 0
    outer loop
      vertex 5.77175 -4.25 2.81651
      vertex 8.25798 -4.25 3.27856
      vertex 5.78378 -4.25 3.27026
    endloop
  endfacet
  facet normal 0 -1 0
    outer loop
      vertex 5.77175 -4.25 2.81651
      vertex 8.26995 -4.25 2.81651
      vertex 8.25798 -4.25 3.27856
    endloop
  endfacet
  facet normal 0 -1 0
    outer loop
      vertex 5.78322 -4.25 2.34746
      vertex 8.26995 -4.25 2.81651
      vertex 5.77175 -4.25 2.81651
    endloop
  endfacet
  facet normal 0 -1 0
    outer loop
      vertex 5.78322 -4.25 2.34746
      vertex 8.25815 -4.25 2.34193
      vertex 8.26995 -4.25 2.81651
    endloop
  endfacet
  facet normal 0 -1 0
    outer loop
      vertex 5.81764 -4.25 1.93311
      vertex 8.25815 -4.25 2.34193
      vertex 5.78322 -4.25 2.34746
    endloop
  endfacet
  facet normal 0 -1 0
    outer loop
      vertex 5.81764 -4.25 1.93311
      vertex 8.22275 -4.25 1.924
      vertex 8.25815 -4.25 2.34193
    endloop
  endfacet
  facet normal 0 -1 0
    outer loop
      vertex 5.87502 -4.25 1.57343
      vertex 8.22275 -4.25 1.924
      vertex 5.81764 -4.25 1.93311
    endloop
  endfacet
  facet normal 0 -1 0
    outer loop
      vertex 5.87502 -4.25 1.57343
      vertex 8.16376 -4.25 1.5627
      vertex 8.22275 -4.25 1.924
    endloop
  endfacet
  facet normal 0 -1 0
    outer loop
      vertex 5.95534 -4.25 1.26843
      vertex 8.16376 -4.25 1.5627
      vertex 5.87502 -4.25 1.57343
    endloop
  endfacet
  facet normal 0 -1 0
    outer loop
      vertex 5.95534 -4.25 1.26843
      vertex 8.08118 -4.25 1.25804
      vertex 8.16376 -4.25 1.5627
    endloop
  endfacet
  facet normal 0 -1 0
    outer loop
      vertex 6.05861 -4.25 1.01813
      vertex 8.08118 -4.25 1.25804
      vertex 5.95534 -4.25 1.26843
    endloop
  endfacet
  facet normal 0 -1 0
    outer loop
      vertex 6.05861 -4.25 1.01813
      vertex 7.97499 -4.25 1.01003
      vertex 8.08118 -4.25 1.25804
    endloop
  endfacet
  facet normal 0 -1 0
    outer loop
      vertex 6.75582 -4.25 0.483032
      vertex 6.05861 -4.25 1.01813
      vertex 6.18823 -4.25 0.817474
    endloop
  endfacet
  facet normal 0 -1 0
    outer loop
      vertex 6.05861 -4.25 1.01813
      vertex 7.00456 -4.25 0.460739
      vertex 7.97499 -4.25 1.01003
    endloop
  endfacet
  facet normal 0 -1 0
    outer loop
      vertex 6.75582 -4.25 0.483032
      vertex 6.18823 -4.25 0.817474
      vertex 6.34766 -4.25 0.661392
    endloop
  endfacet
  facet normal -0 -1 0
    outer loop
      vertex 7.25951 -4.25 0.482712
      vertex 7.97499 -4.25 1.01003
      vertex 7.00456 -4.25 0.460739
    endloop
  endfacet
  facet normal 0 -1 0
    outer loop
      vertex 6.75582 -4.25 0.483032
      vertex 6.34766 -4.25 0.661392
      vertex 6.53685 -4.25 0.549911
    endloop
  endfacet
  facet normal 0 -1 0
    outer loop
      vertex 7.97499 -4.25 1.01003
      vertex 7.25951 -4.25 0.482712
      vertex 7.84177 -4.25 0.812286
    endloop
  endfacet
  facet normal 0 -1 0
    outer loop
      vertex 6.05861 -4.25 1.01813
      vertex 6.75582 -4.25 0.483032
      vertex 7.00456 -4.25 0.460739
    endloop
  endfacet
  facet normal 0 -1 0
    outer loop
      vertex 7.84177 -4.25 0.812286
      vertex 7.25951 -4.25 0.482712
      vertex 7.67812 -4.25 0.658478
    endloop
  endfacet
  facet normal 0 -1 0
    outer loop
      vertex 7.67812 -4.25 0.658478
      vertex 7.25951 -4.25 0.482712
      vertex 7.48403 -4.25 0.548615
    endloop
  endfacet
  facet normal -1 0 0
    outer loop
      vertex 9.55 -4.25 9.8502
      vertex 9.55 -3.75 12.3502
      vertex 9.55 -3.75 9.8502
    endloop
  endfacet
  facet normal -1 -0 0
    outer loop
      vertex 9.55 -3.75 12.3502
      vertex 9.55 -4.25 9.8502
      vertex 9.55 -4.25 12.3502
    endloop
  endfacet
  facet normal -0 0 1
    outer loop
      vertex 8.55 -3.75 9.8502
      vertex 9.55 -4.25 9.8502
      vertex 9.55 -3.75 9.8502
    endloop
  endfacet
  facet normal 0 0 1
    outer loop
      vertex 9.55 -4.25 9.8502
      vertex 8.55 -3.75 9.8502
      vertex 8.55 -4.25 9.8502
    endloop
  endfacet
  facet normal 1 -0 0
    outer loop
      vertex 8.55 -4.25 12.3502
      vertex 8.55 -3.75 9.8502
      vertex 8.55 -3.75 12.3502
    endloop
  endfacet
  facet normal 1 0 0
    outer loop
      vertex 8.55 -3.75 9.8502
      vertex 8.55 -4.25 12.3502
      vertex 8.55 -4.25 9.8502
    endloop
  endfacet
  facet normal 0 -1 0
    outer loop
      vertex 8.55 -3.75 9.8502
      vertex 9.55 -3.75 12.3502
      vertex 8.55 -3.75 12.3502
    endloop
  endfacet
  facet normal 0 -1 -0
    outer loop
      vertex 9.55 -3.75 12.3502
      vertex 8.55 -3.75 9.8502
      vertex 9.55 -3.75 9.8502
    endloop
  endfacet
  facet normal -0 0 1
    outer loop
      vertex -1 0 5.0402
      vertex 15.146 -2.25 5.0402
      vertex 15.146 0 5.0402
    endloop
  endfacet
  facet normal 0 0 1
    outer loop
      vertex 15.146 -2.25 5.0402
      vertex -1 0 5.0402
      vertex -1 -2.25 5.0402
    endloop
  endfacet
  facet normal 0 1 -0
    outer loop
      vertex 15.146 -2.25 5.0402
      vertex -1 -2.25 6.1402
      vertex 15.146 -2.25 6.1402
    endloop
  endfacet
  facet normal 0 1 0
    outer loop
      vertex -1 -2.25 6.1402
      vertex 15.146 -2.25 5.0402
      vertex -1 -2.25 5.0402
    endloop
  endfacet
  facet normal 0 1 -0
    outer loop
      vertex 15.146 -2.25 7.5402
      vertex -1 -2.25 12.3502
      vertex 15.146 -2.25 12.3502
    endloop
  endfacet
  facet normal 0 1 0
    outer loop
      vertex -1 -2.25 12.3502
      vertex 15.146 -2.25 7.5402
      vertex -1 -2.25 7.5402
    endloop
  endfacet
  facet normal 0 -1 0
    outer loop
      vertex 7.02899 -3.75 5.76636
      vertex 6.77593 -3.75 5.14516
      vertex 7.02089 -3.75 5.16827
    endloop
  endfacet
  facet normal 0 -1 0
    outer loop
      vertex 6.01615 -3.75 5.49391
      vertex 6.55864 -3.75 5.07584
      vertex 6.77593 -3.75 5.14516
    endloop
  endfacet
  facet normal 0 -1 0
    outer loop
      vertex 6.20709 -3.75 4.79852
      vertex 5.75568 -3.75 5.28201
      vertex 5.53378 -3.75 5.00957
    endloop
  endfacet
  facet normal 0 -1 0
    outer loop
      vertex 6.01615 -3.75 5.49391
      vertex 6.36904 -3.75 4.96028
      vertex 6.55864 -3.75 5.07584
    endloop
  endfacet
  facet normal 0 -1 0
    outer loop
      vertex 5.75568 -3.75 5.28201
      vertex 6.20709 -3.75 4.79852
      vertex 6.36904 -3.75 4.96028
    endloop
  endfacet
  facet normal 0 -1 0
    outer loop
      vertex 6.07283 -3.75 4.59053
      vertex 5.53378 -3.75 5.00957
      vertex 5.35141 -3.75 4.67969
    endloop
  endfacet
  facet normal 0 -1 0
    outer loop
      vertex 5.53378 -3.75 5.00957
      vertex 6.07283 -3.75 4.59053
      vertex 6.20709 -3.75 4.79852
    endloop
  endfacet
  facet normal 0 -1 0
    outer loop
      vertex 5.35141 -3.75 4.67969
      vertex 5.96443 -3.75 4.33467
      vertex 6.07283 -3.75 4.59053
    endloop
  endfacet
  facet normal 0 -1 0
    outer loop
      vertex 5.20958 -3.75 4.29543
      vertex 5.96443 -3.75 4.33467
      vertex 5.35141 -3.75 4.67969
    endloop
  endfacet
  facet normal 0 -1 0
    outer loop
      vertex 5.20958 -3.75 4.29543
      vertex 5.88013 -3.75 4.02934
      vertex 5.96443 -3.75 4.33467
    endloop
  endfacet
  facet normal 0 -1 0
    outer loop
      vertex 5.10826 -3.75 3.85681
      vertex 5.88013 -3.75 4.02934
      vertex 5.20958 -3.75 4.29543
    endloop
  endfacet
  facet normal 0 -1 0
    outer loop
      vertex 5.10826 -3.75 3.85681
      vertex 5.81992 -3.75 3.67455
      vertex 5.88013 -3.75 4.02934
    endloop
  endfacet
  facet normal 0 -1 0
    outer loop
      vertex 5.04747 -3.75 3.36385
      vertex 5.81992 -3.75 3.67455
      vertex 5.10826 -3.75 3.85681
    endloop
  endfacet
  facet normal 0 -1 0
    outer loop
      vertex 5.04747 -3.75 3.36385
      vertex 5.78378 -3.75 3.27026
      vertex 5.81992 -3.75 3.67455
    endloop
  endfacet
  facet normal 0 -1 0
    outer loop
      vertex 5.02721 -3.75 2.81651
      vertex 5.78378 -3.75 3.27026
      vertex 5.04747 -3.75 3.36385
    endloop
  endfacet
  facet normal 0 -1 0
    outer loop
      vertex 5.02721 -3.75 2.81651
      vertex 5.77175 -3.75 2.81651
      vertex 5.78378 -3.75 3.27026
    endloop
  endfacet
  facet normal 0 -1 0
    outer loop
      vertex 5.02721 -3.75 2.81651
      vertex 5.78322 -3.75 2.34746
      vertex 5.77175 -3.75 2.81651
    endloop
  endfacet
  facet normal 0 -1 0
    outer loop
      vertex 5.0465 -3.75 2.26088
      vertex 5.78322 -3.75 2.34746
      vertex 5.02721 -3.75 2.81651
    endloop
  endfacet
  facet normal 0 -1 0
    outer loop
      vertex 5.0465 -3.75 2.26088
      vertex 5.81764 -3.75 1.93311
      vertex 5.78322 -3.75 2.34746
    endloop
  endfacet
  facet normal 0 -1 0
    outer loop
      vertex 5.10436 -3.75 1.76254
      vertex 5.81764 -3.75 1.93311
      vertex 5.0465 -3.75 2.26088
    endloop
  endfacet
  facet normal 0 -1 0
    outer loop
      vertex 5.10436 -3.75 1.76254
      vertex 5.87502 -3.75 1.57343
      vertex 5.81764 -3.75 1.93311
    endloop
  endfacet
  facet normal 0 -1 0
    outer loop
      vertex 5.20078 -3.75 1.32149
      vertex 5.87502 -3.75 1.57343
      vertex 5.10436 -3.75 1.76254
    endloop
  endfacet
  facet normal 0 -1 0
    outer loop
      vertex 5.20078 -3.75 1.32149
      vertex 5.95534 -3.75 1.26843
      vertex 5.87502 -3.75 1.57343
    endloop
  endfacet
  facet normal 0 -1 0
    outer loop
      vertex 5.33579 -3.75 0.937729
      vertex 5.95534 -3.75 1.26843
      vertex 5.20078 -3.75 1.32149
    endloop
  endfacet
  facet normal 0 -1 -0
    outer loop
      vertex 5.95534 -3.75 1.26843
      vertex 5.33579 -3.75 0.937729
      vertex 6.05861 -3.75 1.01813
    endloop
  endfacet
  facet normal 0 -1 0
    outer loop
      vertex 5.50937 -3.75 0.611267
      vertex 6.05861 -3.75 1.01813
      vertex 5.33579 -3.75 0.937729
    endloop
  endfacet
  facet normal 0 -1 -0
    outer loop
      vertex 6.05861 -3.75 1.01813
      vertex 5.50937 -3.75 0.611267
      vertex 6.18823 -3.75 0.817474
    endloop
  endfacet
  facet normal 0 -1 0
    outer loop
      vertex 5.72345 -3.75 0.343216
      vertex 6.18823 -3.75 0.817474
      vertex 5.50937 -3.75 0.611267
    endloop
  endfacet
  facet normal 0 -1 -0
    outer loop
      vertex 6.18823 -3.75 0.817474
      vertex 5.72345 -3.75 0.343216
      vertex 6.34766 -3.75 0.661392
    endloop
  endfacet
  facet normal 0 -1 0
    outer loop
      vertex 5.98001 -3.75 0.134735
      vertex 6.34766 -3.75 0.661392
      vertex 5.72345 -3.75 0.343216
    endloop
  endfacet
  facet normal 0 -1 -0
    outer loop
      vertex 6.34766 -3.75 0.661392
      vertex 6.27904 -3.75 -0.0141754
      vertex 6.53685 -3.75 0.549911
    endloop
  endfacet
  facet normal 0 -1 0
    outer loop
      vertex 6.27904 -3.75 -0.0141754
      vertex 6.34766 -3.75 0.661392
      vertex 5.98001 -3.75 0.134735
    endloop
  endfacet
  facet normal 0 -1 0
    outer loop
      vertex 6.77593 -3.75 5.14516
      vertex 7.02899 -3.75 5.76636
      vertex 6.6528 -3.75 5.73608
    endloop
  endfacet
  facet normal 0 -1 0
    outer loop
      vertex 7.2672 -3.75 5.14565
      vertex 7.02899 -3.75 5.76636
      vertex 7.02089 -3.75 5.16827
    endloop
  endfacet
  facet normal 0 -1 0
    outer loop
      vertex 6.77593 -3.75 5.14516
      vertex 6.6528 -3.75 5.73608
      vertex 6.31519 -3.75 5.64526
    endloop
  endfacet
  facet normal 0 -1 0
    outer loop
      vertex 7.02899 -3.75 5.76636
      vertex 7.2672 -3.75 5.14565
      vertex 7.40477 -3.75 5.73625
    endloop
  endfacet
  facet normal 0 -1 0
    outer loop
      vertex 6.77593 -3.75 5.14516
      vertex 6.31519 -3.75 5.64526
      vertex 6.01615 -3.75 5.49391
    endloop
  endfacet
  facet normal 0 -1 0
    outer loop
      vertex 7.48535 -3.75 5.07779
      vertex 7.40477 -3.75 5.73625
      vertex 7.2672 -3.75 5.14565
    endloop
  endfacet
  facet normal 0 -1 0
    outer loop
      vertex 6.36904 -3.75 4.96028
      vertex 6.01615 -3.75 5.49391
      vertex 5.75568 -3.75 5.28201
    endloop
  endfacet
  facet normal 0 -1 0
    outer loop
      vertex 7.40477 -3.75 5.73625
      vertex 7.48535 -3.75 5.07779
      vertex 7.74118 -3.75 5.64592
    endloop
  endfacet
  facet normal 0 -1 0
    outer loop
      vertex 7.67537 -3.75 4.96468
      vertex 7.74118 -3.75 5.64592
      vertex 7.48535 -3.75 5.07779
    endloop
  endfacet
  facet normal 0 -1 -0
    outer loop
      vertex 7.74118 -3.75 5.64592
      vertex 7.67537 -3.75 4.96468
      vertex 8.03821 -3.75 5.49538
    endloop
  endfacet
  facet normal 0 -1 -0
    outer loop
      vertex 8.03821 -3.75 5.49538
      vertex 7.67537 -3.75 4.96468
      vertex 8.29584 -3.75 5.28462
    endloop
  endfacet
  facet normal 0 -1 0
    outer loop
      vertex 7.83722 -3.75 4.80632
      vertex 8.29584 -3.75 5.28462
      vertex 7.67537 -3.75 4.96468
    endloop
  endfacet
  facet normal 0 -1 -0
    outer loop
      vertex 8.29584 -3.75 5.28462
      vertex 7.83722 -3.75 4.80632
      vertex 8.51409 -3.75 5.01366
    endloop
  endfacet
  facet normal 0 -1 0
    outer loop
      vertex 7.9709 -3.75 4.60271
      vertex 8.51409 -3.75 5.01366
      vertex 7.83722 -3.75 4.80632
    endloop
  endfacet
  facet normal 0 -1 -0
    outer loop
      vertex 8.51409 -3.75 5.01366
      vertex 7.9709 -3.75 4.60271
      vertex 8.69278 -3.75 4.68491
    endloop
  endfacet
  facet normal 0 -1 0
    outer loop
      vertex 8.07857 -3.75 4.35028
      vertex 8.69278 -3.75 4.68491
      vertex 7.9709 -3.75 4.60271
    endloop
  endfacet
  facet normal 0 -1 0
    outer loop
      vertex 8.07857 -3.75 4.35028
      vertex 8.83177 -3.75 4.30081
      vertex 8.69278 -3.75 4.68491
    endloop
  endfacet
  facet normal 0 -1 0
    outer loop
      vertex 8.16229 -3.75 4.04546
      vertex 8.83177 -3.75 4.30081
      vertex 8.07857 -3.75 4.35028
    endloop
  endfacet
  facet normal 0 -1 0
    outer loop
      vertex 8.16229 -3.75 4.04546
      vertex 8.93105 -3.75 3.86139
      vertex 8.83177 -3.75 4.30081
    endloop
  endfacet
  facet normal 0 -1 0
    outer loop
      vertex 8.22211 -3.75 3.68822
      vertex 8.93105 -3.75 3.86139
      vertex 8.16229 -3.75 4.04546
    endloop
  endfacet
  facet normal 0 -1 0
    outer loop
      vertex 8.22211 -3.75 3.68822
      vertex 8.99062 -3.75 3.36662
      vertex 8.93105 -3.75 3.86139
    endloop
  endfacet
  facet normal 0 -1 0
    outer loop
      vertex 8.25798 -3.75 3.27856
      vertex 8.99062 -3.75 3.36662
      vertex 8.22211 -3.75 3.68822
    endloop
  endfacet
  facet normal 0 -1 0
    outer loop
      vertex 9.01047 -3.75 2.81651
      vertex 8.25798 -3.75 3.27856
      vertex 8.26995 -3.75 2.81651
    endloop
  endfacet
  facet normal 0 -1 0
    outer loop
      vertex 8.25798 -3.75 3.27856
      vertex 9.01047 -3.75 2.81651
      vertex 8.99062 -3.75 3.36662
    endloop
  endfacet
  facet normal 0 -1 0
    outer loop
      vertex 8.25815 -3.75 2.34193
      vertex 9.01047 -3.75 2.81651
      vertex 8.26995 -3.75 2.81651
    endloop
  endfacet
  facet normal 0 -1 0
    outer loop
      vertex 8.25815 -3.75 2.34193
      vertex 8.99118 -3.75 2.25536
      vertex 9.01047 -3.75 2.81651
    endloop
  endfacet
  facet normal 0 -1 0
    outer loop
      vertex 8.22275 -3.75 1.924
      vertex 8.99118 -3.75 2.25536
      vertex 8.25815 -3.75 2.34193
    endloop
  endfacet
  facet normal 0 -1 0
    outer loop
      vertex 8.22275 -3.75 1.924
      vertex 8.93332 -3.75 1.75343
      vertex 8.99118 -3.75 2.25536
    endloop
  endfacet
  facet normal 0 -1 0
    outer loop
      vertex 8.16376 -3.75 1.5627
      vertex 8.93332 -3.75 1.75343
      vertex 8.22275 -3.75 1.924
    endloop
  endfacet
  facet normal 0 -1 0
    outer loop
      vertex 8.16376 -3.75 1.5627
      vertex 8.8369 -3.75 1.31075
      vertex 8.93332 -3.75 1.75343
    endloop
  endfacet
  facet normal 0 -1 0
    outer loop
      vertex 8.08118 -3.75 1.25804
      vertex 8.8369 -3.75 1.31075
      vertex 8.16376 -3.75 1.5627
    endloop
  endfacet
  facet normal 0 -1 0
    outer loop
      vertex 8.70189 -3.75 0.927307
      vertex 8.08118 -3.75 1.25804
      vertex 7.97499 -3.75 1.01003
    endloop
  endfacet
  facet normal 0 -1 0
    outer loop
      vertex 8.08118 -3.75 1.25804
      vertex 8.70189 -3.75 0.927307
      vertex 8.8369 -3.75 1.31075
    endloop
  endfacet
  facet normal 0 -1 0
    outer loop
      vertex 8.52831 -3.75 0.603119
      vertex 7.97499 -3.75 1.01003
      vertex 7.84177 -3.75 0.812286
    endloop
  endfacet
  facet normal 0 -1 0
    outer loop
      vertex 8.31307 -3.75 0.337997
      vertex 7.84177 -3.75 0.812286
      vertex 7.67812 -3.75 0.658478
    endloop
  endfacet
  facet normal 0 -1 0
    outer loop
      vertex 7.97499 -3.75 1.01003
      vertex 8.52831 -3.75 0.603119
      vertex 8.70189 -3.75 0.927307
    endloop
  endfacet
  facet normal 0 -1 0
    outer loop
      vertex 7.74832 -3.75 -0.0154877
      vertex 7.67812 -3.75 0.658478
      vertex 7.48403 -3.75 0.548615
    endloop
  endfacet
  facet normal 0 -1 0
    outer loop
      vertex 7.39881 -3.75 -0.103851
      vertex 7.48403 -3.75 0.548615
      vertex 7.25951 -3.75 0.482712
    endloop
  endfacet
  facet normal 0 -1 0
    outer loop
      vertex 6.62056 -3.75 -0.103531
      vertex 6.53685 -3.75 0.549911
      vertex 6.27904 -3.75 -0.0141754
    endloop
  endfacet
  facet normal 0 -1 0
    outer loop
      vertex 7.84177 -3.75 0.812286
      vertex 8.31307 -3.75 0.337997
      vertex 8.52831 -3.75 0.603119
    endloop
  endfacet
  facet normal 0 -1 0
    outer loop
      vertex 6.53685 -3.75 0.549911
      vertex 6.62056 -3.75 -0.103531
      vertex 6.75582 -3.75 0.483032
    endloop
  endfacet
  facet normal 0 -1 0
    outer loop
      vertex 7.00456 -3.75 -0.133316
      vertex 6.75582 -3.75 0.483032
      vertex 6.62056 -3.75 -0.103531
    endloop
  endfacet
  facet normal -0 -1 0
    outer loop
      vertex 7.39881 -3.75 -0.103851
      vertex 7.25951 -3.75 0.482712
      vertex 7.00456 -3.75 -0.133316
    endloop
  endfacet
  facet normal 0 -1 0
    outer loop
      vertex 6.75582 -3.75 0.483032
      vertex 7.00456 -3.75 -0.133316
      vertex 7.00456 -3.75 0.460739
    endloop
  endfacet
  facet normal 0 -1 -0
    outer loop
      vertex 7.48403 -3.75 0.548615
      vertex 7.39881 -3.75 -0.103851
      vertex 7.74832 -3.75 -0.0154877
    endloop
  endfacet
  facet normal 0 -1 0
    outer loop
      vertex 7.00456 -3.75 0.460739
      vertex 7.00456 -3.75 -0.133316
      vertex 7.25951 -3.75 0.482712
    endloop
  endfacet
  facet normal 0 -1 0
    outer loop
      vertex 7.67812 -3.75 0.658478
      vertex 7.74832 -3.75 -0.0154877
      vertex 8.05307 -3.75 0.13179
    endloop
  endfacet
  facet normal 0 -1 0
    outer loop
      vertex 7.67812 -3.75 0.658478
      vertex 8.05307 -3.75 0.13179
      vertex 8.31307 -3.75 0.337997
    endloop
  endfacet
  facet normal 0.259773 0 -0.96567
    outer loop
      vertex 6.31519 -4.25 5.64526
      vertex 6.6528 -3.75 5.73608
      vertex 6.6528 -4.25 5.73608
    endloop
  endfacet
  facet normal 0.259773 0 -0.96567
    outer loop
      vertex 6.6528 -3.75 5.73608
      vertex 6.31519 -4.25 5.64526
      vertex 6.31519 -3.75 5.64526
    endloop
  endfacet
  facet normal 0.451576 0 -0.892232
    outer loop
      vertex 6.01615 -4.25 5.49391
      vertex 6.31519 -3.75 5.64526
      vertex 6.31519 -4.25 5.64526
    endloop
  endfacet
  facet normal 0.451576 0 -0.892232
    outer loop
      vertex 6.31519 -3.75 5.64526
      vertex 6.01615 -4.25 5.49391
      vertex 6.01615 -3.75 5.49391
    endloop
  endfacet
  facet normal 0.631073 0 -0.775723
    outer loop
      vertex 5.75568 -4.25 5.28201
      vertex 6.01615 -3.75 5.49391
      vertex 6.01615 -4.25 5.49391
    endloop
  endfacet
  facet normal 0.631073 0 -0.775723
    outer loop
      vertex 6.01615 -3.75 5.49391
      vertex 5.75568 -4.25 5.28201
      vertex 5.75568 -3.75 5.28201
    endloop
  endfacet
  facet normal 0.775358 0 -0.631522
    outer loop
      vertex 5.75568 -4.25 5.28201
      vertex 5.53378 -3.75 5.00957
      vertex 5.75568 -3.75 5.28201
    endloop
  endfacet
  facet normal 0.775358 0 -0.631522
    outer loop
      vertex 5.53378 -3.75 5.00957
      vertex 5.75568 -4.25 5.28201
      vertex 5.53378 -4.25 5.00957
    endloop
  endfacet
  facet normal 0.875165 0 -0.483824
    outer loop
      vertex 5.53378 -4.25 5.00957
      vertex 5.35141 -3.75 4.67969
      vertex 5.53378 -3.75 5.00957
    endloop
  endfacet
  facet normal 0.875165 0 -0.483824
    outer loop
      vertex 5.35141 -3.75 4.67969
      vertex 5.53378 -4.25 5.00957
      vertex 5.35141 -4.25 4.67969
    endloop
  endfacet
  facet normal 0.938137 0 -0.346265
    outer loop
      vertex 5.35141 -4.25 4.67969
      vertex 5.20958 -3.75 4.29543
      vertex 5.35141 -3.75 4.67969
    endloop
  endfacet
  facet normal 0.938137 0 -0.346265
    outer loop
      vertex 5.20958 -3.75 4.29543
      vertex 5.35141 -4.25 4.67969
      vertex 5.20958 -4.25 4.29543
    endloop
  endfacet
  facet normal 0.974343 0 -0.22507
    outer loop
      vertex 5.20958 -4.25 4.29543
      vertex 5.10826 -3.75 3.85681
      vertex 5.20958 -3.75 4.29543
    endloop
  endfacet
  facet normal 0.974343 0 -0.22507
    outer loop
      vertex 5.10826 -3.75 3.85681
      vertex 5.20958 -4.25 4.29543
      vertex 5.10826 -4.25 3.85681
    endloop
  endfacet
  facet normal 0.992482 0 -0.122389
    outer loop
      vertex 5.10826 -4.25 3.85681
      vertex 5.04747 -3.75 3.36385
      vertex 5.10826 -3.75 3.85681
    endloop
  endfacet
  facet normal 0.992482 0 -0.122389
    outer loop
      vertex 5.04747 -3.75 3.36385
      vertex 5.10826 -4.25 3.85681
      vertex 5.04747 -4.25 3.36385
    endloop
  endfacet
  facet normal 0.999316 0 -0.0369901
    outer loop
      vertex 5.04747 -4.25 3.36385
      vertex 5.02721 -3.75 2.81651
      vertex 5.04747 -3.75 3.36385
    endloop
  endfacet
  facet normal 0.999316 0 -0.0369901
    outer loop
      vertex 5.02721 -3.75 2.81651
      vertex 5.04747 -4.25 3.36385
      vertex 5.02721 -4.25 2.81651
    endloop
  endfacet
  facet normal 0.999398 -0 0.0346964
    outer loop
      vertex 5.02721 -4.25 2.81651
      vertex 5.0465 -3.75 2.26088
      vertex 5.02721 -3.75 2.81651
    endloop
  endfacet
  facet normal 0.999398 0 0.0346964
    outer loop
      vertex 5.0465 -3.75 2.26088
      vertex 5.02721 -4.25 2.81651
      vertex 5.0465 -4.25 2.26088
    endloop
  endfacet
  facet normal 0.993327 -0 0.115331
    outer loop
      vertex 5.0465 -4.25 2.26088
      vertex 5.10436 -3.75 1.76254
      vertex 5.0465 -3.75 2.26088
    endloop
  endfacet
  facet normal 0.993327 0 0.115331
    outer loop
      vertex 5.10436 -3.75 1.76254
      vertex 5.0465 -4.25 2.26088
      vertex 5.10436 -4.25 1.76254
    endloop
  endfacet
  facet normal 0.976928 -0 0.213571
    outer loop
      vertex 5.10436 -4.25 1.76254
      vertex 5.20078 -3.75 1.32149
      vertex 5.10436 -3.75 1.76254
    endloop
  endfacet
  facet normal 0.976928 0 0.213571
    outer loop
      vertex 5.20078 -3.75 1.32149
      vertex 5.10436 -4.25 1.76254
      vertex 5.20078 -4.25 1.32149
    endloop
  endfacet
  facet normal 0.943325 -0 0.331869
    outer loop
      vertex 5.20078 -4.25 1.32149
      vertex 5.33579 -3.75 0.937729
      vertex 5.20078 -3.75 1.32149
    endloop
  endfacet
  facet normal 0.943325 0 0.331869
    outer loop
      vertex 5.33579 -3.75 0.937729
      vertex 5.20078 -4.25 1.32149
      vertex 5.33579 -4.25 0.937729
    endloop
  endfacet
  facet normal 0.882951 -0 0.469465
    outer loop
      vertex 5.33579 -4.25 0.937729
      vertex 5.50937 -3.75 0.611267
      vertex 5.33579 -3.75 0.937729
    endloop
  endfacet
  facet normal 0.882951 0 0.469465
    outer loop
      vertex 5.50937 -3.75 0.611267
      vertex 5.33579 -4.25 0.937729
      vertex 5.50937 -4.25 0.611267
    endloop
  endfacet
  facet normal 0.781382 -0 0.624054
    outer loop
      vertex 5.50937 -4.25 0.611267
      vertex 5.72345 -3.75 0.343216
      vertex 5.50937 -3.75 0.611267
    endloop
  endfacet
  facet normal 0.781382 0 0.624054
    outer loop
      vertex 5.72345 -3.75 0.343216
      vertex 5.50937 -4.25 0.611267
      vertex 5.72345 -4.25 0.343216
    endloop
  endfacet
  facet normal 0.63064 0 0.776076
    outer loop
      vertex 5.72345 -3.75 0.343216
      vertex 5.98001 -4.25 0.134735
      vertex 5.98001 -3.75 0.134735
    endloop
  endfacet
  facet normal 0.63064 0 0.776076
    outer loop
      vertex 5.98001 -4.25 0.134735
      vertex 5.72345 -3.75 0.343216
      vertex 5.72345 -4.25 0.343216
    endloop
  endfacet
  facet normal 0.445765 0 0.89515
    outer loop
      vertex 5.98001 -3.75 0.134735
      vertex 6.27904 -4.25 -0.0141754
      vertex 6.27904 -3.75 -0.0141754
    endloop
  endfacet
  facet normal 0.445765 0 0.89515
    outer loop
      vertex 6.27904 -4.25 -0.0141754
      vertex 5.98001 -3.75 0.134735
      vertex 5.98001 -4.25 0.134735
    endloop
  endfacet
  facet normal 0.253121 0 0.967435
    outer loop
      vertex 6.27904 -3.75 -0.0141754
      vertex 6.62056 -4.25 -0.103531
      vertex 6.62056 -3.75 -0.103531
    endloop
  endfacet
  facet normal 0.253121 0 0.967435
    outer loop
      vertex 6.62056 -4.25 -0.103531
      vertex 6.27904 -3.75 -0.0141754
      vertex 6.27904 -4.25 -0.0141754
    endloop
  endfacet
  facet normal 0.0773328 0 0.997005
    outer loop
      vertex 6.62056 -3.75 -0.103531
      vertex 7.00456 -4.25 -0.133316
      vertex 7.00456 -3.75 -0.133316
    endloop
  endfacet
  facet normal 0.0773328 0 0.997005
    outer loop
      vertex 7.00456 -4.25 -0.133316
      vertex 6.62056 -3.75 -0.103531
      vertex 6.62056 -4.25 -0.103531
    endloop
  endfacet
  facet normal -0.074529 0 0.997219
    outer loop
      vertex 7.00456 -3.75 -0.133316
      vertex 7.39881 -4.25 -0.103851
      vertex 7.39881 -3.75 -0.103851
    endloop
  endfacet
  facet normal -0.074529 0 0.997219
    outer loop
      vertex 7.39881 -4.25 -0.103851
      vertex 7.00456 -3.75 -0.133316
      vertex 7.00456 -4.25 -0.133316
    endloop
  endfacet
  facet normal -0.245108 0 0.969496
    outer loop
      vertex 7.39881 -3.75 -0.103851
      vertex 7.74832 -4.25 -0.0154877
      vertex 7.74832 -3.75 -0.0154877
    endloop
  endfacet
  facet normal -0.245108 0 0.969496
    outer loop
      vertex 7.74832 -4.25 -0.0154877
      vertex 7.39881 -3.75 -0.103851
      vertex 7.39881 -4.25 -0.103851
    endloop
  endfacet
  facet normal -0.435125 0 0.90037
    outer loop
      vertex 7.74832 -3.75 -0.0154877
      vertex 8.05307 -4.25 0.13179
      vertex 8.05307 -3.75 0.13179
    endloop
  endfacet
  facet normal -0.435125 0 0.90037
    outer loop
      vertex 8.05307 -4.25 0.13179
      vertex 7.74832 -3.75 -0.0154877
      vertex 7.74832 -4.25 -0.0154877
    endloop
  endfacet
  facet normal -0.621395 0 0.783498
    outer loop
      vertex 8.05307 -3.75 0.13179
      vertex 8.31307 -4.25 0.337997
      vertex 8.31307 -3.75 0.337997
    endloop
  endfacet
  facet normal -0.621395 0 0.783498
    outer loop
      vertex 8.31307 -4.25 0.337997
      vertex 8.05307 -3.75 0.13179
      vertex 8.05307 -4.25 0.13179
    endloop
  endfacet
  facet normal -0.77636 0 0.63029
    outer loop
      vertex 8.31307 -4.25 0.337997
      vertex 8.52831 -3.75 0.603119
      vertex 8.31307 -3.75 0.337997
    endloop
  endfacet
  facet normal -0.77636 0 0.63029
    outer loop
      vertex 8.52831 -3.75 0.603119
      vertex 8.31307 -4.25 0.337997
      vertex 8.52831 -4.25 0.603119
    endloop
  endfacet
  facet normal -0.881584 0 0.472027
    outer loop
      vertex 8.52831 -4.25 0.603119
      vertex 8.70189 -3.75 0.927307
      vertex 8.52831 -3.75 0.603119
    endloop
  endfacet
  facet normal -0.881584 0 0.472027
    outer loop
      vertex 8.70189 -3.75 0.927307
      vertex 8.52831 -4.25 0.603119
      vertex 8.70189 -4.25 0.927307
    endloop
  endfacet
  facet normal -0.943239 0 0.332114
    outer loop
      vertex 8.70189 -4.25 0.927307
      vertex 8.8369 -3.75 1.31075
      vertex 8.70189 -3.75 0.927307
    endloop
  endfacet
  facet normal -0.943239 0 0.332114
    outer loop
      vertex 8.8369 -3.75 1.31075
      vertex 8.70189 -4.25 0.927307
      vertex 8.8369 -4.25 1.31075
    endloop
  endfacet
  facet normal -0.977091 0 0.21282
    outer loop
      vertex 8.8369 -4.25 1.31075
      vertex 8.93332 -3.75 1.75343
      vertex 8.8369 -3.75 1.31075
    endloop
  endfacet
  facet normal -0.977091 0 0.21282
    outer loop
      vertex 8.93332 -3.75 1.75343
      vertex 8.8369 -4.25 1.31075
      vertex 8.93332 -4.25 1.75343
    endloop
  endfacet
  facet normal -0.993421 0 0.114517
    outer loop
      vertex 8.93332 -4.25 1.75343
      vertex 8.99118 -3.75 2.25536
      vertex 8.93332 -3.75 1.75343
    endloop
  endfacet
  facet normal -0.993421 0 0.114517
    outer loop
      vertex 8.99118 -3.75 2.25536
      vertex 8.93332 -4.25 1.75343
      vertex 8.99118 -4.25 2.25536
    endloop
  endfacet
  facet normal -0.99941 0 0.0343555
    outer loop
      vertex 8.99118 -4.25 2.25536
      vertex 9.01047 -3.75 2.81651
      vertex 8.99118 -3.75 2.25536
    endloop
  endfacet
  facet normal -0.99941 0 0.0343555
    outer loop
      vertex 9.01047 -3.75 2.81651
      vertex 8.99118 -4.25 2.25536
      vertex 9.01047 -4.25 2.81651
    endloop
  endfacet
  facet normal -0.99935 0 -0.0360602
    outer loop
      vertex 9.01047 -4.25 2.81651
      vertex 8.99062 -3.75 3.36662
      vertex 9.01047 -3.75 2.81651
    endloop
  endfacet
  facet normal -0.99935 -0 -0.0360602
    outer loop
      vertex 8.99062 -3.75 3.36662
      vertex 9.01047 -4.25 2.81651
      vertex 8.99062 -4.25 3.36662
    endloop
  endfacet
  facet normal -0.99283 0 -0.119536
    outer loop
      vertex 8.99062 -4.25 3.36662
      vertex 8.93105 -3.75 3.86139
      vertex 8.99062 -3.75 3.36662
    endloop
  endfacet
  facet normal -0.99283 -0 -0.119536
    outer loop
      vertex 8.93105 -3.75 3.86139
      vertex 8.99062 -4.25 3.36662
      vertex 8.93105 -4.25 3.86139
    endloop
  endfacet
  facet normal -0.975414 0 -0.220379
    outer loop
      vertex 8.93105 -4.25 3.86139
      vertex 8.83177 -3.75 4.30081
      vertex 8.93105 -3.75 3.86139
    endloop
  endfacet
  facet normal -0.975414 -0 -0.220379
    outer loop
      vertex 8.83177 -3.75 4.30081
      vertex 8.93105 -4.25 3.86139
      vertex 8.83177 -4.25 4.30081
    endloop
  endfacet
  facet normal -0.940329 0 -0.340266
    outer loop
      vertex 8.83177 -4.25 4.30081
      vertex 8.69278 -3.75 4.68491
      vertex 8.83177 -3.75 4.30081
    endloop
  endfacet
  facet normal -0.940329 -0 -0.340266
    outer loop
      vertex 8.69278 -3.75 4.68491
      vertex 8.83177 -4.25 4.30081
      vertex 8.69278 -4.25 4.68491
    endloop
  endfacet
  facet normal -0.8786 0 -0.477558
    outer loop
      vertex 8.69278 -4.25 4.68491
      vertex 8.51409 -3.75 5.01366
      vertex 8.69278 -3.75 4.68491
    endloop
  endfacet
  facet normal -0.8786 -0 -0.477558
    outer loop
      vertex 8.51409 -3.75 5.01366
      vertex 8.69278 -4.25 4.68491
      vertex 8.51409 -4.25 5.01366
    endloop
  endfacet
  facet normal -0.778787 0 -0.627289
    outer loop
      vertex 8.51409 -4.25 5.01366
      vertex 8.29584 -3.75 5.28462
      vertex 8.51409 -3.75 5.01366
    endloop
  endfacet
  facet normal -0.778787 -0 -0.627289
    outer loop
      vertex 8.29584 -3.75 5.28462
      vertex 8.51409 -4.25 5.01366
      vertex 8.29584 -4.25 5.28462
    endloop
  endfacet
  facet normal -0.633187 0 -0.773999
    outer loop
      vertex 8.03821 -4.25 5.49538
      vertex 8.29584 -3.75 5.28462
      vertex 8.29584 -4.25 5.28462
    endloop
  endfacet
  facet normal -0.633187 0 -0.773999
    outer loop
      vertex 8.29584 -3.75 5.28462
      vertex 8.03821 -4.25 5.49538
      vertex 8.03821 -3.75 5.49538
    endloop
  endfacet
  facet normal -0.452072 0 -0.891982
    outer loop
      vertex 7.74118 -4.25 5.64592
      vertex 8.03821 -3.75 5.49538
      vertex 8.03821 -4.25 5.49538
    endloop
  endfacet
  facet normal -0.452072 0 -0.891982
    outer loop
      vertex 8.03821 -3.75 5.49538
      vertex 7.74118 -4.25 5.64592
      vertex 7.74118 -3.75 5.64592
    endloop
  endfacet
  facet normal -0.259326 0 -0.96579
    outer loop
      vertex 7.40477 -4.25 5.73625
      vertex 7.74118 -3.75 5.64592
      vertex 7.74118 -4.25 5.64592
    endloop
  endfacet
  facet normal -0.259326 0 -0.96579
    outer loop
      vertex 7.74118 -3.75 5.64592
      vertex 7.40477 -4.25 5.73625
      vertex 7.40477 -3.75 5.73625
    endloop
  endfacet
  facet normal -0.0798707 0 -0.996805
    outer loop
      vertex 7.02899 -4.25 5.76636
      vertex 7.40477 -3.75 5.73625
      vertex 7.40477 -4.25 5.73625
    endloop
  endfacet
  facet normal -0.0798707 0 -0.996805
    outer loop
      vertex 7.40477 -3.75 5.73625
      vertex 7.02899 -4.25 5.76636
      vertex 7.02899 -3.75 5.76636
    endloop
  endfacet
  facet normal 0.0802318 0 -0.996776
    outer loop
      vertex 6.6528 -4.25 5.73608
      vertex 7.02899 -3.75 5.76636
      vertex 7.02899 -4.25 5.76636
    endloop
  endfacet
  facet normal 0.0802318 0 -0.996776
    outer loop
      vertex 7.02899 -3.75 5.76636
      vertex 6.6528 -4.25 5.73608
      vertex 6.6528 -3.75 5.73608
    endloop
  endfacet
  facet normal 0.297031 0 0.954868
    outer loop
      vertex 7.2672 -3.75 5.14565
      vertex 7.48535 -4.25 5.07779
      vertex 7.48535 -3.75 5.07779
    endloop
  endfacet
  facet normal 0.297031 0 0.954868
    outer loop
      vertex 7.48535 -4.25 5.07779
      vertex 7.2672 -3.75 5.14565
      vertex 7.2672 -4.25 5.14565
    endloop
  endfacet
  facet normal 0.511493 0 0.859287
    outer loop
      vertex 7.48535 -3.75 5.07779
      vertex 7.67537 -4.25 4.96468
      vertex 7.67537 -3.75 4.96468
    endloop
  endfacet
  facet normal 0.511493 0 0.859287
    outer loop
      vertex 7.67537 -4.25 4.96468
      vertex 7.48535 -3.75 5.07779
      vertex 7.48535 -4.25 5.07779
    endloop
  endfacet
  facet normal 0.699358 0 0.714771
    outer loop
      vertex 7.67537 -3.75 4.96468
      vertex 7.83722 -4.25 4.80632
      vertex 7.83722 -3.75 4.80632
    endloop
  endfacet
  facet normal 0.699358 0 0.714771
    outer loop
      vertex 7.83722 -4.25 4.80632
      vertex 7.67537 -3.75 4.96468
      vertex 7.67537 -4.25 4.96468
    endloop
  endfacet
  facet normal 0.835933 -0 0.548831
    outer loop
      vertex 7.83722 -4.25 4.80632
      vertex 7.9709 -3.75 4.60271
      vertex 7.83722 -3.75 4.80632
    endloop
  endfacet
  facet normal 0.835933 0 0.548831
    outer loop
      vertex 7.9709 -3.75 4.60271
      vertex 7.83722 -4.25 4.80632
      vertex 7.9709 -4.25 4.60271
    endloop
  endfacet
  facet normal 0.919822 -0 0.392336
    outer loop
      vertex 7.9709 -4.25 4.60271
      vertex 8.07857 -3.75 4.35028
      vertex 7.9709 -3.75 4.60271
    endloop
  endfacet
  facet normal 0.919822 0 0.392336
    outer loop
      vertex 8.07857 -3.75 4.35028
      vertex 7.9709 -4.25 4.60271
      vertex 8.07857 -4.25 4.35028
    endloop
  endfacet
  facet normal 0.964291 -0 0.264846
    outer loop
      vertex 8.07857 -4.25 4.35028
      vertex 8.16229 -3.75 4.04546
      vertex 8.07857 -3.75 4.35028
    endloop
  endfacet
  facet normal 0.964291 0 0.264846
    outer loop
      vertex 8.16229 -3.75 4.04546
      vertex 8.07857 -4.25 4.35028
      vertex 8.16229 -4.25 4.04546
    endloop
  endfacet
  facet normal 0.986268 -0 0.165151
    outer loop
      vertex 8.16229 -4.25 4.04546
      vertex 8.22211 -3.75 3.68822
      vertex 8.16229 -3.75 4.04546
    endloop
  endfacet
  facet normal 0.986268 0 0.165151
    outer loop
      vertex 8.22211 -3.75 3.68822
      vertex 8.16229 -4.25 4.04546
      vertex 8.22211 -4.25 3.68822
    endloop
  endfacet
  facet normal 0.996188 -0 0.0872267
    outer loop
      vertex 8.22211 -4.25 3.68822
      vertex 8.25798 -3.75 3.27856
      vertex 8.22211 -3.75 3.68822
    endloop
  endfacet
  facet normal 0.996188 0 0.0872267
    outer loop
      vertex 8.25798 -3.75 3.27856
      vertex 8.22211 -4.25 3.68822
      vertex 8.25798 -4.25 3.27856
    endloop
  endfacet
  facet normal 0.999665 -0 0.0258976
    outer loop
      vertex 8.25798 -4.25 3.27856
      vertex 8.26995 -3.75 2.81651
      vertex 8.25798 -3.75 3.27856
    endloop
  endfacet
  facet normal 0.999665 0 0.0258976
    outer loop
      vertex 8.26995 -3.75 2.81651
      vertex 8.25798 -4.25 3.27856
      vertex 8.26995 -4.25 2.81651
    endloop
  endfacet
  facet normal 0.999691 0 -0.0248564
    outer loop
      vertex 8.26995 -4.25 2.81651
      vertex 8.25815 -3.75 2.34193
      vertex 8.26995 -3.75 2.81651
    endloop
  endfacet
  facet normal 0.999691 0 -0.0248564
    outer loop
      vertex 8.25815 -3.75 2.34193
      vertex 8.26995 -4.25 2.81651
      vertex 8.25815 -4.25 2.34193
    endloop
  endfacet
  facet normal 0.996432 0 -0.0844009
    outer loop
      vertex 8.25815 -4.25 2.34193
      vertex 8.22275 -3.75 1.924
      vertex 8.25815 -3.75 2.34193
    endloop
  endfacet
  facet normal 0.996432 0 -0.0844009
    outer loop
      vertex 8.22275 -3.75 1.924
      vertex 8.25815 -4.25 2.34193
      vertex 8.22275 -4.25 1.924
    endloop
  endfacet
  facet normal 0.986932 0 -0.161138
    outer loop
      vertex 8.22275 -4.25 1.924
      vertex 8.16376 -3.75 1.5627
      vertex 8.22275 -3.75 1.924
    endloop
  endfacet
  facet normal 0.986932 0 -0.161138
    outer loop
      vertex 8.16376 -3.75 1.5627
      vertex 8.22275 -4.25 1.924
      vertex 8.16376 -4.25 1.5627
    endloop
  endfacet
  facet normal 0.965172 0 -0.261616
    outer loop
      vertex 8.16376 -4.25 1.5627
      vertex 8.08118 -3.75 1.25804
      vertex 8.16376 -3.75 1.5627
    endloop
  endfacet
  facet normal 0.965172 0 -0.261616
    outer loop
      vertex 8.08118 -3.75 1.25804
      vertex 8.16376 -4.25 1.5627
      vertex 8.08118 -4.25 1.25804
    endloop
  endfacet
  facet normal 0.919279 0 -0.393606
    outer loop
      vertex 8.08118 -4.25 1.25804
      vertex 7.97499 -3.75 1.01003
      vertex 8.08118 -3.75 1.25804
    endloop
  endfacet
  facet normal 0.919279 0 -0.393606
    outer loop
      vertex 7.97499 -3.75 1.01003
      vertex 8.08118 -4.25 1.25804
      vertex 7.97499 -4.25 1.01003
    endloop
  endfacet
  facet normal 0.829349 0 -0.558732
    outer loop
      vertex 7.97499 -4.25 1.01003
      vertex 7.84177 -3.75 0.812286
      vertex 7.97499 -3.75 1.01003
    endloop
  endfacet
  facet normal 0.829349 0 -0.558732
    outer loop
      vertex 7.84177 -3.75 0.812286
      vertex 7.97499 -4.25 1.01003
      vertex 7.84177 -4.25 0.812286
    endloop
  endfacet
  facet normal 0.684856 0 -0.728679
    outer loop
      vertex 7.67812 -4.25 0.658478
      vertex 7.84177 -3.75 0.812286
      vertex 7.84177 -4.25 0.812286
    endloop
  endfacet
  facet normal 0.684856 0 -0.728679
    outer loop
      vertex 7.84177 -3.75 0.812286
      vertex 7.67812 -4.25 0.658478
      vertex 7.67812 -3.75 0.658478
    endloop
  endfacet
  facet normal 0.492601 0 -0.870255
    outer loop
      vertex 7.48403 -4.25 0.548615
      vertex 7.67812 -3.75 0.658478
      vertex 7.67812 -4.25 0.658478
    endloop
  endfacet
  facet normal 0.492601 0 -0.870255
    outer loop
      vertex 7.67812 -3.75 0.658478
      vertex 7.48403 -4.25 0.548615
      vertex 7.48403 -3.75 0.548615
    endloop
  endfacet
  facet normal 0.281646 0 -0.959518
    outer loop
      vertex 7.25951 -4.25 0.482712
      vertex 7.48403 -3.75 0.548615
      vertex 7.48403 -4.25 0.548615
    endloop
  endfacet
  facet normal 0.281646 0 -0.959518
    outer loop
      vertex 7.48403 -3.75 0.548615
      vertex 7.25951 -4.25 0.482712
      vertex 7.25951 -3.75 0.482712
    endloop
  endfacet
  facet normal 0.0858672 0 -0.996307
    outer loop
      vertex 7.00456 -4.25 0.460739
      vertex 7.25951 -3.75 0.482712
      vertex 7.25951 -4.25 0.482712
    endloop
  endfacet
  facet normal 0.0858672 0 -0.996307
    outer loop
      vertex 7.25951 -3.75 0.482712
      vertex 7.00456 -4.25 0.460739
      vertex 7.00456 -3.75 0.460739
    endloop
  endfacet
  facet normal -0.0892659 0 -0.996008
    outer loop
      vertex 6.75582 -4.25 0.483032
      vertex 7.00456 -3.75 0.460739
      vertex 7.00456 -4.25 0.460739
    endloop
  endfacet
  facet normal -0.0892659 0 -0.996008
    outer loop
      vertex 7.00456 -3.75 0.460739
      vertex 6.75582 -4.25 0.483032
      vertex 6.75582 -3.75 0.483032
    endloop
  endfacet
  facet normal -0.292105 0 -0.956386
    outer loop
      vertex 6.53685 -4.25 0.549911
      vertex 6.75582 -3.75 0.483032
      vertex 6.75582 -4.25 0.483032
    endloop
  endfacet
  facet normal -0.292105 0 -0.956386
    outer loop
      vertex 6.75582 -3.75 0.483032
      vertex 6.53685 -4.25 0.549911
      vertex 6.53685 -3.75 0.549911
    endloop
  endfacet
  facet normal -0.507672 0 -0.86155
    outer loop
      vertex 6.34766 -4.25 0.661392
      vertex 6.53685 -3.75 0.549911
      vertex 6.53685 -4.25 0.549911
    endloop
  endfacet
  facet normal -0.507672 0 -0.86155
    outer loop
      vertex 6.53685 -3.75 0.549911
      vertex 6.34766 -4.25 0.661392
      vertex 6.34766 -3.75 0.661392
    endloop
  endfacet
  facet normal -0.699564 0 -0.71457
    outer loop
      vertex 6.18823 -4.25 0.817474
      vertex 6.34766 -3.75 0.661392
      vertex 6.34766 -4.25 0.661392
    endloop
  endfacet
  facet normal -0.699564 0 -0.71457
    outer loop
      vertex 6.34766 -3.75 0.661392
      vertex 6.18823 -4.25 0.817474
      vertex 6.18823 -3.75 0.817474
    endloop
  endfacet
  facet normal -0.839983 0 -0.542613
    outer loop
      vertex 6.18823 -4.25 0.817474
      vertex 6.05861 -3.75 1.01813
      vertex 6.18823 -3.75 0.817474
    endloop
  endfacet
  facet normal -0.839983 -0 -0.542613
    outer loop
      vertex 6.05861 -3.75 1.01813
      vertex 6.18823 -4.25 0.817474
      vertex 6.05861 -4.25 1.01813
    endloop
  endfacet
  facet normal -0.924411 0 -0.381398
    outer loop
      vertex 6.05861 -4.25 1.01813
      vertex 5.95534 -3.75 1.26843
      vertex 6.05861 -3.75 1.01813
    endloop
  endfacet
  facet normal -0.924411 -0 -0.381398
    outer loop
      vertex 5.95534 -3.75 1.26843
      vertex 6.05861 -4.25 1.01813
      vertex 5.95534 -4.25 1.26843
    endloop
  endfacet
  facet normal -0.96703 0 -0.254662
    outer loop
      vertex 5.95534 -4.25 1.26843
      vertex 5.87502 -3.75 1.57343
      vertex 5.95534 -3.75 1.26843
    endloop
  endfacet
  facet normal -0.96703 -0 -0.254662
    outer loop
      vertex 5.87502 -3.75 1.57343
      vertex 5.95534 -4.25 1.26843
      vertex 5.87502 -4.25 1.57343
    endloop
  endfacet
  facet normal -0.987513 0 -0.157539
    outer loop
      vertex 5.87502 -4.25 1.57343
      vertex 5.81764 -3.75 1.93311
      vertex 5.87502 -3.75 1.57343
    endloop
  endfacet
  facet normal -0.987513 -0 -0.157539
    outer loop
      vertex 5.81764 -3.75 1.93311
      vertex 5.87502 -4.25 1.57343
      vertex 5.81764 -4.25 1.93311
    endloop
  endfacet
  facet normal -0.996567 0 -0.0827847
    outer loop
      vertex 5.81764 -4.25 1.93311
      vertex 5.78322 -3.75 2.34746
      vertex 5.81764 -3.75 1.93311
    endloop
  endfacet
  facet normal -0.996567 -0 -0.0827847
    outer loop
      vertex 5.78322 -3.75 2.34746
      vertex 5.81764 -4.25 1.93311
      vertex 5.78322 -4.25 2.34746
    endloop
  endfacet
  facet normal -0.999701 0 -0.0244464
    outer loop
      vertex 5.78322 -4.25 2.34746
      vertex 5.77175 -3.75 2.81651
      vertex 5.78322 -3.75 2.34746
    endloop
  endfacet
  facet normal -0.999701 -0 -0.0244464
    outer loop
      vertex 5.77175 -3.75 2.81651
      vertex 5.78322 -4.25 2.34746
      vertex 5.77175 -4.25 2.81651
    endloop
  endfacet
  facet normal -0.999649 0 0.0265031
    outer loop
      vertex 5.77175 -4.25 2.81651
      vertex 5.78378 -3.75 3.27026
      vertex 5.77175 -3.75 2.81651
    endloop
  endfacet
  facet normal -0.999649 0 0.0265031
    outer loop
      vertex 5.78378 -3.75 3.27026
      vertex 5.77175 -4.25 2.81651
      vertex 5.78378 -4.25 3.27026
    endloop
  endfacet
  facet normal -0.996028 0 0.0890363
    outer loop
      vertex 5.78378 -4.25 3.27026
      vertex 5.81992 -3.75 3.67455
      vertex 5.78378 -3.75 3.27026
    endloop
  endfacet
  facet normal -0.996028 0 0.0890363
    outer loop
      vertex 5.81992 -3.75 3.67455
      vertex 5.78378 -4.25 3.27026
      vertex 5.81992 -4.25 3.67455
    endloop
  endfacet
  facet normal -0.985904 0 0.167314
    outer loop
      vertex 5.81992 -4.25 3.67455
      vertex 5.88013 -3.75 4.02934
      vertex 5.81992 -3.75 3.67455
    endloop
  endfacet
  facet normal -0.985904 0 0.167314
    outer loop
      vertex 5.88013 -3.75 4.02934
      vertex 5.81992 -4.25 3.67455
      vertex 5.88013 -4.25 4.02934
    endloop
  endfacet
  facet normal -0.963935 0 0.266137
    outer loop
      vertex 5.88013 -4.25 4.02934
      vertex 5.96443 -3.75 4.33467
      vertex 5.88013 -3.75 4.02934
    endloop
  endfacet
  facet normal -0.963935 0 0.266137
    outer loop
      vertex 5.96443 -3.75 4.33467
      vertex 5.88013 -4.25 4.02934
      vertex 5.96443 -4.25 4.33467
    endloop
  endfacet
  facet normal -0.920771 0 0.390102
    outer loop
      vertex 5.96443 -4.25 4.33467
      vertex 6.07283 -3.75 4.59053
      vertex 5.96443 -3.75 4.33467
    endloop
  endfacet
  facet normal -0.920771 0 0.390102
    outer loop
      vertex 6.07283 -3.75 4.59053
      vertex 5.96443 -4.25 4.33467
      vertex 6.07283 -4.25 4.59053
    endloop
  endfacet
  facet normal -0.840162 0 0.542335
    outer loop
      vertex 6.07283 -4.25 4.59053
      vertex 6.20709 -3.75 4.79852
      vertex 6.07283 -3.75 4.59053
    endloop
  endfacet
  facet normal -0.840162 0 0.542335
    outer loop
      vertex 6.20709 -3.75 4.79852
      vertex 6.07283 -4.25 4.59053
      vertex 6.20709 -4.25 4.79852
    endloop
  endfacet
  facet normal -0.706692 0 0.707522
    outer loop
      vertex 6.20709 -3.75 4.79852
      vertex 6.36904 -4.25 4.96028
      vertex 6.36904 -3.75 4.96028
    endloop
  endfacet
  facet normal -0.706692 0 0.707522
    outer loop
      vertex 6.36904 -4.25 4.96028
      vertex 6.20709 -3.75 4.79852
      vertex 6.20709 -4.25 4.79852
    endloop
  endfacet
  facet normal -0.520444 0 0.853896
    outer loop
      vertex 6.36904 -3.75 4.96028
      vertex 6.55864 -4.25 5.07584
      vertex 6.55864 -3.75 5.07584
    endloop
  endfacet
  facet normal -0.520444 0 0.853896
    outer loop
      vertex 6.55864 -4.25 5.07584
      vertex 6.36904 -3.75 4.96028
      vertex 6.36904 -4.25 4.96028
    endloop
  endfacet
  facet normal -0.303929 0 0.952695
    outer loop
      vertex 6.55864 -3.75 5.07584
      vertex 6.77593 -4.25 5.14516
      vertex 6.77593 -3.75 5.14516
    endloop
  endfacet
  facet normal -0.303929 0 0.952695
    outer loop
      vertex 6.77593 -4.25 5.14516
      vertex 6.55864 -3.75 5.07584
      vertex 6.55864 -4.25 5.07584
    endloop
  endfacet
  facet normal -0.0939249 0 0.995579
    outer loop
      vertex 6.77593 -3.75 5.14516
      vertex 7.02089 -4.25 5.16827
      vertex 7.02089 -3.75 5.16827
    endloop
  endfacet
  facet normal -0.0939249 0 0.995579
    outer loop
      vertex 7.02089 -4.25 5.16827
      vertex 6.77593 -3.75 5.14516
      vertex 6.77593 -4.25 5.14516
    endloop
  endfacet
  facet normal 0.0914507 0 0.99581
    outer loop
      vertex 7.02089 -3.75 5.16827
      vertex 7.2672 -4.25 5.14565
      vertex 7.2672 -3.75 5.14565
    endloop
  endfacet
  facet normal 0.0914507 0 0.99581
    outer loop
      vertex 7.2672 -4.25 5.14565
      vertex 7.02089 -3.75 5.16827
      vertex 7.02089 -4.25 5.16827
    endloop
  endfacet
  facet normal 0 0.993726 -0.111845
    outer loop
      vertex 15.146 -1.46537 6.70364
      vertex -1 -1.45 6.8402
      vertex 15.146 -1.45 6.8402
    endloop
  endfacet
  facet normal 0 0.993726 -0.111845
    outer loop
      vertex -1 -1.45 6.8402
      vertex 15.146 -1.46537 6.70364
      vertex -1 -1.46537 6.70364
    endloop
  endfacet
  facet normal 0 0.7294 -0.684087
    outer loop
      vertex 15.146 -1.68431 6.34522
      vertex -1 -1.58482 6.4513
      vertex 15.146 -1.58482 6.4513
    endloop
  endfacet
  facet normal 0 0.7294 -0.684087
    outer loop
      vertex -1 -1.58482 6.4513
      vertex 15.146 -1.68431 6.34522
      vertex -1 -1.68431 6.34522
    endloop
  endfacet
  facet normal 0 0.944823 -0.32758
    outer loop
      vertex 15.146 -1.5109 6.57232
      vertex -1 -1.46537 6.70364
      vertex 15.146 -1.46537 6.70364
    endloop
  endfacet
  facet normal 0 0.944823 -0.32758
    outer loop
      vertex -1 -1.46537 6.70364
      vertex 15.146 -1.5109 6.57232
      vertex -1 -1.5109 6.57232
    endloop
  endfacet
  facet normal 0 0.256512 -0.966541
    outer loop
      vertex -1 -2.09393 6.15365
      vertex 15.146 -1.94385 6.19348
      vertex 15.146 -2.09393 6.15365
    endloop
  endfacet
  facet normal 0 0.256512 -0.966541
    outer loop
      vertex 15.146 -1.94385 6.19348
      vertex -1 -2.09393 6.15365
      vertex -1 -1.94385 6.19348
    endloop
  endfacet
  facet normal 0 0.853397 -0.521262
    outer loop
      vertex 15.146 -1.58482 6.4513
      vertex -1 -1.5109 6.57232
      vertex 15.146 -1.5109 6.57232
    endloop
  endfacet
  facet normal 0 0.853397 -0.521262
    outer loop
      vertex -1 -1.5109 6.57232
      vertex 15.146 -1.58482 6.4513
      vertex -1 -1.58482 6.4513
    endloop
  endfacet
  facet normal 0 0.085861 -0.996307
    outer loop
      vertex -1 -2.25 6.1402
      vertex 15.146 -2.09393 6.15365
      vertex 15.146 -2.25 6.1402
    endloop
  endfacet
  facet normal 0 0.085861 -0.996307
    outer loop
      vertex 15.146 -2.09393 6.15365
      vertex -1 -2.25 6.1402
      vertex -1 -2.09393 6.15365
    endloop
  endfacet
  facet normal 0 0.423667 -0.905818
    outer loop
      vertex -1 -1.94385 6.19348
      vertex 15.146 -1.80554 6.25817
      vertex 15.146 -1.94385 6.19348
    endloop
  endfacet
  facet normal 0 0.423667 -0.905818
    outer loop
      vertex 15.146 -1.80554 6.25817
      vertex -1 -1.94385 6.19348
      vertex -1 -1.80554 6.25817
    endloop
  endfacet
  facet normal 0 0.583265 -0.812282
    outer loop
      vertex -1 -1.80554 6.25817
      vertex 15.146 -1.68431 6.34522
      vertex 15.146 -1.80554 6.25817
    endloop
  endfacet
  facet normal 0 0.583265 -0.812282
    outer loop
      vertex 15.146 -1.68431 6.34522
      vertex -1 -1.80554 6.25817
      vertex -1 -1.68431 6.34522
    endloop
  endfacet
  facet normal -0 0.583309 0.81225
    outer loop
      vertex -1 -1.68431 7.33517
      vertex 15.146 -1.80554 7.42223
      vertex 15.146 -1.68431 7.33517
    endloop
  endfacet
  facet normal 0 0.583309 0.81225
    outer loop
      vertex 15.146 -1.80554 7.42223
      vertex -1 -1.68431 7.33517
      vertex -1 -1.80554 7.42223
    endloop
  endfacet
  facet normal 0 0.993726 0.111845
    outer loop
      vertex 15.146 -1.45 6.8402
      vertex -1 -1.46537 6.97676
      vertex 15.146 -1.46537 6.97676
    endloop
  endfacet
  facet normal 0 0.993726 0.111845
    outer loop
      vertex -1 -1.46537 6.97676
      vertex 15.146 -1.45 6.8402
      vertex -1 -1.45 6.8402
    endloop
  endfacet
  facet normal 0 0.944823 0.32758
    outer loop
      vertex 15.146 -1.46537 6.97676
      vertex -1 -1.5109 7.10808
      vertex 15.146 -1.5109 7.10808
    endloop
  endfacet
  facet normal 0 0.944823 0.32758
    outer loop
      vertex -1 -1.5109 7.10808
      vertex 15.146 -1.46537 6.97676
      vertex -1 -1.46537 6.97676
    endloop
  endfacet
  facet normal 0 0.853397 0.521262
    outer loop
      vertex 15.146 -1.5109 7.10808
      vertex -1 -1.58482 7.2291
      vertex 15.146 -1.58482 7.2291
    endloop
  endfacet
  facet normal 0 0.853397 0.521262
    outer loop
      vertex -1 -1.58482 7.2291
      vertex 15.146 -1.5109 7.10808
      vertex -1 -1.5109 7.10808
    endloop
  endfacet
  facet normal -0 0.423667 0.905818
    outer loop
      vertex -1 -1.80554 7.42223
      vertex 15.146 -1.94385 7.48692
      vertex 15.146 -1.80554 7.42223
    endloop
  endfacet
  facet normal 0 0.423667 0.905818
    outer loop
      vertex 15.146 -1.94385 7.48692
      vertex -1 -1.80554 7.42223
      vertex -1 -1.94385 7.48692
    endloop
  endfacet
  facet normal 0 0.729368 0.684122
    outer loop
      vertex 15.146 -1.58482 7.2291
      vertex -1 -1.68431 7.33517
      vertex 15.146 -1.68431 7.33517
    endloop
  endfacet
  facet normal 0 0.729368 0.684122
    outer loop
      vertex -1 -1.68431 7.33517
      vertex 15.146 -1.58482 7.2291
      vertex -1 -1.58482 7.2291
    endloop
  endfacet
  facet normal -0 0.256512 0.966541
    outer loop
      vertex -1 -1.94385 7.48692
      vertex 15.146 -2.09393 7.52675
      vertex 15.146 -1.94385 7.48692
    endloop
  endfacet
  facet normal 0 0.256512 0.966541
    outer loop
      vertex 15.146 -2.09393 7.52675
      vertex -1 -1.94385 7.48692
      vertex -1 -2.09393 7.52675
    endloop
  endfacet
  facet normal -0 0.085861 0.996307
    outer loop
      vertex -1 -2.09393 7.52675
      vertex 15.146 -2.25 7.5402
      vertex 15.146 -2.09393 7.52675
    endloop
  endfacet
  facet normal 0 0.085861 0.996307
    outer loop
      vertex 15.146 -2.25 7.5402
      vertex -1 -2.09393 7.52675
      vertex -1 -2.25 7.5402
    endloop
  endfacet
endsolid OpenSCAD_Model
