solid OpenSCAD_Model
  facet normal 1 0 0
    outer loop
      vertex 19.1 0 10.7
      vertex 19.1 0.799999 10.7
      vertex 19.1 0.784628 10.8561
    endloop
  endfacet
  facet normal 1 0 0
    outer loop
      vertex 19.1 0.245195 6.74397
      vertex 19.1 5.8 9.5
      vertex 19.1 0.799999 9.5
    endloop
  endfacet
  facet normal 1 0 0
    outer loop
      vertex 19.1 0 10.7
      vertex 19.1 0.784628 10.8561
      vertex 19.1 0.739103 11.0061
    endloop
  endfacet
  facet normal 1 0 0
    outer loop
      vertex 19.1 0 10.7
      vertex 19.1 0.739103 11.0061
      vertex 19.1 0.665175 11.1445
    endloop
  endfacet
  facet normal 1 0 0
    outer loop
      vertex 19.1 0 10.7
      vertex 19.1 0.665175 11.1445
      vertex 19.1 0.565685 11.2657
    endloop
  endfacet
  facet normal 1 0 0
    outer loop
      vertex 19.1 0 10.7
      vertex 19.1 0.565685 11.2657
      vertex 19.1 0.444456 11.3652
    endloop
  endfacet
  facet normal 1 0 0
    outer loop
      vertex 19.1 0 10.7
      vertex 19.1 0.444456 11.3652
      vertex 19.1 0.306147 11.4391
    endloop
  endfacet
  facet normal 1 0 0
    outer loop
      vertex 19.1 0.799999 10.7
      vertex 19.1 0 10.7
      vertex 19.1 0.799999 9.5
    endloop
  endfacet
  facet normal 1 0 0
    outer loop
      vertex 19.1 0.245195 6.64643
      vertex 19.1 5.8 9.5
      vertex 19.1 0.25 6.6952
    endloop
  endfacet
  facet normal 1 0 0
    outer loop
      vertex 19.1 0.230969 6.59953
      vertex 19.1 5.8 9.5
      vertex 19.1 0.245195 6.64643
    endloop
  endfacet
  facet normal 1 0 0
    outer loop
      vertex 19.1 0.207867 6.55631
      vertex 19.1 5.8 9.5
      vertex 19.1 0.230969 6.59953
    endloop
  endfacet
  facet normal 1 0 0
    outer loop
      vertex 19.1 5.8 9.5
      vertex 19.1 0.207867 6.55631
      vertex 19.1 5.8 -2
    endloop
  endfacet
  facet normal 1 -0 0
    outer loop
      vertex 19.1 0.176776 6.51842
      vertex 19.1 5.8 -2
      vertex 19.1 0.207867 6.55631
    endloop
  endfacet
  facet normal 1 -0 0
    outer loop
      vertex 19.1 0.138892 6.48733
      vertex 19.1 5.8 -2
      vertex 19.1 0.176776 6.51842
    endloop
  endfacet
  facet normal 1 0 0
    outer loop
      vertex 19.1 0 -2
      vertex 19.1 0.138892 6.48733
      vertex 19.1 0.0956707 6.46423
    endloop
  endfacet
  facet normal 1 0 0
    outer loop
      vertex 19.1 0 -2
      vertex 19.1 0.0956707 6.46423
      vertex 19.1 0.0487719 6.45
    endloop
  endfacet
  facet normal 1 0 0
    outer loop
      vertex 19.1 0 -2
      vertex 19.1 0.0487719 6.45
      vertex 19.1 0 6.4452
    endloop
  endfacet
  facet normal 1 0 0
    outer loop
      vertex 19.1 0.138892 6.48733
      vertex 19.1 0 -2
      vertex 19.1 5.8 -2
    endloop
  endfacet
  facet normal 1 0 0
    outer loop
      vertex 19.1 5.8 9.5
      vertex 19.1 0.245195 6.74397
      vertex 19.1 0.25 6.6952
    endloop
  endfacet
  facet normal 1 0 0
    outer loop
      vertex 19.1 0.799999 9.5
      vertex 19.1 0.230969 6.79087
      vertex 19.1 0.245195 6.74397
    endloop
  endfacet
  facet normal 1 0 0
    outer loop
      vertex 19.1 0 6.9452
      vertex 19.1 0.799999 9.5
      vertex 19.1 0 10.7
    endloop
  endfacet
  facet normal 1 0 0
    outer loop
      vertex 19.1 0.799999 9.5
      vertex 19.1 0.207867 6.83409
      vertex 19.1 0.230969 6.79087
    endloop
  endfacet
  facet normal 1 0 0
    outer loop
      vertex 19.1 0 10.7
      vertex 19.1 0.306147 11.4391
      vertex 19.1 0.156072 11.4846
    endloop
  endfacet
  facet normal 1 0 0
    outer loop
      vertex 19.1 0.799999 9.5
      vertex 19.1 0.176776 6.87198
      vertex 19.1 0.207867 6.83409
    endloop
  endfacet
  facet normal 1 0 0
    outer loop
      vertex 19.1 0.799999 9.5
      vertex 19.1 0.138892 6.90307
      vertex 19.1 0.176776 6.87198
    endloop
  endfacet
  facet normal 1 0 0
    outer loop
      vertex 19.1 0.799999 9.5
      vertex 19.1 0.0956707 6.92617
      vertex 19.1 0.138892 6.90307
    endloop
  endfacet
  facet normal 1 0 0
    outer loop
      vertex 19.1 0 10.7
      vertex 19.1 0.156072 11.4846
      vertex 19.1 0 11.5
    endloop
  endfacet
  facet normal 1 0 0
    outer loop
      vertex 19.1 0.799999 9.5
      vertex 19.1 0.0487719 6.9404
      vertex 19.1 0.0956707 6.92617
    endloop
  endfacet
  facet normal 1 0 0
    outer loop
      vertex 19.1 0.799999 9.5
      vertex 19.1 0 6.9452
      vertex 19.1 0.0487719 6.9404
    endloop
  endfacet
  facet normal -0 0 1
    outer loop
      vertex -1 5.8 9.5
      vertex 0 0.799999 9.5
      vertex 0 5.8 9.5
    endloop
  endfacet
  facet normal 0 0 1
    outer loop
      vertex 0 0.799999 9.5
      vertex -1 5.8 9.5
      vertex -1 0.799999 9.5
    endloop
  endfacet
  facet normal -0 0 1
    outer loop
      vertex 18.1 5.8 9.5
      vertex 19.1 0.799999 9.5
      vertex 19.1 5.8 9.5
    endloop
  endfacet
  facet normal 0 0 1
    outer loop
      vertex 19.1 0.799999 9.5
      vertex 18.1 5.8 9.5
      vertex 18.1 0.799999 9.5
    endloop
  endfacet
  facet normal 0 0 -1
    outer loop
      vertex 15.146 -4.25 -2
      vertex -1 -4.25 -2
      vertex 15.146 0 -2
    endloop
  endfacet
  facet normal 0 0 -1
    outer loop
      vertex 15.146 0 -2
      vertex 19.1 5.8 -2
      vertex 19.1 0 -2
    endloop
  endfacet
  facet normal 0 0 -1
    outer loop
      vertex -1 5.8 -2
      vertex 15.146 0 -2
      vertex -1 -4.25 -2
    endloop
  endfacet
  facet normal 0 0 -1
    outer loop
      vertex 15.146 0 -2
      vertex -1 5.8 -2
      vertex 19.1 5.8 -2
    endloop
  endfacet
  facet normal -1 0 0
    outer loop
      vertex -1 0 6.9452
      vertex -1 5.8 9.5
      vertex -1 5.8 -2
    endloop
  endfacet
  facet normal -1 0 0
    outer loop
      vertex -1 0 10.7
      vertex -1 0.799999 10.7
      vertex -1 0.799999 9.5
    endloop
  endfacet
  facet normal -1 0 0
    outer loop
      vertex -1 0.799999 10.7
      vertex -1 0 10.7
      vertex -1 0.784628 10.8561
    endloop
  endfacet
  facet normal -1 -0 0
    outer loop
      vertex -1 0.784628 10.8561
      vertex -1 0 10.7
      vertex -1 0.739103 11.0061
    endloop
  endfacet
  facet normal -1 -0 0
    outer loop
      vertex -1 0.739103 11.0061
      vertex -1 0 10.7
      vertex -1 0.665175 11.1445
    endloop
  endfacet
  facet normal -1 -0 0
    outer loop
      vertex -1 0.665175 11.1445
      vertex -1 0 10.7
      vertex -1 0.565685 11.2657
    endloop
  endfacet
  facet normal -1 -0 0
    outer loop
      vertex -1 0.565685 11.2657
      vertex -1 0 10.7
      vertex -1 0.444456 11.3652
    endloop
  endfacet
  facet normal -1 -0 0
    outer loop
      vertex -1 0.444456 11.3652
      vertex -1 0 10.7
      vertex -1 0.306147 11.4391
    endloop
  endfacet
  facet normal -1 0 0
    outer loop
      vertex -1 0 10.7
      vertex -1 0.799999 9.5
      vertex -1 0 6.9452
    endloop
  endfacet
  facet normal -1 -0 0
    outer loop
      vertex -1 5.8 9.5
      vertex -1 0 6.9452
      vertex -1 0.799999 9.5
    endloop
  endfacet
  facet normal -1 0 0
    outer loop
      vertex -1 -4.25 -2
      vertex -1 0 6.9452
      vertex -1 5.8 -2
    endloop
  endfacet
  facet normal -1 0 0
    outer loop
      vertex -1 -4.25 12.3502
      vertex -1 -2.25 8.0452
      vertex -1 -2.25 6.9452
    endloop
  endfacet
  facet normal -1 0 0
    outer loop
      vertex -1 -2.25 8.0452
      vertex -1 -4.25 12.3502
      vertex -1 -2.25 9.4452
    endloop
  endfacet
  facet normal -1 -0 0
    outer loop
      vertex -1 0 6.9452
      vertex -1 -4.25 -2
      vertex -1 -2.25 6.9452
    endloop
  endfacet
  facet normal -1 0 0
    outer loop
      vertex -1 -4.25 12.3502
      vertex -1 -2.25 6.9452
      vertex -1 -4.25 -2
    endloop
  endfacet
  facet normal -1 0 0
    outer loop
      vertex -1 -2.25 9.4452
      vertex -1 -4.25 12.3502
      vertex -1 -2.25 12.3502
    endloop
  endfacet
  facet normal -1 -0 0
    outer loop
      vertex -1 0.306147 11.4391
      vertex -1 0 10.7
      vertex -1 0.156072 11.4846
    endloop
  endfacet
  facet normal -1 0 0
    outer loop
      vertex -1 0 11.5
      vertex -1 0.156072 11.4846
      vertex -1 0 10.7
    endloop
  endfacet
  facet normal -1 0 0
    outer loop
      vertex -1 -1.46537 8.60864
      vertex -1 -1.46537 8.88176
      vertex -1 -1.45 8.7452
    endloop
  endfacet
  facet normal -1 0 0
    outer loop
      vertex -1 -1.5109 8.47732
      vertex -1 -1.46537 8.88176
      vertex -1 -1.46537 8.60864
    endloop
  endfacet
  facet normal -1 0 0
    outer loop
      vertex -1 -1.5109 8.47732
      vertex -1 -1.5109 9.01308
      vertex -1 -1.46537 8.88176
    endloop
  endfacet
  facet normal -1 0 0
    outer loop
      vertex -1 -1.58482 8.3563
      vertex -1 -1.5109 9.01308
      vertex -1 -1.5109 8.47732
    endloop
  endfacet
  facet normal -1 0 0
    outer loop
      vertex -1 -1.58482 8.3563
      vertex -1 -1.58482 9.1341
      vertex -1 -1.5109 9.01308
    endloop
  endfacet
  facet normal -1 0 0
    outer loop
      vertex -1 -1.68431 8.25023
      vertex -1 -1.58482 9.1341
      vertex -1 -1.58482 8.3563
    endloop
  endfacet
  facet normal -1 0 0
    outer loop
      vertex -1 -1.68431 8.25023
      vertex -1 -1.68431 9.24017
      vertex -1 -1.58482 9.1341
    endloop
  endfacet
  facet normal -1 0 0
    outer loop
      vertex -1 -1.80554 8.16317
      vertex -1 -1.68431 9.24017
      vertex -1 -1.68431 8.25023
    endloop
  endfacet
  facet normal -1 0 0
    outer loop
      vertex -1 -1.80554 8.16317
      vertex -1 -1.80554 9.32723
      vertex -1 -1.68431 9.24017
    endloop
  endfacet
  facet normal -1 0 0
    outer loop
      vertex -1 -1.94385 8.09848
      vertex -1 -1.80554 9.32723
      vertex -1 -1.80554 8.16317
    endloop
  endfacet
  facet normal -1 0 0
    outer loop
      vertex -1 -1.94385 8.09848
      vertex -1 -1.94385 9.39192
      vertex -1 -1.80554 9.32723
    endloop
  endfacet
  facet normal -1 0 0
    outer loop
      vertex -1 -2.09393 8.05865
      vertex -1 -1.94385 9.39192
      vertex -1 -1.94385 8.09848
    endloop
  endfacet
  facet normal -1 0 0
    outer loop
      vertex -1 -2.09393 8.05865
      vertex -1 -2.09393 9.43175
      vertex -1 -1.94385 9.39192
    endloop
  endfacet
  facet normal -1 0 0
    outer loop
      vertex -1 -2.25 8.0452
      vertex -1 -2.09393 9.43175
      vertex -1 -2.09393 8.05865
    endloop
  endfacet
  facet normal -1 -0 0
    outer loop
      vertex -1 -2.09393 9.43175
      vertex -1 -2.25 8.0452
      vertex -1 -2.25 9.4452
    endloop
  endfacet
  facet normal 0 1 0
    outer loop
      vertex 19.1 5.8 9.5
      vertex 18.1 5.8 0
      vertex 18.1 5.8 9.5
    endloop
  endfacet
  facet normal 0 1 0
    outer loop
      vertex 18.1 5.8 0
      vertex 19.1 5.8 -2
      vertex 0 5.8 0
    endloop
  endfacet
  facet normal 0 1 -0
    outer loop
      vertex 19.1 5.8 -2
      vertex 18.1 5.8 0
      vertex 19.1 5.8 9.5
    endloop
  endfacet
  facet normal 0 1 -0
    outer loop
      vertex 0 5.8 0
      vertex -1 5.8 9.5
      vertex 0 5.8 9.5
    endloop
  endfacet
  facet normal 0 1 0
    outer loop
      vertex 0 5.8 0
      vertex -1 5.8 -2
      vertex -1 5.8 9.5
    endloop
  endfacet
  facet normal 0 1 0
    outer loop
      vertex -1 5.8 -2
      vertex 0 5.8 0
      vertex 19.1 5.8 -2
    endloop
  endfacet
  facet normal 0 -1 0
    outer loop
      vertex 15.146 0 -2
      vertex 19.1 0 6.4452
      vertex 15.146 0 6.4452
    endloop
  endfacet
  facet normal 0 -1 -0
    outer loop
      vertex 19.1 0 6.4452
      vertex 15.146 0 -2
      vertex 19.1 0 -2
    endloop
  endfacet
  facet normal 0 -1 0
    outer loop
      vertex 15.146 0 6.9452
      vertex -1 0 10.7
      vertex -1 0 6.9452
    endloop
  endfacet
  facet normal 0 -1 0
    outer loop
      vertex -1 0 10.7
      vertex 15.146 0 6.9452
      vertex 19.1 0 10.7
    endloop
  endfacet
  facet normal 0 -1 -0
    outer loop
      vertex 19.1 0 10.7
      vertex 15.146 0 6.9452
      vertex 19.1 0 6.9452
    endloop
  endfacet
  facet normal -0 0 0
    outer loop
      vertex 15.146 0 6.4452
      vertex 15.146 0 6.9452
      vertex 15.146 0 -2
    endloop
  endfacet
  facet normal -1 0 0
    outer loop
      vertex 18.1 0.799999 0
      vertex 18.1 5.8 9.5
      vertex 18.1 5.8 0
    endloop
  endfacet
  facet normal -1 -0 0
    outer loop
      vertex 18.1 5.8 9.5
      vertex 18.1 0.799999 0
      vertex 18.1 0.799999 9.5
    endloop
  endfacet
  facet normal -0 0 1
    outer loop
      vertex 0 5.8 0
      vertex 18.1 0.799999 0
      vertex 18.1 5.8 0
    endloop
  endfacet
  facet normal 0 0 1
    outer loop
      vertex 18.1 0.799999 0
      vertex 0 5.8 0
      vertex 0 0.799999 0
    endloop
  endfacet
  facet normal 1 -0 0
    outer loop
      vertex 0 0.799999 9.5
      vertex 0 5.8 0
      vertex 0 5.8 9.5
    endloop
  endfacet
  facet normal 1 0 0
    outer loop
      vertex 0 5.8 0
      vertex 0 0.799999 9.5
      vertex 0 0.799999 0
    endloop
  endfacet
  facet normal 0 1 -0
    outer loop
      vertex 18.1 0.799999 0
      vertex 0 0.799999 9.5
      vertex 18.1 0.799999 9.5
    endloop
  endfacet
  facet normal 0 1 0
    outer loop
      vertex 0 0.799999 9.5
      vertex 18.1 0.799999 0
      vertex 0 0.799999 0
    endloop
  endfacet
  facet normal -0 0 1
    outer loop
      vertex -1 0 11.5
      vertex 19.1 -9.68247e-06 11.5
      vertex 19.1 0 11.5
    endloop
  endfacet
  facet normal 0 0 1
    outer loop
      vertex 19.1 -9.68247e-06 11.5
      vertex -1 0 11.5
      vertex -1 -9.68247e-06 11.5
    endloop
  endfacet
  facet normal 0 0.772936 0.634484
    outer loop
      vertex 19.1 0.665175 11.1445
      vertex -1 0.565685 11.2657
      vertex 19.1 0.565685 11.2657
    endloop
  endfacet
  facet normal 0 0.772936 0.634484
    outer loop
      vertex -1 0.565685 11.2657
      vertex 19.1 0.665175 11.1445
      vertex -1 0.665175 11.1445
    endloop
  endfacet
  facet normal 0 0.882049 0.471157
    outer loop
      vertex 19.1 0.739103 11.0061
      vertex -1 0.665175 11.1445
      vertex 19.1 0.665175 11.1445
    endloop
  endfacet
  facet normal 0 0.882049 0.471157
    outer loop
      vertex -1 0.665175 11.1445
      vertex 19.1 0.739103 11.0061
      vertex -1 0.739103 11.0061
    endloop
  endfacet
  facet normal -0 0.0981955 0.995167
    outer loop
      vertex -1 0.156072 11.4846
      vertex 19.1 0 11.5
      vertex 19.1 0.156072 11.4846
    endloop
  endfacet
  facet normal 0 0.0981955 0.995167
    outer loop
      vertex 19.1 0 11.5
      vertex -1 0.156072 11.4846
      vertex -1 0 11.5
    endloop
  endfacet
  facet normal -0 0.471259 0.881995
    outer loop
      vertex -1 0.444456 11.3652
      vertex 19.1 0.306147 11.4391
      vertex 19.1 0.444456 11.3652
    endloop
  endfacet
  facet normal 0 0.471259 0.881995
    outer loop
      vertex 19.1 0.306147 11.4391
      vertex -1 0.444456 11.3652
      vertex -1 0.306147 11.4391
    endloop
  endfacet
  facet normal 0 0.9569 0.290419
    outer loop
      vertex 19.1 0.784628 10.8561
      vertex -1 0.739103 11.0061
      vertex 19.1 0.739103 11.0061
    endloop
  endfacet
  facet normal 0 0.9569 0.290419
    outer loop
      vertex -1 0.739103 11.0061
      vertex 19.1 0.784628 10.8561
      vertex -1 0.784628 10.8561
    endloop
  endfacet
  facet normal -0 0.634431 0.772979
    outer loop
      vertex -1 0.565685 11.2657
      vertex 19.1 0.444456 11.3652
      vertex 19.1 0.565685 11.2657
    endloop
  endfacet
  facet normal 0 0.634431 0.772979
    outer loop
      vertex 19.1 0.444456 11.3652
      vertex -1 0.565685 11.2657
      vertex -1 0.444456 11.3652
    endloop
  endfacet
  facet normal -0 0.29014 0.956984
    outer loop
      vertex -1 0.306147 11.4391
      vertex 19.1 0.156072 11.4846
      vertex 19.1 0.306147 11.4391
    endloop
  endfacet
  facet normal 0 0.29014 0.956984
    outer loop
      vertex 19.1 0.156072 11.4846
      vertex -1 0.306147 11.4391
      vertex -1 0.156072 11.4846
    endloop
  endfacet
  facet normal 0 0.995187 0.097995
    outer loop
      vertex 19.1 0.799999 10.7
      vertex -1 0.784628 10.8561
      vertex 19.1 0.784628 10.8561
    endloop
  endfacet
  facet normal 0 0.995187 0.097995
    outer loop
      vertex -1 0.784628 10.8561
      vertex 19.1 0.799999 10.7
      vertex -1 0.799999 10.7
    endloop
  endfacet
  facet normal 0 0 -1
    outer loop
      vertex -1 -9.68247e-06 11.5
      vertex 19.1 0 11.5
      vertex 19.1 -9.68247e-06 11.5
    endloop
  endfacet
  facet normal -0 0 -1
    outer loop
      vertex 19.1 0 11.5
      vertex -1 -9.68247e-06 11.5
      vertex -1 0 11.5
    endloop
  endfacet
  facet normal 0 -1 0
    outer loop
      vertex -1 0 10.7
      vertex 19.1 0 11.5
      vertex -1 0 11.5
    endloop
  endfacet
  facet normal 0 -1 -0
    outer loop
      vertex 19.1 0 11.5
      vertex -1 0 10.7
      vertex 19.1 0 10.7
    endloop
  endfacet
  facet normal 0 1 0
    outer loop
      vertex 18.1 0.799999 9.5
      vertex 19.1 0.799999 10.7
      vertex 19.1 0.799999 9.5
    endloop
  endfacet
  facet normal 0 1 0
    outer loop
      vertex 19.1 0.799999 10.7
      vertex 18.1 0.799999 9.5
      vertex -1 0.799999 10.7
    endloop
  endfacet
  facet normal 0 1 -0
    outer loop
      vertex 0 0.799999 9.5
      vertex -1 0.799999 10.7
      vertex 18.1 0.799999 9.5
    endloop
  endfacet
  facet normal 0 1 0
    outer loop
      vertex -1 0.799999 10.7
      vertex 0 0.799999 9.5
      vertex -1 0.799999 9.5
    endloop
  endfacet
  facet normal 0 -0.634386 -0.773016
    outer loop
      vertex 15.146 0.138892 6.90307
      vertex 19.1 0.176776 6.87198
      vertex 19.1 0.138892 6.90307
    endloop
  endfacet
  facet normal -0 -0.634386 -0.773016
    outer loop
      vertex 19.1 0.176776 6.87198
      vertex 15.146 0.138892 6.90307
      vertex 15.146 0.176776 6.87198
    endloop
  endfacet
  facet normal 0 -0.471361 0.88194
    outer loop
      vertex 15.146 0.138892 6.48733
      vertex 19.1 0.0956707 6.46423
      vertex 19.1 0.138892 6.48733
    endloop
  endfacet
  facet normal 0 -0.471361 0.88194
    outer loop
      vertex 19.1 0.0956707 6.46423
      vertex 15.146 0.138892 6.48733
      vertex 15.146 0.0956707 6.46423
    endloop
  endfacet
  facet normal 0 -0.0979441 0.995192
    outer loop
      vertex 15.146 0.0487719 6.45
      vertex 19.1 0 6.4452
      vertex 19.1 0.0487719 6.45
    endloop
  endfacet
  facet normal 0 -0.0979441 0.995192
    outer loop
      vertex 19.1 0 6.4452
      vertex 15.146 0.0487719 6.45
      vertex 15.146 0 6.4452
    endloop
  endfacet
  facet normal 0 -0.956946 -0.290267
    outer loop
      vertex 15.146 0.245195 6.74397
      vertex 19.1 0.230969 6.79087
      vertex 15.146 0.230969 6.79087
    endloop
  endfacet
  facet normal 0 -0.956946 -0.290267
    outer loop
      vertex 19.1 0.230969 6.79087
      vertex 15.146 0.245195 6.74397
      vertex 19.1 0.245195 6.74397
    endloop
  endfacet
  facet normal 0 -0.290348 0.956921
    outer loop
      vertex 15.146 0.0956707 6.46423
      vertex 19.1 0.0487719 6.45
      vertex 19.1 0.0956707 6.46423
    endloop
  endfacet
  facet normal 0 -0.290348 0.956921
    outer loop
      vertex 19.1 0.0487719 6.45
      vertex 15.146 0.0956707 6.46423
      vertex 15.146 0.0487719 6.45
    endloop
  endfacet
  facet normal 0 -0.956946 0.290267
    outer loop
      vertex 15.146 0.230969 6.59953
      vertex 19.1 0.245195 6.64643
      vertex 15.146 0.245195 6.64643
    endloop
  endfacet
  facet normal 0 -0.956946 0.290267
    outer loop
      vertex 19.1 0.245195 6.64643
      vertex 15.146 0.230969 6.59953
      vertex 19.1 0.230969 6.59953
    endloop
  endfacet
  facet normal 0 -0.0979441 -0.995192
    outer loop
      vertex 15.146 0 6.9452
      vertex 19.1 0.0487719 6.9404
      vertex 19.1 0 6.9452
    endloop
  endfacet
  facet normal -0 -0.0979441 -0.995192
    outer loop
      vertex 19.1 0.0487719 6.9404
      vertex 15.146 0 6.9452
      vertex 15.146 0.0487719 6.9404
    endloop
  endfacet
  facet normal 0 -0.995182 0.098049
    outer loop
      vertex 15.146 0.245195 6.64643
      vertex 19.1 0.25 6.6952
      vertex 15.146 0.25 6.6952
    endloop
  endfacet
  facet normal 0 -0.995182 0.098049
    outer loop
      vertex 19.1 0.25 6.6952
      vertex 15.146 0.245195 6.64643
      vertex 19.1 0.245195 6.64643
    endloop
  endfacet
  facet normal 0 -0.995182 -0.098049
    outer loop
      vertex 15.146 0.25 6.6952
      vertex 19.1 0.245195 6.74397
      vertex 15.146 0.245195 6.74397
    endloop
  endfacet
  facet normal 0 -0.995182 -0.098049
    outer loop
      vertex 19.1 0.245195 6.74397
      vertex 15.146 0.25 6.6952
      vertex 19.1 0.25 6.6952
    endloop
  endfacet
  facet normal 0 -0.773056 0.634338
    outer loop
      vertex 15.146 0.176776 6.51842
      vertex 19.1 0.207867 6.55631
      vertex 15.146 0.207867 6.55631
    endloop
  endfacet
  facet normal 0 -0.773056 0.634338
    outer loop
      vertex 19.1 0.207867 6.55631
      vertex 15.146 0.176776 6.51842
      vertex 19.1 0.176776 6.51842
    endloop
  endfacet
  facet normal 0 -0.634386 0.773016
    outer loop
      vertex 15.146 0.176776 6.51842
      vertex 19.1 0.138892 6.48733
      vertex 19.1 0.176776 6.51842
    endloop
  endfacet
  facet normal 0 -0.634386 0.773016
    outer loop
      vertex 19.1 0.138892 6.48733
      vertex 15.146 0.176776 6.51842
      vertex 15.146 0.138892 6.48733
    endloop
  endfacet
  facet normal 0 -0.881918 0.471404
    outer loop
      vertex 15.146 0.207867 6.55631
      vertex 19.1 0.230969 6.59953
      vertex 15.146 0.230969 6.59953
    endloop
  endfacet
  facet normal 0 -0.881918 0.471404
    outer loop
      vertex 19.1 0.230969 6.59953
      vertex 15.146 0.207867 6.55631
      vertex 19.1 0.207867 6.55631
    endloop
  endfacet
  facet normal 0 -0.773056 -0.634338
    outer loop
      vertex 15.146 0.207867 6.83409
      vertex 19.1 0.176776 6.87198
      vertex 15.146 0.176776 6.87198
    endloop
  endfacet
  facet normal 0 -0.773056 -0.634338
    outer loop
      vertex 19.1 0.176776 6.87198
      vertex 15.146 0.207867 6.83409
      vertex 19.1 0.207867 6.83409
    endloop
  endfacet
  facet normal 0 -0.881918 -0.471404
    outer loop
      vertex 15.146 0.230969 6.79087
      vertex 19.1 0.207867 6.83409
      vertex 15.146 0.207867 6.83409
    endloop
  endfacet
  facet normal 0 -0.881918 -0.471404
    outer loop
      vertex 19.1 0.207867 6.83409
      vertex 15.146 0.230969 6.79087
      vertex 19.1 0.230969 6.79087
    endloop
  endfacet
  facet normal 1 0 0
    outer loop
      vertex 15.146 0.245195 6.74397
      vertex 15.146 0.245195 6.64643
      vertex 15.146 0.25 6.6952
    endloop
  endfacet
  facet normal 1 0 0
    outer loop
      vertex 15.146 0.230969 6.79087
      vertex 15.146 0.245195 6.64643
      vertex 15.146 0.245195 6.74397
    endloop
  endfacet
  facet normal 1 0 0
    outer loop
      vertex 15.146 0.230969 6.79087
      vertex 15.146 0.230969 6.59953
      vertex 15.146 0.245195 6.64643
    endloop
  endfacet
  facet normal 1 0 0
    outer loop
      vertex 15.146 0.207867 6.83409
      vertex 15.146 0.230969 6.59953
      vertex 15.146 0.230969 6.79087
    endloop
  endfacet
  facet normal 1 0 0
    outer loop
      vertex 15.146 0.207867 6.83409
      vertex 15.146 0.207867 6.55631
      vertex 15.146 0.230969 6.59953
    endloop
  endfacet
  facet normal 1 0 0
    outer loop
      vertex 15.146 0.176776 6.87198
      vertex 15.146 0.207867 6.55631
      vertex 15.146 0.207867 6.83409
    endloop
  endfacet
  facet normal 1 0 0
    outer loop
      vertex 15.146 0.176776 6.87198
      vertex 15.146 0.176776 6.51842
      vertex 15.146 0.207867 6.55631
    endloop
  endfacet
  facet normal 1 0 0
    outer loop
      vertex 15.146 0.138892 6.90307
      vertex 15.146 0.176776 6.51842
      vertex 15.146 0.176776 6.87198
    endloop
  endfacet
  facet normal 1 0 0
    outer loop
      vertex 15.146 0.138892 6.90307
      vertex 15.146 0.138892 6.48733
      vertex 15.146 0.176776 6.51842
    endloop
  endfacet
  facet normal 1 0 0
    outer loop
      vertex 15.146 0.0956707 6.92617
      vertex 15.146 0.138892 6.48733
      vertex 15.146 0.138892 6.90307
    endloop
  endfacet
  facet normal 1 0 0
    outer loop
      vertex 15.146 0.0956707 6.92617
      vertex 15.146 0.0956707 6.46423
      vertex 15.146 0.138892 6.48733
    endloop
  endfacet
  facet normal 1 0 0
    outer loop
      vertex 15.146 0.0487719 6.9404
      vertex 15.146 0.0956707 6.46423
      vertex 15.146 0.0956707 6.92617
    endloop
  endfacet
  facet normal 1 0 0
    outer loop
      vertex 15.146 0.0487719 6.9404
      vertex 15.146 0.0487719 6.45
      vertex 15.146 0.0956707 6.46423
    endloop
  endfacet
  facet normal 1 0 0
    outer loop
      vertex 15.146 0 6.9452
      vertex 15.146 0.0487719 6.45
      vertex 15.146 0.0487719 6.9404
    endloop
  endfacet
  facet normal 1 0 0
    outer loop
      vertex 15.146 0.0487719 6.45
      vertex 15.146 0 6.9452
      vertex 15.146 0 6.4452
    endloop
  endfacet
  facet normal 0 -0.290348 -0.956921
    outer loop
      vertex 15.146 0.0487719 6.9404
      vertex 19.1 0.0956707 6.92617
      vertex 19.1 0.0487719 6.9404
    endloop
  endfacet
  facet normal -0 -0.290348 -0.956921
    outer loop
      vertex 19.1 0.0956707 6.92617
      vertex 15.146 0.0487719 6.9404
      vertex 15.146 0.0956707 6.92617
    endloop
  endfacet
  facet normal 0 -0.471361 -0.88194
    outer loop
      vertex 15.146 0.0956707 6.92617
      vertex 19.1 0.138892 6.90307
      vertex 19.1 0.0956707 6.92617
    endloop
  endfacet
  facet normal -0 -0.471361 -0.88194
    outer loop
      vertex 19.1 0.138892 6.90307
      vertex 15.146 0.0956707 6.92617
      vertex 15.146 0.138892 6.90307
    endloop
  endfacet
  facet normal 1 -0 0
    outer loop
      vertex 15.146 -4.25 12.3502
      vertex 15.146 -2.25 9.4452
      vertex 15.146 -2.25 12.3502
    endloop
  endfacet
  facet normal 1 0 0
    outer loop
      vertex 15.146 -2.25 9.4452
      vertex 15.146 -4.25 12.3502
      vertex 15.146 -2.25 8.0452
    endloop
  endfacet
  facet normal 1 0 0
    outer loop
      vertex 15.146 -2.25 8.0452
      vertex 15.146 -4.25 12.3502
      vertex 15.146 -2.25 6.9452
    endloop
  endfacet
  facet normal 1 0 0
    outer loop
      vertex 15.146 -1.46537 8.88176
      vertex 15.146 -1.46537 8.60864
      vertex 15.146 -1.45 8.7452
    endloop
  endfacet
  facet normal 1 0 0
    outer loop
      vertex 15.146 -1.5109 9.01308
      vertex 15.146 -1.46537 8.60864
      vertex 15.146 -1.46537 8.88176
    endloop
  endfacet
  facet normal 1 0 0
    outer loop
      vertex 15.146 -1.5109 9.01308
      vertex 15.146 -1.5109 8.47732
      vertex 15.146 -1.46537 8.60864
    endloop
  endfacet
  facet normal 1 0 0
    outer loop
      vertex 15.146 -1.58482 9.1341
      vertex 15.146 -1.5109 8.47732
      vertex 15.146 -1.5109 9.01308
    endloop
  endfacet
  facet normal 1 0 0
    outer loop
      vertex 15.146 -1.58482 9.1341
      vertex 15.146 -1.58482 8.3563
      vertex 15.146 -1.5109 8.47732
    endloop
  endfacet
  facet normal 1 0 0
    outer loop
      vertex 15.146 -1.68431 9.24017
      vertex 15.146 -1.58482 8.3563
      vertex 15.146 -1.58482 9.1341
    endloop
  endfacet
  facet normal 1 0 0
    outer loop
      vertex 15.146 -1.68431 9.24017
      vertex 15.146 -1.68431 8.25023
      vertex 15.146 -1.58482 8.3563
    endloop
  endfacet
  facet normal 1 0 0
    outer loop
      vertex 15.146 -1.80554 9.32723
      vertex 15.146 -1.68431 8.25023
      vertex 15.146 -1.68431 9.24017
    endloop
  endfacet
  facet normal 1 0 0
    outer loop
      vertex 15.146 -1.80554 9.32723
      vertex 15.146 -1.80554 8.16317
      vertex 15.146 -1.68431 8.25023
    endloop
  endfacet
  facet normal 1 0 0
    outer loop
      vertex 15.146 -1.94385 9.39192
      vertex 15.146 -1.80554 8.16317
      vertex 15.146 -1.80554 9.32723
    endloop
  endfacet
  facet normal 1 0 0
    outer loop
      vertex 15.146 -1.94385 9.39192
      vertex 15.146 -1.94385 8.09848
      vertex 15.146 -1.80554 8.16317
    endloop
  endfacet
  facet normal 1 0 0
    outer loop
      vertex 15.146 -2.09393 9.43175
      vertex 15.146 -1.94385 8.09848
      vertex 15.146 -1.94385 9.39192
    endloop
  endfacet
  facet normal 1 0 0
    outer loop
      vertex 15.146 -2.09393 9.43175
      vertex 15.146 -2.09393 8.05865
      vertex 15.146 -1.94385 8.09848
    endloop
  endfacet
  facet normal 1 0 0
    outer loop
      vertex 15.146 -2.25 9.4452
      vertex 15.146 -2.09393 8.05865
      vertex 15.146 -2.09393 9.43175
    endloop
  endfacet
  facet normal 1 0 0
    outer loop
      vertex 15.146 -2.09393 8.05865
      vertex 15.146 -2.25 9.4452
      vertex 15.146 -2.25 8.0452
    endloop
  endfacet
  facet normal 1 -0 0
    outer loop
      vertex 15.146 -2.25 6.9452
      vertex 15.146 0 -2
      vertex 15.146 0 6.9452
    endloop
  endfacet
  facet normal 1 0 0
    outer loop
      vertex 15.146 -4.25 -2
      vertex 15.146 -2.25 6.9452
      vertex 15.146 -4.25 12.3502
    endloop
  endfacet
  facet normal 1 0 0
    outer loop
      vertex 15.146 -2.25 6.9452
      vertex 15.146 -4.25 -2
      vertex 15.146 0 -2
    endloop
  endfacet
  facet normal 0 0 1
    outer loop
      vertex 15.146 -2.25 12.3502
      vertex 9.55 -3.75 12.3502
      vertex 15.146 -4.25 12.3502
    endloop
  endfacet
  facet normal 0 0 1
    outer loop
      vertex 15.146 -2.25 12.3502
      vertex 8.55 -3.75 12.3502
      vertex 9.55 -3.75 12.3502
    endloop
  endfacet
  facet normal -0 0 1
    outer loop
      vertex -1 -2.25 12.3502
      vertex 8.55 -3.75 12.3502
      vertex 15.146 -2.25 12.3502
    endloop
  endfacet
  facet normal 0 0 1
    outer loop
      vertex -1 -4.25 12.3502
      vertex 8.55 -3.75 12.3502
      vertex -1 -2.25 12.3502
    endloop
  endfacet
  facet normal 0 0 1
    outer loop
      vertex 8.55 -3.75 12.3502
      vertex -1 -4.25 12.3502
      vertex 8.55 -4.25 12.3502
    endloop
  endfacet
  facet normal 0 0 1
    outer loop
      vertex 15.146 -4.25 12.3502
      vertex 9.55 -3.75 12.3502
      vertex 9.55 -4.25 12.3502
    endloop
  endfacet
  facet normal 0 -1 0
    outer loop
      vertex 5.81243 -4.25 3.74744
      vertex 7.05341 -4.25 2.53905
      vertex 8.2618 -4.25 4.23164
    endloop
  endfacet
  facet normal 0 -1 0
    outer loop
      vertex 8.2618 -4.25 4.23164
      vertex 8.01688 -4.25 2.86568
      vertex 8.11942 -4.25 2.94998
    endloop
  endfacet
  facet normal 0 -1 0
    outer loop
      vertex 8.2618 -4.25 4.23164
      vertex 7.91435 -4.25 2.79178
      vertex 8.01688 -4.25 2.86568
    endloop
  endfacet
  facet normal 0 -1 0
    outer loop
      vertex 6.63513 -4.25 2.59242
      vertex 6.14812 -4.25 2.8727
      vertex 6.29173 -4.25 2.75258
    endloop
  endfacet
  facet normal -0 -1 0
    outer loop
      vertex 7.39517 -4.25 2.57274
      vertex 8.2618 -4.25 4.23164
      vertex 7.28449 -4.25 2.55402
    endloop
  endfacet
  facet normal 0 -1 0
    outer loop
      vertex 8.2618 -4.25 4.23164
      vertex 7.81183 -4.25 2.72832
      vertex 7.91435 -4.25 2.79178
    endloop
  endfacet
  facet normal 0 -1 0
    outer loop
      vertex 6.63513 -4.25 2.59242
      vertex 6.29173 -4.25 2.75258
      vertex 6.45407 -4.25 2.65916
    endloop
  endfacet
  facet normal 0 -1 0
    outer loop
      vertex 8.2618 -4.25 4.23164
      vertex 7.70929 -4.25 2.67526
      vertex 7.81183 -4.25 2.72832
    endloop
  endfacet
  facet normal 0 -1 0
    outer loop
      vertex 8.2618 -4.25 4.23164
      vertex 7.60677 -4.25 2.63264
      vertex 7.70929 -4.25 2.67526
    endloop
  endfacet
  facet normal 0 -1 0
    outer loop
      vertex 6.14812 -4.25 2.8727
      vertex 6.63513 -4.25 2.59242
      vertex 6.83492 -4.25 2.55238
    endloop
  endfacet
  facet normal -0 -1 0
    outer loop
      vertex 7.60677 -4.25 2.63264
      vertex 8.2618 -4.25 4.23164
      vertex 7.5026 -4.25 2.59895
    endloop
  endfacet
  facet normal -0 -1 0
    outer loop
      vertex 7.5026 -4.25 2.59895
      vertex 8.2618 -4.25 4.23164
      vertex 7.39517 -4.25 2.57274
    endloop
  endfacet
  facet normal 0 -1 0
    outer loop
      vertex 6.14812 -4.25 2.8727
      vertex 6.83492 -4.25 2.55238
      vertex 7.05341 -4.25 2.53905
    endloop
  endfacet
  facet normal 0 -1 0
    outer loop
      vertex 8.2618 -4.25 4.23164
      vertex 7.17056 -4.25 2.54279
      vertex 7.28449 -4.25 2.55402
    endloop
  endfacet
  facet normal 0 -1 0
    outer loop
      vertex 8.2618 -4.25 4.23164
      vertex 7.05341 -4.25 2.53905
      vertex 7.17056 -4.25 2.54279
    endloop
  endfacet
  facet normal 0 -1 0
    outer loop
      vertex 7.97704 -4.25 0.488358
      vertex 6.90286 -4.25 1.94096
      vertex 5.38523 -4.25 0.488358
    endloop
  endfacet
  facet normal 0 -1 0
    outer loop
      vertex 6.90286 -4.25 1.94096
      vertex 7.97704 -4.25 0.488358
      vertex 7.17676 -4.25 1.95561
    endloop
  endfacet
  facet normal 0 -1 0
    outer loop
      vertex 7.17676 -4.25 1.95561
      vertex 7.97704 -4.25 0.488358
      vertex 7.43212 -4.25 1.99956
    endloop
  endfacet
  facet normal 0 -1 0
    outer loop
      vertex 7.43212 -4.25 1.99956
      vertex 7.97704 -4.25 0.488358
      vertex 7.66892 -4.25 2.07278
    endloop
  endfacet
  facet normal 0 -1 0
    outer loop
      vertex 7.66892 -4.25 2.07278
      vertex 7.97704 -4.25 0.488358
      vertex 7.88718 -4.25 2.17532
    endloop
  endfacet
  facet normal 0 -1 0
    outer loop
      vertex 7.88718 -4.25 2.17532
      vertex 7.97704 -4.25 0.488358
      vertex 8.08689 -4.25 2.30714
    endloop
  endfacet
  facet normal 0 -1 0
    outer loop
      vertex 5.82578 -4.25 3.98581
      vertex 7.06967 -4.25 5.08202
      vertex 6.84395 -4.25 5.06778
    endloop
  endfacet
  facet normal 0 -1 0
    outer loop
      vertex 5.86582 -4.25 4.20285
      vertex 6.84395 -4.25 5.06778
      vertex 6.63873 -4.25 5.02507
    endloop
  endfacet
  facet normal 0 -1 0
    outer loop
      vertex 5.93254 -4.25 4.39856
      vertex 6.63873 -4.25 5.02507
      vertex 6.45401 -4.25 4.95387
    endloop
  endfacet
  facet normal 0 -1 0
    outer loop
      vertex 6.84395 -4.25 5.06778
      vertex 5.86582 -4.25 4.20285
      vertex 5.82578 -4.25 3.98581
    endloop
  endfacet
  facet normal 0 -1 0
    outer loop
      vertex 5.93254 -4.25 4.39856
      vertex 6.45401 -4.25 4.95387
      vertex 6.2898 -4.25 4.8542
    endloop
  endfacet
  facet normal -0 -1 -0
    outer loop
      vertex 8.13989 -4.25 4.53778
      vertex 7.42461 -4.25 5.048
      vertex 8.2618 -4.25 4.23164
    endloop
  endfacet
  facet normal 0 -1 0
    outer loop
      vertex 5.93254 -4.25 4.39856
      vertex 6.2898 -4.25 4.8542
      vertex 6.14609 -4.25 4.72604
    endloop
  endfacet
  facet normal 0 -1 0
    outer loop
      vertex 5.93254 -4.25 4.39856
      vertex 6.14609 -4.25 4.72604
      vertex 6.02597 -4.25 4.57297
    endloop
  endfacet
  facet normal 0 -1 0
    outer loop
      vertex 7.42461 -4.25 5.048
      vertex 8.13989 -4.25 4.53778
      vertex 7.72132 -4.25 4.94597
    endloop
  endfacet
  facet normal 0 -1 0
    outer loop
      vertex 6.63873 -4.25 5.02507
      vertex 5.93254 -4.25 4.39856
      vertex 5.86582 -4.25 4.20285
    endloop
  endfacet
  facet normal 0 -1 0
    outer loop
      vertex 7.72132 -4.25 4.94597
      vertex 8.13989 -4.25 4.53778
      vertex 7.95973 -4.25 4.77588
    endloop
  endfacet
  facet normal 0 -1 -0
    outer loop
      vertex 7.06967 -4.25 5.08202
      vertex 5.82578 -4.25 3.98581
      vertex 8.2618 -4.25 4.23164
    endloop
  endfacet
  facet normal 0 -1 0
    outer loop
      vertex -1 -4.25 12.3502
      vertex 8.55 -4.25 9.8502
      vertex 8.55 -4.25 12.3502
    endloop
  endfacet
  facet normal 0 -1 0
    outer loop
      vertex 7.39421 -4.25 5.66611
      vertex 8.55 -4.25 9.8502
      vertex 7.08597 -4.25 5.6801
    endloop
  endfacet
  facet normal 0 -1 0
    outer loop
      vertex 5.82305 -4.25 5.34679
      vertex 8.55 -4.25 9.8502
      vertex -1 -4.25 12.3502
    endloop
  endfacet
  facet normal 0 -1 0
    outer loop
      vertex 8.55 -4.25 9.8502
      vertex 6.7202 -4.25 5.65927
      vertex 7.08597 -4.25 5.6801
    endloop
  endfacet
  facet normal 0 -1 0
    outer loop
      vertex 8.55 -4.25 9.8502
      vertex 6.38779 -4.25 5.59677
      vertex 6.7202 -4.25 5.65927
    endloop
  endfacet
  facet normal 0 -1 0
    outer loop
      vertex 8.55 -4.25 9.8502
      vertex 6.08873 -4.25 5.49261
      vertex 6.38779 -4.25 5.59677
    endloop
  endfacet
  facet normal 0 -1 0
    outer loop
      vertex 8.55 -4.25 9.8502
      vertex 5.82305 -4.25 5.34679
      vertex 6.08873 -4.25 5.49261
    endloop
  endfacet
  facet normal 0 -1 0
    outer loop
      vertex -1 -4.25 12.3502
      vertex 5.59073 -4.25 5.1593
      vertex 5.82305 -4.25 5.34679
    endloop
  endfacet
  facet normal 0 -1 0
    outer loop
      vertex -1 -4.25 12.3502
      vertex 5.39662 -4.25 4.93552
      vertex 5.59073 -4.25 5.1593
    endloop
  endfacet
  facet normal 0 -1 0
    outer loop
      vertex -1 -4.25 12.3502
      vertex 5.24567 -4.25 4.68082
      vertex 5.39662 -4.25 4.93552
    endloop
  endfacet
  facet normal 0 -1 0
    outer loop
      vertex -1 -4.25 12.3502
      vertex 5.13783 -4.25 4.3952
      vertex 5.24567 -4.25 4.68082
    endloop
  endfacet
  facet normal 0 -1 0
    outer loop
      vertex -1 -4.25 12.3502
      vertex 5.07314 -4.25 4.07864
      vertex 5.13783 -4.25 4.3952
    endloop
  endfacet
  facet normal 0 -1 0
    outer loop
      vertex -1 -4.25 -2
      vertex 5.07314 -4.25 4.07864
      vertex -1 -4.25 12.3502
    endloop
  endfacet
  facet normal 0 -1 0
    outer loop
      vertex 5.07314 -4.25 4.07864
      vertex -1 -4.25 -2
      vertex 5.05156 -4.25 3.73119
    endloop
  endfacet
  facet normal 0 -1 -0
    outer loop
      vertex 5.05156 -4.25 3.73119
      vertex -1 -4.25 -2
      vertex 5.07167 -4.25 3.42424
    endloop
  endfacet
  facet normal 0 -1 -0
    outer loop
      vertex 5.07167 -4.25 3.42424
      vertex -1 -4.25 -2
      vertex 5.13196 -4.25 3.14139
    endloop
  endfacet
  facet normal 0 -1 -0
    outer loop
      vertex 5.13196 -4.25 3.14139
      vertex -1 -4.25 -2
      vertex 5.23247 -4.25 2.88261
    endloop
  endfacet
  facet normal 0 -1 -0
    outer loop
      vertex 6.5781 -4.25 1.96082
      vertex 5.38523 -4.25 0.488358
      vertex 6.90286 -4.25 1.94096
    endloop
  endfacet
  facet normal 0 -1 -0
    outer loop
      vertex 6.28084 -4.25 2.02039
      vertex 5.38523 -4.25 0.488358
      vertex 6.5781 -4.25 1.96082
    endloop
  endfacet
  facet normal 0 -1 -0
    outer loop
      vertex 6.01108 -4.25 2.11966
      vertex 5.38523 -4.25 0.488358
      vertex 6.28084 -4.25 2.02039
    endloop
  endfacet
  facet normal 0 -1 -0
    outer loop
      vertex 5.76882 -4.25 2.25865
      vertex 5.38523 -4.25 0.488358
      vertex 6.01108 -4.25 2.11966
    endloop
  endfacet
  facet normal 0 -1 -0
    outer loop
      vertex 5.55406 -4.25 2.43735
      vertex 5.38523 -4.25 0.488358
      vertex 5.76882 -4.25 2.25865
    endloop
  endfacet
  facet normal 0 -1 0
    outer loop
      vertex 5.37317 -4.25 2.64793
      vertex 5.38523 -4.25 0.488358
      vertex 5.55406 -4.25 2.43735
    endloop
  endfacet
  facet normal -0 -1 0
    outer loop
      vertex 5.38523 -4.25 0.488358
      vertex 5.23247 -4.25 2.88261
      vertex -1 -4.25 -2
    endloop
  endfacet
  facet normal 0 -1 0
    outer loop
      vertex 5.23247 -4.25 2.88261
      vertex 5.38523 -4.25 0.488358
      vertex 5.37317 -4.25 2.64793
    endloop
  endfacet
  facet normal 0 -1 -0
    outer loop
      vertex 5.38523 -4.25 -0.134125
      vertex -1 -4.25 -2
      vertex 8.64429 -4.25 -0.134125
    endloop
  endfacet
  facet normal 0 -1 -0
    outer loop
      vertex 5.38523 -4.25 0.488358
      vertex -1 -4.25 -2
      vertex 5.38523 -4.25 -0.134125
    endloop
  endfacet
  facet normal 0 -1 0
    outer loop
      vertex 9.55 -4.25 9.8502
      vertex 15.146 -4.25 12.3502
      vertex 9.55 -4.25 12.3502
    endloop
  endfacet
  facet normal 0 -1 0
    outer loop
      vertex 7.67772 -4.25 5.62411
      vertex 8.55 -4.25 9.8502
      vertex 7.39421 -4.25 5.66611
    endloop
  endfacet
  facet normal 0 -1 0
    outer loop
      vertex 7.93649 -4.25 5.55414
      vertex 8.55 -4.25 9.8502
      vertex 7.67772 -4.25 5.62411
    endloop
  endfacet
  facet normal 0 -1 0
    outer loop
      vertex 8.17052 -4.25 5.45615
      vertex 8.55 -4.25 9.8502
      vertex 7.93649 -4.25 5.55414
    endloop
  endfacet
  facet normal 0 -1 -0
    outer loop
      vertex 8.55 -4.25 9.8502
      vertex 8.17052 -4.25 5.45615
      vertex 9.55 -4.25 9.8502
    endloop
  endfacet
  facet normal 0 -1 0
    outer loop
      vertex 8.37981 -4.25 5.33018
      vertex 9.55 -4.25 9.8502
      vertex 8.17052 -4.25 5.45615
    endloop
  endfacet
  facet normal 0 -1 0
    outer loop
      vertex 8.56224 -4.25 5.17769
      vertex 9.55 -4.25 9.8502
      vertex 8.37981 -4.25 5.33018
    endloop
  endfacet
  facet normal 0 -1 0
    outer loop
      vertex 8.71572 -4.25 5.00012
      vertex 9.55 -4.25 9.8502
      vertex 8.56224 -4.25 5.17769
    endloop
  endfacet
  facet normal 0 -1 0
    outer loop
      vertex 8.84021 -4.25 4.7975
      vertex 9.55 -4.25 9.8502
      vertex 8.71572 -4.25 5.00012
    endloop
  endfacet
  facet normal 0 -1 0
    outer loop
      vertex 8.93575 -4.25 4.56982
      vertex 9.55 -4.25 9.8502
      vertex 8.84021 -4.25 4.7975
    endloop
  endfacet
  facet normal 0 -1 -0
    outer loop
      vertex 9.55 -4.25 9.8502
      vertex 8.93575 -4.25 4.56982
      vertex 15.146 -4.25 12.3502
    endloop
  endfacet
  facet normal 0 -1 0
    outer loop
      vertex 9.00231 -4.25 4.31708
      vertex 15.146 -4.25 12.3502
      vertex 8.93575 -4.25 4.56982
    endloop
  endfacet
  facet normal 0 -1 0
    outer loop
      vertex 7.06967 -4.25 5.08202
      vertex 8.2618 -4.25 4.23164
      vertex 7.42461 -4.25 5.048
    endloop
  endfacet
  facet normal 0 -1 0
    outer loop
      vertex 5.81243 -4.25 3.74744
      vertex 8.2618 -4.25 4.23164
      vertex 5.82578 -4.25 3.98581
    endloop
  endfacet
  facet normal 0 -1 0
    outer loop
      vertex 7.05341 -4.25 2.53905
      vertex 5.81243 -4.25 3.74744
      vertex 5.82585 -4.25 3.53929
    endloop
  endfacet
  facet normal 0 -1 0
    outer loop
      vertex 7.05341 -4.25 2.53905
      vertex 5.82585 -4.25 3.53929
      vertex 6.14812 -4.25 2.8727
    endloop
  endfacet
  facet normal 0 -1 0
    outer loop
      vertex 6.14812 -4.25 2.8727
      vertex 5.86614 -4.25 3.34773
      vertex 6.02727 -4.25 3.01445
    endloop
  endfacet
  facet normal 0 -1 0
    outer loop
      vertex 6.02727 -4.25 3.01445
      vertex 5.86614 -4.25 3.34773
      vertex 5.93328 -4.25 3.17279
    endloop
  endfacet
  facet normal 0 -1 0
    outer loop
      vertex 5.86614 -4.25 3.34773
      vertex 6.14812 -4.25 2.8727
      vertex 5.82585 -4.25 3.53929
    endloop
  endfacet
  facet normal 0 -1 0
    outer loop
      vertex 8.83551 -4.25 2.94998
      vertex 8.2618 -4.25 4.23164
      vertex 8.11942 -4.25 2.94998
    endloop
  endfacet
  facet normal 0 -1 0
    outer loop
      vertex 8.2618 -4.25 4.23164
      vertex 8.83551 -4.25 2.94998
      vertex 9.00231 -4.25 4.31708
    endloop
  endfacet
  facet normal 0 -1 0
    outer loop
      vertex 15.146 -4.25 -2
      vertex 9.00231 -4.25 4.31708
      vertex 8.83551 -4.25 2.94998
    endloop
  endfacet
  facet normal 0 -1 0
    outer loop
      vertex 15.146 -4.25 -2
      vertex 8.83551 -4.25 2.94998
      vertex 8.64429 -4.25 -0.134125
    endloop
  endfacet
  facet normal 0 -1 0
    outer loop
      vertex 9.00231 -4.25 4.31708
      vertex 15.146 -4.25 -2
      vertex 15.146 -4.25 12.3502
    endloop
  endfacet
  facet normal 0 -1 0
    outer loop
      vertex 15.146 -4.25 -2
      vertex 8.64429 -4.25 -0.134125
      vertex -1 -4.25 -2
    endloop
  endfacet
  facet normal -1 0 0
    outer loop
      vertex 9.55 -4.25 9.8502
      vertex 9.55 -3.75 12.3502
      vertex 9.55 -3.75 9.8502
    endloop
  endfacet
  facet normal -1 -0 0
    outer loop
      vertex 9.55 -3.75 12.3502
      vertex 9.55 -4.25 9.8502
      vertex 9.55 -4.25 12.3502
    endloop
  endfacet
  facet normal -0 0 1
    outer loop
      vertex 8.55 -3.75 9.8502
      vertex 9.55 -4.25 9.8502
      vertex 9.55 -3.75 9.8502
    endloop
  endfacet
  facet normal 0 0 1
    outer loop
      vertex 9.55 -4.25 9.8502
      vertex 8.55 -3.75 9.8502
      vertex 8.55 -4.25 9.8502
    endloop
  endfacet
  facet normal 1 -0 0
    outer loop
      vertex 8.55 -4.25 12.3502
      vertex 8.55 -3.75 9.8502
      vertex 8.55 -3.75 12.3502
    endloop
  endfacet
  facet normal 1 0 0
    outer loop
      vertex 8.55 -3.75 9.8502
      vertex 8.55 -4.25 12.3502
      vertex 8.55 -4.25 9.8502
    endloop
  endfacet
  facet normal 0 -1 0
    outer loop
      vertex 8.55 -3.75 9.8502
      vertex 9.55 -3.75 12.3502
      vertex 8.55 -3.75 12.3502
    endloop
  endfacet
  facet normal 0 -1 -0
    outer loop
      vertex 9.55 -3.75 12.3502
      vertex 8.55 -3.75 9.8502
      vertex 9.55 -3.75 9.8502
    endloop
  endfacet
  facet normal -0 0 1
    outer loop
      vertex -1 0 6.9452
      vertex 15.146 -2.25 6.9452
      vertex 15.146 0 6.9452
    endloop
  endfacet
  facet normal 0 0 1
    outer loop
      vertex 15.146 -2.25 6.9452
      vertex -1 0 6.9452
      vertex -1 -2.25 6.9452
    endloop
  endfacet
  facet normal 0 1 -0
    outer loop
      vertex 15.146 -2.25 9.4452
      vertex -1 -2.25 12.3502
      vertex 15.146 -2.25 12.3502
    endloop
  endfacet
  facet normal 0 1 0
    outer loop
      vertex -1 -2.25 12.3502
      vertex 15.146 -2.25 9.4452
      vertex -1 -2.25 9.4452
    endloop
  endfacet
  facet normal 0 1 -0
    outer loop
      vertex 15.146 -2.25 6.9452
      vertex -1 -2.25 8.0452
      vertex 15.146 -2.25 8.0452
    endloop
  endfacet
  facet normal 0 1 0
    outer loop
      vertex -1 -2.25 8.0452
      vertex 15.146 -2.25 6.9452
      vertex -1 -2.25 6.9452
    endloop
  endfacet
  facet normal 0 -1 0
    outer loop
      vertex 5.38523 -3.75 0.488358
      vertex 5.38523 -3.75 -0.134125
      vertex 7.97704 -3.75 0.488358
    endloop
  endfacet
  facet normal 0 -1 0
    outer loop
      vertex 7.08597 -3.75 5.6801
      vertex 6.84395 -3.75 5.06778
      vertex 7.06967 -3.75 5.08202
    endloop
  endfacet
  facet normal 0 -1 0
    outer loop
      vertex 5.82305 -3.75 5.34679
      vertex 6.63873 -3.75 5.02507
      vertex 6.84395 -3.75 5.06778
    endloop
  endfacet
  facet normal 0 -1 0
    outer loop
      vertex 5.82305 -3.75 5.34679
      vertex 6.45401 -3.75 4.95387
      vertex 6.63873 -3.75 5.02507
    endloop
  endfacet
  facet normal 0 -1 0
    outer loop
      vertex 6.02597 -3.75 4.57297
      vertex 5.59073 -3.75 5.1593
      vertex 5.39662 -3.75 4.93552
    endloop
  endfacet
  facet normal 0 -1 0
    outer loop
      vertex 5.82305 -3.75 5.34679
      vertex 6.2898 -3.75 4.8542
      vertex 6.45401 -3.75 4.95387
    endloop
  endfacet
  facet normal 0 -1 0
    outer loop
      vertex 5.82305 -3.75 5.34679
      vertex 6.14609 -3.75 4.72604
      vertex 6.2898 -3.75 4.8542
    endloop
  endfacet
  facet normal 0 -1 0
    outer loop
      vertex 5.93254 -3.75 4.39856
      vertex 5.39662 -3.75 4.93552
      vertex 5.24567 -3.75 4.68082
    endloop
  endfacet
  facet normal 0 -1 0
    outer loop
      vertex 5.59073 -3.75 5.1593
      vertex 6.02597 -3.75 4.57297
      vertex 6.14609 -3.75 4.72604
    endloop
  endfacet
  facet normal 0 -1 0
    outer loop
      vertex 5.39662 -3.75 4.93552
      vertex 5.93254 -3.75 4.39856
      vertex 6.02597 -3.75 4.57297
    endloop
  endfacet
  facet normal 0 -1 0
    outer loop
      vertex 5.86582 -3.75 4.20285
      vertex 5.24567 -3.75 4.68082
      vertex 5.13783 -3.75 4.3952
    endloop
  endfacet
  facet normal 0 -1 0
    outer loop
      vertex 5.24567 -3.75 4.68082
      vertex 5.86582 -3.75 4.20285
      vertex 5.93254 -3.75 4.39856
    endloop
  endfacet
  facet normal 0 -1 0
    outer loop
      vertex 5.07314 -3.75 4.07864
      vertex 5.86582 -3.75 4.20285
      vertex 5.13783 -3.75 4.3952
    endloop
  endfacet
  facet normal 0 -1 0
    outer loop
      vertex 5.07314 -3.75 4.07864
      vertex 5.82578 -3.75 3.98581
      vertex 5.86582 -3.75 4.20285
    endloop
  endfacet
  facet normal 0 -1 0
    outer loop
      vertex 5.07314 -3.75 4.07864
      vertex 5.81243 -3.75 3.74744
      vertex 5.82578 -3.75 3.98581
    endloop
  endfacet
  facet normal 0 -1 0
    outer loop
      vertex 5.05156 -3.75 3.73119
      vertex 5.81243 -3.75 3.74744
      vertex 5.07314 -3.75 4.07864
    endloop
  endfacet
  facet normal 0 -1 0
    outer loop
      vertex 5.05156 -3.75 3.73119
      vertex 5.82585 -3.75 3.53929
      vertex 5.81243 -3.75 3.74744
    endloop
  endfacet
  facet normal 0 -1 0
    outer loop
      vertex 5.07167 -3.75 3.42424
      vertex 5.82585 -3.75 3.53929
      vertex 5.05156 -3.75 3.73119
    endloop
  endfacet
  facet normal 0 -1 0
    outer loop
      vertex 5.07167 -3.75 3.42424
      vertex 5.86614 -3.75 3.34773
      vertex 5.82585 -3.75 3.53929
    endloop
  endfacet
  facet normal 0 -1 0
    outer loop
      vertex 5.13196 -3.75 3.14139
      vertex 5.86614 -3.75 3.34773
      vertex 5.07167 -3.75 3.42424
    endloop
  endfacet
  facet normal 0 -1 0
    outer loop
      vertex 5.23247 -3.75 2.88261
      vertex 5.86614 -3.75 3.34773
      vertex 5.13196 -3.75 3.14139
    endloop
  endfacet
  facet normal 0 -1 -0
    outer loop
      vertex 5.86614 -3.75 3.34773
      vertex 5.23247 -3.75 2.88261
      vertex 5.93328 -3.75 3.17279
    endloop
  endfacet
  facet normal 0 -1 0
    outer loop
      vertex 5.37317 -3.75 2.64793
      vertex 5.93328 -3.75 3.17279
      vertex 5.23247 -3.75 2.88261
    endloop
  endfacet
  facet normal 0 -1 -0
    outer loop
      vertex 5.93328 -3.75 3.17279
      vertex 5.37317 -3.75 2.64793
      vertex 6.02727 -3.75 3.01445
    endloop
  endfacet
  facet normal 0 -1 0
    outer loop
      vertex 5.55406 -3.75 2.43735
      vertex 6.02727 -3.75 3.01445
      vertex 5.37317 -3.75 2.64793
    endloop
  endfacet
  facet normal 0 -1 -0
    outer loop
      vertex 6.02727 -3.75 3.01445
      vertex 5.55406 -3.75 2.43735
      vertex 6.14812 -3.75 2.8727
    endloop
  endfacet
  facet normal 0 -1 0
    outer loop
      vertex 5.76882 -3.75 2.25865
      vertex 6.14812 -3.75 2.8727
      vertex 5.55406 -3.75 2.43735
    endloop
  endfacet
  facet normal 0 -1 -0
    outer loop
      vertex 6.14812 -3.75 2.8727
      vertex 5.76882 -3.75 2.25865
      vertex 6.29173 -3.75 2.75258
    endloop
  endfacet
  facet normal 0 -1 0
    outer loop
      vertex 6.01108 -3.75 2.11966
      vertex 6.29173 -3.75 2.75258
      vertex 5.76882 -3.75 2.25865
    endloop
  endfacet
  facet normal 0 -1 0
    outer loop
      vertex 6.28084 -3.75 2.02039
      vertex 6.45407 -3.75 2.65916
      vertex 6.01108 -3.75 2.11966
    endloop
  endfacet
  facet normal 0 -1 -0
    outer loop
      vertex 6.29173 -3.75 2.75258
      vertex 6.01108 -3.75 2.11966
      vertex 6.45407 -3.75 2.65916
    endloop
  endfacet
  facet normal 0 -1 0
    outer loop
      vertex 6.84395 -3.75 5.06778
      vertex 7.08597 -3.75 5.6801
      vertex 6.7202 -3.75 5.65927
    endloop
  endfacet
  facet normal 0 -1 -0
    outer loop
      vertex 7.08597 -3.75 5.6801
      vertex 7.06967 -3.75 5.08202
      vertex 7.39421 -3.75 5.66611
    endloop
  endfacet
  facet normal 0 -1 0
    outer loop
      vertex 6.84395 -3.75 5.06778
      vertex 6.7202 -3.75 5.65927
      vertex 6.38779 -3.75 5.59677
    endloop
  endfacet
  facet normal 0 -1 0
    outer loop
      vertex 7.42461 -3.75 5.048
      vertex 7.39421 -3.75 5.66611
      vertex 7.06967 -3.75 5.08202
    endloop
  endfacet
  facet normal 0 -1 0
    outer loop
      vertex 6.84395 -3.75 5.06778
      vertex 6.38779 -3.75 5.59677
      vertex 6.08873 -3.75 5.49261
    endloop
  endfacet
  facet normal 0 -1 0
    outer loop
      vertex 7.39421 -3.75 5.66611
      vertex 7.42461 -3.75 5.048
      vertex 7.67772 -3.75 5.62411
    endloop
  endfacet
  facet normal 0 -1 0
    outer loop
      vertex 6.84395 -3.75 5.06778
      vertex 6.08873 -3.75 5.49261
      vertex 5.82305 -3.75 5.34679
    endloop
  endfacet
  facet normal 0 -1 0
    outer loop
      vertex 7.72132 -3.75 4.94597
      vertex 7.67772 -3.75 5.62411
      vertex 7.42461 -3.75 5.048
    endloop
  endfacet
  facet normal 0 -1 0
    outer loop
      vertex 7.67772 -3.75 5.62411
      vertex 7.72132 -3.75 4.94597
      vertex 7.93649 -3.75 5.55414
    endloop
  endfacet
  facet normal 0 -1 0
    outer loop
      vertex 6.14609 -3.75 4.72604
      vertex 5.82305 -3.75 5.34679
      vertex 5.59073 -3.75 5.1593
    endloop
  endfacet
  facet normal 0 -1 -0
    outer loop
      vertex 7.93649 -3.75 5.55414
      vertex 7.72132 -3.75 4.94597
      vertex 8.17052 -3.75 5.45615
    endloop
  endfacet
  facet normal 0 -1 0
    outer loop
      vertex 7.95973 -3.75 4.77588
      vertex 8.17052 -3.75 5.45615
      vertex 7.72132 -3.75 4.94597
    endloop
  endfacet
  facet normal 0 -1 -0
    outer loop
      vertex 8.17052 -3.75 5.45615
      vertex 7.95973 -3.75 4.77588
      vertex 8.37981 -3.75 5.33018
    endloop
  endfacet
  facet normal 0 -1 -0
    outer loop
      vertex 8.37981 -3.75 5.33018
      vertex 7.95973 -3.75 4.77588
      vertex 8.56224 -3.75 5.17769
    endloop
  endfacet
  facet normal 0 -1 0
    outer loop
      vertex 8.13989 -3.75 4.53778
      vertex 8.56224 -3.75 5.17769
      vertex 7.95973 -3.75 4.77588
    endloop
  endfacet
  facet normal 0 -1 -0
    outer loop
      vertex 8.56224 -3.75 5.17769
      vertex 8.13989 -3.75 4.53778
      vertex 8.71572 -3.75 5.00012
    endloop
  endfacet
  facet normal 0 -1 -0
    outer loop
      vertex 8.71572 -3.75 5.00012
      vertex 8.13989 -3.75 4.53778
      vertex 8.84021 -3.75 4.7975
    endloop
  endfacet
  facet normal 0 -1 -0
    outer loop
      vertex 8.84021 -3.75 4.7975
      vertex 8.13989 -3.75 4.53778
      vertex 8.93575 -3.75 4.56982
    endloop
  endfacet
  facet normal 0 -1 0
    outer loop
      vertex 8.2618 -3.75 4.23164
      vertex 8.93575 -3.75 4.56982
      vertex 8.13989 -3.75 4.53778
    endloop
  endfacet
  facet normal 0 -1 -0
    outer loop
      vertex 8.93575 -3.75 4.56982
      vertex 8.2618 -3.75 4.23164
      vertex 9.00231 -3.75 4.31708
    endloop
  endfacet
  facet normal 0 -1 0
    outer loop
      vertex 8.08689 -3.75 2.30714
      vertex 8.11942 -3.75 2.94998
      vertex 8.01688 -3.75 2.86568
    endloop
  endfacet
  facet normal 0 -1 0
    outer loop
      vertex 8.08689 -3.75 2.30714
      vertex 8.01688 -3.75 2.86568
      vertex 7.91435 -3.75 2.79178
    endloop
  endfacet
  facet normal 0 -1 0
    outer loop
      vertex 8.08689 -3.75 2.30714
      vertex 7.91435 -3.75 2.79178
      vertex 7.81183 -3.75 2.72832
    endloop
  endfacet
  facet normal 0 -1 0
    outer loop
      vertex 8.08689 -3.75 2.30714
      vertex 7.81183 -3.75 2.72832
      vertex 7.70929 -3.75 2.67526
    endloop
  endfacet
  facet normal 0 -1 0
    outer loop
      vertex 7.88718 -3.75 2.17532
      vertex 7.70929 -3.75 2.67526
      vertex 7.60677 -3.75 2.63264
    endloop
  endfacet
  facet normal 0 -1 0
    outer loop
      vertex 7.88718 -3.75 2.17532
      vertex 7.60677 -3.75 2.63264
      vertex 7.5026 -3.75 2.59895
    endloop
  endfacet
  facet normal 0 -1 -0
    outer loop
      vertex 6.45407 -3.75 2.65916
      vertex 6.28084 -3.75 2.02039
      vertex 6.63513 -3.75 2.59242
    endloop
  endfacet
  facet normal 0 -1 0
    outer loop
      vertex 6.5781 -3.75 1.96082
      vertex 6.63513 -3.75 2.59242
      vertex 6.28084 -3.75 2.02039
    endloop
  endfacet
  facet normal 0 -1 0
    outer loop
      vertex 7.88718 -3.75 2.17532
      vertex 7.28449 -3.75 2.55402
      vertex 7.17056 -3.75 2.54279
    endloop
  endfacet
  facet normal 0 -1 0
    outer loop
      vertex 7.88718 -3.75 2.17532
      vertex 7.39517 -3.75 2.57274
      vertex 7.28449 -3.75 2.55402
    endloop
  endfacet
  facet normal 0 -1 0
    outer loop
      vertex 7.88718 -3.75 2.17532
      vertex 7.5026 -3.75 2.59895
      vertex 7.39517 -3.75 2.57274
    endloop
  endfacet
  facet normal 0 -1 -0
    outer loop
      vertex 8.11942 -3.75 2.94998
      vertex 8.08689 -3.75 2.30714
      vertex 8.83551 -3.75 2.94998
    endloop
  endfacet
  facet normal 0 -1 0
    outer loop
      vertex 8.64429 -3.75 -0.134125
      vertex 8.08689 -3.75 2.30714
      vertex 7.97704 -3.75 0.488358
    endloop
  endfacet
  facet normal 0 -1 0
    outer loop
      vertex 8.08689 -3.75 2.30714
      vertex 8.64429 -3.75 -0.134125
      vertex 8.83551 -3.75 2.94998
    endloop
  endfacet
  facet normal 0 -1 0
    outer loop
      vertex 8.64429 -3.75 -0.134125
      vertex 7.97704 -3.75 0.488358
      vertex 5.38523 -3.75 -0.134125
    endloop
  endfacet
  facet normal 0 -1 -0
    outer loop
      vertex 6.63513 -3.75 2.59242
      vertex 6.5781 -3.75 1.96082
      vertex 6.83492 -3.75 2.55238
    endloop
  endfacet
  facet normal 0 -1 0
    outer loop
      vertex 7.05341 -3.75 2.53905
      vertex 7.17676 -3.75 1.95561
      vertex 7.17056 -3.75 2.54279
    endloop
  endfacet
  facet normal 0 -1 0
    outer loop
      vertex 6.90286 -3.75 1.94096
      vertex 6.83492 -3.75 2.55238
      vertex 6.5781 -3.75 1.96082
    endloop
  endfacet
  facet normal -0 -1 0
    outer loop
      vertex 7.43212 -3.75 1.99956
      vertex 7.17056 -3.75 2.54279
      vertex 7.17676 -3.75 1.95561
    endloop
  endfacet
  facet normal 0 -1 0
    outer loop
      vertex 6.83492 -3.75 2.55238
      vertex 6.90286 -3.75 1.94096
      vertex 7.05341 -3.75 2.53905
    endloop
  endfacet
  facet normal -0 -1 0
    outer loop
      vertex 7.17676 -3.75 1.95561
      vertex 7.05341 -3.75 2.53905
      vertex 6.90286 -3.75 1.94096
    endloop
  endfacet
  facet normal 0 -1 0
    outer loop
      vertex 7.70929 -3.75 2.67526
      vertex 7.88718 -3.75 2.17532
      vertex 8.08689 -3.75 2.30714
    endloop
  endfacet
  facet normal 0 -1 0
    outer loop
      vertex 7.17056 -3.75 2.54279
      vertex 7.66892 -3.75 2.07278
      vertex 7.88718 -3.75 2.17532
    endloop
  endfacet
  facet normal 0 -1 0
    outer loop
      vertex 7.17056 -3.75 2.54279
      vertex 7.43212 -3.75 1.99956
      vertex 7.66892 -3.75 2.07278
    endloop
  endfacet
  facet normal 0.184783 0 -0.982779
    outer loop
      vertex 6.38779 -4.25 5.59677
      vertex 6.7202 -3.75 5.65927
      vertex 6.7202 -4.25 5.65927
    endloop
  endfacet
  facet normal 0.184783 0 -0.982779
    outer loop
      vertex 6.7202 -3.75 5.65927
      vertex 6.38779 -4.25 5.59677
      vertex 6.38779 -3.75 5.59677
    endloop
  endfacet
  facet normal 0.328913 0 -0.94436
    outer loop
      vertex 6.08873 -4.25 5.49261
      vertex 6.38779 -3.75 5.59677
      vertex 6.38779 -4.25 5.59677
    endloop
  endfacet
  facet normal 0.328913 0 -0.94436
    outer loop
      vertex 6.38779 -3.75 5.59677
      vertex 6.08873 -4.25 5.49261
      vertex 6.08873 -3.75 5.49261
    endloop
  endfacet
  facet normal 0.481148 0 -0.876639
    outer loop
      vertex 5.82305 -4.25 5.34679
      vertex 6.08873 -3.75 5.49261
      vertex 6.08873 -4.25 5.49261
    endloop
  endfacet
  facet normal 0.481148 0 -0.876639
    outer loop
      vertex 6.08873 -3.75 5.49261
      vertex 5.82305 -4.25 5.34679
      vertex 5.82305 -3.75 5.34679
    endloop
  endfacet
  facet normal 0.628027 0 -0.778192
    outer loop
      vertex 5.59073 -4.25 5.1593
      vertex 5.82305 -3.75 5.34679
      vertex 5.82305 -4.25 5.34679
    endloop
  endfacet
  facet normal 0.628027 0 -0.778192
    outer loop
      vertex 5.82305 -3.75 5.34679
      vertex 5.59073 -4.25 5.1593
      vertex 5.59073 -3.75 5.1593
    endloop
  endfacet
  facet normal 0.755409 0 -0.655253
    outer loop
      vertex 5.59073 -4.25 5.1593
      vertex 5.39662 -3.75 4.93552
      vertex 5.59073 -3.75 5.1593
    endloop
  endfacet
  facet normal 0.755409 0 -0.655253
    outer loop
      vertex 5.39662 -3.75 4.93552
      vertex 5.59073 -4.25 5.1593
      vertex 5.39662 -4.25 4.93552
    endloop
  endfacet
  facet normal 0.860267 0 -0.509844
    outer loop
      vertex 5.39662 -4.25 4.93552
      vertex 5.24567 -3.75 4.68082
      vertex 5.39662 -3.75 4.93552
    endloop
  endfacet
  facet normal 0.860267 0 -0.509844
    outer loop
      vertex 5.24567 -3.75 4.68082
      vertex 5.39662 -4.25 4.93552
      vertex 5.24567 -4.25 4.68082
    endloop
  endfacet
  facet normal 0.935538 0 -0.353226
    outer loop
      vertex 5.24567 -4.25 4.68082
      vertex 5.13783 -3.75 4.3952
      vertex 5.24567 -3.75 4.68082
    endloop
  endfacet
  facet normal 0.935538 0 -0.353226
    outer loop
      vertex 5.13783 -3.75 4.3952
      vertex 5.24567 -4.25 4.68082
      vertex 5.13783 -4.25 4.3952
    endloop
  endfacet
  facet normal 0.979752 0 -0.200215
    outer loop
      vertex 5.13783 -4.25 4.3952
      vertex 5.07314 -3.75 4.07864
      vertex 5.13783 -3.75 4.3952
    endloop
  endfacet
  facet normal 0.979752 0 -0.200215
    outer loop
      vertex 5.07314 -3.75 4.07864
      vertex 5.13783 -4.25 4.3952
      vertex 5.07314 -4.25 4.07864
    endloop
  endfacet
  facet normal 0.998077 0 -0.0619902
    outer loop
      vertex 5.07314 -4.25 4.07864
      vertex 5.05156 -3.75 3.73119
      vertex 5.07314 -3.75 4.07864
    endloop
  endfacet
  facet normal 0.998077 0 -0.0619902
    outer loop
      vertex 5.05156 -3.75 3.73119
      vertex 5.07314 -4.25 4.07864
      vertex 5.05156 -4.25 3.73119
    endloop
  endfacet
  facet normal 0.997861 -0 0.0653754
    outer loop
      vertex 5.05156 -4.25 3.73119
      vertex 5.07167 -3.75 3.42424
      vertex 5.05156 -3.75 3.73119
    endloop
  endfacet
  facet normal 0.997861 0 0.0653754
    outer loop
      vertex 5.07167 -3.75 3.42424
      vertex 5.05156 -4.25 3.73119
      vertex 5.07167 -4.25 3.42424
    endloop
  endfacet
  facet normal 0.978029 -0 0.208469
    outer loop
      vertex 5.07167 -4.25 3.42424
      vertex 5.13196 -3.75 3.14139
      vertex 5.07167 -3.75 3.42424
    endloop
  endfacet
  facet normal 0.978029 0 0.208469
    outer loop
      vertex 5.13196 -3.75 3.14139
      vertex 5.07167 -4.25 3.42424
      vertex 5.13196 -4.25 3.14139
    endloop
  endfacet
  facet normal 0.932159 -0 0.36205
    outer loop
      vertex 5.13196 -4.25 3.14139
      vertex 5.23247 -3.75 2.88261
      vertex 5.13196 -3.75 3.14139
    endloop
  endfacet
  facet normal 0.932159 0 0.36205
    outer loop
      vertex 5.23247 -3.75 2.88261
      vertex 5.13196 -4.25 3.14139
      vertex 5.23247 -4.25 2.88261
    endloop
  endfacet
  facet normal 0.857667 -0 0.514206
    outer loop
      vertex 5.23247 -4.25 2.88261
      vertex 5.37317 -3.75 2.64793
      vertex 5.23247 -3.75 2.88261
    endloop
  endfacet
  facet normal 0.857667 0 0.514206
    outer loop
      vertex 5.37317 -3.75 2.64793
      vertex 5.23247 -4.25 2.88261
      vertex 5.37317 -4.25 2.64793
    endloop
  endfacet
  facet normal 0.758557 -0 0.651607
    outer loop
      vertex 5.37317 -4.25 2.64793
      vertex 5.55406 -3.75 2.43735
      vertex 5.37317 -3.75 2.64793
    endloop
  endfacet
  facet normal 0.758557 0 0.651607
    outer loop
      vertex 5.55406 -3.75 2.43735
      vertex 5.37317 -4.25 2.64793
      vertex 5.55406 -4.25 2.43735
    endloop
  endfacet
  facet normal 0.639621 0 0.76869
    outer loop
      vertex 5.55406 -3.75 2.43735
      vertex 5.76882 -4.25 2.25865
      vertex 5.76882 -3.75 2.25865
    endloop
  endfacet
  facet normal 0.639621 0 0.76869
    outer loop
      vertex 5.76882 -4.25 2.25865
      vertex 5.55406 -3.75 2.43735
      vertex 5.55406 -4.25 2.43735
    endloop
  endfacet
  facet normal 0.497638 0 0.867385
    outer loop
      vertex 5.76882 -3.75 2.25865
      vertex 6.01108 -4.25 2.11966
      vertex 6.01108 -3.75 2.11966
    endloop
  endfacet
  facet normal 0.497638 0 0.867385
    outer loop
      vertex 6.01108 -4.25 2.11966
      vertex 5.76882 -3.75 2.25865
      vertex 5.76882 -4.25 2.25865
    endloop
  endfacet
  facet normal 0.345352 0 0.938473
    outer loop
      vertex 6.01108 -3.75 2.11966
      vertex 6.28084 -4.25 2.02039
      vertex 6.28084 -3.75 2.02039
    endloop
  endfacet
  facet normal 0.345352 0 0.938473
    outer loop
      vertex 6.28084 -4.25 2.02039
      vertex 6.01108 -3.75 2.11966
      vertex 6.01108 -4.25 2.11966
    endloop
  endfacet
  facet normal 0.19649 0 0.980506
    outer loop
      vertex 6.28084 -3.75 2.02039
      vertex 6.5781 -4.25 1.96082
      vertex 6.5781 -3.75 1.96082
    endloop
  endfacet
  facet normal 0.19649 0 0.980506
    outer loop
      vertex 6.5781 -4.25 1.96082
      vertex 6.28084 -3.75 2.02039
      vertex 6.28084 -4.25 2.02039
    endloop
  endfacet
  facet normal 0.0610388 0 0.998135
    outer loop
      vertex 6.5781 -3.75 1.96082
      vertex 6.90286 -4.25 1.94096
      vertex 6.90286 -3.75 1.94096
    endloop
  endfacet
  facet normal 0.0610388 0 0.998135
    outer loop
      vertex 6.90286 -4.25 1.94096
      vertex 6.5781 -3.75 1.96082
      vertex 6.5781 -4.25 1.96082
    endloop
  endfacet
  facet normal -0.0534103 0 0.998573
    outer loop
      vertex 6.90286 -3.75 1.94096
      vertex 7.17676 -4.25 1.95561
      vertex 7.17676 -3.75 1.95561
    endloop
  endfacet
  facet normal -0.0534103 0 0.998573
    outer loop
      vertex 7.17676 -4.25 1.95561
      vertex 6.90286 -3.75 1.94096
      vertex 6.90286 -4.25 1.94096
    endloop
  endfacet
  facet normal -0.169616 0 0.98551
    outer loop
      vertex 7.17676 -3.75 1.95561
      vertex 7.43212 -4.25 1.99956
      vertex 7.43212 -3.75 1.99956
    endloop
  endfacet
  facet normal -0.169616 0 0.98551
    outer loop
      vertex 7.43212 -4.25 1.99956
      vertex 7.17676 -3.75 1.95561
      vertex 7.17676 -4.25 1.95561
    endloop
  endfacet
  facet normal -0.295407 0 0.955372
    outer loop
      vertex 7.43212 -3.75 1.99956
      vertex 7.66892 -4.25 2.07278
      vertex 7.66892 -3.75 2.07278
    endloop
  endfacet
  facet normal -0.295407 0 0.955372
    outer loop
      vertex 7.66892 -4.25 2.07278
      vertex 7.43212 -3.75 1.99956
      vertex 7.43212 -4.25 1.99956
    endloop
  endfacet
  facet normal -0.425218 0 0.905091
    outer loop
      vertex 7.66892 -3.75 2.07278
      vertex 7.88718 -4.25 2.17532
      vertex 7.88718 -3.75 2.17532
    endloop
  endfacet
  facet normal -0.425218 0 0.905091
    outer loop
      vertex 7.88718 -4.25 2.17532
      vertex 7.66892 -3.75 2.07278
      vertex 7.66892 -4.25 2.07278
    endloop
  endfacet
  facet normal -0.550875 0 0.834588
    outer loop
      vertex 7.88718 -3.75 2.17532
      vertex 8.08689 -4.25 2.30714
      vertex 8.08689 -3.75 2.30714
    endloop
  endfacet
  facet normal -0.550875 0 0.834588
    outer loop
      vertex 8.08689 -4.25 2.30714
      vertex 7.88718 -3.75 2.17532
      vertex 7.88718 -4.25 2.17532
    endloop
  endfacet
  facet normal 0.998181 0 -0.0602877
    outer loop
      vertex 8.08689 -4.25 2.30714
      vertex 7.97704 -3.75 0.488358
      vertex 8.08689 -3.75 2.30714
    endloop
  endfacet
  facet normal 0.998181 0 -0.0602877
    outer loop
      vertex 7.97704 -3.75 0.488358
      vertex 8.08689 -4.25 2.30714
      vertex 7.97704 -4.25 0.488358
    endloop
  endfacet
  facet normal 0 0 -1
    outer loop
      vertex 5.38523 -4.25 0.488358
      vertex 7.97704 -3.75 0.488358
      vertex 7.97704 -4.25 0.488358
    endloop
  endfacet
  facet normal -0 0 -1
    outer loop
      vertex 7.97704 -3.75 0.488358
      vertex 5.38523 -4.25 0.488358
      vertex 5.38523 -3.75 0.488358
    endloop
  endfacet
  facet normal 1 -0 0
    outer loop
      vertex 5.38523 -4.25 0.488358
      vertex 5.38523 -3.75 -0.134125
      vertex 5.38523 -3.75 0.488358
    endloop
  endfacet
  facet normal 1 0 0
    outer loop
      vertex 5.38523 -3.75 -0.134125
      vertex 5.38523 -4.25 0.488358
      vertex 5.38523 -4.25 -0.134125
    endloop
  endfacet
  facet normal -0 0 1
    outer loop
      vertex 5.38523 -3.75 -0.134125
      vertex 8.64429 -4.25 -0.134125
      vertex 8.64429 -3.75 -0.134125
    endloop
  endfacet
  facet normal 0 0 1
    outer loop
      vertex 8.64429 -4.25 -0.134125
      vertex 5.38523 -3.75 -0.134125
      vertex 5.38523 -4.25 -0.134125
    endloop
  endfacet
  facet normal -0.998083 0 0.0618829
    outer loop
      vertex 8.64429 -4.25 -0.134125
      vertex 8.83551 -3.75 2.94998
      vertex 8.64429 -3.75 -0.134125
    endloop
  endfacet
  facet normal -0.998083 0 0.0618829
    outer loop
      vertex 8.83551 -3.75 2.94998
      vertex 8.64429 -4.25 -0.134125
      vertex 8.83551 -4.25 2.94998
    endloop
  endfacet
  facet normal 0 0 -1
    outer loop
      vertex 8.11942 -4.25 2.94998
      vertex 8.83551 -3.75 2.94998
      vertex 8.83551 -4.25 2.94998
    endloop
  endfacet
  facet normal -0 0 -1
    outer loop
      vertex 8.83551 -3.75 2.94998
      vertex 8.11942 -4.25 2.94998
      vertex 8.11942 -3.75 2.94998
    endloop
  endfacet
  facet normal 0.635057 0 -0.772465
    outer loop
      vertex 8.01688 -4.25 2.86568
      vertex 8.11942 -3.75 2.94998
      vertex 8.11942 -4.25 2.94998
    endloop
  endfacet
  facet normal 0.635057 0 -0.772465
    outer loop
      vertex 8.11942 -3.75 2.94998
      vertex 8.01688 -4.25 2.86568
      vertex 8.01688 -3.75 2.86568
    endloop
  endfacet
  facet normal 0.584713 0 -0.81124
    outer loop
      vertex 7.91435 -4.25 2.79178
      vertex 8.01688 -3.75 2.86568
      vertex 8.01688 -4.25 2.86568
    endloop
  endfacet
  facet normal 0.584713 0 -0.81124
    outer loop
      vertex 8.01688 -3.75 2.86568
      vertex 7.91435 -4.25 2.79178
      vertex 7.91435 -3.75 2.79178
    endloop
  endfacet
  facet normal 0.526326 0 -0.850283
    outer loop
      vertex 7.81183 -4.25 2.72832
      vertex 7.91435 -3.75 2.79178
      vertex 7.91435 -4.25 2.79178
    endloop
  endfacet
  facet normal 0.526326 0 -0.850283
    outer loop
      vertex 7.91435 -3.75 2.79178
      vertex 7.81183 -4.25 2.72832
      vertex 7.81183 -3.75 2.72832
    endloop
  endfacet
  facet normal 0.459574 0 -0.88814
    outer loop
      vertex 7.70929 -4.25 2.67526
      vertex 7.81183 -3.75 2.72832
      vertex 7.81183 -4.25 2.72832
    endloop
  endfacet
  facet normal 0.459574 0 -0.88814
    outer loop
      vertex 7.81183 -3.75 2.72832
      vertex 7.70929 -4.25 2.67526
      vertex 7.70929 -3.75 2.67526
    endloop
  endfacet
  facet normal 0.383873 0 -0.923386
    outer loop
      vertex 7.60677 -4.25 2.63264
      vertex 7.70929 -3.75 2.67526
      vertex 7.70929 -4.25 2.67526
    endloop
  endfacet
  facet normal 0.383873 0 -0.923386
    outer loop
      vertex 7.70929 -3.75 2.67526
      vertex 7.60677 -4.25 2.63264
      vertex 7.60677 -3.75 2.63264
    endloop
  endfacet
  facet normal 0.307721 0 -0.951477
    outer loop
      vertex 7.5026 -4.25 2.59895
      vertex 7.60677 -3.75 2.63264
      vertex 7.60677 -4.25 2.63264
    endloop
  endfacet
  facet normal 0.307721 0 -0.951477
    outer loop
      vertex 7.60677 -3.75 2.63264
      vertex 7.5026 -4.25 2.59895
      vertex 7.5026 -3.75 2.59895
    endloop
  endfacet
  facet normal 0.237021 0 -0.971505
    outer loop
      vertex 7.39517 -4.25 2.57274
      vertex 7.5026 -3.75 2.59895
      vertex 7.5026 -4.25 2.59895
    endloop
  endfacet
  facet normal 0.237021 0 -0.971505
    outer loop
      vertex 7.5026 -3.75 2.59895
      vertex 7.39517 -4.25 2.57274
      vertex 7.39517 -3.75 2.57274
    endloop
  endfacet
  facet normal 0.166768 0 -0.985996
    outer loop
      vertex 7.28449 -4.25 2.55402
      vertex 7.39517 -3.75 2.57274
      vertex 7.39517 -4.25 2.57274
    endloop
  endfacet
  facet normal 0.166768 0 -0.985996
    outer loop
      vertex 7.39517 -3.75 2.57274
      vertex 7.28449 -4.25 2.55402
      vertex 7.28449 -3.75 2.55402
    endloop
  endfacet
  facet normal 0.0980939 0 -0.995177
    outer loop
      vertex 7.17056 -4.25 2.54279
      vertex 7.28449 -3.75 2.55402
      vertex 7.28449 -4.25 2.55402
    endloop
  endfacet
  facet normal 0.0980939 0 -0.995177
    outer loop
      vertex 7.28449 -3.75 2.55402
      vertex 7.17056 -4.25 2.54279
      vertex 7.17056 -3.75 2.54279
    endloop
  endfacet
  facet normal 0.0319086 0 -0.999491
    outer loop
      vertex 7.05341 -4.25 2.53905
      vertex 7.17056 -3.75 2.54279
      vertex 7.17056 -4.25 2.54279
    endloop
  endfacet
  facet normal 0.0319086 0 -0.999491
    outer loop
      vertex 7.17056 -3.75 2.54279
      vertex 7.05341 -4.25 2.53905
      vertex 7.05341 -3.75 2.53905
    endloop
  endfacet
  facet normal -0.0608964 0 -0.998144
    outer loop
      vertex 6.83492 -4.25 2.55238
      vertex 7.05341 -3.75 2.53905
      vertex 7.05341 -4.25 2.53905
    endloop
  endfacet
  facet normal -0.0608964 0 -0.998144
    outer loop
      vertex 7.05341 -3.75 2.53905
      vertex 6.83492 -4.25 2.55238
      vertex 6.83492 -3.75 2.55238
    endloop
  endfacet
  facet normal -0.196503 0 -0.980503
    outer loop
      vertex 6.63513 -4.25 2.59242
      vertex 6.83492 -3.75 2.55238
      vertex 6.83492 -4.25 2.55238
    endloop
  endfacet
  facet normal -0.196503 0 -0.980503
    outer loop
      vertex 6.83492 -3.75 2.55238
      vertex 6.63513 -4.25 2.59242
      vertex 6.63513 -3.75 2.59242
    endloop
  endfacet
  facet normal -0.345859 0 -0.938286
    outer loop
      vertex 6.45407 -4.25 2.65916
      vertex 6.63513 -3.75 2.59242
      vertex 6.63513 -4.25 2.59242
    endloop
  endfacet
  facet normal -0.345859 0 -0.938286
    outer loop
      vertex 6.63513 -3.75 2.59242
      vertex 6.45407 -4.25 2.65916
      vertex 6.45407 -3.75 2.65916
    endloop
  endfacet
  facet normal -0.49877 0 -0.866734
    outer loop
      vertex 6.29173 -4.25 2.75258
      vertex 6.45407 -3.75 2.65916
      vertex 6.45407 -4.25 2.65916
    endloop
  endfacet
  facet normal -0.49877 0 -0.866734
    outer loop
      vertex 6.45407 -3.75 2.65916
      vertex 6.29173 -4.25 2.75258
      vertex 6.29173 -3.75 2.75258
    endloop
  endfacet
  facet normal -0.641586 0 -0.767051
    outer loop
      vertex 6.14812 -4.25 2.8727
      vertex 6.29173 -3.75 2.75258
      vertex 6.29173 -4.25 2.75258
    endloop
  endfacet
  facet normal -0.641586 0 -0.767051
    outer loop
      vertex 6.29173 -3.75 2.75258
      vertex 6.14812 -4.25 2.8727
      vertex 6.14812 -3.75 2.8727
    endloop
  endfacet
  facet normal -0.760978 0 -0.648777
    outer loop
      vertex 6.14812 -4.25 2.8727
      vertex 6.02727 -3.75 3.01445
      vertex 6.14812 -3.75 2.8727
    endloop
  endfacet
  facet normal -0.760978 -0 -0.648777
    outer loop
      vertex 6.02727 -3.75 3.01445
      vertex 6.14812 -4.25 2.8727
      vertex 6.02727 -4.25 3.01445
    endloop
  endfacet
  facet normal -0.859913 0 -0.510441
    outer loop
      vertex 6.02727 -4.25 3.01445
      vertex 5.93328 -3.75 3.17279
      vertex 6.02727 -3.75 3.01445
    endloop
  endfacet
  facet normal -0.859913 -0 -0.510441
    outer loop
      vertex 5.93328 -3.75 3.17279
      vertex 6.02727 -4.25 3.01445
      vertex 5.93328 -4.25 3.17279
    endloop
  endfacet
  facet normal -0.933604 0 -0.358307
    outer loop
      vertex 5.93328 -4.25 3.17279
      vertex 5.86614 -3.75 3.34773
      vertex 5.93328 -3.75 3.17279
    endloop
  endfacet
  facet normal -0.933604 -0 -0.358307
    outer loop
      vertex 5.86614 -3.75 3.34773
      vertex 5.93328 -4.25 3.17279
      vertex 5.86614 -4.25 3.34773
    endloop
  endfacet
  facet normal -0.978589 0 -0.205823
    outer loop
      vertex 5.86614 -4.25 3.34773
      vertex 5.82585 -3.75 3.53929
      vertex 5.86614 -3.75 3.34773
    endloop
  endfacet
  facet normal -0.978589 -0 -0.205823
    outer loop
      vertex 5.82585 -3.75 3.53929
      vertex 5.86614 -4.25 3.34773
      vertex 5.82585 -4.25 3.53929
    endloop
  endfacet
  facet normal -0.997928 0 -0.0643392
    outer loop
      vertex 5.82585 -4.25 3.53929
      vertex 5.81243 -3.75 3.74744
      vertex 5.82585 -3.75 3.53929
    endloop
  endfacet
  facet normal -0.997928 -0 -0.0643392
    outer loop
      vertex 5.81243 -3.75 3.74744
      vertex 5.82585 -4.25 3.53929
      vertex 5.81243 -4.25 3.74744
    endloop
  endfacet
  facet normal -0.998435 0 0.0559177
    outer loop
      vertex 5.81243 -4.25 3.74744
      vertex 5.82578 -3.75 3.98581
      vertex 5.81243 -3.75 3.74744
    endloop
  endfacet
  facet normal -0.998435 0 0.0559177
    outer loop
      vertex 5.82578 -3.75 3.98581
      vertex 5.81243 -4.25 3.74744
      vertex 5.82578 -4.25 3.98581
    endloop
  endfacet
  facet normal -0.983406 0 0.181421
    outer loop
      vertex 5.82578 -4.25 3.98581
      vertex 5.86582 -3.75 4.20285
      vertex 5.82578 -3.75 3.98581
    endloop
  endfacet
  facet normal -0.983406 0 0.181421
    outer loop
      vertex 5.86582 -3.75 4.20285
      vertex 5.82578 -4.25 3.98581
      vertex 5.86582 -4.25 4.20285
    endloop
  endfacet
  facet normal -0.946509 0 0.322677
    outer loop
      vertex 5.86582 -4.25 4.20285
      vertex 5.93254 -3.75 4.39856
      vertex 5.86582 -3.75 4.20285
    endloop
  endfacet
  facet normal -0.946509 0 0.322677
    outer loop
      vertex 5.93254 -3.75 4.39856
      vertex 5.86582 -4.25 4.20285
      vertex 5.93254 -4.25 4.39856
    endloop
  endfacet
  facet normal -0.881488 0 0.472206
    outer loop
      vertex 5.93254 -4.25 4.39856
      vertex 6.02597 -3.75 4.57297
      vertex 5.93254 -3.75 4.39856
    endloop
  endfacet
  facet normal -0.881488 0 0.472206
    outer loop
      vertex 6.02597 -3.75 4.57297
      vertex 5.93254 -4.25 4.39856
      vertex 6.02597 -4.25 4.57297
    endloop
  endfacet
  facet normal -0.786691 0 0.617347
    outer loop
      vertex 6.02597 -4.25 4.57297
      vertex 6.14609 -3.75 4.72604
      vertex 6.02597 -3.75 4.57297
    endloop
  endfacet
  facet normal -0.786691 0 0.617347
    outer loop
      vertex 6.14609 -3.75 4.72604
      vertex 6.02597 -4.25 4.57297
      vertex 6.14609 -4.25 4.72604
    endloop
  endfacet
  facet normal -0.665575 0 0.746331
    outer loop
      vertex 6.14609 -3.75 4.72604
      vertex 6.2898 -4.25 4.8542
      vertex 6.2898 -3.75 4.8542
    endloop
  endfacet
  facet normal -0.665575 0 0.746331
    outer loop
      vertex 6.2898 -4.25 4.8542
      vertex 6.14609 -3.75 4.72604
      vertex 6.14609 -4.25 4.72604
    endloop
  endfacet
  facet normal -0.518868 0 0.854854
    outer loop
      vertex 6.2898 -3.75 4.8542
      vertex 6.45401 -4.25 4.95387
      vertex 6.45401 -3.75 4.95387
    endloop
  endfacet
  facet normal -0.518868 0 0.854854
    outer loop
      vertex 6.45401 -4.25 4.95387
      vertex 6.2898 -3.75 4.8542
      vertex 6.2898 -4.25 4.8542
    endloop
  endfacet
  facet normal -0.359656 0 0.933085
    outer loop
      vertex 6.45401 -3.75 4.95387
      vertex 6.63873 -4.25 5.02507
      vertex 6.63873 -3.75 5.02507
    endloop
  endfacet
  facet normal -0.359656 0 0.933085
    outer loop
      vertex 6.63873 -4.25 5.02507
      vertex 6.45401 -3.75 4.95387
      vertex 6.45401 -4.25 4.95387
    endloop
  endfacet
  facet normal -0.203752 0 0.979022
    outer loop
      vertex 6.63873 -3.75 5.02507
      vertex 6.84395 -4.25 5.06778
      vertex 6.84395 -3.75 5.06778
    endloop
  endfacet
  facet normal -0.203752 0 0.979022
    outer loop
      vertex 6.84395 -4.25 5.06778
      vertex 6.63873 -3.75 5.02507
      vertex 6.63873 -4.25 5.02507
    endloop
  endfacet
  facet normal -0.0629618 0 0.998016
    outer loop
      vertex 6.84395 -3.75 5.06778
      vertex 7.06967 -4.25 5.08202
      vertex 7.06967 -3.75 5.08202
    endloop
  endfacet
  facet normal -0.0629618 0 0.998016
    outer loop
      vertex 7.06967 -4.25 5.08202
      vertex 6.84395 -3.75 5.06778
      vertex 6.84395 -4.25 5.06778
    endloop
  endfacet
  facet normal 0.0954099 0 0.995438
    outer loop
      vertex 7.06967 -3.75 5.08202
      vertex 7.42461 -4.25 5.048
      vertex 7.42461 -3.75 5.048
    endloop
  endfacet
  facet normal 0.0954099 0 0.995438
    outer loop
      vertex 7.42461 -4.25 5.048
      vertex 7.06967 -3.75 5.08202
      vertex 7.06967 -4.25 5.08202
    endloop
  endfacet
  facet normal 0.325182 0 0.945651
    outer loop
      vertex 7.42461 -3.75 5.048
      vertex 7.72132 -4.25 4.94597
      vertex 7.72132 -3.75 4.94597
    endloop
  endfacet
  facet normal 0.325182 0 0.945651
    outer loop
      vertex 7.72132 -4.25 4.94597
      vertex 7.42461 -3.75 5.048
      vertex 7.42461 -4.25 5.048
    endloop
  endfacet
  facet normal 0.580779 0 0.814061
    outer loop
      vertex 7.72132 -3.75 4.94597
      vertex 7.95973 -4.25 4.77588
      vertex 7.95973 -3.75 4.77588
    endloop
  endfacet
  facet normal 0.580779 0 0.814061
    outer loop
      vertex 7.95973 -4.25 4.77588
      vertex 7.72132 -3.75 4.94597
      vertex 7.72132 -4.25 4.94597
    endloop
  endfacet
  facet normal 0.797445 -0 0.603392
    outer loop
      vertex 7.95973 -4.25 4.77588
      vertex 8.13989 -3.75 4.53778
      vertex 7.95973 -3.75 4.77588
    endloop
  endfacet
  facet normal 0.797445 0 0.603392
    outer loop
      vertex 8.13989 -3.75 4.53778
      vertex 7.95973 -4.25 4.77588
      vertex 8.13989 -4.25 4.53778
    endloop
  endfacet
  facet normal 0.929047 -0 0.369962
    outer loop
      vertex 8.13989 -4.25 4.53778
      vertex 8.2618 -3.75 4.23164
      vertex 8.13989 -3.75 4.53778
    endloop
  endfacet
  facet normal 0.929047 0 0.369962
    outer loop
      vertex 8.2618 -3.75 4.23164
      vertex 8.13989 -4.25 4.53778
      vertex 8.2618 -4.25 4.23164
    endloop
  endfacet
  facet normal -0.11462 0 0.993409
    outer loop
      vertex 8.2618 -3.75 4.23164
      vertex 9.00231 -4.25 4.31708
      vertex 9.00231 -3.75 4.31708
    endloop
  endfacet
  facet normal -0.11462 0 0.993409
    outer loop
      vertex 9.00231 -4.25 4.31708
      vertex 8.2618 -3.75 4.23164
      vertex 8.2618 -4.25 4.23164
    endloop
  endfacet
  facet normal -0.967028 0 -0.25467
    outer loop
      vertex 9.00231 -4.25 4.31708
      vertex 8.93575 -3.75 4.56982
      vertex 9.00231 -3.75 4.31708
    endloop
  endfacet
  facet normal -0.967028 -0 -0.25467
    outer loop
      vertex 8.93575 -3.75 4.56982
      vertex 9.00231 -4.25 4.31708
      vertex 8.93575 -4.25 4.56982
    endloop
  endfacet
  facet normal -0.922106 0 -0.386938
    outer loop
      vertex 8.93575 -4.25 4.56982
      vertex 8.84021 -3.75 4.7975
      vertex 8.93575 -3.75 4.56982
    endloop
  endfacet
  facet normal -0.922106 -0 -0.386938
    outer loop
      vertex 8.84021 -3.75 4.7975
      vertex 8.93575 -4.25 4.56982
      vertex 8.84021 -4.25 4.7975
    endloop
  endfacet
  facet normal -0.852032 0 -0.52349
    outer loop
      vertex 8.84021 -4.25 4.7975
      vertex 8.71572 -3.75 5.00012
      vertex 8.84021 -3.75 4.7975
    endloop
  endfacet
  facet normal -0.852032 -0 -0.52349
    outer loop
      vertex 8.71572 -3.75 5.00012
      vertex 8.84021 -4.25 4.7975
      vertex 8.71572 -4.25 5.00012
    endloop
  endfacet
  facet normal -0.756561 0 -0.653923
    outer loop
      vertex 8.71572 -4.25 5.00012
      vertex 8.56224 -3.75 5.17769
      vertex 8.71572 -3.75 5.00012
    endloop
  endfacet
  facet normal -0.756561 -0 -0.653923
    outer loop
      vertex 8.56224 -3.75 5.17769
      vertex 8.71572 -4.25 5.00012
      vertex 8.56224 -4.25 5.17769
    endloop
  endfacet
  facet normal -0.641338 0 -0.767259
    outer loop
      vertex 8.37981 -4.25 5.33018
      vertex 8.56224 -3.75 5.17769
      vertex 8.56224 -4.25 5.17769
    endloop
  endfacet
  facet normal -0.641338 0 -0.767259
    outer loop
      vertex 8.56224 -3.75 5.17769
      vertex 8.37981 -4.25 5.33018
      vertex 8.37981 -3.75 5.33018
    endloop
  endfacet
  facet normal -0.515687 0 -0.856777
    outer loop
      vertex 8.17052 -4.25 5.45615
      vertex 8.37981 -3.75 5.33018
      vertex 8.37981 -4.25 5.33018
    endloop
  endfacet
  facet normal -0.515687 0 -0.856777
    outer loop
      vertex 8.37981 -3.75 5.33018
      vertex 8.17052 -4.25 5.45615
      vertex 8.17052 -3.75 5.45615
    endloop
  endfacet
  facet normal -0.386218 0 -0.922407
    outer loop
      vertex 7.93649 -4.25 5.55414
      vertex 8.17052 -3.75 5.45615
      vertex 8.17052 -4.25 5.45615
    endloop
  endfacet
  facet normal -0.386218 0 -0.922407
    outer loop
      vertex 8.17052 -3.75 5.45615
      vertex 7.93649 -4.25 5.55414
      vertex 7.93649 -3.75 5.55414
    endloop
  endfacet
  facet normal -0.261021 0 -0.965333
    outer loop
      vertex 7.67772 -4.25 5.62411
      vertex 7.93649 -3.75 5.55414
      vertex 7.93649 -4.25 5.55414
    endloop
  endfacet
  facet normal -0.261021 0 -0.965333
    outer loop
      vertex 7.93649 -3.75 5.55414
      vertex 7.67772 -4.25 5.62411
      vertex 7.67772 -3.75 5.62411
    endloop
  endfacet
  facet normal -0.146544 0 -0.989204
    outer loop
      vertex 7.39421 -4.25 5.66611
      vertex 7.67772 -3.75 5.62411
      vertex 7.67772 -4.25 5.62411
    endloop
  endfacet
  facet normal -0.146544 0 -0.989204
    outer loop
      vertex 7.67772 -3.75 5.62411
      vertex 7.39421 -4.25 5.66611
      vertex 7.39421 -3.75 5.66611
    endloop
  endfacet
  facet normal -0.04534 0 -0.998972
    outer loop
      vertex 7.08597 -4.25 5.6801
      vertex 7.39421 -3.75 5.66611
      vertex 7.39421 -4.25 5.66611
    endloop
  endfacet
  facet normal -0.04534 0 -0.998972
    outer loop
      vertex 7.39421 -3.75 5.66611
      vertex 7.08597 -4.25 5.6801
      vertex 7.08597 -3.75 5.6801
    endloop
  endfacet
  facet normal 0.0568562 0 -0.998382
    outer loop
      vertex 6.7202 -4.25 5.65927
      vertex 7.08597 -3.75 5.6801
      vertex 7.08597 -4.25 5.6801
    endloop
  endfacet
  facet normal 0.0568562 0 -0.998382
    outer loop
      vertex 7.08597 -3.75 5.6801
      vertex 6.7202 -4.25 5.65927
      vertex 6.7202 -3.75 5.65927
    endloop
  endfacet
  facet normal 0 0.993726 -0.111845
    outer loop
      vertex 15.146 -1.46537 8.60864
      vertex -1 -1.45 8.7452
      vertex 15.146 -1.45 8.7452
    endloop
  endfacet
  facet normal 0 0.993726 -0.111845
    outer loop
      vertex -1 -1.45 8.7452
      vertex 15.146 -1.46537 8.60864
      vertex -1 -1.46537 8.60864
    endloop
  endfacet
  facet normal 0 0.853397 0.521262
    outer loop
      vertex 15.146 -1.5109 9.01308
      vertex -1 -1.58482 9.1341
      vertex 15.146 -1.58482 9.1341
    endloop
  endfacet
  facet normal 0 0.853397 0.521262
    outer loop
      vertex -1 -1.58482 9.1341
      vertex 15.146 -1.5109 9.01308
      vertex -1 -1.5109 9.01308
    endloop
  endfacet
  facet normal 0 0.583309 -0.81225
    outer loop
      vertex -1 -1.80554 8.16317
      vertex 15.146 -1.68431 8.25023
      vertex 15.146 -1.80554 8.16317
    endloop
  endfacet
  facet normal 0 0.583309 -0.81225
    outer loop
      vertex 15.146 -1.68431 8.25023
      vertex -1 -1.80554 8.16317
      vertex -1 -1.68431 8.25023
    endloop
  endfacet
  facet normal 0 0.944823 0.32758
    outer loop
      vertex 15.146 -1.46537 8.88176
      vertex -1 -1.5109 9.01308
      vertex 15.146 -1.5109 9.01308
    endloop
  endfacet
  facet normal 0 0.944823 0.32758
    outer loop
      vertex -1 -1.5109 9.01308
      vertex 15.146 -1.46537 8.88176
      vertex -1 -1.46537 8.88176
    endloop
  endfacet
  facet normal 0 0.853397 -0.521262
    outer loop
      vertex 15.146 -1.58482 8.3563
      vertex -1 -1.5109 8.47732
      vertex 15.146 -1.5109 8.47732
    endloop
  endfacet
  facet normal 0 0.853397 -0.521262
    outer loop
      vertex -1 -1.5109 8.47732
      vertex 15.146 -1.58482 8.3563
      vertex -1 -1.58482 8.3563
    endloop
  endfacet
  facet normal 0 0.944823 -0.32758
    outer loop
      vertex 15.146 -1.5109 8.47732
      vertex -1 -1.46537 8.60864
      vertex 15.146 -1.46537 8.60864
    endloop
  endfacet
  facet normal 0 0.944823 -0.32758
    outer loop
      vertex -1 -1.46537 8.60864
      vertex 15.146 -1.5109 8.47732
      vertex -1 -1.5109 8.47732
    endloop
  endfacet
  facet normal 0 0.423667 -0.905818
    outer loop
      vertex -1 -1.94385 8.09848
      vertex 15.146 -1.80554 8.16317
      vertex 15.146 -1.94385 8.09848
    endloop
  endfacet
  facet normal 0 0.423667 -0.905818
    outer loop
      vertex 15.146 -1.80554 8.16317
      vertex -1 -1.94385 8.09848
      vertex -1 -1.80554 8.16317
    endloop
  endfacet
  facet normal 0 0.256512 -0.966541
    outer loop
      vertex -1 -2.09393 8.05865
      vertex 15.146 -1.94385 8.09848
      vertex 15.146 -2.09393 8.05865
    endloop
  endfacet
  facet normal 0 0.256512 -0.966541
    outer loop
      vertex 15.146 -1.94385 8.09848
      vertex -1 -2.09393 8.05865
      vertex -1 -1.94385 8.09848
    endloop
  endfacet
  facet normal -0 0.085861 0.996307
    outer loop
      vertex -1 -2.09393 9.43175
      vertex 15.146 -2.25 9.4452
      vertex 15.146 -2.09393 9.43175
    endloop
  endfacet
  facet normal 0 0.085861 0.996307
    outer loop
      vertex 15.146 -2.25 9.4452
      vertex -1 -2.09393 9.43175
      vertex -1 -2.25 9.4452
    endloop
  endfacet
  facet normal 0 0.993726 0.111845
    outer loop
      vertex 15.146 -1.45 8.7452
      vertex -1 -1.46537 8.88176
      vertex 15.146 -1.46537 8.88176
    endloop
  endfacet
  facet normal 0 0.993726 0.111845
    outer loop
      vertex -1 -1.46537 8.88176
      vertex 15.146 -1.45 8.7452
      vertex -1 -1.45 8.7452
    endloop
  endfacet
  facet normal 0 0.085861 -0.996307
    outer loop
      vertex -1 -2.25 8.0452
      vertex 15.146 -2.09393 8.05865
      vertex 15.146 -2.25 8.0452
    endloop
  endfacet
  facet normal 0 0.085861 -0.996307
    outer loop
      vertex 15.146 -2.09393 8.05865
      vertex -1 -2.25 8.0452
      vertex -1 -2.09393 8.05865
    endloop
  endfacet
  facet normal 0 0.729368 0.684122
    outer loop
      vertex 15.146 -1.58482 9.1341
      vertex -1 -1.68431 9.24017
      vertex 15.146 -1.68431 9.24017
    endloop
  endfacet
  facet normal 0 0.729368 0.684122
    outer loop
      vertex -1 -1.68431 9.24017
      vertex 15.146 -1.58482 9.1341
      vertex -1 -1.58482 9.1341
    endloop
  endfacet
  facet normal 0 0.729368 -0.684122
    outer loop
      vertex 15.146 -1.68431 8.25023
      vertex -1 -1.58482 8.3563
      vertex 15.146 -1.58482 8.3563
    endloop
  endfacet
  facet normal 0 0.729368 -0.684122
    outer loop
      vertex -1 -1.58482 8.3563
      vertex 15.146 -1.68431 8.25023
      vertex -1 -1.68431 8.25023
    endloop
  endfacet
  facet normal -0 0.423667 0.905818
    outer loop
      vertex -1 -1.80554 9.32723
      vertex 15.146 -1.94385 9.39192
      vertex 15.146 -1.80554 9.32723
    endloop
  endfacet
  facet normal 0 0.423667 0.905818
    outer loop
      vertex 15.146 -1.94385 9.39192
      vertex -1 -1.80554 9.32723
      vertex -1 -1.94385 9.39192
    endloop
  endfacet
  facet normal -0 0.583309 0.81225
    outer loop
      vertex -1 -1.68431 9.24017
      vertex 15.146 -1.80554 9.32723
      vertex 15.146 -1.68431 9.24017
    endloop
  endfacet
  facet normal 0 0.583309 0.81225
    outer loop
      vertex 15.146 -1.80554 9.32723
      vertex -1 -1.68431 9.24017
      vertex -1 -1.80554 9.32723
    endloop
  endfacet
  facet normal -0 0.256512 0.966541
    outer loop
      vertex -1 -1.94385 9.39192
      vertex 15.146 -2.09393 9.43175
      vertex 15.146 -1.94385 9.39192
    endloop
  endfacet
  facet normal 0 0.256512 0.966541
    outer loop
      vertex 15.146 -2.09393 9.43175
      vertex -1 -1.94385 9.39192
      vertex -1 -2.09393 9.43175
    endloop
  endfacet
endsolid OpenSCAD_Model
