solid OpenSCAD_Model
  facet normal 1 0 0
    outer loop
      vertex 19.1 0 10.7
      vertex 19.1 0.799999 10.7
      vertex 19.1 0.784628 10.8561
    endloop
  endfacet
  facet normal 1 0 0
    outer loop
      vertex 19.1 0.230969 6.40987
      vertex 19.1 5.8 9.5
      vertex 19.1 0.799999 9.5
    endloop
  endfacet
  facet normal 1 0 0
    outer loop
      vertex 19.1 0 10.7
      vertex 19.1 0.784628 10.8561
      vertex 19.1 0.739103 11.0061
    endloop
  endfacet
  facet normal 1 0 0
    outer loop
      vertex 19.1 0 10.7
      vertex 19.1 0.739103 11.0061
      vertex 19.1 0.665175 11.1445
    endloop
  endfacet
  facet normal 1 0 0
    outer loop
      vertex 19.1 0 10.7
      vertex 19.1 0.665175 11.1445
      vertex 19.1 0.565685 11.2657
    endloop
  endfacet
  facet normal 1 0 0
    outer loop
      vertex 19.1 0 10.7
      vertex 19.1 0.565685 11.2657
      vertex 19.1 0.444456 11.3652
    endloop
  endfacet
  facet normal 1 0 0
    outer loop
      vertex 19.1 0 10.7
      vertex 19.1 0.444456 11.3652
      vertex 19.1 0.306147 11.4391
    endloop
  endfacet
  facet normal 1 0 0
    outer loop
      vertex 19.1 0.799999 10.7
      vertex 19.1 0 10.7
      vertex 19.1 0.799999 9.5
    endloop
  endfacet
  facet normal 1 0 0
    outer loop
      vertex 19.1 0.245195 6.26543
      vertex 19.1 5.8 9.5
      vertex 19.1 0.25 6.3142
    endloop
  endfacet
  facet normal 1 0 0
    outer loop
      vertex 19.1 0.230969 6.21853
      vertex 19.1 5.8 9.5
      vertex 19.1 0.245195 6.26543
    endloop
  endfacet
  facet normal 1 0 0
    outer loop
      vertex 19.1 5.8 9.5
      vertex 19.1 0.230969 6.21853
      vertex 19.1 5.8 -2
    endloop
  endfacet
  facet normal 1 -0 0
    outer loop
      vertex 19.1 0.207867 6.17531
      vertex 19.1 5.8 -2
      vertex 19.1 0.230969 6.21853
    endloop
  endfacet
  facet normal 1 -0 0
    outer loop
      vertex 19.1 0.176776 6.13742
      vertex 19.1 5.8 -2
      vertex 19.1 0.207867 6.17531
    endloop
  endfacet
  facet normal 1 -0 0
    outer loop
      vertex 19.1 0.138892 6.10633
      vertex 19.1 5.8 -2
      vertex 19.1 0.176776 6.13742
    endloop
  endfacet
  facet normal 1 0 0
    outer loop
      vertex 19.1 0 -2
      vertex 19.1 0.138892 6.10633
      vertex 19.1 0.0956707 6.08323
    endloop
  endfacet
  facet normal 1 0 0
    outer loop
      vertex 19.1 0 -2
      vertex 19.1 0.0956707 6.08323
      vertex 19.1 0.0487719 6.069
    endloop
  endfacet
  facet normal 1 0 0
    outer loop
      vertex 19.1 0 -2
      vertex 19.1 0.0487719 6.069
      vertex 19.1 0 6.0642
    endloop
  endfacet
  facet normal 1 0 0
    outer loop
      vertex 19.1 0.138892 6.10633
      vertex 19.1 0 -2
      vertex 19.1 5.8 -2
    endloop
  endfacet
  facet normal 1 0 0
    outer loop
      vertex 19.1 5.8 9.5
      vertex 19.1 0.245195 6.36297
      vertex 19.1 0.25 6.3142
    endloop
  endfacet
  facet normal 1 0 0
    outer loop
      vertex 19.1 5.8 9.5
      vertex 19.1 0.230969 6.40987
      vertex 19.1 0.245195 6.36297
    endloop
  endfacet
  facet normal 1 0 0
    outer loop
      vertex 19.1 0 6.5642
      vertex 19.1 0.799999 9.5
      vertex 19.1 0 10.7
    endloop
  endfacet
  facet normal 1 0 0
    outer loop
      vertex 19.1 0.799999 9.5
      vertex 19.1 0.207867 6.45309
      vertex 19.1 0.230969 6.40987
    endloop
  endfacet
  facet normal 1 0 0
    outer loop
      vertex 19.1 0 10.7
      vertex 19.1 0.306147 11.4391
      vertex 19.1 0.156072 11.4846
    endloop
  endfacet
  facet normal 1 0 0
    outer loop
      vertex 19.1 0.799999 9.5
      vertex 19.1 0.176776 6.49098
      vertex 19.1 0.207867 6.45309
    endloop
  endfacet
  facet normal 1 0 0
    outer loop
      vertex 19.1 0.799999 9.5
      vertex 19.1 0.138892 6.52207
      vertex 19.1 0.176776 6.49098
    endloop
  endfacet
  facet normal 1 0 0
    outer loop
      vertex 19.1 0.799999 9.5
      vertex 19.1 0.0956707 6.54517
      vertex 19.1 0.138892 6.52207
    endloop
  endfacet
  facet normal 1 0 0
    outer loop
      vertex 19.1 0 10.7
      vertex 19.1 0.156072 11.4846
      vertex 19.1 0 11.5
    endloop
  endfacet
  facet normal 1 0 0
    outer loop
      vertex 19.1 0.799999 9.5
      vertex 19.1 0.0487719 6.5594
      vertex 19.1 0.0956707 6.54517
    endloop
  endfacet
  facet normal 1 0 0
    outer loop
      vertex 19.1 0.799999 9.5
      vertex 19.1 0 6.5642
      vertex 19.1 0.0487719 6.5594
    endloop
  endfacet
  facet normal -0 0 1
    outer loop
      vertex -1 5.8 9.5
      vertex 0 0.799999 9.5
      vertex 0 5.8 9.5
    endloop
  endfacet
  facet normal 0 0 1
    outer loop
      vertex 0 0.799999 9.5
      vertex -1 5.8 9.5
      vertex -1 0.799999 9.5
    endloop
  endfacet
  facet normal -0 0 1
    outer loop
      vertex 18.1 5.8 9.5
      vertex 19.1 0.799999 9.5
      vertex 19.1 5.8 9.5
    endloop
  endfacet
  facet normal 0 0 1
    outer loop
      vertex 19.1 0.799999 9.5
      vertex 18.1 5.8 9.5
      vertex 18.1 0.799999 9.5
    endloop
  endfacet
  facet normal 0 0 -1
    outer loop
      vertex 15.146 -4.25 -2
      vertex -1 -4.25 -2
      vertex 15.146 0 -2
    endloop
  endfacet
  facet normal 0 0 -1
    outer loop
      vertex 15.146 0 -2
      vertex 19.1 5.8 -2
      vertex 19.1 0 -2
    endloop
  endfacet
  facet normal 0 0 -1
    outer loop
      vertex -1 5.8 -2
      vertex 15.146 0 -2
      vertex -1 -4.25 -2
    endloop
  endfacet
  facet normal 0 0 -1
    outer loop
      vertex 15.146 0 -2
      vertex -1 5.8 -2
      vertex 19.1 5.8 -2
    endloop
  endfacet
  facet normal -1 0 0
    outer loop
      vertex -1 0 6.5642
      vertex -1 5.8 9.5
      vertex -1 5.8 -2
    endloop
  endfacet
  facet normal -1 0 0
    outer loop
      vertex -1 0 10.7
      vertex -1 0.799999 10.7
      vertex -1 0.799999 9.5
    endloop
  endfacet
  facet normal -1 0 0
    outer loop
      vertex -1 0.799999 10.7
      vertex -1 0 10.7
      vertex -1 0.784628 10.8561
    endloop
  endfacet
  facet normal -1 -0 0
    outer loop
      vertex -1 0.784628 10.8561
      vertex -1 0 10.7
      vertex -1 0.739103 11.0061
    endloop
  endfacet
  facet normal -1 -0 0
    outer loop
      vertex -1 0.739103 11.0061
      vertex -1 0 10.7
      vertex -1 0.665175 11.1445
    endloop
  endfacet
  facet normal -1 -0 0
    outer loop
      vertex -1 0.665175 11.1445
      vertex -1 0 10.7
      vertex -1 0.565685 11.2657
    endloop
  endfacet
  facet normal -1 -0 0
    outer loop
      vertex -1 0.565685 11.2657
      vertex -1 0 10.7
      vertex -1 0.444456 11.3652
    endloop
  endfacet
  facet normal -1 -0 0
    outer loop
      vertex -1 0.444456 11.3652
      vertex -1 0 10.7
      vertex -1 0.306147 11.4391
    endloop
  endfacet
  facet normal -1 0 0
    outer loop
      vertex -1 0 10.7
      vertex -1 0.799999 9.5
      vertex -1 0 6.5642
    endloop
  endfacet
  facet normal -1 -0 0
    outer loop
      vertex -1 5.8 9.5
      vertex -1 0 6.5642
      vertex -1 0.799999 9.5
    endloop
  endfacet
  facet normal -1 0 0
    outer loop
      vertex -1 -4.25 -2
      vertex -1 0 6.5642
      vertex -1 5.8 -2
    endloop
  endfacet
  facet normal -1 0 0
    outer loop
      vertex -1 -4.25 12.3502
      vertex -1 -2.25 7.6642
      vertex -1 -2.25 6.5642
    endloop
  endfacet
  facet normal -1 0 0
    outer loop
      vertex -1 -2.25 7.6642
      vertex -1 -4.25 12.3502
      vertex -1 -2.25 9.0642
    endloop
  endfacet
  facet normal -1 -0 0
    outer loop
      vertex -1 0 6.5642
      vertex -1 -4.25 -2
      vertex -1 -2.25 6.5642
    endloop
  endfacet
  facet normal -1 0 0
    outer loop
      vertex -1 -4.25 12.3502
      vertex -1 -2.25 6.5642
      vertex -1 -4.25 -2
    endloop
  endfacet
  facet normal -1 0 0
    outer loop
      vertex -1 -2.25 9.0642
      vertex -1 -4.25 12.3502
      vertex -1 -2.25 12.3502
    endloop
  endfacet
  facet normal -1 -0 0
    outer loop
      vertex -1 0.306147 11.4391
      vertex -1 0 10.7
      vertex -1 0.156072 11.4846
    endloop
  endfacet
  facet normal -1 0 0
    outer loop
      vertex -1 0 11.5
      vertex -1 0.156072 11.4846
      vertex -1 0 10.7
    endloop
  endfacet
  facet normal -1 0 0
    outer loop
      vertex -1 -1.46537 8.22764
      vertex -1 -1.46537 8.50076
      vertex -1 -1.45 8.3642
    endloop
  endfacet
  facet normal -1 0 0
    outer loop
      vertex -1 -1.5109 8.09632
      vertex -1 -1.46537 8.50076
      vertex -1 -1.46537 8.22764
    endloop
  endfacet
  facet normal -1 0 0
    outer loop
      vertex -1 -1.5109 8.09632
      vertex -1 -1.5109 8.63208
      vertex -1 -1.46537 8.50076
    endloop
  endfacet
  facet normal -1 0 0
    outer loop
      vertex -1 -1.58482 7.9753
      vertex -1 -1.5109 8.63208
      vertex -1 -1.5109 8.09632
    endloop
  endfacet
  facet normal -1 0 0
    outer loop
      vertex -1 -1.58482 7.9753
      vertex -1 -1.58482 8.7531
      vertex -1 -1.5109 8.63208
    endloop
  endfacet
  facet normal -1 0 0
    outer loop
      vertex -1 -1.68431 7.86922
      vertex -1 -1.58482 8.7531
      vertex -1 -1.58482 7.9753
    endloop
  endfacet
  facet normal -1 0 0
    outer loop
      vertex -1 -1.68431 7.86922
      vertex -1 -1.68431 8.85917
      vertex -1 -1.58482 8.7531
    endloop
  endfacet
  facet normal -1 0 0
    outer loop
      vertex -1 -1.80554 7.78217
      vertex -1 -1.68431 8.85917
      vertex -1 -1.68431 7.86922
    endloop
  endfacet
  facet normal -1 0 0
    outer loop
      vertex -1 -1.80554 7.78217
      vertex -1 -1.80554 8.94623
      vertex -1 -1.68431 8.85917
    endloop
  endfacet
  facet normal -1 0 0
    outer loop
      vertex -1 -1.94385 7.71748
      vertex -1 -1.80554 8.94623
      vertex -1 -1.80554 7.78217
    endloop
  endfacet
  facet normal -1 0 0
    outer loop
      vertex -1 -1.94385 7.71748
      vertex -1 -1.94385 9.01091
      vertex -1 -1.80554 8.94623
    endloop
  endfacet
  facet normal -1 0 0
    outer loop
      vertex -1 -2.09393 7.67765
      vertex -1 -1.94385 9.01091
      vertex -1 -1.94385 7.71748
    endloop
  endfacet
  facet normal -1 0 0
    outer loop
      vertex -1 -2.09393 7.67765
      vertex -1 -2.09393 9.05075
      vertex -1 -1.94385 9.01091
    endloop
  endfacet
  facet normal -1 0 0
    outer loop
      vertex -1 -2.25 7.6642
      vertex -1 -2.09393 9.05075
      vertex -1 -2.09393 7.67765
    endloop
  endfacet
  facet normal -1 -0 0
    outer loop
      vertex -1 -2.09393 9.05075
      vertex -1 -2.25 7.6642
      vertex -1 -2.25 9.0642
    endloop
  endfacet
  facet normal 0 1 0
    outer loop
      vertex 19.1 5.8 9.5
      vertex 18.1 5.8 0
      vertex 18.1 5.8 9.5
    endloop
  endfacet
  facet normal 0 1 0
    outer loop
      vertex 18.1 5.8 0
      vertex 19.1 5.8 -2
      vertex 0 5.8 0
    endloop
  endfacet
  facet normal 0 1 -0
    outer loop
      vertex 19.1 5.8 -2
      vertex 18.1 5.8 0
      vertex 19.1 5.8 9.5
    endloop
  endfacet
  facet normal 0 1 -0
    outer loop
      vertex 0 5.8 0
      vertex -1 5.8 9.5
      vertex 0 5.8 9.5
    endloop
  endfacet
  facet normal 0 1 0
    outer loop
      vertex 0 5.8 0
      vertex -1 5.8 -2
      vertex -1 5.8 9.5
    endloop
  endfacet
  facet normal 0 1 0
    outer loop
      vertex -1 5.8 -2
      vertex 0 5.8 0
      vertex 19.1 5.8 -2
    endloop
  endfacet
  facet normal 0 -1 0
    outer loop
      vertex 15.146 0 -2
      vertex 19.1 0 6.0642
      vertex 15.146 0 6.0642
    endloop
  endfacet
  facet normal 0 -1 -0
    outer loop
      vertex 19.1 0 6.0642
      vertex 15.146 0 -2
      vertex 19.1 0 -2
    endloop
  endfacet
  facet normal 0 -1 0
    outer loop
      vertex -1 0 10.7
      vertex 15.146 0 6.5642
      vertex 19.1 0 10.7
    endloop
  endfacet
  facet normal 0 -1 0
    outer loop
      vertex -1 0 6.5642
      vertex 15.146 0 6.5642
      vertex -1 0 10.7
    endloop
  endfacet
  facet normal 0 -1 -0
    outer loop
      vertex 19.1 0 10.7
      vertex 15.146 0 6.5642
      vertex 19.1 0 6.5642
    endloop
  endfacet
  facet normal 0 0 0
    outer loop
      vertex 15.146 0 -2
      vertex 15.146 0 6.0642
      vertex 15.146 0 6.5642
    endloop
  endfacet
  facet normal -1 0 0
    outer loop
      vertex 18.1 0.799999 0
      vertex 18.1 5.8 9.5
      vertex 18.1 5.8 0
    endloop
  endfacet
  facet normal -1 -0 0
    outer loop
      vertex 18.1 5.8 9.5
      vertex 18.1 0.799999 0
      vertex 18.1 0.799999 9.5
    endloop
  endfacet
  facet normal -0 0 1
    outer loop
      vertex 0 5.8 0
      vertex 18.1 0.799999 0
      vertex 18.1 5.8 0
    endloop
  endfacet
  facet normal 0 0 1
    outer loop
      vertex 18.1 0.799999 0
      vertex 0 5.8 0
      vertex 0 0.799999 0
    endloop
  endfacet
  facet normal 1 -0 0
    outer loop
      vertex 0 0.799999 9.5
      vertex 0 5.8 0
      vertex 0 5.8 9.5
    endloop
  endfacet
  facet normal 1 0 0
    outer loop
      vertex 0 5.8 0
      vertex 0 0.799999 9.5
      vertex 0 0.799999 0
    endloop
  endfacet
  facet normal 0 1 -0
    outer loop
      vertex 18.1 0.799999 0
      vertex 0 0.799999 9.5
      vertex 18.1 0.799999 9.5
    endloop
  endfacet
  facet normal 0 1 0
    outer loop
      vertex 0 0.799999 9.5
      vertex 18.1 0.799999 0
      vertex 0 0.799999 0
    endloop
  endfacet
  facet normal -0 0 1
    outer loop
      vertex -1 0 11.5
      vertex 19.1 -9.68247e-06 11.5
      vertex 19.1 0 11.5
    endloop
  endfacet
  facet normal 0 0 1
    outer loop
      vertex 19.1 -9.68247e-06 11.5
      vertex -1 0 11.5
      vertex -1 -9.68247e-06 11.5
    endloop
  endfacet
  facet normal 0 0.772936 0.634484
    outer loop
      vertex 19.1 0.665175 11.1445
      vertex -1 0.565685 11.2657
      vertex 19.1 0.565685 11.2657
    endloop
  endfacet
  facet normal 0 0.772936 0.634484
    outer loop
      vertex -1 0.565685 11.2657
      vertex 19.1 0.665175 11.1445
      vertex -1 0.665175 11.1445
    endloop
  endfacet
  facet normal 0 0.882049 0.471157
    outer loop
      vertex 19.1 0.739103 11.0061
      vertex -1 0.665175 11.1445
      vertex 19.1 0.665175 11.1445
    endloop
  endfacet
  facet normal 0 0.882049 0.471157
    outer loop
      vertex -1 0.665175 11.1445
      vertex 19.1 0.739103 11.0061
      vertex -1 0.739103 11.0061
    endloop
  endfacet
  facet normal -0 0.0981955 0.995167
    outer loop
      vertex -1 0.156072 11.4846
      vertex 19.1 0 11.5
      vertex 19.1 0.156072 11.4846
    endloop
  endfacet
  facet normal 0 0.0981955 0.995167
    outer loop
      vertex 19.1 0 11.5
      vertex -1 0.156072 11.4846
      vertex -1 0 11.5
    endloop
  endfacet
  facet normal -0 0.471259 0.881995
    outer loop
      vertex -1 0.444456 11.3652
      vertex 19.1 0.306147 11.4391
      vertex 19.1 0.444456 11.3652
    endloop
  endfacet
  facet normal 0 0.471259 0.881995
    outer loop
      vertex 19.1 0.306147 11.4391
      vertex -1 0.444456 11.3652
      vertex -1 0.306147 11.4391
    endloop
  endfacet
  facet normal 0 0.9569 0.290419
    outer loop
      vertex 19.1 0.784628 10.8561
      vertex -1 0.739103 11.0061
      vertex 19.1 0.739103 11.0061
    endloop
  endfacet
  facet normal 0 0.9569 0.290419
    outer loop
      vertex -1 0.739103 11.0061
      vertex 19.1 0.784628 10.8561
      vertex -1 0.784628 10.8561
    endloop
  endfacet
  facet normal -0 0.634431 0.772979
    outer loop
      vertex -1 0.565685 11.2657
      vertex 19.1 0.444456 11.3652
      vertex 19.1 0.565685 11.2657
    endloop
  endfacet
  facet normal 0 0.634431 0.772979
    outer loop
      vertex 19.1 0.444456 11.3652
      vertex -1 0.565685 11.2657
      vertex -1 0.444456 11.3652
    endloop
  endfacet
  facet normal -0 0.29014 0.956984
    outer loop
      vertex -1 0.306147 11.4391
      vertex 19.1 0.156072 11.4846
      vertex 19.1 0.306147 11.4391
    endloop
  endfacet
  facet normal 0 0.29014 0.956984
    outer loop
      vertex 19.1 0.156072 11.4846
      vertex -1 0.306147 11.4391
      vertex -1 0.156072 11.4846
    endloop
  endfacet
  facet normal 0 0.995187 0.097995
    outer loop
      vertex 19.1 0.799999 10.7
      vertex -1 0.784628 10.8561
      vertex 19.1 0.784628 10.8561
    endloop
  endfacet
  facet normal 0 0.995187 0.097995
    outer loop
      vertex -1 0.784628 10.8561
      vertex 19.1 0.799999 10.7
      vertex -1 0.799999 10.7
    endloop
  endfacet
  facet normal 0 0 -1
    outer loop
      vertex -1 -9.68247e-06 11.5
      vertex 19.1 0 11.5
      vertex 19.1 -9.68247e-06 11.5
    endloop
  endfacet
  facet normal -0 0 -1
    outer loop
      vertex 19.1 0 11.5
      vertex -1 -9.68247e-06 11.5
      vertex -1 0 11.5
    endloop
  endfacet
  facet normal 0 -1 0
    outer loop
      vertex -1 0 10.7
      vertex 19.1 0 11.5
      vertex -1 0 11.5
    endloop
  endfacet
  facet normal 0 -1 -0
    outer loop
      vertex 19.1 0 11.5
      vertex -1 0 10.7
      vertex 19.1 0 10.7
    endloop
  endfacet
  facet normal 0 1 0
    outer loop
      vertex 18.1 0.799999 9.5
      vertex 19.1 0.799999 10.7
      vertex 19.1 0.799999 9.5
    endloop
  endfacet
  facet normal 0 1 0
    outer loop
      vertex 19.1 0.799999 10.7
      vertex 18.1 0.799999 9.5
      vertex -1 0.799999 10.7
    endloop
  endfacet
  facet normal 0 1 -0
    outer loop
      vertex 0 0.799999 9.5
      vertex -1 0.799999 10.7
      vertex 18.1 0.799999 9.5
    endloop
  endfacet
  facet normal 0 1 0
    outer loop
      vertex -1 0.799999 10.7
      vertex 0 0.799999 9.5
      vertex -1 0.799999 9.5
    endloop
  endfacet
  facet normal 0 -0.634386 -0.773016
    outer loop
      vertex 15.146 0.138892 6.52207
      vertex 19.1 0.176776 6.49098
      vertex 19.1 0.138892 6.52207
    endloop
  endfacet
  facet normal -0 -0.634386 -0.773016
    outer loop
      vertex 19.1 0.176776 6.49098
      vertex 15.146 0.138892 6.52207
      vertex 15.146 0.176776 6.49098
    endloop
  endfacet
  facet normal 0 -0.471361 0.88194
    outer loop
      vertex 15.146 0.138892 6.10633
      vertex 19.1 0.0956707 6.08323
      vertex 19.1 0.138892 6.10633
    endloop
  endfacet
  facet normal 0 -0.471361 0.88194
    outer loop
      vertex 19.1 0.0956707 6.08323
      vertex 15.146 0.138892 6.10633
      vertex 15.146 0.0956707 6.08323
    endloop
  endfacet
  facet normal 0 -0.0979441 0.995192
    outer loop
      vertex 15.146 0.0487719 6.069
      vertex 19.1 0 6.0642
      vertex 19.1 0.0487719 6.069
    endloop
  endfacet
  facet normal 0 -0.0979441 0.995192
    outer loop
      vertex 19.1 0 6.0642
      vertex 15.146 0.0487719 6.069
      vertex 15.146 0 6.0642
    endloop
  endfacet
  facet normal 0 -0.956946 -0.290267
    outer loop
      vertex 15.146 0.245195 6.36297
      vertex 19.1 0.230969 6.40987
      vertex 15.146 0.230969 6.40987
    endloop
  endfacet
  facet normal 0 -0.956946 -0.290267
    outer loop
      vertex 19.1 0.230969 6.40987
      vertex 15.146 0.245195 6.36297
      vertex 19.1 0.245195 6.36297
    endloop
  endfacet
  facet normal 0 -0.290348 0.956921
    outer loop
      vertex 15.146 0.0956707 6.08323
      vertex 19.1 0.0487719 6.069
      vertex 19.1 0.0956707 6.08323
    endloop
  endfacet
  facet normal 0 -0.290348 0.956921
    outer loop
      vertex 19.1 0.0487719 6.069
      vertex 15.146 0.0956707 6.08323
      vertex 15.146 0.0487719 6.069
    endloop
  endfacet
  facet normal 0 -0.956946 0.290267
    outer loop
      vertex 15.146 0.230969 6.21853
      vertex 19.1 0.245195 6.26543
      vertex 15.146 0.245195 6.26543
    endloop
  endfacet
  facet normal 0 -0.956946 0.290267
    outer loop
      vertex 19.1 0.245195 6.26543
      vertex 15.146 0.230969 6.21853
      vertex 19.1 0.230969 6.21853
    endloop
  endfacet
  facet normal 0 -0.0979441 -0.995192
    outer loop
      vertex 15.146 0 6.5642
      vertex 19.1 0.0487719 6.5594
      vertex 19.1 0 6.5642
    endloop
  endfacet
  facet normal -0 -0.0979441 -0.995192
    outer loop
      vertex 19.1 0.0487719 6.5594
      vertex 15.146 0 6.5642
      vertex 15.146 0.0487719 6.5594
    endloop
  endfacet
  facet normal 0 -0.995182 0.098049
    outer loop
      vertex 15.146 0.245195 6.26543
      vertex 19.1 0.25 6.3142
      vertex 15.146 0.25 6.3142
    endloop
  endfacet
  facet normal 0 -0.995182 0.098049
    outer loop
      vertex 19.1 0.25 6.3142
      vertex 15.146 0.245195 6.26543
      vertex 19.1 0.245195 6.26543
    endloop
  endfacet
  facet normal 0 -0.995182 -0.098049
    outer loop
      vertex 15.146 0.25 6.3142
      vertex 19.1 0.245195 6.36297
      vertex 15.146 0.245195 6.36297
    endloop
  endfacet
  facet normal 0 -0.995182 -0.098049
    outer loop
      vertex 19.1 0.245195 6.36297
      vertex 15.146 0.25 6.3142
      vertex 19.1 0.25 6.3142
    endloop
  endfacet
  facet normal 0 -0.773056 0.634338
    outer loop
      vertex 15.146 0.176776 6.13742
      vertex 19.1 0.207867 6.17531
      vertex 15.146 0.207867 6.17531
    endloop
  endfacet
  facet normal 0 -0.773056 0.634338
    outer loop
      vertex 19.1 0.207867 6.17531
      vertex 15.146 0.176776 6.13742
      vertex 19.1 0.176776 6.13742
    endloop
  endfacet
  facet normal 0 -0.634386 0.773016
    outer loop
      vertex 15.146 0.176776 6.13742
      vertex 19.1 0.138892 6.10633
      vertex 19.1 0.176776 6.13742
    endloop
  endfacet
  facet normal 0 -0.634386 0.773016
    outer loop
      vertex 19.1 0.138892 6.10633
      vertex 15.146 0.176776 6.13742
      vertex 15.146 0.138892 6.10633
    endloop
  endfacet
  facet normal 0 -0.881918 0.471404
    outer loop
      vertex 15.146 0.207867 6.17531
      vertex 19.1 0.230969 6.21853
      vertex 15.146 0.230969 6.21853
    endloop
  endfacet
  facet normal 0 -0.881918 0.471404
    outer loop
      vertex 19.1 0.230969 6.21853
      vertex 15.146 0.207867 6.17531
      vertex 19.1 0.207867 6.17531
    endloop
  endfacet
  facet normal 0 -0.773056 -0.634338
    outer loop
      vertex 15.146 0.207867 6.45309
      vertex 19.1 0.176776 6.49098
      vertex 15.146 0.176776 6.49098
    endloop
  endfacet
  facet normal 0 -0.773056 -0.634338
    outer loop
      vertex 19.1 0.176776 6.49098
      vertex 15.146 0.207867 6.45309
      vertex 19.1 0.207867 6.45309
    endloop
  endfacet
  facet normal 0 -0.881918 -0.471404
    outer loop
      vertex 15.146 0.230969 6.40987
      vertex 19.1 0.207867 6.45309
      vertex 15.146 0.207867 6.45309
    endloop
  endfacet
  facet normal 0 -0.881918 -0.471404
    outer loop
      vertex 19.1 0.207867 6.45309
      vertex 15.146 0.230969 6.40987
      vertex 19.1 0.230969 6.40987
    endloop
  endfacet
  facet normal 1 0 0
    outer loop
      vertex 15.146 0.245195 6.36297
      vertex 15.146 0.245195 6.26543
      vertex 15.146 0.25 6.3142
    endloop
  endfacet
  facet normal 1 0 0
    outer loop
      vertex 15.146 0.230969 6.40987
      vertex 15.146 0.245195 6.26543
      vertex 15.146 0.245195 6.36297
    endloop
  endfacet
  facet normal 1 0 0
    outer loop
      vertex 15.146 0.230969 6.40987
      vertex 15.146 0.230969 6.21853
      vertex 15.146 0.245195 6.26543
    endloop
  endfacet
  facet normal 1 0 0
    outer loop
      vertex 15.146 0.207867 6.45309
      vertex 15.146 0.230969 6.21853
      vertex 15.146 0.230969 6.40987
    endloop
  endfacet
  facet normal 1 0 0
    outer loop
      vertex 15.146 0.207867 6.45309
      vertex 15.146 0.207867 6.17531
      vertex 15.146 0.230969 6.21853
    endloop
  endfacet
  facet normal 1 0 0
    outer loop
      vertex 15.146 0.176776 6.49098
      vertex 15.146 0.207867 6.17531
      vertex 15.146 0.207867 6.45309
    endloop
  endfacet
  facet normal 1 0 0
    outer loop
      vertex 15.146 0.176776 6.49098
      vertex 15.146 0.176776 6.13742
      vertex 15.146 0.207867 6.17531
    endloop
  endfacet
  facet normal 1 0 0
    outer loop
      vertex 15.146 0.138892 6.52207
      vertex 15.146 0.176776 6.13742
      vertex 15.146 0.176776 6.49098
    endloop
  endfacet
  facet normal 1 0 0
    outer loop
      vertex 15.146 0.138892 6.52207
      vertex 15.146 0.138892 6.10633
      vertex 15.146 0.176776 6.13742
    endloop
  endfacet
  facet normal 1 0 0
    outer loop
      vertex 15.146 0.0956707 6.54517
      vertex 15.146 0.138892 6.10633
      vertex 15.146 0.138892 6.52207
    endloop
  endfacet
  facet normal 1 0 0
    outer loop
      vertex 15.146 0.0956707 6.54517
      vertex 15.146 0.0956707 6.08323
      vertex 15.146 0.138892 6.10633
    endloop
  endfacet
  facet normal 1 0 0
    outer loop
      vertex 15.146 0.0487719 6.5594
      vertex 15.146 0.0956707 6.08323
      vertex 15.146 0.0956707 6.54517
    endloop
  endfacet
  facet normal 1 0 0
    outer loop
      vertex 15.146 0.0487719 6.5594
      vertex 15.146 0.0487719 6.069
      vertex 15.146 0.0956707 6.08323
    endloop
  endfacet
  facet normal 1 0 0
    outer loop
      vertex 15.146 0 6.5642
      vertex 15.146 0.0487719 6.069
      vertex 15.146 0.0487719 6.5594
    endloop
  endfacet
  facet normal 1 0 0
    outer loop
      vertex 15.146 0.0487719 6.069
      vertex 15.146 0 6.5642
      vertex 15.146 0 6.0642
    endloop
  endfacet
  facet normal 0 -0.290348 -0.956921
    outer loop
      vertex 15.146 0.0487719 6.5594
      vertex 19.1 0.0956707 6.54517
      vertex 19.1 0.0487719 6.5594
    endloop
  endfacet
  facet normal -0 -0.290348 -0.956921
    outer loop
      vertex 19.1 0.0956707 6.54517
      vertex 15.146 0.0487719 6.5594
      vertex 15.146 0.0956707 6.54517
    endloop
  endfacet
  facet normal 0 -0.471361 -0.88194
    outer loop
      vertex 15.146 0.0956707 6.54517
      vertex 19.1 0.138892 6.52207
      vertex 19.1 0.0956707 6.54517
    endloop
  endfacet
  facet normal -0 -0.471361 -0.88194
    outer loop
      vertex 19.1 0.138892 6.52207
      vertex 15.146 0.0956707 6.54517
      vertex 15.146 0.138892 6.52207
    endloop
  endfacet
  facet normal 1 -0 0
    outer loop
      vertex 15.146 -4.25 12.3502
      vertex 15.146 -2.25 9.0642
      vertex 15.146 -2.25 12.3502
    endloop
  endfacet
  facet normal 1 0 0
    outer loop
      vertex 15.146 -2.25 9.0642
      vertex 15.146 -4.25 12.3502
      vertex 15.146 -2.25 7.6642
    endloop
  endfacet
  facet normal 1 0 0
    outer loop
      vertex 15.146 -2.25 7.6642
      vertex 15.146 -4.25 12.3502
      vertex 15.146 -2.25 6.5642
    endloop
  endfacet
  facet normal 1 0 0
    outer loop
      vertex 15.146 -1.46537 8.50076
      vertex 15.146 -1.46537 8.22764
      vertex 15.146 -1.45 8.3642
    endloop
  endfacet
  facet normal 1 0 0
    outer loop
      vertex 15.146 -1.5109 8.63208
      vertex 15.146 -1.46537 8.22764
      vertex 15.146 -1.46537 8.50076
    endloop
  endfacet
  facet normal 1 0 0
    outer loop
      vertex 15.146 -1.5109 8.63208
      vertex 15.146 -1.5109 8.09632
      vertex 15.146 -1.46537 8.22764
    endloop
  endfacet
  facet normal 1 0 0
    outer loop
      vertex 15.146 -1.58482 8.7531
      vertex 15.146 -1.5109 8.09632
      vertex 15.146 -1.5109 8.63208
    endloop
  endfacet
  facet normal 1 0 0
    outer loop
      vertex 15.146 -1.58482 8.7531
      vertex 15.146 -1.58482 7.9753
      vertex 15.146 -1.5109 8.09632
    endloop
  endfacet
  facet normal 1 0 0
    outer loop
      vertex 15.146 -1.68431 8.85917
      vertex 15.146 -1.58482 7.9753
      vertex 15.146 -1.58482 8.7531
    endloop
  endfacet
  facet normal 1 0 0
    outer loop
      vertex 15.146 -1.68431 8.85917
      vertex 15.146 -1.68431 7.86922
      vertex 15.146 -1.58482 7.9753
    endloop
  endfacet
  facet normal 1 0 0
    outer loop
      vertex 15.146 -1.80554 8.94623
      vertex 15.146 -1.68431 7.86922
      vertex 15.146 -1.68431 8.85917
    endloop
  endfacet
  facet normal 1 0 0
    outer loop
      vertex 15.146 -1.80554 8.94623
      vertex 15.146 -1.80554 7.78217
      vertex 15.146 -1.68431 7.86922
    endloop
  endfacet
  facet normal 1 0 0
    outer loop
      vertex 15.146 -1.94385 9.01091
      vertex 15.146 -1.80554 7.78217
      vertex 15.146 -1.80554 8.94623
    endloop
  endfacet
  facet normal 1 0 0
    outer loop
      vertex 15.146 -1.94385 9.01091
      vertex 15.146 -1.94385 7.71748
      vertex 15.146 -1.80554 7.78217
    endloop
  endfacet
  facet normal 1 0 0
    outer loop
      vertex 15.146 -2.09393 9.05075
      vertex 15.146 -1.94385 7.71748
      vertex 15.146 -1.94385 9.01091
    endloop
  endfacet
  facet normal 1 0 0
    outer loop
      vertex 15.146 -2.09393 9.05075
      vertex 15.146 -2.09393 7.67765
      vertex 15.146 -1.94385 7.71748
    endloop
  endfacet
  facet normal 1 0 0
    outer loop
      vertex 15.146 -2.25 9.0642
      vertex 15.146 -2.09393 7.67765
      vertex 15.146 -2.09393 9.05075
    endloop
  endfacet
  facet normal 1 0 0
    outer loop
      vertex 15.146 -2.09393 7.67765
      vertex 15.146 -2.25 9.0642
      vertex 15.146 -2.25 7.6642
    endloop
  endfacet
  facet normal 1 -0 0
    outer loop
      vertex 15.146 -2.25 6.5642
      vertex 15.146 0 -2
      vertex 15.146 0 6.5642
    endloop
  endfacet
  facet normal 1 0 0
    outer loop
      vertex 15.146 -4.25 -2
      vertex 15.146 -2.25 6.5642
      vertex 15.146 -4.25 12.3502
    endloop
  endfacet
  facet normal 1 0 0
    outer loop
      vertex 15.146 -2.25 6.5642
      vertex 15.146 -4.25 -2
      vertex 15.146 0 -2
    endloop
  endfacet
  facet normal 0 0 1
    outer loop
      vertex 15.146 -2.25 12.3502
      vertex 9.55 -3.75 12.3502
      vertex 15.146 -4.25 12.3502
    endloop
  endfacet
  facet normal 0 0 1
    outer loop
      vertex 15.146 -2.25 12.3502
      vertex 8.55 -3.75 12.3502
      vertex 9.55 -3.75 12.3502
    endloop
  endfacet
  facet normal -0 0 1
    outer loop
      vertex -1 -2.25 12.3502
      vertex 8.55 -3.75 12.3502
      vertex 15.146 -2.25 12.3502
    endloop
  endfacet
  facet normal 0 0 1
    outer loop
      vertex -1 -4.25 12.3502
      vertex 8.55 -3.75 12.3502
      vertex -1 -2.25 12.3502
    endloop
  endfacet
  facet normal 0 0 1
    outer loop
      vertex 8.55 -3.75 12.3502
      vertex -1 -4.25 12.3502
      vertex 8.55 -4.25 12.3502
    endloop
  endfacet
  facet normal 0 0 1
    outer loop
      vertex 15.146 -4.25 12.3502
      vertex 9.55 -3.75 12.3502
      vertex 9.55 -4.25 12.3502
    endloop
  endfacet
  facet normal 0 -1 0
    outer loop
      vertex -1 -4.25 12.3502
      vertex 8.55 -4.25 9.8502
      vertex 8.55 -4.25 12.3502
    endloop
  endfacet
  facet normal 0 -1 0
    outer loop
      vertex 6.44309 -4.25 5.59874
      vertex 8.55 -4.25 9.8502
      vertex 5.75141 -4.25 5.59874
    endloop
  endfacet
  facet normal 0 -1 0
    outer loop
      vertex -1 -4.25 12.3502
      vertex 5.75141 -4.25 5.59874
      vertex 8.55 -4.25 9.8502
    endloop
  endfacet
  facet normal 0 -1 0
    outer loop
      vertex -1 -4.25 12.3502
      vertex 4.94579 -4.25 4.30083
      vertex 5.75141 -4.25 5.59874
    endloop
  endfacet
  facet normal 0 -1 0
    outer loop
      vertex -1 -4.25 -2
      vertex 4.94579 -4.25 4.30083
      vertex -1 -4.25 12.3502
    endloop
  endfacet
  facet normal 0 -1 0
    outer loop
      vertex 4.94579 -4.25 3.72302
      vertex 5.75141 -4.25 -0.134125
      vertex 5.75141 -4.25 3.72302
    endloop
  endfacet
  facet normal 0 -1 -0
    outer loop
      vertex 4.94579 -4.25 4.30083
      vertex -1 -4.25 -2
      vertex 4.94579 -4.25 3.72302
    endloop
  endfacet
  facet normal 0 -1 -0
    outer loop
      vertex 5.75141 -4.25 -0.134125
      vertex -1 -4.25 -2
      vertex 6.52043 -4.25 -0.134125
    endloop
  endfacet
  facet normal 0 -1 -0
    outer loop
      vertex 4.94579 -4.25 3.72302
      vertex -1 -4.25 -2
      vertex 5.75141 -4.25 -0.134125
    endloop
  endfacet
  facet normal 0 -1 0
    outer loop
      vertex 9.55 -4.25 9.8502
      vertex 15.146 -4.25 12.3502
      vertex 9.55 -4.25 12.3502
    endloop
  endfacet
  facet normal 0 -1 0
    outer loop
      vertex 9.14475 -4.25 4.30083
      vertex 8.55 -4.25 9.8502
      vertex 6.44309 -4.25 5.59874
    endloop
  endfacet
  facet normal 0 -1 0
    outer loop
      vertex 8.55 -4.25 9.8502
      vertex 9.14475 -4.25 4.30083
      vertex 9.55 -4.25 9.8502
    endloop
  endfacet
  facet normal 0 -1 0
    outer loop
      vertex 9.14475 -4.25 4.30083
      vertex 6.44309 -4.25 5.59874
      vertex 6.44309 -4.25 4.30083
    endloop
  endfacet
  facet normal 0 -1 -0
    outer loop
      vertex 9.55 -4.25 9.8502
      vertex 9.14475 -4.25 4.30083
      vertex 15.146 -4.25 12.3502
    endloop
  endfacet
  facet normal 0 -1 0
    outer loop
      vertex 15.146 -4.25 -2
      vertex 9.14475 -4.25 4.30083
      vertex 9.14475 -4.25 3.73119
    endloop
  endfacet
  facet normal 0 -1 0
    outer loop
      vertex 15.146 -4.25 -2
      vertex 9.14475 -4.25 3.73119
      vertex 6.52043 -4.25 -0.134125
    endloop
  endfacet
  facet normal 0 -1 0
    outer loop
      vertex 9.14475 -4.25 4.30083
      vertex 15.146 -4.25 -2
      vertex 15.146 -4.25 12.3502
    endloop
  endfacet
  facet normal 0 -1 0
    outer loop
      vertex 15.146 -4.25 -2
      vertex 6.52043 -4.25 -0.134125
      vertex -1 -4.25 -2
    endloop
  endfacet
  facet normal 0 -1 -0
    outer loop
      vertex 5.75141 -4.25 5.59874
      vertex 4.94579 -4.25 4.30083
      vertex 5.75141 -4.25 4.30083
    endloop
  endfacet
  facet normal 0 -1 0
    outer loop
      vertex 6.44309 -4.25 3.72302
      vertex 8.40424 -4.25 3.64166
      vertex 8.46933 -4.25 3.72302
    endloop
  endfacet
  facet normal 0 -1 0
    outer loop
      vertex 6.44309 -4.25 3.72302
      vertex 8.18451 -4.25 3.34058
      vertex 8.40424 -4.25 3.64166
    endloop
  endfacet
  facet normal 0 -1 0
    outer loop
      vertex 6.44309 -4.25 3.72302
      vertex 6.71573 -4.25 1.17603
      vertex 8.18451 -4.25 3.34058
    endloop
  endfacet
  facet normal 0 -1 0
    outer loop
      vertex 6.44309 -4.25 3.72302
      vertex 6.69245 -4.25 1.14053
      vertex 6.71573 -4.25 1.17603
    endloop
  endfacet
  facet normal 0 -1 0
    outer loop
      vertex 6.44309 -4.25 3.72302
      vertex 6.66493 -4.25 1.09593
      vertex 6.69245 -4.25 1.14053
    endloop
  endfacet
  facet normal 0 -1 0
    outer loop
      vertex 6.44309 -4.25 3.72302
      vertex 6.6332 -4.25 1.04222
      vertex 6.66493 -4.25 1.09593
    endloop
  endfacet
  facet normal 0 -1 0
    outer loop
      vertex 6.44309 -4.25 3.72302
      vertex 6.59723 -4.25 0.979401
      vertex 6.6332 -4.25 1.04222
    endloop
  endfacet
  facet normal 0 -1 0
    outer loop
      vertex 6.44309 -4.25 3.72302
      vertex 6.55702 -4.25 0.907455
      vertex 6.59723 -4.25 0.979401
    endloop
  endfacet
  facet normal 0 -1 0
    outer loop
      vertex 6.44309 -4.25 3.72302
      vertex 6.51862 -4.25 0.837646
      vertex 6.55702 -4.25 0.907455
    endloop
  endfacet
  facet normal 0 -1 0
    outer loop
      vertex 6.44309 -4.25 3.72302
      vertex 6.48802 -4.25 0.781174
      vertex 6.51862 -4.25 0.837646
    endloop
  endfacet
  facet normal 0 -1 0
    outer loop
      vertex 6.44309 -4.25 3.72302
      vertex 6.46523 -4.25 0.738052
      vertex 6.48802 -4.25 0.781174
    endloop
  endfacet
  facet normal 0 -1 0
    outer loop
      vertex 6.44309 -4.25 3.72302
      vertex 6.45026 -4.25 0.708267
      vertex 6.46523 -4.25 0.738052
    endloop
  endfacet
  facet normal -0 -1 0
    outer loop
      vertex 6.45026 -4.25 0.708267
      vertex 6.44309 -4.25 3.72302
      vertex 6.44309 -4.25 0.691818
    endloop
  endfacet
  facet normal -1 0 0
    outer loop
      vertex 9.55 -4.25 9.8502
      vertex 9.55 -3.75 12.3502
      vertex 9.55 -3.75 9.8502
    endloop
  endfacet
  facet normal -1 -0 0
    outer loop
      vertex 9.55 -3.75 12.3502
      vertex 9.55 -4.25 9.8502
      vertex 9.55 -4.25 12.3502
    endloop
  endfacet
  facet normal -0 0 1
    outer loop
      vertex 8.55 -3.75 9.8502
      vertex 9.55 -4.25 9.8502
      vertex 9.55 -3.75 9.8502
    endloop
  endfacet
  facet normal 0 0 1
    outer loop
      vertex 9.55 -4.25 9.8502
      vertex 8.55 -3.75 9.8502
      vertex 8.55 -4.25 9.8502
    endloop
  endfacet
  facet normal 1 -0 0
    outer loop
      vertex 8.55 -4.25 12.3502
      vertex 8.55 -3.75 9.8502
      vertex 8.55 -3.75 12.3502
    endloop
  endfacet
  facet normal 1 0 0
    outer loop
      vertex 8.55 -3.75 9.8502
      vertex 8.55 -4.25 12.3502
      vertex 8.55 -4.25 9.8502
    endloop
  endfacet
  facet normal 0 -1 0
    outer loop
      vertex 8.55 -3.75 9.8502
      vertex 9.55 -3.75 12.3502
      vertex 8.55 -3.75 12.3502
    endloop
  endfacet
  facet normal 0 -1 -0
    outer loop
      vertex 9.55 -3.75 12.3502
      vertex 8.55 -3.75 9.8502
      vertex 9.55 -3.75 9.8502
    endloop
  endfacet
  facet normal -0 0 1
    outer loop
      vertex -1 0 6.5642
      vertex 15.146 -2.25 6.5642
      vertex 15.146 0 6.5642
    endloop
  endfacet
  facet normal 0 0 1
    outer loop
      vertex 15.146 -2.25 6.5642
      vertex -1 0 6.5642
      vertex -1 -2.25 6.5642
    endloop
  endfacet
  facet normal 0 1 -0
    outer loop
      vertex 15.146 -2.25 6.5642
      vertex -1 -2.25 7.6642
      vertex 15.146 -2.25 7.6642
    endloop
  endfacet
  facet normal 0 1 0
    outer loop
      vertex -1 -2.25 7.6642
      vertex 15.146 -2.25 6.5642
      vertex -1 -2.25 6.5642
    endloop
  endfacet
  facet normal 0 1 -0
    outer loop
      vertex 15.146 -2.25 9.0642
      vertex -1 -2.25 12.3502
      vertex 15.146 -2.25 12.3502
    endloop
  endfacet
  facet normal 0 1 0
    outer loop
      vertex -1 -2.25 12.3502
      vertex 15.146 -2.25 9.0642
      vertex -1 -2.25 9.0642
    endloop
  endfacet
  facet normal 0 -1 0
    outer loop
      vertex 5.75141 -3.75 3.72302
      vertex 6.44309 -3.75 0.691818
      vertex 6.44309 -3.75 3.72302
    endloop
  endfacet
  facet normal -0 -1 0
    outer loop
      vertex 6.44309 -3.75 0.691818
      vertex 5.75141 -3.75 3.72302
      vertex 5.75141 -3.75 -0.134125
    endloop
  endfacet
  facet normal 0 -1 0
    outer loop
      vertex 5.75141 -3.75 3.72302
      vertex 5.75141 -3.75 4.30083
      vertex 4.94579 -3.75 4.30083
    endloop
  endfacet
  facet normal 0 -1 0
    outer loop
      vertex 5.75141 -3.75 4.30083
      vertex 5.75141 -3.75 3.72302
      vertex 6.44309 -3.75 4.30083
    endloop
  endfacet
  facet normal 0 -1 0
    outer loop
      vertex 8.46933 -3.75 3.72302
      vertex 6.44309 -3.75 4.30083
      vertex 6.44309 -3.75 3.72302
    endloop
  endfacet
  facet normal 0 -1 0
    outer loop
      vertex 5.75141 -3.75 3.72302
      vertex 4.94579 -3.75 4.30083
      vertex 4.94579 -3.75 3.72302
    endloop
  endfacet
  facet normal 0 -1 -0
    outer loop
      vertex 6.44309 -3.75 4.30083
      vertex 5.75141 -3.75 3.72302
      vertex 6.44309 -3.75 3.72302
    endloop
  endfacet
  facet normal 0 -1 0
    outer loop
      vertex 6.44309 -3.75 4.30083
      vertex 8.46933 -3.75 3.72302
      vertex 9.14475 -3.75 4.30083
    endloop
  endfacet
  facet normal 0 -1 -0
    outer loop
      vertex 9.14475 -3.75 4.30083
      vertex 8.46933 -3.75 3.72302
      vertex 9.14475 -3.75 3.73119
    endloop
  endfacet
  facet normal 0 -1 0
    outer loop
      vertex 8.40424 -3.75 3.64166
      vertex 9.14475 -3.75 3.73119
      vertex 8.46933 -3.75 3.72302
    endloop
  endfacet
  facet normal 0 -1 0
    outer loop
      vertex 8.18451 -3.75 3.34058
      vertex 9.14475 -3.75 3.73119
      vertex 8.40424 -3.75 3.64166
    endloop
  endfacet
  facet normal 0 -1 0
    outer loop
      vertex 6.71573 -3.75 1.17603
      vertex 9.14475 -3.75 3.73119
      vertex 8.18451 -3.75 3.34058
    endloop
  endfacet
  facet normal 0 -1 0
    outer loop
      vertex 6.52043 -3.75 -0.134125
      vertex 6.71573 -3.75 1.17603
      vertex 6.69245 -3.75 1.14053
    endloop
  endfacet
  facet normal 0 -1 0
    outer loop
      vertex 6.52043 -3.75 -0.134125
      vertex 6.69245 -3.75 1.14053
      vertex 6.66493 -3.75 1.09593
    endloop
  endfacet
  facet normal 0 -1 0
    outer loop
      vertex 6.52043 -3.75 -0.134125
      vertex 6.66493 -3.75 1.09593
      vertex 6.6332 -3.75 1.04222
    endloop
  endfacet
  facet normal 0 -1 0
    outer loop
      vertex 6.52043 -3.75 -0.134125
      vertex 6.6332 -3.75 1.04222
      vertex 6.59723 -3.75 0.979401
    endloop
  endfacet
  facet normal 0 -1 0
    outer loop
      vertex 6.52043 -3.75 -0.134125
      vertex 6.59723 -3.75 0.979401
      vertex 6.55702 -3.75 0.907455
    endloop
  endfacet
  facet normal 0 -1 0
    outer loop
      vertex 6.52043 -3.75 -0.134125
      vertex 6.55702 -3.75 0.907455
      vertex 6.51862 -3.75 0.837646
    endloop
  endfacet
  facet normal 0 -1 0
    outer loop
      vertex 6.52043 -3.75 -0.134125
      vertex 6.51862 -3.75 0.837646
      vertex 6.48802 -3.75 0.781174
    endloop
  endfacet
  facet normal 0 -1 0
    outer loop
      vertex 6.52043 -3.75 -0.134125
      vertex 6.48802 -3.75 0.781174
      vertex 6.46523 -3.75 0.738052
    endloop
  endfacet
  facet normal 0 -1 0
    outer loop
      vertex 6.44309 -3.75 0.691818
      vertex 6.46523 -3.75 0.738052
      vertex 6.45026 -3.75 0.708267
    endloop
  endfacet
  facet normal 0 -1 -0
    outer loop
      vertex 6.46523 -3.75 0.738052
      vertex 6.44309 -3.75 0.691818
      vertex 6.52043 -3.75 -0.134125
    endloop
  endfacet
  facet normal 0 -1 0
    outer loop
      vertex 6.52043 -3.75 -0.134125
      vertex 6.44309 -3.75 0.691818
      vertex 5.75141 -3.75 -0.134125
    endloop
  endfacet
  facet normal 0 -1 -0
    outer loop
      vertex 6.71573 -3.75 1.17603
      vertex 6.52043 -3.75 -0.134125
      vertex 9.14475 -3.75 3.73119
    endloop
  endfacet
  facet normal 0 -1 0
    outer loop
      vertex 5.75141 -3.75 4.30083
      vertex 6.44309 -3.75 5.59874
      vertex 5.75141 -3.75 5.59874
    endloop
  endfacet
  facet normal 0 -1 -0
    outer loop
      vertex 6.44309 -3.75 5.59874
      vertex 5.75141 -3.75 4.30083
      vertex 6.44309 -3.75 4.30083
    endloop
  endfacet
  facet normal 0 0 -1
    outer loop
      vertex 4.94579 -4.25 4.30083
      vertex 5.75141 -3.75 4.30083
      vertex 5.75141 -4.25 4.30083
    endloop
  endfacet
  facet normal -0 0 -1
    outer loop
      vertex 5.75141 -3.75 4.30083
      vertex 4.94579 -4.25 4.30083
      vertex 4.94579 -3.75 4.30083
    endloop
  endfacet
  facet normal 1 -0 0
    outer loop
      vertex 4.94579 -4.25 4.30083
      vertex 4.94579 -3.75 3.72302
      vertex 4.94579 -3.75 4.30083
    endloop
  endfacet
  facet normal 1 0 0
    outer loop
      vertex 4.94579 -3.75 3.72302
      vertex 4.94579 -4.25 4.30083
      vertex 4.94579 -4.25 3.72302
    endloop
  endfacet
  facet normal -0 0 1
    outer loop
      vertex 4.94579 -3.75 3.72302
      vertex 5.75141 -4.25 3.72302
      vertex 5.75141 -3.75 3.72302
    endloop
  endfacet
  facet normal 0 0 1
    outer loop
      vertex 5.75141 -4.25 3.72302
      vertex 4.94579 -3.75 3.72302
      vertex 4.94579 -4.25 3.72302
    endloop
  endfacet
  facet normal 1 -0 0
    outer loop
      vertex 5.75141 -4.25 3.72302
      vertex 5.75141 -3.75 -0.134125
      vertex 5.75141 -3.75 3.72302
    endloop
  endfacet
  facet normal 1 0 0
    outer loop
      vertex 5.75141 -3.75 -0.134125
      vertex 5.75141 -4.25 3.72302
      vertex 5.75141 -4.25 -0.134125
    endloop
  endfacet
  facet normal -0 0 1
    outer loop
      vertex 5.75141 -3.75 -0.134125
      vertex 6.52043 -4.25 -0.134125
      vertex 6.52043 -3.75 -0.134125
    endloop
  endfacet
  facet normal 0 0 1
    outer loop
      vertex 6.52043 -4.25 -0.134125
      vertex 5.75141 -3.75 -0.134125
      vertex 5.75141 -4.25 -0.134125
    endloop
  endfacet
  facet normal -0.827334 0 0.561711
    outer loop
      vertex 6.52043 -4.25 -0.134125
      vertex 9.14475 -3.75 3.73119
      vertex 6.52043 -3.75 -0.134125
    endloop
  endfacet
  facet normal -0.827334 0 0.561711
    outer loop
      vertex 9.14475 -3.75 3.73119
      vertex 6.52043 -4.25 -0.134125
      vertex 9.14475 -4.25 3.73119
    endloop
  endfacet
  facet normal -1 0 0
    outer loop
      vertex 9.14475 -4.25 3.73119
      vertex 9.14475 -3.75 4.30083
      vertex 9.14475 -3.75 3.73119
    endloop
  endfacet
  facet normal -1 -0 0
    outer loop
      vertex 9.14475 -3.75 4.30083
      vertex 9.14475 -4.25 3.73119
      vertex 9.14475 -4.25 4.30083
    endloop
  endfacet
  facet normal 0 0 -1
    outer loop
      vertex 6.44309 -4.25 4.30083
      vertex 9.14475 -3.75 4.30083
      vertex 9.14475 -4.25 4.30083
    endloop
  endfacet
  facet normal -0 0 -1
    outer loop
      vertex 9.14475 -3.75 4.30083
      vertex 6.44309 -4.25 4.30083
      vertex 6.44309 -3.75 4.30083
    endloop
  endfacet
  facet normal -1 0 0
    outer loop
      vertex 6.44309 -4.25 4.30083
      vertex 6.44309 -3.75 5.59874
      vertex 6.44309 -3.75 4.30083
    endloop
  endfacet
  facet normal -1 -0 0
    outer loop
      vertex 6.44309 -3.75 5.59874
      vertex 6.44309 -4.25 4.30083
      vertex 6.44309 -4.25 5.59874
    endloop
  endfacet
  facet normal 0 0 -1
    outer loop
      vertex 5.75141 -4.25 5.59874
      vertex 6.44309 -3.75 5.59874
      vertex 6.44309 -4.25 5.59874
    endloop
  endfacet
  facet normal -0 0 -1
    outer loop
      vertex 6.44309 -3.75 5.59874
      vertex 5.75141 -4.25 5.59874
      vertex 5.75141 -3.75 5.59874
    endloop
  endfacet
  facet normal 1 -0 0
    outer loop
      vertex 5.75141 -4.25 5.59874
      vertex 5.75141 -3.75 4.30083
      vertex 5.75141 -3.75 5.59874
    endloop
  endfacet
  facet normal 1 0 0
    outer loop
      vertex 5.75141 -3.75 4.30083
      vertex 5.75141 -4.25 5.59874
      vertex 5.75141 -4.25 4.30083
    endloop
  endfacet
  facet normal 0.780859 0 -0.624707
    outer loop
      vertex 8.46933 -4.25 3.72302
      vertex 8.40424 -3.75 3.64166
      vertex 8.46933 -3.75 3.72302
    endloop
  endfacet
  facet normal 0.780859 0 -0.624707
    outer loop
      vertex 8.40424 -3.75 3.64166
      vertex 8.46933 -4.25 3.72302
      vertex 8.40424 -4.25 3.64166
    endloop
  endfacet
  facet normal 0.807762 0 -0.589509
    outer loop
      vertex 8.40424 -4.25 3.64166
      vertex 8.18451 -3.75 3.34058
      vertex 8.40424 -3.75 3.64166
    endloop
  endfacet
  facet normal 0.807762 0 -0.589509
    outer loop
      vertex 8.18451 -3.75 3.34058
      vertex 8.40424 -4.25 3.64166
      vertex 8.18451 -4.25 3.34058
    endloop
  endfacet
  facet normal 0.82748 0 -0.561496
    outer loop
      vertex 8.18451 -4.25 3.34058
      vertex 6.71573 -3.75 1.17603
      vertex 8.18451 -3.75 3.34058
    endloop
  endfacet
  facet normal 0.82748 0 -0.561496
    outer loop
      vertex 6.71573 -3.75 1.17603
      vertex 8.18451 -4.25 3.34058
      vertex 6.71573 -4.25 1.17603
    endloop
  endfacet
  facet normal 0.83623 0 -0.548379
    outer loop
      vertex 6.71573 -4.25 1.17603
      vertex 6.69245 -3.75 1.14053
      vertex 6.71573 -3.75 1.17603
    endloop
  endfacet
  facet normal 0.83623 0 -0.548379
    outer loop
      vertex 6.69245 -3.75 1.14053
      vertex 6.71573 -4.25 1.17603
      vertex 6.69245 -4.25 1.14053
    endloop
  endfacet
  facet normal 0.851029 0 -0.525119
    outer loop
      vertex 6.69245 -4.25 1.14053
      vertex 6.66493 -3.75 1.09593
      vertex 6.69245 -3.75 1.14053
    endloop
  endfacet
  facet normal 0.851029 0 -0.525119
    outer loop
      vertex 6.66493 -3.75 1.09593
      vertex 6.69245 -4.25 1.14053
      vertex 6.66493 -4.25 1.09593
    endloop
  endfacet
  facet normal 0.860981 0 -0.508637
    outer loop
      vertex 6.66493 -4.25 1.09593
      vertex 6.6332 -3.75 1.04222
      vertex 6.66493 -3.75 1.09593
    endloop
  endfacet
  facet normal 0.860981 0 -0.508637
    outer loop
      vertex 6.6332 -3.75 1.04222
      vertex 6.66493 -4.25 1.09593
      vertex 6.6332 -4.25 1.04222
    endloop
  endfacet
  facet normal 0.867806 0 -0.496903
    outer loop
      vertex 6.6332 -4.25 1.04222
      vertex 6.59723 -3.75 0.979401
      vertex 6.6332 -3.75 1.04222
    endloop
  endfacet
  facet normal 0.867806 0 -0.496903
    outer loop
      vertex 6.59723 -3.75 0.979401
      vertex 6.6332 -4.25 1.04222
      vertex 6.59723 -4.25 0.979401
    endloop
  endfacet
  facet normal 0.872918 0 -0.487866
    outer loop
      vertex 6.59723 -4.25 0.979401
      vertex 6.55702 -3.75 0.907455
      vertex 6.59723 -3.75 0.979401
    endloop
  endfacet
  facet normal 0.872918 0 -0.487866
    outer loop
      vertex 6.55702 -3.75 0.907455
      vertex 6.59723 -4.25 0.979401
      vertex 6.55702 -4.25 0.907455
    endloop
  endfacet
  facet normal 0.876189 0 -0.481967
    outer loop
      vertex 6.55702 -4.25 0.907455
      vertex 6.51862 -3.75 0.837646
      vertex 6.55702 -3.75 0.907455
    endloop
  endfacet
  facet normal 0.876189 0 -0.481967
    outer loop
      vertex 6.51862 -3.75 0.837646
      vertex 6.55702 -4.25 0.907455
      vertex 6.51862 -4.25 0.837646
    endloop
  endfacet
  facet normal 0.87922 0 -0.476416
    outer loop
      vertex 6.51862 -4.25 0.837646
      vertex 6.48802 -3.75 0.781174
      vertex 6.51862 -3.75 0.837646
    endloop
  endfacet
  facet normal 0.87922 0 -0.476416
    outer loop
      vertex 6.48802 -3.75 0.781174
      vertex 6.51862 -4.25 0.837646
      vertex 6.48802 -4.25 0.781174
    endloop
  endfacet
  facet normal 0.884121 0 -0.467258
    outer loop
      vertex 6.48802 -4.25 0.781174
      vertex 6.46523 -3.75 0.738052
      vertex 6.48802 -3.75 0.781174
    endloop
  endfacet
  facet normal 0.884121 0 -0.467258
    outer loop
      vertex 6.46523 -3.75 0.738052
      vertex 6.48802 -4.25 0.781174
      vertex 6.46523 -4.25 0.738052
    endloop
  endfacet
  facet normal 0.893495 0 -0.449073
    outer loop
      vertex 6.46523 -4.25 0.738052
      vertex 6.45026 -3.75 0.708267
      vertex 6.46523 -3.75 0.738052
    endloop
  endfacet
  facet normal 0.893495 0 -0.449073
    outer loop
      vertex 6.45026 -3.75 0.708267
      vertex 6.46523 -4.25 0.738052
      vertex 6.45026 -4.25 0.708267
    endloop
  endfacet
  facet normal 0.916698 0 -0.399582
    outer loop
      vertex 6.45026 -4.25 0.708267
      vertex 6.44309 -3.75 0.691818
      vertex 6.45026 -3.75 0.708267
    endloop
  endfacet
  facet normal 0.916698 0 -0.399582
    outer loop
      vertex 6.44309 -3.75 0.691818
      vertex 6.45026 -4.25 0.708267
      vertex 6.44309 -4.25 0.691818
    endloop
  endfacet
  facet normal -1 0 0
    outer loop
      vertex 6.44309 -4.25 0.691818
      vertex 6.44309 -3.75 3.72302
      vertex 6.44309 -3.75 0.691818
    endloop
  endfacet
  facet normal -1 -0 0
    outer loop
      vertex 6.44309 -3.75 3.72302
      vertex 6.44309 -4.25 0.691818
      vertex 6.44309 -4.25 3.72302
    endloop
  endfacet
  facet normal -0 0 1
    outer loop
      vertex 6.44309 -3.75 3.72302
      vertex 8.46933 -4.25 3.72302
      vertex 8.46933 -3.75 3.72302
    endloop
  endfacet
  facet normal 0 0 1
    outer loop
      vertex 8.46933 -4.25 3.72302
      vertex 6.44309 -3.75 3.72302
      vertex 6.44309 -4.25 3.72302
    endloop
  endfacet
  facet normal 0 0.993726 -0.111845
    outer loop
      vertex 15.146 -1.46537 8.22764
      vertex -1 -1.45 8.3642
      vertex 15.146 -1.45 8.3642
    endloop
  endfacet
  facet normal 0 0.993726 -0.111845
    outer loop
      vertex -1 -1.45 8.3642
      vertex 15.146 -1.46537 8.22764
      vertex -1 -1.46537 8.22764
    endloop
  endfacet
  facet normal 0 0.7294 -0.684087
    outer loop
      vertex 15.146 -1.68431 7.86922
      vertex -1 -1.58482 7.9753
      vertex 15.146 -1.58482 7.9753
    endloop
  endfacet
  facet normal 0 0.7294 -0.684087
    outer loop
      vertex -1 -1.58482 7.9753
      vertex 15.146 -1.68431 7.86922
      vertex -1 -1.68431 7.86922
    endloop
  endfacet
  facet normal -0 0.256572 0.966525
    outer loop
      vertex -1 -1.94385 9.01091
      vertex 15.146 -2.09393 9.05075
      vertex 15.146 -1.94385 9.01091
    endloop
  endfacet
  facet normal 0 0.256572 0.966525
    outer loop
      vertex 15.146 -2.09393 9.05075
      vertex -1 -1.94385 9.01091
      vertex -1 -2.09393 9.05075
    endloop
  endfacet
  facet normal -0 0.085861 0.996307
    outer loop
      vertex -1 -2.09393 9.05075
      vertex 15.146 -2.25 9.0642
      vertex 15.146 -2.09393 9.05075
    endloop
  endfacet
  facet normal 0 0.085861 0.996307
    outer loop
      vertex 15.146 -2.25 9.0642
      vertex -1 -2.09393 9.05075
      vertex -1 -2.25 9.0642
    endloop
  endfacet
  facet normal 0 0.853397 0.521262
    outer loop
      vertex 15.146 -1.5109 8.63208
      vertex -1 -1.58482 8.7531
      vertex 15.146 -1.58482 8.7531
    endloop
  endfacet
  facet normal 0 0.853397 0.521262
    outer loop
      vertex -1 -1.58482 8.7531
      vertex 15.146 -1.5109 8.63208
      vertex -1 -1.5109 8.63208
    endloop
  endfacet
  facet normal 0 0.853397 -0.521262
    outer loop
      vertex 15.146 -1.58482 7.9753
      vertex -1 -1.5109 8.09632
      vertex 15.146 -1.5109 8.09632
    endloop
  endfacet
  facet normal 0 0.853397 -0.521262
    outer loop
      vertex -1 -1.5109 8.09632
      vertex 15.146 -1.58482 7.9753
      vertex -1 -1.58482 7.9753
    endloop
  endfacet
  facet normal 0 0.583265 -0.812282
    outer loop
      vertex -1 -1.80554 7.78217
      vertex 15.146 -1.68431 7.86922
      vertex 15.146 -1.80554 7.78217
    endloop
  endfacet
  facet normal 0 0.583265 -0.812282
    outer loop
      vertex 15.146 -1.68431 7.86922
      vertex -1 -1.80554 7.78217
      vertex -1 -1.68431 7.86922
    endloop
  endfacet
  facet normal 0 0.085861 -0.996307
    outer loop
      vertex -1 -2.25 7.6642
      vertex 15.146 -2.09393 7.67765
      vertex 15.146 -2.25 7.6642
    endloop
  endfacet
  facet normal 0 0.085861 -0.996307
    outer loop
      vertex 15.146 -2.09393 7.67765
      vertex -1 -2.25 7.6642
      vertex -1 -2.09393 7.67765
    endloop
  endfacet
  facet normal 0 0.944823 -0.32758
    outer loop
      vertex 15.146 -1.5109 8.09632
      vertex -1 -1.46537 8.22764
      vertex 15.146 -1.46537 8.22764
    endloop
  endfacet
  facet normal 0 0.944823 -0.32758
    outer loop
      vertex -1 -1.46537 8.22764
      vertex 15.146 -1.5109 8.09632
      vertex -1 -1.5109 8.09632
    endloop
  endfacet
  facet normal 0 0.993726 0.111845
    outer loop
      vertex 15.146 -1.45 8.3642
      vertex -1 -1.46537 8.50076
      vertex 15.146 -1.46537 8.50076
    endloop
  endfacet
  facet normal 0 0.993726 0.111845
    outer loop
      vertex -1 -1.46537 8.50076
      vertex 15.146 -1.45 8.3642
      vertex -1 -1.45 8.3642
    endloop
  endfacet
  facet normal 0 0.256512 -0.966541
    outer loop
      vertex -1 -2.09393 7.67765
      vertex 15.146 -1.94385 7.71748
      vertex 15.146 -2.09393 7.67765
    endloop
  endfacet
  facet normal 0 0.256512 -0.966541
    outer loop
      vertex 15.146 -1.94385 7.71748
      vertex -1 -2.09393 7.67765
      vertex -1 -1.94385 7.71748
    endloop
  endfacet
  facet normal -0 0.583309 0.81225
    outer loop
      vertex -1 -1.68431 8.85917
      vertex 15.146 -1.80554 8.94623
      vertex 15.146 -1.68431 8.85917
    endloop
  endfacet
  facet normal 0 0.583309 0.81225
    outer loop
      vertex 15.146 -1.80554 8.94623
      vertex -1 -1.68431 8.85917
      vertex -1 -1.80554 8.94623
    endloop
  endfacet
  facet normal 0 0.944823 0.32758
    outer loop
      vertex 15.146 -1.46537 8.50076
      vertex -1 -1.5109 8.63208
      vertex 15.146 -1.5109 8.63208
    endloop
  endfacet
  facet normal 0 0.944823 0.32758
    outer loop
      vertex -1 -1.5109 8.63208
      vertex 15.146 -1.46537 8.50076
      vertex -1 -1.46537 8.50076
    endloop
  endfacet
  facet normal -0 0.423613 0.905843
    outer loop
      vertex -1 -1.80554 8.94623
      vertex 15.146 -1.94385 9.01091
      vertex 15.146 -1.80554 8.94623
    endloop
  endfacet
  facet normal 0 0.423613 0.905843
    outer loop
      vertex 15.146 -1.94385 9.01091
      vertex -1 -1.80554 8.94623
      vertex -1 -1.94385 9.01091
    endloop
  endfacet
  facet normal 0 0.729368 0.684122
    outer loop
      vertex 15.146 -1.58482 8.7531
      vertex -1 -1.68431 8.85917
      vertex 15.146 -1.68431 8.85917
    endloop
  endfacet
  facet normal 0 0.729368 0.684122
    outer loop
      vertex -1 -1.68431 8.85917
      vertex 15.146 -1.58482 8.7531
      vertex -1 -1.58482 8.7531
    endloop
  endfacet
  facet normal 0 0.423667 -0.905818
    outer loop
      vertex -1 -1.94385 7.71748
      vertex 15.146 -1.80554 7.78217
      vertex 15.146 -1.94385 7.71748
    endloop
  endfacet
  facet normal 0 0.423667 -0.905818
    outer loop
      vertex 15.146 -1.80554 7.78217
      vertex -1 -1.94385 7.71748
      vertex -1 -1.80554 7.78217
    endloop
  endfacet
endsolid OpenSCAD_Model
