solid OpenSCAD_Model
  facet normal 1 0 0
    outer loop
      vertex 19.1 0 10.7
      vertex 19.1 0.799999 10.7
      vertex 19.1 0.784628 10.8561
    endloop
  endfacet
  facet normal 1 0 0
    outer loop
      vertex 19.1 0.207867 4.97989
      vertex 19.1 5.8 9.5
      vertex 19.1 0.799999 9.5
    endloop
  endfacet
  facet normal 1 0 0
    outer loop
      vertex 19.1 0 10.7
      vertex 19.1 0.784628 10.8561
      vertex 19.1 0.739103 11.0061
    endloop
  endfacet
  facet normal 1 0 0
    outer loop
      vertex 19.1 0 10.7
      vertex 19.1 0.739103 11.0061
      vertex 19.1 0.665175 11.1445
    endloop
  endfacet
  facet normal 1 0 0
    outer loop
      vertex 19.1 0 10.7
      vertex 19.1 0.665175 11.1445
      vertex 19.1 0.565685 11.2657
    endloop
  endfacet
  facet normal 1 0 0
    outer loop
      vertex 19.1 0 10.7
      vertex 19.1 0.565685 11.2657
      vertex 19.1 0.444456 11.3652
    endloop
  endfacet
  facet normal 1 0 0
    outer loop
      vertex 19.1 0 10.7
      vertex 19.1 0.444456 11.3652
      vertex 19.1 0.306147 11.4391
    endloop
  endfacet
  facet normal 1 0 0
    outer loop
      vertex 19.1 0.799999 10.7
      vertex 19.1 0 10.7
      vertex 19.1 0.799999 9.5
    endloop
  endfacet
  facet normal 1 0 -0
    outer loop
      vertex 19.1 0.25 4.841
      vertex 19.1 5.8 9.5
      vertex 19.1 0.245195 4.88977
    endloop
  endfacet
  facet normal 1 0 0
    outer loop
      vertex 19.1 5.8 9.5
      vertex 19.1 0.245195 4.79223
      vertex 19.1 5.8 -2
    endloop
  endfacet
  facet normal 1 -0 0
    outer loop
      vertex 19.1 0.230969 4.74533
      vertex 19.1 5.8 -2
      vertex 19.1 0.245195 4.79223
    endloop
  endfacet
  facet normal 1 -0 0
    outer loop
      vertex 19.1 0.207867 4.70211
      vertex 19.1 5.8 -2
      vertex 19.1 0.230969 4.74533
    endloop
  endfacet
  facet normal 1 -0 0
    outer loop
      vertex 19.1 0.176776 4.66422
      vertex 19.1 5.8 -2
      vertex 19.1 0.207867 4.70211
    endloop
  endfacet
  facet normal 1 -0 0
    outer loop
      vertex 19.1 0.138892 4.63313
      vertex 19.1 5.8 -2
      vertex 19.1 0.176776 4.66422
    endloop
  endfacet
  facet normal 1 0 0
    outer loop
      vertex 19.1 0 -2
      vertex 19.1 0.138892 4.63313
      vertex 19.1 0.0956707 4.61003
    endloop
  endfacet
  facet normal 1 0 0
    outer loop
      vertex 19.1 0 -2
      vertex 19.1 0.0956707 4.61003
      vertex 19.1 0.0487719 4.5958
    endloop
  endfacet
  facet normal 1 0 0
    outer loop
      vertex 19.1 0 -2
      vertex 19.1 0.0487719 4.5958
      vertex 19.1 0 4.591
    endloop
  endfacet
  facet normal 1 0 0
    outer loop
      vertex 19.1 0.138892 4.63313
      vertex 19.1 0 -2
      vertex 19.1 5.8 -2
    endloop
  endfacet
  facet normal 1 0 0
    outer loop
      vertex 19.1 0.245195 4.79223
      vertex 19.1 5.8 9.5
      vertex 19.1 0.25 4.841
    endloop
  endfacet
  facet normal 1 0 0
    outer loop
      vertex 19.1 5.8 9.5
      vertex 19.1 0.230969 4.93667
      vertex 19.1 0.245195 4.88977
    endloop
  endfacet
  facet normal 1 0 0
    outer loop
      vertex 19.1 0 5.091
      vertex 19.1 0.799999 9.5
      vertex 19.1 0 10.7
    endloop
  endfacet
  facet normal 1 0 0
    outer loop
      vertex 19.1 5.8 9.5
      vertex 19.1 0.207867 4.97989
      vertex 19.1 0.230969 4.93667
    endloop
  endfacet
  facet normal 1 0 0
    outer loop
      vertex 19.1 0 10.7
      vertex 19.1 0.306147 11.4391
      vertex 19.1 0.156072 11.4846
    endloop
  endfacet
  facet normal 1 0 0
    outer loop
      vertex 19.1 0.799999 9.5
      vertex 19.1 0.176776 5.01778
      vertex 19.1 0.207867 4.97989
    endloop
  endfacet
  facet normal 1 0 0
    outer loop
      vertex 19.1 0.799999 9.5
      vertex 19.1 0.138892 5.04887
      vertex 19.1 0.176776 5.01778
    endloop
  endfacet
  facet normal 1 0 0
    outer loop
      vertex 19.1 0.799999 9.5
      vertex 19.1 0.0956707 5.07197
      vertex 19.1 0.138892 5.04887
    endloop
  endfacet
  facet normal 1 0 0
    outer loop
      vertex 19.1 0 10.7
      vertex 19.1 0.156072 11.4846
      vertex 19.1 0 11.5
    endloop
  endfacet
  facet normal 1 0 0
    outer loop
      vertex 19.1 0.799999 9.5
      vertex 19.1 0.0487719 5.0862
      vertex 19.1 0.0956707 5.07197
    endloop
  endfacet
  facet normal 1 0 0
    outer loop
      vertex 19.1 0.799999 9.5
      vertex 19.1 0 5.091
      vertex 19.1 0.0487719 5.0862
    endloop
  endfacet
  facet normal -0 0 1
    outer loop
      vertex -1 5.8 9.5
      vertex 0 0.799999 9.5
      vertex 0 5.8 9.5
    endloop
  endfacet
  facet normal 0 0 1
    outer loop
      vertex 0 0.799999 9.5
      vertex -1 5.8 9.5
      vertex -1 0.799999 9.5
    endloop
  endfacet
  facet normal -0 0 1
    outer loop
      vertex 18.1 5.8 9.5
      vertex 19.1 0.799999 9.5
      vertex 19.1 5.8 9.5
    endloop
  endfacet
  facet normal 0 0 1
    outer loop
      vertex 19.1 0.799999 9.5
      vertex 18.1 5.8 9.5
      vertex 18.1 0.799999 9.5
    endloop
  endfacet
  facet normal 0 0 -1
    outer loop
      vertex 14.9174 -4.25 -2
      vertex -1 -4.25 -2
      vertex 14.9174 0 -2
    endloop
  endfacet
  facet normal 0 0 -1
    outer loop
      vertex 14.9174 0 -2
      vertex 19.1 5.8 -2
      vertex 19.1 0 -2
    endloop
  endfacet
  facet normal 0 0 -1
    outer loop
      vertex -1 5.8 -2
      vertex 14.9174 0 -2
      vertex -1 -4.25 -2
    endloop
  endfacet
  facet normal 0 0 -1
    outer loop
      vertex 14.9174 0 -2
      vertex -1 5.8 -2
      vertex 19.1 5.8 -2
    endloop
  endfacet
  facet normal -1 0 0
    outer loop
      vertex -1 0 5.091
      vertex -1 5.8 9.5
      vertex -1 5.8 -2
    endloop
  endfacet
  facet normal -1 0 0
    outer loop
      vertex -1 0 10.7
      vertex -1 0.799999 10.7
      vertex -1 0.799999 9.5
    endloop
  endfacet
  facet normal -1 0 0
    outer loop
      vertex -1 0.799999 10.7
      vertex -1 0 10.7
      vertex -1 0.784628 10.8561
    endloop
  endfacet
  facet normal -1 -0 0
    outer loop
      vertex -1 0.784628 10.8561
      vertex -1 0 10.7
      vertex -1 0.739103 11.0061
    endloop
  endfacet
  facet normal -1 -0 0
    outer loop
      vertex -1 0.739103 11.0061
      vertex -1 0 10.7
      vertex -1 0.665175 11.1445
    endloop
  endfacet
  facet normal -1 -0 0
    outer loop
      vertex -1 0.665175 11.1445
      vertex -1 0 10.7
      vertex -1 0.565685 11.2657
    endloop
  endfacet
  facet normal -1 -0 0
    outer loop
      vertex -1 0.565685 11.2657
      vertex -1 0 10.7
      vertex -1 0.444456 11.3652
    endloop
  endfacet
  facet normal -1 -0 0
    outer loop
      vertex -1 0.444456 11.3652
      vertex -1 0 10.7
      vertex -1 0.306147 11.4391
    endloop
  endfacet
  facet normal -1 0 0
    outer loop
      vertex -1 0 10.7
      vertex -1 0.799999 9.5
      vertex -1 0 5.091
    endloop
  endfacet
  facet normal -1 -0 0
    outer loop
      vertex -1 5.8 9.5
      vertex -1 0 5.091
      vertex -1 0.799999 9.5
    endloop
  endfacet
  facet normal -1 0 0
    outer loop
      vertex -1 -4.25 -2
      vertex -1 0 5.091
      vertex -1 5.8 -2
    endloop
  endfacet
  facet normal -1 0 0
    outer loop
      vertex -1 -4.25 12.02
      vertex -1 -2.25 6.191
      vertex -1 -2.25 5.091
    endloop
  endfacet
  facet normal -1 0 0
    outer loop
      vertex -1 -2.25 6.191
      vertex -1 -4.25 12.02
      vertex -1 -2.25 7.591
    endloop
  endfacet
  facet normal -1 -0 0
    outer loop
      vertex -1 0 5.091
      vertex -1 -4.25 -2
      vertex -1 -2.25 5.091
    endloop
  endfacet
  facet normal -1 0 0
    outer loop
      vertex -1 -4.25 12.02
      vertex -1 -2.25 5.091
      vertex -1 -4.25 -2
    endloop
  endfacet
  facet normal -1 0 0
    outer loop
      vertex -1 -2.25 7.591
      vertex -1 -4.25 12.02
      vertex -1 -2.25 12.02
    endloop
  endfacet
  facet normal -1 -0 0
    outer loop
      vertex -1 0.306147 11.4391
      vertex -1 0 10.7
      vertex -1 0.156072 11.4846
    endloop
  endfacet
  facet normal -1 0 0
    outer loop
      vertex -1 0 11.5
      vertex -1 0.156072 11.4846
      vertex -1 0 10.7
    endloop
  endfacet
  facet normal -1 0 0
    outer loop
      vertex -1 -1.46537 6.75444
      vertex -1 -1.46537 7.02756
      vertex -1 -1.45 6.891
    endloop
  endfacet
  facet normal -1 0 0
    outer loop
      vertex -1 -1.5109 6.62312
      vertex -1 -1.46537 7.02756
      vertex -1 -1.46537 6.75444
    endloop
  endfacet
  facet normal -1 0 0
    outer loop
      vertex -1 -1.5109 6.62312
      vertex -1 -1.5109 7.15888
      vertex -1 -1.46537 7.02756
    endloop
  endfacet
  facet normal -1 0 0
    outer loop
      vertex -1 -1.58482 6.5021
      vertex -1 -1.5109 7.15888
      vertex -1 -1.5109 6.62312
    endloop
  endfacet
  facet normal -1 0 0
    outer loop
      vertex -1 -1.58482 6.5021
      vertex -1 -1.58482 7.2799
      vertex -1 -1.5109 7.15888
    endloop
  endfacet
  facet normal -1 0 0
    outer loop
      vertex -1 -1.68431 6.39602
      vertex -1 -1.58482 7.2799
      vertex -1 -1.58482 6.5021
    endloop
  endfacet
  facet normal -1 0 0
    outer loop
      vertex -1 -1.68431 6.39602
      vertex -1 -1.68431 7.38597
      vertex -1 -1.58482 7.2799
    endloop
  endfacet
  facet normal -1 0 0
    outer loop
      vertex -1 -1.80554 6.30897
      vertex -1 -1.68431 7.38597
      vertex -1 -1.68431 6.39602
    endloop
  endfacet
  facet normal -1 0 0
    outer loop
      vertex -1 -1.80554 6.30897
      vertex -1 -1.80554 7.47303
      vertex -1 -1.68431 7.38597
    endloop
  endfacet
  facet normal -1 0 0
    outer loop
      vertex -1 -1.94385 6.24428
      vertex -1 -1.80554 7.47303
      vertex -1 -1.80554 6.30897
    endloop
  endfacet
  facet normal -1 0 0
    outer loop
      vertex -1 -1.94385 6.24428
      vertex -1 -1.94385 7.53771
      vertex -1 -1.80554 7.47303
    endloop
  endfacet
  facet normal -1 0 0
    outer loop
      vertex -1 -2.09393 6.20445
      vertex -1 -1.94385 7.53771
      vertex -1 -1.94385 6.24428
    endloop
  endfacet
  facet normal -1 0 0
    outer loop
      vertex -1 -2.09393 6.20445
      vertex -1 -2.09393 7.57755
      vertex -1 -1.94385 7.53771
    endloop
  endfacet
  facet normal -1 0 0
    outer loop
      vertex -1 -2.25 6.191
      vertex -1 -2.09393 7.57755
      vertex -1 -2.09393 6.20445
    endloop
  endfacet
  facet normal -1 -0 0
    outer loop
      vertex -1 -2.09393 7.57755
      vertex -1 -2.25 6.191
      vertex -1 -2.25 7.591
    endloop
  endfacet
  facet normal 0 1 0
    outer loop
      vertex 19.1 5.8 9.5
      vertex 18.1 5.8 0
      vertex 18.1 5.8 9.5
    endloop
  endfacet
  facet normal 0 1 0
    outer loop
      vertex 18.1 5.8 0
      vertex 19.1 5.8 -2
      vertex 0 5.8 0
    endloop
  endfacet
  facet normal 0 1 -0
    outer loop
      vertex 19.1 5.8 -2
      vertex 18.1 5.8 0
      vertex 19.1 5.8 9.5
    endloop
  endfacet
  facet normal 0 1 -0
    outer loop
      vertex 0 5.8 0
      vertex -1 5.8 9.5
      vertex 0 5.8 9.5
    endloop
  endfacet
  facet normal 0 1 0
    outer loop
      vertex 0 5.8 0
      vertex -1 5.8 -2
      vertex -1 5.8 9.5
    endloop
  endfacet
  facet normal 0 1 0
    outer loop
      vertex -1 5.8 -2
      vertex 0 5.8 0
      vertex 19.1 5.8 -2
    endloop
  endfacet
  facet normal 0 -1 0
    outer loop
      vertex 14.9174 0 5.091
      vertex 19.1 0 10.7
      vertex -1 0 10.7
    endloop
  endfacet
  facet normal 0 -1 0
    outer loop
      vertex 14.9174 0 5.091
      vertex -1 0 10.7
      vertex -1 0 5.091
    endloop
  endfacet
  facet normal 0 0 0
    outer loop
      vertex 14.9174 0 -2
      vertex 14.9174 0 4.591
      vertex 14.9174 0 5.091
    endloop
  endfacet
  facet normal 0 -1 0
    outer loop
      vertex 14.9174 0 -2
      vertex 19.1 0 4.591
      vertex 14.9174 0 4.591
    endloop
  endfacet
  facet normal 0 -1 -0
    outer loop
      vertex 19.1 0 4.591
      vertex 14.9174 0 -2
      vertex 19.1 0 -2
    endloop
  endfacet
  facet normal 0 -1 -0
    outer loop
      vertex 19.1 0 10.7
      vertex 14.9174 0 5.091
      vertex 19.1 0 5.091
    endloop
  endfacet
  facet normal -1 0 0
    outer loop
      vertex 18.1 0.799999 0
      vertex 18.1 5.8 9.5
      vertex 18.1 5.8 0
    endloop
  endfacet
  facet normal -1 -0 0
    outer loop
      vertex 18.1 5.8 9.5
      vertex 18.1 0.799999 0
      vertex 18.1 0.799999 9.5
    endloop
  endfacet
  facet normal -0 0 1
    outer loop
      vertex 0 5.8 0
      vertex 18.1 0.799999 0
      vertex 18.1 5.8 0
    endloop
  endfacet
  facet normal 0 0 1
    outer loop
      vertex 18.1 0.799999 0
      vertex 0 5.8 0
      vertex 0 0.799999 0
    endloop
  endfacet
  facet normal 1 -0 0
    outer loop
      vertex 0 0.799999 9.5
      vertex 0 5.8 0
      vertex 0 5.8 9.5
    endloop
  endfacet
  facet normal 1 0 0
    outer loop
      vertex 0 5.8 0
      vertex 0 0.799999 9.5
      vertex 0 0.799999 0
    endloop
  endfacet
  facet normal 0 1 -0
    outer loop
      vertex 18.1 0.799999 0
      vertex 0 0.799999 9.5
      vertex 18.1 0.799999 9.5
    endloop
  endfacet
  facet normal 0 1 0
    outer loop
      vertex 0 0.799999 9.5
      vertex 18.1 0.799999 0
      vertex 0 0.799999 0
    endloop
  endfacet
  facet normal -0 0 1
    outer loop
      vertex -1 0 11.5
      vertex 19.1 -9.68247e-06 11.5
      vertex 19.1 0 11.5
    endloop
  endfacet
  facet normal 0 0 1
    outer loop
      vertex 19.1 -9.68247e-06 11.5
      vertex -1 0 11.5
      vertex -1 -9.68247e-06 11.5
    endloop
  endfacet
  facet normal 0 0.772936 0.634484
    outer loop
      vertex 19.1 0.665175 11.1445
      vertex -1 0.565685 11.2657
      vertex 19.1 0.565685 11.2657
    endloop
  endfacet
  facet normal 0 0.772936 0.634484
    outer loop
      vertex -1 0.565685 11.2657
      vertex 19.1 0.665175 11.1445
      vertex -1 0.665175 11.1445
    endloop
  endfacet
  facet normal 0 0.882049 0.471157
    outer loop
      vertex 19.1 0.739103 11.0061
      vertex -1 0.665175 11.1445
      vertex 19.1 0.665175 11.1445
    endloop
  endfacet
  facet normal 0 0.882049 0.471157
    outer loop
      vertex -1 0.665175 11.1445
      vertex 19.1 0.739103 11.0061
      vertex -1 0.739103 11.0061
    endloop
  endfacet
  facet normal -0 0.0981955 0.995167
    outer loop
      vertex -1 0.156072 11.4846
      vertex 19.1 0 11.5
      vertex 19.1 0.156072 11.4846
    endloop
  endfacet
  facet normal 0 0.0981955 0.995167
    outer loop
      vertex 19.1 0 11.5
      vertex -1 0.156072 11.4846
      vertex -1 0 11.5
    endloop
  endfacet
  facet normal -0 0.471259 0.881995
    outer loop
      vertex -1 0.444456 11.3652
      vertex 19.1 0.306147 11.4391
      vertex 19.1 0.444456 11.3652
    endloop
  endfacet
  facet normal 0 0.471259 0.881995
    outer loop
      vertex 19.1 0.306147 11.4391
      vertex -1 0.444456 11.3652
      vertex -1 0.306147 11.4391
    endloop
  endfacet
  facet normal 0 0.9569 0.290419
    outer loop
      vertex 19.1 0.784628 10.8561
      vertex -1 0.739103 11.0061
      vertex 19.1 0.739103 11.0061
    endloop
  endfacet
  facet normal 0 0.9569 0.290419
    outer loop
      vertex -1 0.739103 11.0061
      vertex 19.1 0.784628 10.8561
      vertex -1 0.784628 10.8561
    endloop
  endfacet
  facet normal -0 0.634431 0.772979
    outer loop
      vertex -1 0.565685 11.2657
      vertex 19.1 0.444456 11.3652
      vertex 19.1 0.565685 11.2657
    endloop
  endfacet
  facet normal 0 0.634431 0.772979
    outer loop
      vertex 19.1 0.444456 11.3652
      vertex -1 0.565685 11.2657
      vertex -1 0.444456 11.3652
    endloop
  endfacet
  facet normal -0 0.29014 0.956984
    outer loop
      vertex -1 0.306147 11.4391
      vertex 19.1 0.156072 11.4846
      vertex 19.1 0.306147 11.4391
    endloop
  endfacet
  facet normal 0 0.29014 0.956984
    outer loop
      vertex 19.1 0.156072 11.4846
      vertex -1 0.306147 11.4391
      vertex -1 0.156072 11.4846
    endloop
  endfacet
  facet normal 0 0.995187 0.097995
    outer loop
      vertex 19.1 0.799999 10.7
      vertex -1 0.784628 10.8561
      vertex 19.1 0.784628 10.8561
    endloop
  endfacet
  facet normal 0 0.995187 0.097995
    outer loop
      vertex -1 0.784628 10.8561
      vertex 19.1 0.799999 10.7
      vertex -1 0.799999 10.7
    endloop
  endfacet
  facet normal 0 0 -1
    outer loop
      vertex -1 -9.68247e-06 11.5
      vertex 19.1 0 11.5
      vertex 19.1 -9.68247e-06 11.5
    endloop
  endfacet
  facet normal -0 0 -1
    outer loop
      vertex 19.1 0 11.5
      vertex -1 -9.68247e-06 11.5
      vertex -1 0 11.5
    endloop
  endfacet
  facet normal 0 -1 0
    outer loop
      vertex -1 0 10.7
      vertex 19.1 0 11.5
      vertex -1 0 11.5
    endloop
  endfacet
  facet normal 0 -1 -0
    outer loop
      vertex 19.1 0 11.5
      vertex -1 0 10.7
      vertex 19.1 0 10.7
    endloop
  endfacet
  facet normal 0 1 0
    outer loop
      vertex 18.1 0.799999 9.5
      vertex 19.1 0.799999 10.7
      vertex 19.1 0.799999 9.5
    endloop
  endfacet
  facet normal 0 1 0
    outer loop
      vertex 19.1 0.799999 10.7
      vertex 18.1 0.799999 9.5
      vertex -1 0.799999 10.7
    endloop
  endfacet
  facet normal 0 1 -0
    outer loop
      vertex 0 0.799999 9.5
      vertex -1 0.799999 10.7
      vertex 18.1 0.799999 9.5
    endloop
  endfacet
  facet normal 0 1 0
    outer loop
      vertex -1 0.799999 10.7
      vertex 0 0.799999 9.5
      vertex -1 0.799999 9.5
    endloop
  endfacet
  facet normal 0 -0.290348 0.956921
    outer loop
      vertex 14.9174 0.0956707 4.61003
      vertex 19.1 0.0487719 4.5958
      vertex 19.1 0.0956707 4.61003
    endloop
  endfacet
  facet normal 0 -0.290348 0.956921
    outer loop
      vertex 19.1 0.0487719 4.5958
      vertex 14.9174 0.0956707 4.61003
      vertex 14.9174 0.0487719 4.5958
    endloop
  endfacet
  facet normal 0 -0.0979441 0.995192
    outer loop
      vertex 14.9174 0.0487719 4.5958
      vertex 19.1 0 4.591
      vertex 19.1 0.0487719 4.5958
    endloop
  endfacet
  facet normal 0 -0.0979441 0.995192
    outer loop
      vertex 19.1 0 4.591
      vertex 14.9174 0.0487719 4.5958
      vertex 14.9174 0 4.591
    endloop
  endfacet
  facet normal 0 -0.471361 0.88194
    outer loop
      vertex 14.9174 0.138892 4.63313
      vertex 19.1 0.0956707 4.61003
      vertex 19.1 0.138892 4.63313
    endloop
  endfacet
  facet normal 0 -0.471361 0.88194
    outer loop
      vertex 19.1 0.0956707 4.61003
      vertex 14.9174 0.138892 4.63313
      vertex 14.9174 0.0956707 4.61003
    endloop
  endfacet
  facet normal 0 -0.995182 0.098049
    outer loop
      vertex 14.9174 0.245195 4.79223
      vertex 19.1 0.25 4.841
      vertex 14.9174 0.25 4.841
    endloop
  endfacet
  facet normal 0 -0.995182 0.098049
    outer loop
      vertex 19.1 0.25 4.841
      vertex 14.9174 0.245195 4.79223
      vertex 19.1 0.245195 4.79223
    endloop
  endfacet
  facet normal 0 -0.0979441 -0.995192
    outer loop
      vertex 14.9174 0 5.091
      vertex 19.1 0.0487719 5.0862
      vertex 19.1 0 5.091
    endloop
  endfacet
  facet normal -0 -0.0979441 -0.995192
    outer loop
      vertex 19.1 0.0487719 5.0862
      vertex 14.9174 0 5.091
      vertex 14.9174 0.0487719 5.0862
    endloop
  endfacet
  facet normal 0 -0.881918 0.471404
    outer loop
      vertex 14.9174 0.207867 4.70211
      vertex 19.1 0.230969 4.74533
      vertex 14.9174 0.230969 4.74533
    endloop
  endfacet
  facet normal 0 -0.881918 0.471404
    outer loop
      vertex 19.1 0.230969 4.74533
      vertex 14.9174 0.207867 4.70211
      vertex 19.1 0.207867 4.70211
    endloop
  endfacet
  facet normal 0 -0.956946 0.290267
    outer loop
      vertex 14.9174 0.230969 4.74533
      vertex 19.1 0.245195 4.79223
      vertex 14.9174 0.245195 4.79223
    endloop
  endfacet
  facet normal 0 -0.956946 0.290267
    outer loop
      vertex 19.1 0.245195 4.79223
      vertex 14.9174 0.230969 4.74533
      vertex 19.1 0.230969 4.74533
    endloop
  endfacet
  facet normal 0 -0.995182 -0.098049
    outer loop
      vertex 14.9174 0.25 4.841
      vertex 19.1 0.245195 4.88977
      vertex 14.9174 0.245195 4.88977
    endloop
  endfacet
  facet normal 0 -0.995182 -0.098049
    outer loop
      vertex 19.1 0.245195 4.88977
      vertex 14.9174 0.25 4.841
      vertex 19.1 0.25 4.841
    endloop
  endfacet
  facet normal 0 -0.290348 -0.956921
    outer loop
      vertex 14.9174 0.0487719 5.0862
      vertex 19.1 0.0956707 5.07197
      vertex 19.1 0.0487719 5.0862
    endloop
  endfacet
  facet normal -0 -0.290348 -0.956921
    outer loop
      vertex 19.1 0.0956707 5.07197
      vertex 14.9174 0.0487719 5.0862
      vertex 14.9174 0.0956707 5.07197
    endloop
  endfacet
  facet normal 0 -0.773056 -0.634338
    outer loop
      vertex 14.9174 0.207867 4.97989
      vertex 19.1 0.176776 5.01778
      vertex 14.9174 0.176776 5.01778
    endloop
  endfacet
  facet normal 0 -0.773056 -0.634338
    outer loop
      vertex 19.1 0.176776 5.01778
      vertex 14.9174 0.207867 4.97989
      vertex 19.1 0.207867 4.97989
    endloop
  endfacet
  facet normal 0 -0.634386 0.773016
    outer loop
      vertex 14.9174 0.176776 4.66422
      vertex 19.1 0.138892 4.63313
      vertex 19.1 0.176776 4.66422
    endloop
  endfacet
  facet normal 0 -0.634386 0.773016
    outer loop
      vertex 19.1 0.138892 4.63313
      vertex 14.9174 0.176776 4.66422
      vertex 14.9174 0.138892 4.63313
    endloop
  endfacet
  facet normal 0 -0.881918 -0.471404
    outer loop
      vertex 14.9174 0.230969 4.93667
      vertex 19.1 0.207867 4.97989
      vertex 14.9174 0.207867 4.97989
    endloop
  endfacet
  facet normal 0 -0.881918 -0.471404
    outer loop
      vertex 19.1 0.207867 4.97989
      vertex 14.9174 0.230969 4.93667
      vertex 19.1 0.230969 4.93667
    endloop
  endfacet
  facet normal 0 -0.773056 0.634338
    outer loop
      vertex 14.9174 0.176776 4.66422
      vertex 19.1 0.207867 4.70211
      vertex 14.9174 0.207867 4.70211
    endloop
  endfacet
  facet normal 0 -0.773056 0.634338
    outer loop
      vertex 19.1 0.207867 4.70211
      vertex 14.9174 0.176776 4.66422
      vertex 19.1 0.176776 4.66422
    endloop
  endfacet
  facet normal 0 -0.956946 -0.290267
    outer loop
      vertex 14.9174 0.245195 4.88977
      vertex 19.1 0.230969 4.93667
      vertex 14.9174 0.230969 4.93667
    endloop
  endfacet
  facet normal 0 -0.956946 -0.290267
    outer loop
      vertex 19.1 0.230969 4.93667
      vertex 14.9174 0.245195 4.88977
      vertex 19.1 0.245195 4.88977
    endloop
  endfacet
  facet normal 0 -0.634386 -0.773016
    outer loop
      vertex 14.9174 0.138892 5.04887
      vertex 19.1 0.176776 5.01778
      vertex 19.1 0.138892 5.04887
    endloop
  endfacet
  facet normal -0 -0.634386 -0.773016
    outer loop
      vertex 19.1 0.176776 5.01778
      vertex 14.9174 0.138892 5.04887
      vertex 14.9174 0.176776 5.01778
    endloop
  endfacet
  facet normal 1 0 0
    outer loop
      vertex 14.9174 0.245195 4.88977
      vertex 14.9174 0.245195 4.79223
      vertex 14.9174 0.25 4.841
    endloop
  endfacet
  facet normal 1 0 0
    outer loop
      vertex 14.9174 0.230969 4.93667
      vertex 14.9174 0.245195 4.79223
      vertex 14.9174 0.245195 4.88977
    endloop
  endfacet
  facet normal 1 0 0
    outer loop
      vertex 14.9174 0.230969 4.93667
      vertex 14.9174 0.230969 4.74533
      vertex 14.9174 0.245195 4.79223
    endloop
  endfacet
  facet normal 1 0 0
    outer loop
      vertex 14.9174 0.207867 4.97989
      vertex 14.9174 0.230969 4.74533
      vertex 14.9174 0.230969 4.93667
    endloop
  endfacet
  facet normal 1 0 0
    outer loop
      vertex 14.9174 0.207867 4.97989
      vertex 14.9174 0.207867 4.70211
      vertex 14.9174 0.230969 4.74533
    endloop
  endfacet
  facet normal 1 0 0
    outer loop
      vertex 14.9174 0.176776 5.01778
      vertex 14.9174 0.207867 4.70211
      vertex 14.9174 0.207867 4.97989
    endloop
  endfacet
  facet normal 1 0 0
    outer loop
      vertex 14.9174 0.176776 5.01778
      vertex 14.9174 0.176776 4.66422
      vertex 14.9174 0.207867 4.70211
    endloop
  endfacet
  facet normal 1 0 0
    outer loop
      vertex 14.9174 0.138892 5.04887
      vertex 14.9174 0.176776 4.66422
      vertex 14.9174 0.176776 5.01778
    endloop
  endfacet
  facet normal 1 0 0
    outer loop
      vertex 14.9174 0.138892 5.04887
      vertex 14.9174 0.138892 4.63313
      vertex 14.9174 0.176776 4.66422
    endloop
  endfacet
  facet normal 1 0 0
    outer loop
      vertex 14.9174 0.0956707 5.07197
      vertex 14.9174 0.138892 4.63313
      vertex 14.9174 0.138892 5.04887
    endloop
  endfacet
  facet normal 1 0 0
    outer loop
      vertex 14.9174 0.0956707 5.07197
      vertex 14.9174 0.0956707 4.61003
      vertex 14.9174 0.138892 4.63313
    endloop
  endfacet
  facet normal 1 0 0
    outer loop
      vertex 14.9174 0.0487719 5.0862
      vertex 14.9174 0.0956707 4.61003
      vertex 14.9174 0.0956707 5.07197
    endloop
  endfacet
  facet normal 1 0 0
    outer loop
      vertex 14.9174 0.0487719 5.0862
      vertex 14.9174 0.0487719 4.5958
      vertex 14.9174 0.0956707 4.61003
    endloop
  endfacet
  facet normal 1 0 0
    outer loop
      vertex 14.9174 0 5.091
      vertex 14.9174 0.0487719 4.5958
      vertex 14.9174 0.0487719 5.0862
    endloop
  endfacet
  facet normal 1 0 0
    outer loop
      vertex 14.9174 0.0487719 4.5958
      vertex 14.9174 0 5.091
      vertex 14.9174 0 4.591
    endloop
  endfacet
  facet normal 0 -0.471361 -0.88194
    outer loop
      vertex 14.9174 0.0956707 5.07197
      vertex 19.1 0.138892 5.04887
      vertex 19.1 0.0956707 5.07197
    endloop
  endfacet
  facet normal -0 -0.471361 -0.88194
    outer loop
      vertex 19.1 0.138892 5.04887
      vertex 14.9174 0.0956707 5.07197
      vertex 14.9174 0.138892 5.04887
    endloop
  endfacet
  facet normal 1 -0 0
    outer loop
      vertex 14.9174 -4.25 12.02
      vertex 14.9174 -2.25 7.591
      vertex 14.9174 -2.25 12.02
    endloop
  endfacet
  facet normal 1 0 0
    outer loop
      vertex 14.9174 -2.25 7.591
      vertex 14.9174 -4.25 12.02
      vertex 14.9174 -2.25 6.191
    endloop
  endfacet
  facet normal 1 0 0
    outer loop
      vertex 14.9174 -2.25 6.191
      vertex 14.9174 -4.25 12.02
      vertex 14.9174 -2.25 5.091
    endloop
  endfacet
  facet normal 1 0 0
    outer loop
      vertex 14.9174 -1.46537 7.02756
      vertex 14.9174 -1.46537 6.75444
      vertex 14.9174 -1.45 6.891
    endloop
  endfacet
  facet normal 1 0 0
    outer loop
      vertex 14.9174 -1.5109 7.15888
      vertex 14.9174 -1.46537 6.75444
      vertex 14.9174 -1.46537 7.02756
    endloop
  endfacet
  facet normal 1 0 0
    outer loop
      vertex 14.9174 -1.5109 7.15888
      vertex 14.9174 -1.5109 6.62312
      vertex 14.9174 -1.46537 6.75444
    endloop
  endfacet
  facet normal 1 0 0
    outer loop
      vertex 14.9174 -1.58482 7.2799
      vertex 14.9174 -1.5109 6.62312
      vertex 14.9174 -1.5109 7.15888
    endloop
  endfacet
  facet normal 1 0 0
    outer loop
      vertex 14.9174 -1.58482 7.2799
      vertex 14.9174 -1.58482 6.5021
      vertex 14.9174 -1.5109 6.62312
    endloop
  endfacet
  facet normal 1 0 0
    outer loop
      vertex 14.9174 -1.68431 7.38597
      vertex 14.9174 -1.58482 6.5021
      vertex 14.9174 -1.58482 7.2799
    endloop
  endfacet
  facet normal 1 0 0
    outer loop
      vertex 14.9174 -1.68431 7.38597
      vertex 14.9174 -1.68431 6.39602
      vertex 14.9174 -1.58482 6.5021
    endloop
  endfacet
  facet normal 1 0 0
    outer loop
      vertex 14.9174 -1.80554 7.47303
      vertex 14.9174 -1.68431 6.39602
      vertex 14.9174 -1.68431 7.38597
    endloop
  endfacet
  facet normal 1 0 0
    outer loop
      vertex 14.9174 -1.80554 7.47303
      vertex 14.9174 -1.80554 6.30897
      vertex 14.9174 -1.68431 6.39602
    endloop
  endfacet
  facet normal 1 0 0
    outer loop
      vertex 14.9174 -1.94385 7.53771
      vertex 14.9174 -1.80554 6.30897
      vertex 14.9174 -1.80554 7.47303
    endloop
  endfacet
  facet normal 1 0 0
    outer loop
      vertex 14.9174 -1.94385 7.53771
      vertex 14.9174 -1.94385 6.24428
      vertex 14.9174 -1.80554 6.30897
    endloop
  endfacet
  facet normal 1 0 0
    outer loop
      vertex 14.9174 -2.09393 7.57755
      vertex 14.9174 -1.94385 6.24428
      vertex 14.9174 -1.94385 7.53771
    endloop
  endfacet
  facet normal 1 0 0
    outer loop
      vertex 14.9174 -2.09393 7.57755
      vertex 14.9174 -2.09393 6.20445
      vertex 14.9174 -1.94385 6.24428
    endloop
  endfacet
  facet normal 1 0 0
    outer loop
      vertex 14.9174 -2.25 7.591
      vertex 14.9174 -2.09393 6.20445
      vertex 14.9174 -2.09393 7.57755
    endloop
  endfacet
  facet normal 1 0 0
    outer loop
      vertex 14.9174 -2.09393 6.20445
      vertex 14.9174 -2.25 7.591
      vertex 14.9174 -2.25 6.191
    endloop
  endfacet
  facet normal 1 -0 0
    outer loop
      vertex 14.9174 -2.25 5.091
      vertex 14.9174 0 -2
      vertex 14.9174 0 5.091
    endloop
  endfacet
  facet normal 1 0 0
    outer loop
      vertex 14.9174 -2.25 5.091
      vertex 14.9174 -4.25 -2
      vertex 14.9174 0 -2
    endloop
  endfacet
  facet normal 1 0 0
    outer loop
      vertex 14.9174 -4.25 -2
      vertex 14.9174 -2.25 5.091
      vertex 14.9174 -4.25 12.02
    endloop
  endfacet
  facet normal 0 0 1
    outer loop
      vertex 14.9174 -2.25 12.02
      vertex 9.55 -3.75 12.02
      vertex 14.9174 -4.25 12.02
    endloop
  endfacet
  facet normal 0 0 1
    outer loop
      vertex 14.9174 -2.25 12.02
      vertex 8.55 -3.75 12.02
      vertex 9.55 -3.75 12.02
    endloop
  endfacet
  facet normal -0 0 1
    outer loop
      vertex -1 -2.25 12.02
      vertex 8.55 -3.75 12.02
      vertex 14.9174 -2.25 12.02
    endloop
  endfacet
  facet normal 0 0 1
    outer loop
      vertex -1 -4.25 12.02
      vertex 8.55 -3.75 12.02
      vertex -1 -2.25 12.02
    endloop
  endfacet
  facet normal 0 0 1
    outer loop
      vertex 8.55 -3.75 12.02
      vertex -1 -4.25 12.02
      vertex 8.55 -4.25 12.02
    endloop
  endfacet
  facet normal 0 0 1
    outer loop
      vertex 14.9174 -4.25 12.02
      vertex 9.55 -3.75 12.02
      vertex 9.55 -4.25 12.02
    endloop
  endfacet
  facet normal 0 -1 0
    outer loop
      vertex -1 -4.25 12.02
      vertex 8.55 -4.25 9.52
      vertex 8.55 -4.25 12.02
    endloop
  endfacet
  facet normal 0 -1 0
    outer loop
      vertex 7.29047 -4.25 5.73625
      vertex 8.55 -4.25 9.52
      vertex 6.91469 -4.25 5.76636
    endloop
  endfacet
  facet normal 0 -1 0
    outer loop
      vertex 5.90184 -4.25 5.49391
      vertex 8.55 -4.25 9.52
      vertex -1 -4.25 12.02
    endloop
  endfacet
  facet normal 0 -1 0
    outer loop
      vertex 8.55 -4.25 9.52
      vertex 6.5385 -4.25 5.73608
      vertex 6.91469 -4.25 5.76636
    endloop
  endfacet
  facet normal 0 -1 0
    outer loop
      vertex 8.55 -4.25 9.52
      vertex 6.20089 -4.25 5.64526
      vertex 6.5385 -4.25 5.73608
    endloop
  endfacet
  facet normal 0 -1 0
    outer loop
      vertex 8.55 -4.25 9.52
      vertex 5.90184 -4.25 5.49391
      vertex 6.20089 -4.25 5.64526
    endloop
  endfacet
  facet normal 0 -1 0
    outer loop
      vertex -1 -4.25 12.02
      vertex 5.64138 -4.25 5.28201
      vertex 5.90184 -4.25 5.49391
    endloop
  endfacet
  facet normal 0 -1 0
    outer loop
      vertex -1 -4.25 12.02
      vertex 5.41948 -4.25 5.00957
      vertex 5.64138 -4.25 5.28201
    endloop
  endfacet
  facet normal 0 -1 0
    outer loop
      vertex -1 -4.25 12.02
      vertex 5.23711 -4.25 4.67969
      vertex 5.41948 -4.25 5.00957
    endloop
  endfacet
  facet normal 0 -1 0
    outer loop
      vertex -1 -4.25 12.02
      vertex 5.09528 -4.25 4.29543
      vertex 5.23711 -4.25 4.67969
    endloop
  endfacet
  facet normal 0 -1 0
    outer loop
      vertex -1 -4.25 12.02
      vertex 4.99396 -4.25 3.85681
      vertex 5.09528 -4.25 4.29543
    endloop
  endfacet
  facet normal 0 -1 0
    outer loop
      vertex -1 -4.25 -2
      vertex 4.99396 -4.25 3.85681
      vertex -1 -4.25 12.02
    endloop
  endfacet
  facet normal 0 -1 0
    outer loop
      vertex 4.99396 -4.25 3.85681
      vertex -1 -4.25 -2
      vertex 4.93317 -4.25 3.36385
    endloop
  endfacet
  facet normal 0 -1 0
    outer loop
      vertex 4.93317 -4.25 3.36385
      vertex -1 -4.25 -2
      vertex 4.91291 -4.25 2.81651
    endloop
  endfacet
  facet normal 0 -1 -0
    outer loop
      vertex 4.91291 -4.25 2.81651
      vertex -1 -4.25 -2
      vertex 4.93219 -4.25 2.26088
    endloop
  endfacet
  facet normal 0 -1 -0
    outer loop
      vertex 4.93219 -4.25 2.26088
      vertex -1 -4.25 -2
      vertex 4.99006 -4.25 1.76254
    endloop
  endfacet
  facet normal 0 -1 -0
    outer loop
      vertex 4.99006 -4.25 1.76254
      vertex -1 -4.25 -2
      vertex 5.08648 -4.25 1.32149
    endloop
  endfacet
  facet normal 0 -1 -0
    outer loop
      vertex 5.08648 -4.25 1.32149
      vertex -1 -4.25 -2
      vertex 5.22149 -4.25 0.937729
    endloop
  endfacet
  facet normal 0 -1 -0
    outer loop
      vertex 6.50626 -4.25 -0.103531
      vertex -1 -4.25 -2
      vertex 6.89026 -4.25 -0.133316
    endloop
  endfacet
  facet normal 0 -1 -0
    outer loop
      vertex 6.16474 -4.25 -0.0141754
      vertex -1 -4.25 -2
      vertex 6.50626 -4.25 -0.103531
    endloop
  endfacet
  facet normal 0 -1 -0
    outer loop
      vertex 5.86571 -4.25 0.134735
      vertex -1 -4.25 -2
      vertex 6.16474 -4.25 -0.0141754
    endloop
  endfacet
  facet normal 0 -1 -0
    outer loop
      vertex 5.60915 -4.25 0.343216
      vertex -1 -4.25 -2
      vertex 5.86571 -4.25 0.134735
    endloop
  endfacet
  facet normal 0 -1 -0
    outer loop
      vertex 5.39507 -4.25 0.611267
      vertex -1 -4.25 -2
      vertex 5.60915 -4.25 0.343216
    endloop
  endfacet
  facet normal 0 -1 -0
    outer loop
      vertex 5.22149 -4.25 0.937729
      vertex -1 -4.25 -2
      vertex 5.39507 -4.25 0.611267
    endloop
  endfacet
  facet normal 0 -1 0
    outer loop
      vertex 9.55 -4.25 9.52
      vertex 14.9174 -4.25 12.02
      vertex 9.55 -4.25 12.02
    endloop
  endfacet
  facet normal 0 -1 0
    outer loop
      vertex 7.62688 -4.25 5.64592
      vertex 8.55 -4.25 9.52
      vertex 7.29047 -4.25 5.73625
    endloop
  endfacet
  facet normal 0 -1 0
    outer loop
      vertex 7.92391 -4.25 5.49538
      vertex 8.55 -4.25 9.52
      vertex 7.62688 -4.25 5.64592
    endloop
  endfacet
  facet normal 0 -1 -0
    outer loop
      vertex 8.55 -4.25 9.52
      vertex 7.92391 -4.25 5.49538
      vertex 9.55 -4.25 9.52
    endloop
  endfacet
  facet normal 0 -1 0
    outer loop
      vertex 8.18154 -4.25 5.28462
      vertex 9.55 -4.25 9.52
      vertex 7.92391 -4.25 5.49538
    endloop
  endfacet
  facet normal 0 -1 0
    outer loop
      vertex 8.39979 -4.25 5.01366
      vertex 9.55 -4.25 9.52
      vertex 8.18154 -4.25 5.28462
    endloop
  endfacet
  facet normal 0 -1 0
    outer loop
      vertex 8.57848 -4.25 4.68491
      vertex 9.55 -4.25 9.52
      vertex 8.39979 -4.25 5.01366
    endloop
  endfacet
  facet normal 0 -1 0
    outer loop
      vertex 8.71747 -4.25 4.30081
      vertex 9.55 -4.25 9.52
      vertex 8.57848 -4.25 4.68491
    endloop
  endfacet
  facet normal 0 -1 -0
    outer loop
      vertex 9.55 -4.25 9.52
      vertex 8.71747 -4.25 4.30081
      vertex 14.9174 -4.25 12.02
    endloop
  endfacet
  facet normal 0 -1 0
    outer loop
      vertex 8.81675 -4.25 3.86139
      vertex 14.9174 -4.25 12.02
      vertex 8.71747 -4.25 4.30081
    endloop
  endfacet
  facet normal 0 -1 0
    outer loop
      vertex 14.9174 -4.25 -2
      vertex 8.81675 -4.25 3.86139
      vertex 8.87632 -4.25 3.36662
    endloop
  endfacet
  facet normal 0 -1 0
    outer loop
      vertex 14.9174 -4.25 -2
      vertex 8.87632 -4.25 3.36662
      vertex 8.89617 -4.25 2.81651
    endloop
  endfacet
  facet normal 0 -1 0
    outer loop
      vertex 14.9174 -4.25 -2
      vertex 8.89617 -4.25 2.81651
      vertex 8.87688 -4.25 2.25536
    endloop
  endfacet
  facet normal 0 -1 0
    outer loop
      vertex 14.9174 -4.25 -2
      vertex 8.87688 -4.25 2.25536
      vertex 8.81902 -4.25 1.75343
    endloop
  endfacet
  facet normal 0 -1 0
    outer loop
      vertex 14.9174 -4.25 -2
      vertex 8.81902 -4.25 1.75343
      vertex 8.7226 -4.25 1.31075
    endloop
  endfacet
  facet normal 0 -1 0
    outer loop
      vertex 14.9174 -4.25 -2
      vertex 8.7226 -4.25 1.31075
      vertex 8.58759 -4.25 0.927307
    endloop
  endfacet
  facet normal 0 -1 0
    outer loop
      vertex 14.9174 -4.25 -2
      vertex 8.58759 -4.25 0.927307
      vertex 8.41401 -4.25 0.603119
    endloop
  endfacet
  facet normal 0 -1 0
    outer loop
      vertex 14.9174 -4.25 -2
      vertex 6.89026 -4.25 -0.133316
      vertex -1 -4.25 -2
    endloop
  endfacet
  facet normal 0 -1 0
    outer loop
      vertex 8.81675 -4.25 3.86139
      vertex 14.9174 -4.25 -2
      vertex 14.9174 -4.25 12.02
    endloop
  endfacet
  facet normal 0 -1 0
    outer loop
      vertex 8.19877 -4.25 0.337997
      vertex 14.9174 -4.25 -2
      vertex 8.41401 -4.25 0.603119
    endloop
  endfacet
  facet normal 0 -1 0
    outer loop
      vertex 7.93877 -4.25 0.13179
      vertex 14.9174 -4.25 -2
      vertex 8.19877 -4.25 0.337997
    endloop
  endfacet
  facet normal 0 -1 0
    outer loop
      vertex 7.63402 -4.25 -0.0154877
      vertex 14.9174 -4.25 -2
      vertex 7.93877 -4.25 0.13179
    endloop
  endfacet
  facet normal 0 -1 0
    outer loop
      vertex 7.2845 -4.25 -0.103851
      vertex 14.9174 -4.25 -2
      vertex 7.63402 -4.25 -0.0154877
    endloop
  endfacet
  facet normal 0 -1 0
    outer loop
      vertex 6.89026 -4.25 -0.133316
      vertex 14.9174 -4.25 -2
      vertex 7.2845 -4.25 -0.103851
    endloop
  endfacet
  facet normal 0 -1 0
    outer loop
      vertex 5.95853 -4.25 4.59053
      vertex 6.90659 -4.25 5.16827
      vertex 6.66163 -4.25 5.14516
    endloop
  endfacet
  facet normal 0 -1 0
    outer loop
      vertex 6.90659 -4.25 5.16827
      vertex 7.8566 -4.25 4.60271
      vertex 7.1529 -4.25 5.14565
    endloop
  endfacet
  facet normal 0 -1 0
    outer loop
      vertex 6.09279 -4.25 4.79852
      vertex 6.66163 -4.25 5.14516
      vertex 6.44434 -4.25 5.07584
    endloop
  endfacet
  facet normal 0 -1 0
    outer loop
      vertex 7.1529 -4.25 5.14565
      vertex 7.72292 -4.25 4.80632
      vertex 7.37105 -4.25 5.07779
    endloop
  endfacet
  facet normal 0 -1 0
    outer loop
      vertex 6.09279 -4.25 4.79852
      vertex 6.44434 -4.25 5.07584
      vertex 6.25473 -4.25 4.96028
    endloop
  endfacet
  facet normal 0 -1 0
    outer loop
      vertex 7.37105 -4.25 5.07779
      vertex 7.72292 -4.25 4.80632
      vertex 7.56107 -4.25 4.96468
    endloop
  endfacet
  facet normal 0 -1 0
    outer loop
      vertex 5.95853 -4.25 4.59053
      vertex 6.66163 -4.25 5.14516
      vertex 6.09279 -4.25 4.79852
    endloop
  endfacet
  facet normal 0 -1 0
    outer loop
      vertex 7.1529 -4.25 5.14565
      vertex 7.8566 -4.25 4.60271
      vertex 7.72292 -4.25 4.80632
    endloop
  endfacet
  facet normal 0 -1 -0
    outer loop
      vertex 6.90659 -4.25 5.16827
      vertex 5.95853 -4.25 4.59053
      vertex 7.8566 -4.25 4.60271
    endloop
  endfacet
  facet normal 0 -1 0
    outer loop
      vertex 5.95853 -4.25 4.59053
      vertex 7.96427 -4.25 4.35028
      vertex 7.8566 -4.25 4.60271
    endloop
  endfacet
  facet normal 0 -1 0
    outer loop
      vertex 5.85013 -4.25 4.33467
      vertex 7.96427 -4.25 4.35028
      vertex 5.95853 -4.25 4.59053
    endloop
  endfacet
  facet normal 0 -1 0
    outer loop
      vertex 5.85013 -4.25 4.33467
      vertex 8.04799 -4.25 4.04546
      vertex 7.96427 -4.25 4.35028
    endloop
  endfacet
  facet normal 0 -1 0
    outer loop
      vertex 5.76583 -4.25 4.02934
      vertex 8.04799 -4.25 4.04546
      vertex 5.85013 -4.25 4.33467
    endloop
  endfacet
  facet normal 0 -1 0
    outer loop
      vertex 5.76583 -4.25 4.02934
      vertex 8.10781 -4.25 3.68822
      vertex 8.04799 -4.25 4.04546
    endloop
  endfacet
  facet normal 0 -1 0
    outer loop
      vertex 5.70562 -4.25 3.67455
      vertex 8.10781 -4.25 3.68822
      vertex 5.76583 -4.25 4.02934
    endloop
  endfacet
  facet normal 0 -1 0
    outer loop
      vertex 5.70562 -4.25 3.67455
      vertex 8.14368 -4.25 3.27856
      vertex 8.10781 -4.25 3.68822
    endloop
  endfacet
  facet normal 0 -1 0
    outer loop
      vertex 5.66948 -4.25 3.27026
      vertex 8.14368 -4.25 3.27856
      vertex 5.70562 -4.25 3.67455
    endloop
  endfacet
  facet normal 0 -1 0
    outer loop
      vertex 5.65744 -4.25 2.81651
      vertex 8.14368 -4.25 3.27856
      vertex 5.66948 -4.25 3.27026
    endloop
  endfacet
  facet normal 0 -1 0
    outer loop
      vertex 5.65744 -4.25 2.81651
      vertex 8.15564 -4.25 2.81651
      vertex 8.14368 -4.25 3.27856
    endloop
  endfacet
  facet normal 0 -1 0
    outer loop
      vertex 5.66892 -4.25 2.34746
      vertex 8.15564 -4.25 2.81651
      vertex 5.65744 -4.25 2.81651
    endloop
  endfacet
  facet normal 0 -1 0
    outer loop
      vertex 5.66892 -4.25 2.34746
      vertex 8.14385 -4.25 2.34193
      vertex 8.15564 -4.25 2.81651
    endloop
  endfacet
  facet normal 0 -1 0
    outer loop
      vertex 5.70334 -4.25 1.93311
      vertex 8.14385 -4.25 2.34193
      vertex 5.66892 -4.25 2.34746
    endloop
  endfacet
  facet normal 0 -1 0
    outer loop
      vertex 5.70334 -4.25 1.93311
      vertex 8.10845 -4.25 1.924
      vertex 8.14385 -4.25 2.34193
    endloop
  endfacet
  facet normal 0 -1 0
    outer loop
      vertex 5.76072 -4.25 1.57343
      vertex 8.10845 -4.25 1.924
      vertex 5.70334 -4.25 1.93311
    endloop
  endfacet
  facet normal 0 -1 0
    outer loop
      vertex 5.76072 -4.25 1.57343
      vertex 8.04946 -4.25 1.5627
      vertex 8.10845 -4.25 1.924
    endloop
  endfacet
  facet normal 0 -1 0
    outer loop
      vertex 5.84104 -4.25 1.26843
      vertex 8.04946 -4.25 1.5627
      vertex 5.76072 -4.25 1.57343
    endloop
  endfacet
  facet normal 0 -1 0
    outer loop
      vertex 5.84104 -4.25 1.26843
      vertex 7.96688 -4.25 1.25804
      vertex 8.04946 -4.25 1.5627
    endloop
  endfacet
  facet normal 0 -1 0
    outer loop
      vertex 5.94431 -4.25 1.01813
      vertex 7.96688 -4.25 1.25804
      vertex 5.84104 -4.25 1.26843
    endloop
  endfacet
  facet normal 0 -1 0
    outer loop
      vertex 5.94431 -4.25 1.01813
      vertex 7.86069 -4.25 1.01003
      vertex 7.96688 -4.25 1.25804
    endloop
  endfacet
  facet normal 0 -1 0
    outer loop
      vertex 6.64151 -4.25 0.483032
      vertex 5.94431 -4.25 1.01813
      vertex 6.07393 -4.25 0.817474
    endloop
  endfacet
  facet normal 0 -1 0
    outer loop
      vertex 5.94431 -4.25 1.01813
      vertex 6.89026 -4.25 0.460739
      vertex 7.86069 -4.25 1.01003
    endloop
  endfacet
  facet normal 0 -1 0
    outer loop
      vertex 6.64151 -4.25 0.483032
      vertex 6.07393 -4.25 0.817474
      vertex 6.23336 -4.25 0.661392
    endloop
  endfacet
  facet normal -0 -1 0
    outer loop
      vertex 7.14521 -4.25 0.482712
      vertex 7.86069 -4.25 1.01003
      vertex 6.89026 -4.25 0.460739
    endloop
  endfacet
  facet normal 0 -1 0
    outer loop
      vertex 6.64151 -4.25 0.483032
      vertex 6.23336 -4.25 0.661392
      vertex 6.42255 -4.25 0.549911
    endloop
  endfacet
  facet normal 0 -1 0
    outer loop
      vertex 7.86069 -4.25 1.01003
      vertex 7.14521 -4.25 0.482712
      vertex 7.72747 -4.25 0.812286
    endloop
  endfacet
  facet normal 0 -1 0
    outer loop
      vertex 5.94431 -4.25 1.01813
      vertex 6.64151 -4.25 0.483032
      vertex 6.89026 -4.25 0.460739
    endloop
  endfacet
  facet normal 0 -1 0
    outer loop
      vertex 7.72747 -4.25 0.812286
      vertex 7.14521 -4.25 0.482712
      vertex 7.56382 -4.25 0.658478
    endloop
  endfacet
  facet normal 0 -1 0
    outer loop
      vertex 7.56382 -4.25 0.658478
      vertex 7.14521 -4.25 0.482712
      vertex 7.36973 -4.25 0.548615
    endloop
  endfacet
  facet normal -1 0 0
    outer loop
      vertex 9.55 -4.25 9.52
      vertex 9.55 -3.75 12.02
      vertex 9.55 -3.75 9.52
    endloop
  endfacet
  facet normal -1 -0 0
    outer loop
      vertex 9.55 -3.75 12.02
      vertex 9.55 -4.25 9.52
      vertex 9.55 -4.25 12.02
    endloop
  endfacet
  facet normal -0 0 1
    outer loop
      vertex 8.55 -3.75 9.52
      vertex 9.55 -4.25 9.52
      vertex 9.55 -3.75 9.52
    endloop
  endfacet
  facet normal 0 0 1
    outer loop
      vertex 9.55 -4.25 9.52
      vertex 8.55 -3.75 9.52
      vertex 8.55 -4.25 9.52
    endloop
  endfacet
  facet normal 1 -0 0
    outer loop
      vertex 8.55 -4.25 12.02
      vertex 8.55 -3.75 9.52
      vertex 8.55 -3.75 12.02
    endloop
  endfacet
  facet normal 1 0 0
    outer loop
      vertex 8.55 -3.75 9.52
      vertex 8.55 -4.25 12.02
      vertex 8.55 -4.25 9.52
    endloop
  endfacet
  facet normal 0 -1 0
    outer loop
      vertex 8.55 -3.75 9.52
      vertex 9.55 -3.75 12.02
      vertex 8.55 -3.75 12.02
    endloop
  endfacet
  facet normal 0 -1 -0
    outer loop
      vertex 9.55 -3.75 12.02
      vertex 8.55 -3.75 9.52
      vertex 9.55 -3.75 9.52
    endloop
  endfacet
  facet normal -0 0 1
    outer loop
      vertex -1 0 5.091
      vertex 14.9174 -2.25 5.091
      vertex 14.9174 0 5.091
    endloop
  endfacet
  facet normal 0 0 1
    outer loop
      vertex 14.9174 -2.25 5.091
      vertex -1 0 5.091
      vertex -1 -2.25 5.091
    endloop
  endfacet
  facet normal 0 1 -0
    outer loop
      vertex 14.9174 -2.25 5.091
      vertex -1 -2.25 6.191
      vertex 14.9174 -2.25 6.191
    endloop
  endfacet
  facet normal 0 1 0
    outer loop
      vertex -1 -2.25 6.191
      vertex 14.9174 -2.25 5.091
      vertex -1 -2.25 5.091
    endloop
  endfacet
  facet normal 0 1 -0
    outer loop
      vertex 14.9174 -2.25 7.591
      vertex -1 -2.25 12.02
      vertex 14.9174 -2.25 12.02
    endloop
  endfacet
  facet normal 0 1 0
    outer loop
      vertex -1 -2.25 12.02
      vertex 14.9174 -2.25 7.591
      vertex -1 -2.25 7.591
    endloop
  endfacet
  facet normal 0 -1 0
    outer loop
      vertex 6.91469 -3.75 5.76636
      vertex 6.66163 -3.75 5.14516
      vertex 6.90659 -3.75 5.16827
    endloop
  endfacet
  facet normal 0 -1 0
    outer loop
      vertex 5.90184 -3.75 5.49391
      vertex 6.44434 -3.75 5.07584
      vertex 6.66163 -3.75 5.14516
    endloop
  endfacet
  facet normal 0 -1 0
    outer loop
      vertex 6.09279 -3.75 4.79852
      vertex 5.64138 -3.75 5.28201
      vertex 5.41948 -3.75 5.00957
    endloop
  endfacet
  facet normal 0 -1 0
    outer loop
      vertex 5.90184 -3.75 5.49391
      vertex 6.25473 -3.75 4.96028
      vertex 6.44434 -3.75 5.07584
    endloop
  endfacet
  facet normal 0 -1 0
    outer loop
      vertex 5.64138 -3.75 5.28201
      vertex 6.09279 -3.75 4.79852
      vertex 6.25473 -3.75 4.96028
    endloop
  endfacet
  facet normal 0 -1 0
    outer loop
      vertex 5.95853 -3.75 4.59053
      vertex 5.41948 -3.75 5.00957
      vertex 5.23711 -3.75 4.67969
    endloop
  endfacet
  facet normal 0 -1 0
    outer loop
      vertex 5.41948 -3.75 5.00957
      vertex 5.95853 -3.75 4.59053
      vertex 6.09279 -3.75 4.79852
    endloop
  endfacet
  facet normal 0 -1 0
    outer loop
      vertex 5.23711 -3.75 4.67969
      vertex 5.85013 -3.75 4.33467
      vertex 5.95853 -3.75 4.59053
    endloop
  endfacet
  facet normal 0 -1 0
    outer loop
      vertex 5.09528 -3.75 4.29543
      vertex 5.85013 -3.75 4.33467
      vertex 5.23711 -3.75 4.67969
    endloop
  endfacet
  facet normal 0 -1 0
    outer loop
      vertex 5.09528 -3.75 4.29543
      vertex 5.76583 -3.75 4.02934
      vertex 5.85013 -3.75 4.33467
    endloop
  endfacet
  facet normal 0 -1 0
    outer loop
      vertex 4.99396 -3.75 3.85681
      vertex 5.76583 -3.75 4.02934
      vertex 5.09528 -3.75 4.29543
    endloop
  endfacet
  facet normal 0 -1 0
    outer loop
      vertex 4.99396 -3.75 3.85681
      vertex 5.70562 -3.75 3.67455
      vertex 5.76583 -3.75 4.02934
    endloop
  endfacet
  facet normal 0 -1 0
    outer loop
      vertex 4.93317 -3.75 3.36385
      vertex 5.70562 -3.75 3.67455
      vertex 4.99396 -3.75 3.85681
    endloop
  endfacet
  facet normal 0 -1 0
    outer loop
      vertex 4.93317 -3.75 3.36385
      vertex 5.66948 -3.75 3.27026
      vertex 5.70562 -3.75 3.67455
    endloop
  endfacet
  facet normal 0 -1 0
    outer loop
      vertex 4.91291 -3.75 2.81651
      vertex 5.66948 -3.75 3.27026
      vertex 4.93317 -3.75 3.36385
    endloop
  endfacet
  facet normal 0 -1 0
    outer loop
      vertex 4.91291 -3.75 2.81651
      vertex 5.65744 -3.75 2.81651
      vertex 5.66948 -3.75 3.27026
    endloop
  endfacet
  facet normal 0 -1 0
    outer loop
      vertex 4.91291 -3.75 2.81651
      vertex 5.66892 -3.75 2.34746
      vertex 5.65744 -3.75 2.81651
    endloop
  endfacet
  facet normal 0 -1 0
    outer loop
      vertex 4.93219 -3.75 2.26088
      vertex 5.66892 -3.75 2.34746
      vertex 4.91291 -3.75 2.81651
    endloop
  endfacet
  facet normal 0 -1 0
    outer loop
      vertex 4.93219 -3.75 2.26088
      vertex 5.70334 -3.75 1.93311
      vertex 5.66892 -3.75 2.34746
    endloop
  endfacet
  facet normal 0 -1 0
    outer loop
      vertex 4.99006 -3.75 1.76254
      vertex 5.70334 -3.75 1.93311
      vertex 4.93219 -3.75 2.26088
    endloop
  endfacet
  facet normal 0 -1 0
    outer loop
      vertex 4.99006 -3.75 1.76254
      vertex 5.76072 -3.75 1.57343
      vertex 5.70334 -3.75 1.93311
    endloop
  endfacet
  facet normal 0 -1 0
    outer loop
      vertex 5.08648 -3.75 1.32149
      vertex 5.76072 -3.75 1.57343
      vertex 4.99006 -3.75 1.76254
    endloop
  endfacet
  facet normal 0 -1 0
    outer loop
      vertex 5.08648 -3.75 1.32149
      vertex 5.84104 -3.75 1.26843
      vertex 5.76072 -3.75 1.57343
    endloop
  endfacet
  facet normal 0 -1 0
    outer loop
      vertex 5.22149 -3.75 0.937729
      vertex 5.84104 -3.75 1.26843
      vertex 5.08648 -3.75 1.32149
    endloop
  endfacet
  facet normal 0 -1 -0
    outer loop
      vertex 5.84104 -3.75 1.26843
      vertex 5.22149 -3.75 0.937729
      vertex 5.94431 -3.75 1.01813
    endloop
  endfacet
  facet normal 0 -1 0
    outer loop
      vertex 5.39507 -3.75 0.611267
      vertex 5.94431 -3.75 1.01813
      vertex 5.22149 -3.75 0.937729
    endloop
  endfacet
  facet normal 0 -1 -0
    outer loop
      vertex 5.94431 -3.75 1.01813
      vertex 5.39507 -3.75 0.611267
      vertex 6.07393 -3.75 0.817474
    endloop
  endfacet
  facet normal 0 -1 0
    outer loop
      vertex 5.60915 -3.75 0.343216
      vertex 6.07393 -3.75 0.817474
      vertex 5.39507 -3.75 0.611267
    endloop
  endfacet
  facet normal 0 -1 -0
    outer loop
      vertex 6.07393 -3.75 0.817474
      vertex 5.60915 -3.75 0.343216
      vertex 6.23336 -3.75 0.661392
    endloop
  endfacet
  facet normal 0 -1 0
    outer loop
      vertex 5.86571 -3.75 0.134735
      vertex 6.23336 -3.75 0.661392
      vertex 5.60915 -3.75 0.343216
    endloop
  endfacet
  facet normal 0 -1 -0
    outer loop
      vertex 6.23336 -3.75 0.661392
      vertex 6.16474 -3.75 -0.0141754
      vertex 6.42255 -3.75 0.549911
    endloop
  endfacet
  facet normal 0 -1 0
    outer loop
      vertex 6.16474 -3.75 -0.0141754
      vertex 6.23336 -3.75 0.661392
      vertex 5.86571 -3.75 0.134735
    endloop
  endfacet
  facet normal 0 -1 0
    outer loop
      vertex 6.66163 -3.75 5.14516
      vertex 6.91469 -3.75 5.76636
      vertex 6.5385 -3.75 5.73608
    endloop
  endfacet
  facet normal 0 -1 0
    outer loop
      vertex 7.1529 -3.75 5.14565
      vertex 6.91469 -3.75 5.76636
      vertex 6.90659 -3.75 5.16827
    endloop
  endfacet
  facet normal 0 -1 0
    outer loop
      vertex 6.66163 -3.75 5.14516
      vertex 6.5385 -3.75 5.73608
      vertex 6.20089 -3.75 5.64526
    endloop
  endfacet
  facet normal 0 -1 0
    outer loop
      vertex 6.91469 -3.75 5.76636
      vertex 7.1529 -3.75 5.14565
      vertex 7.29047 -3.75 5.73625
    endloop
  endfacet
  facet normal 0 -1 0
    outer loop
      vertex 6.66163 -3.75 5.14516
      vertex 6.20089 -3.75 5.64526
      vertex 5.90184 -3.75 5.49391
    endloop
  endfacet
  facet normal 0 -1 0
    outer loop
      vertex 7.37105 -3.75 5.07779
      vertex 7.29047 -3.75 5.73625
      vertex 7.1529 -3.75 5.14565
    endloop
  endfacet
  facet normal 0 -1 0
    outer loop
      vertex 6.25473 -3.75 4.96028
      vertex 5.90184 -3.75 5.49391
      vertex 5.64138 -3.75 5.28201
    endloop
  endfacet
  facet normal 0 -1 0
    outer loop
      vertex 7.29047 -3.75 5.73625
      vertex 7.37105 -3.75 5.07779
      vertex 7.62688 -3.75 5.64592
    endloop
  endfacet
  facet normal 0 -1 0
    outer loop
      vertex 7.56107 -3.75 4.96468
      vertex 7.62688 -3.75 5.64592
      vertex 7.37105 -3.75 5.07779
    endloop
  endfacet
  facet normal 0 -1 -0
    outer loop
      vertex 7.62688 -3.75 5.64592
      vertex 7.56107 -3.75 4.96468
      vertex 7.92391 -3.75 5.49538
    endloop
  endfacet
  facet normal 0 -1 -0
    outer loop
      vertex 7.92391 -3.75 5.49538
      vertex 7.56107 -3.75 4.96468
      vertex 8.18154 -3.75 5.28462
    endloop
  endfacet
  facet normal 0 -1 0
    outer loop
      vertex 7.72292 -3.75 4.80632
      vertex 8.18154 -3.75 5.28462
      vertex 7.56107 -3.75 4.96468
    endloop
  endfacet
  facet normal 0 -1 -0
    outer loop
      vertex 8.18154 -3.75 5.28462
      vertex 7.72292 -3.75 4.80632
      vertex 8.39979 -3.75 5.01366
    endloop
  endfacet
  facet normal 0 -1 0
    outer loop
      vertex 7.8566 -3.75 4.60271
      vertex 8.39979 -3.75 5.01366
      vertex 7.72292 -3.75 4.80632
    endloop
  endfacet
  facet normal 0 -1 -0
    outer loop
      vertex 8.39979 -3.75 5.01366
      vertex 7.8566 -3.75 4.60271
      vertex 8.57848 -3.75 4.68491
    endloop
  endfacet
  facet normal 0 -1 0
    outer loop
      vertex 7.96427 -3.75 4.35028
      vertex 8.57848 -3.75 4.68491
      vertex 7.8566 -3.75 4.60271
    endloop
  endfacet
  facet normal 0 -1 0
    outer loop
      vertex 7.96427 -3.75 4.35028
      vertex 8.71747 -3.75 4.30081
      vertex 8.57848 -3.75 4.68491
    endloop
  endfacet
  facet normal 0 -1 0
    outer loop
      vertex 8.04799 -3.75 4.04546
      vertex 8.71747 -3.75 4.30081
      vertex 7.96427 -3.75 4.35028
    endloop
  endfacet
  facet normal 0 -1 0
    outer loop
      vertex 8.04799 -3.75 4.04546
      vertex 8.81675 -3.75 3.86139
      vertex 8.71747 -3.75 4.30081
    endloop
  endfacet
  facet normal 0 -1 0
    outer loop
      vertex 8.10781 -3.75 3.68822
      vertex 8.81675 -3.75 3.86139
      vertex 8.04799 -3.75 4.04546
    endloop
  endfacet
  facet normal 0 -1 0
    outer loop
      vertex 8.10781 -3.75 3.68822
      vertex 8.87632 -3.75 3.36662
      vertex 8.81675 -3.75 3.86139
    endloop
  endfacet
  facet normal 0 -1 0
    outer loop
      vertex 8.14368 -3.75 3.27856
      vertex 8.87632 -3.75 3.36662
      vertex 8.10781 -3.75 3.68822
    endloop
  endfacet
  facet normal 0 -1 0
    outer loop
      vertex 8.89617 -3.75 2.81651
      vertex 8.14368 -3.75 3.27856
      vertex 8.15564 -3.75 2.81651
    endloop
  endfacet
  facet normal 0 -1 0
    outer loop
      vertex 8.14368 -3.75 3.27856
      vertex 8.89617 -3.75 2.81651
      vertex 8.87632 -3.75 3.36662
    endloop
  endfacet
  facet normal 0 -1 0
    outer loop
      vertex 8.14385 -3.75 2.34193
      vertex 8.89617 -3.75 2.81651
      vertex 8.15564 -3.75 2.81651
    endloop
  endfacet
  facet normal 0 -1 0
    outer loop
      vertex 8.14385 -3.75 2.34193
      vertex 8.87688 -3.75 2.25536
      vertex 8.89617 -3.75 2.81651
    endloop
  endfacet
  facet normal 0 -1 0
    outer loop
      vertex 8.10845 -3.75 1.924
      vertex 8.87688 -3.75 2.25536
      vertex 8.14385 -3.75 2.34193
    endloop
  endfacet
  facet normal 0 -1 0
    outer loop
      vertex 8.10845 -3.75 1.924
      vertex 8.81902 -3.75 1.75343
      vertex 8.87688 -3.75 2.25536
    endloop
  endfacet
  facet normal 0 -1 0
    outer loop
      vertex 8.04946 -3.75 1.5627
      vertex 8.81902 -3.75 1.75343
      vertex 8.10845 -3.75 1.924
    endloop
  endfacet
  facet normal 0 -1 0
    outer loop
      vertex 8.04946 -3.75 1.5627
      vertex 8.7226 -3.75 1.31075
      vertex 8.81902 -3.75 1.75343
    endloop
  endfacet
  facet normal 0 -1 0
    outer loop
      vertex 7.96688 -3.75 1.25804
      vertex 8.7226 -3.75 1.31075
      vertex 8.04946 -3.75 1.5627
    endloop
  endfacet
  facet normal 0 -1 0
    outer loop
      vertex 8.58759 -3.75 0.927307
      vertex 7.96688 -3.75 1.25804
      vertex 7.86069 -3.75 1.01003
    endloop
  endfacet
  facet normal 0 -1 0
    outer loop
      vertex 7.96688 -3.75 1.25804
      vertex 8.58759 -3.75 0.927307
      vertex 8.7226 -3.75 1.31075
    endloop
  endfacet
  facet normal 0 -1 0
    outer loop
      vertex 8.41401 -3.75 0.603119
      vertex 7.86069 -3.75 1.01003
      vertex 7.72747 -3.75 0.812286
    endloop
  endfacet
  facet normal 0 -1 0
    outer loop
      vertex 8.19877 -3.75 0.337997
      vertex 7.72747 -3.75 0.812286
      vertex 7.56382 -3.75 0.658478
    endloop
  endfacet
  facet normal 0 -1 0
    outer loop
      vertex 7.86069 -3.75 1.01003
      vertex 8.41401 -3.75 0.603119
      vertex 8.58759 -3.75 0.927307
    endloop
  endfacet
  facet normal 0 -1 0
    outer loop
      vertex 7.63402 -3.75 -0.0154877
      vertex 7.56382 -3.75 0.658478
      vertex 7.36973 -3.75 0.548615
    endloop
  endfacet
  facet normal 0 -1 0
    outer loop
      vertex 7.2845 -3.75 -0.103851
      vertex 7.36973 -3.75 0.548615
      vertex 7.14521 -3.75 0.482712
    endloop
  endfacet
  facet normal 0 -1 0
    outer loop
      vertex 6.50626 -3.75 -0.103531
      vertex 6.42255 -3.75 0.549911
      vertex 6.16474 -3.75 -0.0141754
    endloop
  endfacet
  facet normal 0 -1 0
    outer loop
      vertex 7.72747 -3.75 0.812286
      vertex 8.19877 -3.75 0.337997
      vertex 8.41401 -3.75 0.603119
    endloop
  endfacet
  facet normal 0 -1 0
    outer loop
      vertex 6.42255 -3.75 0.549911
      vertex 6.50626 -3.75 -0.103531
      vertex 6.64151 -3.75 0.483032
    endloop
  endfacet
  facet normal 0 -1 0
    outer loop
      vertex 6.89026 -3.75 -0.133316
      vertex 6.64151 -3.75 0.483032
      vertex 6.50626 -3.75 -0.103531
    endloop
  endfacet
  facet normal -0 -1 0
    outer loop
      vertex 7.2845 -3.75 -0.103851
      vertex 7.14521 -3.75 0.482712
      vertex 6.89026 -3.75 -0.133316
    endloop
  endfacet
  facet normal 0 -1 0
    outer loop
      vertex 6.64151 -3.75 0.483032
      vertex 6.89026 -3.75 -0.133316
      vertex 6.89026 -3.75 0.460739
    endloop
  endfacet
  facet normal 0 -1 -0
    outer loop
      vertex 7.36973 -3.75 0.548615
      vertex 7.2845 -3.75 -0.103851
      vertex 7.63402 -3.75 -0.0154877
    endloop
  endfacet
  facet normal 0 -1 0
    outer loop
      vertex 6.89026 -3.75 0.460739
      vertex 6.89026 -3.75 -0.133316
      vertex 7.14521 -3.75 0.482712
    endloop
  endfacet
  facet normal 0 -1 0
    outer loop
      vertex 7.56382 -3.75 0.658478
      vertex 7.63402 -3.75 -0.0154877
      vertex 7.93877 -3.75 0.13179
    endloop
  endfacet
  facet normal 0 -1 0
    outer loop
      vertex 7.56382 -3.75 0.658478
      vertex 7.93877 -3.75 0.13179
      vertex 8.19877 -3.75 0.337997
    endloop
  endfacet
  facet normal 0.259773 0 -0.96567
    outer loop
      vertex 6.20089 -4.25 5.64526
      vertex 6.5385 -3.75 5.73608
      vertex 6.5385 -4.25 5.73608
    endloop
  endfacet
  facet normal 0.259773 0 -0.96567
    outer loop
      vertex 6.5385 -3.75 5.73608
      vertex 6.20089 -4.25 5.64526
      vertex 6.20089 -3.75 5.64526
    endloop
  endfacet
  facet normal 0.451564 0 -0.892239
    outer loop
      vertex 5.90184 -4.25 5.49391
      vertex 6.20089 -3.75 5.64526
      vertex 6.20089 -4.25 5.64526
    endloop
  endfacet
  facet normal 0.451564 0 -0.892239
    outer loop
      vertex 6.20089 -3.75 5.64526
      vertex 5.90184 -4.25 5.49391
      vertex 5.90184 -3.75 5.49391
    endloop
  endfacet
  facet normal 0.631088 0 -0.775711
    outer loop
      vertex 5.64138 -4.25 5.28201
      vertex 5.90184 -3.75 5.49391
      vertex 5.90184 -4.25 5.49391
    endloop
  endfacet
  facet normal 0.631088 0 -0.775711
    outer loop
      vertex 5.90184 -3.75 5.49391
      vertex 5.64138 -4.25 5.28201
      vertex 5.64138 -3.75 5.28201
    endloop
  endfacet
  facet normal 0.775358 0 -0.631522
    outer loop
      vertex 5.64138 -4.25 5.28201
      vertex 5.41948 -3.75 5.00957
      vertex 5.64138 -3.75 5.28201
    endloop
  endfacet
  facet normal 0.775358 0 -0.631522
    outer loop
      vertex 5.41948 -3.75 5.00957
      vertex 5.64138 -4.25 5.28201
      vertex 5.41948 -4.25 5.00957
    endloop
  endfacet
  facet normal 0.875165 0 -0.483824
    outer loop
      vertex 5.41948 -4.25 5.00957
      vertex 5.23711 -3.75 4.67969
      vertex 5.41948 -3.75 5.00957
    endloop
  endfacet
  facet normal 0.875165 0 -0.483824
    outer loop
      vertex 5.23711 -3.75 4.67969
      vertex 5.41948 -4.25 5.00957
      vertex 5.23711 -4.25 4.67969
    endloop
  endfacet
  facet normal 0.938137 0 -0.346265
    outer loop
      vertex 5.23711 -4.25 4.67969
      vertex 5.09528 -3.75 4.29543
      vertex 5.23711 -3.75 4.67969
    endloop
  endfacet
  facet normal 0.938137 0 -0.346265
    outer loop
      vertex 5.09528 -3.75 4.29543
      vertex 5.23711 -4.25 4.67969
      vertex 5.09528 -4.25 4.29543
    endloop
  endfacet
  facet normal 0.974343 0 -0.22507
    outer loop
      vertex 5.09528 -4.25 4.29543
      vertex 4.99396 -3.75 3.85681
      vertex 5.09528 -3.75 4.29543
    endloop
  endfacet
  facet normal 0.974343 0 -0.22507
    outer loop
      vertex 4.99396 -3.75 3.85681
      vertex 5.09528 -4.25 4.29543
      vertex 4.99396 -4.25 3.85681
    endloop
  endfacet
  facet normal 0.992482 0 -0.122389
    outer loop
      vertex 4.99396 -4.25 3.85681
      vertex 4.93317 -3.75 3.36385
      vertex 4.99396 -3.75 3.85681
    endloop
  endfacet
  facet normal 0.992482 0 -0.122389
    outer loop
      vertex 4.93317 -3.75 3.36385
      vertex 4.99396 -4.25 3.85681
      vertex 4.93317 -4.25 3.36385
    endloop
  endfacet
  facet normal 0.999316 0 -0.0369901
    outer loop
      vertex 4.93317 -4.25 3.36385
      vertex 4.91291 -3.75 2.81651
      vertex 4.93317 -3.75 3.36385
    endloop
  endfacet
  facet normal 0.999316 0 -0.0369901
    outer loop
      vertex 4.91291 -3.75 2.81651
      vertex 4.93317 -4.25 3.36385
      vertex 4.91291 -4.25 2.81651
    endloop
  endfacet
  facet normal 0.999399 -0 0.0346785
    outer loop
      vertex 4.91291 -4.25 2.81651
      vertex 4.93219 -3.75 2.26088
      vertex 4.91291 -3.75 2.81651
    endloop
  endfacet
  facet normal 0.999399 0 0.0346785
    outer loop
      vertex 4.93219 -3.75 2.26088
      vertex 4.91291 -4.25 2.81651
      vertex 4.93219 -4.25 2.26088
    endloop
  endfacet
  facet normal 0.993325 -0 0.11535
    outer loop
      vertex 4.93219 -4.25 2.26088
      vertex 4.99006 -3.75 1.76254
      vertex 4.93219 -3.75 2.26088
    endloop
  endfacet
  facet normal 0.993325 0 0.11535
    outer loop
      vertex 4.99006 -3.75 1.76254
      vertex 4.93219 -4.25 2.26088
      vertex 4.99006 -4.25 1.76254
    endloop
  endfacet
  facet normal 0.976928 -0 0.213571
    outer loop
      vertex 4.99006 -4.25 1.76254
      vertex 5.08648 -3.75 1.32149
      vertex 4.99006 -3.75 1.76254
    endloop
  endfacet
  facet normal 0.976928 0 0.213571
    outer loop
      vertex 5.08648 -3.75 1.32149
      vertex 4.99006 -4.25 1.76254
      vertex 5.08648 -4.25 1.32149
    endloop
  endfacet
  facet normal 0.943325 -0 0.331869
    outer loop
      vertex 5.08648 -4.25 1.32149
      vertex 5.22149 -3.75 0.937729
      vertex 5.08648 -3.75 1.32149
    endloop
  endfacet
  facet normal 0.943325 0 0.331869
    outer loop
      vertex 5.22149 -3.75 0.937729
      vertex 5.08648 -4.25 1.32149
      vertex 5.22149 -4.25 0.937729
    endloop
  endfacet
  facet normal 0.882951 -0 0.469465
    outer loop
      vertex 5.22149 -4.25 0.937729
      vertex 5.39507 -3.75 0.611267
      vertex 5.22149 -3.75 0.937729
    endloop
  endfacet
  facet normal 0.882951 0 0.469465
    outer loop
      vertex 5.39507 -3.75 0.611267
      vertex 5.22149 -4.25 0.937729
      vertex 5.39507 -4.25 0.611267
    endloop
  endfacet
  facet normal 0.781382 -0 0.624054
    outer loop
      vertex 5.39507 -4.25 0.611267
      vertex 5.60915 -3.75 0.343216
      vertex 5.39507 -3.75 0.611267
    endloop
  endfacet
  facet normal 0.781382 0 0.624054
    outer loop
      vertex 5.60915 -3.75 0.343216
      vertex 5.39507 -4.25 0.611267
      vertex 5.60915 -4.25 0.343216
    endloop
  endfacet
  facet normal 0.63064 0 0.776076
    outer loop
      vertex 5.60915 -3.75 0.343216
      vertex 5.86571 -4.25 0.134735
      vertex 5.86571 -3.75 0.134735
    endloop
  endfacet
  facet normal 0.63064 0 0.776076
    outer loop
      vertex 5.86571 -4.25 0.134735
      vertex 5.60915 -3.75 0.343216
      vertex 5.60915 -4.25 0.343216
    endloop
  endfacet
  facet normal 0.445765 0 0.89515
    outer loop
      vertex 5.86571 -3.75 0.134735
      vertex 6.16474 -4.25 -0.0141754
      vertex 6.16474 -3.75 -0.0141754
    endloop
  endfacet
  facet normal 0.445765 0 0.89515
    outer loop
      vertex 6.16474 -4.25 -0.0141754
      vertex 5.86571 -3.75 0.134735
      vertex 5.86571 -4.25 0.134735
    endloop
  endfacet
  facet normal 0.253121 0 0.967435
    outer loop
      vertex 6.16474 -3.75 -0.0141754
      vertex 6.50626 -4.25 -0.103531
      vertex 6.50626 -3.75 -0.103531
    endloop
  endfacet
  facet normal 0.253121 0 0.967435
    outer loop
      vertex 6.50626 -4.25 -0.103531
      vertex 6.16474 -3.75 -0.0141754
      vertex 6.16474 -4.25 -0.0141754
    endloop
  endfacet
  facet normal 0.0773328 0 0.997005
    outer loop
      vertex 6.50626 -3.75 -0.103531
      vertex 6.89026 -4.25 -0.133316
      vertex 6.89026 -3.75 -0.133316
    endloop
  endfacet
  facet normal 0.0773328 0 0.997005
    outer loop
      vertex 6.89026 -4.25 -0.133316
      vertex 6.50626 -3.75 -0.103531
      vertex 6.50626 -4.25 -0.103531
    endloop
  endfacet
  facet normal -0.0745309 0 0.997219
    outer loop
      vertex 6.89026 -3.75 -0.133316
      vertex 7.2845 -4.25 -0.103851
      vertex 7.2845 -3.75 -0.103851
    endloop
  endfacet
  facet normal -0.0745309 0 0.997219
    outer loop
      vertex 7.2845 -4.25 -0.103851
      vertex 6.89026 -3.75 -0.133316
      vertex 6.89026 -4.25 -0.133316
    endloop
  endfacet
  facet normal -0.245102 0 0.969497
    outer loop
      vertex 7.2845 -3.75 -0.103851
      vertex 7.63402 -4.25 -0.0154877
      vertex 7.63402 -3.75 -0.0154877
    endloop
  endfacet
  facet normal -0.245102 0 0.969497
    outer loop
      vertex 7.63402 -4.25 -0.0154877
      vertex 7.2845 -3.75 -0.103851
      vertex 7.2845 -4.25 -0.103851
    endloop
  endfacet
  facet normal -0.435125 0 0.90037
    outer loop
      vertex 7.63402 -3.75 -0.0154877
      vertex 7.93877 -4.25 0.13179
      vertex 7.93877 -3.75 0.13179
    endloop
  endfacet
  facet normal -0.435125 0 0.90037
    outer loop
      vertex 7.93877 -4.25 0.13179
      vertex 7.63402 -3.75 -0.0154877
      vertex 7.63402 -4.25 -0.0154877
    endloop
  endfacet
  facet normal -0.621395 0 0.783498
    outer loop
      vertex 7.93877 -3.75 0.13179
      vertex 8.19877 -4.25 0.337997
      vertex 8.19877 -3.75 0.337997
    endloop
  endfacet
  facet normal -0.621395 0 0.783498
    outer loop
      vertex 8.19877 -4.25 0.337997
      vertex 7.93877 -3.75 0.13179
      vertex 7.93877 -4.25 0.13179
    endloop
  endfacet
  facet normal -0.77636 0 0.63029
    outer loop
      vertex 8.19877 -4.25 0.337997
      vertex 8.41401 -3.75 0.603119
      vertex 8.19877 -3.75 0.337997
    endloop
  endfacet
  facet normal -0.77636 0 0.63029
    outer loop
      vertex 8.41401 -3.75 0.603119
      vertex 8.19877 -4.25 0.337997
      vertex 8.41401 -4.25 0.603119
    endloop
  endfacet
  facet normal -0.881584 0 0.472027
    outer loop
      vertex 8.41401 -4.25 0.603119
      vertex 8.58759 -3.75 0.927307
      vertex 8.41401 -3.75 0.603119
    endloop
  endfacet
  facet normal -0.881584 0 0.472027
    outer loop
      vertex 8.58759 -3.75 0.927307
      vertex 8.41401 -4.25 0.603119
      vertex 8.58759 -4.25 0.927307
    endloop
  endfacet
  facet normal -0.943239 0 0.332114
    outer loop
      vertex 8.58759 -4.25 0.927307
      vertex 8.7226 -3.75 1.31075
      vertex 8.58759 -3.75 0.927307
    endloop
  endfacet
  facet normal -0.943239 0 0.332114
    outer loop
      vertex 8.7226 -3.75 1.31075
      vertex 8.58759 -4.25 0.927307
      vertex 8.7226 -4.25 1.31075
    endloop
  endfacet
  facet normal -0.977091 0 0.21282
    outer loop
      vertex 8.7226 -4.25 1.31075
      vertex 8.81902 -3.75 1.75343
      vertex 8.7226 -3.75 1.31075
    endloop
  endfacet
  facet normal -0.977091 0 0.21282
    outer loop
      vertex 8.81902 -3.75 1.75343
      vertex 8.7226 -4.25 1.31075
      vertex 8.81902 -4.25 1.75343
    endloop
  endfacet
  facet normal -0.993421 0 0.114517
    outer loop
      vertex 8.81902 -4.25 1.75343
      vertex 8.87688 -3.75 2.25536
      vertex 8.81902 -3.75 1.75343
    endloop
  endfacet
  facet normal -0.993421 0 0.114517
    outer loop
      vertex 8.87688 -3.75 2.25536
      vertex 8.81902 -4.25 1.75343
      vertex 8.87688 -4.25 2.25536
    endloop
  endfacet
  facet normal -0.99941 0 0.0343555
    outer loop
      vertex 8.87688 -4.25 2.25536
      vertex 8.89617 -3.75 2.81651
      vertex 8.87688 -3.75 2.25536
    endloop
  endfacet
  facet normal -0.99941 0 0.0343555
    outer loop
      vertex 8.89617 -3.75 2.81651
      vertex 8.87688 -4.25 2.25536
      vertex 8.89617 -4.25 2.81651
    endloop
  endfacet
  facet normal -0.99935 0 -0.0360602
    outer loop
      vertex 8.89617 -4.25 2.81651
      vertex 8.87632 -3.75 3.36662
      vertex 8.89617 -3.75 2.81651
    endloop
  endfacet
  facet normal -0.99935 -0 -0.0360602
    outer loop
      vertex 8.87632 -3.75 3.36662
      vertex 8.89617 -4.25 2.81651
      vertex 8.87632 -4.25 3.36662
    endloop
  endfacet
  facet normal -0.99283 0 -0.119536
    outer loop
      vertex 8.87632 -4.25 3.36662
      vertex 8.81675 -3.75 3.86139
      vertex 8.87632 -3.75 3.36662
    endloop
  endfacet
  facet normal -0.99283 -0 -0.119536
    outer loop
      vertex 8.81675 -3.75 3.86139
      vertex 8.87632 -4.25 3.36662
      vertex 8.81675 -4.25 3.86139
    endloop
  endfacet
  facet normal -0.975414 0 -0.220379
    outer loop
      vertex 8.81675 -4.25 3.86139
      vertex 8.71747 -3.75 4.30081
      vertex 8.81675 -3.75 3.86139
    endloop
  endfacet
  facet normal -0.975414 -0 -0.220379
    outer loop
      vertex 8.71747 -3.75 4.30081
      vertex 8.81675 -4.25 3.86139
      vertex 8.71747 -4.25 4.30081
    endloop
  endfacet
  facet normal -0.940329 0 -0.340266
    outer loop
      vertex 8.71747 -4.25 4.30081
      vertex 8.57848 -3.75 4.68491
      vertex 8.71747 -3.75 4.30081
    endloop
  endfacet
  facet normal -0.940329 -0 -0.340266
    outer loop
      vertex 8.57848 -3.75 4.68491
      vertex 8.71747 -4.25 4.30081
      vertex 8.57848 -4.25 4.68491
    endloop
  endfacet
  facet normal -0.8786 0 -0.477558
    outer loop
      vertex 8.57848 -4.25 4.68491
      vertex 8.39979 -3.75 5.01366
      vertex 8.57848 -3.75 4.68491
    endloop
  endfacet
  facet normal -0.8786 -0 -0.477558
    outer loop
      vertex 8.39979 -3.75 5.01366
      vertex 8.57848 -4.25 4.68491
      vertex 8.39979 -4.25 5.01366
    endloop
  endfacet
  facet normal -0.778787 0 -0.627289
    outer loop
      vertex 8.39979 -4.25 5.01366
      vertex 8.18154 -3.75 5.28462
      vertex 8.39979 -3.75 5.01366
    endloop
  endfacet
  facet normal -0.778787 -0 -0.627289
    outer loop
      vertex 8.18154 -3.75 5.28462
      vertex 8.39979 -4.25 5.01366
      vertex 8.18154 -4.25 5.28462
    endloop
  endfacet
  facet normal -0.633187 0 -0.773999
    outer loop
      vertex 7.92391 -4.25 5.49538
      vertex 8.18154 -3.75 5.28462
      vertex 8.18154 -4.25 5.28462
    endloop
  endfacet
  facet normal -0.633187 0 -0.773999
    outer loop
      vertex 8.18154 -3.75 5.28462
      vertex 7.92391 -4.25 5.49538
      vertex 7.92391 -3.75 5.49538
    endloop
  endfacet
  facet normal -0.452072 0 -0.891982
    outer loop
      vertex 7.62688 -4.25 5.64592
      vertex 7.92391 -3.75 5.49538
      vertex 7.92391 -4.25 5.49538
    endloop
  endfacet
  facet normal -0.452072 0 -0.891982
    outer loop
      vertex 7.92391 -3.75 5.49538
      vertex 7.62688 -4.25 5.64592
      vertex 7.62688 -3.75 5.64592
    endloop
  endfacet
  facet normal -0.259326 0 -0.96579
    outer loop
      vertex 7.29047 -4.25 5.73625
      vertex 7.62688 -3.75 5.64592
      vertex 7.62688 -4.25 5.64592
    endloop
  endfacet
  facet normal -0.259326 0 -0.96579
    outer loop
      vertex 7.62688 -3.75 5.64592
      vertex 7.29047 -4.25 5.73625
      vertex 7.29047 -3.75 5.73625
    endloop
  endfacet
  facet normal -0.0798707 0 -0.996805
    outer loop
      vertex 6.91469 -4.25 5.76636
      vertex 7.29047 -3.75 5.73625
      vertex 7.29047 -4.25 5.73625
    endloop
  endfacet
  facet normal -0.0798707 0 -0.996805
    outer loop
      vertex 7.29047 -3.75 5.73625
      vertex 6.91469 -4.25 5.76636
      vertex 6.91469 -3.75 5.76636
    endloop
  endfacet
  facet normal 0.0802318 0 -0.996776
    outer loop
      vertex 6.5385 -4.25 5.73608
      vertex 6.91469 -3.75 5.76636
      vertex 6.91469 -4.25 5.76636
    endloop
  endfacet
  facet normal 0.0802318 0 -0.996776
    outer loop
      vertex 6.91469 -3.75 5.76636
      vertex 6.5385 -4.25 5.73608
      vertex 6.5385 -3.75 5.73608
    endloop
  endfacet
  facet normal 0.297031 0 0.954868
    outer loop
      vertex 7.1529 -3.75 5.14565
      vertex 7.37105 -4.25 5.07779
      vertex 7.37105 -3.75 5.07779
    endloop
  endfacet
  facet normal 0.297031 0 0.954868
    outer loop
      vertex 7.37105 -4.25 5.07779
      vertex 7.1529 -3.75 5.14565
      vertex 7.1529 -4.25 5.14565
    endloop
  endfacet
  facet normal 0.511493 0 0.859287
    outer loop
      vertex 7.37105 -3.75 5.07779
      vertex 7.56107 -4.25 4.96468
      vertex 7.56107 -3.75 4.96468
    endloop
  endfacet
  facet normal 0.511493 0 0.859287
    outer loop
      vertex 7.56107 -4.25 4.96468
      vertex 7.37105 -3.75 5.07779
      vertex 7.37105 -4.25 5.07779
    endloop
  endfacet
  facet normal 0.699358 0 0.714771
    outer loop
      vertex 7.56107 -3.75 4.96468
      vertex 7.72292 -4.25 4.80632
      vertex 7.72292 -3.75 4.80632
    endloop
  endfacet
  facet normal 0.699358 0 0.714771
    outer loop
      vertex 7.72292 -4.25 4.80632
      vertex 7.56107 -3.75 4.96468
      vertex 7.56107 -4.25 4.96468
    endloop
  endfacet
  facet normal 0.835933 -0 0.548831
    outer loop
      vertex 7.72292 -4.25 4.80632
      vertex 7.8566 -3.75 4.60271
      vertex 7.72292 -3.75 4.80632
    endloop
  endfacet
  facet normal 0.835933 0 0.548831
    outer loop
      vertex 7.8566 -3.75 4.60271
      vertex 7.72292 -4.25 4.80632
      vertex 7.8566 -4.25 4.60271
    endloop
  endfacet
  facet normal 0.919822 -0 0.392336
    outer loop
      vertex 7.8566 -4.25 4.60271
      vertex 7.96427 -3.75 4.35028
      vertex 7.8566 -3.75 4.60271
    endloop
  endfacet
  facet normal 0.919822 0 0.392336
    outer loop
      vertex 7.96427 -3.75 4.35028
      vertex 7.8566 -4.25 4.60271
      vertex 7.96427 -4.25 4.35028
    endloop
  endfacet
  facet normal 0.964291 -0 0.264846
    outer loop
      vertex 7.96427 -4.25 4.35028
      vertex 8.04799 -3.75 4.04546
      vertex 7.96427 -3.75 4.35028
    endloop
  endfacet
  facet normal 0.964291 0 0.264846
    outer loop
      vertex 8.04799 -3.75 4.04546
      vertex 7.96427 -4.25 4.35028
      vertex 8.04799 -4.25 4.04546
    endloop
  endfacet
  facet normal 0.986268 -0 0.165151
    outer loop
      vertex 8.04799 -4.25 4.04546
      vertex 8.10781 -3.75 3.68822
      vertex 8.04799 -3.75 4.04546
    endloop
  endfacet
  facet normal 0.986268 0 0.165151
    outer loop
      vertex 8.10781 -3.75 3.68822
      vertex 8.04799 -4.25 4.04546
      vertex 8.10781 -4.25 3.68822
    endloop
  endfacet
  facet normal 0.996188 -0 0.0872267
    outer loop
      vertex 8.10781 -4.25 3.68822
      vertex 8.14368 -3.75 3.27856
      vertex 8.10781 -3.75 3.68822
    endloop
  endfacet
  facet normal 0.996188 0 0.0872267
    outer loop
      vertex 8.14368 -3.75 3.27856
      vertex 8.10781 -4.25 3.68822
      vertex 8.14368 -4.25 3.27856
    endloop
  endfacet
  facet normal 0.999665 -0 0.025876
    outer loop
      vertex 8.14368 -4.25 3.27856
      vertex 8.15564 -3.75 2.81651
      vertex 8.14368 -3.75 3.27856
    endloop
  endfacet
  facet normal 0.999665 0 0.025876
    outer loop
      vertex 8.15564 -3.75 2.81651
      vertex 8.14368 -4.25 3.27856
      vertex 8.15564 -4.25 2.81651
    endloop
  endfacet
  facet normal 0.999692 0 -0.0248354
    outer loop
      vertex 8.15564 -4.25 2.81651
      vertex 8.14385 -3.75 2.34193
      vertex 8.15564 -3.75 2.81651
    endloop
  endfacet
  facet normal 0.999692 0 -0.0248354
    outer loop
      vertex 8.14385 -3.75 2.34193
      vertex 8.15564 -4.25 2.81651
      vertex 8.14385 -4.25 2.34193
    endloop
  endfacet
  facet normal 0.996432 0 -0.0844009
    outer loop
      vertex 8.14385 -4.25 2.34193
      vertex 8.10845 -3.75 1.924
      vertex 8.14385 -3.75 2.34193
    endloop
  endfacet
  facet normal 0.996432 0 -0.0844009
    outer loop
      vertex 8.10845 -3.75 1.924
      vertex 8.14385 -4.25 2.34193
      vertex 8.10845 -4.25 1.924
    endloop
  endfacet
  facet normal 0.986932 0 -0.161138
    outer loop
      vertex 8.10845 -4.25 1.924
      vertex 8.04946 -3.75 1.5627
      vertex 8.10845 -3.75 1.924
    endloop
  endfacet
  facet normal 0.986932 0 -0.161138
    outer loop
      vertex 8.04946 -3.75 1.5627
      vertex 8.10845 -4.25 1.924
      vertex 8.04946 -4.25 1.5627
    endloop
  endfacet
  facet normal 0.965172 0 -0.261616
    outer loop
      vertex 8.04946 -4.25 1.5627
      vertex 7.96688 -3.75 1.25804
      vertex 8.04946 -3.75 1.5627
    endloop
  endfacet
  facet normal 0.965172 0 -0.261616
    outer loop
      vertex 7.96688 -3.75 1.25804
      vertex 8.04946 -4.25 1.5627
      vertex 7.96688 -4.25 1.25804
    endloop
  endfacet
  facet normal 0.919279 0 -0.393606
    outer loop
      vertex 7.96688 -4.25 1.25804
      vertex 7.86069 -3.75 1.01003
      vertex 7.96688 -3.75 1.25804
    endloop
  endfacet
  facet normal 0.919279 0 -0.393606
    outer loop
      vertex 7.86069 -3.75 1.01003
      vertex 7.96688 -4.25 1.25804
      vertex 7.86069 -4.25 1.01003
    endloop
  endfacet
  facet normal 0.829349 0 -0.558732
    outer loop
      vertex 7.86069 -4.25 1.01003
      vertex 7.72747 -3.75 0.812286
      vertex 7.86069 -3.75 1.01003
    endloop
  endfacet
  facet normal 0.829349 0 -0.558732
    outer loop
      vertex 7.72747 -3.75 0.812286
      vertex 7.86069 -4.25 1.01003
      vertex 7.72747 -4.25 0.812286
    endloop
  endfacet
  facet normal 0.684856 0 -0.728679
    outer loop
      vertex 7.56382 -4.25 0.658478
      vertex 7.72747 -3.75 0.812286
      vertex 7.72747 -4.25 0.812286
    endloop
  endfacet
  facet normal 0.684856 0 -0.728679
    outer loop
      vertex 7.72747 -3.75 0.812286
      vertex 7.56382 -4.25 0.658478
      vertex 7.56382 -3.75 0.658478
    endloop
  endfacet
  facet normal 0.492601 0 -0.870255
    outer loop
      vertex 7.36973 -4.25 0.548615
      vertex 7.56382 -3.75 0.658478
      vertex 7.56382 -4.25 0.658478
    endloop
  endfacet
  facet normal 0.492601 0 -0.870255
    outer loop
      vertex 7.56382 -3.75 0.658478
      vertex 7.36973 -4.25 0.548615
      vertex 7.36973 -3.75 0.548615
    endloop
  endfacet
  facet normal 0.281646 0 -0.959518
    outer loop
      vertex 7.14521 -4.25 0.482712
      vertex 7.36973 -3.75 0.548615
      vertex 7.36973 -4.25 0.548615
    endloop
  endfacet
  facet normal 0.281646 0 -0.959518
    outer loop
      vertex 7.36973 -3.75 0.548615
      vertex 7.14521 -4.25 0.482712
      vertex 7.14521 -3.75 0.482712
    endloop
  endfacet
  facet normal 0.0858672 0 -0.996307
    outer loop
      vertex 6.89026 -4.25 0.460739
      vertex 7.14521 -3.75 0.482712
      vertex 7.14521 -4.25 0.482712
    endloop
  endfacet
  facet normal 0.0858672 0 -0.996307
    outer loop
      vertex 7.14521 -3.75 0.482712
      vertex 6.89026 -4.25 0.460739
      vertex 6.89026 -3.75 0.460739
    endloop
  endfacet
  facet normal -0.0892624 0 -0.996008
    outer loop
      vertex 6.64151 -4.25 0.483032
      vertex 6.89026 -3.75 0.460739
      vertex 6.89026 -4.25 0.460739
    endloop
  endfacet
  facet normal -0.0892624 0 -0.996008
    outer loop
      vertex 6.89026 -3.75 0.460739
      vertex 6.64151 -4.25 0.483032
      vertex 6.64151 -3.75 0.483032
    endloop
  endfacet
  facet normal -0.292117 0 -0.956383
    outer loop
      vertex 6.42255 -4.25 0.549911
      vertex 6.64151 -3.75 0.483032
      vertex 6.64151 -4.25 0.483032
    endloop
  endfacet
  facet normal -0.292117 0 -0.956383
    outer loop
      vertex 6.64151 -3.75 0.483032
      vertex 6.42255 -4.25 0.549911
      vertex 6.42255 -3.75 0.549911
    endloop
  endfacet
  facet normal -0.507672 0 -0.86155
    outer loop
      vertex 6.23336 -4.25 0.661392
      vertex 6.42255 -3.75 0.549911
      vertex 6.42255 -4.25 0.549911
    endloop
  endfacet
  facet normal -0.507672 0 -0.86155
    outer loop
      vertex 6.42255 -3.75 0.549911
      vertex 6.23336 -4.25 0.661392
      vertex 6.23336 -3.75 0.661392
    endloop
  endfacet
  facet normal -0.699564 0 -0.71457
    outer loop
      vertex 6.07393 -4.25 0.817474
      vertex 6.23336 -3.75 0.661392
      vertex 6.23336 -4.25 0.661392
    endloop
  endfacet
  facet normal -0.699564 0 -0.71457
    outer loop
      vertex 6.23336 -3.75 0.661392
      vertex 6.07393 -4.25 0.817474
      vertex 6.07393 -3.75 0.817474
    endloop
  endfacet
  facet normal -0.839983 0 -0.542613
    outer loop
      vertex 6.07393 -4.25 0.817474
      vertex 5.94431 -3.75 1.01813
      vertex 6.07393 -3.75 0.817474
    endloop
  endfacet
  facet normal -0.839983 -0 -0.542613
    outer loop
      vertex 5.94431 -3.75 1.01813
      vertex 6.07393 -4.25 0.817474
      vertex 5.94431 -4.25 1.01813
    endloop
  endfacet
  facet normal -0.924411 0 -0.381398
    outer loop
      vertex 5.94431 -4.25 1.01813
      vertex 5.84104 -3.75 1.26843
      vertex 5.94431 -3.75 1.01813
    endloop
  endfacet
  facet normal -0.924411 -0 -0.381398
    outer loop
      vertex 5.84104 -3.75 1.26843
      vertex 5.94431 -4.25 1.01813
      vertex 5.84104 -4.25 1.26843
    endloop
  endfacet
  facet normal -0.96703 0 -0.254662
    outer loop
      vertex 5.84104 -4.25 1.26843
      vertex 5.76072 -3.75 1.57343
      vertex 5.84104 -3.75 1.26843
    endloop
  endfacet
  facet normal -0.96703 -0 -0.254662
    outer loop
      vertex 5.76072 -3.75 1.57343
      vertex 5.84104 -4.25 1.26843
      vertex 5.76072 -4.25 1.57343
    endloop
  endfacet
  facet normal -0.987513 0 -0.157539
    outer loop
      vertex 5.76072 -4.25 1.57343
      vertex 5.70334 -3.75 1.93311
      vertex 5.76072 -3.75 1.57343
    endloop
  endfacet
  facet normal -0.987513 -0 -0.157539
    outer loop
      vertex 5.70334 -3.75 1.93311
      vertex 5.76072 -4.25 1.57343
      vertex 5.70334 -4.25 1.93311
    endloop
  endfacet
  facet normal -0.996567 0 -0.0827847
    outer loop
      vertex 5.70334 -4.25 1.93311
      vertex 5.66892 -3.75 2.34746
      vertex 5.70334 -3.75 1.93311
    endloop
  endfacet
  facet normal -0.996567 -0 -0.0827847
    outer loop
      vertex 5.66892 -3.75 2.34746
      vertex 5.70334 -4.25 1.93311
      vertex 5.66892 -4.25 2.34746
    endloop
  endfacet
  facet normal -0.999701 0 -0.0244677
    outer loop
      vertex 5.66892 -4.25 2.34746
      vertex 5.65744 -3.75 2.81651
      vertex 5.66892 -3.75 2.34746
    endloop
  endfacet
  facet normal -0.999701 -0 -0.0244677
    outer loop
      vertex 5.65744 -3.75 2.81651
      vertex 5.66892 -4.25 2.34746
      vertex 5.65744 -4.25 2.81651
    endloop
  endfacet
  facet normal -0.999648 0 0.0265251
    outer loop
      vertex 5.65744 -4.25 2.81651
      vertex 5.66948 -3.75 3.27026
      vertex 5.65744 -3.75 2.81651
    endloop
  endfacet
  facet normal -0.999648 0 0.0265251
    outer loop
      vertex 5.66948 -3.75 3.27026
      vertex 5.65744 -4.25 2.81651
      vertex 5.66948 -4.25 3.27026
    endloop
  endfacet
  facet normal -0.996028 0 0.0890363
    outer loop
      vertex 5.66948 -4.25 3.27026
      vertex 5.70562 -3.75 3.67455
      vertex 5.66948 -3.75 3.27026
    endloop
  endfacet
  facet normal -0.996028 0 0.0890363
    outer loop
      vertex 5.70562 -3.75 3.67455
      vertex 5.66948 -4.25 3.27026
      vertex 5.70562 -4.25 3.67455
    endloop
  endfacet
  facet normal -0.985904 0 0.167314
    outer loop
      vertex 5.70562 -4.25 3.67455
      vertex 5.76583 -3.75 4.02934
      vertex 5.70562 -3.75 3.67455
    endloop
  endfacet
  facet normal -0.985904 0 0.167314
    outer loop
      vertex 5.76583 -3.75 4.02934
      vertex 5.70562 -4.25 3.67455
      vertex 5.76583 -4.25 4.02934
    endloop
  endfacet
  facet normal -0.963935 0 0.266137
    outer loop
      vertex 5.76583 -4.25 4.02934
      vertex 5.85013 -3.75 4.33467
      vertex 5.76583 -3.75 4.02934
    endloop
  endfacet
  facet normal -0.963935 0 0.266137
    outer loop
      vertex 5.85013 -3.75 4.33467
      vertex 5.76583 -4.25 4.02934
      vertex 5.85013 -4.25 4.33467
    endloop
  endfacet
  facet normal -0.920771 0 0.390102
    outer loop
      vertex 5.85013 -4.25 4.33467
      vertex 5.95853 -3.75 4.59053
      vertex 5.85013 -3.75 4.33467
    endloop
  endfacet
  facet normal -0.920771 0 0.390102
    outer loop
      vertex 5.95853 -3.75 4.59053
      vertex 5.85013 -4.25 4.33467
      vertex 5.95853 -4.25 4.59053
    endloop
  endfacet
  facet normal -0.840162 0 0.542335
    outer loop
      vertex 5.95853 -4.25 4.59053
      vertex 6.09279 -3.75 4.79852
      vertex 5.95853 -3.75 4.59053
    endloop
  endfacet
  facet normal -0.840162 0 0.542335
    outer loop
      vertex 6.09279 -3.75 4.79852
      vertex 5.95853 -4.25 4.59053
      vertex 6.09279 -4.25 4.79852
    endloop
  endfacet
  facet normal -0.706713 0 0.7075
    outer loop
      vertex 6.09279 -3.75 4.79852
      vertex 6.25473 -4.25 4.96028
      vertex 6.25473 -3.75 4.96028
    endloop
  endfacet
  facet normal -0.706713 0 0.7075
    outer loop
      vertex 6.25473 -4.25 4.96028
      vertex 6.09279 -3.75 4.79852
      vertex 6.09279 -4.25 4.79852
    endloop
  endfacet
  facet normal -0.520424 0 0.853908
    outer loop
      vertex 6.25473 -3.75 4.96028
      vertex 6.44434 -4.25 5.07584
      vertex 6.44434 -3.75 5.07584
    endloop
  endfacet
  facet normal -0.520424 0 0.853908
    outer loop
      vertex 6.44434 -4.25 5.07584
      vertex 6.25473 -3.75 4.96028
      vertex 6.25473 -4.25 4.96028
    endloop
  endfacet
  facet normal -0.303929 0 0.952695
    outer loop
      vertex 6.44434 -3.75 5.07584
      vertex 6.66163 -4.25 5.14516
      vertex 6.66163 -3.75 5.14516
    endloop
  endfacet
  facet normal -0.303929 0 0.952695
    outer loop
      vertex 6.66163 -4.25 5.14516
      vertex 6.44434 -3.75 5.07584
      vertex 6.44434 -4.25 5.07584
    endloop
  endfacet
  facet normal -0.0939249 0 0.995579
    outer loop
      vertex 6.66163 -3.75 5.14516
      vertex 6.90659 -4.25 5.16827
      vertex 6.90659 -3.75 5.16827
    endloop
  endfacet
  facet normal -0.0939249 0 0.995579
    outer loop
      vertex 6.90659 -4.25 5.16827
      vertex 6.66163 -3.75 5.14516
      vertex 6.66163 -4.25 5.14516
    endloop
  endfacet
  facet normal 0.0914507 0 0.99581
    outer loop
      vertex 6.90659 -3.75 5.16827
      vertex 7.1529 -4.25 5.14565
      vertex 7.1529 -3.75 5.14565
    endloop
  endfacet
  facet normal 0.0914507 0 0.99581
    outer loop
      vertex 7.1529 -4.25 5.14565
      vertex 6.90659 -3.75 5.16827
      vertex 6.90659 -4.25 5.16827
    endloop
  endfacet
  facet normal 0 0.729368 0.684122
    outer loop
      vertex 14.9174 -1.58482 7.2799
      vertex -1 -1.68431 7.38597
      vertex 14.9174 -1.68431 7.38597
    endloop
  endfacet
  facet normal 0 0.729368 0.684122
    outer loop
      vertex -1 -1.68431 7.38597
      vertex 14.9174 -1.58482 7.2799
      vertex -1 -1.58482 7.2799
    endloop
  endfacet
  facet normal 0 0.993726 -0.111845
    outer loop
      vertex 14.9174 -1.46537 6.75444
      vertex -1 -1.45 6.891
      vertex 14.9174 -1.45 6.891
    endloop
  endfacet
  facet normal 0 0.993726 -0.111845
    outer loop
      vertex -1 -1.45 6.891
      vertex 14.9174 -1.46537 6.75444
      vertex -1 -1.46537 6.75444
    endloop
  endfacet
  facet normal 0 0.853397 0.521262
    outer loop
      vertex 14.9174 -1.5109 7.15888
      vertex -1 -1.58482 7.2799
      vertex 14.9174 -1.58482 7.2799
    endloop
  endfacet
  facet normal 0 0.853397 0.521262
    outer loop
      vertex -1 -1.58482 7.2799
      vertex 14.9174 -1.5109 7.15888
      vertex -1 -1.5109 7.15888
    endloop
  endfacet
  facet normal 0 0.853397 -0.521262
    outer loop
      vertex 14.9174 -1.58482 6.5021
      vertex -1 -1.5109 6.62312
      vertex 14.9174 -1.5109 6.62312
    endloop
  endfacet
  facet normal 0 0.853397 -0.521262
    outer loop
      vertex -1 -1.5109 6.62312
      vertex 14.9174 -1.58482 6.5021
      vertex -1 -1.58482 6.5021
    endloop
  endfacet
  facet normal 0 0.944823 -0.32758
    outer loop
      vertex 14.9174 -1.5109 6.62312
      vertex -1 -1.46537 6.75444
      vertex 14.9174 -1.46537 6.75444
    endloop
  endfacet
  facet normal 0 0.944823 -0.32758
    outer loop
      vertex -1 -1.46537 6.75444
      vertex 14.9174 -1.5109 6.62312
      vertex -1 -1.5109 6.62312
    endloop
  endfacet
  facet normal -0 0.256572 0.966525
    outer loop
      vertex -1 -1.94385 7.53771
      vertex 14.9174 -2.09393 7.57755
      vertex 14.9174 -1.94385 7.53771
    endloop
  endfacet
  facet normal 0 0.256572 0.966525
    outer loop
      vertex 14.9174 -2.09393 7.57755
      vertex -1 -1.94385 7.53771
      vertex -1 -2.09393 7.57755
    endloop
  endfacet
  facet normal 0 0.583265 -0.812282
    outer loop
      vertex -1 -1.80554 6.30897
      vertex 14.9174 -1.68431 6.39602
      vertex 14.9174 -1.80554 6.30897
    endloop
  endfacet
  facet normal 0 0.583265 -0.812282
    outer loop
      vertex 14.9174 -1.68431 6.39602
      vertex -1 -1.80554 6.30897
      vertex -1 -1.68431 6.39602
    endloop
  endfacet
  facet normal 0 0.993726 0.111845
    outer loop
      vertex 14.9174 -1.45 6.891
      vertex -1 -1.46537 7.02756
      vertex 14.9174 -1.46537 7.02756
    endloop
  endfacet
  facet normal 0 0.993726 0.111845
    outer loop
      vertex -1 -1.46537 7.02756
      vertex 14.9174 -1.45 6.891
      vertex -1 -1.45 6.891
    endloop
  endfacet
  facet normal 0 0.256512 -0.966541
    outer loop
      vertex -1 -2.09393 6.20445
      vertex 14.9174 -1.94385 6.24428
      vertex 14.9174 -2.09393 6.20445
    endloop
  endfacet
  facet normal 0 0.256512 -0.966541
    outer loop
      vertex 14.9174 -1.94385 6.24428
      vertex -1 -2.09393 6.20445
      vertex -1 -1.94385 6.24428
    endloop
  endfacet
  facet normal 0 0.7294 -0.684087
    outer loop
      vertex 14.9174 -1.68431 6.39602
      vertex -1 -1.58482 6.5021
      vertex 14.9174 -1.58482 6.5021
    endloop
  endfacet
  facet normal 0 0.7294 -0.684087
    outer loop
      vertex -1 -1.58482 6.5021
      vertex 14.9174 -1.68431 6.39602
      vertex -1 -1.68431 6.39602
    endloop
  endfacet
  facet normal 0 0.944823 0.32758
    outer loop
      vertex 14.9174 -1.46537 7.02756
      vertex -1 -1.5109 7.15888
      vertex 14.9174 -1.5109 7.15888
    endloop
  endfacet
  facet normal 0 0.944823 0.32758
    outer loop
      vertex -1 -1.5109 7.15888
      vertex 14.9174 -1.46537 7.02756
      vertex -1 -1.46537 7.02756
    endloop
  endfacet
  facet normal -0 0.423613 0.905843
    outer loop
      vertex -1 -1.80554 7.47303
      vertex 14.9174 -1.94385 7.53771
      vertex 14.9174 -1.80554 7.47303
    endloop
  endfacet
  facet normal 0 0.423613 0.905843
    outer loop
      vertex 14.9174 -1.94385 7.53771
      vertex -1 -1.80554 7.47303
      vertex -1 -1.94385 7.53771
    endloop
  endfacet
  facet normal -0 0.085861 0.996307
    outer loop
      vertex -1 -2.09393 7.57755
      vertex 14.9174 -2.25 7.591
      vertex 14.9174 -2.09393 7.57755
    endloop
  endfacet
  facet normal 0 0.085861 0.996307
    outer loop
      vertex 14.9174 -2.25 7.591
      vertex -1 -2.09393 7.57755
      vertex -1 -2.25 7.591
    endloop
  endfacet
  facet normal 0 0.085861 -0.996307
    outer loop
      vertex -1 -2.25 6.191
      vertex 14.9174 -2.09393 6.20445
      vertex 14.9174 -2.25 6.191
    endloop
  endfacet
  facet normal 0 0.085861 -0.996307
    outer loop
      vertex 14.9174 -2.09393 6.20445
      vertex -1 -2.25 6.191
      vertex -1 -2.09393 6.20445
    endloop
  endfacet
  facet normal 0 0.423667 -0.905818
    outer loop
      vertex -1 -1.94385 6.24428
      vertex 14.9174 -1.80554 6.30897
      vertex 14.9174 -1.94385 6.24428
    endloop
  endfacet
  facet normal 0 0.423667 -0.905818
    outer loop
      vertex 14.9174 -1.80554 6.30897
      vertex -1 -1.94385 6.24428
      vertex -1 -1.80554 6.30897
    endloop
  endfacet
  facet normal -0 0.583309 0.81225
    outer loop
      vertex -1 -1.68431 7.38597
      vertex 14.9174 -1.80554 7.47303
      vertex 14.9174 -1.68431 7.38597
    endloop
  endfacet
  facet normal 0 0.583309 0.81225
    outer loop
      vertex 14.9174 -1.80554 7.47303
      vertex -1 -1.68431 7.38597
      vertex -1 -1.80554 7.47303
    endloop
  endfacet
endsolid OpenSCAD_Model
