solid OpenSCAD_Model
  facet normal 1 0 0
    outer loop
      vertex 19.1 0 10.7
      vertex 19.1 0.799999 10.7
      vertex 19.1 0.784628 10.8561
    endloop
  endfacet
  facet normal 1 0 0
    outer loop
      vertex 19.1 0.25 7.508
      vertex 19.1 5.8 9.5
      vertex 19.1 0.799999 9.5
    endloop
  endfacet
  facet normal 1 0 0
    outer loop
      vertex 19.1 0 10.7
      vertex 19.1 0.784628 10.8561
      vertex 19.1 0.739103 11.0061
    endloop
  endfacet
  facet normal 1 0 0
    outer loop
      vertex 19.1 0 10.7
      vertex 19.1 0.739103 11.0061
      vertex 19.1 0.665175 11.1445
    endloop
  endfacet
  facet normal 1 0 0
    outer loop
      vertex 19.1 0 10.7
      vertex 19.1 0.665175 11.1445
      vertex 19.1 0.565685 11.2657
    endloop
  endfacet
  facet normal 1 0 0
    outer loop
      vertex 19.1 0 10.7
      vertex 19.1 0.565685 11.2657
      vertex 19.1 0.444456 11.3652
    endloop
  endfacet
  facet normal 1 0 0
    outer loop
      vertex 19.1 0 10.7
      vertex 19.1 0.444456 11.3652
      vertex 19.1 0.306147 11.4391
    endloop
  endfacet
  facet normal 1 0 0
    outer loop
      vertex 19.1 0.799999 10.7
      vertex 19.1 0 10.7
      vertex 19.1 0.799999 9.5
    endloop
  endfacet
  facet normal 1 0 0
    outer loop
      vertex 19.1 5.8 9.5
      vertex 19.1 0.25 7.508
      vertex 19.1 0.245195 7.45923
    endloop
  endfacet
  facet normal 1 0 0
    outer loop
      vertex 19.1 0.230969 7.41233
      vertex 19.1 5.8 9.5
      vertex 19.1 0.245195 7.45923
    endloop
  endfacet
  facet normal 1 0 0
    outer loop
      vertex 19.1 0.207867 7.36911
      vertex 19.1 5.8 9.5
      vertex 19.1 0.230969 7.41233
    endloop
  endfacet
  facet normal 1 0 0
    outer loop
      vertex 19.1 5.8 9.5
      vertex 19.1 0.207867 7.36911
      vertex 19.1 5.8 -2
    endloop
  endfacet
  facet normal 1 -0 0
    outer loop
      vertex 19.1 0.176776 7.33122
      vertex 19.1 5.8 -2
      vertex 19.1 0.207867 7.36911
    endloop
  endfacet
  facet normal 1 -0 0
    outer loop
      vertex 19.1 0.138892 7.30013
      vertex 19.1 5.8 -2
      vertex 19.1 0.176776 7.33122
    endloop
  endfacet
  facet normal 1 0 0
    outer loop
      vertex 19.1 0 -2
      vertex 19.1 0.138892 7.30013
      vertex 19.1 0.0956707 7.27703
    endloop
  endfacet
  facet normal 1 0 0
    outer loop
      vertex 19.1 0 -2
      vertex 19.1 0.0956707 7.27703
      vertex 19.1 0.0487719 7.2628
    endloop
  endfacet
  facet normal 1 0 0
    outer loop
      vertex 19.1 0 -2
      vertex 19.1 0.0487719 7.2628
      vertex 19.1 0 7.258
    endloop
  endfacet
  facet normal 1 0 0
    outer loop
      vertex 19.1 0.138892 7.30013
      vertex 19.1 0 -2
      vertex 19.1 5.8 -2
    endloop
  endfacet
  facet normal 1 0 0
    outer loop
      vertex 19.1 0.799999 9.5
      vertex 19.1 0.245195 7.55677
      vertex 19.1 0.25 7.508
    endloop
  endfacet
  facet normal 1 0 0
    outer loop
      vertex 19.1 0.799999 9.5
      vertex 19.1 0.230969 7.60367
      vertex 19.1 0.245195 7.55677
    endloop
  endfacet
  facet normal 1 0 0
    outer loop
      vertex 19.1 0 7.758
      vertex 19.1 0.799999 9.5
      vertex 19.1 0 10.7
    endloop
  endfacet
  facet normal 1 0 0
    outer loop
      vertex 19.1 0.799999 9.5
      vertex 19.1 0.207867 7.64689
      vertex 19.1 0.230969 7.60367
    endloop
  endfacet
  facet normal 1 0 0
    outer loop
      vertex 19.1 0 10.7
      vertex 19.1 0.306147 11.4391
      vertex 19.1 0.156072 11.4846
    endloop
  endfacet
  facet normal 1 0 0
    outer loop
      vertex 19.1 0.799999 9.5
      vertex 19.1 0.176776 7.68478
      vertex 19.1 0.207867 7.64689
    endloop
  endfacet
  facet normal 1 0 0
    outer loop
      vertex 19.1 0.799999 9.5
      vertex 19.1 0.138892 7.71587
      vertex 19.1 0.176776 7.68478
    endloop
  endfacet
  facet normal 1 0 0
    outer loop
      vertex 19.1 0.799999 9.5
      vertex 19.1 0.0956707 7.73897
      vertex 19.1 0.138892 7.71587
    endloop
  endfacet
  facet normal 1 0 0
    outer loop
      vertex 19.1 0 10.7
      vertex 19.1 0.156072 11.4846
      vertex 19.1 0 11.5
    endloop
  endfacet
  facet normal 1 0 0
    outer loop
      vertex 19.1 0.799999 9.5
      vertex 19.1 0.0487719 7.7532
      vertex 19.1 0.0956707 7.73897
    endloop
  endfacet
  facet normal 1 0 0
    outer loop
      vertex 19.1 0.799999 9.5
      vertex 19.1 0 7.758
      vertex 19.1 0.0487719 7.7532
    endloop
  endfacet
  facet normal -0 0 1
    outer loop
      vertex -1 5.8 9.5
      vertex 0 0.799999 9.5
      vertex 0 5.8 9.5
    endloop
  endfacet
  facet normal 0 0 1
    outer loop
      vertex 0 0.799999 9.5
      vertex -1 5.8 9.5
      vertex -1 0.799999 9.5
    endloop
  endfacet
  facet normal -0 0 1
    outer loop
      vertex 18.1 5.8 9.5
      vertex 19.1 0.799999 9.5
      vertex 19.1 5.8 9.5
    endloop
  endfacet
  facet normal 0 0 1
    outer loop
      vertex 19.1 0.799999 9.5
      vertex 18.1 5.8 9.5
      vertex 18.1 0.799999 9.5
    endloop
  endfacet
  facet normal 0 0 -1
    outer loop
      vertex 14.9174 -4.25 -2
      vertex -1 -4.25 -2
      vertex 14.9174 0 -2
    endloop
  endfacet
  facet normal 0 0 -1
    outer loop
      vertex 14.9174 0 -2
      vertex 19.1 5.8 -2
      vertex 19.1 0 -2
    endloop
  endfacet
  facet normal 0 0 -1
    outer loop
      vertex -1 5.8 -2
      vertex 14.9174 0 -2
      vertex -1 -4.25 -2
    endloop
  endfacet
  facet normal 0 0 -1
    outer loop
      vertex 14.9174 0 -2
      vertex -1 5.8 -2
      vertex 19.1 5.8 -2
    endloop
  endfacet
  facet normal -1 0 0
    outer loop
      vertex -1 0 7.758
      vertex -1 5.8 9.5
      vertex -1 5.8 -2
    endloop
  endfacet
  facet normal -1 0 0
    outer loop
      vertex -1 0 10.7
      vertex -1 0.799999 10.7
      vertex -1 0.799999 9.5
    endloop
  endfacet
  facet normal -1 0 0
    outer loop
      vertex -1 0.799999 10.7
      vertex -1 0 10.7
      vertex -1 0.784628 10.8561
    endloop
  endfacet
  facet normal -1 -0 0
    outer loop
      vertex -1 0.784628 10.8561
      vertex -1 0 10.7
      vertex -1 0.739103 11.0061
    endloop
  endfacet
  facet normal -1 -0 0
    outer loop
      vertex -1 0.739103 11.0061
      vertex -1 0 10.7
      vertex -1 0.665175 11.1445
    endloop
  endfacet
  facet normal -1 -0 0
    outer loop
      vertex -1 0.665175 11.1445
      vertex -1 0 10.7
      vertex -1 0.565685 11.2657
    endloop
  endfacet
  facet normal -1 -0 0
    outer loop
      vertex -1 0.565685 11.2657
      vertex -1 0 10.7
      vertex -1 0.444456 11.3652
    endloop
  endfacet
  facet normal -1 -0 0
    outer loop
      vertex -1 0.444456 11.3652
      vertex -1 0 10.7
      vertex -1 0.306147 11.4391
    endloop
  endfacet
  facet normal -1 0 0
    outer loop
      vertex -1 0 10.7
      vertex -1 0.799999 9.5
      vertex -1 0 7.758
    endloop
  endfacet
  facet normal -1 -0 0
    outer loop
      vertex -1 5.8 9.5
      vertex -1 0 7.758
      vertex -1 0.799999 9.5
    endloop
  endfacet
  facet normal -1 0 0
    outer loop
      vertex -1 -4.25 -2
      vertex -1 0 7.758
      vertex -1 5.8 -2
    endloop
  endfacet
  facet normal -1 0 0
    outer loop
      vertex -1 -4.25 12.02
      vertex -1 -2.25 8.858
      vertex -1 -2.25 7.758
    endloop
  endfacet
  facet normal -1 0 0
    outer loop
      vertex -1 -2.25 8.858
      vertex -1 -4.25 12.02
      vertex -1 -2.25 10.258
    endloop
  endfacet
  facet normal -1 -0 0
    outer loop
      vertex -1 0 7.758
      vertex -1 -4.25 -2
      vertex -1 -2.25 7.758
    endloop
  endfacet
  facet normal -1 0 0
    outer loop
      vertex -1 -4.25 12.02
      vertex -1 -2.25 7.758
      vertex -1 -4.25 -2
    endloop
  endfacet
  facet normal -1 0 0
    outer loop
      vertex -1 -2.25 10.258
      vertex -1 -4.25 12.02
      vertex -1 -2.25 12.02
    endloop
  endfacet
  facet normal -1 -0 0
    outer loop
      vertex -1 0.306147 11.4391
      vertex -1 0 10.7
      vertex -1 0.156072 11.4846
    endloop
  endfacet
  facet normal -1 0 0
    outer loop
      vertex -1 0 11.5
      vertex -1 0.156072 11.4846
      vertex -1 0 10.7
    endloop
  endfacet
  facet normal -1 0 0
    outer loop
      vertex -1 -1.46537 9.42144
      vertex -1 -1.46537 9.69456
      vertex -1 -1.45 9.558
    endloop
  endfacet
  facet normal -1 0 0
    outer loop
      vertex -1 -1.5109 9.29012
      vertex -1 -1.46537 9.69456
      vertex -1 -1.46537 9.42144
    endloop
  endfacet
  facet normal -1 0 0
    outer loop
      vertex -1 -1.5109 9.29012
      vertex -1 -1.5109 9.82588
      vertex -1 -1.46537 9.69456
    endloop
  endfacet
  facet normal -1 0 0
    outer loop
      vertex -1 -1.58482 9.1691
      vertex -1 -1.5109 9.82588
      vertex -1 -1.5109 9.29012
    endloop
  endfacet
  facet normal -1 0 0
    outer loop
      vertex -1 -1.58482 9.1691
      vertex -1 -1.58482 9.9469
      vertex -1 -1.5109 9.82588
    endloop
  endfacet
  facet normal -1 0 0
    outer loop
      vertex -1 -1.68431 9.06302
      vertex -1 -1.58482 9.9469
      vertex -1 -1.58482 9.1691
    endloop
  endfacet
  facet normal -1 0 0
    outer loop
      vertex -1 -1.68431 9.06302
      vertex -1 -1.68431 10.053
      vertex -1 -1.58482 9.9469
    endloop
  endfacet
  facet normal -1 0 0
    outer loop
      vertex -1 -1.80554 8.97597
      vertex -1 -1.68431 10.053
      vertex -1 -1.68431 9.06302
    endloop
  endfacet
  facet normal -1 0 0
    outer loop
      vertex -1 -1.80554 8.97597
      vertex -1 -1.80554 10.14
      vertex -1 -1.68431 10.053
    endloop
  endfacet
  facet normal -1 0 0
    outer loop
      vertex -1 -1.94385 8.91128
      vertex -1 -1.80554 10.14
      vertex -1 -1.80554 8.97597
    endloop
  endfacet
  facet normal -1 0 0
    outer loop
      vertex -1 -1.94385 8.91128
      vertex -1 -1.94385 10.2047
      vertex -1 -1.80554 10.14
    endloop
  endfacet
  facet normal -1 0 0
    outer loop
      vertex -1 -2.09393 8.87145
      vertex -1 -1.94385 10.2047
      vertex -1 -1.94385 8.91128
    endloop
  endfacet
  facet normal -1 0 0
    outer loop
      vertex -1 -2.09393 8.87145
      vertex -1 -2.09393 10.2445
      vertex -1 -1.94385 10.2047
    endloop
  endfacet
  facet normal -1 0 0
    outer loop
      vertex -1 -2.25 8.858
      vertex -1 -2.09393 10.2445
      vertex -1 -2.09393 8.87145
    endloop
  endfacet
  facet normal -1 -0 0
    outer loop
      vertex -1 -2.09393 10.2445
      vertex -1 -2.25 8.858
      vertex -1 -2.25 10.258
    endloop
  endfacet
  facet normal 0 1 0
    outer loop
      vertex 19.1 5.8 9.5
      vertex 18.1 5.8 0
      vertex 18.1 5.8 9.5
    endloop
  endfacet
  facet normal 0 1 0
    outer loop
      vertex 18.1 5.8 0
      vertex 19.1 5.8 -2
      vertex 0 5.8 0
    endloop
  endfacet
  facet normal 0 1 -0
    outer loop
      vertex 19.1 5.8 -2
      vertex 18.1 5.8 0
      vertex 19.1 5.8 9.5
    endloop
  endfacet
  facet normal 0 1 -0
    outer loop
      vertex 0 5.8 0
      vertex -1 5.8 9.5
      vertex 0 5.8 9.5
    endloop
  endfacet
  facet normal 0 1 0
    outer loop
      vertex 0 5.8 0
      vertex -1 5.8 -2
      vertex -1 5.8 9.5
    endloop
  endfacet
  facet normal 0 1 0
    outer loop
      vertex -1 5.8 -2
      vertex 0 5.8 0
      vertex 19.1 5.8 -2
    endloop
  endfacet
  facet normal 0 -1 0
    outer loop
      vertex -1 0 10.7
      vertex 14.9174 0 7.758
      vertex 19.1 0 10.7
    endloop
  endfacet
  facet normal 0 -1 0
    outer loop
      vertex 14.9174 0 7.758
      vertex -1 0 10.7
      vertex -1 0 7.758
    endloop
  endfacet
  facet normal 0 0 0
    outer loop
      vertex 14.9174 0 -2
      vertex 14.9174 0 7.258
      vertex 14.9174 0 7.758
    endloop
  endfacet
  facet normal 0 -1 0
    outer loop
      vertex 14.9174 0 -2
      vertex 19.1 0 7.258
      vertex 14.9174 0 7.258
    endloop
  endfacet
  facet normal 0 -1 -0
    outer loop
      vertex 19.1 0 7.258
      vertex 14.9174 0 -2
      vertex 19.1 0 -2
    endloop
  endfacet
  facet normal 0 -1 -0
    outer loop
      vertex 19.1 0 10.7
      vertex 14.9174 0 7.758
      vertex 19.1 0 7.758
    endloop
  endfacet
  facet normal -1 0 0
    outer loop
      vertex 18.1 0.799999 0
      vertex 18.1 5.8 9.5
      vertex 18.1 5.8 0
    endloop
  endfacet
  facet normal -1 -0 0
    outer loop
      vertex 18.1 5.8 9.5
      vertex 18.1 0.799999 0
      vertex 18.1 0.799999 9.5
    endloop
  endfacet
  facet normal -0 0 1
    outer loop
      vertex 0 5.8 0
      vertex 18.1 0.799999 0
      vertex 18.1 5.8 0
    endloop
  endfacet
  facet normal 0 0 1
    outer loop
      vertex 18.1 0.799999 0
      vertex 0 5.8 0
      vertex 0 0.799999 0
    endloop
  endfacet
  facet normal 1 -0 0
    outer loop
      vertex 0 0.799999 9.5
      vertex 0 5.8 0
      vertex 0 5.8 9.5
    endloop
  endfacet
  facet normal 1 0 0
    outer loop
      vertex 0 5.8 0
      vertex 0 0.799999 9.5
      vertex 0 0.799999 0
    endloop
  endfacet
  facet normal 0 1 -0
    outer loop
      vertex 18.1 0.799999 0
      vertex 0 0.799999 9.5
      vertex 18.1 0.799999 9.5
    endloop
  endfacet
  facet normal 0 1 0
    outer loop
      vertex 0 0.799999 9.5
      vertex 18.1 0.799999 0
      vertex 0 0.799999 0
    endloop
  endfacet
  facet normal -0 0 1
    outer loop
      vertex -1 0 11.5
      vertex 19.1 -9.68247e-06 11.5
      vertex 19.1 0 11.5
    endloop
  endfacet
  facet normal 0 0 1
    outer loop
      vertex 19.1 -9.68247e-06 11.5
      vertex -1 0 11.5
      vertex -1 -9.68247e-06 11.5
    endloop
  endfacet
  facet normal 0 0.772936 0.634484
    outer loop
      vertex 19.1 0.665175 11.1445
      vertex -1 0.565685 11.2657
      vertex 19.1 0.565685 11.2657
    endloop
  endfacet
  facet normal 0 0.772936 0.634484
    outer loop
      vertex -1 0.565685 11.2657
      vertex 19.1 0.665175 11.1445
      vertex -1 0.665175 11.1445
    endloop
  endfacet
  facet normal 0 0.882049 0.471157
    outer loop
      vertex 19.1 0.739103 11.0061
      vertex -1 0.665175 11.1445
      vertex 19.1 0.665175 11.1445
    endloop
  endfacet
  facet normal 0 0.882049 0.471157
    outer loop
      vertex -1 0.665175 11.1445
      vertex 19.1 0.739103 11.0061
      vertex -1 0.739103 11.0061
    endloop
  endfacet
  facet normal -0 0.0981955 0.995167
    outer loop
      vertex -1 0.156072 11.4846
      vertex 19.1 0 11.5
      vertex 19.1 0.156072 11.4846
    endloop
  endfacet
  facet normal 0 0.0981955 0.995167
    outer loop
      vertex 19.1 0 11.5
      vertex -1 0.156072 11.4846
      vertex -1 0 11.5
    endloop
  endfacet
  facet normal -0 0.471259 0.881995
    outer loop
      vertex -1 0.444456 11.3652
      vertex 19.1 0.306147 11.4391
      vertex 19.1 0.444456 11.3652
    endloop
  endfacet
  facet normal 0 0.471259 0.881995
    outer loop
      vertex 19.1 0.306147 11.4391
      vertex -1 0.444456 11.3652
      vertex -1 0.306147 11.4391
    endloop
  endfacet
  facet normal 0 0.9569 0.290419
    outer loop
      vertex 19.1 0.784628 10.8561
      vertex -1 0.739103 11.0061
      vertex 19.1 0.739103 11.0061
    endloop
  endfacet
  facet normal 0 0.9569 0.290419
    outer loop
      vertex -1 0.739103 11.0061
      vertex 19.1 0.784628 10.8561
      vertex -1 0.784628 10.8561
    endloop
  endfacet
  facet normal -0 0.634431 0.772979
    outer loop
      vertex -1 0.565685 11.2657
      vertex 19.1 0.444456 11.3652
      vertex 19.1 0.565685 11.2657
    endloop
  endfacet
  facet normal 0 0.634431 0.772979
    outer loop
      vertex 19.1 0.444456 11.3652
      vertex -1 0.565685 11.2657
      vertex -1 0.444456 11.3652
    endloop
  endfacet
  facet normal -0 0.29014 0.956984
    outer loop
      vertex -1 0.306147 11.4391
      vertex 19.1 0.156072 11.4846
      vertex 19.1 0.306147 11.4391
    endloop
  endfacet
  facet normal 0 0.29014 0.956984
    outer loop
      vertex 19.1 0.156072 11.4846
      vertex -1 0.306147 11.4391
      vertex -1 0.156072 11.4846
    endloop
  endfacet
  facet normal 0 0.995187 0.097995
    outer loop
      vertex 19.1 0.799999 10.7
      vertex -1 0.784628 10.8561
      vertex 19.1 0.784628 10.8561
    endloop
  endfacet
  facet normal 0 0.995187 0.097995
    outer loop
      vertex -1 0.784628 10.8561
      vertex 19.1 0.799999 10.7
      vertex -1 0.799999 10.7
    endloop
  endfacet
  facet normal 0 0 -1
    outer loop
      vertex -1 -9.68247e-06 11.5
      vertex 19.1 0 11.5
      vertex 19.1 -9.68247e-06 11.5
    endloop
  endfacet
  facet normal -0 0 -1
    outer loop
      vertex 19.1 0 11.5
      vertex -1 -9.68247e-06 11.5
      vertex -1 0 11.5
    endloop
  endfacet
  facet normal 0 -1 0
    outer loop
      vertex -1 0 10.7
      vertex 19.1 0 11.5
      vertex -1 0 11.5
    endloop
  endfacet
  facet normal 0 -1 -0
    outer loop
      vertex 19.1 0 11.5
      vertex -1 0 10.7
      vertex 19.1 0 10.7
    endloop
  endfacet
  facet normal 0 1 0
    outer loop
      vertex 18.1 0.799999 9.5
      vertex 19.1 0.799999 10.7
      vertex 19.1 0.799999 9.5
    endloop
  endfacet
  facet normal 0 1 0
    outer loop
      vertex 19.1 0.799999 10.7
      vertex 18.1 0.799999 9.5
      vertex -1 0.799999 10.7
    endloop
  endfacet
  facet normal 0 1 -0
    outer loop
      vertex 0 0.799999 9.5
      vertex -1 0.799999 10.7
      vertex 18.1 0.799999 9.5
    endloop
  endfacet
  facet normal 0 1 0
    outer loop
      vertex -1 0.799999 10.7
      vertex 0 0.799999 9.5
      vertex -1 0.799999 9.5
    endloop
  endfacet
  facet normal 0 -0.290348 0.956921
    outer loop
      vertex 14.9174 0.0956707 7.27703
      vertex 19.1 0.0487719 7.2628
      vertex 19.1 0.0956707 7.27703
    endloop
  endfacet
  facet normal 0 -0.290348 0.956921
    outer loop
      vertex 19.1 0.0487719 7.2628
      vertex 14.9174 0.0956707 7.27703
      vertex 14.9174 0.0487719 7.2628
    endloop
  endfacet
  facet normal 0 -0.0979441 0.995192
    outer loop
      vertex 14.9174 0.0487719 7.2628
      vertex 19.1 0 7.258
      vertex 19.1 0.0487719 7.2628
    endloop
  endfacet
  facet normal 0 -0.0979441 0.995192
    outer loop
      vertex 19.1 0 7.258
      vertex 14.9174 0.0487719 7.2628
      vertex 14.9174 0 7.258
    endloop
  endfacet
  facet normal 0 -0.471361 0.88194
    outer loop
      vertex 14.9174 0.138892 7.30013
      vertex 19.1 0.0956707 7.27703
      vertex 19.1 0.138892 7.30013
    endloop
  endfacet
  facet normal 0 -0.471361 0.88194
    outer loop
      vertex 19.1 0.0956707 7.27703
      vertex 14.9174 0.138892 7.30013
      vertex 14.9174 0.0956707 7.27703
    endloop
  endfacet
  facet normal 0 -0.995182 0.098049
    outer loop
      vertex 14.9174 0.245195 7.45923
      vertex 19.1 0.25 7.508
      vertex 14.9174 0.25 7.508
    endloop
  endfacet
  facet normal 0 -0.995182 0.098049
    outer loop
      vertex 19.1 0.25 7.508
      vertex 14.9174 0.245195 7.45923
      vertex 19.1 0.245195 7.45923
    endloop
  endfacet
  facet normal 0 -0.0979441 -0.995192
    outer loop
      vertex 14.9174 0 7.758
      vertex 19.1 0.0487719 7.7532
      vertex 19.1 0 7.758
    endloop
  endfacet
  facet normal -0 -0.0979441 -0.995192
    outer loop
      vertex 19.1 0.0487719 7.7532
      vertex 14.9174 0 7.758
      vertex 14.9174 0.0487719 7.7532
    endloop
  endfacet
  facet normal 0 -0.881918 0.471404
    outer loop
      vertex 14.9174 0.207867 7.36911
      vertex 19.1 0.230969 7.41233
      vertex 14.9174 0.230969 7.41233
    endloop
  endfacet
  facet normal 0 -0.881918 0.471404
    outer loop
      vertex 19.1 0.230969 7.41233
      vertex 14.9174 0.207867 7.36911
      vertex 19.1 0.207867 7.36911
    endloop
  endfacet
  facet normal 0 -0.956946 0.290267
    outer loop
      vertex 14.9174 0.230969 7.41233
      vertex 19.1 0.245195 7.45923
      vertex 14.9174 0.245195 7.45923
    endloop
  endfacet
  facet normal 0 -0.956946 0.290267
    outer loop
      vertex 19.1 0.245195 7.45923
      vertex 14.9174 0.230969 7.41233
      vertex 19.1 0.230969 7.41233
    endloop
  endfacet
  facet normal 0 -0.995182 -0.098049
    outer loop
      vertex 14.9174 0.25 7.508
      vertex 19.1 0.245195 7.55677
      vertex 14.9174 0.245195 7.55677
    endloop
  endfacet
  facet normal 0 -0.995182 -0.098049
    outer loop
      vertex 19.1 0.245195 7.55677
      vertex 14.9174 0.25 7.508
      vertex 19.1 0.25 7.508
    endloop
  endfacet
  facet normal 0 -0.290348 -0.956921
    outer loop
      vertex 14.9174 0.0487719 7.7532
      vertex 19.1 0.0956707 7.73897
      vertex 19.1 0.0487719 7.7532
    endloop
  endfacet
  facet normal -0 -0.290348 -0.956921
    outer loop
      vertex 19.1 0.0956707 7.73897
      vertex 14.9174 0.0487719 7.7532
      vertex 14.9174 0.0956707 7.73897
    endloop
  endfacet
  facet normal 0 -0.773056 -0.634338
    outer loop
      vertex 14.9174 0.207867 7.64689
      vertex 19.1 0.176776 7.68478
      vertex 14.9174 0.176776 7.68478
    endloop
  endfacet
  facet normal 0 -0.773056 -0.634338
    outer loop
      vertex 19.1 0.176776 7.68478
      vertex 14.9174 0.207867 7.64689
      vertex 19.1 0.207867 7.64689
    endloop
  endfacet
  facet normal 0 -0.634386 0.773016
    outer loop
      vertex 14.9174 0.176776 7.33122
      vertex 19.1 0.138892 7.30013
      vertex 19.1 0.176776 7.33122
    endloop
  endfacet
  facet normal 0 -0.634386 0.773016
    outer loop
      vertex 19.1 0.138892 7.30013
      vertex 14.9174 0.176776 7.33122
      vertex 14.9174 0.138892 7.30013
    endloop
  endfacet
  facet normal 0 -0.881918 -0.471404
    outer loop
      vertex 14.9174 0.230969 7.60367
      vertex 19.1 0.207867 7.64689
      vertex 14.9174 0.207867 7.64689
    endloop
  endfacet
  facet normal 0 -0.881918 -0.471404
    outer loop
      vertex 19.1 0.207867 7.64689
      vertex 14.9174 0.230969 7.60367
      vertex 19.1 0.230969 7.60367
    endloop
  endfacet
  facet normal 0 -0.773056 0.634338
    outer loop
      vertex 14.9174 0.176776 7.33122
      vertex 19.1 0.207867 7.36911
      vertex 14.9174 0.207867 7.36911
    endloop
  endfacet
  facet normal 0 -0.773056 0.634338
    outer loop
      vertex 19.1 0.207867 7.36911
      vertex 14.9174 0.176776 7.33122
      vertex 19.1 0.176776 7.33122
    endloop
  endfacet
  facet normal 0 -0.956946 -0.290267
    outer loop
      vertex 14.9174 0.245195 7.55677
      vertex 19.1 0.230969 7.60367
      vertex 14.9174 0.230969 7.60367
    endloop
  endfacet
  facet normal 0 -0.956946 -0.290267
    outer loop
      vertex 19.1 0.230969 7.60367
      vertex 14.9174 0.245195 7.55677
      vertex 19.1 0.245195 7.55677
    endloop
  endfacet
  facet normal 0 -0.634386 -0.773016
    outer loop
      vertex 14.9174 0.138892 7.71587
      vertex 19.1 0.176776 7.68478
      vertex 19.1 0.138892 7.71587
    endloop
  endfacet
  facet normal -0 -0.634386 -0.773016
    outer loop
      vertex 19.1 0.176776 7.68478
      vertex 14.9174 0.138892 7.71587
      vertex 14.9174 0.176776 7.68478
    endloop
  endfacet
  facet normal 1 0 0
    outer loop
      vertex 14.9174 0.245195 7.55677
      vertex 14.9174 0.245195 7.45923
      vertex 14.9174 0.25 7.508
    endloop
  endfacet
  facet normal 1 0 0
    outer loop
      vertex 14.9174 0.230969 7.60367
      vertex 14.9174 0.245195 7.45923
      vertex 14.9174 0.245195 7.55677
    endloop
  endfacet
  facet normal 1 0 0
    outer loop
      vertex 14.9174 0.230969 7.60367
      vertex 14.9174 0.230969 7.41233
      vertex 14.9174 0.245195 7.45923
    endloop
  endfacet
  facet normal 1 0 0
    outer loop
      vertex 14.9174 0.207867 7.64689
      vertex 14.9174 0.230969 7.41233
      vertex 14.9174 0.230969 7.60367
    endloop
  endfacet
  facet normal 1 0 0
    outer loop
      vertex 14.9174 0.207867 7.64689
      vertex 14.9174 0.207867 7.36911
      vertex 14.9174 0.230969 7.41233
    endloop
  endfacet
  facet normal 1 0 0
    outer loop
      vertex 14.9174 0.176776 7.68478
      vertex 14.9174 0.207867 7.36911
      vertex 14.9174 0.207867 7.64689
    endloop
  endfacet
  facet normal 1 0 0
    outer loop
      vertex 14.9174 0.176776 7.68478
      vertex 14.9174 0.176776 7.33122
      vertex 14.9174 0.207867 7.36911
    endloop
  endfacet
  facet normal 1 0 0
    outer loop
      vertex 14.9174 0.138892 7.71587
      vertex 14.9174 0.176776 7.33122
      vertex 14.9174 0.176776 7.68478
    endloop
  endfacet
  facet normal 1 0 0
    outer loop
      vertex 14.9174 0.138892 7.71587
      vertex 14.9174 0.138892 7.30013
      vertex 14.9174 0.176776 7.33122
    endloop
  endfacet
  facet normal 1 0 0
    outer loop
      vertex 14.9174 0.0956707 7.73897
      vertex 14.9174 0.138892 7.30013
      vertex 14.9174 0.138892 7.71587
    endloop
  endfacet
  facet normal 1 0 0
    outer loop
      vertex 14.9174 0.0956707 7.73897
      vertex 14.9174 0.0956707 7.27703
      vertex 14.9174 0.138892 7.30013
    endloop
  endfacet
  facet normal 1 0 0
    outer loop
      vertex 14.9174 0.0487719 7.7532
      vertex 14.9174 0.0956707 7.27703
      vertex 14.9174 0.0956707 7.73897
    endloop
  endfacet
  facet normal 1 0 0
    outer loop
      vertex 14.9174 0.0487719 7.7532
      vertex 14.9174 0.0487719 7.2628
      vertex 14.9174 0.0956707 7.27703
    endloop
  endfacet
  facet normal 1 0 0
    outer loop
      vertex 14.9174 0 7.758
      vertex 14.9174 0.0487719 7.2628
      vertex 14.9174 0.0487719 7.7532
    endloop
  endfacet
  facet normal 1 0 0
    outer loop
      vertex 14.9174 0.0487719 7.2628
      vertex 14.9174 0 7.758
      vertex 14.9174 0 7.258
    endloop
  endfacet
  facet normal 0 -0.471361 -0.88194
    outer loop
      vertex 14.9174 0.0956707 7.73897
      vertex 19.1 0.138892 7.71587
      vertex 19.1 0.0956707 7.73897
    endloop
  endfacet
  facet normal -0 -0.471361 -0.88194
    outer loop
      vertex 19.1 0.138892 7.71587
      vertex 14.9174 0.0956707 7.73897
      vertex 14.9174 0.138892 7.71587
    endloop
  endfacet
  facet normal 1 -0 0
    outer loop
      vertex 14.9174 -4.25 12.02
      vertex 14.9174 -2.25 10.258
      vertex 14.9174 -2.25 12.02
    endloop
  endfacet
  facet normal 1 0 0
    outer loop
      vertex 14.9174 -2.25 10.258
      vertex 14.9174 -4.25 12.02
      vertex 14.9174 -2.25 8.858
    endloop
  endfacet
  facet normal 1 0 0
    outer loop
      vertex 14.9174 -2.25 8.858
      vertex 14.9174 -4.25 12.02
      vertex 14.9174 -2.25 7.758
    endloop
  endfacet
  facet normal 1 0 0
    outer loop
      vertex 14.9174 -1.46537 9.69456
      vertex 14.9174 -1.46537 9.42144
      vertex 14.9174 -1.45 9.558
    endloop
  endfacet
  facet normal 1 0 0
    outer loop
      vertex 14.9174 -1.5109 9.82588
      vertex 14.9174 -1.46537 9.42144
      vertex 14.9174 -1.46537 9.69456
    endloop
  endfacet
  facet normal 1 0 0
    outer loop
      vertex 14.9174 -1.5109 9.82588
      vertex 14.9174 -1.5109 9.29012
      vertex 14.9174 -1.46537 9.42144
    endloop
  endfacet
  facet normal 1 0 0
    outer loop
      vertex 14.9174 -1.58482 9.9469
      vertex 14.9174 -1.5109 9.29012
      vertex 14.9174 -1.5109 9.82588
    endloop
  endfacet
  facet normal 1 0 0
    outer loop
      vertex 14.9174 -1.58482 9.9469
      vertex 14.9174 -1.58482 9.1691
      vertex 14.9174 -1.5109 9.29012
    endloop
  endfacet
  facet normal 1 0 0
    outer loop
      vertex 14.9174 -1.68431 10.053
      vertex 14.9174 -1.58482 9.1691
      vertex 14.9174 -1.58482 9.9469
    endloop
  endfacet
  facet normal 1 0 0
    outer loop
      vertex 14.9174 -1.68431 10.053
      vertex 14.9174 -1.68431 9.06302
      vertex 14.9174 -1.58482 9.1691
    endloop
  endfacet
  facet normal 1 0 0
    outer loop
      vertex 14.9174 -1.80554 10.14
      vertex 14.9174 -1.68431 9.06302
      vertex 14.9174 -1.68431 10.053
    endloop
  endfacet
  facet normal 1 0 0
    outer loop
      vertex 14.9174 -1.80554 10.14
      vertex 14.9174 -1.80554 8.97597
      vertex 14.9174 -1.68431 9.06302
    endloop
  endfacet
  facet normal 1 0 0
    outer loop
      vertex 14.9174 -1.94385 10.2047
      vertex 14.9174 -1.80554 8.97597
      vertex 14.9174 -1.80554 10.14
    endloop
  endfacet
  facet normal 1 0 0
    outer loop
      vertex 14.9174 -1.94385 10.2047
      vertex 14.9174 -1.94385 8.91128
      vertex 14.9174 -1.80554 8.97597
    endloop
  endfacet
  facet normal 1 0 0
    outer loop
      vertex 14.9174 -2.09393 10.2445
      vertex 14.9174 -1.94385 8.91128
      vertex 14.9174 -1.94385 10.2047
    endloop
  endfacet
  facet normal 1 0 0
    outer loop
      vertex 14.9174 -2.09393 10.2445
      vertex 14.9174 -2.09393 8.87145
      vertex 14.9174 -1.94385 8.91128
    endloop
  endfacet
  facet normal 1 0 0
    outer loop
      vertex 14.9174 -2.25 10.258
      vertex 14.9174 -2.09393 8.87145
      vertex 14.9174 -2.09393 10.2445
    endloop
  endfacet
  facet normal 1 0 0
    outer loop
      vertex 14.9174 -2.09393 8.87145
      vertex 14.9174 -2.25 10.258
      vertex 14.9174 -2.25 8.858
    endloop
  endfacet
  facet normal 1 -0 0
    outer loop
      vertex 14.9174 -2.25 7.758
      vertex 14.9174 0 -2
      vertex 14.9174 0 7.758
    endloop
  endfacet
  facet normal 1 0 0
    outer loop
      vertex 14.9174 -4.25 -2
      vertex 14.9174 -2.25 7.758
      vertex 14.9174 -4.25 12.02
    endloop
  endfacet
  facet normal 1 0 0
    outer loop
      vertex 14.9174 -2.25 7.758
      vertex 14.9174 -4.25 -2
      vertex 14.9174 0 -2
    endloop
  endfacet
  facet normal 0 0 1
    outer loop
      vertex 14.9174 -2.25 12.02
      vertex 9.55 -3.75 12.02
      vertex 14.9174 -4.25 12.02
    endloop
  endfacet
  facet normal 0 0 1
    outer loop
      vertex 14.9174 -2.25 12.02
      vertex 8.55 -3.75 12.02
      vertex 9.55 -3.75 12.02
    endloop
  endfacet
  facet normal -0 0 1
    outer loop
      vertex -1 -2.25 12.02
      vertex 8.55 -3.75 12.02
      vertex 14.9174 -2.25 12.02
    endloop
  endfacet
  facet normal 0 0 1
    outer loop
      vertex -1 -4.25 12.02
      vertex 8.55 -3.75 12.02
      vertex -1 -2.25 12.02
    endloop
  endfacet
  facet normal 0 0 1
    outer loop
      vertex 8.55 -3.75 12.02
      vertex -1 -4.25 12.02
      vertex 8.55 -4.25 12.02
    endloop
  endfacet
  facet normal 0 0 1
    outer loop
      vertex 14.9174 -4.25 12.02
      vertex 9.55 -3.75 12.02
      vertex 9.55 -4.25 12.02
    endloop
  endfacet
  facet normal 0 -1 0
    outer loop
      vertex -1 -4.25 12.02
      vertex 8.55 -4.25 9.52
      vertex 8.55 -4.25 12.02
    endloop
  endfacet
  facet normal 0 -1 0
    outer loop
      vertex 7.73655 -4.25 5.59874
      vertex 8.55 -4.25 9.52
      vertex 6.97167 -4.25 5.59874
    endloop
  endfacet
  facet normal 0 -1 0
    outer loop
      vertex -1 -4.25 12.02
      vertex 6.97167 -4.25 5.59874
      vertex 8.55 -4.25 9.52
    endloop
  endfacet
  facet normal 0 -1 0
    outer loop
      vertex -1 -4.25 12.02
      vertex 6.96442 -4.25 5.28351
      vertex 6.97167 -4.25 5.59874
    endloop
  endfacet
  facet normal 0 -1 0
    outer loop
      vertex -1 -4.25 12.02
      vertex 6.94271 -4.25 4.97249
      vertex 6.96442 -4.25 5.28351
    endloop
  endfacet
  facet normal 0 -1 0
    outer loop
      vertex -1 -4.25 12.02
      vertex 6.9065 -4.25 4.66571
      vertex 6.94271 -4.25 4.97249
    endloop
  endfacet
  facet normal 0 -1 0
    outer loop
      vertex -1 -4.25 12.02
      vertex 6.85579 -4.25 4.36316
      vertex 6.9065 -4.25 4.66571
    endloop
  endfacet
  facet normal 0 -1 0
    outer loop
      vertex -1 -4.25 12.02
      vertex 6.79061 -4.25 4.06485
      vertex 6.85579 -4.25 4.36316
    endloop
  endfacet
  facet normal 0 -1 0
    outer loop
      vertex -1 -4.25 12.02
      vertex 6.71093 -4.25 3.76782
      vertex 6.79061 -4.25 4.06485
    endloop
  endfacet
  facet normal 0 -1 0
    outer loop
      vertex -1 -4.25 12.02
      vertex 6.61678 -4.25 3.46918
      vertex 6.71093 -4.25 3.76782
    endloop
  endfacet
  facet normal 0 -1 0
    outer loop
      vertex -1 -4.25 12.02
      vertex 6.50814 -4.25 3.1689
      vertex 6.61678 -4.25 3.46918
    endloop
  endfacet
  facet normal 0 -1 0
    outer loop
      vertex -1 -4.25 12.02
      vertex 6.38503 -4.25 2.86699
      vertex 6.50814 -4.25 3.1689
    endloop
  endfacet
  facet normal 0 -1 0
    outer loop
      vertex -1 -4.25 12.02
      vertex 6.24743 -4.25 2.56346
      vertex 6.38503 -4.25 2.86699
    endloop
  endfacet
  facet normal 0 -1 0
    outer loop
      vertex -1 -4.25 12.02
      vertex 6.08191 -4.25 2.23584
      vertex 6.24743 -4.25 2.56346
    endloop
  endfacet
  facet normal 0 -1 0
    outer loop
      vertex -1 -4.25 12.02
      vertex 5.87507 -4.25 1.86168
      vertex 6.08191 -4.25 2.23584
    endloop
  endfacet
  facet normal 0 -1 0
    outer loop
      vertex -1 -4.25 12.02
      vertex 5.62687 -4.25 1.44098
      vertex 5.87507 -4.25 1.86168
    endloop
  endfacet
  facet normal 0 -1 0
    outer loop
      vertex -1 -4.25 -2
      vertex 5.62687 -4.25 1.44098
      vertex -1 -4.25 12.02
    endloop
  endfacet
  facet normal 0 -1 0
    outer loop
      vertex 5.62687 -4.25 1.44098
      vertex -1 -4.25 -2
      vertex 5.33733 -4.25 0.973724
    endloop
  endfacet
  facet normal 0 -1 0
    outer loop
      vertex 5.33733 -4.25 0.973724
      vertex -1 -4.25 -2
      vertex 5.00644 -4.25 0.459915
    endloop
  endfacet
  facet normal 0 -1 -0
    outer loop
      vertex 5.00644 -4.25 -0.134125
      vertex -1 -4.25 -2
      vertex 8.79447 -4.25 -0.134125
    endloop
  endfacet
  facet normal 0 -1 -0
    outer loop
      vertex 5.00644 -4.25 0.459915
      vertex -1 -4.25 -2
      vertex 5.00644 -4.25 -0.134125
    endloop
  endfacet
  facet normal 0 -1 0
    outer loop
      vertex 9.55 -4.25 9.52
      vertex 14.9174 -4.25 12.02
      vertex 9.55 -4.25 12.02
    endloop
  endfacet
  facet normal 0 -1 -0
    outer loop
      vertex 8.55 -4.25 9.52
      vertex 7.73655 -4.25 5.59874
      vertex 9.55 -4.25 9.52
    endloop
  endfacet
  facet normal 0 -1 0
    outer loop
      vertex 7.71792 -4.25 5.15469
      vertex 9.55 -4.25 9.52
      vertex 7.73655 -4.25 5.59874
    endloop
  endfacet
  facet normal 0 -1 0
    outer loop
      vertex 14.9174 -4.25 -2
      vertex 9.55 -4.25 9.52
      vertex 7.71792 -4.25 5.15469
    endloop
  endfacet
  facet normal 0 -1 0
    outer loop
      vertex 14.9174 -4.25 -2
      vertex 7.71792 -4.25 5.15469
      vertex 7.66202 -4.25 4.70135
    endloop
  endfacet
  facet normal 0 -1 0
    outer loop
      vertex 8.79447 -4.25 0.488358
      vertex 7.66202 -4.25 4.70135
      vertex 7.56885 -4.25 4.23874
    endloop
  endfacet
  facet normal 0 -1 0
    outer loop
      vertex 8.79447 -4.25 0.488358
      vertex 7.56885 -4.25 4.23874
      vertex 7.43841 -4.25 3.76685
    endloop
  endfacet
  facet normal 0 -1 0
    outer loop
      vertex 8.79447 -4.25 0.488358
      vertex 7.43841 -4.25 3.76685
      vertex 7.27071 -4.25 3.28568
    endloop
  endfacet
  facet normal 0 -1 0
    outer loop
      vertex 8.79447 -4.25 0.488358
      vertex 7.27071 -4.25 3.28568
      vertex 7.05938 -4.25 2.78514
    endloop
  endfacet
  facet normal 0 -1 0
    outer loop
      vertex 8.79447 -4.25 0.488358
      vertex 7.05938 -4.25 2.78514
      vertex 6.79809 -4.25 2.25514
    endloop
  endfacet
  facet normal 0 -1 0
    outer loop
      vertex 8.79447 -4.25 0.488358
      vertex 6.79809 -4.25 2.25514
      vertex 6.48684 -4.25 1.69568
    endloop
  endfacet
  facet normal 0 -1 0
    outer loop
      vertex 8.79447 -4.25 0.488358
      vertex 6.48684 -4.25 1.69568
      vertex 6.12562 -4.25 1.10675
    endloop
  endfacet
  facet normal 0 -1 0
    outer loop
      vertex 8.79447 -4.25 0.488358
      vertex 6.12562 -4.25 1.10675
      vertex 5.71445 -4.25 0.488358
    endloop
  endfacet
  facet normal 0 -1 0
    outer loop
      vertex 7.66202 -4.25 4.70135
      vertex 8.79447 -4.25 0.488358
      vertex 14.9174 -4.25 -2
    endloop
  endfacet
  facet normal 0 -1 0
    outer loop
      vertex 14.9174 -4.25 -2
      vertex 8.79447 -4.25 0.488358
      vertex 8.79447 -4.25 -0.134125
    endloop
  endfacet
  facet normal 0 -1 0
    outer loop
      vertex 9.55 -4.25 9.52
      vertex 14.9174 -4.25 -2
      vertex 14.9174 -4.25 12.02
    endloop
  endfacet
  facet normal 0 -1 0
    outer loop
      vertex 14.9174 -4.25 -2
      vertex 8.79447 -4.25 -0.134125
      vertex -1 -4.25 -2
    endloop
  endfacet
  facet normal -1 0 0
    outer loop
      vertex 9.55 -4.25 9.52
      vertex 9.55 -3.75 12.02
      vertex 9.55 -3.75 9.52
    endloop
  endfacet
  facet normal -1 -0 0
    outer loop
      vertex 9.55 -3.75 12.02
      vertex 9.55 -4.25 9.52
      vertex 9.55 -4.25 12.02
    endloop
  endfacet
  facet normal -0 0 1
    outer loop
      vertex 8.55 -3.75 9.52
      vertex 9.55 -4.25 9.52
      vertex 9.55 -3.75 9.52
    endloop
  endfacet
  facet normal 0 0 1
    outer loop
      vertex 9.55 -4.25 9.52
      vertex 8.55 -3.75 9.52
      vertex 8.55 -4.25 9.52
    endloop
  endfacet
  facet normal 1 -0 0
    outer loop
      vertex 8.55 -4.25 12.02
      vertex 8.55 -3.75 9.52
      vertex 8.55 -3.75 12.02
    endloop
  endfacet
  facet normal 1 0 0
    outer loop
      vertex 8.55 -3.75 9.52
      vertex 8.55 -4.25 12.02
      vertex 8.55 -4.25 9.52
    endloop
  endfacet
  facet normal 0 -1 0
    outer loop
      vertex 8.55 -3.75 9.52
      vertex 9.55 -3.75 12.02
      vertex 8.55 -3.75 12.02
    endloop
  endfacet
  facet normal 0 -1 -0
    outer loop
      vertex 9.55 -3.75 12.02
      vertex 8.55 -3.75 9.52
      vertex 9.55 -3.75 9.52
    endloop
  endfacet
  facet normal -0 0 1
    outer loop
      vertex -1 0 7.758
      vertex 14.9174 -2.25 7.758
      vertex 14.9174 0 7.758
    endloop
  endfacet
  facet normal 0 0 1
    outer loop
      vertex 14.9174 -2.25 7.758
      vertex -1 0 7.758
      vertex -1 -2.25 7.758
    endloop
  endfacet
  facet normal 0 1 -0
    outer loop
      vertex 14.9174 -2.25 7.758
      vertex -1 -2.25 8.858
      vertex 14.9174 -2.25 8.858
    endloop
  endfacet
  facet normal 0 1 0
    outer loop
      vertex -1 -2.25 8.858
      vertex 14.9174 -2.25 7.758
      vertex -1 -2.25 7.758
    endloop
  endfacet
  facet normal 0 1 -0
    outer loop
      vertex 14.9174 -2.25 10.258
      vertex -1 -2.25 12.02
      vertex 14.9174 -2.25 12.02
    endloop
  endfacet
  facet normal 0 1 0
    outer loop
      vertex -1 -2.25 12.02
      vertex 14.9174 -2.25 10.258
      vertex -1 -2.25 10.258
    endloop
  endfacet
  facet normal 0 -1 0
    outer loop
      vertex 6.96442 -3.75 5.28351
      vertex 7.73655 -3.75 5.59874
      vertex 6.97167 -3.75 5.59874
    endloop
  endfacet
  facet normal 0 -1 0
    outer loop
      vertex 6.96442 -3.75 5.28351
      vertex 7.71792 -3.75 5.15469
      vertex 7.73655 -3.75 5.59874
    endloop
  endfacet
  facet normal 0 -1 0
    outer loop
      vertex 6.94271 -3.75 4.97249
      vertex 7.71792 -3.75 5.15469
      vertex 6.96442 -3.75 5.28351
    endloop
  endfacet
  facet normal 0 -1 0
    outer loop
      vertex 6.94271 -3.75 4.97249
      vertex 7.66202 -3.75 4.70135
      vertex 7.71792 -3.75 5.15469
    endloop
  endfacet
  facet normal 0 -1 0
    outer loop
      vertex 6.9065 -3.75 4.66571
      vertex 7.66202 -3.75 4.70135
      vertex 6.94271 -3.75 4.97249
    endloop
  endfacet
  facet normal 0 -1 0
    outer loop
      vertex 7.56885 -3.75 4.23874
      vertex 6.9065 -3.75 4.66571
      vertex 6.85579 -3.75 4.36316
    endloop
  endfacet
  facet normal 0 -1 0
    outer loop
      vertex 6.9065 -3.75 4.66571
      vertex 7.56885 -3.75 4.23874
      vertex 7.66202 -3.75 4.70135
    endloop
  endfacet
  facet normal 0 -1 0
    outer loop
      vertex 6.79061 -3.75 4.06485
      vertex 7.56885 -3.75 4.23874
      vertex 6.85579 -3.75 4.36316
    endloop
  endfacet
  facet normal 0 -1 0
    outer loop
      vertex 7.43841 -3.75 3.76685
      vertex 6.79061 -3.75 4.06485
      vertex 6.71093 -3.75 3.76782
    endloop
  endfacet
  facet normal 0 -1 0
    outer loop
      vertex 6.79061 -3.75 4.06485
      vertex 7.43841 -3.75 3.76685
      vertex 7.56885 -3.75 4.23874
    endloop
  endfacet
  facet normal 0 -1 0
    outer loop
      vertex 7.27071 -3.75 3.28568
      vertex 6.71093 -3.75 3.76782
      vertex 6.61678 -3.75 3.46918
    endloop
  endfacet
  facet normal 0 -1 0
    outer loop
      vertex 6.71093 -3.75 3.76782
      vertex 7.27071 -3.75 3.28568
      vertex 7.43841 -3.75 3.76685
    endloop
  endfacet
  facet normal 0 -1 0
    outer loop
      vertex 6.50814 -3.75 3.1689
      vertex 7.27071 -3.75 3.28568
      vertex 6.61678 -3.75 3.46918
    endloop
  endfacet
  facet normal 0 -1 0
    outer loop
      vertex 7.05938 -3.75 2.78514
      vertex 6.50814 -3.75 3.1689
      vertex 6.38503 -3.75 2.86699
    endloop
  endfacet
  facet normal 0 -1 0
    outer loop
      vertex 6.50814 -3.75 3.1689
      vertex 7.05938 -3.75 2.78514
      vertex 7.27071 -3.75 3.28568
    endloop
  endfacet
  facet normal 0 -1 0
    outer loop
      vertex 6.79809 -3.75 2.25514
      vertex 6.38503 -3.75 2.86699
      vertex 6.24743 -3.75 2.56346
    endloop
  endfacet
  facet normal 0 -1 0
    outer loop
      vertex 6.38503 -3.75 2.86699
      vertex 6.79809 -3.75 2.25514
      vertex 7.05938 -3.75 2.78514
    endloop
  endfacet
  facet normal 0 -1 0
    outer loop
      vertex 6.08191 -3.75 2.23584
      vertex 6.79809 -3.75 2.25514
      vertex 6.24743 -3.75 2.56346
    endloop
  endfacet
  facet normal 0 -1 0
    outer loop
      vertex 6.48684 -3.75 1.69568
      vertex 6.08191 -3.75 2.23584
      vertex 5.87507 -3.75 1.86168
    endloop
  endfacet
  facet normal 0 -1 0
    outer loop
      vertex 6.08191 -3.75 2.23584
      vertex 6.48684 -3.75 1.69568
      vertex 6.79809 -3.75 2.25514
    endloop
  endfacet
  facet normal 0 -1 0
    outer loop
      vertex 6.12562 -3.75 1.10675
      vertex 5.87507 -3.75 1.86168
      vertex 5.62687 -3.75 1.44098
    endloop
  endfacet
  facet normal 0 -1 0
    outer loop
      vertex 5.87507 -3.75 1.86168
      vertex 6.12562 -3.75 1.10675
      vertex 6.48684 -3.75 1.69568
    endloop
  endfacet
  facet normal 0 -1 0
    outer loop
      vertex 5.33733 -3.75 0.973724
      vertex 6.12562 -3.75 1.10675
      vertex 5.62687 -3.75 1.44098
    endloop
  endfacet
  facet normal 0 -1 0
    outer loop
      vertex 5.33733 -3.75 0.973724
      vertex 5.71445 -3.75 0.488358
      vertex 6.12562 -3.75 1.10675
    endloop
  endfacet
  facet normal 0 -1 0
    outer loop
      vertex 5.00644 -3.75 0.459915
      vertex 5.71445 -3.75 0.488358
      vertex 5.33733 -3.75 0.973724
    endloop
  endfacet
  facet normal 0 -1 0
    outer loop
      vertex 5.00644 -3.75 -0.134125
      vertex 5.71445 -3.75 0.488358
      vertex 5.00644 -3.75 0.459915
    endloop
  endfacet
  facet normal 0 -1 0
    outer loop
      vertex 8.79447 -3.75 -0.134125
      vertex 5.71445 -3.75 0.488358
      vertex 5.00644 -3.75 -0.134125
    endloop
  endfacet
  facet normal 0 -1 0
    outer loop
      vertex 5.71445 -3.75 0.488358
      vertex 8.79447 -3.75 -0.134125
      vertex 8.79447 -3.75 0.488358
    endloop
  endfacet
  facet normal 0.997573 0 -0.0696332
    outer loop
      vertex 6.96442 -4.25 5.28351
      vertex 6.94271 -3.75 4.97249
      vertex 6.96442 -3.75 5.28351
    endloop
  endfacet
  facet normal 0.997573 0 -0.0696332
    outer loop
      vertex 6.94271 -3.75 4.97249
      vertex 6.96442 -4.25 5.28351
      vertex 6.94271 -4.25 4.97249
    endloop
  endfacet
  facet normal 0.993106 0 -0.117219
    outer loop
      vertex 6.94271 -4.25 4.97249
      vertex 6.9065 -3.75 4.66571
      vertex 6.94271 -3.75 4.97249
    endloop
  endfacet
  facet normal 0.993106 0 -0.117219
    outer loop
      vertex 6.9065 -3.75 4.66571
      vertex 6.94271 -4.25 4.97249
      vertex 6.9065 -4.25 4.66571
    endloop
  endfacet
  facet normal 0.986243 0 -0.165303
    outer loop
      vertex 6.9065 -4.25 4.66571
      vertex 6.85579 -3.75 4.36316
      vertex 6.9065 -3.75 4.66571
    endloop
  endfacet
  facet normal 0.986243 0 -0.165303
    outer loop
      vertex 6.85579 -3.75 4.36316
      vertex 6.9065 -4.25 4.66571
      vertex 6.85579 -4.25 4.36316
    endloop
  endfacet
  facet normal 0.976951 0 -0.213461
    outer loop
      vertex 6.85579 -4.25 4.36316
      vertex 6.79061 -3.75 4.06485
      vertex 6.85579 -3.75 4.36316
    endloop
  endfacet
  facet normal 0.976951 0 -0.213461
    outer loop
      vertex 6.79061 -3.75 4.06485
      vertex 6.85579 -4.25 4.36316
      vertex 6.79061 -4.25 4.06485
    endloop
  endfacet
  facet normal 0.965852 0 -0.259095
    outer loop
      vertex 6.79061 -4.25 4.06485
      vertex 6.71093 -3.75 3.76782
      vertex 6.79061 -3.75 4.06485
    endloop
  endfacet
  facet normal 0.965852 0 -0.259095
    outer loop
      vertex 6.71093 -3.75 3.76782
      vertex 6.79061 -4.25 4.06485
      vertex 6.71093 -4.25 3.76782
    endloop
  endfacet
  facet normal 0.953727 0 -0.300674
    outer loop
      vertex 6.71093 -4.25 3.76782
      vertex 6.61678 -3.75 3.46918
      vertex 6.71093 -3.75 3.76782
    endloop
  endfacet
  facet normal 0.953727 0 -0.300674
    outer loop
      vertex 6.61678 -3.75 3.46918
      vertex 6.71093 -4.25 3.76782
      vertex 6.61678 -4.25 3.46918
    endloop
  endfacet
  facet normal 0.940348 0 -0.340214
    outer loop
      vertex 6.61678 -4.25 3.46918
      vertex 6.50814 -3.75 3.1689
      vertex 6.61678 -3.75 3.46918
    endloop
  endfacet
  facet normal 0.940348 0 -0.340214
    outer loop
      vertex 6.50814 -3.75 3.1689
      vertex 6.61678 -4.25 3.46918
      vertex 6.50814 -4.25 3.1689
    endloop
  endfacet
  facet normal 0.925975 0 -0.377585
    outer loop
      vertex 6.50814 -4.25 3.1689
      vertex 6.38503 -3.75 2.86699
      vertex 6.50814 -3.75 3.1689
    endloop
  endfacet
  facet normal 0.925975 0 -0.377585
    outer loop
      vertex 6.38503 -3.75 2.86699
      vertex 6.50814 -4.25 3.1689
      vertex 6.38503 -4.25 2.86699
    endloop
  endfacet
  facet normal 0.910782 0 -0.412887
    outer loop
      vertex 6.38503 -4.25 2.86699
      vertex 6.24743 -3.75 2.56346
      vertex 6.38503 -3.75 2.86699
    endloop
  endfacet
  facet normal 0.910782 0 -0.412887
    outer loop
      vertex 6.24743 -3.75 2.56346
      vertex 6.38503 -4.25 2.86699
      vertex 6.24743 -4.25 2.56346
    endloop
  endfacet
  facet normal 0.892556 0 -0.450937
    outer loop
      vertex 6.24743 -4.25 2.56346
      vertex 6.08191 -3.75 2.23584
      vertex 6.24743 -3.75 2.56346
    endloop
  endfacet
  facet normal 0.892556 0 -0.450937
    outer loop
      vertex 6.08191 -3.75 2.23584
      vertex 6.24743 -4.25 2.56346
      vertex 6.08191 -4.25 2.23584
    endloop
  endfacet
  facet normal 0.875175 0 -0.483807
    outer loop
      vertex 6.08191 -4.25 2.23584
      vertex 5.87507 -3.75 1.86168
      vertex 6.08191 -3.75 2.23584
    endloop
  endfacet
  facet normal 0.875175 0 -0.483807
    outer loop
      vertex 5.87507 -3.75 1.86168
      vertex 6.08191 -4.25 2.23584
      vertex 5.87507 -4.25 1.86168
    endloop
  endfacet
  facet normal 0.861281 0 -0.508129
    outer loop
      vertex 5.87507 -4.25 1.86168
      vertex 5.62687 -3.75 1.44098
      vertex 5.87507 -3.75 1.86168
    endloop
  endfacet
  facet normal 0.861281 0 -0.508129
    outer loop
      vertex 5.62687 -3.75 1.44098
      vertex 5.87507 -4.25 1.86168
      vertex 5.62687 -4.25 1.44098
    endloop
  endfacet
  facet normal 0.850032 0 -0.526731
    outer loop
      vertex 5.62687 -4.25 1.44098
      vertex 5.33733 -3.75 0.973724
      vertex 5.62687 -3.75 1.44098
    endloop
  endfacet
  facet normal 0.850032 0 -0.526731
    outer loop
      vertex 5.33733 -3.75 0.973724
      vertex 5.62687 -4.25 1.44098
      vertex 5.33733 -4.25 0.973724
    endloop
  endfacet
  facet normal 0.840743 0 -0.541434
    outer loop
      vertex 5.33733 -4.25 0.973724
      vertex 5.00644 -3.75 0.459915
      vertex 5.33733 -3.75 0.973724
    endloop
  endfacet
  facet normal 0.840743 0 -0.541434
    outer loop
      vertex 5.00644 -3.75 0.459915
      vertex 5.33733 -4.25 0.973724
      vertex 5.00644 -4.25 0.459915
    endloop
  endfacet
  facet normal 1 -0 0
    outer loop
      vertex 5.00644 -4.25 0.459915
      vertex 5.00644 -3.75 -0.134125
      vertex 5.00644 -3.75 0.459915
    endloop
  endfacet
  facet normal 1 0 0
    outer loop
      vertex 5.00644 -3.75 -0.134125
      vertex 5.00644 -4.25 0.459915
      vertex 5.00644 -4.25 -0.134125
    endloop
  endfacet
  facet normal -0 0 1
    outer loop
      vertex 5.00644 -3.75 -0.134125
      vertex 8.79447 -4.25 -0.134125
      vertex 8.79447 -3.75 -0.134125
    endloop
  endfacet
  facet normal 0 0 1
    outer loop
      vertex 8.79447 -4.25 -0.134125
      vertex 5.00644 -3.75 -0.134125
      vertex 5.00644 -4.25 -0.134125
    endloop
  endfacet
  facet normal -1 0 0
    outer loop
      vertex 8.79447 -4.25 -0.134125
      vertex 8.79447 -3.75 0.488358
      vertex 8.79447 -3.75 -0.134125
    endloop
  endfacet
  facet normal -1 -0 0
    outer loop
      vertex 8.79447 -3.75 0.488358
      vertex 8.79447 -4.25 -0.134125
      vertex 8.79447 -4.25 0.488358
    endloop
  endfacet
  facet normal 0 0 -1
    outer loop
      vertex 5.71445 -4.25 0.488358
      vertex 8.79447 -3.75 0.488358
      vertex 8.79447 -4.25 0.488358
    endloop
  endfacet
  facet normal -0 0 -1
    outer loop
      vertex 8.79447 -3.75 0.488358
      vertex 5.71445 -4.25 0.488358
      vertex 5.71445 -3.75 0.488358
    endloop
  endfacet
  facet normal -0.832728 0 0.553682
    outer loop
      vertex 5.71445 -4.25 0.488358
      vertex 6.12562 -3.75 1.10675
      vertex 5.71445 -3.75 0.488358
    endloop
  endfacet
  facet normal -0.832728 0 0.553682
    outer loop
      vertex 6.12562 -3.75 1.10675
      vertex 5.71445 -4.25 0.488358
      vertex 6.12562 -4.25 1.10675
    endloop
  endfacet
  facet normal -0.852432 0 0.522839
    outer loop
      vertex 6.12562 -4.25 1.10675
      vertex 6.48684 -3.75 1.69568
      vertex 6.12562 -3.75 1.10675
    endloop
  endfacet
  facet normal -0.852432 0 0.522839
    outer loop
      vertex 6.48684 -3.75 1.69568
      vertex 6.12562 -4.25 1.10675
      vertex 6.48684 -4.25 1.69568
    endloop
  endfacet
  facet normal -0.873866 0 0.486167
    outer loop
      vertex 6.48684 -4.25 1.69568
      vertex 6.79809 -3.75 2.25514
      vertex 6.48684 -3.75 1.69568
    endloop
  endfacet
  facet normal -0.873866 0 0.486167
    outer loop
      vertex 6.79809 -3.75 2.25514
      vertex 6.48684 -4.25 1.69568
      vertex 6.79809 -4.25 2.25514
    endloop
  endfacet
  facet normal -0.896924 0 0.442184
    outer loop
      vertex 6.79809 -4.25 2.25514
      vertex 7.05938 -3.75 2.78514
      vertex 6.79809 -3.75 2.25514
    endloop
  endfacet
  facet normal -0.896924 0 0.442184
    outer loop
      vertex 7.05938 -3.75 2.78514
      vertex 6.79809 -4.25 2.25514
      vertex 7.05938 -4.25 2.78514
    endloop
  endfacet
  facet normal -0.921256 0 0.388958
    outer loop
      vertex 7.05938 -4.25 2.78514
      vertex 7.27071 -3.75 3.28568
      vertex 7.05938 -3.75 2.78514
    endloop
  endfacet
  facet normal -0.921256 0 0.388958
    outer loop
      vertex 7.27071 -3.75 3.28568
      vertex 7.05938 -4.25 2.78514
      vertex 7.27071 -4.25 3.28568
    endloop
  endfacet
  facet normal -0.944292 0 0.32911
    outer loop
      vertex 7.27071 -4.25 3.28568
      vertex 7.43841 -3.75 3.76685
      vertex 7.27071 -3.75 3.28568
    endloop
  endfacet
  facet normal -0.944292 0 0.32911
    outer loop
      vertex 7.43841 -3.75 3.76685
      vertex 7.27071 -4.25 3.28568
      vertex 7.43841 -4.25 3.76685
    endloop
  endfacet
  facet normal -0.963855 0 0.266429
    outer loop
      vertex 7.43841 -4.25 3.76685
      vertex 7.56885 -3.75 4.23874
      vertex 7.43841 -3.75 3.76685
    endloop
  endfacet
  facet normal -0.963855 0 0.266429
    outer loop
      vertex 7.56885 -3.75 4.23874
      vertex 7.43841 -4.25 3.76685
      vertex 7.56885 -4.25 4.23874
    endloop
  endfacet
  facet normal -0.980316 0 0.197436
    outer loop
      vertex 7.56885 -4.25 4.23874
      vertex 7.66202 -3.75 4.70135
      vertex 7.56885 -3.75 4.23874
    endloop
  endfacet
  facet normal -0.980316 0 0.197436
    outer loop
      vertex 7.66202 -3.75 4.70135
      vertex 7.56885 -4.25 4.23874
      vertex 7.66202 -4.25 4.70135
    endloop
  endfacet
  facet normal -0.992483 0 0.12238
    outer loop
      vertex 7.66202 -4.25 4.70135
      vertex 7.71792 -3.75 5.15469
      vertex 7.66202 -3.75 4.70135
    endloop
  endfacet
  facet normal -0.992483 0 0.12238
    outer loop
      vertex 7.71792 -3.75 5.15469
      vertex 7.66202 -4.25 4.70135
      vertex 7.71792 -4.25 5.15469
    endloop
  endfacet
  facet normal -0.999121 0 0.0419179
    outer loop
      vertex 7.71792 -4.25 5.15469
      vertex 7.73655 -3.75 5.59874
      vertex 7.71792 -3.75 5.15469
    endloop
  endfacet
  facet normal -0.999121 0 0.0419179
    outer loop
      vertex 7.73655 -3.75 5.59874
      vertex 7.71792 -4.25 5.15469
      vertex 7.73655 -4.25 5.59874
    endloop
  endfacet
  facet normal 0 0 -1
    outer loop
      vertex 6.97167 -4.25 5.59874
      vertex 7.73655 -3.75 5.59874
      vertex 7.73655 -4.25 5.59874
    endloop
  endfacet
  facet normal -0 0 -1
    outer loop
      vertex 7.73655 -3.75 5.59874
      vertex 6.97167 -4.25 5.59874
      vertex 6.97167 -3.75 5.59874
    endloop
  endfacet
  facet normal 0.999736 0 -0.022993
    outer loop
      vertex 6.97167 -4.25 5.59874
      vertex 6.96442 -3.75 5.28351
      vertex 6.97167 -3.75 5.59874
    endloop
  endfacet
  facet normal 0.999736 0 -0.022993
    outer loop
      vertex 6.96442 -3.75 5.28351
      vertex 6.97167 -4.25 5.59874
      vertex 6.96442 -4.25 5.28351
    endloop
  endfacet
  facet normal 0 0.993726 -0.111845
    outer loop
      vertex 14.9174 -1.46537 9.42144
      vertex -1 -1.45 9.558
      vertex 14.9174 -1.45 9.558
    endloop
  endfacet
  facet normal 0 0.993726 -0.111845
    outer loop
      vertex -1 -1.45 9.558
      vertex 14.9174 -1.46537 9.42144
      vertex -1 -1.46537 9.42144
    endloop
  endfacet
  facet normal 0 0.7294 -0.684087
    outer loop
      vertex 14.9174 -1.68431 9.06302
      vertex -1 -1.58482 9.1691
      vertex 14.9174 -1.58482 9.1691
    endloop
  endfacet
  facet normal 0 0.7294 -0.684087
    outer loop
      vertex -1 -1.58482 9.1691
      vertex 14.9174 -1.68431 9.06302
      vertex -1 -1.68431 9.06302
    endloop
  endfacet
  facet normal -0 0.256332 0.966589
    outer loop
      vertex -1 -1.94385 10.2047
      vertex 14.9174 -2.09393 10.2445
      vertex 14.9174 -1.94385 10.2047
    endloop
  endfacet
  facet normal 0 0.256332 0.966589
    outer loop
      vertex 14.9174 -2.09393 10.2445
      vertex -1 -1.94385 10.2047
      vertex -1 -2.09393 10.2445
    endloop
  endfacet
  facet normal -0 0.0861778 0.99628
    outer loop
      vertex -1 -2.09393 10.2445
      vertex 14.9174 -2.25 10.258
      vertex 14.9174 -2.09393 10.2445
    endloop
  endfacet
  facet normal 0 0.0861778 0.99628
    outer loop
      vertex 14.9174 -2.25 10.258
      vertex -1 -2.09393 10.2445
      vertex -1 -2.25 10.258
    endloop
  endfacet
  facet normal 0 0.853397 0.521262
    outer loop
      vertex 14.9174 -1.5109 9.82588
      vertex -1 -1.58482 9.9469
      vertex 14.9174 -1.58482 9.9469
    endloop
  endfacet
  facet normal 0 0.853397 0.521262
    outer loop
      vertex -1 -1.58482 9.9469
      vertex 14.9174 -1.5109 9.82588
      vertex -1 -1.5109 9.82588
    endloop
  endfacet
  facet normal 0 0.853397 -0.521262
    outer loop
      vertex 14.9174 -1.58482 9.1691
      vertex -1 -1.5109 9.29012
      vertex 14.9174 -1.5109 9.29012
    endloop
  endfacet
  facet normal 0 0.853397 -0.521262
    outer loop
      vertex -1 -1.5109 9.29012
      vertex 14.9174 -1.58482 9.1691
      vertex -1 -1.58482 9.1691
    endloop
  endfacet
  facet normal 0 0.583265 -0.812282
    outer loop
      vertex -1 -1.80554 8.97597
      vertex 14.9174 -1.68431 9.06302
      vertex 14.9174 -1.80554 8.97597
    endloop
  endfacet
  facet normal 0 0.583265 -0.812282
    outer loop
      vertex 14.9174 -1.68431 9.06302
      vertex -1 -1.80554 8.97597
      vertex -1 -1.68431 9.06302
    endloop
  endfacet
  facet normal 0 0.085861 -0.996307
    outer loop
      vertex -1 -2.25 8.858
      vertex 14.9174 -2.09393 8.87145
      vertex 14.9174 -2.25 8.858
    endloop
  endfacet
  facet normal 0 0.085861 -0.996307
    outer loop
      vertex 14.9174 -2.09393 8.87145
      vertex -1 -2.25 8.858
      vertex -1 -2.09393 8.87145
    endloop
  endfacet
  facet normal 0 0.944823 -0.32758
    outer loop
      vertex 14.9174 -1.5109 9.29012
      vertex -1 -1.46537 9.42144
      vertex 14.9174 -1.46537 9.42144
    endloop
  endfacet
  facet normal 0 0.944823 -0.32758
    outer loop
      vertex -1 -1.46537 9.42144
      vertex 14.9174 -1.5109 9.29012
      vertex -1 -1.5109 9.29012
    endloop
  endfacet
  facet normal 0 0.993726 0.111845
    outer loop
      vertex 14.9174 -1.45 9.558
      vertex -1 -1.46537 9.69456
      vertex 14.9174 -1.46537 9.69456
    endloop
  endfacet
  facet normal 0 0.993726 0.111845
    outer loop
      vertex -1 -1.46537 9.69456
      vertex 14.9174 -1.45 9.558
      vertex -1 -1.45 9.558
    endloop
  endfacet
  facet normal 0 0.256512 -0.966541
    outer loop
      vertex -1 -2.09393 8.87145
      vertex 14.9174 -1.94385 8.91128
      vertex 14.9174 -2.09393 8.87145
    endloop
  endfacet
  facet normal 0 0.256512 -0.966541
    outer loop
      vertex 14.9174 -1.94385 8.91128
      vertex -1 -2.09393 8.87145
      vertex -1 -1.94385 8.91128
    endloop
  endfacet
  facet normal -0 0.583043 0.812441
    outer loop
      vertex -1 -1.68431 10.053
      vertex 14.9174 -1.80554 10.14
      vertex 14.9174 -1.68431 10.053
    endloop
  endfacet
  facet normal 0 0.583043 0.812441
    outer loop
      vertex 14.9174 -1.80554 10.14
      vertex -1 -1.68431 10.053
      vertex -1 -1.80554 10.14
    endloop
  endfacet
  facet normal 0 0.944823 0.32758
    outer loop
      vertex 14.9174 -1.46537 9.69456
      vertex -1 -1.5109 9.82588
      vertex 14.9174 -1.5109 9.82588
    endloop
  endfacet
  facet normal 0 0.944823 0.32758
    outer loop
      vertex -1 -1.5109 9.82588
      vertex 14.9174 -1.46537 9.69456
      vertex -1 -1.46537 9.69456
    endloop
  endfacet
  facet normal -0 0.423721 0.905793
    outer loop
      vertex -1 -1.80554 10.14
      vertex 14.9174 -1.94385 10.2047
      vertex 14.9174 -1.80554 10.14
    endloop
  endfacet
  facet normal 0 0.423721 0.905793
    outer loop
      vertex 14.9174 -1.94385 10.2047
      vertex -1 -1.80554 10.14
      vertex -1 -1.94385 10.2047
    endloop
  endfacet
  facet normal 0 0.729464 0.684019
    outer loop
      vertex 14.9174 -1.58482 9.9469
      vertex -1 -1.68431 10.053
      vertex 14.9174 -1.68431 10.053
    endloop
  endfacet
  facet normal 0 0.729464 0.684019
    outer loop
      vertex -1 -1.68431 10.053
      vertex 14.9174 -1.58482 9.9469
      vertex -1 -1.58482 9.9469
    endloop
  endfacet
  facet normal 0 0.423667 -0.905818
    outer loop
      vertex -1 -1.94385 8.91128
      vertex 14.9174 -1.80554 8.97597
      vertex 14.9174 -1.94385 8.91128
    endloop
  endfacet
  facet normal 0 0.423667 -0.905818
    outer loop
      vertex 14.9174 -1.80554 8.97597
      vertex -1 -1.94385 8.91128
      vertex -1 -1.80554 8.97597
    endloop
  endfacet
endsolid OpenSCAD_Model
