solid OpenSCAD_Model
  facet normal 1 0 0
    outer loop
      vertex 19.1 0 10.7
      vertex 19.1 0.799999 10.7
      vertex 19.1 0.784628 10.8561
    endloop
  endfacet
  facet normal 1 0 0
    outer loop
      vertex 19.1 0.230969 6.46067
      vertex 19.1 5.8 9.5
      vertex 19.1 0.799999 9.5
    endloop
  endfacet
  facet normal 1 0 0
    outer loop
      vertex 19.1 0 10.7
      vertex 19.1 0.784628 10.8561
      vertex 19.1 0.739103 11.0061
    endloop
  endfacet
  facet normal 1 0 0
    outer loop
      vertex 19.1 0 10.7
      vertex 19.1 0.739103 11.0061
      vertex 19.1 0.665175 11.1445
    endloop
  endfacet
  facet normal 1 0 0
    outer loop
      vertex 19.1 0 10.7
      vertex 19.1 0.665175 11.1445
      vertex 19.1 0.565685 11.2657
    endloop
  endfacet
  facet normal 1 0 0
    outer loop
      vertex 19.1 0 10.7
      vertex 19.1 0.565685 11.2657
      vertex 19.1 0.444456 11.3652
    endloop
  endfacet
  facet normal 1 0 0
    outer loop
      vertex 19.1 0 10.7
      vertex 19.1 0.444456 11.3652
      vertex 19.1 0.306147 11.4391
    endloop
  endfacet
  facet normal 1 0 0
    outer loop
      vertex 19.1 0.799999 10.7
      vertex 19.1 0 10.7
      vertex 19.1 0.799999 9.5
    endloop
  endfacet
  facet normal 1 0 0
    outer loop
      vertex 19.1 0.245195 6.31623
      vertex 19.1 5.8 9.5
      vertex 19.1 0.25 6.365
    endloop
  endfacet
  facet normal 1 0 0
    outer loop
      vertex 19.1 0.230969 6.26933
      vertex 19.1 5.8 9.5
      vertex 19.1 0.245195 6.31623
    endloop
  endfacet
  facet normal 1 0 0
    outer loop
      vertex 19.1 5.8 9.5
      vertex 19.1 0.230969 6.26933
      vertex 19.1 5.8 -2
    endloop
  endfacet
  facet normal 1 -0 0
    outer loop
      vertex 19.1 0.207867 6.22611
      vertex 19.1 5.8 -2
      vertex 19.1 0.230969 6.26933
    endloop
  endfacet
  facet normal 1 -0 0
    outer loop
      vertex 19.1 0.176776 6.18822
      vertex 19.1 5.8 -2
      vertex 19.1 0.207867 6.22611
    endloop
  endfacet
  facet normal 1 -0 0
    outer loop
      vertex 19.1 0.138892 6.15713
      vertex 19.1 5.8 -2
      vertex 19.1 0.176776 6.18822
    endloop
  endfacet
  facet normal 1 0 0
    outer loop
      vertex 19.1 0 -2
      vertex 19.1 0.138892 6.15713
      vertex 19.1 0.0956707 6.13403
    endloop
  endfacet
  facet normal 1 0 0
    outer loop
      vertex 19.1 0 -2
      vertex 19.1 0.0956707 6.13403
      vertex 19.1 0.0487719 6.1198
    endloop
  endfacet
  facet normal 1 0 0
    outer loop
      vertex 19.1 0 -2
      vertex 19.1 0.0487719 6.1198
      vertex 19.1 0 6.115
    endloop
  endfacet
  facet normal 1 0 0
    outer loop
      vertex 19.1 0.138892 6.15713
      vertex 19.1 0 -2
      vertex 19.1 5.8 -2
    endloop
  endfacet
  facet normal 1 0 0
    outer loop
      vertex 19.1 5.8 9.5
      vertex 19.1 0.245195 6.41377
      vertex 19.1 0.25 6.365
    endloop
  endfacet
  facet normal 1 0 0
    outer loop
      vertex 19.1 5.8 9.5
      vertex 19.1 0.230969 6.46067
      vertex 19.1 0.245195 6.41377
    endloop
  endfacet
  facet normal 1 0 0
    outer loop
      vertex 19.1 0 6.615
      vertex 19.1 0.799999 9.5
      vertex 19.1 0 10.7
    endloop
  endfacet
  facet normal 1 0 0
    outer loop
      vertex 19.1 0.799999 9.5
      vertex 19.1 0.207867 6.50389
      vertex 19.1 0.230969 6.46067
    endloop
  endfacet
  facet normal 1 0 0
    outer loop
      vertex 19.1 0 10.7
      vertex 19.1 0.306147 11.4391
      vertex 19.1 0.156072 11.4846
    endloop
  endfacet
  facet normal 1 0 0
    outer loop
      vertex 19.1 0.799999 9.5
      vertex 19.1 0.176776 6.54178
      vertex 19.1 0.207867 6.50389
    endloop
  endfacet
  facet normal 1 0 0
    outer loop
      vertex 19.1 0.799999 9.5
      vertex 19.1 0.138892 6.57287
      vertex 19.1 0.176776 6.54178
    endloop
  endfacet
  facet normal 1 0 0
    outer loop
      vertex 19.1 0.799999 9.5
      vertex 19.1 0.0956707 6.59597
      vertex 19.1 0.138892 6.57287
    endloop
  endfacet
  facet normal 1 0 0
    outer loop
      vertex 19.1 0 10.7
      vertex 19.1 0.156072 11.4846
      vertex 19.1 0 11.5
    endloop
  endfacet
  facet normal 1 0 0
    outer loop
      vertex 19.1 0.799999 9.5
      vertex 19.1 0.0487719 6.6102
      vertex 19.1 0.0956707 6.59597
    endloop
  endfacet
  facet normal 1 0 0
    outer loop
      vertex 19.1 0.799999 9.5
      vertex 19.1 0 6.615
      vertex 19.1 0.0487719 6.6102
    endloop
  endfacet
  facet normal -0 0 1
    outer loop
      vertex -1 5.8 9.5
      vertex 0 0.799999 9.5
      vertex 0 5.8 9.5
    endloop
  endfacet
  facet normal 0 0 1
    outer loop
      vertex 0 0.799999 9.5
      vertex -1 5.8 9.5
      vertex -1 0.799999 9.5
    endloop
  endfacet
  facet normal -0 0 1
    outer loop
      vertex 18.1 5.8 9.5
      vertex 19.1 0.799999 9.5
      vertex 19.1 5.8 9.5
    endloop
  endfacet
  facet normal 0 0 1
    outer loop
      vertex 19.1 0.799999 9.5
      vertex 18.1 5.8 9.5
      vertex 18.1 0.799999 9.5
    endloop
  endfacet
  facet normal 0 0 -1
    outer loop
      vertex 14.9174 -4.25 -2
      vertex -1 -4.25 -2
      vertex 14.9174 0 -2
    endloop
  endfacet
  facet normal 0 0 -1
    outer loop
      vertex 14.9174 0 -2
      vertex 19.1 5.8 -2
      vertex 19.1 0 -2
    endloop
  endfacet
  facet normal 0 0 -1
    outer loop
      vertex -1 5.8 -2
      vertex 14.9174 0 -2
      vertex -1 -4.25 -2
    endloop
  endfacet
  facet normal 0 0 -1
    outer loop
      vertex 14.9174 0 -2
      vertex -1 5.8 -2
      vertex 19.1 5.8 -2
    endloop
  endfacet
  facet normal -1 0 0
    outer loop
      vertex -1 0 6.615
      vertex -1 5.8 9.5
      vertex -1 5.8 -2
    endloop
  endfacet
  facet normal -1 0 0
    outer loop
      vertex -1 0 10.7
      vertex -1 0.799999 10.7
      vertex -1 0.799999 9.5
    endloop
  endfacet
  facet normal -1 0 0
    outer loop
      vertex -1 0.799999 10.7
      vertex -1 0 10.7
      vertex -1 0.784628 10.8561
    endloop
  endfacet
  facet normal -1 -0 0
    outer loop
      vertex -1 0.784628 10.8561
      vertex -1 0 10.7
      vertex -1 0.739103 11.0061
    endloop
  endfacet
  facet normal -1 -0 0
    outer loop
      vertex -1 0.739103 11.0061
      vertex -1 0 10.7
      vertex -1 0.665175 11.1445
    endloop
  endfacet
  facet normal -1 -0 0
    outer loop
      vertex -1 0.665175 11.1445
      vertex -1 0 10.7
      vertex -1 0.565685 11.2657
    endloop
  endfacet
  facet normal -1 -0 0
    outer loop
      vertex -1 0.565685 11.2657
      vertex -1 0 10.7
      vertex -1 0.444456 11.3652
    endloop
  endfacet
  facet normal -1 -0 0
    outer loop
      vertex -1 0.444456 11.3652
      vertex -1 0 10.7
      vertex -1 0.306147 11.4391
    endloop
  endfacet
  facet normal -1 0 0
    outer loop
      vertex -1 0 10.7
      vertex -1 0.799999 9.5
      vertex -1 0 6.615
    endloop
  endfacet
  facet normal -1 -0 0
    outer loop
      vertex -1 5.8 9.5
      vertex -1 0 6.615
      vertex -1 0.799999 9.5
    endloop
  endfacet
  facet normal -1 0 0
    outer loop
      vertex -1 -4.25 -2
      vertex -1 0 6.615
      vertex -1 5.8 -2
    endloop
  endfacet
  facet normal -1 0 0
    outer loop
      vertex -1 -4.25 12.02
      vertex -1 -2.25 7.715
      vertex -1 -2.25 6.615
    endloop
  endfacet
  facet normal -1 0 0
    outer loop
      vertex -1 -2.25 7.715
      vertex -1 -4.25 12.02
      vertex -1 -2.25 9.115
    endloop
  endfacet
  facet normal -1 -0 0
    outer loop
      vertex -1 0 6.615
      vertex -1 -4.25 -2
      vertex -1 -2.25 6.615
    endloop
  endfacet
  facet normal -1 0 0
    outer loop
      vertex -1 -4.25 12.02
      vertex -1 -2.25 6.615
      vertex -1 -4.25 -2
    endloop
  endfacet
  facet normal -1 0 0
    outer loop
      vertex -1 -2.25 9.115
      vertex -1 -4.25 12.02
      vertex -1 -2.25 12.02
    endloop
  endfacet
  facet normal -1 -0 0
    outer loop
      vertex -1 0.306147 11.4391
      vertex -1 0 10.7
      vertex -1 0.156072 11.4846
    endloop
  endfacet
  facet normal -1 0 0
    outer loop
      vertex -1 0 11.5
      vertex -1 0.156072 11.4846
      vertex -1 0 10.7
    endloop
  endfacet
  facet normal -1 0 0
    outer loop
      vertex -1 -1.46537 8.27844
      vertex -1 -1.46537 8.55156
      vertex -1 -1.45 8.415
    endloop
  endfacet
  facet normal -1 0 0
    outer loop
      vertex -1 -1.5109 8.14712
      vertex -1 -1.46537 8.55156
      vertex -1 -1.46537 8.27844
    endloop
  endfacet
  facet normal -1 0 0
    outer loop
      vertex -1 -1.5109 8.14712
      vertex -1 -1.5109 8.68288
      vertex -1 -1.46537 8.55156
    endloop
  endfacet
  facet normal -1 0 0
    outer loop
      vertex -1 -1.58482 8.0261
      vertex -1 -1.5109 8.68288
      vertex -1 -1.5109 8.14712
    endloop
  endfacet
  facet normal -1 0 0
    outer loop
      vertex -1 -1.58482 8.0261
      vertex -1 -1.58482 8.8039
      vertex -1 -1.5109 8.68288
    endloop
  endfacet
  facet normal -1 0 0
    outer loop
      vertex -1 -1.68431 7.92002
      vertex -1 -1.58482 8.8039
      vertex -1 -1.58482 8.0261
    endloop
  endfacet
  facet normal -1 0 0
    outer loop
      vertex -1 -1.68431 7.92002
      vertex -1 -1.68431 8.90997
      vertex -1 -1.58482 8.8039
    endloop
  endfacet
  facet normal -1 0 0
    outer loop
      vertex -1 -1.80554 7.83297
      vertex -1 -1.68431 8.90997
      vertex -1 -1.68431 7.92002
    endloop
  endfacet
  facet normal -1 0 0
    outer loop
      vertex -1 -1.80554 7.83297
      vertex -1 -1.80554 8.99703
      vertex -1 -1.68431 8.90997
    endloop
  endfacet
  facet normal -1 0 0
    outer loop
      vertex -1 -1.94385 7.76828
      vertex -1 -1.80554 8.99703
      vertex -1 -1.80554 7.83297
    endloop
  endfacet
  facet normal -1 0 0
    outer loop
      vertex -1 -1.94385 7.76828
      vertex -1 -1.94385 9.06172
      vertex -1 -1.80554 8.99703
    endloop
  endfacet
  facet normal -1 0 0
    outer loop
      vertex -1 -2.09393 7.72845
      vertex -1 -1.94385 9.06172
      vertex -1 -1.94385 7.76828
    endloop
  endfacet
  facet normal -1 0 0
    outer loop
      vertex -1 -2.09393 7.72845
      vertex -1 -2.09393 9.10155
      vertex -1 -1.94385 9.06172
    endloop
  endfacet
  facet normal -1 0 0
    outer loop
      vertex -1 -2.25 7.715
      vertex -1 -2.09393 9.10155
      vertex -1 -2.09393 7.72845
    endloop
  endfacet
  facet normal -1 -0 0
    outer loop
      vertex -1 -2.09393 9.10155
      vertex -1 -2.25 7.715
      vertex -1 -2.25 9.115
    endloop
  endfacet
  facet normal 0 1 0
    outer loop
      vertex 19.1 5.8 9.5
      vertex 18.1 5.8 0
      vertex 18.1 5.8 9.5
    endloop
  endfacet
  facet normal 0 1 0
    outer loop
      vertex 18.1 5.8 0
      vertex 19.1 5.8 -2
      vertex 0 5.8 0
    endloop
  endfacet
  facet normal 0 1 -0
    outer loop
      vertex 19.1 5.8 -2
      vertex 18.1 5.8 0
      vertex 19.1 5.8 9.5
    endloop
  endfacet
  facet normal 0 1 -0
    outer loop
      vertex 0 5.8 0
      vertex -1 5.8 9.5
      vertex 0 5.8 9.5
    endloop
  endfacet
  facet normal 0 1 0
    outer loop
      vertex 0 5.8 0
      vertex -1 5.8 -2
      vertex -1 5.8 9.5
    endloop
  endfacet
  facet normal 0 1 0
    outer loop
      vertex -1 5.8 -2
      vertex 0 5.8 0
      vertex 19.1 5.8 -2
    endloop
  endfacet
  facet normal 0 0 0
    outer loop
      vertex 14.9174 0 -2
      vertex 14.9174 0 6.115
      vertex 14.9174 0 6.615
    endloop
  endfacet
  facet normal 0 -1 0
    outer loop
      vertex 14.9174 0 -2
      vertex 19.1 0 6.115
      vertex 14.9174 0 6.115
    endloop
  endfacet
  facet normal 0 -1 -0
    outer loop
      vertex 19.1 0 6.115
      vertex 14.9174 0 -2
      vertex 19.1 0 -2
    endloop
  endfacet
  facet normal 0 -1 0
    outer loop
      vertex 14.9174 0 6.615
      vertex -1 0 10.7
      vertex -1 0 6.615
    endloop
  endfacet
  facet normal 0 -1 0
    outer loop
      vertex -1 0 10.7
      vertex 14.9174 0 6.615
      vertex 19.1 0 10.7
    endloop
  endfacet
  facet normal 0 -1 -0
    outer loop
      vertex 19.1 0 10.7
      vertex 14.9174 0 6.615
      vertex 19.1 0 6.615
    endloop
  endfacet
  facet normal -1 0 0
    outer loop
      vertex 18.1 0.799999 0
      vertex 18.1 5.8 9.5
      vertex 18.1 5.8 0
    endloop
  endfacet
  facet normal -1 -0 0
    outer loop
      vertex 18.1 5.8 9.5
      vertex 18.1 0.799999 0
      vertex 18.1 0.799999 9.5
    endloop
  endfacet
  facet normal -0 0 1
    outer loop
      vertex 0 5.8 0
      vertex 18.1 0.799999 0
      vertex 18.1 5.8 0
    endloop
  endfacet
  facet normal 0 0 1
    outer loop
      vertex 18.1 0.799999 0
      vertex 0 5.8 0
      vertex 0 0.799999 0
    endloop
  endfacet
  facet normal 1 -0 0
    outer loop
      vertex 0 0.799999 9.5
      vertex 0 5.8 0
      vertex 0 5.8 9.5
    endloop
  endfacet
  facet normal 1 0 0
    outer loop
      vertex 0 5.8 0
      vertex 0 0.799999 9.5
      vertex 0 0.799999 0
    endloop
  endfacet
  facet normal 0 1 -0
    outer loop
      vertex 18.1 0.799999 0
      vertex 0 0.799999 9.5
      vertex 18.1 0.799999 9.5
    endloop
  endfacet
  facet normal 0 1 0
    outer loop
      vertex 0 0.799999 9.5
      vertex 18.1 0.799999 0
      vertex 0 0.799999 0
    endloop
  endfacet
  facet normal -0 0 1
    outer loop
      vertex -1 0 11.5
      vertex 19.1 -9.68247e-06 11.5
      vertex 19.1 0 11.5
    endloop
  endfacet
  facet normal 0 0 1
    outer loop
      vertex 19.1 -9.68247e-06 11.5
      vertex -1 0 11.5
      vertex -1 -9.68247e-06 11.5
    endloop
  endfacet
  facet normal 0 0.772936 0.634484
    outer loop
      vertex 19.1 0.665175 11.1445
      vertex -1 0.565685 11.2657
      vertex 19.1 0.565685 11.2657
    endloop
  endfacet
  facet normal 0 0.772936 0.634484
    outer loop
      vertex -1 0.565685 11.2657
      vertex 19.1 0.665175 11.1445
      vertex -1 0.665175 11.1445
    endloop
  endfacet
  facet normal 0 0.882049 0.471157
    outer loop
      vertex 19.1 0.739103 11.0061
      vertex -1 0.665175 11.1445
      vertex 19.1 0.665175 11.1445
    endloop
  endfacet
  facet normal 0 0.882049 0.471157
    outer loop
      vertex -1 0.665175 11.1445
      vertex 19.1 0.739103 11.0061
      vertex -1 0.739103 11.0061
    endloop
  endfacet
  facet normal -0 0.0981955 0.995167
    outer loop
      vertex -1 0.156072 11.4846
      vertex 19.1 0 11.5
      vertex 19.1 0.156072 11.4846
    endloop
  endfacet
  facet normal 0 0.0981955 0.995167
    outer loop
      vertex 19.1 0 11.5
      vertex -1 0.156072 11.4846
      vertex -1 0 11.5
    endloop
  endfacet
  facet normal -0 0.471259 0.881995
    outer loop
      vertex -1 0.444456 11.3652
      vertex 19.1 0.306147 11.4391
      vertex 19.1 0.444456 11.3652
    endloop
  endfacet
  facet normal 0 0.471259 0.881995
    outer loop
      vertex 19.1 0.306147 11.4391
      vertex -1 0.444456 11.3652
      vertex -1 0.306147 11.4391
    endloop
  endfacet
  facet normal 0 0.9569 0.290419
    outer loop
      vertex 19.1 0.784628 10.8561
      vertex -1 0.739103 11.0061
      vertex 19.1 0.739103 11.0061
    endloop
  endfacet
  facet normal 0 0.9569 0.290419
    outer loop
      vertex -1 0.739103 11.0061
      vertex 19.1 0.784628 10.8561
      vertex -1 0.784628 10.8561
    endloop
  endfacet
  facet normal -0 0.634431 0.772979
    outer loop
      vertex -1 0.565685 11.2657
      vertex 19.1 0.444456 11.3652
      vertex 19.1 0.565685 11.2657
    endloop
  endfacet
  facet normal 0 0.634431 0.772979
    outer loop
      vertex 19.1 0.444456 11.3652
      vertex -1 0.565685 11.2657
      vertex -1 0.444456 11.3652
    endloop
  endfacet
  facet normal -0 0.29014 0.956984
    outer loop
      vertex -1 0.306147 11.4391
      vertex 19.1 0.156072 11.4846
      vertex 19.1 0.306147 11.4391
    endloop
  endfacet
  facet normal 0 0.29014 0.956984
    outer loop
      vertex 19.1 0.156072 11.4846
      vertex -1 0.306147 11.4391
      vertex -1 0.156072 11.4846
    endloop
  endfacet
  facet normal 0 0.995187 0.097995
    outer loop
      vertex 19.1 0.799999 10.7
      vertex -1 0.784628 10.8561
      vertex 19.1 0.784628 10.8561
    endloop
  endfacet
  facet normal 0 0.995187 0.097995
    outer loop
      vertex -1 0.784628 10.8561
      vertex 19.1 0.799999 10.7
      vertex -1 0.799999 10.7
    endloop
  endfacet
  facet normal 0 0 -1
    outer loop
      vertex -1 -9.68247e-06 11.5
      vertex 19.1 0 11.5
      vertex 19.1 -9.68247e-06 11.5
    endloop
  endfacet
  facet normal -0 0 -1
    outer loop
      vertex 19.1 0 11.5
      vertex -1 -9.68247e-06 11.5
      vertex -1 0 11.5
    endloop
  endfacet
  facet normal 0 -1 0
    outer loop
      vertex -1 0 10.7
      vertex 19.1 0 11.5
      vertex -1 0 11.5
    endloop
  endfacet
  facet normal 0 -1 -0
    outer loop
      vertex 19.1 0 11.5
      vertex -1 0 10.7
      vertex 19.1 0 10.7
    endloop
  endfacet
  facet normal 0 1 0
    outer loop
      vertex 18.1 0.799999 9.5
      vertex 19.1 0.799999 10.7
      vertex 19.1 0.799999 9.5
    endloop
  endfacet
  facet normal 0 1 0
    outer loop
      vertex 19.1 0.799999 10.7
      vertex 18.1 0.799999 9.5
      vertex -1 0.799999 10.7
    endloop
  endfacet
  facet normal 0 1 -0
    outer loop
      vertex 0 0.799999 9.5
      vertex -1 0.799999 10.7
      vertex 18.1 0.799999 9.5
    endloop
  endfacet
  facet normal 0 1 0
    outer loop
      vertex -1 0.799999 10.7
      vertex 0 0.799999 9.5
      vertex -1 0.799999 9.5
    endloop
  endfacet
  facet normal 0 -0.634386 -0.773016
    outer loop
      vertex 14.9174 0.138892 6.57287
      vertex 19.1 0.176776 6.54178
      vertex 19.1 0.138892 6.57287
    endloop
  endfacet
  facet normal -0 -0.634386 -0.773016
    outer loop
      vertex 19.1 0.176776 6.54178
      vertex 14.9174 0.138892 6.57287
      vertex 14.9174 0.176776 6.54178
    endloop
  endfacet
  facet normal 0 -0.471361 0.88194
    outer loop
      vertex 14.9174 0.138892 6.15713
      vertex 19.1 0.0956707 6.13403
      vertex 19.1 0.138892 6.15713
    endloop
  endfacet
  facet normal 0 -0.471361 0.88194
    outer loop
      vertex 19.1 0.0956707 6.13403
      vertex 14.9174 0.138892 6.15713
      vertex 14.9174 0.0956707 6.13403
    endloop
  endfacet
  facet normal 0 -0.0979441 0.995192
    outer loop
      vertex 14.9174 0.0487719 6.1198
      vertex 19.1 0 6.115
      vertex 19.1 0.0487719 6.1198
    endloop
  endfacet
  facet normal 0 -0.0979441 0.995192
    outer loop
      vertex 19.1 0 6.115
      vertex 14.9174 0.0487719 6.1198
      vertex 14.9174 0 6.115
    endloop
  endfacet
  facet normal 0 -0.956946 -0.290267
    outer loop
      vertex 14.9174 0.245195 6.41377
      vertex 19.1 0.230969 6.46067
      vertex 14.9174 0.230969 6.46067
    endloop
  endfacet
  facet normal 0 -0.956946 -0.290267
    outer loop
      vertex 19.1 0.230969 6.46067
      vertex 14.9174 0.245195 6.41377
      vertex 19.1 0.245195 6.41377
    endloop
  endfacet
  facet normal 0 -0.290348 0.956921
    outer loop
      vertex 14.9174 0.0956707 6.13403
      vertex 19.1 0.0487719 6.1198
      vertex 19.1 0.0956707 6.13403
    endloop
  endfacet
  facet normal 0 -0.290348 0.956921
    outer loop
      vertex 19.1 0.0487719 6.1198
      vertex 14.9174 0.0956707 6.13403
      vertex 14.9174 0.0487719 6.1198
    endloop
  endfacet
  facet normal 0 -0.956946 0.290267
    outer loop
      vertex 14.9174 0.230969 6.26933
      vertex 19.1 0.245195 6.31623
      vertex 14.9174 0.245195 6.31623
    endloop
  endfacet
  facet normal 0 -0.956946 0.290267
    outer loop
      vertex 19.1 0.245195 6.31623
      vertex 14.9174 0.230969 6.26933
      vertex 19.1 0.230969 6.26933
    endloop
  endfacet
  facet normal 0 -0.0979441 -0.995192
    outer loop
      vertex 14.9174 0 6.615
      vertex 19.1 0.0487719 6.6102
      vertex 19.1 0 6.615
    endloop
  endfacet
  facet normal -0 -0.0979441 -0.995192
    outer loop
      vertex 19.1 0.0487719 6.6102
      vertex 14.9174 0 6.615
      vertex 14.9174 0.0487719 6.6102
    endloop
  endfacet
  facet normal 0 -0.995182 0.098049
    outer loop
      vertex 14.9174 0.245195 6.31623
      vertex 19.1 0.25 6.365
      vertex 14.9174 0.25 6.365
    endloop
  endfacet
  facet normal 0 -0.995182 0.098049
    outer loop
      vertex 19.1 0.25 6.365
      vertex 14.9174 0.245195 6.31623
      vertex 19.1 0.245195 6.31623
    endloop
  endfacet
  facet normal 0 -0.995182 -0.098049
    outer loop
      vertex 14.9174 0.25 6.365
      vertex 19.1 0.245195 6.41377
      vertex 14.9174 0.245195 6.41377
    endloop
  endfacet
  facet normal 0 -0.995182 -0.098049
    outer loop
      vertex 19.1 0.245195 6.41377
      vertex 14.9174 0.25 6.365
      vertex 19.1 0.25 6.365
    endloop
  endfacet
  facet normal 0 -0.773056 0.634338
    outer loop
      vertex 14.9174 0.176776 6.18822
      vertex 19.1 0.207867 6.22611
      vertex 14.9174 0.207867 6.22611
    endloop
  endfacet
  facet normal 0 -0.773056 0.634338
    outer loop
      vertex 19.1 0.207867 6.22611
      vertex 14.9174 0.176776 6.18822
      vertex 19.1 0.176776 6.18822
    endloop
  endfacet
  facet normal 0 -0.634386 0.773016
    outer loop
      vertex 14.9174 0.176776 6.18822
      vertex 19.1 0.138892 6.15713
      vertex 19.1 0.176776 6.18822
    endloop
  endfacet
  facet normal 0 -0.634386 0.773016
    outer loop
      vertex 19.1 0.138892 6.15713
      vertex 14.9174 0.176776 6.18822
      vertex 14.9174 0.138892 6.15713
    endloop
  endfacet
  facet normal 0 -0.881918 0.471404
    outer loop
      vertex 14.9174 0.207867 6.22611
      vertex 19.1 0.230969 6.26933
      vertex 14.9174 0.230969 6.26933
    endloop
  endfacet
  facet normal 0 -0.881918 0.471404
    outer loop
      vertex 19.1 0.230969 6.26933
      vertex 14.9174 0.207867 6.22611
      vertex 19.1 0.207867 6.22611
    endloop
  endfacet
  facet normal 0 -0.773056 -0.634338
    outer loop
      vertex 14.9174 0.207867 6.50389
      vertex 19.1 0.176776 6.54178
      vertex 14.9174 0.176776 6.54178
    endloop
  endfacet
  facet normal 0 -0.773056 -0.634338
    outer loop
      vertex 19.1 0.176776 6.54178
      vertex 14.9174 0.207867 6.50389
      vertex 19.1 0.207867 6.50389
    endloop
  endfacet
  facet normal 0 -0.881918 -0.471404
    outer loop
      vertex 14.9174 0.230969 6.46067
      vertex 19.1 0.207867 6.50389
      vertex 14.9174 0.207867 6.50389
    endloop
  endfacet
  facet normal 0 -0.881918 -0.471404
    outer loop
      vertex 19.1 0.207867 6.50389
      vertex 14.9174 0.230969 6.46067
      vertex 19.1 0.230969 6.46067
    endloop
  endfacet
  facet normal 1 0 0
    outer loop
      vertex 14.9174 0.245195 6.41377
      vertex 14.9174 0.245195 6.31623
      vertex 14.9174 0.25 6.365
    endloop
  endfacet
  facet normal 1 0 0
    outer loop
      vertex 14.9174 0.230969 6.46067
      vertex 14.9174 0.245195 6.31623
      vertex 14.9174 0.245195 6.41377
    endloop
  endfacet
  facet normal 1 0 0
    outer loop
      vertex 14.9174 0.230969 6.46067
      vertex 14.9174 0.230969 6.26933
      vertex 14.9174 0.245195 6.31623
    endloop
  endfacet
  facet normal 1 0 0
    outer loop
      vertex 14.9174 0.207867 6.50389
      vertex 14.9174 0.230969 6.26933
      vertex 14.9174 0.230969 6.46067
    endloop
  endfacet
  facet normal 1 0 0
    outer loop
      vertex 14.9174 0.207867 6.50389
      vertex 14.9174 0.207867 6.22611
      vertex 14.9174 0.230969 6.26933
    endloop
  endfacet
  facet normal 1 0 0
    outer loop
      vertex 14.9174 0.176776 6.54178
      vertex 14.9174 0.207867 6.22611
      vertex 14.9174 0.207867 6.50389
    endloop
  endfacet
  facet normal 1 0 0
    outer loop
      vertex 14.9174 0.176776 6.54178
      vertex 14.9174 0.176776 6.18822
      vertex 14.9174 0.207867 6.22611
    endloop
  endfacet
  facet normal 1 0 0
    outer loop
      vertex 14.9174 0.138892 6.57287
      vertex 14.9174 0.176776 6.18822
      vertex 14.9174 0.176776 6.54178
    endloop
  endfacet
  facet normal 1 0 0
    outer loop
      vertex 14.9174 0.138892 6.57287
      vertex 14.9174 0.138892 6.15713
      vertex 14.9174 0.176776 6.18822
    endloop
  endfacet
  facet normal 1 0 0
    outer loop
      vertex 14.9174 0.0956707 6.59597
      vertex 14.9174 0.138892 6.15713
      vertex 14.9174 0.138892 6.57287
    endloop
  endfacet
  facet normal 1 0 0
    outer loop
      vertex 14.9174 0.0956707 6.59597
      vertex 14.9174 0.0956707 6.13403
      vertex 14.9174 0.138892 6.15713
    endloop
  endfacet
  facet normal 1 0 0
    outer loop
      vertex 14.9174 0.0487719 6.6102
      vertex 14.9174 0.0956707 6.13403
      vertex 14.9174 0.0956707 6.59597
    endloop
  endfacet
  facet normal 1 0 0
    outer loop
      vertex 14.9174 0.0487719 6.6102
      vertex 14.9174 0.0487719 6.1198
      vertex 14.9174 0.0956707 6.13403
    endloop
  endfacet
  facet normal 1 0 0
    outer loop
      vertex 14.9174 0 6.615
      vertex 14.9174 0.0487719 6.1198
      vertex 14.9174 0.0487719 6.6102
    endloop
  endfacet
  facet normal 1 0 0
    outer loop
      vertex 14.9174 0.0487719 6.1198
      vertex 14.9174 0 6.615
      vertex 14.9174 0 6.115
    endloop
  endfacet
  facet normal 0 -0.290348 -0.956921
    outer loop
      vertex 14.9174 0.0487719 6.6102
      vertex 19.1 0.0956707 6.59597
      vertex 19.1 0.0487719 6.6102
    endloop
  endfacet
  facet normal -0 -0.290348 -0.956921
    outer loop
      vertex 19.1 0.0956707 6.59597
      vertex 14.9174 0.0487719 6.6102
      vertex 14.9174 0.0956707 6.59597
    endloop
  endfacet
  facet normal 0 -0.471361 -0.88194
    outer loop
      vertex 14.9174 0.0956707 6.59597
      vertex 19.1 0.138892 6.57287
      vertex 19.1 0.0956707 6.59597
    endloop
  endfacet
  facet normal -0 -0.471361 -0.88194
    outer loop
      vertex 19.1 0.138892 6.57287
      vertex 14.9174 0.0956707 6.59597
      vertex 14.9174 0.138892 6.57287
    endloop
  endfacet
  facet normal 1 -0 0
    outer loop
      vertex 14.9174 -4.25 12.02
      vertex 14.9174 -2.25 9.115
      vertex 14.9174 -2.25 12.02
    endloop
  endfacet
  facet normal 1 0 0
    outer loop
      vertex 14.9174 -2.25 9.115
      vertex 14.9174 -4.25 12.02
      vertex 14.9174 -2.25 7.715
    endloop
  endfacet
  facet normal 1 0 0
    outer loop
      vertex 14.9174 -2.25 7.715
      vertex 14.9174 -4.25 12.02
      vertex 14.9174 -2.25 6.615
    endloop
  endfacet
  facet normal 1 0 0
    outer loop
      vertex 14.9174 -1.46537 8.55156
      vertex 14.9174 -1.46537 8.27844
      vertex 14.9174 -1.45 8.415
    endloop
  endfacet
  facet normal 1 0 0
    outer loop
      vertex 14.9174 -1.5109 8.68288
      vertex 14.9174 -1.46537 8.27844
      vertex 14.9174 -1.46537 8.55156
    endloop
  endfacet
  facet normal 1 0 0
    outer loop
      vertex 14.9174 -1.5109 8.68288
      vertex 14.9174 -1.5109 8.14712
      vertex 14.9174 -1.46537 8.27844
    endloop
  endfacet
  facet normal 1 0 0
    outer loop
      vertex 14.9174 -1.58482 8.8039
      vertex 14.9174 -1.5109 8.14712
      vertex 14.9174 -1.5109 8.68288
    endloop
  endfacet
  facet normal 1 0 0
    outer loop
      vertex 14.9174 -1.58482 8.8039
      vertex 14.9174 -1.58482 8.0261
      vertex 14.9174 -1.5109 8.14712
    endloop
  endfacet
  facet normal 1 0 0
    outer loop
      vertex 14.9174 -1.68431 8.90997
      vertex 14.9174 -1.58482 8.0261
      vertex 14.9174 -1.58482 8.8039
    endloop
  endfacet
  facet normal 1 0 0
    outer loop
      vertex 14.9174 -1.68431 8.90997
      vertex 14.9174 -1.68431 7.92002
      vertex 14.9174 -1.58482 8.0261
    endloop
  endfacet
  facet normal 1 0 0
    outer loop
      vertex 14.9174 -1.80554 8.99703
      vertex 14.9174 -1.68431 7.92002
      vertex 14.9174 -1.68431 8.90997
    endloop
  endfacet
  facet normal 1 0 0
    outer loop
      vertex 14.9174 -1.80554 8.99703
      vertex 14.9174 -1.80554 7.83297
      vertex 14.9174 -1.68431 7.92002
    endloop
  endfacet
  facet normal 1 0 0
    outer loop
      vertex 14.9174 -1.94385 9.06172
      vertex 14.9174 -1.80554 7.83297
      vertex 14.9174 -1.80554 8.99703
    endloop
  endfacet
  facet normal 1 0 0
    outer loop
      vertex 14.9174 -1.94385 9.06172
      vertex 14.9174 -1.94385 7.76828
      vertex 14.9174 -1.80554 7.83297
    endloop
  endfacet
  facet normal 1 0 0
    outer loop
      vertex 14.9174 -2.09393 9.10155
      vertex 14.9174 -1.94385 7.76828
      vertex 14.9174 -1.94385 9.06172
    endloop
  endfacet
  facet normal 1 0 0
    outer loop
      vertex 14.9174 -2.09393 9.10155
      vertex 14.9174 -2.09393 7.72845
      vertex 14.9174 -1.94385 7.76828
    endloop
  endfacet
  facet normal 1 0 0
    outer loop
      vertex 14.9174 -2.25 9.115
      vertex 14.9174 -2.09393 7.72845
      vertex 14.9174 -2.09393 9.10155
    endloop
  endfacet
  facet normal 1 0 0
    outer loop
      vertex 14.9174 -2.09393 7.72845
      vertex 14.9174 -2.25 9.115
      vertex 14.9174 -2.25 7.715
    endloop
  endfacet
  facet normal 1 -0 0
    outer loop
      vertex 14.9174 -2.25 6.615
      vertex 14.9174 0 -2
      vertex 14.9174 0 6.615
    endloop
  endfacet
  facet normal 1 0 0
    outer loop
      vertex 14.9174 -4.25 -2
      vertex 14.9174 -2.25 6.615
      vertex 14.9174 -4.25 12.02
    endloop
  endfacet
  facet normal 1 0 0
    outer loop
      vertex 14.9174 -2.25 6.615
      vertex 14.9174 -4.25 -2
      vertex 14.9174 0 -2
    endloop
  endfacet
  facet normal 0 0 1
    outer loop
      vertex 14.9174 -2.25 12.02
      vertex 9.55 -3.75 12.02
      vertex 14.9174 -4.25 12.02
    endloop
  endfacet
  facet normal 0 0 1
    outer loop
      vertex 14.9174 -2.25 12.02
      vertex 8.55 -3.75 12.02
      vertex 9.55 -3.75 12.02
    endloop
  endfacet
  facet normal -0 0 1
    outer loop
      vertex -1 -2.25 12.02
      vertex 8.55 -3.75 12.02
      vertex 14.9174 -2.25 12.02
    endloop
  endfacet
  facet normal 0 0 1
    outer loop
      vertex -1 -4.25 12.02
      vertex 8.55 -3.75 12.02
      vertex -1 -2.25 12.02
    endloop
  endfacet
  facet normal 0 0 1
    outer loop
      vertex 8.55 -3.75 12.02
      vertex -1 -4.25 12.02
      vertex 8.55 -4.25 12.02
    endloop
  endfacet
  facet normal 0 0 1
    outer loop
      vertex 14.9174 -4.25 12.02
      vertex 9.55 -3.75 12.02
      vertex 9.55 -4.25 12.02
    endloop
  endfacet
  facet normal 0 -1 0
    outer loop
      vertex -1 -4.25 12.02
      vertex 8.55 -4.25 9.52
      vertex 8.55 -4.25 12.02
    endloop
  endfacet
  facet normal 0 -1 0
    outer loop
      vertex 6.32879 -4.25 5.59874
      vertex 8.55 -4.25 9.52
      vertex 5.6371 -4.25 5.59874
    endloop
  endfacet
  facet normal 0 -1 0
    outer loop
      vertex -1 -4.25 12.02
      vertex 5.6371 -4.25 5.59874
      vertex 8.55 -4.25 9.52
    endloop
  endfacet
  facet normal 0 -1 0
    outer loop
      vertex -1 -4.25 12.02
      vertex 4.83149 -4.25 4.30083
      vertex 5.6371 -4.25 5.59874
    endloop
  endfacet
  facet normal 0 -1 0
    outer loop
      vertex -1 -4.25 -2
      vertex 4.83149 -4.25 4.30083
      vertex -1 -4.25 12.02
    endloop
  endfacet
  facet normal 0 -1 0
    outer loop
      vertex 4.83149 -4.25 3.72302
      vertex 5.6371 -4.25 -0.134125
      vertex 5.6371 -4.25 3.72302
    endloop
  endfacet
  facet normal 0 -1 -0
    outer loop
      vertex 4.83149 -4.25 4.30083
      vertex -1 -4.25 -2
      vertex 4.83149 -4.25 3.72302
    endloop
  endfacet
  facet normal 0 -1 -0
    outer loop
      vertex 5.6371 -4.25 -0.134125
      vertex -1 -4.25 -2
      vertex 6.40613 -4.25 -0.134125
    endloop
  endfacet
  facet normal 0 -1 -0
    outer loop
      vertex 4.83149 -4.25 3.72302
      vertex -1 -4.25 -2
      vertex 5.6371 -4.25 -0.134125
    endloop
  endfacet
  facet normal 0 -1 0
    outer loop
      vertex 9.55 -4.25 9.52
      vertex 14.9174 -4.25 12.02
      vertex 9.55 -4.25 12.02
    endloop
  endfacet
  facet normal 0 -1 0
    outer loop
      vertex 9.03045 -4.25 4.30083
      vertex 8.55 -4.25 9.52
      vertex 6.32879 -4.25 5.59874
    endloop
  endfacet
  facet normal 0 -1 0
    outer loop
      vertex 8.55 -4.25 9.52
      vertex 9.03045 -4.25 4.30083
      vertex 9.55 -4.25 9.52
    endloop
  endfacet
  facet normal 0 -1 0
    outer loop
      vertex 9.03045 -4.25 4.30083
      vertex 6.32879 -4.25 5.59874
      vertex 6.32879 -4.25 4.30083
    endloop
  endfacet
  facet normal 0 -1 -0
    outer loop
      vertex 9.55 -4.25 9.52
      vertex 9.03045 -4.25 4.30083
      vertex 14.9174 -4.25 12.02
    endloop
  endfacet
  facet normal 0 -1 0
    outer loop
      vertex 14.9174 -4.25 -2
      vertex 9.03045 -4.25 4.30083
      vertex 9.03045 -4.25 3.73119
    endloop
  endfacet
  facet normal 0 -1 0
    outer loop
      vertex 14.9174 -4.25 -2
      vertex 9.03045 -4.25 3.73119
      vertex 6.40613 -4.25 -0.134125
    endloop
  endfacet
  facet normal 0 -1 0
    outer loop
      vertex 9.03045 -4.25 4.30083
      vertex 14.9174 -4.25 -2
      vertex 14.9174 -4.25 12.02
    endloop
  endfacet
  facet normal 0 -1 0
    outer loop
      vertex 14.9174 -4.25 -2
      vertex 6.40613 -4.25 -0.134125
      vertex -1 -4.25 -2
    endloop
  endfacet
  facet normal 0 -1 -0
    outer loop
      vertex 5.6371 -4.25 5.59874
      vertex 4.83149 -4.25 4.30083
      vertex 5.6371 -4.25 4.30083
    endloop
  endfacet
  facet normal 0 -1 0
    outer loop
      vertex 6.32879 -4.25 3.72302
      vertex 8.28994 -4.25 3.64166
      vertex 8.35503 -4.25 3.72302
    endloop
  endfacet
  facet normal 0 -1 0
    outer loop
      vertex 6.32879 -4.25 3.72302
      vertex 8.07021 -4.25 3.34058
      vertex 8.28994 -4.25 3.64166
    endloop
  endfacet
  facet normal 0 -1 0
    outer loop
      vertex 6.32879 -4.25 3.72302
      vertex 6.60143 -4.25 1.17603
      vertex 8.07021 -4.25 3.34058
    endloop
  endfacet
  facet normal 0 -1 0
    outer loop
      vertex 6.32879 -4.25 3.72302
      vertex 6.57815 -4.25 1.14053
      vertex 6.60143 -4.25 1.17603
    endloop
  endfacet
  facet normal 0 -1 0
    outer loop
      vertex 6.32879 -4.25 3.72302
      vertex 6.55063 -4.25 1.09593
      vertex 6.57815 -4.25 1.14053
    endloop
  endfacet
  facet normal 0 -1 0
    outer loop
      vertex 6.32879 -4.25 3.72302
      vertex 6.5189 -4.25 1.04222
      vertex 6.55063 -4.25 1.09593
    endloop
  endfacet
  facet normal 0 -1 0
    outer loop
      vertex 6.32879 -4.25 3.72302
      vertex 6.48293 -4.25 0.979401
      vertex 6.5189 -4.25 1.04222
    endloop
  endfacet
  facet normal 0 -1 0
    outer loop
      vertex 6.32879 -4.25 3.72302
      vertex 6.44272 -4.25 0.907455
      vertex 6.48293 -4.25 0.979401
    endloop
  endfacet
  facet normal 0 -1 0
    outer loop
      vertex 6.32879 -4.25 3.72302
      vertex 6.40432 -4.25 0.837646
      vertex 6.44272 -4.25 0.907455
    endloop
  endfacet
  facet normal 0 -1 0
    outer loop
      vertex 6.32879 -4.25 3.72302
      vertex 6.37372 -4.25 0.781174
      vertex 6.40432 -4.25 0.837646
    endloop
  endfacet
  facet normal 0 -1 0
    outer loop
      vertex 6.32879 -4.25 3.72302
      vertex 6.35093 -4.25 0.738052
      vertex 6.37372 -4.25 0.781174
    endloop
  endfacet
  facet normal 0 -1 0
    outer loop
      vertex 6.32879 -4.25 3.72302
      vertex 6.33596 -4.25 0.708267
      vertex 6.35093 -4.25 0.738052
    endloop
  endfacet
  facet normal -0 -1 0
    outer loop
      vertex 6.33596 -4.25 0.708267
      vertex 6.32879 -4.25 3.72302
      vertex 6.32879 -4.25 0.691818
    endloop
  endfacet
  facet normal -1 0 0
    outer loop
      vertex 9.55 -4.25 9.52
      vertex 9.55 -3.75 12.02
      vertex 9.55 -3.75 9.52
    endloop
  endfacet
  facet normal -1 -0 0
    outer loop
      vertex 9.55 -3.75 12.02
      vertex 9.55 -4.25 9.52
      vertex 9.55 -4.25 12.02
    endloop
  endfacet
  facet normal -0 0 1
    outer loop
      vertex 8.55 -3.75 9.52
      vertex 9.55 -4.25 9.52
      vertex 9.55 -3.75 9.52
    endloop
  endfacet
  facet normal 0 0 1
    outer loop
      vertex 9.55 -4.25 9.52
      vertex 8.55 -3.75 9.52
      vertex 8.55 -4.25 9.52
    endloop
  endfacet
  facet normal 1 -0 0
    outer loop
      vertex 8.55 -4.25 12.02
      vertex 8.55 -3.75 9.52
      vertex 8.55 -3.75 12.02
    endloop
  endfacet
  facet normal 1 0 0
    outer loop
      vertex 8.55 -3.75 9.52
      vertex 8.55 -4.25 12.02
      vertex 8.55 -4.25 9.52
    endloop
  endfacet
  facet normal 0 -1 0
    outer loop
      vertex 8.55 -3.75 9.52
      vertex 9.55 -3.75 12.02
      vertex 8.55 -3.75 12.02
    endloop
  endfacet
  facet normal 0 -1 -0
    outer loop
      vertex 9.55 -3.75 12.02
      vertex 8.55 -3.75 9.52
      vertex 9.55 -3.75 9.52
    endloop
  endfacet
  facet normal -0 0 1
    outer loop
      vertex -1 0 6.615
      vertex 14.9174 -2.25 6.615
      vertex 14.9174 0 6.615
    endloop
  endfacet
  facet normal 0 0 1
    outer loop
      vertex 14.9174 -2.25 6.615
      vertex -1 0 6.615
      vertex -1 -2.25 6.615
    endloop
  endfacet
  facet normal 0 1 -0
    outer loop
      vertex 14.9174 -2.25 9.115
      vertex -1 -2.25 12.02
      vertex 14.9174 -2.25 12.02
    endloop
  endfacet
  facet normal 0 1 0
    outer loop
      vertex -1 -2.25 12.02
      vertex 14.9174 -2.25 9.115
      vertex -1 -2.25 9.115
    endloop
  endfacet
  facet normal 0 1 -0
    outer loop
      vertex 14.9174 -2.25 6.615
      vertex -1 -2.25 7.715
      vertex 14.9174 -2.25 7.715
    endloop
  endfacet
  facet normal 0 1 0
    outer loop
      vertex -1 -2.25 7.715
      vertex 14.9174 -2.25 6.615
      vertex -1 -2.25 6.615
    endloop
  endfacet
  facet normal 0 -1 0
    outer loop
      vertex 5.6371 -3.75 3.72302
      vertex 6.32879 -3.75 0.691818
      vertex 6.32879 -3.75 3.72302
    endloop
  endfacet
  facet normal -0 -1 0
    outer loop
      vertex 6.32879 -3.75 0.691818
      vertex 5.6371 -3.75 3.72302
      vertex 5.6371 -3.75 -0.134125
    endloop
  endfacet
  facet normal 0 -1 0
    outer loop
      vertex 5.6371 -3.75 3.72302
      vertex 5.6371 -3.75 4.30083
      vertex 4.83149 -3.75 4.30083
    endloop
  endfacet
  facet normal 0 -1 0
    outer loop
      vertex 5.6371 -3.75 4.30083
      vertex 5.6371 -3.75 3.72302
      vertex 6.32879 -3.75 4.30083
    endloop
  endfacet
  facet normal 0 -1 0
    outer loop
      vertex 8.35503 -3.75 3.72302
      vertex 6.32879 -3.75 4.30083
      vertex 6.32879 -3.75 3.72302
    endloop
  endfacet
  facet normal 0 -1 0
    outer loop
      vertex 5.6371 -3.75 3.72302
      vertex 4.83149 -3.75 4.30083
      vertex 4.83149 -3.75 3.72302
    endloop
  endfacet
  facet normal 0 -1 -0
    outer loop
      vertex 6.32879 -3.75 4.30083
      vertex 5.6371 -3.75 3.72302
      vertex 6.32879 -3.75 3.72302
    endloop
  endfacet
  facet normal 0 -1 0
    outer loop
      vertex 6.32879 -3.75 4.30083
      vertex 8.35503 -3.75 3.72302
      vertex 9.03045 -3.75 4.30083
    endloop
  endfacet
  facet normal 0 -1 -0
    outer loop
      vertex 9.03045 -3.75 4.30083
      vertex 8.35503 -3.75 3.72302
      vertex 9.03045 -3.75 3.73119
    endloop
  endfacet
  facet normal 0 -1 0
    outer loop
      vertex 8.28994 -3.75 3.64166
      vertex 9.03045 -3.75 3.73119
      vertex 8.35503 -3.75 3.72302
    endloop
  endfacet
  facet normal 0 -1 0
    outer loop
      vertex 8.07021 -3.75 3.34058
      vertex 9.03045 -3.75 3.73119
      vertex 8.28994 -3.75 3.64166
    endloop
  endfacet
  facet normal 0 -1 0
    outer loop
      vertex 6.60143 -3.75 1.17603
      vertex 9.03045 -3.75 3.73119
      vertex 8.07021 -3.75 3.34058
    endloop
  endfacet
  facet normal 0 -1 0
    outer loop
      vertex 6.40613 -3.75 -0.134125
      vertex 6.60143 -3.75 1.17603
      vertex 6.57815 -3.75 1.14053
    endloop
  endfacet
  facet normal 0 -1 0
    outer loop
      vertex 6.40613 -3.75 -0.134125
      vertex 6.57815 -3.75 1.14053
      vertex 6.55063 -3.75 1.09593
    endloop
  endfacet
  facet normal 0 -1 0
    outer loop
      vertex 6.40613 -3.75 -0.134125
      vertex 6.55063 -3.75 1.09593
      vertex 6.5189 -3.75 1.04222
    endloop
  endfacet
  facet normal 0 -1 0
    outer loop
      vertex 6.40613 -3.75 -0.134125
      vertex 6.5189 -3.75 1.04222
      vertex 6.48293 -3.75 0.979401
    endloop
  endfacet
  facet normal 0 -1 0
    outer loop
      vertex 6.40613 -3.75 -0.134125
      vertex 6.48293 -3.75 0.979401
      vertex 6.44272 -3.75 0.907455
    endloop
  endfacet
  facet normal 0 -1 0
    outer loop
      vertex 6.40613 -3.75 -0.134125
      vertex 6.44272 -3.75 0.907455
      vertex 6.40432 -3.75 0.837646
    endloop
  endfacet
  facet normal 0 -1 0
    outer loop
      vertex 6.40613 -3.75 -0.134125
      vertex 6.40432 -3.75 0.837646
      vertex 6.37372 -3.75 0.781174
    endloop
  endfacet
  facet normal 0 -1 0
    outer loop
      vertex 6.40613 -3.75 -0.134125
      vertex 6.37372 -3.75 0.781174
      vertex 6.35093 -3.75 0.738052
    endloop
  endfacet
  facet normal 0 -1 0
    outer loop
      vertex 6.32879 -3.75 0.691818
      vertex 6.35093 -3.75 0.738052
      vertex 6.33596 -3.75 0.708267
    endloop
  endfacet
  facet normal 0 -1 -0
    outer loop
      vertex 6.35093 -3.75 0.738052
      vertex 6.32879 -3.75 0.691818
      vertex 6.40613 -3.75 -0.134125
    endloop
  endfacet
  facet normal 0 -1 0
    outer loop
      vertex 6.40613 -3.75 -0.134125
      vertex 6.32879 -3.75 0.691818
      vertex 5.6371 -3.75 -0.134125
    endloop
  endfacet
  facet normal 0 -1 -0
    outer loop
      vertex 6.60143 -3.75 1.17603
      vertex 6.40613 -3.75 -0.134125
      vertex 9.03045 -3.75 3.73119
    endloop
  endfacet
  facet normal 0 -1 0
    outer loop
      vertex 5.6371 -3.75 4.30083
      vertex 6.32879 -3.75 5.59874
      vertex 5.6371 -3.75 5.59874
    endloop
  endfacet
  facet normal 0 -1 -0
    outer loop
      vertex 6.32879 -3.75 5.59874
      vertex 5.6371 -3.75 4.30083
      vertex 6.32879 -3.75 4.30083
    endloop
  endfacet
  facet normal 0 0 -1
    outer loop
      vertex 4.83149 -4.25 4.30083
      vertex 5.6371 -3.75 4.30083
      vertex 5.6371 -4.25 4.30083
    endloop
  endfacet
  facet normal -0 0 -1
    outer loop
      vertex 5.6371 -3.75 4.30083
      vertex 4.83149 -4.25 4.30083
      vertex 4.83149 -3.75 4.30083
    endloop
  endfacet
  facet normal 1 -0 0
    outer loop
      vertex 4.83149 -4.25 4.30083
      vertex 4.83149 -3.75 3.72302
      vertex 4.83149 -3.75 4.30083
    endloop
  endfacet
  facet normal 1 0 0
    outer loop
      vertex 4.83149 -3.75 3.72302
      vertex 4.83149 -4.25 4.30083
      vertex 4.83149 -4.25 3.72302
    endloop
  endfacet
  facet normal -0 0 1
    outer loop
      vertex 4.83149 -3.75 3.72302
      vertex 5.6371 -4.25 3.72302
      vertex 5.6371 -3.75 3.72302
    endloop
  endfacet
  facet normal 0 0 1
    outer loop
      vertex 5.6371 -4.25 3.72302
      vertex 4.83149 -3.75 3.72302
      vertex 4.83149 -4.25 3.72302
    endloop
  endfacet
  facet normal 1 -0 0
    outer loop
      vertex 5.6371 -4.25 3.72302
      vertex 5.6371 -3.75 -0.134125
      vertex 5.6371 -3.75 3.72302
    endloop
  endfacet
  facet normal 1 0 0
    outer loop
      vertex 5.6371 -3.75 -0.134125
      vertex 5.6371 -4.25 3.72302
      vertex 5.6371 -4.25 -0.134125
    endloop
  endfacet
  facet normal -0 0 1
    outer loop
      vertex 5.6371 -3.75 -0.134125
      vertex 6.40613 -4.25 -0.134125
      vertex 6.40613 -3.75 -0.134125
    endloop
  endfacet
  facet normal 0 0 1
    outer loop
      vertex 6.40613 -4.25 -0.134125
      vertex 5.6371 -3.75 -0.134125
      vertex 5.6371 -4.25 -0.134125
    endloop
  endfacet
  facet normal -0.827334 0 0.561711
    outer loop
      vertex 6.40613 -4.25 -0.134125
      vertex 9.03045 -3.75 3.73119
      vertex 6.40613 -3.75 -0.134125
    endloop
  endfacet
  facet normal -0.827334 0 0.561711
    outer loop
      vertex 9.03045 -3.75 3.73119
      vertex 6.40613 -4.25 -0.134125
      vertex 9.03045 -4.25 3.73119
    endloop
  endfacet
  facet normal -1 0 0
    outer loop
      vertex 9.03045 -4.25 3.73119
      vertex 9.03045 -3.75 4.30083
      vertex 9.03045 -3.75 3.73119
    endloop
  endfacet
  facet normal -1 -0 0
    outer loop
      vertex 9.03045 -3.75 4.30083
      vertex 9.03045 -4.25 3.73119
      vertex 9.03045 -4.25 4.30083
    endloop
  endfacet
  facet normal 0 0 -1
    outer loop
      vertex 6.32879 -4.25 4.30083
      vertex 9.03045 -3.75 4.30083
      vertex 9.03045 -4.25 4.30083
    endloop
  endfacet
  facet normal -0 0 -1
    outer loop
      vertex 9.03045 -3.75 4.30083
      vertex 6.32879 -4.25 4.30083
      vertex 6.32879 -3.75 4.30083
    endloop
  endfacet
  facet normal -1 0 0
    outer loop
      vertex 6.32879 -4.25 4.30083
      vertex 6.32879 -3.75 5.59874
      vertex 6.32879 -3.75 4.30083
    endloop
  endfacet
  facet normal -1 -0 0
    outer loop
      vertex 6.32879 -3.75 5.59874
      vertex 6.32879 -4.25 4.30083
      vertex 6.32879 -4.25 5.59874
    endloop
  endfacet
  facet normal 0 0 -1
    outer loop
      vertex 5.6371 -4.25 5.59874
      vertex 6.32879 -3.75 5.59874
      vertex 6.32879 -4.25 5.59874
    endloop
  endfacet
  facet normal -0 0 -1
    outer loop
      vertex 6.32879 -3.75 5.59874
      vertex 5.6371 -4.25 5.59874
      vertex 5.6371 -3.75 5.59874
    endloop
  endfacet
  facet normal 1 -0 0
    outer loop
      vertex 5.6371 -4.25 5.59874
      vertex 5.6371 -3.75 4.30083
      vertex 5.6371 -3.75 5.59874
    endloop
  endfacet
  facet normal 1 0 0
    outer loop
      vertex 5.6371 -3.75 4.30083
      vertex 5.6371 -4.25 5.59874
      vertex 5.6371 -4.25 4.30083
    endloop
  endfacet
  facet normal 0.780859 0 -0.624707
    outer loop
      vertex 8.35503 -4.25 3.72302
      vertex 8.28994 -3.75 3.64166
      vertex 8.35503 -3.75 3.72302
    endloop
  endfacet
  facet normal 0.780859 0 -0.624707
    outer loop
      vertex 8.28994 -3.75 3.64166
      vertex 8.35503 -4.25 3.72302
      vertex 8.28994 -4.25 3.64166
    endloop
  endfacet
  facet normal 0.807762 0 -0.589509
    outer loop
      vertex 8.28994 -4.25 3.64166
      vertex 8.07021 -3.75 3.34058
      vertex 8.28994 -3.75 3.64166
    endloop
  endfacet
  facet normal 0.807762 0 -0.589509
    outer loop
      vertex 8.07021 -3.75 3.34058
      vertex 8.28994 -4.25 3.64166
      vertex 8.07021 -4.25 3.34058
    endloop
  endfacet
  facet normal 0.82748 0 -0.561496
    outer loop
      vertex 8.07021 -4.25 3.34058
      vertex 6.60143 -3.75 1.17603
      vertex 8.07021 -3.75 3.34058
    endloop
  endfacet
  facet normal 0.82748 0 -0.561496
    outer loop
      vertex 6.60143 -3.75 1.17603
      vertex 8.07021 -4.25 3.34058
      vertex 6.60143 -4.25 1.17603
    endloop
  endfacet
  facet normal 0.83623 0 -0.548379
    outer loop
      vertex 6.60143 -4.25 1.17603
      vertex 6.57815 -3.75 1.14053
      vertex 6.60143 -3.75 1.17603
    endloop
  endfacet
  facet normal 0.83623 0 -0.548379
    outer loop
      vertex 6.57815 -3.75 1.14053
      vertex 6.60143 -4.25 1.17603
      vertex 6.57815 -4.25 1.14053
    endloop
  endfacet
  facet normal 0.851029 0 -0.525119
    outer loop
      vertex 6.57815 -4.25 1.14053
      vertex 6.55063 -3.75 1.09593
      vertex 6.57815 -3.75 1.14053
    endloop
  endfacet
  facet normal 0.851029 0 -0.525119
    outer loop
      vertex 6.55063 -3.75 1.09593
      vertex 6.57815 -4.25 1.14053
      vertex 6.55063 -4.25 1.09593
    endloop
  endfacet
  facet normal 0.860981 0 -0.508637
    outer loop
      vertex 6.55063 -4.25 1.09593
      vertex 6.5189 -3.75 1.04222
      vertex 6.55063 -3.75 1.09593
    endloop
  endfacet
  facet normal 0.860981 0 -0.508637
    outer loop
      vertex 6.5189 -3.75 1.04222
      vertex 6.55063 -4.25 1.09593
      vertex 6.5189 -4.25 1.04222
    endloop
  endfacet
  facet normal 0.867806 0 -0.496903
    outer loop
      vertex 6.5189 -4.25 1.04222
      vertex 6.48293 -3.75 0.979401
      vertex 6.5189 -3.75 1.04222
    endloop
  endfacet
  facet normal 0.867806 0 -0.496903
    outer loop
      vertex 6.48293 -3.75 0.979401
      vertex 6.5189 -4.25 1.04222
      vertex 6.48293 -4.25 0.979401
    endloop
  endfacet
  facet normal 0.872918 0 -0.487866
    outer loop
      vertex 6.48293 -4.25 0.979401
      vertex 6.44272 -3.75 0.907455
      vertex 6.48293 -3.75 0.979401
    endloop
  endfacet
  facet normal 0.872918 0 -0.487866
    outer loop
      vertex 6.44272 -3.75 0.907455
      vertex 6.48293 -4.25 0.979401
      vertex 6.44272 -4.25 0.907455
    endloop
  endfacet
  facet normal 0.876189 0 -0.481967
    outer loop
      vertex 6.44272 -4.25 0.907455
      vertex 6.40432 -3.75 0.837646
      vertex 6.44272 -3.75 0.907455
    endloop
  endfacet
  facet normal 0.876189 0 -0.481967
    outer loop
      vertex 6.40432 -3.75 0.837646
      vertex 6.44272 -4.25 0.907455
      vertex 6.40432 -4.25 0.837646
    endloop
  endfacet
  facet normal 0.87922 0 -0.476416
    outer loop
      vertex 6.40432 -4.25 0.837646
      vertex 6.37372 -3.75 0.781174
      vertex 6.40432 -3.75 0.837646
    endloop
  endfacet
  facet normal 0.87922 0 -0.476416
    outer loop
      vertex 6.37372 -3.75 0.781174
      vertex 6.40432 -4.25 0.837646
      vertex 6.37372 -4.25 0.781174
    endloop
  endfacet
  facet normal 0.884121 0 -0.467258
    outer loop
      vertex 6.37372 -4.25 0.781174
      vertex 6.35093 -3.75 0.738052
      vertex 6.37372 -3.75 0.781174
    endloop
  endfacet
  facet normal 0.884121 0 -0.467258
    outer loop
      vertex 6.35093 -3.75 0.738052
      vertex 6.37372 -4.25 0.781174
      vertex 6.35093 -4.25 0.738052
    endloop
  endfacet
  facet normal 0.893495 0 -0.449073
    outer loop
      vertex 6.35093 -4.25 0.738052
      vertex 6.33596 -3.75 0.708267
      vertex 6.35093 -3.75 0.738052
    endloop
  endfacet
  facet normal 0.893495 0 -0.449073
    outer loop
      vertex 6.33596 -3.75 0.708267
      vertex 6.35093 -4.25 0.738052
      vertex 6.33596 -4.25 0.708267
    endloop
  endfacet
  facet normal 0.916698 0 -0.399582
    outer loop
      vertex 6.33596 -4.25 0.708267
      vertex 6.32879 -3.75 0.691818
      vertex 6.33596 -3.75 0.708267
    endloop
  endfacet
  facet normal 0.916698 0 -0.399582
    outer loop
      vertex 6.32879 -3.75 0.691818
      vertex 6.33596 -4.25 0.708267
      vertex 6.32879 -4.25 0.691818
    endloop
  endfacet
  facet normal -1 0 0
    outer loop
      vertex 6.32879 -4.25 0.691818
      vertex 6.32879 -3.75 3.72302
      vertex 6.32879 -3.75 0.691818
    endloop
  endfacet
  facet normal -1 -0 0
    outer loop
      vertex 6.32879 -3.75 3.72302
      vertex 6.32879 -4.25 0.691818
      vertex 6.32879 -4.25 3.72302
    endloop
  endfacet
  facet normal -0 0 1
    outer loop
      vertex 6.32879 -3.75 3.72302
      vertex 8.35503 -4.25 3.72302
      vertex 8.35503 -3.75 3.72302
    endloop
  endfacet
  facet normal 0 0 1
    outer loop
      vertex 8.35503 -4.25 3.72302
      vertex 6.32879 -3.75 3.72302
      vertex 6.32879 -4.25 3.72302
    endloop
  endfacet
  facet normal 0 0.993726 -0.111845
    outer loop
      vertex 14.9174 -1.46537 8.27844
      vertex -1 -1.45 8.415
      vertex 14.9174 -1.45 8.415
    endloop
  endfacet
  facet normal 0 0.993726 -0.111845
    outer loop
      vertex -1 -1.45 8.415
      vertex 14.9174 -1.46537 8.27844
      vertex -1 -1.46537 8.27844
    endloop
  endfacet
  facet normal 0 0.853397 0.521262
    outer loop
      vertex 14.9174 -1.5109 8.68288
      vertex -1 -1.58482 8.8039
      vertex 14.9174 -1.58482 8.8039
    endloop
  endfacet
  facet normal 0 0.853397 0.521262
    outer loop
      vertex -1 -1.58482 8.8039
      vertex 14.9174 -1.5109 8.68288
      vertex -1 -1.5109 8.68288
    endloop
  endfacet
  facet normal 0 0.583265 -0.812282
    outer loop
      vertex -1 -1.80554 7.83297
      vertex 14.9174 -1.68431 7.92002
      vertex 14.9174 -1.80554 7.83297
    endloop
  endfacet
  facet normal 0 0.583265 -0.812282
    outer loop
      vertex 14.9174 -1.68431 7.92002
      vertex -1 -1.80554 7.83297
      vertex -1 -1.68431 7.92002
    endloop
  endfacet
  facet normal 0 0.944823 0.32758
    outer loop
      vertex 14.9174 -1.46537 8.55156
      vertex -1 -1.5109 8.68288
      vertex 14.9174 -1.5109 8.68288
    endloop
  endfacet
  facet normal 0 0.944823 0.32758
    outer loop
      vertex -1 -1.5109 8.68288
      vertex 14.9174 -1.46537 8.55156
      vertex -1 -1.46537 8.55156
    endloop
  endfacet
  facet normal 0 0.853397 -0.521262
    outer loop
      vertex 14.9174 -1.58482 8.0261
      vertex -1 -1.5109 8.14712
      vertex 14.9174 -1.5109 8.14712
    endloop
  endfacet
  facet normal 0 0.853397 -0.521262
    outer loop
      vertex -1 -1.5109 8.14712
      vertex 14.9174 -1.58482 8.0261
      vertex -1 -1.58482 8.0261
    endloop
  endfacet
  facet normal 0 0.944823 -0.32758
    outer loop
      vertex 14.9174 -1.5109 8.14712
      vertex -1 -1.46537 8.27844
      vertex 14.9174 -1.46537 8.27844
    endloop
  endfacet
  facet normal 0 0.944823 -0.32758
    outer loop
      vertex -1 -1.46537 8.27844
      vertex 14.9174 -1.5109 8.14712
      vertex -1 -1.5109 8.14712
    endloop
  endfacet
  facet normal 0 0.423667 -0.905818
    outer loop
      vertex -1 -1.94385 7.76828
      vertex 14.9174 -1.80554 7.83297
      vertex 14.9174 -1.94385 7.76828
    endloop
  endfacet
  facet normal 0 0.423667 -0.905818
    outer loop
      vertex 14.9174 -1.80554 7.83297
      vertex -1 -1.94385 7.76828
      vertex -1 -1.80554 7.83297
    endloop
  endfacet
  facet normal 0 0.256512 -0.966541
    outer loop
      vertex -1 -2.09393 7.72845
      vertex 14.9174 -1.94385 7.76828
      vertex 14.9174 -2.09393 7.72845
    endloop
  endfacet
  facet normal 0 0.256512 -0.966541
    outer loop
      vertex 14.9174 -1.94385 7.76828
      vertex -1 -2.09393 7.72845
      vertex -1 -1.94385 7.76828
    endloop
  endfacet
  facet normal -0 0.085861 0.996307
    outer loop
      vertex -1 -2.09393 9.10155
      vertex 14.9174 -2.25 9.115
      vertex 14.9174 -2.09393 9.10155
    endloop
  endfacet
  facet normal 0 0.085861 0.996307
    outer loop
      vertex 14.9174 -2.25 9.115
      vertex -1 -2.09393 9.10155
      vertex -1 -2.25 9.115
    endloop
  endfacet
  facet normal 0 0.993726 0.111845
    outer loop
      vertex 14.9174 -1.45 8.415
      vertex -1 -1.46537 8.55156
      vertex 14.9174 -1.46537 8.55156
    endloop
  endfacet
  facet normal 0 0.993726 0.111845
    outer loop
      vertex -1 -1.46537 8.55156
      vertex 14.9174 -1.45 8.415
      vertex -1 -1.45 8.415
    endloop
  endfacet
  facet normal 0 0.085861 -0.996307
    outer loop
      vertex -1 -2.25 7.715
      vertex 14.9174 -2.09393 7.72845
      vertex 14.9174 -2.25 7.715
    endloop
  endfacet
  facet normal 0 0.085861 -0.996307
    outer loop
      vertex 14.9174 -2.09393 7.72845
      vertex -1 -2.25 7.715
      vertex -1 -2.09393 7.72845
    endloop
  endfacet
  facet normal 0 0.729368 0.684122
    outer loop
      vertex 14.9174 -1.58482 8.8039
      vertex -1 -1.68431 8.90997
      vertex 14.9174 -1.68431 8.90997
    endloop
  endfacet
  facet normal 0 0.729368 0.684122
    outer loop
      vertex -1 -1.68431 8.90997
      vertex 14.9174 -1.58482 8.8039
      vertex -1 -1.58482 8.8039
    endloop
  endfacet
  facet normal 0 0.7294 -0.684087
    outer loop
      vertex 14.9174 -1.68431 7.92002
      vertex -1 -1.58482 8.0261
      vertex 14.9174 -1.58482 8.0261
    endloop
  endfacet
  facet normal 0 0.7294 -0.684087
    outer loop
      vertex -1 -1.58482 8.0261
      vertex 14.9174 -1.68431 7.92002
      vertex -1 -1.68431 7.92002
    endloop
  endfacet
  facet normal -0 0.423667 0.905818
    outer loop
      vertex -1 -1.80554 8.99703
      vertex 14.9174 -1.94385 9.06172
      vertex 14.9174 -1.80554 8.99703
    endloop
  endfacet
  facet normal 0 0.423667 0.905818
    outer loop
      vertex 14.9174 -1.94385 9.06172
      vertex -1 -1.80554 8.99703
      vertex -1 -1.94385 9.06172
    endloop
  endfacet
  facet normal -0 0.256512 0.966541
    outer loop
      vertex -1 -1.94385 9.06172
      vertex 14.9174 -2.09393 9.10155
      vertex 14.9174 -1.94385 9.06172
    endloop
  endfacet
  facet normal 0 0.256512 0.966541
    outer loop
      vertex 14.9174 -2.09393 9.10155
      vertex -1 -1.94385 9.06172
      vertex -1 -2.09393 9.10155
    endloop
  endfacet
  facet normal -0 0.583309 0.81225
    outer loop
      vertex -1 -1.68431 8.90997
      vertex 14.9174 -1.80554 8.99703
      vertex 14.9174 -1.68431 8.90997
    endloop
  endfacet
  facet normal 0 0.583309 0.81225
    outer loop
      vertex 14.9174 -1.80554 8.99703
      vertex -1 -1.68431 8.90997
      vertex -1 -1.80554 8.99703
    endloop
  endfacet
endsolid OpenSCAD_Model
