solid OpenSCAD_Model
  facet normal -1 0 0
    outer loop
      vertex -1 0 6.43
      vertex -1 6 10
      vertex -1 6 -2
    endloop
  endfacet
  facet normal -1 0 0
    outer loop
      vertex -1 1 10
      vertex -1 0.994521 11.25
      vertex -1 1 11.25
    endloop
  endfacet
  facet normal -1 0 0
    outer loop
      vertex -1 0 11.25
      vertex -1 0.994521 11.3545
      vertex -1 0.994521 11.25
    endloop
  endfacet
  facet normal -1 0 0
    outer loop
      vertex -1 0 11.25
      vertex -1 0.994521 11.25
      vertex -1 1 10
    endloop
  endfacet
  facet normal -1 -0 0
    outer loop
      vertex -1 0.994521 11.3545
      vertex -1 0 11.25
      vertex -1 0.951056 11.559
    endloop
  endfacet
  facet normal -1 -0 0
    outer loop
      vertex -1 0.951056 11.559
      vertex -1 0 11.25
      vertex -1 0.866025 11.75
    endloop
  endfacet
  facet normal -1 -0 0
    outer loop
      vertex -1 0.866025 11.75
      vertex -1 0 11.25
      vertex -1 0.743144 11.9191
    endloop
  endfacet
  facet normal -1 -0 0
    outer loop
      vertex -1 0.743144 11.9191
      vertex -1 0 11.25
      vertex -1 0.587785 12.059
    endloop
  endfacet
  facet normal -1 -0 0
    outer loop
      vertex -1 0.587785 12.059
      vertex -1 0 11.25
      vertex -1 0.406736 12.1635
    endloop
  endfacet
  facet normal -1 0 0
    outer loop
      vertex -1 0 11.25
      vertex -1 1 10
      vertex -1 0 6.43
    endloop
  endfacet
  facet normal -1 -0 0
    outer loop
      vertex -1 6 10
      vertex -1 0 6.43
      vertex -1 1 10
    endloop
  endfacet
  facet normal -1 0 0
    outer loop
      vertex -1 -4.25 -2
      vertex -1 0 6.43
      vertex -1 6 -2
    endloop
  endfacet
  facet normal -1 -0 0
    outer loop
      vertex -1 0 6.43
      vertex -1 -4.25 -2
      vertex -1 -2.25 6.43
    endloop
  endfacet
  facet normal -1 0 0
    outer loop
      vertex -1 -4.25 10.475
      vertex -1 -2.25 6.43
      vertex -1 -4.25 -2
    endloop
  endfacet
  facet normal -1 0 0
    outer loop
      vertex -1 -2.25 6.43
      vertex -1 -4.25 10.475
      vertex -1 -2.25 10.475
    endloop
  endfacet
  facet normal -1 -0 0
    outer loop
      vertex -1 0.406736 12.1635
      vertex -1 0 11.25
      vertex -1 0.207911 12.2281
    endloop
  endfacet
  facet normal -1 -0 0
    outer loop
      vertex -1 0.207911 12.2281
      vertex -1 0 11.25
      vertex -1 0 12.25
    endloop
  endfacet
  facet normal -0 0 1
    outer loop
      vertex 18.02 6 10
      vertex 19.02 1 10
      vertex 19.02 6 10
    endloop
  endfacet
  facet normal 0 0 1
    outer loop
      vertex 19.02 1 10
      vertex 18.02 6 10
      vertex 18.02 1 10
    endloop
  endfacet
  facet normal -0 0 1
    outer loop
      vertex -1 6 10
      vertex 0 1 10
      vertex 0 6 10
    endloop
  endfacet
  facet normal 0 0 1
    outer loop
      vertex 0 1 10
      vertex -1 6 10
      vertex -1 1 10
    endloop
  endfacet
  facet normal 1 0 0
    outer loop
      vertex 19.02 0 11.25
      vertex 19.02 0.994521 11.3545
      vertex 19.02 0.951056 11.559
    endloop
  endfacet
  facet normal 1 0 0
    outer loop
      vertex 19.02 1 11.25
      vertex 19.02 0.994521 11.25
      vertex 19.02 1 10
    endloop
  endfacet
  facet normal 1 -0 0
    outer loop
      vertex 19.02 1 10
      vertex 19.02 6 -2
      vertex 19.02 6 10
    endloop
  endfacet
  facet normal 1 0 0
    outer loop
      vertex 19.02 0.994521 11.3545
      vertex 19.02 0 11.25
      vertex 19.02 0.994521 11.25
    endloop
  endfacet
  facet normal 1 0 0
    outer loop
      vertex 19.02 0 11.25
      vertex 19.02 0.951056 11.559
      vertex 19.02 0.866025 11.75
    endloop
  endfacet
  facet normal 1 0 0
    outer loop
      vertex 19.02 0 11.25
      vertex 19.02 0.866025 11.75
      vertex 19.02 0.743144 11.9191
    endloop
  endfacet
  facet normal 1 0 0
    outer loop
      vertex 19.02 0 11.25
      vertex 19.02 0.743144 11.9191
      vertex 19.02 0.587785 12.059
    endloop
  endfacet
  facet normal 1 0 0
    outer loop
      vertex 19.02 0 11.25
      vertex 19.02 0.587785 12.059
      vertex 19.02 0.406736 12.1635
    endloop
  endfacet
  facet normal 1 0 0
    outer loop
      vertex 19.02 0 11.25
      vertex 19.02 0.406736 12.1635
      vertex 19.02 0.207911 12.2281
    endloop
  endfacet
  facet normal 1 0 0
    outer loop
      vertex 19.02 0 11.25
      vertex 19.02 0.207911 12.2281
      vertex 19.02 0 12.25
    endloop
  endfacet
  facet normal 1 0 0
    outer loop
      vertex 19.02 0.994521 11.25
      vertex 19.02 0 11.25
      vertex 19.02 1 10
    endloop
  endfacet
  facet normal 1 0 0
    outer loop
      vertex 19.02 0 -2
      vertex 19.02 1 10
      vertex 19.02 0 11.25
    endloop
  endfacet
  facet normal 1 0 0
    outer loop
      vertex 19.02 1 10
      vertex 19.02 0 -2
      vertex 19.02 6 -2
    endloop
  endfacet
  facet normal 0 1 0
    outer loop
      vertex 19.02 6 10
      vertex 18.02 6 0
      vertex 18.02 6 10
    endloop
  endfacet
  facet normal 0 1 0
    outer loop
      vertex 18.02 6 0
      vertex 19.02 6 -2
      vertex 0 6 0
    endloop
  endfacet
  facet normal 0 1 -0
    outer loop
      vertex 19.02 6 -2
      vertex 18.02 6 0
      vertex 19.02 6 10
    endloop
  endfacet
  facet normal 0 1 -0
    outer loop
      vertex 0 6 0
      vertex -1 6 10
      vertex 0 6 10
    endloop
  endfacet
  facet normal 0 1 0
    outer loop
      vertex 0 6 0
      vertex -1 6 -2
      vertex -1 6 10
    endloop
  endfacet
  facet normal 0 1 0
    outer loop
      vertex -1 6 -2
      vertex 0 6 0
      vertex 19.02 6 -2
    endloop
  endfacet
  facet normal 0 0 -1
    outer loop
      vertex 14.87 -4.25 -2
      vertex -1 -4.25 -2
      vertex 14.87 0 -2
    endloop
  endfacet
  facet normal 0 0 -1
    outer loop
      vertex 14.87 0 -2
      vertex 19.02 6 -2
      vertex 19.02 0 -2
    endloop
  endfacet
  facet normal 0 0 -1
    outer loop
      vertex -1 6 -2
      vertex 14.87 0 -2
      vertex -1 -4.25 -2
    endloop
  endfacet
  facet normal 0 0 -1
    outer loop
      vertex 14.87 0 -2
      vertex -1 6 -2
      vertex 19.02 6 -2
    endloop
  endfacet
  facet normal 0 -1 0
    outer loop
      vertex 14.87 0 6.43
      vertex -1 0 11.25
      vertex -1 0 6.43
    endloop
  endfacet
  facet normal 0 -1 0
    outer loop
      vertex -1 0 11.25
      vertex 14.87 0 6.43
      vertex 19.02 0 11.25
    endloop
  endfacet
  facet normal 0 -1 0
    outer loop
      vertex 19.02 0 -2
      vertex 14.87 0 6.43
      vertex 14.87 0 -2
    endloop
  endfacet
  facet normal 0 -1 0
    outer loop
      vertex 14.87 0 6.43
      vertex 19.02 0 -2
      vertex 19.02 0 11.25
    endloop
  endfacet
  facet normal 1 -0 0
    outer loop
      vertex 0 1 10
      vertex 0 6 0
      vertex 0 6 10
    endloop
  endfacet
  facet normal 1 0 0
    outer loop
      vertex 0 6 0
      vertex 0 1 10
      vertex 0 1 0
    endloop
  endfacet
  facet normal -1 0 0
    outer loop
      vertex 18.02 1 0
      vertex 18.02 6 10
      vertex 18.02 6 0
    endloop
  endfacet
  facet normal -1 -0 0
    outer loop
      vertex 18.02 6 10
      vertex 18.02 1 0
      vertex 18.02 1 10
    endloop
  endfacet
  facet normal -0 0 1
    outer loop
      vertex 0 6 0
      vertex 18.02 1 0
      vertex 18.02 6 0
    endloop
  endfacet
  facet normal 0 0 1
    outer loop
      vertex 18.02 1 0
      vertex 0 6 0
      vertex 0 1 0
    endloop
  endfacet
  facet normal 0 1 -0
    outer loop
      vertex 18.02 1 0
      vertex 0 1 10
      vertex 18.02 1 10
    endloop
  endfacet
  facet normal 0 1 0
    outer loop
      vertex 0 1 10
      vertex 18.02 1 0
      vertex 0 1 0
    endloop
  endfacet
  facet normal 0 0.97815 0.207899
    outer loop
      vertex 19.02 0.994521 11.3545
      vertex -1 0.951056 11.559
      vertex 19.02 0.951056 11.559
    endloop
  endfacet
  facet normal 0 0.97815 0.207899
    outer loop
      vertex -1 0.951056 11.559
      vertex 19.02 0.994521 11.3545
      vertex -1 0.994521 11.3545
    endloop
  endfacet
  facet normal -0 0.499897 0.866085
    outer loop
      vertex -1 0.587785 12.059
      vertex 19.02 0.406736 12.1635
      vertex 19.02 0.587785 12.059
    endloop
  endfacet
  facet normal 0 0.499897 0.866085
    outer loop
      vertex 19.02 0.406736 12.1635
      vertex -1 0.587785 12.059
      vertex -1 0.406736 12.1635
    endloop
  endfacet
  facet normal 0 1 -0
    outer loop
      vertex 19.02 0.994521 11.25
      vertex -1 0.994521 11.3545
      vertex 19.02 0.994521 11.3545
    endloop
  endfacet
  facet normal 0 1 0
    outer loop
      vertex -1 0.994521 11.3545
      vertex 19.02 0.994521 11.25
      vertex -1 0.994521 11.25
    endloop
  endfacet
  facet normal -0 0.104754 0.994498
    outer loop
      vertex -1 0.207911 12.2281
      vertex 19.02 0 12.25
      vertex 19.02 0.207911 12.2281
    endloop
  endfacet
  facet normal 0 0.104754 0.994498
    outer loop
      vertex 19.02 0 12.25
      vertex -1 0.207911 12.2281
      vertex -1 0 12.25
    endloop
  endfacet
  facet normal -0 0.669168 0.743111
    outer loop
      vertex -1 0.743144 11.9191
      vertex 19.02 0.587785 12.059
      vertex 19.02 0.743144 11.9191
    endloop
  endfacet
  facet normal 0 0.669168 0.743111
    outer loop
      vertex 19.02 0.587785 12.059
      vertex -1 0.743144 11.9191
      vertex -1 0.587785 12.059
    endloop
  endfacet
  facet normal 0 0.913559 0.406706
    outer loop
      vertex 19.02 0.951056 11.559
      vertex -1 0.866025 11.75
      vertex 19.02 0.866025 11.75
    endloop
  endfacet
  facet normal 0 0.913559 0.406706
    outer loop
      vertex -1 0.866025 11.75
      vertex 19.02 0.951056 11.559
      vertex -1 0.951056 11.559
    endloop
  endfacet
  facet normal 0 0.808965 0.587856
    outer loop
      vertex 19.02 0.866025 11.75
      vertex -1 0.743144 11.9191
      vertex 19.02 0.743144 11.9191
    endloop
  endfacet
  facet normal 0 0.808965 0.587856
    outer loop
      vertex -1 0.743144 11.9191
      vertex 19.02 0.866025 11.75
      vertex -1 0.866025 11.75
    endloop
  endfacet
  facet normal -0 0.309008 0.95106
    outer loop
      vertex -1 0.406736 12.1635
      vertex 19.02 0.207911 12.2281
      vertex 19.02 0.406736 12.1635
    endloop
  endfacet
  facet normal 0 0.309008 0.95106
    outer loop
      vertex 19.02 0.207911 12.2281
      vertex -1 0.406736 12.1635
      vertex -1 0.207911 12.2281
    endloop
  endfacet
  facet normal 0 -1 0
    outer loop
      vertex -1 0 11.25
      vertex 19.02 0 12.25
      vertex -1 0 12.25
    endloop
  endfacet
  facet normal 0 -1 -0
    outer loop
      vertex 19.02 0 12.25
      vertex -1 0 11.25
      vertex 19.02 0 11.25
    endloop
  endfacet
  facet normal -0 0 1
    outer loop
      vertex -1 1 11.25
      vertex 19.02 0.994521 11.25
      vertex 19.02 1 11.25
    endloop
  endfacet
  facet normal 0 0 1
    outer loop
      vertex 19.02 0.994521 11.25
      vertex -1 1 11.25
      vertex -1 0.994521 11.25
    endloop
  endfacet
  facet normal 0 1 0
    outer loop
      vertex 18.02 1 10
      vertex 19.02 1 11.25
      vertex 19.02 1 10
    endloop
  endfacet
  facet normal 0 1 0
    outer loop
      vertex 19.02 1 11.25
      vertex 18.02 1 10
      vertex -1 1 11.25
    endloop
  endfacet
  facet normal 0 1 -0
    outer loop
      vertex 0 1 10
      vertex -1 1 11.25
      vertex 18.02 1 10
    endloop
  endfacet
  facet normal 0 1 0
    outer loop
      vertex -1 1 11.25
      vertex 0 1 10
      vertex -1 1 10
    endloop
  endfacet
  facet normal -0 0 1
    outer loop
      vertex 9.98815 -4.04209 10.475
      vertex 14.87 -4.25 10.475
      vertex 14.87 -2.25 10.475
    endloop
  endfacet
  facet normal 0 0 1
    outer loop
      vertex 14.87 -4.25 10.475
      vertex 9.98815 -4.04209 10.475
      vertex 10.01 -4.25 10.475
    endloop
  endfacet
  facet normal 0 0 1
    outer loop
      vertex 14.87 -2.25 10.475
      vertex 9.92354 -3.84326 10.475
      vertex 9.98815 -4.04209 10.475
    endloop
  endfacet
  facet normal 0 0 1
    outer loop
      vertex 14.87 -2.25 10.475
      vertex 9.81902 -3.66221 10.475
      vertex 9.92354 -3.84326 10.475
    endloop
  endfacet
  facet normal 0 0 1
    outer loop
      vertex 14.87 -2.25 10.475
      vertex 9.67913 -3.50686 10.475
      vertex 9.81902 -3.66221 10.475
    endloop
  endfacet
  facet normal 0 0 1
    outer loop
      vertex 14.87 -2.25 10.475
      vertex 9.51 -3.38397 10.475
      vertex 9.67913 -3.50686 10.475
    endloop
  endfacet
  facet normal 0 0 1
    outer loop
      vertex 14.87 -2.25 10.475
      vertex 9.31902 -3.29894 10.475
      vertex 9.51 -3.38397 10.475
    endloop
  endfacet
  facet normal 0 0 1
    outer loop
      vertex 14.87 -2.25 10.475
      vertex 9.11453 -3.25548 10.475
      vertex 9.31902 -3.29894 10.475
    endloop
  endfacet
  facet normal 0 0 1
    outer loop
      vertex 14.87 -2.25 10.475
      vertex 8.90547 -3.25548 10.475
      vertex 9.11453 -3.25548 10.475
    endloop
  endfacet
  facet normal -0 0 1
    outer loop
      vertex -1 -2.25 10.475
      vertex 8.90547 -3.25548 10.475
      vertex 14.87 -2.25 10.475
    endloop
  endfacet
  facet normal 0 0 1
    outer loop
      vertex -1 -2.25 10.475
      vertex 8.70098 -3.29894 10.475
      vertex 8.90547 -3.25548 10.475
    endloop
  endfacet
  facet normal 0 0 1
    outer loop
      vertex -1 -2.25 10.475
      vertex 8.51 -3.38397 10.475
      vertex 8.70098 -3.29894 10.475
    endloop
  endfacet
  facet normal 0 0 1
    outer loop
      vertex -1 -2.25 10.475
      vertex 8.34087 -3.50686 10.475
      vertex 8.51 -3.38397 10.475
    endloop
  endfacet
  facet normal 0 0 1
    outer loop
      vertex -1 -2.25 10.475
      vertex 8.20098 -3.66221 10.475
      vertex 8.34087 -3.50686 10.475
    endloop
  endfacet
  facet normal 0 0 1
    outer loop
      vertex -1 -2.25 10.475
      vertex 8.09645 -3.84326 10.475
      vertex 8.20098 -3.66221 10.475
    endloop
  endfacet
  facet normal 0 0 1
    outer loop
      vertex -1 -2.25 10.475
      vertex 8.03185 -4.04209 10.475
      vertex 8.09645 -3.84326 10.475
    endloop
  endfacet
  facet normal 0 0 1
    outer loop
      vertex -1 -4.25 10.475
      vertex 8.03185 -4.04209 10.475
      vertex -1 -2.25 10.475
    endloop
  endfacet
  facet normal 0 0 1
    outer loop
      vertex 8.03185 -4.04209 10.475
      vertex -1 -4.25 10.475
      vertex 8.01 -4.25 10.475
    endloop
  endfacet
  facet normal 1 0 0
    outer loop
      vertex 14.87 -2.25 10.475
      vertex 14.87 -4.25 10.475
      vertex 14.87 -2.25 6.43
    endloop
  endfacet
  facet normal 1 -0 0
    outer loop
      vertex 14.87 -2.25 6.43
      vertex 14.87 0 -2
      vertex 14.87 0 6.43
    endloop
  endfacet
  facet normal 1 0 0
    outer loop
      vertex 14.87 -4.25 -2
      vertex 14.87 -2.25 6.43
      vertex 14.87 -4.25 10.475
    endloop
  endfacet
  facet normal 1 0 0
    outer loop
      vertex 14.87 -2.25 6.43
      vertex 14.87 -4.25 -2
      vertex 14.87 0 -2
    endloop
  endfacet
  facet normal 0 -1 0
    outer loop
      vertex -1 -4.25 10.475
      vertex 8.03185 -4.25 10.2671
      vertex 8.01 -4.25 10.475
    endloop
  endfacet
  facet normal 0 -1 0
    outer loop
      vertex 5.77211 -4.25 5.8275
      vertex 8.03185 -4.25 10.2671
      vertex -1 -4.25 10.475
    endloop
  endfacet
  facet normal 0 -1 -0
    outer loop
      vertex 8.03185 -4.25 10.2671
      vertex 5.77211 -4.25 5.8275
      vertex 8.09645 -4.25 10.0683
    endloop
  endfacet
  facet normal 0 -1 -0
    outer loop
      vertex 8.09645 -4.25 10.0683
      vertex 5.77211 -4.25 5.8275
      vertex 8.20098 -4.25 9.88721
    endloop
  endfacet
  facet normal 0 -1 0
    outer loop
      vertex 6.50447 -4.25 5.8275
      vertex 8.20098 -4.25 9.88721
      vertex 5.77211 -4.25 5.8275
    endloop
  endfacet
  facet normal 0 -1 -0
    outer loop
      vertex 8.20098 -4.25 9.88721
      vertex 6.50447 -4.25 5.8275
      vertex 8.34087 -4.25 9.73185
    endloop
  endfacet
  facet normal 0 -1 -0
    outer loop
      vertex 8.34087 -4.25 9.73185
      vertex 6.50447 -4.25 5.8275
      vertex 8.51 -4.25 9.60897
    endloop
  endfacet
  facet normal 0 -1 -0
    outer loop
      vertex 8.70098 -4.25 9.52394
      vertex 6.50447 -4.25 5.8275
      vertex 8.90547 -4.25 9.48048
    endloop
  endfacet
  facet normal 0 -1 -0
    outer loop
      vertex 8.51 -4.25 9.60897
      vertex 6.50447 -4.25 5.8275
      vertex 8.70098 -4.25 9.52394
    endloop
  endfacet
  facet normal 0 -1 0
    outer loop
      vertex -1 -4.25 10.475
      vertex 4.96648 -4.25 4.39937
      vertex 5.77211 -4.25 5.8275
    endloop
  endfacet
  facet normal 0 -1 0
    outer loop
      vertex -1 -4.25 -2
      vertex 4.96648 -4.25 4.39937
      vertex -1 -4.25 10.475
    endloop
  endfacet
  facet normal 0 -1 0
    outer loop
      vertex 4.96648 -4.25 3.72803
      vertex 5.77211 -4.25 -0.137268
      vertex 5.77211 -4.25 3.72803
    endloop
  endfacet
  facet normal 0 -1 -0
    outer loop
      vertex 4.96648 -4.25 4.39937
      vertex -1 -4.25 -2
      vertex 4.96648 -4.25 3.72803
    endloop
  endfacet
  facet normal 0 -1 -0
    outer loop
      vertex 5.77211 -4.25 -0.137268
      vertex -1 -4.25 -2
      vertex 6.37018 -4.25 -0.137268
    endloop
  endfacet
  facet normal 0 -1 -0
    outer loop
      vertex 4.96648 -4.25 3.72803
      vertex -1 -4.25 -2
      vertex 5.77211 -4.25 -0.137268
    endloop
  endfacet
  facet normal 0 -1 0
    outer loop
      vertex 9.98815 -4.25 10.2671
      vertex 14.87 -4.25 10.475
      vertex 10.01 -4.25 10.475
    endloop
  endfacet
  facet normal 0 -1 0
    outer loop
      vertex 9.92354 -4.25 10.0683
      vertex 14.87 -4.25 10.475
      vertex 9.98815 -4.25 10.2671
    endloop
  endfacet
  facet normal 0 -1 0
    outer loop
      vertex 9.81902 -4.25 9.88721
      vertex 14.87 -4.25 10.475
      vertex 9.92354 -4.25 10.0683
    endloop
  endfacet
  facet normal 0 -1 0
    outer loop
      vertex 9.67913 -4.25 9.73185
      vertex 14.87 -4.25 10.475
      vertex 9.81902 -4.25 9.88721
    endloop
  endfacet
  facet normal 0 -1 0
    outer loop
      vertex 9.0922 -4.25 4.39937
      vertex 9.67913 -4.25 9.73185
      vertex 9.51 -4.25 9.60897
    endloop
  endfacet
  facet normal 0 -1 0
    outer loop
      vertex 9.0922 -4.25 4.39937
      vertex 9.51 -4.25 9.60897
      vertex 9.31902 -4.25 9.52394
    endloop
  endfacet
  facet normal 0 -1 0
    outer loop
      vertex 9.0922 -4.25 4.39937
      vertex 9.31902 -4.25 9.52394
      vertex 9.11453 -4.25 9.48048
    endloop
  endfacet
  facet normal 0 -1 0
    outer loop
      vertex 9.0922 -4.25 4.39937
      vertex 8.90547 -4.25 9.48048
      vertex 6.50447 -4.25 5.8275
    endloop
  endfacet
  facet normal 0 -1 0
    outer loop
      vertex 8.90547 -4.25 9.48048
      vertex 9.0922 -4.25 4.39937
      vertex 9.11453 -4.25 9.48048
    endloop
  endfacet
  facet normal 0 -1 0
    outer loop
      vertex 9.0922 -4.25 4.39937
      vertex 6.50447 -4.25 5.8275
      vertex 6.50447 -4.25 4.39937
    endloop
  endfacet
  facet normal 0 -1 -0
    outer loop
      vertex 9.67913 -4.25 9.73185
      vertex 9.0922 -4.25 4.39937
      vertex 14.87 -4.25 10.475
    endloop
  endfacet
  facet normal 0 -1 0
    outer loop
      vertex 14.87 -4.25 -2
      vertex 9.0922 -4.25 4.39937
      vertex 9.0922 -4.25 3.72803
    endloop
  endfacet
  facet normal 0 -1 0
    outer loop
      vertex 14.87 -4.25 -2
      vertex 9.0922 -4.25 3.72803
      vertex 6.37018 -4.25 -0.137268
    endloop
  endfacet
  facet normal 0 -1 0
    outer loop
      vertex 9.0922 -4.25 4.39937
      vertex 14.87 -4.25 -2
      vertex 14.87 -4.25 10.475
    endloop
  endfacet
  facet normal 0 -1 0
    outer loop
      vertex 14.87 -4.25 -2
      vertex 6.37018 -4.25 -0.137268
      vertex -1 -4.25 -2
    endloop
  endfacet
  facet normal 0 -1 -0
    outer loop
      vertex 5.77211 -4.25 5.8275
      vertex 4.96648 -4.25 4.39937
      vertex 5.77211 -4.25 4.39937
    endloop
  endfacet
  facet normal 0 -1 0
    outer loop
      vertex 6.50447 -4.25 3.72803
      vertex 6.50447 -4.25 1.03859
      vertex 8.37201 -4.25 3.72803
    endloop
  endfacet
  facet normal 0.553629 -0.498482 0.667092
    outer loop
      vertex 8.46866 -3.85669 9.73185
      vertex 8.46866 -3.64878 9.88721
      vertex 8.35549 -3.77447 9.88721
    endloop
  endfacet
  facet normal 0.824812 -0.268015 0.497849
    outer loop
      vertex 8.21866 -4.0818 9.88721
      vertex 8.27093 -3.92094 9.88721
      vertex 8.11642 -4.06006 10.0683
    endloop
  endfacet
  facet normal -0.302991 -0.680553 0.667116
    outer loop
      vertex 9.34456 -3.67052 9.73185
      vertex 9.41451 -3.54937 9.88721
      vertex 9.26 -3.48058 9.88721
    endloop
  endfacet
  facet normal -0.707141 -0.636692 0.307532
    outer loop
      vertex 9.80134 -3.67506 10.2671
      vertex 9.66451 -3.52309 10.2671
      vertex 9.62128 -3.5711 10.0683
    endloop
  endfacet
  facet normal 0.561019 -0.182297 0.807481
    outer loop
      vertex 8.55323 -4.04663 9.60897
      vertex 8.39872 -3.97784 9.73185
      vertex 8.35549 -4.11088 9.73185
    endloop
  endfacet
  facet normal 0.303647 -0.273391 0.912719
    outer loop
      vertex 8.80323 -4.02036 9.52394
      vertex 8.67543 -3.87843 9.60897
      vertex 8.60549 -3.95611 9.60897
    endloop
  endfacet
  facet normal -0.824062 -0.475754 0.30754
    outer loop
      vertex 9.84456 -3.87843 10.0683
      vertex 9.90358 -3.85215 10.2671
      vertex 9.74907 -3.71303 10.0683
    endloop
  endfacet
  facet normal -0.387013 -0.869279 0.307529
    outer loop
      vertex 9.46677 -3.45885 10.0683
      vertex 9.49907 -3.4029 10.2671
      vertex 9.31226 -3.31973 10.2671
    endloop
  endfacet
  facet normal -0.353864 -0.204297 0.912712
    outer loop
      vertex 9.46677 -4.04663 9.60897
      vertex 9.41451 -3.95611 9.60897
      vertex 9.26 -4.06836 9.52394
    endloop
  endfacet
  facet normal -0.740891 -0.0778596 0.667097
    outer loop
      vertex 9.67913 -4.25 9.73185
      vertex 9.80134 -4.0818 9.88721
      vertex 9.66451 -4.11088 9.73185
    endloop
  endfacet
  facet normal -0.708507 -0.230222 0.667095
    outer loop
      vertex 9.66451 -4.11088 9.73185
      vertex 9.80134 -4.0818 9.88721
      vertex 9.62128 -3.97784 9.73185
    endloop
  endfacet
  facet normal 0.644515 -0.580305 0.497842
    outer loop
      vertex 8.35549 -3.77447 9.88721
      vertex 8.39872 -3.5711 10.0683
      vertex 8.27093 -3.71303 10.0683
    endloop
  endfacet
  facet normal 0.302995 -0.680561 0.667106
    outer loop
      vertex 8.67543 -3.67052 9.73185
      vertex 8.76 -3.48058 9.88721
      vertex 8.60549 -3.54937 9.88721
    endloop
  endfacet
  facet normal 0.824051 -0.475797 0.307501
    outer loop
      vertex 8.17543 -3.87843 10.0683
      vertex 8.27093 -3.71303 10.0683
      vertex 8.11642 -3.85215 10.2671
    endloop
  endfacet
  facet normal 0.904972 -0.294041 0.307516
    outer loop
      vertex 8.11642 -4.06006 10.0683
      vertex 8.11642 -3.85215 10.2671
      vertex 8.05323 -4.04663 10.2671
    endloop
  endfacet
  facet normal 0.206815 -0.972836 0.104008
    outer loop
      vertex 8.70774 -3.31973 10.2671
      vertex 8.90775 -3.27721 10.2671
      vertex 8.70098 -3.29894 10.475
    endloop
  endfacet
  facet normal -0.388599 -0.126263 0.912715
    outer loop
      vertex 9.49907 -4.14604 9.60897
      vertex 9.46677 -4.04663 9.60897
      vertex 9.31226 -4.18575 9.52394
    endloop
  endfacet
  facet normal -0.707141 -0.636691 0.307532
    outer loop
      vertex 9.74907 -3.71303 10.0683
      vertex 9.80134 -3.67506 10.2671
      vertex 9.62128 -3.5711 10.0683
    endloop
  endfacet
  facet normal -0.239952 -0.538901 0.807471
    outer loop
      vertex 9.34456 -3.67052 9.73185
      vertex 9.21677 -3.61362 9.73185
      vertex 9.16451 -3.77447 9.60897
    endloop
  endfacet
  facet normal 0.353864 -0.204297 0.912712
    outer loop
      vertex 8.76 -4.06836 9.52394
      vertex 8.60549 -3.95611 9.60897
      vertex 8.55323 -4.04663 9.60897
    endloop
  endfacet
  facet normal 0.904985 -0.294022 0.307495
    outer loop
      vertex 8.17543 -3.87843 10.0683
      vertex 8.11642 -3.85215 10.2671
      vertex 8.11642 -4.06006 10.0683
    endloop
  endfacet
  facet normal 0.645172 -0.372471 0.667097
    outer loop
      vertex 8.39872 -3.97784 9.73185
      vertex 8.35549 -3.77447 9.88721
      vertex 8.27093 -3.92094 9.88721
    endloop
  endfacet
  facet normal 0.388611 -0.126248 0.912712
    outer loop
      vertex 8.70774 -4.18575 9.52394
      vertex 8.7277 -4.12431 9.52394
      vertex 8.55323 -4.04663 9.60897
    endloop
  endfacet
  facet normal 0.353866 -0.204287 0.912713
    outer loop
      vertex 8.7277 -4.12431 9.52394
      vertex 8.76 -4.06836 9.52394
      vertex 8.55323 -4.04663 9.60897
    endloop
  endfacet
  facet normal 0.352739 -0.79229 0.497847
    outer loop
      vertex 8.76 -3.48058 9.88721
      vertex 8.7277 -3.38117 10.0683
      vertex 8.60549 -3.54937 9.88721
    endloop
  endfacet
  facet normal -0.206805 -0.972838 0.104008
    outer loop
      vertex 9.31226 -3.31973 10.2671
      vertex 9.31902 -3.29894 10.475
      vertex 9.11224 -3.27721 10.2671
    endloop
  endfacet
  facet normal -0.180338 -0.848314 0.497837
    outer loop
      vertex 9.26 -3.48058 9.88721
      vertex 9.10549 -3.34146 10.0683
      vertex 9.09456 -3.44541 9.88721
    endloop
  endfacet
  facet normal -0.197848 -0.930747 0.307516
    outer loop
      vertex 9.2923 -3.38117 10.0683
      vertex 9.31226 -3.31973 10.2671
      vertex 9.10549 -3.34146 10.0683
    endloop
  endfacet
  facet normal -0.862527 -0.0906394 0.497826
    outer loop
      vertex 9.92354 -4.25 10.0683
      vertex 9.90358 -4.06006 10.0683
      vertex 9.81902 -4.25 9.88721
    endloop
  endfacet
  facet normal -0.303635 -0.27342 0.912714
    outer loop
      vertex 9.41451 -3.95611 9.60897
      vertex 9.34456 -3.87843 9.60897
      vertex 9.21677 -4.02036 9.52394
    endloop
  endfacet
  facet normal -0.0435234 -0.204416 0.977916
    outer loop
      vertex 9.0423 -4.15059 9.48048
      vertex 9.0423 -3.94268 9.52394
      vertex 9.02093 -4.14604 9.48048
    endloop
  endfacet
  facet normal 0.352755 -0.79229 0.497836
    outer loop
      vertex 8.60549 -3.54937 9.88721
      vertex 8.7277 -3.38117 10.0683
      vertex 8.55323 -3.45885 10.0683
    endloop
  endfacet
  facet normal -0.584629 -0.804608 0.103998
    outer loop
      vertex 9.67913 -3.50686 10.475
      vertex 9.51 -3.38397 10.475
      vertex 9.49907 -3.4029 10.2671
    endloop
  endfacet
  facet normal -0.989131 -0.103986 0.103956
    outer loop
      vertex 9.98815 -4.25 10.2671
      vertex 10.01 -4.25 10.475
      vertex 9.96677 -4.04663 10.2671
    endloop
  endfacet
  facet normal -0.86135 -0.497256 0.103985
    outer loop
      vertex 9.92354 -3.84326 10.475
      vertex 9.81902 -3.66221 10.475
      vertex 9.80134 -3.67506 10.2671
    endloop
  endfacet
  facet normal -0.644515 -0.580305 0.497842
    outer loop
      vertex 9.66451 -3.77447 9.88721
      vertex 9.74907 -3.71303 10.0683
      vertex 9.62128 -3.5711 10.0683
    endloop
  endfacet
  facet normal -0.945904 -0.307341 0.103956
    outer loop
      vertex 9.96677 -4.04663 10.2671
      vertex 9.92354 -3.84326 10.475
      vertex 9.90358 -3.85215 10.2671
    endloop
  endfacet
  facet normal 0.946326 -0.0994953 0.307518
    outer loop
      vertex 8.09645 -4.25 10.0683
      vertex 8.11642 -4.06006 10.0683
      vertex 8.05323 -4.04663 10.2671
    endloop
  endfacet
  facet normal 0.387013 -0.869279 0.307529
    outer loop
      vertex 8.55323 -3.45885 10.0683
      vertex 8.70774 -3.31973 10.2671
      vertex 8.52093 -3.4029 10.2671
    endloop
  endfacet
  facet normal 0.559272 -0.769831 0.30753
    outer loop
      vertex 8.39872 -3.5711 10.0683
      vertex 8.52093 -3.4029 10.2671
      vertex 8.35549 -3.52309 10.2671
    endloop
  endfacet
  facet normal 0.824808 -0.267973 0.497878
    outer loop
      vertex 8.27093 -3.92094 9.88721
      vertex 8.17543 -3.87843 10.0683
      vertex 8.11642 -4.06006 10.0683
    endloop
  endfacet
  facet normal 0.240205 -0.330519 0.912721
    outer loop
      vertex 8.80323 -4.02036 9.52394
      vertex 8.85549 -3.98238 9.52394
      vertex 8.67543 -3.87843 9.60897
    endloop
  endfacet
  facet normal 0.645182 -0.372464 0.667091
    outer loop
      vertex 8.39872 -3.97784 9.73185
      vertex 8.46866 -3.85669 9.73185
      vertex 8.35549 -3.77447 9.88721
    endloop
  endfacet
  facet normal 0.740888 -0.0778769 0.667098
    outer loop
      vertex 8.35549 -4.11088 9.73185
      vertex 8.21866 -4.0818 9.88721
      vertex 8.20098 -4.25 9.88721
    endloop
  endfacet
  facet normal 0.862515 -0.0906615 0.497844
    outer loop
      vertex 8.20098 -4.25 9.88721
      vertex 8.21866 -4.0818 9.88721
      vertex 8.11642 -4.06006 10.0683
    endloop
  endfacet
  facet normal -0.240211 -0.330527 0.912716
    outer loop
      vertex 9.21677 -4.02036 9.52394
      vertex 9.34456 -3.87843 9.60897
      vertex 9.16451 -3.98238 9.52394
    endloop
  endfacet
  facet normal 0.586667 -0.0616523 0.807478
    outer loop
      vertex 8.51 -4.25 9.60897
      vertex 8.35549 -4.11088 9.73185
      vertex 8.34087 -4.25 9.73185
    endloop
  endfacet
  facet normal -0.406351 -0.0427539 0.912716
    outer loop
      vertex 9.31902 -4.25 9.52394
      vertex 9.49907 -4.14604 9.60897
      vertex 9.31226 -4.18575 9.52394
    endloop
  endfacet
  facet normal 0.155267 -0.139874 0.97792
    outer loop
      vertex 8.92543 -4.18856 9.48048
      vertex 8.94006 -4.17232 9.48048
      vertex 8.80323 -4.02036 9.52394
    endloop
  endfacet
  facet normal -0.239959 -0.538892 0.807474
    outer loop
      vertex 9.26 -3.81699 9.60897
      vertex 9.34456 -3.67052 9.73185
      vertex 9.16451 -3.77447 9.60897
    endloop
  endfacet
  facet normal 0 -0.74497 0.667098
    outer loop
      vertex 8.94006 -3.58453 9.73185
      vertex 9.09456 -3.44541 9.88721
      vertex 8.92543 -3.44541 9.88721
    endloop
  endfacet
  facet normal 0 -0.74497 0.667098
    outer loop
      vertex 9.09456 -3.44541 9.88721
      vertex 8.94006 -3.58453 9.73185
      vertex 9.07994 -3.58453 9.73185
    endloop
  endfacet
  facet normal -0.180325 -0.848311 0.497847
    outer loop
      vertex 9.26 -3.48058 9.88721
      vertex 9.2923 -3.38117 10.0683
      vertex 9.10549 -3.34146 10.0683
    endloop
  endfacet
  facet normal -0.553629 -0.498482 0.667092
    outer loop
      vertex 9.66451 -3.77447 9.88721
      vertex 9.55134 -3.64878 9.88721
      vertex 9.55134 -3.85669 9.73185
    endloop
  endfacet
  facet normal -0.437863 -0.602684 0.667119
    outer loop
      vertex 9.55134 -3.64878 9.88721
      vertex 9.41451 -3.54937 9.88721
      vertex 9.34456 -3.67052 9.73185
    endloop
  endfacet
  facet normal -0.197856 -0.930743 0.307524
    outer loop
      vertex 9.31226 -3.31973 10.2671
      vertex 9.11224 -3.27721 10.2671
      vertex 9.10549 -3.34146 10.0683
    endloop
  endfacet
  facet normal -0.352739 -0.79229 0.497847
    outer loop
      vertex 9.41451 -3.54937 9.88721
      vertex 9.2923 -3.38117 10.0683
      vertex 9.26 -3.48058 9.88721
    endloop
  endfacet
  facet normal -0.645182 -0.372464 0.667091
    outer loop
      vertex 9.62128 -3.97784 9.73185
      vertex 9.66451 -3.77447 9.88721
      vertex 9.55134 -3.85669 9.73185
    endloop
  endfacet
  facet normal -0.751083 -0.433621 0.497842
    outer loop
      vertex 9.84456 -3.87843 10.0683
      vertex 9.74907 -3.71303 10.0683
      vertex 9.74907 -3.92094 9.88721
    endloop
  endfacet
  facet normal -0.404532 -0.908591 0.103998
    outer loop
      vertex 9.49907 -3.4029 10.2671
      vertex 9.51 -3.38397 10.475
      vertex 9.31902 -3.29894 10.475
    endloop
  endfacet
  facet normal 0.206759 -0.972854 0.103952
    outer loop
      vertex 8.90775 -3.27721 10.2671
      vertex 8.90547 -3.25548 10.475
      vertex 8.70098 -3.29894 10.475
    endloop
  endfacet
  facet normal -0.510874 -0.294928 0.807481
    outer loop
      vertex 9.62128 -3.97784 9.73185
      vertex 9.55134 -3.85669 9.73185
      vertex 9.46677 -4.04663 9.60897
    endloop
  endfacet
  facet normal -0.862515 -0.0906615 0.497844
    outer loop
      vertex 9.81902 -4.25 9.88721
      vertex 9.90358 -4.06006 10.0683
      vertex 9.80134 -4.0818 9.88721
    endloop
  endfacet
  facet normal -0.708507 -0.230223 0.667095
    outer loop
      vertex 9.80134 -4.0818 9.88721
      vertex 9.74907 -3.92094 9.88721
      vertex 9.62128 -3.97784 9.73185
    endloop
  endfacet
  facet normal -0.946316 -0.0994849 0.307553
    outer loop
      vertex 9.98815 -4.25 10.2671
      vertex 9.96677 -4.04663 10.2671
      vertex 9.92354 -4.25 10.0683
    endloop
  endfacet
  facet normal -0.404518 -0.908596 0.104013
    outer loop
      vertex 9.49907 -3.4029 10.2671
      vertex 9.31902 -3.29894 10.475
      vertex 9.31226 -3.31973 10.2671
    endloop
  endfacet
  facet normal -0.739087 -0.665535 0.103988
    outer loop
      vertex 9.80134 -3.67506 10.2671
      vertex 9.81902 -3.66221 10.475
      vertex 9.67913 -3.50686 10.475
    endloop
  endfacet
  facet normal -0.739131 -0.665495 0.10393
    outer loop
      vertex 9.80134 -3.67506 10.2671
      vertex 9.67913 -3.50686 10.475
      vertex 9.66451 -3.52309 10.2671
    endloop
  endfacet
  facet normal 0.94633 -0.0994863 0.30751
    outer loop
      vertex 8.09645 -4.25 10.0683
      vertex 8.05323 -4.04663 10.2671
      vertex 8.03185 -4.25 10.2671
    endloop
  endfacet
  facet normal -0.206759 -0.972853 0.103961
    outer loop
      vertex 9.31902 -3.29894 10.475
      vertex 9.11453 -3.25548 10.475
      vertex 9.11224 -3.27721 10.2671
    endloop
  endfacet
  facet normal 0.387032 -0.869277 0.307513
    outer loop
      vertex 8.7277 -3.38117 10.0683
      vertex 8.70774 -3.31973 10.2671
      vertex 8.55323 -3.45885 10.0683
    endloop
  endfacet
  facet normal 0.707141 -0.636692 0.307532
    outer loop
      vertex 8.39872 -3.5711 10.0683
      vertex 8.35549 -3.52309 10.2671
      vertex 8.21866 -3.67506 10.2671
    endloop
  endfacet
  facet normal 0.510874 -0.294928 0.807481
    outer loop
      vertex 8.55323 -4.04663 9.60897
      vertex 8.46866 -3.85669 9.73185
      vertex 8.39872 -3.97784 9.73185
    endloop
  endfacet
  facet normal 0.510862 -0.294936 0.807485
    outer loop
      vertex 8.55323 -4.04663 9.60897
      vertex 8.60549 -3.95611 9.60897
      vertex 8.46866 -3.85669 9.73185
    endloop
  endfacet
  facet normal 0.708507 -0.230223 0.667095
    outer loop
      vertex 8.39872 -3.97784 9.73185
      vertex 8.27093 -3.92094 9.88721
      vertex 8.21866 -4.0818 9.88721
    endloop
  endfacet
  facet normal 0.708507 -0.230222 0.667095
    outer loop
      vertex 8.35549 -4.11088 9.73185
      vertex 8.39872 -3.97784 9.73185
      vertex 8.21866 -4.0818 9.88721
    endloop
  endfacet
  facet normal 0.740881 -0.0778586 0.667108
    outer loop
      vertex 8.34087 -4.25 9.73185
      vertex 8.35549 -4.11088 9.73185
      vertex 8.20098 -4.25 9.88721
    endloop
  endfacet
  facet normal 0.303623 -0.273451 0.912709
    outer loop
      vertex 8.76 -4.06836 9.52394
      vertex 8.80323 -4.02036 9.52394
      vertex 8.60549 -3.95611 9.60897
    endloop
  endfacet
  facet normal 0.239936 -0.538906 0.807472
    outer loop
      vertex 8.85549 -3.77447 9.60897
      vertex 8.80323 -3.61362 9.73185
      vertex 8.67543 -3.67052 9.73185
    endloop
  endfacet
  facet normal 0.346716 -0.477242 0.807482
    outer loop
      vertex 8.76 -3.81699 9.60897
      vertex 8.67543 -3.67052 9.73185
      vertex 8.67543 -3.87843 9.60897
    endloop
  endfacet
  facet normal 0.438364 -0.394717 0.807487
    outer loop
      vertex 8.60549 -3.95611 9.60897
      vertex 8.56226 -3.75274 9.73185
      vertex 8.46866 -3.85669 9.73185
    endloop
  endfacet
  facet normal -0.154908 -0.728689 0.667095
    outer loop
      vertex 9.26 -3.48058 9.88721
      vertex 9.09456 -3.44541 9.88721
      vertex 9.07994 -3.58453 9.73185
    endloop
  endfacet
  facet normal -0.437846 -0.602717 0.667101
    outer loop
      vertex 9.45774 -3.75274 9.73185
      vertex 9.55134 -3.64878 9.88721
      vertex 9.34456 -3.67052 9.73185
    endloop
  endfacet
  facet normal 0.824061 -0.475758 0.307536
    outer loop
      vertex 8.27093 -3.71303 10.0683
      vertex 8.21866 -3.67506 10.2671
      vertex 8.11642 -3.85215 10.2671
    endloop
  endfacet
  facet normal 0.437871 -0.602695 0.667104
    outer loop
      vertex 8.67543 -3.67052 9.73185
      vertex 8.60549 -3.54937 9.88721
      vertex 8.46866 -3.64878 9.88721
    endloop
  endfacet
  facet normal 0.509755 -0.701638 0.497849
    outer loop
      vertex 8.46866 -3.64878 9.88721
      vertex 8.60549 -3.54937 9.88721
      vertex 8.39872 -3.5711 10.0683
    endloop
  endfacet
  facet normal 0.180325 -0.848311 0.497847
    outer loop
      vertex 8.76 -3.48058 9.88721
      vertex 8.91451 -3.34146 10.0683
      vertex 8.7277 -3.38117 10.0683
    endloop
  endfacet
  facet normal -0.644508 -0.580308 0.497848
    outer loop
      vertex 9.66451 -3.77447 9.88721
      vertex 9.62128 -3.5711 10.0683
      vertex 9.55134 -3.64878 9.88721
    endloop
  endfacet
  facet normal -0.509755 -0.701638 0.497849
    outer loop
      vertex 9.55134 -3.64878 9.88721
      vertex 9.62128 -3.5711 10.0683
      vertex 9.41451 -3.54937 9.88721
    endloop
  endfacet
  facet normal 0 -0.951539 0.307527
    outer loop
      vertex 8.91451 -3.34146 10.0683
      vertex 9.11224 -3.27721 10.2671
      vertex 8.90775 -3.27721 10.2671
    endloop
  endfacet
  facet normal 0 -0.951539 0.307527
    outer loop
      vertex 9.11224 -3.27721 10.2671
      vertex 8.91451 -3.34146 10.0683
      vertex 9.10549 -3.34146 10.0683
    endloop
  endfacet
  facet normal 0 -0.867272 0.497835
    outer loop
      vertex 8.92543 -3.44541 9.88721
      vertex 9.10549 -3.34146 10.0683
      vertex 8.91451 -3.34146 10.0683
    endloop
  endfacet
  facet normal 0 -0.867272 0.497835
    outer loop
      vertex 9.10549 -3.34146 10.0683
      vertex 8.92543 -3.44541 9.88721
      vertex 9.09456 -3.44541 9.88721
    endloop
  endfacet
  facet normal -0.559274 -0.76983 0.307528
    outer loop
      vertex 9.62128 -3.5711 10.0683
      vertex 9.49907 -3.4029 10.2671
      vertex 9.46677 -3.45885 10.0683
    endloop
  endfacet
  facet normal -0.509745 -0.701655 0.497836
    outer loop
      vertex 9.62128 -3.5711 10.0683
      vertex 9.46677 -3.45885 10.0683
      vertex 9.41451 -3.54937 9.88721
    endloop
  endfacet
  facet normal -0.55361 -0.498489 0.667101
    outer loop
      vertex 9.55134 -3.85669 9.73185
      vertex 9.55134 -3.64878 9.88721
      vertex 9.45774 -3.75274 9.73185
    endloop
  endfacet
  facet normal -0.346752 -0.477235 0.807471
    outer loop
      vertex 9.34456 -3.87843 9.60897
      vertex 9.34456 -3.67052 9.73185
      vertex 9.26 -3.81699 9.60897
    endloop
  endfacet
  facet normal -0.74088 -0.0778761 0.667107
    outer loop
      vertex 9.81902 -4.25 9.88721
      vertex 9.80134 -4.0818 9.88721
      vertex 9.67913 -4.25 9.73185
    endloop
  endfacet
  facet normal -0.824812 -0.26802 0.497846
    outer loop
      vertex 9.90358 -4.06006 10.0683
      vertex 9.84456 -3.87843 10.0683
      vertex 9.74907 -3.92094 9.88721
    endloop
  endfacet
  facet normal -0.561019 -0.182297 0.807481
    outer loop
      vertex 9.66451 -4.11088 9.73185
      vertex 9.62128 -3.97784 9.73185
      vertex 9.46677 -4.04663 9.60897
    endloop
  endfacet
  facet normal -0.586666 -0.06168 0.807477
    outer loop
      vertex 9.51 -4.25 9.60897
      vertex 9.67913 -4.25 9.73185
      vertex 9.49907 -4.14604 9.60897
    endloop
  endfacet
  facet normal -0.904957 -0.294063 0.307538
    outer loop
      vertex 9.90358 -4.06006 10.0683
      vertex 9.90358 -3.85215 10.2671
      vertex 9.84456 -3.87843 10.0683
    endloop
  endfacet
  facet normal -0.824812 -0.268015 0.497849
    outer loop
      vertex 9.80134 -4.0818 9.88721
      vertex 9.90358 -4.06006 10.0683
      vertex 9.74907 -3.92094 9.88721
    endloop
  endfacet
  facet normal -0.989131 -0.103951 0.10399
    outer loop
      vertex 10.01 -4.25 10.475
      vertex 9.98815 -4.04209 10.475
      vertex 9.96677 -4.04663 10.2671
    endloop
  endfacet
  facet normal -0.945892 -0.307369 0.103986
    outer loop
      vertex 9.96677 -4.04663 10.2671
      vertex 9.98815 -4.04209 10.475
      vertex 9.92354 -3.84326 10.475
    endloop
  endfacet
  facet normal -0.861339 -0.49728 0.103959
    outer loop
      vertex 9.90358 -3.85215 10.2671
      vertex 9.92354 -3.84326 10.475
      vertex 9.80134 -3.67506 10.2671
    endloop
  endfacet
  facet normal -0.824061 -0.475758 0.307536
    outer loop
      vertex 9.90358 -3.85215 10.2671
      vertex 9.80134 -3.67506 10.2671
      vertex 9.74907 -3.71303 10.0683
    endloop
  endfacet
  facet normal 0.404518 -0.908596 0.104013
    outer loop
      vertex 8.70774 -3.31973 10.2671
      vertex 8.70098 -3.29894 10.475
      vertex 8.52093 -3.4029 10.2671
    endloop
  endfacet
  facet normal 0.862503 -0.0906823 0.49786
    outer loop
      vertex 8.20098 -4.25 9.88721
      vertex 8.11642 -4.06006 10.0683
      vertex 8.09645 -4.25 10.0683
    endloop
  endfacet
  facet normal 0.989131 -0.103986 0.103956
    outer loop
      vertex 8.03185 -4.25 10.2671
      vertex 8.05323 -4.04663 10.2671
      vertex 8.01 -4.25 10.475
    endloop
  endfacet
  facet normal 0.989131 -0.103951 0.10399
    outer loop
      vertex 8.05323 -4.04663 10.2671
      vertex 8.03185 -4.04209 10.475
      vertex 8.01 -4.25 10.475
    endloop
  endfacet
  facet normal 0.9459 -0.30734 0.104001
    outer loop
      vertex 8.11642 -3.85215 10.2671
      vertex 8.09645 -3.84326 10.475
      vertex 8.05323 -4.04663 10.2671
    endloop
  endfacet
  facet normal 0.945906 -0.307325 0.103986
    outer loop
      vertex 8.05323 -4.04663 10.2671
      vertex 8.09645 -3.84326 10.475
      vertex 8.03185 -4.04209 10.475
    endloop
  endfacet
  facet normal 0.584569 -0.804651 0.103999
    outer loop
      vertex 8.52093 -3.4029 10.2671
      vertex 8.51 -3.38397 10.475
      vertex 8.35549 -3.52309 10.2671
    endloop
  endfacet
  facet normal 0.739091 -0.665539 0.103931
    outer loop
      vertex 8.35549 -3.52309 10.2671
      vertex 8.34087 -3.50686 10.475
      vertex 8.20098 -3.66221 10.475
    endloop
  endfacet
  facet normal 0.561017 -0.182284 0.807485
    outer loop
      vertex 8.52093 -4.14604 9.60897
      vertex 8.55323 -4.04663 9.60897
      vertex 8.35549 -4.11088 9.73185
    endloop
  endfacet
  facet normal 0.388599 -0.126263 0.912715
    outer loop
      vertex 8.70774 -4.18575 9.52394
      vertex 8.55323 -4.04663 9.60897
      vertex 8.52093 -4.14604 9.60897
    endloop
  endfacet
  facet normal 0.240165 -0.330578 0.91271
    outer loop
      vertex 8.85549 -3.98238 9.52394
      vertex 8.76 -3.81699 9.60897
      vertex 8.67543 -3.87843 9.60897
    endloop
  endfacet
  facet normal 0.181002 -0.104469 0.977918
    outer loop
      vertex 8.91451 -4.20748 9.48048
      vertex 8.92543 -4.18856 9.48048
      vertex 8.76 -4.06836 9.52394
    endloop
  endfacet
  facet normal -0.0850217 -0.190892 0.977922
    outer loop
      vertex 9.06226 -4.15948 9.48048
      vertex 9.16451 -3.98238 9.52394
      vertex 9.0423 -4.15059 9.48048
    endloop
  endfacet
  facet normal 0.154917 -0.728681 0.667101
    outer loop
      vertex 8.80323 -3.61362 9.73185
      vertex 8.94006 -3.58453 9.73185
      vertex 8.76 -3.48058 9.88721
    endloop
  endfacet
  facet normal -0.346697 -0.477246 0.807488
    outer loop
      vertex 9.45774 -3.75274 9.73185
      vertex 9.34456 -3.67052 9.73185
      vertex 9.34456 -3.87843 9.60897
    endloop
  endfacet
  facet normal 0.155289 -0.139857 0.977919
    outer loop
      vertex 8.92543 -4.18856 9.48048
      vertex 8.80323 -4.02036 9.52394
      vertex 8.76 -4.06836 9.52394
    endloop
  endfacet
  facet normal 0.55361 -0.498489 0.667101
    outer loop
      vertex 8.56226 -3.75274 9.73185
      vertex 8.46866 -3.64878 9.88721
      vertex 8.46866 -3.85669 9.73185
    endloop
  endfacet
  facet normal 0.43787 -0.602697 0.667103
    outer loop
      vertex 8.56226 -3.75274 9.73185
      vertex 8.67543 -3.67052 9.73185
      vertex 8.46866 -3.64878 9.88721
    endloop
  endfacet
  facet normal 0.644508 -0.580308 0.497848
    outer loop
      vertex 8.46866 -3.64878 9.88721
      vertex 8.39872 -3.5711 10.0683
      vertex 8.35549 -3.77447 9.88721
    endloop
  endfacet
  facet normal 0.861335 -0.497278 0.104
    outer loop
      vertex 8.11642 -3.85215 10.2671
      vertex 8.21866 -3.67506 10.2671
      vertex 8.09645 -3.84326 10.475
    endloop
  endfacet
  facet normal 0.584633 -0.804614 0.103926
    outer loop
      vertex 8.35549 -3.52309 10.2671
      vertex 8.51 -3.38397 10.475
      vertex 8.34087 -3.50686 10.475
    endloop
  endfacet
  facet normal 0.197848 -0.930747 0.307516
    outer loop
      vertex 8.7277 -3.38117 10.0683
      vertex 8.91451 -3.34146 10.0683
      vertex 8.70774 -3.31973 10.2671
    endloop
  endfacet
  facet normal 0.197865 -0.930738 0.307533
    outer loop
      vertex 8.91451 -3.34146 10.0683
      vertex 8.90775 -3.27721 10.2671
      vertex 8.70774 -3.31973 10.2671
    endloop
  endfacet
  facet normal -0.387032 -0.869277 0.307513
    outer loop
      vertex 9.46677 -3.45885 10.0683
      vertex 9.31226 -3.31973 10.2671
      vertex 9.2923 -3.38117 10.0683
    endloop
  endfacet
  facet normal -0.352755 -0.79229 0.497836
    outer loop
      vertex 9.41451 -3.54937 9.88721
      vertex 9.46677 -3.45885 10.0683
      vertex 9.2923 -3.38117 10.0683
    endloop
  endfacet
  facet normal -0.406366 -0.042724 0.912711
    outer loop
      vertex 9.51 -4.25 9.60897
      vertex 9.49907 -4.14604 9.60897
      vertex 9.31902 -4.25 9.52394
    endloop
  endfacet
  facet normal -0.438345 -0.394725 0.807494
    outer loop
      vertex 9.41451 -3.95611 9.60897
      vertex 9.45774 -3.75274 9.73185
      vertex 9.34456 -3.87843 9.60897
    endloop
  endfacet
  facet normal -0.303623 -0.273451 0.912709
    outer loop
      vertex 9.26 -4.06836 9.52394
      vertex 9.41451 -3.95611 9.60897
      vertex 9.21677 -4.02036 9.52394
    endloop
  endfacet
  facet normal -0.645172 -0.372471 0.667097
    outer loop
      vertex 9.74907 -3.92094 9.88721
      vertex 9.66451 -3.77447 9.88721
      vertex 9.62128 -3.97784 9.73185
    endloop
  endfacet
  facet normal -0.751088 -0.433618 0.497838
    outer loop
      vertex 9.74907 -3.92094 9.88721
      vertex 9.74907 -3.71303 10.0683
      vertex 9.66451 -3.77447 9.88721
    endloop
  endfacet
  facet normal -0.586656 -0.0616511 0.807487
    outer loop
      vertex 9.67913 -4.25 9.73185
      vertex 9.66451 -4.11088 9.73185
      vertex 9.49907 -4.14604 9.60897
    endloop
  endfacet
  facet normal -0.561017 -0.182284 0.807485
    outer loop
      vertex 9.49907 -4.14604 9.60897
      vertex 9.66451 -4.11088 9.73185
      vertex 9.46677 -4.04663 9.60897
    endloop
  endfacet
  facet normal -0.904972 -0.294041 0.307516
    outer loop
      vertex 9.96677 -4.04663 10.2671
      vertex 9.90358 -3.85215 10.2671
      vertex 9.90358 -4.06006 10.0683
    endloop
  endfacet
  facet normal -0.946332 -0.0994461 0.307516
    outer loop
      vertex 9.92354 -4.25 10.0683
      vertex 9.96677 -4.04663 10.2671
      vertex 9.90358 -4.06006 10.0683
    endloop
  endfacet
  facet normal -0.559272 -0.769831 0.30753
    outer loop
      vertex 9.62128 -3.5711 10.0683
      vertex 9.66451 -3.52309 10.2671
      vertex 9.49907 -3.4029 10.2671
    endloop
  endfacet
  facet normal -0.584573 -0.804658 0.103925
    outer loop
      vertex 9.66451 -3.52309 10.2671
      vertex 9.67913 -3.50686 10.475
      vertex 9.49907 -3.4029 10.2671
    endloop
  endfacet
  facet normal 0.707141 -0.636691 0.307532
    outer loop
      vertex 8.27093 -3.71303 10.0683
      vertex 8.39872 -3.5711 10.0683
      vertex 8.21866 -3.67506 10.2671
    endloop
  endfacet
  facet normal 0.198764 -0.0645723 0.977918
    outer loop
      vertex 8.90775 -4.22827 9.48048
      vertex 8.7277 -4.12431 9.52394
      vertex 8.70774 -4.18575 9.52394
    endloop
  endfacet
  facet normal 0.180988 -0.104485 0.977919
    outer loop
      vertex 8.91451 -4.20748 9.48048
      vertex 8.76 -4.06836 9.52394
      vertex 8.7277 -4.12431 9.52394
    endloop
  endfacet
  facet normal 0.586651 -0.0616785 0.807488
    outer loop
      vertex 8.51 -4.25 9.60897
      vertex 8.52093 -4.14604 9.60897
      vertex 8.35549 -4.11088 9.73185
    endloop
  endfacet
  facet normal 0.438388 -0.394707 0.807479
    outer loop
      vertex 8.60549 -3.95611 9.60897
      vertex 8.67543 -3.87843 9.60897
      vertex 8.56226 -3.75274 9.73185
    endloop
  endfacet
  facet normal 0.346724 -0.477241 0.80748
    outer loop
      vertex 8.67543 -3.87843 9.60897
      vertex 8.67543 -3.67052 9.73185
      vertex 8.56226 -3.75274 9.73185
    endloop
  endfacet
  facet normal 0.154916 -0.728682 0.6671
    outer loop
      vertex 8.94006 -3.58453 9.73185
      vertex 8.92543 -3.44541 9.88721
      vertex 8.76 -3.48058 9.88721
    endloop
  endfacet
  facet normal 0.303004 -0.680562 0.667101
    outer loop
      vertex 8.80323 -3.61362 9.73185
      vertex 8.76 -3.48058 9.88721
      vertex 8.67543 -3.67052 9.73185
    endloop
  endfacet
  facet normal -0.166148 -0.37328 0.91272
    outer loop
      vertex 9.16451 -3.98238 9.52394
      vertex 9.16451 -3.77447 9.60897
      vertex 9.10549 -3.95611 9.52394
    endloop
  endfacet
  facet normal 0.122671 -0.577007 0.807474
    outer loop
      vertex 8.85549 -3.77447 9.60897
      vertex 8.94006 -3.58453 9.73185
      vertex 8.80323 -3.61362 9.73185
    endloop
  endfacet
  facet normal -0.198773 -0.0645367 0.977918
    outer loop
      vertex 9.11224 -4.22827 9.48048
      vertex 9.2923 -4.12431 9.52394
      vertex 9.10549 -4.20748 9.48048
    endloop
  endfacet
  facet normal 0.751088 -0.433618 0.497838
    outer loop
      vertex 8.35549 -3.77447 9.88721
      vertex 8.27093 -3.71303 10.0683
      vertex 8.27093 -3.92094 9.88721
    endloop
  endfacet
  facet normal 0.751049 -0.433647 0.497871
    outer loop
      vertex 8.27093 -3.92094 9.88721
      vertex 8.27093 -3.71303 10.0683
      vertex 8.17543 -3.87843 10.0683
    endloop
  endfacet
  facet normal 0.509745 -0.701655 0.497836
    outer loop
      vertex 8.60549 -3.54937 9.88721
      vertex 8.55323 -3.45885 10.0683
      vertex 8.39872 -3.5711 10.0683
    endloop
  endfacet
  facet normal 0.559274 -0.76983 0.307528
    outer loop
      vertex 8.55323 -3.45885 10.0683
      vertex 8.52093 -3.4029 10.2671
      vertex 8.39872 -3.5711 10.0683
    endloop
  endfacet
  facet normal -0.438364 -0.394717 0.807487
    outer loop
      vertex 9.55134 -3.85669 9.73185
      vertex 9.45774 -3.75274 9.73185
      vertex 9.41451 -3.95611 9.60897
    endloop
  endfacet
  facet normal -0.510862 -0.294936 0.807485
    outer loop
      vertex 9.46677 -4.04663 9.60897
      vertex 9.55134 -3.85669 9.73185
      vertex 9.41451 -3.95611 9.60897
    endloop
  endfacet
  facet normal 0.861329 -0.497292 0.103985
    outer loop
      vertex 8.21866 -3.67506 10.2671
      vertex 8.20098 -3.66221 10.475
      vertex 8.09645 -3.84326 10.475
    endloop
  endfacet
  facet normal 0.739126 -0.665491 0.103989
    outer loop
      vertex 8.21866 -3.67506 10.2671
      vertex 8.35549 -3.52309 10.2671
      vertex 8.20098 -3.66221 10.475
    endloop
  endfacet
  facet normal 0.198736 -0.0646204 0.97792
    outer loop
      vertex 8.90775 -4.22827 9.48048
      vertex 8.91451 -4.20748 9.48048
      vertex 8.7277 -4.12431 9.52394
    endloop
  endfacet
  facet normal 0.18035 -0.848316 0.497829
    outer loop
      vertex 8.92543 -3.44541 9.88721
      vertex 8.91451 -3.34146 10.0683
      vertex 8.76 -3.48058 9.88721
    endloop
  endfacet
  facet normal 0.122622 -0.576995 0.80749
    outer loop
      vertex 8.95774 -3.75274 9.60897
      vertex 8.94006 -3.58453 9.73185
      vertex 8.85549 -3.77447 9.60897
    endloop
  endfacet
  facet normal -0.154917 -0.728681 0.667101
    outer loop
      vertex 9.21677 -3.61362 9.73185
      vertex 9.26 -3.48058 9.88721
      vertex 9.07994 -3.58453 9.73185
    endloop
  endfacet
  facet normal -0.303025 -0.680554 0.6671
    outer loop
      vertex 9.34456 -3.67052 9.73185
      vertex 9.26 -3.48058 9.88721
      vertex 9.21677 -3.61362 9.73185
    endloop
  endfacet
  facet normal -0.207832 -0.0218669 0.97792
    outer loop
      vertex 9.31902 -4.25 9.52394
      vertex 9.31226 -4.18575 9.52394
      vertex 9.11224 -4.22827 9.48048
    endloop
  endfacet
  facet normal -0.207836 -0.0219026 0.977918
    outer loop
      vertex 9.11453 -4.25 9.48048
      vertex 9.31902 -4.25 9.52394
      vertex 9.11224 -4.22827 9.48048
    endloop
  endfacet
  facet normal -0.155287 -0.139855 0.977919
    outer loop
      vertex 9.26 -4.06836 9.52394
      vertex 9.21677 -4.02036 9.52394
      vertex 9.07994 -4.17232 9.48048
    endloop
  endfacet
  facet normal -0.12286 -0.169054 0.977919
    outer loop
      vertex 9.21677 -4.02036 9.52394
      vertex 9.16451 -3.98238 9.52394
      vertex 9.07994 -4.17232 9.48048
    endloop
  endfacet
  facet normal 0.166213 -0.373275 0.91271
    outer loop
      vertex 8.85549 -3.98238 9.52394
      vertex 8.85549 -3.77447 9.60897
      vertex 8.76 -3.81699 9.60897
    endloop
  endfacet
  facet normal 0.239955 -0.538884 0.807481
    outer loop
      vertex 8.76 -3.81699 9.60897
      vertex 8.85549 -3.77447 9.60897
      vertex 8.67543 -3.67052 9.73185
    endloop
  endfacet
  facet normal 0 -0.20899 0.977918
    outer loop
      vertex 9.0423 -3.94268 9.52394
      vertex 8.99907 -4.14604 9.48048
      vertex 9.02093 -4.14604 9.48048
    endloop
  endfacet
  facet normal 0 -0.20899 0.977918
    outer loop
      vertex 8.99907 -4.14604 9.48048
      vertex 9.0423 -3.94268 9.52394
      vertex 8.9777 -3.94268 9.52394
    endloop
  endfacet
  facet normal -0.08498 -0.190922 0.97792
    outer loop
      vertex 9.16451 -3.98238 9.52394
      vertex 9.10549 -3.95611 9.52394
      vertex 9.0423 -4.15059 9.48048
    endloop
  endfacet
  facet normal 0.404532 -0.908591 0.103998
    outer loop
      vertex 8.52093 -3.4029 10.2671
      vertex 8.70098 -3.29894 10.475
      vertex 8.51 -3.38397 10.475
    endloop
  endfacet
  facet normal 0.207842 -0.0218679 0.977918
    outer loop
      vertex 8.90775 -4.22827 9.48048
      vertex 8.70774 -4.18575 9.52394
      vertex 8.70098 -4.25 9.52394
    endloop
  endfacet
  facet normal 0.12286 -0.169054 0.977919
    outer loop
      vertex 8.94006 -4.17232 9.48048
      vertex 8.85549 -3.98238 9.52394
      vertex 8.80323 -4.02036 9.52394
    endloop
  endfacet
  facet normal -0.122622 -0.576995 0.80749
    outer loop
      vertex 9.16451 -3.77447 9.60897
      vertex 9.07994 -3.58453 9.73185
      vertex 9.06226 -3.75274 9.60897
    endloop
  endfacet
  facet normal -0.122671 -0.577007 0.807474
    outer loop
      vertex 9.16451 -3.77447 9.60897
      vertex 9.21677 -3.61362 9.73185
      vertex 9.07994 -3.58453 9.73185
    endloop
  endfacet
  facet normal -0.388611 -0.126248 0.912712
    outer loop
      vertex 9.31226 -4.18575 9.52394
      vertex 9.46677 -4.04663 9.60897
      vertex 9.2923 -4.12431 9.52394
    endloop
  endfacet
  facet normal -0.198755 -0.0645694 0.97792
    outer loop
      vertex 9.31226 -4.18575 9.52394
      vertex 9.2923 -4.12431 9.52394
      vertex 9.11224 -4.22827 9.48048
    endloop
  endfacet
  facet normal 0.0849422 -0.399665 0.912717
    outer loop
      vertex 8.91451 -3.95611 9.52394
      vertex 8.9777 -3.94268 9.52394
      vertex 8.85549 -3.77447 9.60897
    endloop
  endfacet
  facet normal 0.122796 -0.169083 0.977922
    outer loop
      vertex 8.94006 -4.17232 9.48048
      vertex 8.95774 -4.15948 9.48048
      vertex 8.85549 -3.98238 9.52394
    endloop
  endfacet
  facet normal -0.122796 -0.169083 0.977922
    outer loop
      vertex 9.07994 -4.17232 9.48048
      vertex 9.16451 -3.98238 9.52394
      vertex 9.06226 -4.15948 9.48048
    endloop
  endfacet
  facet normal 0 -0.994582 0.103955
    outer loop
      vertex 8.90775 -3.27721 10.2671
      vertex 9.11453 -3.25548 10.475
      vertex 8.90547 -3.25548 10.475
    endloop
  endfacet
  facet normal 0 -0.994582 0.103955
    outer loop
      vertex 9.11453 -3.25548 10.475
      vertex 8.90775 -3.27721 10.2671
      vertex 9.11224 -3.27721 10.2671
    endloop
  endfacet
  facet normal 0 0 1
    outer loop
      vertex 9.10549 -4.20748 9.48048
      vertex 9.11453 -4.25 9.48048
      vertex 9.11224 -4.22827 9.48048
    endloop
  endfacet
  facet normal 0 0 1
    outer loop
      vertex 9.09456 -4.18856 9.48048
      vertex 9.11453 -4.25 9.48048
      vertex 9.10549 -4.20748 9.48048
    endloop
  endfacet
  facet normal 0 0 1
    outer loop
      vertex 9.07994 -4.17232 9.48048
      vertex 9.11453 -4.25 9.48048
      vertex 9.09456 -4.18856 9.48048
    endloop
  endfacet
  facet normal 0 0 1
    outer loop
      vertex 9.06226 -4.15948 9.48048
      vertex 9.11453 -4.25 9.48048
      vertex 9.07994 -4.17232 9.48048
    endloop
  endfacet
  facet normal 0 0 1
    outer loop
      vertex 9.0423 -4.15059 9.48048
      vertex 9.11453 -4.25 9.48048
      vertex 9.06226 -4.15948 9.48048
    endloop
  endfacet
  facet normal 0 0 1
    outer loop
      vertex 9.02093 -4.14604 9.48048
      vertex 9.11453 -4.25 9.48048
      vertex 9.0423 -4.15059 9.48048
    endloop
  endfacet
  facet normal -0 0 1
    outer loop
      vertex 8.99907 -4.14604 9.48048
      vertex 9.11453 -4.25 9.48048
      vertex 9.02093 -4.14604 9.48048
    endloop
  endfacet
  facet normal -0 0 1
    outer loop
      vertex 8.9777 -4.15059 9.48048
      vertex 9.11453 -4.25 9.48048
      vertex 8.99907 -4.14604 9.48048
    endloop
  endfacet
  facet normal -0 0 1
    outer loop
      vertex 8.95774 -4.15948 9.48048
      vertex 9.11453 -4.25 9.48048
      vertex 8.9777 -4.15059 9.48048
    endloop
  endfacet
  facet normal -0 0 1
    outer loop
      vertex 8.94006 -4.17232 9.48048
      vertex 9.11453 -4.25 9.48048
      vertex 8.95774 -4.15948 9.48048
    endloop
  endfacet
  facet normal -0 0 1
    outer loop
      vertex 8.92543 -4.18856 9.48048
      vertex 9.11453 -4.25 9.48048
      vertex 8.94006 -4.17232 9.48048
    endloop
  endfacet
  facet normal -0 0 1
    outer loop
      vertex 8.91451 -4.20748 9.48048
      vertex 9.11453 -4.25 9.48048
      vertex 8.92543 -4.18856 9.48048
    endloop
  endfacet
  facet normal -0 0 1
    outer loop
      vertex 8.90775 -4.22827 9.48048
      vertex 9.11453 -4.25 9.48048
      vertex 8.91451 -4.20748 9.48048
    endloop
  endfacet
  facet normal 0 0 1
    outer loop
      vertex 9.11453 -4.25 9.48048
      vertex 8.90775 -4.22827 9.48048
      vertex 8.90547 -4.25 9.48048
    endloop
  endfacet
  facet normal 0.406366 -0.042724 0.912711
    outer loop
      vertex 8.70098 -4.25 9.52394
      vertex 8.52093 -4.14604 9.60897
      vertex 8.51 -4.25 9.60897
    endloop
  endfacet
  facet normal 0.406351 -0.0427539 0.912716
    outer loop
      vertex 8.70098 -4.25 9.52394
      vertex 8.70774 -4.18575 9.52394
      vertex 8.52093 -4.14604 9.60897
    endloop
  endfacet
  facet normal 0.0435234 -0.204416 0.977916
    outer loop
      vertex 8.99907 -4.14604 9.48048
      vertex 8.9777 -3.94268 9.52394
      vertex 8.9777 -4.15059 9.48048
    endloop
  endfacet
  facet normal -0.240185 -0.330567 0.912709
    outer loop
      vertex 9.34456 -3.87843 9.60897
      vertex 9.26 -3.81699 9.60897
      vertex 9.16451 -3.98238 9.52394
    endloop
  endfacet
  facet normal -0.166213 -0.373275 0.91271
    outer loop
      vertex 9.26 -3.81699 9.60897
      vertex 9.16451 -3.77447 9.60897
      vertex 9.16451 -3.98238 9.52394
    endloop
  endfacet
  facet normal -0.15531 -0.139817 0.977921
    outer loop
      vertex 9.09456 -4.18856 9.48048
      vertex 9.26 -4.06836 9.52394
      vertex 9.07994 -4.17232 9.48048
    endloop
  endfacet
  facet normal -0.180946 -0.104532 0.977922
    outer loop
      vertex 9.10549 -4.20748 9.48048
      vertex 9.26 -4.06836 9.52394
      vertex 9.09456 -4.18856 9.48048
    endloop
  endfacet
  facet normal -0.180988 -0.104485 0.977919
    outer loop
      vertex 9.2923 -4.12431 9.52394
      vertex 9.26 -4.06836 9.52394
      vertex 9.10549 -4.20748 9.48048
    endloop
  endfacet
  facet normal -0.353866 -0.204287 0.912713
    outer loop
      vertex 9.2923 -4.12431 9.52394
      vertex 9.46677 -4.04663 9.60897
      vertex 9.26 -4.06836 9.52394
    endloop
  endfacet
  facet normal 0 -0.589883 0.807489
    outer loop
      vertex 9.07994 -3.58453 9.73185
      vertex 8.95774 -3.75274 9.60897
      vertex 9.06226 -3.75274 9.60897
    endloop
  endfacet
  facet normal 0 -0.589883 0.807489
    outer loop
      vertex 8.95774 -3.75274 9.60897
      vertex 9.07994 -3.58453 9.73185
      vertex 8.94006 -3.58453 9.73185
    endloop
  endfacet
  facet normal -0.0849368 -0.399668 0.912716
    outer loop
      vertex 9.16451 -3.77447 9.60897
      vertex 9.06226 -3.75274 9.60897
      vertex 9.0423 -3.94268 9.52394
    endloop
  endfacet
  facet normal 0.166148 -0.37328 0.91272
    outer loop
      vertex 8.91451 -3.95611 9.52394
      vertex 8.85549 -3.77447 9.60897
      vertex 8.85549 -3.98238 9.52394
    endloop
  endfacet
  facet normal 0.207836 -0.021807 0.977921
    outer loop
      vertex 8.90547 -4.25 9.48048
      vertex 8.90775 -4.22827 9.48048
      vertex 8.70098 -4.25 9.52394
    endloop
  endfacet
  facet normal 0.08498 -0.190922 0.97792
    outer loop
      vertex 8.9777 -4.15059 9.48048
      vertex 8.91451 -3.95611 9.52394
      vertex 8.85549 -3.98238 9.52394
    endloop
  endfacet
  facet normal 0.0434455 -0.204417 0.977919
    outer loop
      vertex 8.9777 -4.15059 9.48048
      vertex 8.9777 -3.94268 9.52394
      vertex 8.91451 -3.95611 9.52394
    endloop
  endfacet
  facet normal 0 -0.408594 0.912716
    outer loop
      vertex 9.06226 -3.75274 9.60897
      vertex 8.9777 -3.94268 9.52394
      vertex 9.0423 -3.94268 9.52394
    endloop
  endfacet
  facet normal 0 -0.408594 0.912716
    outer loop
      vertex 8.9777 -3.94268 9.52394
      vertex 9.06226 -3.75274 9.60897
      vertex 8.95774 -3.75274 9.60897
    endloop
  endfacet
  facet normal 0.0849368 -0.399668 0.912716
    outer loop
      vertex 8.9777 -3.94268 9.52394
      vertex 8.95774 -3.75274 9.60897
      vertex 8.85549 -3.77447 9.60897
    endloop
  endfacet
  facet normal -0.0849422 -0.399665 0.912717
    outer loop
      vertex 9.10549 -3.95611 9.52394
      vertex 9.16451 -3.77447 9.60897
      vertex 9.0423 -3.94268 9.52394
    endloop
  endfacet
  facet normal -0.0434455 -0.204417 0.977919
    outer loop
      vertex 9.10549 -3.95611 9.52394
      vertex 9.0423 -3.94268 9.52394
      vertex 9.0423 -4.15059 9.48048
    endloop
  endfacet
  facet normal 0.0850217 -0.190892 0.977922
    outer loop
      vertex 8.95774 -4.15948 9.48048
      vertex 8.9777 -4.15059 9.48048
      vertex 8.85549 -3.98238 9.52394
    endloop
  endfacet
  facet normal -0 0 1
    outer loop
      vertex -1 0 6.43
      vertex 14.87 -2.25 6.43
      vertex 14.87 0 6.43
    endloop
  endfacet
  facet normal 0 0 1
    outer loop
      vertex 14.87 -2.25 6.43
      vertex -1 0 6.43
      vertex -1 -2.25 6.43
    endloop
  endfacet
  facet normal 0 1 -0
    outer loop
      vertex 14.87 -2.25 6.43
      vertex -1 -2.25 10.475
      vertex 14.87 -2.25 10.475
    endloop
  endfacet
  facet normal 0 1 0
    outer loop
      vertex -1 -2.25 10.475
      vertex 14.87 -2.25 6.43
      vertex -1 -2.25 6.43
    endloop
  endfacet
  facet normal 0 -1 0
    outer loop
      vertex 5.77211 -3.75 3.72803
      vertex 6.50447 -3.75 1.03859
      vertex 6.50447 -3.75 3.72803
    endloop
  endfacet
  facet normal -0 -1 0
    outer loop
      vertex 6.50447 -3.75 1.03859
      vertex 5.77211 -3.75 3.72803
      vertex 5.77211 -3.75 -0.137268
    endloop
  endfacet
  facet normal 0 -1 0
    outer loop
      vertex 5.77211 -3.75 3.72803
      vertex 5.77211 -3.75 4.39937
      vertex 4.96648 -3.75 4.39937
    endloop
  endfacet
  facet normal 0 -1 0
    outer loop
      vertex 5.77211 -3.75 4.39937
      vertex 5.77211 -3.75 3.72803
      vertex 6.50447 -3.75 4.39937
    endloop
  endfacet
  facet normal 0 -1 0
    outer loop
      vertex 5.77211 -3.75 3.72803
      vertex 4.96648 -3.75 4.39937
      vertex 4.96648 -3.75 3.72803
    endloop
  endfacet
  facet normal 0 -1 -0
    outer loop
      vertex 6.50447 -3.75 4.39937
      vertex 5.77211 -3.75 3.72803
      vertex 6.50447 -3.75 3.72803
    endloop
  endfacet
  facet normal 0 -1 0
    outer loop
      vertex 8.37201 -3.75 3.72803
      vertex 6.50447 -3.75 4.39937
      vertex 6.50447 -3.75 3.72803
    endloop
  endfacet
  facet normal 0 -1 0
    outer loop
      vertex 6.50447 -3.75 4.39937
      vertex 8.37201 -3.75 3.72803
      vertex 9.0922 -3.75 4.39937
    endloop
  endfacet
  facet normal 0 -1 0
    outer loop
      vertex 8.37201 -3.75 3.72803
      vertex 9.0922 -3.75 3.72803
      vertex 9.0922 -3.75 4.39937
    endloop
  endfacet
  facet normal 0 -1 0
    outer loop
      vertex 6.50447 -3.75 1.03859
      vertex 9.0922 -3.75 3.72803
      vertex 8.37201 -3.75 3.72803
    endloop
  endfacet
  facet normal 0 -1 0
    outer loop
      vertex 6.37018 -3.75 -0.137268
      vertex 6.50447 -3.75 1.03859
      vertex 5.77211 -3.75 -0.137268
    endloop
  endfacet
  facet normal 0 -1 -0
    outer loop
      vertex 6.50447 -3.75 1.03859
      vertex 6.37018 -3.75 -0.137268
      vertex 9.0922 -3.75 3.72803
    endloop
  endfacet
  facet normal 0 -1 0
    outer loop
      vertex 5.77211 -3.75 4.39937
      vertex 6.50447 -3.75 5.8275
      vertex 5.77211 -3.75 5.8275
    endloop
  endfacet
  facet normal 0 -1 -0
    outer loop
      vertex 6.50447 -3.75 5.8275
      vertex 5.77211 -3.75 4.39937
      vertex 6.50447 -3.75 4.39937
    endloop
  endfacet
  facet normal 0 0 -1
    outer loop
      vertex 4.96648 -4.25 4.39937
      vertex 5.77211 -3.75 4.39937
      vertex 5.77211 -4.25 4.39937
    endloop
  endfacet
  facet normal -0 0 -1
    outer loop
      vertex 5.77211 -3.75 4.39937
      vertex 4.96648 -4.25 4.39937
      vertex 4.96648 -3.75 4.39937
    endloop
  endfacet
  facet normal 1 -0 0
    outer loop
      vertex 4.96648 -4.25 4.39937
      vertex 4.96648 -3.75 3.72803
      vertex 4.96648 -3.75 4.39937
    endloop
  endfacet
  facet normal 1 0 0
    outer loop
      vertex 4.96648 -3.75 3.72803
      vertex 4.96648 -4.25 4.39937
      vertex 4.96648 -4.25 3.72803
    endloop
  endfacet
  facet normal -0 0 1
    outer loop
      vertex 4.96648 -3.75 3.72803
      vertex 5.77211 -4.25 3.72803
      vertex 5.77211 -3.75 3.72803
    endloop
  endfacet
  facet normal 0 0 1
    outer loop
      vertex 5.77211 -4.25 3.72803
      vertex 4.96648 -3.75 3.72803
      vertex 4.96648 -4.25 3.72803
    endloop
  endfacet
  facet normal 1 -0 0
    outer loop
      vertex 5.77211 -4.25 3.72803
      vertex 5.77211 -3.75 -0.137268
      vertex 5.77211 -3.75 3.72803
    endloop
  endfacet
  facet normal 1 0 0
    outer loop
      vertex 5.77211 -3.75 -0.137268
      vertex 5.77211 -4.25 3.72803
      vertex 5.77211 -4.25 -0.137268
    endloop
  endfacet
  facet normal -0 0 1
    outer loop
      vertex 5.77211 -3.75 -0.137268
      vertex 6.37018 -4.25 -0.137268
      vertex 6.37018 -3.75 -0.137268
    endloop
  endfacet
  facet normal 0 0 1
    outer loop
      vertex 6.37018 -4.25 -0.137268
      vertex 5.77211 -3.75 -0.137268
      vertex 5.77211 -4.25 -0.137268
    endloop
  endfacet
  facet normal -0.817608 0 0.575776
    outer loop
      vertex 6.37018 -4.25 -0.137268
      vertex 9.0922 -3.75 3.72803
      vertex 6.37018 -3.75 -0.137268
    endloop
  endfacet
  facet normal -0.817608 0 0.575776
    outer loop
      vertex 9.0922 -3.75 3.72803
      vertex 6.37018 -4.25 -0.137268
      vertex 9.0922 -4.25 3.72803
    endloop
  endfacet
  facet normal -1 0 0
    outer loop
      vertex 9.0922 -4.25 3.72803
      vertex 9.0922 -3.75 4.39937
      vertex 9.0922 -3.75 3.72803
    endloop
  endfacet
  facet normal -1 -0 0
    outer loop
      vertex 9.0922 -3.75 4.39937
      vertex 9.0922 -4.25 3.72803
      vertex 9.0922 -4.25 4.39937
    endloop
  endfacet
  facet normal 0 0 -1
    outer loop
      vertex 6.50447 -4.25 4.39937
      vertex 9.0922 -3.75 4.39937
      vertex 9.0922 -4.25 4.39937
    endloop
  endfacet
  facet normal -0 0 -1
    outer loop
      vertex 9.0922 -3.75 4.39937
      vertex 6.50447 -4.25 4.39937
      vertex 6.50447 -3.75 4.39937
    endloop
  endfacet
  facet normal -1 0 0
    outer loop
      vertex 6.50447 -4.25 4.39937
      vertex 6.50447 -3.75 5.8275
      vertex 6.50447 -3.75 4.39937
    endloop
  endfacet
  facet normal -1 -0 0
    outer loop
      vertex 6.50447 -3.75 5.8275
      vertex 6.50447 -4.25 4.39937
      vertex 6.50447 -4.25 5.8275
    endloop
  endfacet
  facet normal 0 0 -1
    outer loop
      vertex 5.77211 -4.25 5.8275
      vertex 6.50447 -3.75 5.8275
      vertex 6.50447 -4.25 5.8275
    endloop
  endfacet
  facet normal -0 0 -1
    outer loop
      vertex 6.50447 -3.75 5.8275
      vertex 5.77211 -4.25 5.8275
      vertex 5.77211 -3.75 5.8275
    endloop
  endfacet
  facet normal 1 -0 0
    outer loop
      vertex 5.77211 -4.25 5.8275
      vertex 5.77211 -3.75 4.39937
      vertex 5.77211 -3.75 5.8275
    endloop
  endfacet
  facet normal 1 0 0
    outer loop
      vertex 5.77211 -3.75 4.39937
      vertex 5.77211 -4.25 5.8275
      vertex 5.77211 -4.25 4.39937
    endloop
  endfacet
  facet normal 0.821388 0 -0.57037
    outer loop
      vertex 8.37201 -4.25 3.72803
      vertex 6.50447 -3.75 1.03859
      vertex 8.37201 -3.75 3.72803
    endloop
  endfacet
  facet normal 0.821388 0 -0.57037
    outer loop
      vertex 6.50447 -3.75 1.03859
      vertex 8.37201 -4.25 3.72803
      vertex 6.50447 -4.25 1.03859
    endloop
  endfacet
  facet normal -1 0 0
    outer loop
      vertex 6.50447 -4.25 1.03859
      vertex 6.50447 -3.75 3.72803
      vertex 6.50447 -3.75 1.03859
    endloop
  endfacet
  facet normal -1 -0 0
    outer loop
      vertex 6.50447 -3.75 3.72803
      vertex 6.50447 -4.25 1.03859
      vertex 6.50447 -4.25 3.72803
    endloop
  endfacet
  facet normal -0 0 1
    outer loop
      vertex 6.50447 -3.75 3.72803
      vertex 8.37201 -4.25 3.72803
      vertex 8.37201 -3.75 3.72803
    endloop
  endfacet
  facet normal 0 0 1
    outer loop
      vertex 8.37201 -4.25 3.72803
      vertex 6.50447 -3.75 3.72803
      vertex 6.50447 -4.25 3.72803
    endloop
  endfacet
endsolid OpenSCAD_Model
