solid OpenSCAD_Model
  facet normal 1 0 0
    outer loop
      vertex 19.1 0 10.7
      vertex 19.1 0.799999 10.7
      vertex 19.1 0.784628 10.8561
    endloop
  endfacet
  facet normal 1 0 0
    outer loop
      vertex 19.1 0.207867 5.36089
      vertex 19.1 5.8 9.5
      vertex 19.1 0.799999 9.5
    endloop
  endfacet
  facet normal 1 0 0
    outer loop
      vertex 19.1 0 10.7
      vertex 19.1 0.784628 10.8561
      vertex 19.1 0.739103 11.0061
    endloop
  endfacet
  facet normal 1 0 0
    outer loop
      vertex 19.1 0 10.7
      vertex 19.1 0.739103 11.0061
      vertex 19.1 0.665175 11.1445
    endloop
  endfacet
  facet normal 1 0 0
    outer loop
      vertex 19.1 0 10.7
      vertex 19.1 0.665175 11.1445
      vertex 19.1 0.565685 11.2657
    endloop
  endfacet
  facet normal 1 0 0
    outer loop
      vertex 19.1 0 10.7
      vertex 19.1 0.565685 11.2657
      vertex 19.1 0.444456 11.3652
    endloop
  endfacet
  facet normal 1 0 0
    outer loop
      vertex 19.1 0 10.7
      vertex 19.1 0.444456 11.3652
      vertex 19.1 0.306147 11.4391
    endloop
  endfacet
  facet normal 1 0 0
    outer loop
      vertex 19.1 0.799999 10.7
      vertex 19.1 0 10.7
      vertex 19.1 0.799999 9.5
    endloop
  endfacet
  facet normal 1 0 -0
    outer loop
      vertex 19.1 0.25 5.222
      vertex 19.1 5.8 9.5
      vertex 19.1 0.245195 5.27077
    endloop
  endfacet
  facet normal 1 0 0
    outer loop
      vertex 19.1 5.8 9.5
      vertex 19.1 0.245195 5.17323
      vertex 19.1 5.8 -2
    endloop
  endfacet
  facet normal 1 -0 0
    outer loop
      vertex 19.1 0.230969 5.12633
      vertex 19.1 5.8 -2
      vertex 19.1 0.245195 5.17323
    endloop
  endfacet
  facet normal 1 -0 0
    outer loop
      vertex 19.1 0.207867 5.08311
      vertex 19.1 5.8 -2
      vertex 19.1 0.230969 5.12633
    endloop
  endfacet
  facet normal 1 -0 0
    outer loop
      vertex 19.1 0.176776 5.04522
      vertex 19.1 5.8 -2
      vertex 19.1 0.207867 5.08311
    endloop
  endfacet
  facet normal 1 -0 0
    outer loop
      vertex 19.1 0.138892 5.01413
      vertex 19.1 5.8 -2
      vertex 19.1 0.176776 5.04522
    endloop
  endfacet
  facet normal 1 0 0
    outer loop
      vertex 19.1 0 -2
      vertex 19.1 0.138892 5.01413
      vertex 19.1 0.0956707 4.99103
    endloop
  endfacet
  facet normal 1 0 0
    outer loop
      vertex 19.1 0 -2
      vertex 19.1 0.0956707 4.99103
      vertex 19.1 0.0487719 4.9768
    endloop
  endfacet
  facet normal 1 0 0
    outer loop
      vertex 19.1 0 -2
      vertex 19.1 0.0487719 4.9768
      vertex 19.1 0 4.972
    endloop
  endfacet
  facet normal 1 0 0
    outer loop
      vertex 19.1 0.138892 5.01413
      vertex 19.1 0 -2
      vertex 19.1 5.8 -2
    endloop
  endfacet
  facet normal 1 0 0
    outer loop
      vertex 19.1 0.245195 5.17323
      vertex 19.1 5.8 9.5
      vertex 19.1 0.25 5.222
    endloop
  endfacet
  facet normal 1 0 0
    outer loop
      vertex 19.1 5.8 9.5
      vertex 19.1 0.230969 5.31767
      vertex 19.1 0.245195 5.27077
    endloop
  endfacet
  facet normal 1 0 0
    outer loop
      vertex 19.1 0 5.472
      vertex 19.1 0.799999 9.5
      vertex 19.1 0 10.7
    endloop
  endfacet
  facet normal 1 0 0
    outer loop
      vertex 19.1 5.8 9.5
      vertex 19.1 0.207867 5.36089
      vertex 19.1 0.230969 5.31767
    endloop
  endfacet
  facet normal 1 0 0
    outer loop
      vertex 19.1 0 10.7
      vertex 19.1 0.306147 11.4391
      vertex 19.1 0.156072 11.4846
    endloop
  endfacet
  facet normal 1 0 0
    outer loop
      vertex 19.1 0.799999 9.5
      vertex 19.1 0.176776 5.39878
      vertex 19.1 0.207867 5.36089
    endloop
  endfacet
  facet normal 1 0 0
    outer loop
      vertex 19.1 0.799999 9.5
      vertex 19.1 0.138892 5.42987
      vertex 19.1 0.176776 5.39878
    endloop
  endfacet
  facet normal 1 0 0
    outer loop
      vertex 19.1 0.799999 9.5
      vertex 19.1 0.0956707 5.45297
      vertex 19.1 0.138892 5.42987
    endloop
  endfacet
  facet normal 1 0 0
    outer loop
      vertex 19.1 0 10.7
      vertex 19.1 0.156072 11.4846
      vertex 19.1 0 11.5
    endloop
  endfacet
  facet normal 1 0 0
    outer loop
      vertex 19.1 0.799999 9.5
      vertex 19.1 0.0487719 5.4672
      vertex 19.1 0.0956707 5.45297
    endloop
  endfacet
  facet normal 1 0 0
    outer loop
      vertex 19.1 0.799999 9.5
      vertex 19.1 0 5.472
      vertex 19.1 0.0487719 5.4672
    endloop
  endfacet
  facet normal -0 0 1
    outer loop
      vertex -1 5.8 9.5
      vertex 0 0.799999 9.5
      vertex 0 5.8 9.5
    endloop
  endfacet
  facet normal 0 0 1
    outer loop
      vertex 0 0.799999 9.5
      vertex -1 5.8 9.5
      vertex -1 0.799999 9.5
    endloop
  endfacet
  facet normal -0 0 1
    outer loop
      vertex 18.1 5.8 9.5
      vertex 19.1 0.799999 9.5
      vertex 19.1 5.8 9.5
    endloop
  endfacet
  facet normal 0 0 1
    outer loop
      vertex 19.1 0.799999 9.5
      vertex 18.1 5.8 9.5
      vertex 18.1 0.799999 9.5
    endloop
  endfacet
  facet normal 0 0 -1
    outer loop
      vertex 14.9174 -4.25 -2
      vertex -1 -4.25 -2
      vertex 14.9174 0 -2
    endloop
  endfacet
  facet normal 0 0 -1
    outer loop
      vertex 14.9174 0 -2
      vertex 19.1 5.8 -2
      vertex 19.1 0 -2
    endloop
  endfacet
  facet normal 0 0 -1
    outer loop
      vertex -1 5.8 -2
      vertex 14.9174 0 -2
      vertex -1 -4.25 -2
    endloop
  endfacet
  facet normal 0 0 -1
    outer loop
      vertex 14.9174 0 -2
      vertex -1 5.8 -2
      vertex 19.1 5.8 -2
    endloop
  endfacet
  facet normal -1 0 0
    outer loop
      vertex -1 0 5.472
      vertex -1 5.8 9.5
      vertex -1 5.8 -2
    endloop
  endfacet
  facet normal -1 0 0
    outer loop
      vertex -1 0 10.7
      vertex -1 0.799999 10.7
      vertex -1 0.799999 9.5
    endloop
  endfacet
  facet normal -1 0 0
    outer loop
      vertex -1 0.799999 10.7
      vertex -1 0 10.7
      vertex -1 0.784628 10.8561
    endloop
  endfacet
  facet normal -1 -0 0
    outer loop
      vertex -1 0.784628 10.8561
      vertex -1 0 10.7
      vertex -1 0.739103 11.0061
    endloop
  endfacet
  facet normal -1 -0 0
    outer loop
      vertex -1 0.739103 11.0061
      vertex -1 0 10.7
      vertex -1 0.665175 11.1445
    endloop
  endfacet
  facet normal -1 -0 0
    outer loop
      vertex -1 0.665175 11.1445
      vertex -1 0 10.7
      vertex -1 0.565685 11.2657
    endloop
  endfacet
  facet normal -1 -0 0
    outer loop
      vertex -1 0.565685 11.2657
      vertex -1 0 10.7
      vertex -1 0.444456 11.3652
    endloop
  endfacet
  facet normal -1 -0 0
    outer loop
      vertex -1 0.444456 11.3652
      vertex -1 0 10.7
      vertex -1 0.306147 11.4391
    endloop
  endfacet
  facet normal -1 0 0
    outer loop
      vertex -1 0 10.7
      vertex -1 0.799999 9.5
      vertex -1 0 5.472
    endloop
  endfacet
  facet normal -1 -0 0
    outer loop
      vertex -1 5.8 9.5
      vertex -1 0 5.472
      vertex -1 0.799999 9.5
    endloop
  endfacet
  facet normal -1 0 0
    outer loop
      vertex -1 -4.25 -2
      vertex -1 0 5.472
      vertex -1 5.8 -2
    endloop
  endfacet
  facet normal -1 0 0
    outer loop
      vertex -1 -4.25 12.02
      vertex -1 -2.25 6.572
      vertex -1 -2.25 5.472
    endloop
  endfacet
  facet normal -1 0 0
    outer loop
      vertex -1 -2.25 6.572
      vertex -1 -4.25 12.02
      vertex -1 -2.25 7.972
    endloop
  endfacet
  facet normal -1 -0 0
    outer loop
      vertex -1 0 5.472
      vertex -1 -4.25 -2
      vertex -1 -2.25 5.472
    endloop
  endfacet
  facet normal -1 0 0
    outer loop
      vertex -1 -4.25 12.02
      vertex -1 -2.25 5.472
      vertex -1 -4.25 -2
    endloop
  endfacet
  facet normal -1 0 0
    outer loop
      vertex -1 -2.25 7.972
      vertex -1 -4.25 12.02
      vertex -1 -2.25 12.02
    endloop
  endfacet
  facet normal -1 -0 0
    outer loop
      vertex -1 0.306147 11.4391
      vertex -1 0 10.7
      vertex -1 0.156072 11.4846
    endloop
  endfacet
  facet normal -1 0 0
    outer loop
      vertex -1 0 11.5
      vertex -1 0.156072 11.4846
      vertex -1 0 10.7
    endloop
  endfacet
  facet normal -1 0 0
    outer loop
      vertex -1 -1.46537 7.13544
      vertex -1 -1.46537 7.40856
      vertex -1 -1.45 7.272
    endloop
  endfacet
  facet normal -1 0 0
    outer loop
      vertex -1 -1.5109 7.00412
      vertex -1 -1.46537 7.40856
      vertex -1 -1.46537 7.13544
    endloop
  endfacet
  facet normal -1 0 0
    outer loop
      vertex -1 -1.5109 7.00412
      vertex -1 -1.5109 7.53988
      vertex -1 -1.46537 7.40856
    endloop
  endfacet
  facet normal -1 0 0
    outer loop
      vertex -1 -1.58482 6.8831
      vertex -1 -1.5109 7.53988
      vertex -1 -1.5109 7.00412
    endloop
  endfacet
  facet normal -1 0 0
    outer loop
      vertex -1 -1.58482 6.8831
      vertex -1 -1.58482 7.6609
      vertex -1 -1.5109 7.53988
    endloop
  endfacet
  facet normal -1 0 0
    outer loop
      vertex -1 -1.68431 6.77703
      vertex -1 -1.58482 7.6609
      vertex -1 -1.58482 6.8831
    endloop
  endfacet
  facet normal -1 0 0
    outer loop
      vertex -1 -1.68431 6.77703
      vertex -1 -1.68431 7.76697
      vertex -1 -1.58482 7.6609
    endloop
  endfacet
  facet normal -1 0 0
    outer loop
      vertex -1 -1.80554 6.68997
      vertex -1 -1.68431 7.76697
      vertex -1 -1.68431 6.77703
    endloop
  endfacet
  facet normal -1 0 0
    outer loop
      vertex -1 -1.80554 6.68997
      vertex -1 -1.80554 7.85403
      vertex -1 -1.68431 7.76697
    endloop
  endfacet
  facet normal -1 0 0
    outer loop
      vertex -1 -1.94385 6.62528
      vertex -1 -1.80554 7.85403
      vertex -1 -1.80554 6.68997
    endloop
  endfacet
  facet normal -1 0 0
    outer loop
      vertex -1 -1.94385 6.62528
      vertex -1 -1.94385 7.91872
      vertex -1 -1.80554 7.85403
    endloop
  endfacet
  facet normal -1 0 0
    outer loop
      vertex -1 -2.09393 6.58545
      vertex -1 -1.94385 7.91872
      vertex -1 -1.94385 6.62528
    endloop
  endfacet
  facet normal -1 0 0
    outer loop
      vertex -1 -2.09393 6.58545
      vertex -1 -2.09393 7.95855
      vertex -1 -1.94385 7.91872
    endloop
  endfacet
  facet normal -1 0 0
    outer loop
      vertex -1 -2.25 6.572
      vertex -1 -2.09393 7.95855
      vertex -1 -2.09393 6.58545
    endloop
  endfacet
  facet normal -1 -0 0
    outer loop
      vertex -1 -2.09393 7.95855
      vertex -1 -2.25 6.572
      vertex -1 -2.25 7.972
    endloop
  endfacet
  facet normal 0 1 0
    outer loop
      vertex 19.1 5.8 9.5
      vertex 18.1 5.8 0
      vertex 18.1 5.8 9.5
    endloop
  endfacet
  facet normal 0 1 0
    outer loop
      vertex 18.1 5.8 0
      vertex 19.1 5.8 -2
      vertex 0 5.8 0
    endloop
  endfacet
  facet normal 0 1 -0
    outer loop
      vertex 19.1 5.8 -2
      vertex 18.1 5.8 0
      vertex 19.1 5.8 9.5
    endloop
  endfacet
  facet normal 0 1 -0
    outer loop
      vertex 0 5.8 0
      vertex -1 5.8 9.5
      vertex 0 5.8 9.5
    endloop
  endfacet
  facet normal 0 1 0
    outer loop
      vertex 0 5.8 0
      vertex -1 5.8 -2
      vertex -1 5.8 9.5
    endloop
  endfacet
  facet normal 0 1 0
    outer loop
      vertex -1 5.8 -2
      vertex 0 5.8 0
      vertex 19.1 5.8 -2
    endloop
  endfacet
  facet normal 0 -1 0
    outer loop
      vertex -1 0 10.7
      vertex 14.9174 0 5.472
      vertex 19.1 0 10.7
    endloop
  endfacet
  facet normal 0 -1 0
    outer loop
      vertex 14.9174 0 5.472
      vertex -1 0 10.7
      vertex -1 0 5.472
    endloop
  endfacet
  facet normal 0 0 0
    outer loop
      vertex 14.9174 0 -2
      vertex 14.9174 0 4.972
      vertex 14.9174 0 5.472
    endloop
  endfacet
  facet normal 0 -1 0
    outer loop
      vertex 14.9174 0 -2
      vertex 19.1 0 4.972
      vertex 14.9174 0 4.972
    endloop
  endfacet
  facet normal 0 -1 -0
    outer loop
      vertex 19.1 0 4.972
      vertex 14.9174 0 -2
      vertex 19.1 0 -2
    endloop
  endfacet
  facet normal 0 -1 -0
    outer loop
      vertex 19.1 0 10.7
      vertex 14.9174 0 5.472
      vertex 19.1 0 5.472
    endloop
  endfacet
  facet normal -1 0 0
    outer loop
      vertex 18.1 0.799999 0
      vertex 18.1 5.8 9.5
      vertex 18.1 5.8 0
    endloop
  endfacet
  facet normal -1 -0 0
    outer loop
      vertex 18.1 5.8 9.5
      vertex 18.1 0.799999 0
      vertex 18.1 0.799999 9.5
    endloop
  endfacet
  facet normal -0 0 1
    outer loop
      vertex 0 5.8 0
      vertex 18.1 0.799999 0
      vertex 18.1 5.8 0
    endloop
  endfacet
  facet normal 0 0 1
    outer loop
      vertex 18.1 0.799999 0
      vertex 0 5.8 0
      vertex 0 0.799999 0
    endloop
  endfacet
  facet normal 1 -0 0
    outer loop
      vertex 0 0.799999 9.5
      vertex 0 5.8 0
      vertex 0 5.8 9.5
    endloop
  endfacet
  facet normal 1 0 0
    outer loop
      vertex 0 5.8 0
      vertex 0 0.799999 9.5
      vertex 0 0.799999 0
    endloop
  endfacet
  facet normal 0 1 -0
    outer loop
      vertex 18.1 0.799999 0
      vertex 0 0.799999 9.5
      vertex 18.1 0.799999 9.5
    endloop
  endfacet
  facet normal 0 1 0
    outer loop
      vertex 0 0.799999 9.5
      vertex 18.1 0.799999 0
      vertex 0 0.799999 0
    endloop
  endfacet
  facet normal -0 0 1
    outer loop
      vertex -1 0 11.5
      vertex 19.1 -9.68247e-06 11.5
      vertex 19.1 0 11.5
    endloop
  endfacet
  facet normal 0 0 1
    outer loop
      vertex 19.1 -9.68247e-06 11.5
      vertex -1 0 11.5
      vertex -1 -9.68247e-06 11.5
    endloop
  endfacet
  facet normal 0 0.772936 0.634484
    outer loop
      vertex 19.1 0.665175 11.1445
      vertex -1 0.565685 11.2657
      vertex 19.1 0.565685 11.2657
    endloop
  endfacet
  facet normal 0 0.772936 0.634484
    outer loop
      vertex -1 0.565685 11.2657
      vertex 19.1 0.665175 11.1445
      vertex -1 0.665175 11.1445
    endloop
  endfacet
  facet normal 0 0.882049 0.471157
    outer loop
      vertex 19.1 0.739103 11.0061
      vertex -1 0.665175 11.1445
      vertex 19.1 0.665175 11.1445
    endloop
  endfacet
  facet normal 0 0.882049 0.471157
    outer loop
      vertex -1 0.665175 11.1445
      vertex 19.1 0.739103 11.0061
      vertex -1 0.739103 11.0061
    endloop
  endfacet
  facet normal -0 0.0981955 0.995167
    outer loop
      vertex -1 0.156072 11.4846
      vertex 19.1 0 11.5
      vertex 19.1 0.156072 11.4846
    endloop
  endfacet
  facet normal 0 0.0981955 0.995167
    outer loop
      vertex 19.1 0 11.5
      vertex -1 0.156072 11.4846
      vertex -1 0 11.5
    endloop
  endfacet
  facet normal -0 0.471259 0.881995
    outer loop
      vertex -1 0.444456 11.3652
      vertex 19.1 0.306147 11.4391
      vertex 19.1 0.444456 11.3652
    endloop
  endfacet
  facet normal 0 0.471259 0.881995
    outer loop
      vertex 19.1 0.306147 11.4391
      vertex -1 0.444456 11.3652
      vertex -1 0.306147 11.4391
    endloop
  endfacet
  facet normal 0 0.9569 0.290419
    outer loop
      vertex 19.1 0.784628 10.8561
      vertex -1 0.739103 11.0061
      vertex 19.1 0.739103 11.0061
    endloop
  endfacet
  facet normal 0 0.9569 0.290419
    outer loop
      vertex -1 0.739103 11.0061
      vertex 19.1 0.784628 10.8561
      vertex -1 0.784628 10.8561
    endloop
  endfacet
  facet normal -0 0.634431 0.772979
    outer loop
      vertex -1 0.565685 11.2657
      vertex 19.1 0.444456 11.3652
      vertex 19.1 0.565685 11.2657
    endloop
  endfacet
  facet normal 0 0.634431 0.772979
    outer loop
      vertex 19.1 0.444456 11.3652
      vertex -1 0.565685 11.2657
      vertex -1 0.444456 11.3652
    endloop
  endfacet
  facet normal -0 0.29014 0.956984
    outer loop
      vertex -1 0.306147 11.4391
      vertex 19.1 0.156072 11.4846
      vertex 19.1 0.306147 11.4391
    endloop
  endfacet
  facet normal 0 0.29014 0.956984
    outer loop
      vertex 19.1 0.156072 11.4846
      vertex -1 0.306147 11.4391
      vertex -1 0.156072 11.4846
    endloop
  endfacet
  facet normal 0 0.995187 0.097995
    outer loop
      vertex 19.1 0.799999 10.7
      vertex -1 0.784628 10.8561
      vertex 19.1 0.784628 10.8561
    endloop
  endfacet
  facet normal 0 0.995187 0.097995
    outer loop
      vertex -1 0.784628 10.8561
      vertex 19.1 0.799999 10.7
      vertex -1 0.799999 10.7
    endloop
  endfacet
  facet normal 0 0 -1
    outer loop
      vertex -1 -9.68247e-06 11.5
      vertex 19.1 0 11.5
      vertex 19.1 -9.68247e-06 11.5
    endloop
  endfacet
  facet normal -0 0 -1
    outer loop
      vertex 19.1 0 11.5
      vertex -1 -9.68247e-06 11.5
      vertex -1 0 11.5
    endloop
  endfacet
  facet normal 0 -1 0
    outer loop
      vertex -1 0 10.7
      vertex 19.1 0 11.5
      vertex -1 0 11.5
    endloop
  endfacet
  facet normal 0 -1 -0
    outer loop
      vertex 19.1 0 11.5
      vertex -1 0 10.7
      vertex 19.1 0 10.7
    endloop
  endfacet
  facet normal 0 1 0
    outer loop
      vertex 18.1 0.799999 9.5
      vertex 19.1 0.799999 10.7
      vertex 19.1 0.799999 9.5
    endloop
  endfacet
  facet normal 0 1 0
    outer loop
      vertex 19.1 0.799999 10.7
      vertex 18.1 0.799999 9.5
      vertex -1 0.799999 10.7
    endloop
  endfacet
  facet normal 0 1 -0
    outer loop
      vertex 0 0.799999 9.5
      vertex -1 0.799999 10.7
      vertex 18.1 0.799999 9.5
    endloop
  endfacet
  facet normal 0 1 0
    outer loop
      vertex -1 0.799999 10.7
      vertex 0 0.799999 9.5
      vertex -1 0.799999 9.5
    endloop
  endfacet
  facet normal 0 -0.634386 -0.773016
    outer loop
      vertex 14.9174 0.138892 5.42987
      vertex 19.1 0.176776 5.39878
      vertex 19.1 0.138892 5.42987
    endloop
  endfacet
  facet normal -0 -0.634386 -0.773016
    outer loop
      vertex 19.1 0.176776 5.39878
      vertex 14.9174 0.138892 5.42987
      vertex 14.9174 0.176776 5.39878
    endloop
  endfacet
  facet normal 0 -0.471361 0.88194
    outer loop
      vertex 14.9174 0.138892 5.01413
      vertex 19.1 0.0956707 4.99103
      vertex 19.1 0.138892 5.01413
    endloop
  endfacet
  facet normal 0 -0.471361 0.88194
    outer loop
      vertex 19.1 0.0956707 4.99103
      vertex 14.9174 0.138892 5.01413
      vertex 14.9174 0.0956707 4.99103
    endloop
  endfacet
  facet normal 0 -0.0979441 0.995192
    outer loop
      vertex 14.9174 0.0487719 4.9768
      vertex 19.1 0 4.972
      vertex 19.1 0.0487719 4.9768
    endloop
  endfacet
  facet normal 0 -0.0979441 0.995192
    outer loop
      vertex 19.1 0 4.972
      vertex 14.9174 0.0487719 4.9768
      vertex 14.9174 0 4.972
    endloop
  endfacet
  facet normal 0 -0.956946 -0.290267
    outer loop
      vertex 14.9174 0.245195 5.27077
      vertex 19.1 0.230969 5.31767
      vertex 14.9174 0.230969 5.31767
    endloop
  endfacet
  facet normal 0 -0.956946 -0.290267
    outer loop
      vertex 19.1 0.230969 5.31767
      vertex 14.9174 0.245195 5.27077
      vertex 19.1 0.245195 5.27077
    endloop
  endfacet
  facet normal 0 -0.290348 0.956921
    outer loop
      vertex 14.9174 0.0956707 4.99103
      vertex 19.1 0.0487719 4.9768
      vertex 19.1 0.0956707 4.99103
    endloop
  endfacet
  facet normal 0 -0.290348 0.956921
    outer loop
      vertex 19.1 0.0487719 4.9768
      vertex 14.9174 0.0956707 4.99103
      vertex 14.9174 0.0487719 4.9768
    endloop
  endfacet
  facet normal 0 -0.956946 0.290267
    outer loop
      vertex 14.9174 0.230969 5.12633
      vertex 19.1 0.245195 5.17323
      vertex 14.9174 0.245195 5.17323
    endloop
  endfacet
  facet normal 0 -0.956946 0.290267
    outer loop
      vertex 19.1 0.245195 5.17323
      vertex 14.9174 0.230969 5.12633
      vertex 19.1 0.230969 5.12633
    endloop
  endfacet
  facet normal 0 -0.0979441 -0.995192
    outer loop
      vertex 14.9174 0 5.472
      vertex 19.1 0.0487719 5.4672
      vertex 19.1 0 5.472
    endloop
  endfacet
  facet normal -0 -0.0979441 -0.995192
    outer loop
      vertex 19.1 0.0487719 5.4672
      vertex 14.9174 0 5.472
      vertex 14.9174 0.0487719 5.4672
    endloop
  endfacet
  facet normal 0 -0.995182 0.098049
    outer loop
      vertex 14.9174 0.245195 5.17323
      vertex 19.1 0.25 5.222
      vertex 14.9174 0.25 5.222
    endloop
  endfacet
  facet normal 0 -0.995182 0.098049
    outer loop
      vertex 19.1 0.25 5.222
      vertex 14.9174 0.245195 5.17323
      vertex 19.1 0.245195 5.17323
    endloop
  endfacet
  facet normal 0 -0.995182 -0.098049
    outer loop
      vertex 14.9174 0.25 5.222
      vertex 19.1 0.245195 5.27077
      vertex 14.9174 0.245195 5.27077
    endloop
  endfacet
  facet normal 0 -0.995182 -0.098049
    outer loop
      vertex 19.1 0.245195 5.27077
      vertex 14.9174 0.25 5.222
      vertex 19.1 0.25 5.222
    endloop
  endfacet
  facet normal 0 -0.773056 0.634338
    outer loop
      vertex 14.9174 0.176776 5.04522
      vertex 19.1 0.207867 5.08311
      vertex 14.9174 0.207867 5.08311
    endloop
  endfacet
  facet normal 0 -0.773056 0.634338
    outer loop
      vertex 19.1 0.207867 5.08311
      vertex 14.9174 0.176776 5.04522
      vertex 19.1 0.176776 5.04522
    endloop
  endfacet
  facet normal 0 -0.634386 0.773016
    outer loop
      vertex 14.9174 0.176776 5.04522
      vertex 19.1 0.138892 5.01413
      vertex 19.1 0.176776 5.04522
    endloop
  endfacet
  facet normal 0 -0.634386 0.773016
    outer loop
      vertex 19.1 0.138892 5.01413
      vertex 14.9174 0.176776 5.04522
      vertex 14.9174 0.138892 5.01413
    endloop
  endfacet
  facet normal 0 -0.881918 0.471404
    outer loop
      vertex 14.9174 0.207867 5.08311
      vertex 19.1 0.230969 5.12633
      vertex 14.9174 0.230969 5.12633
    endloop
  endfacet
  facet normal 0 -0.881918 0.471404
    outer loop
      vertex 19.1 0.230969 5.12633
      vertex 14.9174 0.207867 5.08311
      vertex 19.1 0.207867 5.08311
    endloop
  endfacet
  facet normal 0 -0.773056 -0.634338
    outer loop
      vertex 14.9174 0.207867 5.36089
      vertex 19.1 0.176776 5.39878
      vertex 14.9174 0.176776 5.39878
    endloop
  endfacet
  facet normal 0 -0.773056 -0.634338
    outer loop
      vertex 19.1 0.176776 5.39878
      vertex 14.9174 0.207867 5.36089
      vertex 19.1 0.207867 5.36089
    endloop
  endfacet
  facet normal 0 -0.881918 -0.471404
    outer loop
      vertex 14.9174 0.230969 5.31767
      vertex 19.1 0.207867 5.36089
      vertex 14.9174 0.207867 5.36089
    endloop
  endfacet
  facet normal 0 -0.881918 -0.471404
    outer loop
      vertex 19.1 0.207867 5.36089
      vertex 14.9174 0.230969 5.31767
      vertex 19.1 0.230969 5.31767
    endloop
  endfacet
  facet normal 1 0 0
    outer loop
      vertex 14.9174 0.245195 5.27077
      vertex 14.9174 0.245195 5.17323
      vertex 14.9174 0.25 5.222
    endloop
  endfacet
  facet normal 1 0 0
    outer loop
      vertex 14.9174 0.230969 5.31767
      vertex 14.9174 0.245195 5.17323
      vertex 14.9174 0.245195 5.27077
    endloop
  endfacet
  facet normal 1 0 0
    outer loop
      vertex 14.9174 0.230969 5.31767
      vertex 14.9174 0.230969 5.12633
      vertex 14.9174 0.245195 5.17323
    endloop
  endfacet
  facet normal 1 0 0
    outer loop
      vertex 14.9174 0.207867 5.36089
      vertex 14.9174 0.230969 5.12633
      vertex 14.9174 0.230969 5.31767
    endloop
  endfacet
  facet normal 1 0 0
    outer loop
      vertex 14.9174 0.207867 5.36089
      vertex 14.9174 0.207867 5.08311
      vertex 14.9174 0.230969 5.12633
    endloop
  endfacet
  facet normal 1 0 0
    outer loop
      vertex 14.9174 0.176776 5.39878
      vertex 14.9174 0.207867 5.08311
      vertex 14.9174 0.207867 5.36089
    endloop
  endfacet
  facet normal 1 0 0
    outer loop
      vertex 14.9174 0.176776 5.39878
      vertex 14.9174 0.176776 5.04522
      vertex 14.9174 0.207867 5.08311
    endloop
  endfacet
  facet normal 1 0 0
    outer loop
      vertex 14.9174 0.138892 5.42987
      vertex 14.9174 0.176776 5.04522
      vertex 14.9174 0.176776 5.39878
    endloop
  endfacet
  facet normal 1 0 0
    outer loop
      vertex 14.9174 0.138892 5.42987
      vertex 14.9174 0.138892 5.01413
      vertex 14.9174 0.176776 5.04522
    endloop
  endfacet
  facet normal 1 0 0
    outer loop
      vertex 14.9174 0.0956707 5.45297
      vertex 14.9174 0.138892 5.01413
      vertex 14.9174 0.138892 5.42987
    endloop
  endfacet
  facet normal 1 0 0
    outer loop
      vertex 14.9174 0.0956707 5.45297
      vertex 14.9174 0.0956707 4.99103
      vertex 14.9174 0.138892 5.01413
    endloop
  endfacet
  facet normal 1 0 0
    outer loop
      vertex 14.9174 0.0487719 5.4672
      vertex 14.9174 0.0956707 4.99103
      vertex 14.9174 0.0956707 5.45297
    endloop
  endfacet
  facet normal 1 0 0
    outer loop
      vertex 14.9174 0.0487719 5.4672
      vertex 14.9174 0.0487719 4.9768
      vertex 14.9174 0.0956707 4.99103
    endloop
  endfacet
  facet normal 1 0 0
    outer loop
      vertex 14.9174 0 5.472
      vertex 14.9174 0.0487719 4.9768
      vertex 14.9174 0.0487719 5.4672
    endloop
  endfacet
  facet normal 1 0 0
    outer loop
      vertex 14.9174 0.0487719 4.9768
      vertex 14.9174 0 5.472
      vertex 14.9174 0 4.972
    endloop
  endfacet
  facet normal 0 -0.290348 -0.956921
    outer loop
      vertex 14.9174 0.0487719 5.4672
      vertex 19.1 0.0956707 5.45297
      vertex 19.1 0.0487719 5.4672
    endloop
  endfacet
  facet normal -0 -0.290348 -0.956921
    outer loop
      vertex 19.1 0.0956707 5.45297
      vertex 14.9174 0.0487719 5.4672
      vertex 14.9174 0.0956707 5.45297
    endloop
  endfacet
  facet normal 0 -0.471361 -0.88194
    outer loop
      vertex 14.9174 0.0956707 5.45297
      vertex 19.1 0.138892 5.42987
      vertex 19.1 0.0956707 5.45297
    endloop
  endfacet
  facet normal -0 -0.471361 -0.88194
    outer loop
      vertex 19.1 0.138892 5.42987
      vertex 14.9174 0.0956707 5.45297
      vertex 14.9174 0.138892 5.42987
    endloop
  endfacet
  facet normal 1 -0 0
    outer loop
      vertex 14.9174 -4.25 12.02
      vertex 14.9174 -2.25 7.972
      vertex 14.9174 -2.25 12.02
    endloop
  endfacet
  facet normal 1 0 0
    outer loop
      vertex 14.9174 -2.25 7.972
      vertex 14.9174 -4.25 12.02
      vertex 14.9174 -2.25 6.572
    endloop
  endfacet
  facet normal 1 0 0
    outer loop
      vertex 14.9174 -2.25 6.572
      vertex 14.9174 -4.25 12.02
      vertex 14.9174 -2.25 5.472
    endloop
  endfacet
  facet normal 1 0 0
    outer loop
      vertex 14.9174 -1.46537 7.40856
      vertex 14.9174 -1.46537 7.13544
      vertex 14.9174 -1.45 7.272
    endloop
  endfacet
  facet normal 1 0 0
    outer loop
      vertex 14.9174 -1.5109 7.53988
      vertex 14.9174 -1.46537 7.13544
      vertex 14.9174 -1.46537 7.40856
    endloop
  endfacet
  facet normal 1 0 0
    outer loop
      vertex 14.9174 -1.5109 7.53988
      vertex 14.9174 -1.5109 7.00412
      vertex 14.9174 -1.46537 7.13544
    endloop
  endfacet
  facet normal 1 0 0
    outer loop
      vertex 14.9174 -1.58482 7.6609
      vertex 14.9174 -1.5109 7.00412
      vertex 14.9174 -1.5109 7.53988
    endloop
  endfacet
  facet normal 1 0 0
    outer loop
      vertex 14.9174 -1.58482 7.6609
      vertex 14.9174 -1.58482 6.8831
      vertex 14.9174 -1.5109 7.00412
    endloop
  endfacet
  facet normal 1 0 0
    outer loop
      vertex 14.9174 -1.68431 7.76697
      vertex 14.9174 -1.58482 6.8831
      vertex 14.9174 -1.58482 7.6609
    endloop
  endfacet
  facet normal 1 0 0
    outer loop
      vertex 14.9174 -1.68431 7.76697
      vertex 14.9174 -1.68431 6.77703
      vertex 14.9174 -1.58482 6.8831
    endloop
  endfacet
  facet normal 1 0 0
    outer loop
      vertex 14.9174 -1.80554 7.85403
      vertex 14.9174 -1.68431 6.77703
      vertex 14.9174 -1.68431 7.76697
    endloop
  endfacet
  facet normal 1 0 0
    outer loop
      vertex 14.9174 -1.80554 7.85403
      vertex 14.9174 -1.80554 6.68997
      vertex 14.9174 -1.68431 6.77703
    endloop
  endfacet
  facet normal 1 0 0
    outer loop
      vertex 14.9174 -1.94385 7.91872
      vertex 14.9174 -1.80554 6.68997
      vertex 14.9174 -1.80554 7.85403
    endloop
  endfacet
  facet normal 1 0 0
    outer loop
      vertex 14.9174 -1.94385 7.91872
      vertex 14.9174 -1.94385 6.62528
      vertex 14.9174 -1.80554 6.68997
    endloop
  endfacet
  facet normal 1 0 0
    outer loop
      vertex 14.9174 -2.09393 7.95855
      vertex 14.9174 -1.94385 6.62528
      vertex 14.9174 -1.94385 7.91872
    endloop
  endfacet
  facet normal 1 0 0
    outer loop
      vertex 14.9174 -2.09393 7.95855
      vertex 14.9174 -2.09393 6.58545
      vertex 14.9174 -1.94385 6.62528
    endloop
  endfacet
  facet normal 1 0 0
    outer loop
      vertex 14.9174 -2.25 7.972
      vertex 14.9174 -2.09393 6.58545
      vertex 14.9174 -2.09393 7.95855
    endloop
  endfacet
  facet normal 1 0 0
    outer loop
      vertex 14.9174 -2.09393 6.58545
      vertex 14.9174 -2.25 7.972
      vertex 14.9174 -2.25 6.572
    endloop
  endfacet
  facet normal 1 -0 0
    outer loop
      vertex 14.9174 -2.25 5.472
      vertex 14.9174 0 -2
      vertex 14.9174 0 5.472
    endloop
  endfacet
  facet normal 1 0 0
    outer loop
      vertex 14.9174 -4.25 -2
      vertex 14.9174 -2.25 5.472
      vertex 14.9174 -4.25 12.02
    endloop
  endfacet
  facet normal 1 0 0
    outer loop
      vertex 14.9174 -2.25 5.472
      vertex 14.9174 -4.25 -2
      vertex 14.9174 0 -2
    endloop
  endfacet
  facet normal 0 0 1
    outer loop
      vertex 14.9174 -2.25 12.02
      vertex 9.55 -3.75 12.02
      vertex 14.9174 -4.25 12.02
    endloop
  endfacet
  facet normal 0 0 1
    outer loop
      vertex 14.9174 -2.25 12.02
      vertex 8.55 -3.75 12.02
      vertex 9.55 -3.75 12.02
    endloop
  endfacet
  facet normal -0 0 1
    outer loop
      vertex -1 -2.25 12.02
      vertex 8.55 -3.75 12.02
      vertex 14.9174 -2.25 12.02
    endloop
  endfacet
  facet normal 0 0 1
    outer loop
      vertex -1 -4.25 12.02
      vertex 8.55 -3.75 12.02
      vertex -1 -2.25 12.02
    endloop
  endfacet
  facet normal 0 0 1
    outer loop
      vertex 8.55 -3.75 12.02
      vertex -1 -4.25 12.02
      vertex 8.55 -4.25 12.02
    endloop
  endfacet
  facet normal 0 0 1
    outer loop
      vertex 14.9174 -4.25 12.02
      vertex 9.55 -3.75 12.02
      vertex 9.55 -4.25 12.02
    endloop
  endfacet
  facet normal 0 -1 0
    outer loop
      vertex 7.12629 -4.25 4.97624
      vertex 8.42013 -4.25 1.48929
      vertex 8.58693 -4.25 4.97624
    endloop
  endfacet
  facet normal -0 -1 0
    outer loop
      vertex 8.42013 -4.25 1.48929
      vertex 7.12629 -4.25 4.97624
      vertex 7.12629 -4.25 0.565704
    endloop
  endfacet
  facet normal 0 -1 0
    outer loop
      vertex -1 -4.25 12.02
      vertex 8.55 -4.25 9.52
      vertex 8.55 -4.25 12.02
    endloop
  endfacet
  facet normal 0 -1 0
    outer loop
      vertex 8.58693 -4.25 5.59874
      vertex 8.55 -4.25 9.52
      vertex 4.99427 -4.25 5.59874
    endloop
  endfacet
  facet normal 0 -1 0
    outer loop
      vertex -1 -4.25 12.02
      vertex 4.99427 -4.25 5.59874
      vertex 8.55 -4.25 9.52
    endloop
  endfacet
  facet normal 0 -1 0
    outer loop
      vertex -1 -4.25 12.02
      vertex 4.99427 -4.25 4.97624
      vertex 4.99427 -4.25 5.59874
    endloop
  endfacet
  facet normal 0 -1 0
    outer loop
      vertex 4.99427 -4.25 4.97624
      vertex 6.38981 -4.25 -0.134125
      vertex 6.38981 -4.25 4.97624
    endloop
  endfacet
  facet normal 0 -1 0
    outer loop
      vertex -1 -4.25 -2
      vertex 4.99427 -4.25 4.97624
      vertex -1 -4.25 12.02
    endloop
  endfacet
  facet normal 0 -1 -0
    outer loop
      vertex 6.38981 -4.25 -0.134125
      vertex -1 -4.25 -2
      vertex 7.06521 -4.25 -0.134125
    endloop
  endfacet
  facet normal 0 -1 -0
    outer loop
      vertex 4.99427 -4.25 4.97624
      vertex -1 -4.25 -2
      vertex 6.38981 -4.25 -0.134125
    endloop
  endfacet
  facet normal 0 -1 0
    outer loop
      vertex 9.55 -4.25 9.52
      vertex 14.9174 -4.25 12.02
      vertex 9.55 -4.25 12.02
    endloop
  endfacet
  facet normal 0 -1 0
    outer loop
      vertex 8.55 -4.25 9.52
      vertex 8.58693 -4.25 5.59874
      vertex 9.55 -4.25 9.52
    endloop
  endfacet
  facet normal 0 -1 -0
    outer loop
      vertex 9.55 -4.25 9.52
      vertex 8.58693 -4.25 5.59874
      vertex 14.9174 -4.25 12.02
    endloop
  endfacet
  facet normal 0 -1 0
    outer loop
      vertex 8.58693 -4.25 4.97624
      vertex 14.9174 -4.25 12.02
      vertex 8.58693 -4.25 5.59874
    endloop
  endfacet
  facet normal 0 -1 0
    outer loop
      vertex 14.9174 -4.25 -2
      vertex 8.58693 -4.25 4.97624
      vertex 8.42013 -4.25 1.48929
    endloop
  endfacet
  facet normal 0 -1 0
    outer loop
      vertex 14.9174 -4.25 -2
      vertex 8.42013 -4.25 1.48929
      vertex 8.42013 -4.25 0.797607
    endloop
  endfacet
  facet normal 0 -1 0
    outer loop
      vertex 8.58693 -4.25 4.97624
      vertex 14.9174 -4.25 -2
      vertex 14.9174 -4.25 12.02
    endloop
  endfacet
  facet normal 0 -1 0
    outer loop
      vertex 7.06521 -4.25 -0.134125
      vertex 14.9174 -4.25 -2
      vertex 8.42013 -4.25 0.797607
    endloop
  endfacet
  facet normal 0 -1 0
    outer loop
      vertex 14.9174 -4.25 -2
      vertex 7.06521 -4.25 -0.134125
      vertex -1 -4.25 -2
    endloop
  endfacet
  facet normal -1 0 0
    outer loop
      vertex 9.55 -4.25 9.52
      vertex 9.55 -3.75 12.02
      vertex 9.55 -3.75 9.52
    endloop
  endfacet
  facet normal -1 -0 0
    outer loop
      vertex 9.55 -3.75 12.02
      vertex 9.55 -4.25 9.52
      vertex 9.55 -4.25 12.02
    endloop
  endfacet
  facet normal -0 0 1
    outer loop
      vertex 8.55 -3.75 9.52
      vertex 9.55 -4.25 9.52
      vertex 9.55 -3.75 9.52
    endloop
  endfacet
  facet normal 0 0 1
    outer loop
      vertex 9.55 -4.25 9.52
      vertex 8.55 -3.75 9.52
      vertex 8.55 -4.25 9.52
    endloop
  endfacet
  facet normal 1 -0 0
    outer loop
      vertex 8.55 -4.25 12.02
      vertex 8.55 -3.75 9.52
      vertex 8.55 -3.75 12.02
    endloop
  endfacet
  facet normal 1 0 0
    outer loop
      vertex 8.55 -3.75 9.52
      vertex 8.55 -4.25 12.02
      vertex 8.55 -4.25 9.52
    endloop
  endfacet
  facet normal 0 -1 0
    outer loop
      vertex 8.55 -3.75 9.52
      vertex 9.55 -3.75 12.02
      vertex 8.55 -3.75 12.02
    endloop
  endfacet
  facet normal 0 -1 -0
    outer loop
      vertex 9.55 -3.75 12.02
      vertex 8.55 -3.75 9.52
      vertex 9.55 -3.75 9.52
    endloop
  endfacet
  facet normal -0 0 1
    outer loop
      vertex -1 0 5.472
      vertex 14.9174 -2.25 5.472
      vertex 14.9174 0 5.472
    endloop
  endfacet
  facet normal 0 0 1
    outer loop
      vertex 14.9174 -2.25 5.472
      vertex -1 0 5.472
      vertex -1 -2.25 5.472
    endloop
  endfacet
  facet normal 0 1 -0
    outer loop
      vertex 14.9174 -2.25 7.972
      vertex -1 -2.25 12.02
      vertex 14.9174 -2.25 12.02
    endloop
  endfacet
  facet normal 0 1 0
    outer loop
      vertex -1 -2.25 12.02
      vertex 14.9174 -2.25 7.972
      vertex -1 -2.25 7.972
    endloop
  endfacet
  facet normal 0 1 -0
    outer loop
      vertex 14.9174 -2.25 5.472
      vertex -1 -2.25 6.572
      vertex 14.9174 -2.25 6.572
    endloop
  endfacet
  facet normal 0 1 0
    outer loop
      vertex -1 -2.25 6.572
      vertex 14.9174 -2.25 5.472
      vertex -1 -2.25 5.472
    endloop
  endfacet
  facet normal 0 -1 0
    outer loop
      vertex 6.38981 -3.75 4.97624
      vertex 7.12629 -3.75 0.565704
      vertex 7.12629 -3.75 4.97624
    endloop
  endfacet
  facet normal -0 -1 0
    outer loop
      vertex 7.12629 -3.75 0.565704
      vertex 6.38981 -3.75 4.97624
      vertex 6.38981 -3.75 -0.134125
    endloop
  endfacet
  facet normal 0 -1 0
    outer loop
      vertex 6.38981 -3.75 4.97624
      vertex 4.99427 -3.75 5.59874
      vertex 4.99427 -3.75 4.97624
    endloop
  endfacet
  facet normal 0 -1 0
    outer loop
      vertex 7.12629 -3.75 4.97624
      vertex 4.99427 -3.75 5.59874
      vertex 6.38981 -3.75 4.97624
    endloop
  endfacet
  facet normal 0 -1 0
    outer loop
      vertex 4.99427 -3.75 5.59874
      vertex 7.12629 -3.75 4.97624
      vertex 8.58693 -3.75 5.59874
    endloop
  endfacet
  facet normal 0 -1 -0
    outer loop
      vertex 8.58693 -3.75 5.59874
      vertex 7.12629 -3.75 4.97624
      vertex 8.58693 -3.75 4.97624
    endloop
  endfacet
  facet normal 0 -1 0
    outer loop
      vertex 7.12629 -3.75 0.565704
      vertex 8.42013 -3.75 0.797607
      vertex 8.42013 -3.75 1.48929
    endloop
  endfacet
  facet normal 0 -1 0
    outer loop
      vertex 7.06521 -3.75 -0.134125
      vertex 7.12629 -3.75 0.565704
      vertex 6.38981 -3.75 -0.134125
    endloop
  endfacet
  facet normal 0 -1 -0
    outer loop
      vertex 7.12629 -3.75 0.565704
      vertex 7.06521 -3.75 -0.134125
      vertex 8.42013 -3.75 0.797607
    endloop
  endfacet
  facet normal -0 0 1
    outer loop
      vertex 4.99427 -3.75 4.97624
      vertex 6.38981 -4.25 4.97624
      vertex 6.38981 -3.75 4.97624
    endloop
  endfacet
  facet normal 0 0 1
    outer loop
      vertex 6.38981 -4.25 4.97624
      vertex 4.99427 -3.75 4.97624
      vertex 4.99427 -4.25 4.97624
    endloop
  endfacet
  facet normal 1 -0 0
    outer loop
      vertex 6.38981 -4.25 4.97624
      vertex 6.38981 -3.75 -0.134125
      vertex 6.38981 -3.75 4.97624
    endloop
  endfacet
  facet normal 1 0 0
    outer loop
      vertex 6.38981 -3.75 -0.134125
      vertex 6.38981 -4.25 4.97624
      vertex 6.38981 -4.25 -0.134125
    endloop
  endfacet
  facet normal -0 0 1
    outer loop
      vertex 6.38981 -3.75 -0.134125
      vertex 7.06521 -4.25 -0.134125
      vertex 7.06521 -3.75 -0.134125
    endloop
  endfacet
  facet normal 0 0 1
    outer loop
      vertex 7.06521 -4.25 -0.134125
      vertex 6.38981 -3.75 -0.134125
      vertex 6.38981 -4.25 -0.134125
    endloop
  endfacet
  facet normal -0.566622 0 0.823978
    outer loop
      vertex 7.06521 -3.75 -0.134125
      vertex 8.42013 -4.25 0.797607
      vertex 8.42013 -3.75 0.797607
    endloop
  endfacet
  facet normal -0.566622 0 0.823978
    outer loop
      vertex 8.42013 -4.25 0.797607
      vertex 7.06521 -3.75 -0.134125
      vertex 7.06521 -4.25 -0.134125
    endloop
  endfacet
  facet normal -1 0 0
    outer loop
      vertex 8.42013 -4.25 0.797607
      vertex 8.42013 -3.75 1.48929
      vertex 8.42013 -3.75 0.797607
    endloop
  endfacet
  facet normal -1 -0 0
    outer loop
      vertex 8.42013 -3.75 1.48929
      vertex 8.42013 -4.25 0.797607
      vertex 8.42013 -4.25 1.48929
    endloop
  endfacet
  facet normal 0.580994 0 -0.813908
    outer loop
      vertex 7.12629 -4.25 0.565704
      vertex 8.42013 -3.75 1.48929
      vertex 8.42013 -4.25 1.48929
    endloop
  endfacet
  facet normal 0.580994 0 -0.813908
    outer loop
      vertex 8.42013 -3.75 1.48929
      vertex 7.12629 -4.25 0.565704
      vertex 7.12629 -3.75 0.565704
    endloop
  endfacet
  facet normal -1 0 0
    outer loop
      vertex 7.12629 -4.25 0.565704
      vertex 7.12629 -3.75 4.97624
      vertex 7.12629 -3.75 0.565704
    endloop
  endfacet
  facet normal -1 -0 0
    outer loop
      vertex 7.12629 -3.75 4.97624
      vertex 7.12629 -4.25 0.565704
      vertex 7.12629 -4.25 4.97624
    endloop
  endfacet
  facet normal -0 0 1
    outer loop
      vertex 7.12629 -3.75 4.97624
      vertex 8.58693 -4.25 4.97624
      vertex 8.58693 -3.75 4.97624
    endloop
  endfacet
  facet normal 0 0 1
    outer loop
      vertex 8.58693 -4.25 4.97624
      vertex 7.12629 -3.75 4.97624
      vertex 7.12629 -4.25 4.97624
    endloop
  endfacet
  facet normal -1 0 0
    outer loop
      vertex 8.58693 -4.25 4.97624
      vertex 8.58693 -3.75 5.59874
      vertex 8.58693 -3.75 4.97624
    endloop
  endfacet
  facet normal -1 -0 0
    outer loop
      vertex 8.58693 -3.75 5.59874
      vertex 8.58693 -4.25 4.97624
      vertex 8.58693 -4.25 5.59874
    endloop
  endfacet
  facet normal 0 0 -1
    outer loop
      vertex 4.99427 -4.25 5.59874
      vertex 8.58693 -3.75 5.59874
      vertex 8.58693 -4.25 5.59874
    endloop
  endfacet
  facet normal -0 0 -1
    outer loop
      vertex 8.58693 -3.75 5.59874
      vertex 4.99427 -4.25 5.59874
      vertex 4.99427 -3.75 5.59874
    endloop
  endfacet
  facet normal 1 -0 0
    outer loop
      vertex 4.99427 -4.25 5.59874
      vertex 4.99427 -3.75 4.97624
      vertex 4.99427 -3.75 5.59874
    endloop
  endfacet
  facet normal 1 0 0
    outer loop
      vertex 4.99427 -3.75 4.97624
      vertex 4.99427 -4.25 5.59874
      vertex 4.99427 -4.25 4.97624
    endloop
  endfacet
  facet normal 0 0.993726 -0.111845
    outer loop
      vertex 14.9174 -1.46537 7.13544
      vertex -1 -1.45 7.272
      vertex 14.9174 -1.45 7.272
    endloop
  endfacet
  facet normal 0 0.993726 -0.111845
    outer loop
      vertex -1 -1.45 7.272
      vertex 14.9174 -1.46537 7.13544
      vertex -1 -1.46537 7.13544
    endloop
  endfacet
  facet normal 0 0.423667 -0.905818
    outer loop
      vertex -1 -1.94385 6.62528
      vertex 14.9174 -1.80554 6.68997
      vertex 14.9174 -1.94385 6.62528
    endloop
  endfacet
  facet normal 0 0.423667 -0.905818
    outer loop
      vertex 14.9174 -1.80554 6.68997
      vertex -1 -1.94385 6.62528
      vertex -1 -1.80554 6.68997
    endloop
  endfacet
  facet normal 0 0.256512 -0.966541
    outer loop
      vertex -1 -2.09393 6.58545
      vertex 14.9174 -1.94385 6.62528
      vertex 14.9174 -2.09393 6.58545
    endloop
  endfacet
  facet normal 0 0.256512 -0.966541
    outer loop
      vertex 14.9174 -1.94385 6.62528
      vertex -1 -2.09393 6.58545
      vertex -1 -1.94385 6.62528
    endloop
  endfacet
  facet normal -0 0.423667 0.905818
    outer loop
      vertex -1 -1.80554 7.85403
      vertex 14.9174 -1.94385 7.91872
      vertex 14.9174 -1.80554 7.85403
    endloop
  endfacet
  facet normal 0 0.423667 0.905818
    outer loop
      vertex 14.9174 -1.94385 7.91872
      vertex -1 -1.80554 7.85403
      vertex -1 -1.94385 7.91872
    endloop
  endfacet
  facet normal 0 0.853397 -0.521262
    outer loop
      vertex 14.9174 -1.58482 6.8831
      vertex -1 -1.5109 7.00412
      vertex 14.9174 -1.5109 7.00412
    endloop
  endfacet
  facet normal 0 0.853397 -0.521262
    outer loop
      vertex -1 -1.5109 7.00412
      vertex 14.9174 -1.58482 6.8831
      vertex -1 -1.58482 6.8831
    endloop
  endfacet
  facet normal 0 0.583309 -0.81225
    outer loop
      vertex -1 -1.80554 6.68997
      vertex 14.9174 -1.68431 6.77703
      vertex 14.9174 -1.80554 6.68997
    endloop
  endfacet
  facet normal 0 0.583309 -0.81225
    outer loop
      vertex 14.9174 -1.68431 6.77703
      vertex -1 -1.80554 6.68997
      vertex -1 -1.68431 6.77703
    endloop
  endfacet
  facet normal 0 0.944823 -0.32758
    outer loop
      vertex 14.9174 -1.5109 7.00412
      vertex -1 -1.46537 7.13544
      vertex 14.9174 -1.46537 7.13544
    endloop
  endfacet
  facet normal 0 0.944823 -0.32758
    outer loop
      vertex -1 -1.46537 7.13544
      vertex 14.9174 -1.5109 7.00412
      vertex -1 -1.5109 7.00412
    endloop
  endfacet
  facet normal -0 0.085861 0.996307
    outer loop
      vertex -1 -2.09393 7.95855
      vertex 14.9174 -2.25 7.972
      vertex 14.9174 -2.09393 7.95855
    endloop
  endfacet
  facet normal 0 0.085861 0.996307
    outer loop
      vertex 14.9174 -2.25 7.972
      vertex -1 -2.09393 7.95855
      vertex -1 -2.25 7.972
    endloop
  endfacet
  facet normal -0 0.256512 0.966541
    outer loop
      vertex -1 -1.94385 7.91872
      vertex 14.9174 -2.09393 7.95855
      vertex 14.9174 -1.94385 7.91872
    endloop
  endfacet
  facet normal 0 0.256512 0.966541
    outer loop
      vertex 14.9174 -2.09393 7.95855
      vertex -1 -1.94385 7.91872
      vertex -1 -2.09393 7.95855
    endloop
  endfacet
  facet normal 0 0.085861 -0.996307
    outer loop
      vertex -1 -2.25 6.572
      vertex 14.9174 -2.09393 6.58545
      vertex 14.9174 -2.25 6.572
    endloop
  endfacet
  facet normal 0 0.085861 -0.996307
    outer loop
      vertex 14.9174 -2.09393 6.58545
      vertex -1 -2.25 6.572
      vertex -1 -2.09393 6.58545
    endloop
  endfacet
  facet normal 0 0.993726 0.111845
    outer loop
      vertex 14.9174 -1.45 7.272
      vertex -1 -1.46537 7.40856
      vertex 14.9174 -1.46537 7.40856
    endloop
  endfacet
  facet normal 0 0.993726 0.111845
    outer loop
      vertex -1 -1.46537 7.40856
      vertex 14.9174 -1.45 7.272
      vertex -1 -1.45 7.272
    endloop
  endfacet
  facet normal 0 0.729368 0.684122
    outer loop
      vertex 14.9174 -1.58482 7.6609
      vertex -1 -1.68431 7.76697
      vertex 14.9174 -1.68431 7.76697
    endloop
  endfacet
  facet normal 0 0.729368 0.684122
    outer loop
      vertex -1 -1.68431 7.76697
      vertex 14.9174 -1.58482 7.6609
      vertex -1 -1.58482 7.6609
    endloop
  endfacet
  facet normal 0 0.729368 -0.684122
    outer loop
      vertex 14.9174 -1.68431 6.77703
      vertex -1 -1.58482 6.8831
      vertex 14.9174 -1.58482 6.8831
    endloop
  endfacet
  facet normal 0 0.729368 -0.684122
    outer loop
      vertex -1 -1.58482 6.8831
      vertex 14.9174 -1.68431 6.77703
      vertex -1 -1.68431 6.77703
    endloop
  endfacet
  facet normal -0 0.583309 0.81225
    outer loop
      vertex -1 -1.68431 7.76697
      vertex 14.9174 -1.80554 7.85403
      vertex 14.9174 -1.68431 7.76697
    endloop
  endfacet
  facet normal 0 0.583309 0.81225
    outer loop
      vertex 14.9174 -1.80554 7.85403
      vertex -1 -1.68431 7.76697
      vertex -1 -1.80554 7.85403
    endloop
  endfacet
  facet normal 0 0.944823 0.32758
    outer loop
      vertex 14.9174 -1.46537 7.40856
      vertex -1 -1.5109 7.53988
      vertex 14.9174 -1.5109 7.53988
    endloop
  endfacet
  facet normal 0 0.944823 0.32758
    outer loop
      vertex -1 -1.5109 7.53988
      vertex 14.9174 -1.46537 7.40856
      vertex -1 -1.46537 7.40856
    endloop
  endfacet
  facet normal 0 0.853397 0.521262
    outer loop
      vertex 14.9174 -1.5109 7.53988
      vertex -1 -1.58482 7.6609
      vertex 14.9174 -1.58482 7.6609
    endloop
  endfacet
  facet normal 0 0.853397 0.521262
    outer loop
      vertex -1 -1.58482 7.6609
      vertex 14.9174 -1.5109 7.53988
      vertex -1 -1.5109 7.53988
    endloop
  endfacet
endsolid OpenSCAD_Model
